  0
SECTION
  2
HEADER
  9
$ACADVER
  1
AC1014
  9
$HANDSEED
  5
FFFF
  9
$MEASUREMENT
 70
     1
  0
ENDSEC
  0
SECTION
  2
TABLES
  0
TABLE
  2
VPORT
  5
8
330
0
100
AcDbSymbolTable
 70
     4
  0
VPORT
  5
2E
330
8
100
AcDbSymbolTableRecord
100
AcDbViewportTableRecord
  2
*ACTIVE
 70
     0
 10
0.0
 20
0.0
 11
1.0
 21
1.0
 12
210.0
 22
148.5
 13
0.0
 23
0.0
 14
10.0
 24
10.0
 15
10.0
 25
10.0
 16
0.0
 26
0.0
 36
1.0
 17
0.0
 27
0.0
 37
0.0
 40
341.0
 41
1.24
 42
50.0
 43
0.0
 44
0.0
 50
0.0
 51
0.0
 71
     0
 72
   100
 73
     1
 74
     3
 75
     0
 76
     0
 77
     0
 78
     0
  0
ENDTAB
  0
TABLE
  2
LTYPE
  5
5
330
0
100
AcDbSymbolTable
 70
     1
  0
LTYPE
  5
14
330
5
100
AcDbSymbolTableRecord
100
AcDbLinetypeTableRecord
  2
BYBLOCK
 70
     0
  3

 72
    65
 73
     0
 40
0.0
  0
LTYPE
  5
15
330
5
100
AcDbSymbolTableRecord
100
AcDbLinetypeTableRecord
  2
BYLAYER
 70
     0
  3

 72
    65
 73
     0
 40
0.0
  0
LTYPE
  5
16
330
5
100
AcDbSymbolTableRecord
100
AcDbLinetypeTableRecord
  2
CONTINUOUS
 70
     0
  3
Solid line
 72
    65
 73
     0
 40
0.0
  0
ENDTAB
  0
TABLE
  2
LAYER
  5
2
100
AcDbSymbolTable
 70
2
  0
LAYER
  5
50
100
AcDbSymbolTableRecord
100
AcDbLayerTableRecord
  2
0
 70
0
  6
CONTINUOUS
  0
LAYER
  5
51
100
AcDbSymbolTableRecord
100
AcDbLayerTableRecord
  2
H0104_Printing
 70
0
  6
CONTINUOUS
  0
ENDTAB
  0
TABLE
  2
STYLE
  5
3
330
0
100
AcDbSymbolTable
 70
     1
  0
STYLE
  5
11
330
3
100
AcDbSymbolTableRecord
100
AcDbTextStyleTableRecord
  2
STANDARD
 70
     0
 40
0.0
 41
1.0
 50
0.0
 71
     0
 42
2.5
  3
txt
  4

  0
ENDTAB
  0
TABLE
  2
VIEW
  5
6
330
0
100
AcDbSymbolTable
 70
     0
  0
ENDTAB
  0
TABLE
  2
UCS
  5
7
330
0
100
AcDbSymbolTable
 70
     0
  0
ENDTAB
  0
TABLE
  2
APPID
  5
9
330
0
100
AcDbSymbolTable
 70
     2
  0
APPID
  5
12
330
9
100
AcDbSymbolTableRecord
100
AcDbRegAppTableRecord
  2
ACAD
 70
     0
  0
ENDTAB
  0
TABLE
  2
DIMSTYLE
  5
A
330
0
100
AcDbSymbolTable
 70
     1
  0
DIMSTYLE
105
27
330
A
100
AcDbSymbolTableRecord
100
AcDbDimStyleTableRecord
  2
ISO-25
 70
     0
  3

  4

  5

  6

  7

 40
1.0
 41
2.5
 42
0.625
 43
3.75
 44
1.25
 45
0.0
 46
0.0
 47
0.0
 48
0.0
140
2.5
141
2.5
142
0.0
143
0.03937007874016
144
1.0
145
0.0
146
1.0
147
0.625
 71
     0
 72
     0
 73
     0
 74
     0
 75
     0
 76
     0
 77
     1
 78
     8
170
     0
171
     3
172
     1
173
     0
174
     0
175
     0
176
     0
177
     0
178
     0
270
     2
271
     2
272
     2
273
     2
274
     3
340
11
275
     0
280
     0
281
     0
282
     0
283
     0
284
     8
285
     0
286
     0
287
     3
288
     0
  0
ENDTAB
  0
TABLE
  2
BLOCK_RECORD
  5
1
330
0
100
AcDbSymbolTable
 70
     1
  0
BLOCK_RECORD
  5
1F
330
1
100
AcDbSymbolTableRecord
100
AcDbBlockTableRecord
  2
*MODEL_SPACE
  0
BLOCK_RECORD
  5
1B
330
1
100
AcDbSymbolTableRecord
100
AcDbBlockTableRecord
  2
*PAPER_SPACE
  0
ENDTAB
  0
ENDSEC
  0
SECTION
  2
BLOCKS
  0
BLOCK
  5
20
330
1F
100
AcDbEntity
  8
0
100
AcDbBlockBegin
  2
*MODEL_SPACE
 70
     0
 10
0.0
 20
0.0
 30
0.0
  3
*MODEL_SPACE
  1

  0
ENDBLK
  5
21
330
1F
100
AcDbEntity
  8
0
100
AcDbBlockEnd
  0
BLOCK
  5
1C
330
1B
100
AcDbEntity
 67
     1
  8
0
100
AcDbBlockBegin
  2
*PAPER_SPACE
  1

  0
ENDBLK
  5
1D
330
1B
100
AcDbEntity
 67
     1
  8
0
100
AcDbBlockEnd
  0
ENDSEC
  0
SECTION
  2
ENTITIES
  0
SPLINE
  5
100
100
AcDbEntity
  8
H0104_Printing
 62
7
100
AcDbSpline
 70
8
 71
3
 72
8
 73
4
 74
0
 40
0
 40
0
 40
0
 40
0
 40
1
 40
1
 40
1
 40
1
 10
733.756282
 20
975.831976
 30
0.0
 10
733.756282
 20
973.050976
 30
0.0
 10
731.495282
 20
970.796976
 30
0.0
 10
728.706282
 20
970.796976
 30
0.0
  0
SPLINE
  5
101
100
AcDbEntity
  8
H0104_Printing
 62
7
100
AcDbSpline
 70
8
 71
3
 72
8
 73
4
 74
0
 40
0
 40
0
 40
0
 40
0
 40
1
 40
1
 40
1
 40
1
 10
728.706282
 20
970.796976
 30
0.0
 10
725.916282
 20
970.796976
 30
0.0
 10
723.655282
 20
973.050976
 30
0.0
 10
723.655282
 20
975.831976
 30
0.0
  0
SPLINE
  5
102
100
AcDbEntity
  8
H0104_Printing
 62
7
100
AcDbSpline
 70
8
 71
3
 72
8
 73
4
 74
0
 40
0
 40
0
 40
0
 40
0
 40
1
 40
1
 40
1
 40
1
 10
723.655282
 20
975.831976
 30
0.0
 10
723.655282
 20
978.612976
 30
0.0
 10
725.916282
 20
980.866975
 30
0.0
 10
728.706282
 20
980.866975
 30
0.0
  0
SPLINE
  5
103
100
AcDbEntity
  8
H0104_Printing
 62
7
100
AcDbSpline
 70
8
 71
3
 72
8
 73
4
 74
0
 40
0
 40
0
 40
0
 40
0
 40
1
 40
1
 40
1
 40
1
 10
728.706282
 20
980.866975
 30
0.0
 10
731.495282
 20
980.866975
 30
0.0
 10
733.756282
 20
978.612976
 30
0.0
 10
733.756282
 20
975.831976
 30
0.0
  0
LWPOLYLINE
  5
104
100
AcDbEntity
  8
H0104_Printing
 62
7
100
AcDbPolyline
 90
1
 70
1
 10
733.756282
 20
975.831976
 30
0.0
  0
SPLINE
  5
105
100
AcDbEntity
  8
H0104_Printing
 62
7
100
AcDbSpline
 70
8
 71
3
 72
8
 73
4
 74
0
 40
0
 40
0
 40
0
 40
0
 40
1
 40
1
 40
1
 40
1
 10
823.589279
 20
1162.929971
 30
0.0
 10
823.589279
 20
1167.498971
 30
0.0
 10
826.671279
 20
1170.545971
 30
0.0
 10
828.212279
 20
1173.592971
 30
0.0
  0
SPLINE
  5
106
100
AcDbEntity
  8
H0104_Printing
 62
7
100
AcDbSpline
 70
8
 71
3
 72
8
 73
4
 74
0
 40
0
 40
0
 40
0
 40
0
 40
1
 40
1
 40
1
 40
1
 10
828.212279
 20
1173.592971
 30
0.0
 10
831.293279
 20
1175.116971
 30
0.0
 10
834.375279
 20
1176.639971
 30
0.0
 10
837.456279
 20
1176.639971
 30
0.0
  0
LWPOLYLINE
  5
107
100
AcDbEntity
  8
H0104_Printing
 62
7
100
AcDbPolyline
 90
4
 70
0
 10
817.426280
 20
1225.385969
 30
0.0
 10
817.426280
 20
1225.385969
 30
0.0
 10
817.426280
 20
1162.929971
 30
0.0
 10
823.589279
 20
1162.929971
 30
0.0
  0
SPLINE
  5
108
100
AcDbEntity
  8
H0104_Printing
 62
7
100
AcDbSpline
 70
8
 71
3
 72
8
 73
4
 74
0
 40
0
 40
0
 40
0
 40
0
 40
1
 40
1
 40
1
 40
1
 10
855.946279
 20
1170.545971
 30
0.0
 10
874.435278
 20
1162.929971
 30
0.0
 10
894.466278
 20
1161.405971
 30
0.0
 10
914.496277
 20
1164.452971
 30
0.0
  0
SPLINE
  5
109
100
AcDbEntity
  8
H0104_Printing
 62
7
100
AcDbSpline
 70
8
 71
3
 72
8
 73
4
 74
0
 40
0
 40
0
 40
0
 40
0
 40
1
 40
1
 40
1
 40
1
 10
914.496277
 20
1164.452971
 30
0.0
 10
979.209276
 20
1173.592971
 30
0.0
 10
1016.188275
 20
1240.618969
 30
0.0
 10
988.454275
 20
1298.505968
 30
0.0
  0
SPLINE
  5
10a
100
AcDbEntity
  8
H0104_Printing
 62
7
100
AcDbSpline
 70
8
 71
3
 72
8
 73
4
 74
0
 40
0
 40
0
 40
0
 40
0
 40
1
 40
1
 40
1
 40
1
 10
988.454275
 20
1298.505968
 30
0.0
 10
976.127276
 20
1319.832967
 30
0.0
 10
959.179276
 20
1335.065967
 30
0.0
 10
937.608277
 20
1342.681966
 30
0.0
  0
SPLINE
  5
10b
100
AcDbEntity
  8
H0104_Printing
 62
7
100
AcDbSpline
 70
8
 71
3
 72
8
 73
4
 74
0
 40
0
 40
0
 40
0
 40
0
 40
1
 40
1
 40
1
 40
1
 10
937.608277
 20
1342.681966
 30
0.0
 10
923.741277
 20
1347.252966
 30
0.0
 10
908.333277
 20
1350.299966
 30
0.0
 10
894.466278
 20
1348.775966
 30
0.0
  0
SPLINE
  5
10c
100
AcDbEntity
  8
H0104_Printing
 62
7
100
AcDbSpline
 70
8
 71
3
 72
8
 73
4
 74
0
 40
0
 40
0
 40
0
 40
0
 40
1
 40
1
 40
1
 40
1
 10
894.466278
 20
1348.775966
 30
0.0
 10
868.272278
 20
1350.299966
 30
0.0
 10
842.079279
 20
1344.205966
 30
0.0
 10
817.426280
 20
1333.542967
 30
0.0
  0
LWPOLYLINE
  5
10d
100
AcDbEntity
  8
H0104_Printing
 62
7
100
AcDbPolyline
 90
2
 70
0
 10
837.456279
 20
1176.639971
 30
0.0
 10
855.946279
 20
1170.545971
 30
0.0
  0
SPLINE
  5
10e
100
AcDbEntity
  8
H0104_Printing
 62
7
100
AcDbSpline
 70
8
 71
3
 72
8
 73
4
 74
0
 40
0
 40
0
 40
0
 40
0
 40
1
 40
1
 40
1
 40
1
 10
802.018280
 20
1293.508968
 30
0.0
 10
792.774280
 20
1325.498967
 30
0.0
 10
766.580281
 20
1339.635967
 30
0.0
 10
734.224282
 20
1345.729966
 30
0.0
  0
SPLINE
  5
10f
100
AcDbEntity
  8
H0104_Printing
 62
7
100
AcDbSpline
 70
8
 71
3
 72
8
 73
4
 74
0
 40
0
 40
0
 40
0
 40
0
 40
1
 40
1
 40
1
 40
1
 10
734.224282
 20
1345.729966
 30
0.0
 10
780.447280
 20
1354.868966
 30
0.0
 10
812.804280
 20
1399.045965
 30
0.0
 10
806.641280
 20
1446.268964
 30
0.0
  0
SPLINE
  5
110
100
AcDbEntity
  8
H0104_Printing
 62
7
100
AcDbSpline
 70
8
 71
3
 72
8
 73
4
 74
0
 40
0
 40
0
 40
0
 40
0
 40
1
 40
1
 40
1
 40
1
 10
806.641280
 20
1446.268964
 30
0.0
 10
803.559280
 20
1481.305963
 30
0.0
 10
778.907281
 20
1511.771962
 30
0.0
 10
746.550281
 20
1523.958962
 30
0.0
  0
LWPOLYLINE
  5
111
100
AcDbEntity
  8
H0104_Printing
 62
7
100
AcDbPolyline
 90
4
 70
0
 10
817.426280
 20
1333.542967
 30
0.0
 10
817.426280
 20
1299.602968
 30
0.0
 10
817.426280
 20
1293.508968
 30
0.0
 10
802.018280
 20
1293.508968
 30
0.0
  0
SPLINE
  5
112
100
AcDbEntity
  8
H0104_Printing
 62
7
100
AcDbSpline
 70
8
 71
3
 72
8
 73
4
 74
0
 40
0
 40
0
 40
0
 40
0
 40
1
 40
1
 40
1
 40
1
 10
802.018280
 20
1528.528962
 30
0.0
 10
795.855280
 20
1527.004962
 30
0.0
 10
789.692280
 20
1528.528962
 30
0.0
 10
783.529280
 20
1531.574962
 30
0.0
  0
SPLINE
  5
113
100
AcDbEntity
  8
H0104_Printing
 62
7
100
AcDbSpline
 70
8
 71
3
 72
8
 73
4
 74
0
 40
0
 40
0
 40
0
 40
0
 40
1
 40
1
 40
1
 40
1
 10
783.529280
 20
1531.574962
 30
0.0
 10
780.447280
 20
1533.098962
 30
0.0
 10
777.366281
 20
1536.145962
 30
0.0
 10
777.366281
 20
1539.191962
 30
0.0
  0
LWPOLYLINE
  5
114
100
AcDbEntity
  8
H0104_Printing
 62
7
100
AcDbPolyline
 90
3
 70
0
 10
746.550281
 20
1523.958962
 30
0.0
 10
802.018280
 20
1523.958962
 30
0.0
 10
802.018280
 20
1528.528962
 30
0.0
  0
SPLINE
  5
115
100
AcDbEntity
  8
H0104_Printing
 62
7
100
AcDbSpline
 70
8
 71
3
 72
8
 73
4
 74
0
 40
0
 40
0
 40
0
 40
0
 40
1
 40
1
 40
1
 40
1
 10
775.825281
 20
1670.198958
 30
0.0
 10
775.825281
 20
1676.291958
 30
0.0
 10
775.825281
 20
1682.384958
 30
0.0
 10
777.366281
 20
1686.954958
 30
0.0
  0
SPLINE
  5
116
100
AcDbEntity
  8
H0104_Printing
 62
7
100
AcDbSpline
 70
8
 71
3
 72
8
 73
4
 74
0
 40
0
 40
0
 40
0
 40
0
 40
1
 40
1
 40
1
 40
1
 10
777.366281
 20
1686.954958
 30
0.0
 10
778.907281
 20
1690.001958
 30
0.0
 10
781.988280
 20
1693.048958
 30
0.0
 10
785.070280
 20
1694.571958
 30
0.0
  0
SPLINE
  5
117
100
AcDbEntity
  8
H0104_Printing
 62
7
100
AcDbSpline
 70
8
 71
3
 72
8
 73
4
 74
0
 40
0
 40
0
 40
0
 40
0
 40
1
 40
1
 40
1
 40
1
 10
785.070280
 20
1694.571958
 30
0.0
 10
791.233280
 20
1696.094958
 30
0.0
 10
795.855280
 20
1696.094958
 30
0.0
 10
802.018280
 20
1696.094958
 30
0.0
  0
LWPOLYLINE
  5
118
100
AcDbEntity
  8
H0104_Printing
 62
7
100
AcDbPolyline
 90
3
 70
0
 10
777.366281
 20
1539.191962
 30
0.0
 10
775.825281
 20
1554.424961
 30
0.0
 10
775.825281
 20
1670.198958
 30
0.0
  0
SPLINE
  5
119
100
AcDbEntity
  8
H0104_Printing
 62
7
100
AcDbSpline
 70
8
 71
3
 72
8
 73
4
 74
0
 40
0
 40
0
 40
0
 40
0
 40
1
 40
1
 40
1
 40
1
 10
712.653282
 20
1700.664957
 30
0.0
 10
695.704283
 20
1700.664957
 30
0.0
 10
678.755283
 20
1697.617958
 30
0.0
 10
663.347283
 20
1690.001958
 30
0.0
  0
SPLINE
  5
11a
100
AcDbEntity
  8
H0104_Printing
 62
7
100
AcDbSpline
 70
8
 71
3
 72
8
 73
4
 74
0
 40
0
 40
0
 40
0
 40
0
 40
1
 40
1
 40
1
 40
1
 10
663.347283
 20
1690.001958
 30
0.0
 10
644.858284
 20
1680.861958
 30
0.0
 10
630.991284
 20
1665.627958
 30
0.0
 10
623.287284
 20
1647.347959
 30
0.0
  0
SPLINE
  5
11b
100
AcDbEntity
  8
H0104_Printing
 62
7
100
AcDbSpline
 70
8
 71
3
 72
8
 73
4
 74
0
 40
0
 40
0
 40
0
 40
0
 40
1
 40
1
 40
1
 40
1
 10
623.287284
 20
1647.347959
 30
0.0
 10
614.042285
 20
1619.928960
 30
0.0
 10
615.583285
 20
1589.461960
 30
0.0
 10
630.991284
 20
1563.565961
 30
0.0
  0
SPLINE
  5
11c
100
AcDbEntity
  8
H0104_Printing
 62
7
100
AcDbSpline
 70
8
 71
3
 72
8
 73
4
 74
0
 40
0
 40
0
 40
0
 40
0
 40
1
 40
1
 40
1
 40
1
 10
630.991284
 20
1563.565961
 30
0.0
 10
641.776284
 20
1543.761961
 30
0.0
 10
661.807283
 20
1530.051962
 30
0.0
 10
684.918283
 20
1527.004962
 30
0.0
  0
SPLINE
  5
11d
100
AcDbEntity
  8
H0104_Printing
 62
7
100
AcDbSpline
 70
8
 71
3
 72
8
 73
4
 74
0
 40
0
 40
0
 40
0
 40
0
 40
1
 40
1
 40
1
 40
1
 10
684.918283
 20
1527.004962
 30
0.0
 10
664.888283
 20
1522.435962
 30
0.0
 10
646.399284
 20
1511.771962
 30
0.0
 10
632.532284
 20
1495.014963
 30
0.0
  0
SPLINE
  5
11e
100
AcDbEntity
  8
H0104_Printing
 62
7
100
AcDbSpline
 70
8
 71
3
 72
8
 73
4
 74
0
 40
0
 40
0
 40
0
 40
0
 40
1
 40
1
 40
1
 40
1
 10
632.532284
 20
1495.014963
 30
0.0
 10
617.124285
 20
1473.688963
 30
0.0
 10
609.420285
 20
1447.791964
 30
0.0
 10
614.042285
 20
1421.895964
 30
0.0
  0
SPLINE
  5
11f
100
AcDbEntity
  8
H0104_Printing
 62
7
100
AcDbSpline
 70
8
 71
3
 72
8
 73
4
 74
0
 40
0
 40
0
 40
0
 40
0
 40
1
 40
1
 40
1
 40
1
 10
614.042285
 20
1421.895964
 30
0.0
 10
618.665285
 20
1383.812965
 30
0.0
 10
647.940284
 20
1353.345966
 30
0.0
 10
686.459283
 20
1345.729966
 30
0.0
  0
SPLINE
  5
120
100
AcDbEntity
  8
H0104_Printing
 62
7
100
AcDbSpline
 70
8
 71
3
 72
8
 73
4
 74
0
 40
0
 40
0
 40
0
 40
0
 40
1
 40
1
 40
1
 40
1
 10
686.459283
 20
1345.729966
 30
0.0
 10
654.103284
 20
1339.635967
 30
0.0
 10
627.909284
 20
1318.308967
 30
0.0
 10
618.665285
 20
1287.841968
 30
0.0
  0
LWPOLYLINE
  5
121
100
AcDbEntity
  8
H0104_Printing
 62
7
100
AcDbPolyline
 90
3
 70
0
 10
802.018280
 20
1696.094958
 30
0.0
 10
802.018280
 20
1700.664957
 30
0.0
 10
712.653282
 20
1700.664957
 30
0.0
  0
SPLINE
  5
122
100
AcDbEntity
  8
H0104_Printing
 62
7
100
AcDbSpline
 70
8
 71
3
 72
8
 73
4
 74
0
 40
0
 40
0
 40
0
 40
0
 40
1
 40
1
 40
1
 40
1
 10
618.665285
 20
1324.401967
 30
0.0
 10
618.665285
 20
1330.495967
 30
0.0
 10
621.746284
 20
1336.588967
 30
0.0
 10
627.909284
 20
1338.112967
 30
0.0
  0
SPLINE
  5
123
100
AcDbEntity
  8
H0104_Printing
 62
7
100
AcDbSpline
 70
8
 71
3
 72
8
 73
4
 74
0
 40
0
 40
0
 40
0
 40
0
 40
1
 40
1
 40
1
 40
1
 10
627.909284
 20
1338.112967
 30
0.0
 10
632.532284
 20
1339.635967
 30
0.0
 10
638.695284
 20
1339.635967
 30
0.0
 10
643.317284
 20
1339.635967
 30
0.0
  0
LWPOLYLINE
  5
124
100
AcDbEntity
  8
H0104_Printing
 62
7
100
AcDbPolyline
 90
2
 70
0
 10
618.665285
 20
1287.841968
 30
0.0
 10
618.665285
 20
1324.401967
 30
0.0
  0
SPLINE
  5
125
100
AcDbEntity
  8
H0104_Printing
 62
7
100
AcDbSpline
 70
8
 71
3
 72
8
 73
4
 74
0
 40
0
 40
0
 40
0
 40
0
 40
1
 40
1
 40
1
 40
1
 10
553.952286
 20
1344.205966
 30
0.0
 10
537.003287
 20
1344.205966
 30
0.0
 10
520.054287
 20
1341.158966
 30
0.0
 10
504.646287
 20
1333.542967
 30
0.0
  0
SPLINE
  5
126
100
AcDbEntity
  8
H0104_Printing
 62
7
100
AcDbSpline
 70
8
 71
3
 72
8
 73
4
 74
0
 40
0
 40
0
 40
0
 40
0
 40
1
 40
1
 40
1
 40
1
 10
504.646287
 20
1333.542967
 30
0.0
 10
486.157288
 20
1324.401967
 30
0.0
 10
472.290288
 20
1309.169967
 30
0.0
 10
466.127288
 20
1290.889968
 30
0.0
  0
SPLINE
  5
127
100
AcDbEntity
  8
H0104_Printing
 62
7
100
AcDbSpline
 70
8
 71
3
 72
8
 73
4
 74
0
 40
0
 40
0
 40
0
 40
0
 40
1
 40
1
 40
1
 40
1
 10
466.127288
 20
1290.889968
 30
0.0
 10
455.341289
 20
1263.468968
 30
0.0
 10
458.423289
 20
1233.002969
 30
0.0
 10
472.290288
 20
1207.105970
 30
0.0
  0
SPLINE
  5
128
100
AcDbEntity
  8
H0104_Printing
 62
7
100
AcDbSpline
 70
8
 71
3
 72
8
 73
4
 74
0
 40
0
 40
0
 40
0
 40
0
 40
1
 40
1
 40
1
 40
1
 10
472.290288
 20
1207.105970
 30
0.0
 10
484.616288
 20
1187.302970
 30
0.0
 10
504.646287
 20
1173.592971
 30
0.0
 10
527.758287
 20
1170.545971
 30
0.0
  0
SPLINE
  5
129
100
AcDbEntity
  8
H0104_Printing
 62
7
100
AcDbSpline
 70
8
 71
3
 72
8
 73
4
 74
0
 40
0
 40
0
 40
0
 40
0
 40
1
 40
1
 40
1
 40
1
 10
527.758287
 20
1170.545971
 30
0.0
 10
538.544287
 20
1167.498971
 30
0.0
 10
550.870286
 20
1167.498971
 30
0.0
 10
561.655286
 20
1167.498971
 30
0.0
  0
LWPOLYLINE
  5
12a
100
AcDbEntity
  8
H0104_Printing
 62
7
100
AcDbPolyline
 90
3
 70
0
 10
643.317284
 20
1339.635967
 30
0.0
 10
643.317284
 20
1344.205966
 30
0.0
 10
553.952286
 20
1344.205966
 30
0.0
  0
SPLINE
  5
12b
100
AcDbEntity
  8
H0104_Printing
 62
7
100
AcDbSpline
 70
8
 71
3
 72
8
 73
4
 74
0
 40
0
 40
0
 40
0
 40
0
 40
1
 40
1
 40
1
 40
1
 10
643.317284
 20
1172.068971
 30
0.0
 10
637.154284
 20
1170.545971
 30
0.0
 10
630.991284
 20
1172.068971
 30
0.0
 10
624.828284
 20
1175.116971
 30
0.0
  0
SPLINE
  5
12c
100
AcDbEntity
  8
H0104_Printing
 62
7
100
AcDbSpline
 70
8
 71
3
 72
8
 73
4
 74
0
 40
0
 40
0
 40
0
 40
0
 40
1
 40
1
 40
1
 40
1
 10
624.828284
 20
1175.116971
 30
0.0
 10
621.746284
 20
1176.639971
 30
0.0
 10
620.205284
 20
1179.685971
 30
0.0
 10
618.665285
 20
1182.732970
 30
0.0
  0
SPLINE
  5
12d
100
AcDbEntity
  8
H0104_Printing
 62
7
100
AcDbSpline
 70
8
 71
3
 72
8
 73
4
 74
0
 40
0
 40
0
 40
0
 40
0
 40
1
 40
1
 40
1
 40
1
 10
618.665285
 20
1182.732970
 30
0.0
 10
618.665285
 20
1196.442970
 30
0.0
 10
617.124285
 20
1208.628970
 30
0.0
 10
618.665285
 20
1222.339969
 30
0.0
  0
SPLINE
  5
12e
100
AcDbEntity
  8
H0104_Printing
 62
7
100
AcDbSpline
 70
8
 71
3
 72
8
 73
4
 74
0
 40
0
 40
0
 40
0
 40
0
 40
1
 40
1
 40
1
 40
1
 10
618.665285
 20
1222.339969
 30
0.0
 10
627.909284
 20
1196.442970
 30
0.0
 10
649.480284
 20
1176.639971
 30
0.0
 10
675.674283
 20
1167.498971
 30
0.0
  0
SPLINE
  5
12f
100
AcDbEntity
  8
H0104_Printing
 62
7
100
AcDbSpline
 70
8
 71
3
 72
8
 73
4
 74
0
 40
0
 40
0
 40
0
 40
0
 40
1
 40
1
 40
1
 40
1
 10
675.674283
 20
1167.498971
 30
0.0
 10
658.725284
 20
1165.975971
 30
0.0
 10
643.317284
 20
1161.405971
 30
0.0
 10
627.909284
 20
1155.312971
 30
0.0
  0
LWPOLYLINE
  5
130
100
AcDbEntity
  8
H0104_Printing
 62
7
100
AcDbPolyline
 90
3
 70
0
 10
561.655286
 20
1167.498971
 30
0.0
 10
643.317284
 20
1167.498971
 30
0.0
 10
643.317284
 20
1172.068971
 30
0.0
  0
SPLINE
  5
131
100
AcDbEntity
  8
H0104_Printing
 62
7
100
AcDbSpline
 70
8
 71
3
 72
8
 73
4
 74
0
 40
0
 40
0
 40
0
 40
0
 40
1
 40
1
 40
1
 40
1
 10
626.369284
 20
1111.136972
 30
0.0
 10
627.909284
 20
1105.041972
 30
0.0
 10
623.287284
 20
1100.472972
 30
0.0
 10
617.124285
 20
1097.425973
 30
0.0
  0
SPLINE
  5
132
100
AcDbEntity
  8
H0104_Printing
 62
7
100
AcDbSpline
 70
8
 71
3
 72
8
 73
4
 74
0
 40
0
 40
0
 40
0
 40
0
 40
1
 40
1
 40
1
 40
1
 10
617.124285
 20
1097.425973
 30
0.0
 10
614.042285
 20
1097.425973
 30
0.0
 10
609.420285
 20
1095.902973
 30
0.0
 10
606.338285
 20
1095.902973
 30
0.0
  0
LWPOLYLINE
  5
133
100
AcDbEntity
  8
H0104_Printing
 62
7
100
AcDbPolyline
 90
2
 70
0
 10
627.909284
 20
1155.312971
 30
0.0
 10
626.369284
 20
1111.136972
 30
0.0
  0
SPLINE
  5
134
100
AcDbEntity
  8
H0104_Printing
 62
7
100
AcDbSpline
 70
8
 71
3
 72
8
 73
4
 74
0
 40
0
 40
0
 40
0
 40
0
 40
1
 40
1
 40
1
 40
1
 10
606.338285
 20
1091.332973
 30
0.0
 10
606.338285
 20
1091.332973
 30
0.0
 10
629.532284
 20
1080.405973
 30
0.0
 10
631.916284
 20
1066.898973
 30
0.0
  0
SPLINE
  5
135
100
AcDbEntity
  8
H0104_Printing
 62
7
100
AcDbSpline
 70
8
 71
3
 72
8
 73
4
 74
0
 40
0
 40
0
 40
0
 40
0
 40
1
 40
1
 40
1
 40
1
 10
631.916284
 20
1066.898973
 30
0.0
 10
634.300284
 20
1053.390974
 30
0.0
 10
627.909284
 20
1047.156974
 30
0.0
 10
627.909284
 20
1047.156974
 30
0.0
  0
LWPOLYLINE
  5
136
100
AcDbEntity
  8
H0104_Printing
 62
7
100
AcDbPolyline
 90
2
 70
0
 10
606.338285
 20
1095.902973
 30
0.0
 10
606.338285
 20
1091.332973
 30
0.0
  0
SPLINE
  5
137
100
AcDbEntity
  8
H0104_Printing
 62
7
100
AcDbSpline
 70
8
 71
3
 72
8
 73
4
 74
0
 40
0
 40
0
 40
0
 40
0
 40
1
 40
1
 40
1
 40
1
 10
632.532284
 20
983.175975
 30
0.0
 10
632.532284
 20
987.745975
 30
0.0
 10
635.613284
 20
990.792975
 30
0.0
 10
638.695284
 20
993.840975
 30
0.0
  0
SPLINE
  5
138
100
AcDbEntity
  8
H0104_Printing
 62
7
100
AcDbSpline
 70
8
 71
3
 72
8
 73
4
 74
0
 40
0
 40
0
 40
0
 40
0
 40
1
 40
1
 40
1
 40
1
 10
638.695284
 20
993.840975
 30
0.0
 10
640.236284
 20
996.886975
 30
0.0
 10
643.317284
 20
996.886975
 30
0.0
 10
646.399284
 20
996.886975
 30
0.0
  0
LWPOLYLINE
  5
139
100
AcDbEntity
  8
H0104_Printing
 62
7
100
AcDbPolyline
 90
3
 70
0
 10
627.909284
 20
1047.156974
 30
0.0
 10
627.909284
 20
983.175975
 30
0.0
 10
632.532284
 20
983.175975
 30
0.0
  0
SPLINE
  5
13a
100
AcDbEntity
  8
H0104_Printing
 62
7
100
AcDbSpline
 70
8
 71
3
 72
8
 73
4
 74
0
 40
0
 40
0
 40
0
 40
0
 40
1
 40
1
 40
1
 40
1
 10
664.888283
 20
990.792975
 30
0.0
 10
682.422283
 20
983.569975
 30
0.0
 10
701.341282
 20
981.834975
 30
0.0
 10
720.331282
 20
984.271975
 30
0.0
  0
SPLINE
  5
13b
100
AcDbEntity
  8
H0104_Printing
 62
7
100
AcDbSpline
 70
8
 71
3
 72
8
 73
4
 74
0
 40
0
 40
0
 40
0
 40
0
 40
1
 40
1
 40
1
 40
1
 10
720.331282
 20
984.271975
 30
0.0
 10
718.181282
 20
982.112975
 30
0.0
 10
714.621282
 20
979.128976
 30
0.0
 10
714.621282
 20
975.831976
 30
0.0
  0
SPLINE
  5
13c
100
AcDbEntity
  8
H0104_Printing
 62
7
100
AcDbSpline
 70
8
 71
3
 72
8
 73
4
 74
0
 40
0
 40
0
 40
0
 40
0
 40
1
 40
1
 40
1
 40
1
 10
714.621282
 20
975.831976
 30
0.0
 10
714.621282
 20
969.245976
 30
0.0
 10
722.158282
 20
960.200976
 30
0.0
 10
728.706282
 20
960.200976
 30
0.0
  0
SPLINE
  5
13d
100
AcDbEntity
  8
H0104_Printing
 62
7
100
AcDbSpline
 70
8
 71
3
 72
8
 73
4
 74
0
 40
0
 40
0
 40
0
 40
0
 40
1
 40
1
 40
1
 40
1
 10
728.706282
 20
960.200976
 30
0.0
 10
735.253282
 20
960.200976
 30
0.0
 10
743.664281
 20
969.245976
 30
0.0
 10
743.664281
 20
975.831976
 30
0.0
  0
SPLINE
  5
13e
100
AcDbEntity
  8
H0104_Printing
 62
7
100
AcDbSpline
 70
8
 71
3
 72
8
 73
4
 74
0
 40
0
 40
0
 40
0
 40
0
 40
1
 40
1
 40
1
 40
1
 10
743.664281
 20
975.831976
 30
0.0
 10
743.664281
 20
980.658975
 30
0.0
 10
737.703282
 20
984.806975
 30
0.0
 10
733.602282
 20
986.682975
 30
0.0
  0
SPLINE
  5
13f
100
AcDbEntity
  8
H0104_Printing
 62
7
100
AcDbSpline
 70
8
 71
3
 72
8
 73
4
 74
0
 40
0
 40
0
 40
0
 40
0
 40
1
 40
1
 40
1
 40
1
 10
733.602282
 20
986.682975
 30
0.0
 10
791.927280
 20
1001.174975
 30
0.0
 10
823.642279
 20
1065.494973
 30
0.0
 10
797.396280
 20
1120.276972
 30
0.0
  0
SPLINE
  5
140
100
AcDbEntity
  8
H0104_Printing
 62
7
100
AcDbSpline
 70
8
 71
3
 72
8
 73
4
 74
0
 40
0
 40
0
 40
0
 40
0
 40
1
 40
1
 40
1
 40
1
 10
797.396280
 20
1120.276972
 30
0.0
 10
783.529280
 20
1143.125971
 30
0.0
 10
761.958281
 20
1159.882971
 30
0.0
 10
737.305282
 20
1165.975971
 30
0.0
  0
SPLINE
  5
141
100
AcDbEntity
  8
H0104_Printing
 62
7
100
AcDbSpline
 70
8
 71
3
 72
8
 73
4
 74
0
 40
0
 40
0
 40
0
 40
0
 40
1
 40
1
 40
1
 40
1
 10
737.305282
 20
1165.975971
 30
0.0
 10
778.907281
 20
1175.116971
 30
0.0
 10
808.181280
 20
1213.199970
 30
0.0
 10
806.641280
 20
1254.329969
 30
0.0
  0
LWPOLYLINE
  5
142
100
AcDbEntity
  8
H0104_Printing
 62
7
100
AcDbPolyline
 90
2
 70
0
 10
646.399284
 20
996.886975
 30
0.0
 10
664.888283
 20
990.792975
 30
0.0
  0
SPLINE
  5
143
100
AcDbEntity
  8
H0104_Printing
 62
7
100
AcDbSpline
 70
8
 71
3
 72
8
 73
4
 74
0
 40
0
 40
0
 40
0
 40
0
 40
1
 40
1
 40
1
 40
1
 10
806.694280
 20
1254.934969
 30
0.0
 10
806.694280
 20
1254.934969
 30
0.0
 10
818.059280
 20
1257.337969
 30
0.0
 10
821.059279
 20
1245.337969
 30
0.0
  0
SPLINE
  5
144
100
AcDbEntity
  8
H0104_Printing
 62
7
100
AcDbSpline
 70
8
 71
3
 72
8
 73
4
 74
0
 40
0
 40
0
 40
0
 40
0
 40
1
 40
1
 40
1
 40
1
 10
821.059279
 20
1245.337969
 30
0.0
 10
824.059279
 20
1233.337969
 30
0.0
 10
817.426280
 20
1225.385969
 30
0.0
 10
817.426280
 20
1225.385969
 30
0.0
  0
LWPOLYLINE
  5
145
100
AcDbEntity
  8
H0104_Printing
 62
7
100
AcDbPolyline
 90
2
 70
0
 10
806.641280
 20
1254.329969
 30
0.0
 10
806.694280
 20
1254.934969
 30
0.0
  0
SPLINE
  5
146
100
AcDbEntity
  8
H0104_Printing
 62
7
100
AcDbSpline
 70
8
 71
3
 72
8
 73
4
 74
0
 40
0
 40
0
 40
0
 40
0
 40
1
 40
1
 40
1
 40
1
 10
484.004188
 20
1362.360066
 30
0.0
 10
482.463188
 20
1354.744066
 30
0.0
 10
477.841188
 20
1347.126066
 30
0.0
 10
473.219188
 20
1341.033066
 30
0.0
  0
SPLINE
  5
147
100
AcDbEntity
  8
H0104_Printing
 62
7
100
AcDbSpline
 70
8
 71
3
 72
8
 73
4
 74
0
 40
0
 40
0
 40
0
 40
0
 40
1
 40
1
 40
1
 40
1
 10
473.219188
 20
1341.033066
 30
0.0
 10
462.433188
 20
1327.323067
 30
0.0
 10
443.944189
 20
1322.753067
 30
0.0
 10
428.536189
 20
1327.323067
 30
0.0
  0
SPLINE
  5
148
100
AcDbEntity
  8
H0104_Printing
 62
7
100
AcDbSpline
 70
8
 71
3
 72
8
 73
4
 74
0
 40
0
 40
0
 40
0
 40
0
 40
1
 40
1
 40
1
 40
1
 10
428.536189
 20
1327.323067
 30
0.0
 10
425.454189
 20
1328.847067
 30
0.0
 10
425.454189
 20
1330.370067
 30
0.0
 10
423.913189
 20
1333.416067
 30
0.0
  0
LWPOLYLINE
  5
149
100
AcDbEntity
  8
H0104_Printing
 62
7
100
AcDbPolyline
 90
1
 70
1
 10
817.426280
 20
1225.385969
 30
0.0
  0
SPLINE
  5
14a
100
AcDbEntity
  8
H0104_Printing
 62
7
100
AcDbSpline
 70
8
 71
3
 72
8
 73
4
 74
0
 40
0
 40
0
 40
0
 40
0
 40
1
 40
1
 40
1
 40
1
 10
442.403189
 20
1482.703063
 30
0.0
 10
457.811189
 20
1481.179063
 30
0.0
 10
471.678188
 20
1472.040063
 30
0.0
 10
477.841188
 20
1458.330064
 30
0.0
  0
SPLINE
  5
14b
100
AcDbEntity
  8
H0104_Printing
 62
7
100
AcDbSpline
 70
8
 71
3
 72
8
 73
4
 74
0
 40
0
 40
0
 40
0
 40
0
 40
1
 40
1
 40
1
 40
1
 10
477.841188
 20
1458.330064
 30
0.0
 10
482.463188
 20
1452.237064
 30
0.0
 10
484.004188
 20
1444.620064
 30
0.0
 10
485.545188
 20
1437.003064
 30
0.0
  0
SPLINE
  5
14c
100
AcDbEntity
  8
H0104_Printing
 62
7
100
AcDbSpline
 70
8
 71
3
 72
8
 73
4
 74
0
 40
0
 40
0
 40
0
 40
0
 40
1
 40
1
 40
1
 40
1
 10
485.545188
 20
1437.003064
 30
0.0
 10
491.708188
 20
1412.630065
 30
0.0
 10
490.167188
 20
1386.733065
 30
0.0
 10
484.004188
 20
1362.360066
 30
0.0
  0
LWPOLYLINE
  5
14d
100
AcDbEntity
  8
H0104_Printing
 62
7
100
AcDbPolyline
 90
4
 70
0
 10
423.913189
 20
1333.416067
 30
0.0
 10
423.913189
 20
1345.603066
 30
0.0
 10
423.913189
 20
1484.226063
 30
0.0
 10
442.403189
 20
1482.703063
 30
0.0
  0
LWPOLYLINE
  5
14e
100
AcDbEntity
  8
H0104_Printing
 62
7
100
AcDbPolyline
 90
1
 70
1
 10
484.004188
 20
1362.360066
 30
0.0
  0
SPLINE
  5
14f
100
AcDbEntity
  8
H0104_Printing
 62
7
100
AcDbSpline
 70
8
 71
3
 72
8
 73
4
 74
0
 40
0
 40
0
 40
0
 40
0
 40
1
 40
1
 40
1
 40
1
 10
339.170192
 20
1371.500066
 30
0.0
 10
340.711191
 20
1376.070066
 30
0.0
 10
340.711191
 20
1383.687065
 30
0.0
 10
337.629192
 20
1388.256065
 30
0.0
  0
SPLINE
  5
150
100
AcDbEntity
  8
H0104_Printing
 62
7
100
AcDbSpline
 70
8
 71
3
 72
8
 73
4
 74
0
 40
0
 40
0
 40
0
 40
0
 40
1
 40
1
 40
1
 40
1
 10
337.629192
 20
1388.256065
 30
0.0
 10
333.007192
 20
1395.873065
 30
0.0
 10
326.844192
 20
1401.967065
 30
0.0
 10
319.140192
 20
1405.013065
 30
0.0
  0
SPLINE
  5
151
100
AcDbEntity
  8
H0104_Printing
 62
7
100
AcDbSpline
 70
8
 71
3
 72
8
 73
4
 74
0
 40
0
 40
0
 40
0
 40
0
 40
1
 40
1
 40
1
 40
1
 10
319.140192
 20
1405.013065
 30
0.0
 10
323.762192
 20
1408.060065
 30
0.0
 10
326.844192
 20
1411.107065
 30
0.0
 10
329.925192
 20
1415.677065
 30
0.0
  0
LWPOLYLINE
  5
152
100
AcDbEntity
  8
H0104_Printing
 62
7
100
AcDbPolyline
 90
2
 70
0
 10
348.415191
 20
1376.070066
 30
0.0
 10
339.170192
 20
1371.500066
 30
0.0
  0
SPLINE
  5
153
100
AcDbEntity
  8
H0104_Printing
 62
7
100
AcDbSpline
 70
8
 71
3
 72
8
 73
4
 74
0
 40
0
 40
0
 40
0
 40
0
 40
1
 40
1
 40
1
 40
1
 10
329.925192
 20
1420.246064
 30
0.0
 10
322.221192
 20
1426.340064
 30
0.0
 10
309.895192
 20
1424.816064
 30
0.0
 10
303.732192
 20
1415.677065
 30
0.0
  0
SPLINE
  5
154
100
AcDbEntity
  8
H0104_Printing
 62
7
100
AcDbSpline
 70
8
 71
3
 72
8
 73
4
 74
0
 40
0
 40
0
 40
0
 40
0
 40
1
 40
1
 40
1
 40
1
 10
303.732192
 20
1415.677065
 30
0.0
 10
302.191192
 20
1412.630065
 30
0.0
 10
302.191192
 20
1409.583065
 30
0.0
 10
303.732192
 20
1406.536065
 30
0.0
  0
SPLINE
  5
155
100
AcDbEntity
  8
H0104_Printing
 62
7
100
AcDbSpline
 70
8
 71
3
 72
8
 73
4
 74
0
 40
0
 40
0
 40
0
 40
0
 40
1
 40
1
 40
1
 40
1
 10
303.732192
 20
1406.536065
 30
0.0
 10
299.110193
 20
1401.967065
 30
0.0
 10
294.487193
 20
1397.397065
 30
0.0
 10
291.406193
 20
1391.303065
 30
0.0
  0
SPLINE
  5
156
100
AcDbEntity
  8
H0104_Printing
 62
7
100
AcDbSpline
 70
8
 71
3
 72
8
 73
4
 74
0
 40
0
 40
0
 40
0
 40
0
 40
1
 40
1
 40
1
 40
1
 10
291.406193
 20
1391.303065
 30
0.0
 10
291.406193
 20
1392.827065
 30
0.0
 10
289.865193
 20
1394.350065
 30
0.0
 10
288.324193
 20
1394.350065
 30
0.0
  0
SPLINE
  5
157
100
AcDbEntity
  8
H0104_Printing
 62
7
100
AcDbSpline
 70
8
 71
3
 72
8
 73
4
 74
0
 40
0
 40
0
 40
0
 40
0
 40
1
 40
1
 40
1
 40
1
 10
288.324193
 20
1394.350065
 30
0.0
 10
285.242193
 20
1392.827065
 30
0.0
 10
282.161193
 20
1391.303065
 30
0.0
 10
280.620193
 20
1388.256065
 30
0.0
  0
SPLINE
  5
158
100
AcDbEntity
  8
H0104_Printing
 62
7
100
AcDbSpline
 70
8
 71
3
 72
8
 73
4
 74
0
 40
0
 40
0
 40
0
 40
0
 40
1
 40
1
 40
1
 40
1
 10
280.620193
 20
1388.256065
 30
0.0
 10
275.998193
 20
1380.640065
 30
0.0
 10
269.835193
 20
1374.547066
 30
0.0
 10
263.671193
 20
1368.453066
 30
0.0
  0
SPLINE
  5
159
100
AcDbEntity
  8
H0104_Printing
 62
7
100
AcDbSpline
 70
8
 71
3
 72
8
 73
4
 74
0
 40
0
 40
0
 40
0
 40
0
 40
1
 40
1
 40
1
 40
1
 10
263.671193
 20
1368.453066
 30
0.0
 10
262.131193
 20
1366.930066
 30
0.0
 10
260.590193
 20
1365.407066
 30
0.0
 10
257.508194
 20
1365.407066
 30
0.0
  0
SPLINE
  5
15a
100
AcDbEntity
  8
H0104_Printing
 62
7
100
AcDbSpline
 70
8
 71
3
 72
8
 73
4
 74
0
 40
0
 40
0
 40
0
 40
0
 40
1
 40
1
 40
1
 40
1
 10
257.508194
 20
1365.407066
 30
0.0
 10
255.967194
 20
1365.407066
 30
0.0
 10
254.427194
 20
1366.930066
 30
0.0
 10
254.427194
 20
1368.453066
 30
0.0
  0
SPLINE
  5
15b
100
AcDbEntity
  8
H0104_Printing
 62
7
100
AcDbSpline
 70
8
 71
3
 72
8
 73
4
 74
0
 40
0
 40
0
 40
0
 40
0
 40
1
 40
1
 40
1
 40
1
 10
254.427194
 20
1368.453066
 30
0.0
 10
252.886194
 20
1371.500066
 30
0.0
 10
252.886194
 20
1374.547066
 30
0.0
 10
252.886194
 20
1377.593066
 30
0.0
  0
SPLINE
  5
15c
100
AcDbEntity
  8
H0104_Printing
 62
7
100
AcDbSpline
 70
8
 71
3
 72
8
 73
4
 74
0
 40
0
 40
0
 40
0
 40
0
 40
1
 40
1
 40
1
 40
1
 10
252.886194
 20
1377.593066
 30
0.0
 10
255.967194
 20
1386.733065
 30
0.0
 10
259.049194
 20
1395.873065
 30
0.0
 10
265.212193
 20
1405.013065
 30
0.0
  0
SPLINE
  5
15d
100
AcDbEntity
  8
H0104_Printing
 62
7
100
AcDbSpline
 70
8
 71
3
 72
8
 73
4
 74
0
 40
0
 40
0
 40
0
 40
0
 40
1
 40
1
 40
1
 40
1
 10
265.212193
 20
1405.013065
 30
0.0
 10
266.753193
 20
1408.060065
 30
0.0
 10
263.671193
 20
1411.107065
 30
0.0
 10
260.590193
 20
1412.630065
 30
0.0
  0
LWPOLYLINE
  5
15e
100
AcDbEntity
  8
H0104_Printing
 62
7
100
AcDbPolyline
 90
2
 70
0
 10
329.925192
 20
1415.677065
 30
0.0
 10
329.925192
 20
1420.246064
 30
0.0
  0
SPLINE
  5
15f
100
AcDbEntity
  8
H0104_Printing
 62
7
100
AcDbSpline
 70
8
 71
3
 72
8
 73
4
 74
0
 40
0
 40
0
 40
0
 40
0
 40
1
 40
1
 40
1
 40
1
 10
263.671193
 20
1417.200065
 30
0.0
 10
268.294193
 20
1417.200065
 30
0.0
 10
272.916193
 20
1418.723065
 30
0.0
 10
275.998193
 20
1421.770064
 30
0.0
  0
SPLINE
  5
160
100
AcDbEntity
  8
H0104_Printing
 62
7
100
AcDbSpline
 70
8
 71
3
 72
8
 73
4
 74
0
 40
0
 40
0
 40
0
 40
0
 40
1
 40
1
 40
1
 40
1
 10
275.998193
 20
1421.770064
 30
0.0
 10
282.161193
 20
1424.816064
 30
0.0
 10
282.161193
 20
1433.957064
 30
0.0
 10
275.998193
 20
1438.527064
 30
0.0
  0
SPLINE
  5
161
100
AcDbEntity
  8
H0104_Printing
 62
7
100
AcDbSpline
 70
8
 71
3
 72
8
 73
4
 74
0
 40
0
 40
0
 40
0
 40
0
 40
1
 40
1
 40
1
 40
1
 10
275.998193
 20
1438.527064
 30
0.0
 10
269.835193
 20
1441.573064
 30
0.0
 10
262.131193
 20
1441.573064
 30
0.0
 10
255.967194
 20
1437.003064
 30
0.0
  0
SPLINE
  5
162
100
AcDbEntity
  8
H0104_Printing
 62
7
100
AcDbSpline
 70
8
 71
3
 72
8
 73
4
 74
0
 40
0
 40
0
 40
0
 40
0
 40
1
 40
1
 40
1
 40
1
 10
255.967194
 20
1437.003064
 30
0.0
 10
249.804194
 20
1432.433064
 30
0.0
 10
249.804194
 20
1424.816064
 30
0.0
 10
254.427194
 20
1420.246064
 30
0.0
  0
LWPOLYLINE
  5
163
100
AcDbEntity
  8
H0104_Printing
 62
7
100
AcDbPolyline
 90
2
 70
0
 10
260.590193
 20
1412.630065
 30
0.0
 10
263.671193
 20
1417.200065
 30
0.0
  0
SPLINE
  5
164
100
AcDbEntity
  8
H0104_Printing
 62
7
100
AcDbSpline
 70
8
 71
3
 72
8
 73
4
 74
0
 40
0
 40
0
 40
0
 40
0
 40
1
 40
1
 40
1
 40
1
 10
251.345194
 20
1414.153065
 30
0.0
 10
249.804194
 20
1414.153065
 30
0.0
 10
246.723194
 20
1414.153065
 30
0.0
 10
245.182194
 20
1412.630065
 30
0.0
  0
SPLINE
  5
165
100
AcDbEntity
  8
H0104_Printing
 62
7
100
AcDbSpline
 70
8
 71
3
 72
8
 73
4
 74
0
 40
0
 40
0
 40
0
 40
0
 40
1
 40
1
 40
1
 40
1
 10
245.182194
 20
1412.630065
 30
0.0
 10
235.937194
 20
1400.443065
 30
0.0
 10
231.315194
 20
1386.733065
 30
0.0
 10
231.315194
 20
1371.500066
 30
0.0
  0
SPLINE
  5
166
100
AcDbEntity
  8
H0104_Printing
 62
7
100
AcDbSpline
 70
8
 71
3
 72
8
 73
4
 74
0
 40
0
 40
0
 40
0
 40
0
 40
1
 40
1
 40
1
 40
1
 10
231.315194
 20
1371.500066
 30
0.0
 10
225.152194
 20
1391.303065
 30
0.0
 10
225.152194
 20
1412.630065
 30
0.0
 10
229.774194
 20
1432.433064
 30
0.0
  0
SPLINE
  5
167
100
AcDbEntity
  8
H0104_Printing
 62
7
100
AcDbSpline
 70
8
 71
3
 72
8
 73
4
 74
0
 40
0
 40
0
 40
0
 40
0
 40
1
 40
1
 40
1
 40
1
 10
229.774194
 20
1432.433064
 30
0.0
 10
234.396194
 20
1447.666064
 30
0.0
 10
243.641194
 20
1459.853064
 30
0.0
 10
257.508194
 20
1465.946063
 30
0.0
  0
SPLINE
  5
168
100
AcDbEntity
  8
H0104_Printing
 62
7
100
AcDbSpline
 70
8
 71
3
 72
8
 73
4
 74
0
 40
0
 40
0
 40
0
 40
0
 40
1
 40
1
 40
1
 40
1
 10
257.508194
 20
1465.946063
 30
0.0
 10
266.753193
 20
1472.040063
 30
0.0
 10
277.538193
 20
1473.563063
 30
0.0
 10
289.865193
 20
1473.563063
 30
0.0
  0
SPLINE
  5
169
100
AcDbEntity
  8
H0104_Printing
 62
7
100
AcDbSpline
 70
8
 71
3
 72
8
 73
4
 74
0
 40
0
 40
0
 40
0
 40
0
 40
1
 40
1
 40
1
 40
1
 10
289.865193
 20
1473.563063
 30
0.0
 10
303.732192
 20
1475.086063
 30
0.0
 10
317.599192
 20
1470.517063
 30
0.0
 10
329.925192
 20
1461.376063
 30
0.0
  0
SPLINE
  5
16a
100
AcDbEntity
  8
H0104_Printing
 62
7
100
AcDbSpline
 70
8
 71
3
 72
8
 73
4
 74
0
 40
0
 40
0
 40
0
 40
0
 40
1
 40
1
 40
1
 40
1
 10
329.925192
 20
1461.376063
 30
0.0
 10
339.170192
 20
1453.760064
 30
0.0
 10
345.333191
 20
1443.096064
 30
0.0
 10
348.415191
 20
1430.910064
 30
0.0
  0
SPLINE
  5
16b
100
AcDbEntity
  8
H0104_Printing
 62
7
100
AcDbSpline
 70
8
 71
3
 72
8
 73
4
 74
0
 40
0
 40
0
 40
0
 40
0
 40
1
 40
1
 40
1
 40
1
 10
348.415191
 20
1430.910064
 30
0.0
 10
351.496191
 20
1414.153065
 30
0.0
 10
351.496191
 20
1394.350065
 30
0.0
 10
348.415191
 20
1376.070066
 30
0.0
  0
LWPOLYLINE
  5
16c
100
AcDbEntity
  8
H0104_Printing
 62
7
100
AcDbPolyline
 90
2
 70
0
 10
254.427194
 20
1420.246064
 30
0.0
 10
251.345194
 20
1414.153065
 30
0.0
  0
SPLINE
  5
16d
100
AcDbEntity
  8
H0104_Printing
 62
7
100
AcDbSpline
 70
8
 71
3
 72
8
 73
4
 74
0
 40
0
 40
0
 40
0
 40
0
 40
1
 40
1
 40
1
 40
1
 10
303.732192
 20
1380.640065
 30
0.0
 10
302.191192
 20
1382.163065
 30
0.0
 10
299.110193
 20
1383.687065
 30
0.0
 10
296.028193
 20
1385.210065
 30
0.0
  0
LWPOLYLINE
  5
16e
100
AcDbEntity
  8
H0104_Printing
 62
7
100
AcDbPolyline
 90
1
 70
1
 10
348.415191
 20
1376.070066
 30
0.0
  0
SPLINE
  5
16f
100
AcDbEntity
  8
H0104_Printing
 62
7
100
AcDbSpline
 70
8
 71
3
 72
8
 73
4
 74
0
 40
0
 40
0
 40
0
 40
0
 40
1
 40
1
 40
1
 40
1
 10
311.436192
 20
1401.967065
 30
0.0
 10
317.599192
 20
1392.827065
 30
0.0
 10
319.140192
 20
1382.163065
 30
0.0
 10
316.058192
 20
1373.024066
 30
0.0
  0
SPLINE
  5
170
100
AcDbEntity
  8
H0104_Printing
 62
7
100
AcDbSpline
 70
8
 71
3
 72
8
 73
4
 74
0
 40
0
 40
0
 40
0
 40
0
 40
1
 40
1
 40
1
 40
1
 10
316.058192
 20
1373.024066
 30
0.0
 10
314.517192
 20
1366.930066
 30
0.0
 10
309.895192
 20
1360.837066
 30
0.0
 10
302.191192
 20
1360.837066
 30
0.0
  0
SPLINE
  5
171
100
AcDbEntity
  8
H0104_Printing
 62
7
100
AcDbSpline
 70
8
 71
3
 72
8
 73
4
 74
0
 40
0
 40
0
 40
0
 40
0
 40
1
 40
1
 40
1
 40
1
 10
302.191192
 20
1360.837066
 30
0.0
 10
299.110193
 20
1359.313066
 30
0.0
 10
294.487193
 20
1362.360066
 30
0.0
 10
292.946193
 20
1366.930066
 30
0.0
  0
SPLINE
  5
172
100
AcDbEntity
  8
H0104_Printing
 62
7
100
AcDbSpline
 70
8
 71
3
 72
8
 73
4
 74
0
 40
0
 40
0
 40
0
 40
0
 40
1
 40
1
 40
1
 40
1
 10
292.946193
 20
1366.930066
 30
0.0
 10
292.946193
 20
1368.453066
 30
0.0
 10
294.487193
 20
1371.500066
 30
0.0
 10
296.028193
 20
1373.024066
 30
0.0
  0
SPLINE
  5
173
100
AcDbEntity
  8
H0104_Printing
 62
7
100
AcDbSpline
 70
8
 71
3
 72
8
 73
4
 74
0
 40
0
 40
0
 40
0
 40
0
 40
1
 40
1
 40
1
 40
1
 10
296.028193
 20
1373.024066
 30
0.0
 10
299.110193
 20
1374.547066
 30
0.0
 10
300.650192
 20
1374.547066
 30
0.0
 10
303.732192
 20
1376.070066
 30
0.0
  0
SPLINE
  5
174
100
AcDbEntity
  8
H0104_Printing
 62
7
100
AcDbSpline
 70
8
 71
3
 72
8
 73
4
 74
0
 40
0
 40
0
 40
0
 40
0
 40
1
 40
1
 40
1
 40
1
 10
303.732192
 20
1376.070066
 30
0.0
 10
305.273192
 20
1376.070066
 30
0.0
 10
305.273192
 20
1379.117066
 30
0.0
 10
303.732192
 20
1380.640065
 30
0.0
  0
LWPOLYLINE
  5
175
100
AcDbEntity
  8
H0104_Printing
 62
7
100
AcDbPolyline
 90
2
 70
0
 10
296.028193
 20
1385.210065
 30
0.0
 10
311.436192
 20
1401.967065
 30
0.0
  0
SPLINE
  5
176
100
AcDbEntity
  8
H0104_Printing
 62
7
100
AcDbSpline
 70
8
 71
3
 72
8
 73
4
 74
0
 40
0
 40
0
 40
0
 40
0
 40
1
 40
1
 40
1
 40
1
 10
312.977192
 20
1336.464067
 30
0.0
 10
302.191192
 20
1333.416067
 30
0.0
 10
291.406193
 20
1331.893067
 30
0.0
 10
282.161193
 20
1333.416067
 30
0.0
  0
SPLINE
  5
177
100
AcDbEntity
  8
H0104_Printing
 62
7
100
AcDbSpline
 70
8
 71
3
 72
8
 73
4
 74
0
 40
0
 40
0
 40
0
 40
0
 40
1
 40
1
 40
1
 40
1
 10
282.161193
 20
1333.416067
 30
0.0
 10
263.671193
 20
1333.416067
 30
0.0
 10
246.723194
 20
1344.080066
 30
0.0
 10
237.478194
 20
1359.313066
 30
0.0
  0
SPLINE
  5
178
100
AcDbEntity
  8
H0104_Printing
 62
7
100
AcDbSpline
 70
8
 71
3
 72
8
 73
4
 74
0
 40
0
 40
0
 40
0
 40
0
 40
1
 40
1
 40
1
 40
1
 10
237.478194
 20
1359.313066
 30
0.0
 10
248.264194
 20
1351.696066
 30
0.0
 10
263.671193
 20
1353.220066
 30
0.0
 10
271.375193
 20
1362.360066
 30
0.0
  0
LWPOLYLINE
  5
179
100
AcDbEntity
  8
H0104_Printing
 62
7
100
AcDbPolyline
 90
1
 70
1
 10
303.732192
 20
1380.640065
 30
0.0
  0
SPLINE
  5
17a
100
AcDbEntity
  8
H0104_Printing
 62
7
100
AcDbSpline
 70
8
 71
3
 72
8
 73
4
 74
0
 40
0
 40
0
 40
0
 40
0
 40
1
 40
1
 40
1
 40
1
 10
275.998193
 20
1366.930066
 30
0.0
 10
277.538193
 20
1360.837066
 30
0.0
 10
283.702193
 20
1356.267066
 30
0.0
 10
289.865193
 20
1354.744066
 30
0.0
  0
SPLINE
  5
17b
100
AcDbEntity
  8
H0104_Printing
 62
7
100
AcDbSpline
 70
8
 71
3
 72
8
 73
4
 74
0
 40
0
 40
0
 40
0
 40
0
 40
1
 40
1
 40
1
 40
1
 10
289.865193
 20
1354.744066
 30
0.0
 10
292.946193
 20
1353.220066
 30
0.0
 10
297.569193
 20
1353.220066
 30
0.0
 10
300.650192
 20
1353.220066
 30
0.0
  0
SPLINE
  5
17c
100
AcDbEntity
  8
H0104_Printing
 62
7
100
AcDbSpline
 70
8
 71
3
 72
8
 73
4
 74
0
 40
0
 40
0
 40
0
 40
0
 40
1
 40
1
 40
1
 40
1
 10
300.650192
 20
1353.220066
 30
0.0
 10
316.058192
 20
1353.220066
 30
0.0
 10
331.466192
 20
1357.790066
 30
0.0
 10
343.792191
 20
1365.407066
 30
0.0
  0
SPLINE
  5
17d
100
AcDbEntity
  8
H0104_Printing
 62
7
100
AcDbSpline
 70
8
 71
3
 72
8
 73
4
 74
0
 40
0
 40
0
 40
0
 40
0
 40
1
 40
1
 40
1
 40
1
 10
343.792191
 20
1365.407066
 30
0.0
 10
337.629192
 20
1351.696066
 30
0.0
 10
326.844192
 20
1341.033066
 30
0.0
 10
312.977192
 20
1336.464067
 30
0.0
  0
LWPOLYLINE
  5
17e
100
AcDbEntity
  8
H0104_Printing
 62
7
100
AcDbPolyline
 90
2
 70
0
 10
271.375193
 20
1362.360066
 30
0.0
 10
275.998193
 20
1366.930066
 30
0.0
  0
SPLINE
  5
17f
100
AcDbEntity
  8
H0104_Printing
 62
7
100
AcDbSpline
 70
8
 71
3
 72
8
 73
4
 74
0
 40
0
 40
0
 40
0
 40
0
 40
1
 40
1
 40
1
 40
1
 10
320.681192
 20
1293.810068
 30
0.0
 10
328.384192
 20
1283.147068
 30
0.0
 10
333.007192
 20
1270.960068
 30
0.0
 10
334.548192
 20
1258.774069
 30
0.0
  0
SPLINE
  5
180
100
AcDbEntity
  8
H0104_Printing
 62
7
100
AcDbSpline
 70
8
 71
3
 72
8
 73
4
 74
0
 40
0
 40
0
 40
0
 40
0
 40
1
 40
1
 40
1
 40
1
 10
334.548192
 20
1258.774069
 30
0.0
 10
336.088192
 20
1238.970069
 30
0.0
 10
337.629192
 20
1220.691069
 30
0.0
 10
336.088192
 20
1202.411070
 30
0.0
  0
SPLINE
  5
181
100
AcDbEntity
  8
H0104_Printing
 62
7
100
AcDbSpline
 70
8
 71
3
 72
8
 73
4
 74
0
 40
0
 40
0
 40
0
 40
0
 40
1
 40
1
 40
1
 40
1
 10
336.088192
 20
1202.411070
 30
0.0
 10
334.548192
 20
1188.700070
 30
0.0
 10
331.466192
 20
1174.990071
 30
0.0
 10
325.303192
 20
1162.803071
 30
0.0
  0
SPLINE
  5
182
100
AcDbEntity
  8
H0104_Printing
 62
7
100
AcDbSpline
 70
8
 71
3
 72
8
 73
4
 74
0
 40
0
 40
0
 40
0
 40
0
 40
1
 40
1
 40
1
 40
1
 10
325.303192
 20
1162.803071
 30
0.0
 10
311.436192
 20
1136.907072
 30
0.0
 10
274.457193
 20
1133.861072
 30
0.0
 10
255.967194
 20
1156.710071
 30
0.0
  0
SPLINE
  5
183
100
AcDbEntity
  8
H0104_Printing
 62
7
100
AcDbSpline
 70
8
 71
3
 72
8
 73
4
 74
0
 40
0
 40
0
 40
0
 40
0
 40
1
 40
1
 40
1
 40
1
 10
255.967194
 20
1156.710071
 30
0.0
 10
249.804194
 20
1165.851071
 30
0.0
 10
245.182194
 20
1176.514071
 30
0.0
 10
243.641194
 20
1188.700070
 30
0.0
  0
SPLINE
  5
184
100
AcDbEntity
  8
H0104_Printing
 62
7
100
AcDbSpline
 70
8
 71
3
 72
8
 73
4
 74
0
 40
0
 40
0
 40
0
 40
0
 40
1
 40
1
 40
1
 40
1
 10
243.641194
 20
1188.700070
 30
0.0
 10
239.019194
 20
1211.550070
 30
0.0
 10
239.019194
 20
1235.923069
 30
0.0
 10
242.100194
 20
1260.297068
 30
0.0
  0
SPLINE
  5
185
100
AcDbEntity
  8
H0104_Printing
 62
7
100
AcDbSpline
 70
8
 71
3
 72
8
 73
4
 74
0
 40
0
 40
0
 40
0
 40
0
 40
1
 40
1
 40
1
 40
1
 10
242.100194
 20
1260.297068
 30
0.0
 10
243.641194
 20
1269.437068
 30
0.0
 10
248.264194
 20
1278.577068
 30
0.0
 10
252.886194
 20
1286.193068
 30
0.0
  0
SPLINE
  5
186
100
AcDbEntity
  8
H0104_Printing
 62
7
100
AcDbSpline
 70
8
 71
3
 72
8
 73
4
 74
0
 40
0
 40
0
 40
0
 40
0
 40
1
 40
1
 40
1
 40
1
 10
252.886194
 20
1286.193068
 30
0.0
 10
259.049194
 20
1299.904068
 30
0.0
 10
272.916193
 20
1307.520067
 30
0.0
 10
288.324193
 20
1307.520067
 30
0.0
  0
SPLINE
  5
187
100
AcDbEntity
  8
H0104_Printing
 62
7
100
AcDbSpline
 70
8
 71
3
 72
8
 73
4
 74
0
 40
0
 40
0
 40
0
 40
0
 40
1
 40
1
 40
1
 40
1
 10
288.324193
 20
1307.520067
 30
0.0
 10
300.650192
 20
1307.520067
 30
0.0
 10
312.977192
 20
1302.950067
 30
0.0
 10
320.681192
 20
1293.810068
 30
0.0
  0
LWPOLYLINE
  5
188
100
AcDbEntity
  8
H0104_Printing
 62
7
100
AcDbPolyline
 90
1
 70
1
 10
312.977192
 20
1336.464067
 30
0.0
  0
SPLINE
  5
189
100
AcDbEntity
  8
H0104_Printing
 62
7
100
AcDbSpline
 70
8
 71
3
 72
8
 73
4
 74
0
 40
0
 40
0
 40
0
 40
0
 40
1
 40
1
 40
1
 40
1
 10
320.681192
 20
1101.870072
 30
0.0
 10
323.762192
 20
1095.777073
 30
0.0
 10
326.844192
 20
1088.161073
 30
0.0
 10
328.384192
 20
1080.544073
 30
0.0
  0
SPLINE
  5
18a
100
AcDbEntity
  8
H0104_Printing
 62
7
100
AcDbSpline
 70
8
 71
3
 72
8
 73
4
 74
0
 40
0
 40
0
 40
0
 40
0
 40
1
 40
1
 40
1
 40
1
 10
328.384192
 20
1080.544073
 30
0.0
 10
333.007192
 20
1056.171074
 30
0.0
 10
333.007192
 20
1030.274074
 30
0.0
 10
326.844192
 20
1005.901075
 30
0.0
  0
SPLINE
  5
18b
100
AcDbEntity
  8
H0104_Printing
 62
7
100
AcDbSpline
 70
8
 71
3
 72
8
 73
4
 74
0
 40
0
 40
0
 40
0
 40
0
 40
1
 40
1
 40
1
 40
1
 10
326.844192
 20
1005.901075
 30
0.0
 10
323.762192
 20
998.284075
 30
0.0
 10
320.681192
 20
990.667075
 30
0.0
 10
316.058192
 20
984.574075
 30
0.0
  0
SPLINE
  5
18c
100
AcDbEntity
  8
H0104_Printing
 62
7
100
AcDbSpline
 70
8
 71
3
 72
8
 73
4
 74
0
 40
0
 40
0
 40
0
 40
0
 40
1
 40
1
 40
1
 40
1
 10
316.058192
 20
984.574075
 30
0.0
 10
305.273192
 20
970.864076
 30
0.0
 10
286.783193
 20
966.294076
 30
0.0
 10
269.835193
 20
970.864076
 30
0.0
  0
SPLINE
  5
18d
100
AcDbEntity
  8
H0104_Printing
 62
7
100
AcDbSpline
 70
8
 71
3
 72
8
 73
4
 74
0
 40
0
 40
0
 40
0
 40
0
 40
1
 40
1
 40
1
 40
1
 10
269.835193
 20
970.864076
 30
0.0
 10
268.294193
 20
972.387076
 30
0.0
 10
266.753193
 20
973.911076
 30
0.0
 10
266.753193
 20
976.958076
 30
0.0
  0
LWPOLYLINE
  5
18e
100
AcDbEntity
  8
H0104_Printing
 62
7
100
AcDbPolyline
 90
1
 70
1
 10
320.681192
 20
1293.810068
 30
0.0
  0
SPLINE
  5
18f
100
AcDbEntity
  8
H0104_Printing
 62
7
100
AcDbSpline
 70
8
 71
3
 72
8
 73
4
 74
0
 40
0
 40
0
 40
0
 40
0
 40
1
 40
1
 40
1
 40
1
 10
283.702193
 20
1126.244072
 30
0.0
 10
300.650192
 20
1124.720072
 30
0.0
 10
314.517192
 20
1115.580072
 30
0.0
 10
320.681192
 20
1101.870072
 30
0.0
  0
LWPOLYLINE
  5
190
100
AcDbEntity
  8
H0104_Printing
 62
7
100
AcDbPolyline
 90
4
 70
0
 10
266.753193
 20
976.958076
 30
0.0
 10
265.212193
 20
989.144075
 30
0.0
 10
265.212193
 20
1127.767072
 30
0.0
 10
283.702193
 20
1126.244072
 30
0.0
  0
SPLINE
  5
191
100
AcDbEntity
  8
H0104_Printing
 62
7
100
AcDbSpline
 70
8
 71
3
 72
8
 73
4
 74
0
 40
0
 40
0
 40
0
 40
0
 40
1
 40
1
 40
1
 40
1
 10
264.139193
 20
1685.034058
 30
0.0
 10
264.139193
 20
1687.815058
 30
0.0
 10
266.400193
 20
1690.069058
 30
0.0
 10
269.190193
 20
1690.069058
 30
0.0
  0
SPLINE
  5
192
100
AcDbEntity
  8
H0104_Printing
 62
7
100
AcDbSpline
 70
8
 71
3
 72
8
 73
4
 74
0
 40
0
 40
0
 40
0
 40
0
 40
1
 40
1
 40
1
 40
1
 10
269.190193
 20
1690.069058
 30
0.0
 10
271.979193
 20
1690.069058
 30
0.0
 10
274.240193
 20
1687.815058
 30
0.0
 10
274.240193
 20
1685.034058
 30
0.0
  0
SPLINE
  5
193
100
AcDbEntity
  8
H0104_Printing
 62
7
100
AcDbSpline
 70
8
 71
3
 72
8
 73
4
 74
0
 40
0
 40
0
 40
0
 40
0
 40
1
 40
1
 40
1
 40
1
 10
274.240193
 20
1685.034058
 30
0.0
 10
274.240193
 20
1682.253058
 30
0.0
 10
271.979193
 20
1679.999058
 30
0.0
 10
269.190193
 20
1679.999058
 30
0.0
  0
SPLINE
  5
194
100
AcDbEntity
  8
H0104_Printing
 62
7
100
AcDbSpline
 70
8
 71
3
 72
8
 73
4
 74
0
 40
0
 40
0
 40
0
 40
0
 40
1
 40
1
 40
1
 40
1
 10
269.190193
 20
1679.999058
 30
0.0
 10
266.400193
 20
1679.999058
 30
0.0
 10
264.139193
 20
1682.253058
 30
0.0
 10
264.139193
 20
1685.034058
 30
0.0
  0
LWPOLYLINE
  5
195
100
AcDbEntity
  8
H0104_Printing
 62
7
100
AcDbPolyline
 90
1
 70
1
 10
320.681192
 20
1101.870072
 30
0.0
  0
SPLINE
  5
196
100
AcDbEntity
  8
H0104_Printing
 62
7
100
AcDbSpline
 70
8
 71
3
 72
8
 73
4
 74
0
 40
0
 40
0
 40
0
 40
0
 40
1
 40
1
 40
1
 40
1
 10
525.605187
 20
1453.760064
 30
0.0
 10
513.279187
 20
1473.563063
 30
0.0
 10
493.249188
 20
1487.273063
 30
0.0
 10
470.137188
 20
1490.320063
 30
0.0
  0
SPLINE
  5
197
100
AcDbEntity
  8
H0104_Printing
 62
7
100
AcDbSpline
 70
8
 71
3
 72
8
 73
4
 74
0
 40
0
 40
0
 40
0
 40
0
 40
1
 40
1
 40
1
 40
1
 10
470.137188
 20
1490.320063
 30
0.0
 10
459.351189
 20
1493.366063
 30
0.0
 10
447.025189
 20
1493.366063
 30
0.0
 10
436.240189
 20
1493.366063
 30
0.0
  0
LWPOLYLINE
  5
198
100
AcDbEntity
  8
H0104_Printing
 62
7
100
AcDbPolyline
 90
1
 70
1
 10
264.139193
 20
1685.034058
 30
0.0
  0
SPLINE
  5
199
100
AcDbEntity
  8
H0104_Printing
 62
7
100
AcDbSpline
 70
8
 71
3
 72
8
 73
4
 74
0
 40
0
 40
0
 40
0
 40
0
 40
1
 40
1
 40
1
 40
1
 10
354.578191
 20
1488.797063
 30
0.0
 10
360.741191
 20
1490.320063
 30
0.0
 10
366.904191
 20
1488.797063
 30
0.0
 10
373.067191
 20
1485.749063
 30
0.0
  0
SPLINE
  5
19a
100
AcDbEntity
  8
H0104_Printing
 62
7
100
AcDbSpline
 70
8
 71
3
 72
8
 73
4
 74
0
 40
0
 40
0
 40
0
 40
0
 40
1
 40
1
 40
1
 40
1
 10
373.067191
 20
1485.749063
 30
0.0
 10
376.149191
 20
1484.226063
 30
0.0
 10
377.690191
 20
1481.179063
 30
0.0
 10
379.230191
 20
1478.133063
 30
0.0
  0
SPLINE
  5
19b
100
AcDbEntity
  8
H0104_Printing
 62
7
100
AcDbSpline
 70
8
 71
3
 72
8
 73
4
 74
0
 40
0
 40
0
 40
0
 40
0
 40
1
 40
1
 40
1
 40
1
 10
379.230191
 20
1478.133063
 30
0.0
 10
379.230191
 20
1464.423063
 30
0.0
 10
380.771190
 20
1452.237064
 30
0.0
 10
379.230191
 20
1438.527064
 30
0.0
  0
SPLINE
  5
19c
100
AcDbEntity
  8
H0104_Printing
 62
7
100
AcDbSpline
 70
8
 71
3
 72
8
 73
4
 74
0
 40
0
 40
0
 40
0
 40
0
 40
1
 40
1
 40
1
 40
1
 10
379.230191
 20
1438.527064
 30
0.0
 10
369.986191
 20
1464.423063
 30
0.0
 10
348.415191
 20
1484.226063
 30
0.0
 10
322.221192
 20
1493.366063
 30
0.0
  0
SPLINE
  5
19d
100
AcDbEntity
  8
H0104_Printing
 62
7
100
AcDbSpline
 70
8
 71
3
 72
8
 73
4
 74
0
 40
0
 40
0
 40
0
 40
0
 40
1
 40
1
 40
1
 40
1
 10
322.221192
 20
1493.366063
 30
0.0
 10
339.170192
 20
1494.890063
 30
0.0
 10
354.578191
 20
1499.459063
 30
0.0
 10
369.986191
 20
1505.553062
 30
0.0
  0
LWPOLYLINE
  5
19e
100
AcDbEntity
  8
H0104_Printing
 62
7
100
AcDbPolyline
 90
3
 70
0
 10
436.240189
 20
1493.366063
 30
0.0
 10
354.578191
 20
1493.366063
 30
0.0
 10
354.578191
 20
1488.797063
 30
0.0
  0
SPLINE
  5
19f
100
AcDbEntity
  8
H0104_Printing
 62
7
100
AcDbSpline
 70
8
 71
3
 72
8
 73
4
 74
0
 40
0
 40
0
 40
0
 40
0
 40
1
 40
1
 40
1
 40
1
 10
371.527191
 20
1549.729061
 30
0.0
 10
369.986191
 20
1555.824061
 30
0.0
 10
374.608191
 20
1560.393061
 30
0.0
 10
380.771190
 20
1563.440061
 30
0.0
  0
SPLINE
  5
1a0
100
AcDbEntity
  8
H0104_Printing
 62
7
100
AcDbSpline
 70
8
 71
3
 72
8
 73
4
 74
0
 40
0
 40
0
 40
0
 40
0
 40
1
 40
1
 40
1
 40
1
 10
380.771190
 20
1563.440061
 30
0.0
 10
383.853190
 20
1563.440061
 30
0.0
 10
388.475190
 20
1564.963061
 30
0.0
 10
391.557190
 20
1564.963061
 30
0.0
  0
LWPOLYLINE
  5
1a1
100
AcDbEntity
  8
H0104_Printing
 62
7
100
AcDbPolyline
 90
2
 70
0
 10
369.986191
 20
1505.553062
 30
0.0
 10
371.527191
 20
1549.729061
 30
0.0
  0
SPLINE
  5
1a2
100
AcDbEntity
  8
H0104_Printing
 62
7
100
AcDbSpline
 70
8
 71
3
 72
8
 73
4
 74
0
 40
0
 40
0
 40
0
 40
0
 40
1
 40
1
 40
1
 40
1
 10
303.732192
 20
1564.963061
 30
0.0
 10
309.895192
 20
1564.963061
 30
0.0
 10
314.517192
 20
1564.963061
 30
0.0
 10
320.681192
 20
1561.917061
 30
0.0
  0
SPLINE
  5
1a3
100
AcDbEntity
  8
H0104_Printing
 62
7
100
AcDbSpline
 70
8
 71
3
 72
8
 73
4
 74
0
 40
0
 40
0
 40
0
 40
0
 40
1
 40
1
 40
1
 40
1
 10
320.681192
 20
1561.917061
 30
0.0
 10
323.762192
 20
1560.393061
 30
0.0
 10
325.303192
 20
1557.347061
 30
0.0
 10
325.303192
 20
1554.300061
 30
0.0
  0
SPLINE
  5
1a4
100
AcDbEntity
  8
H0104_Printing
 62
7
100
AcDbSpline
 70
8
 71
3
 72
8
 73
4
 74
0
 40
0
 40
0
 40
0
 40
0
 40
1
 40
1
 40
1
 40
1
 10
325.303192
 20
1554.300061
 30
0.0
 10
326.844192
 20
1551.252061
 30
0.0
 10
326.844192
 20
1546.682061
 30
0.0
 10
326.844192
 20
1543.636061
 30
0.0
  0
LWPOLYLINE
  5
1a5
100
AcDbEntity
  8
H0104_Printing
 62
7
100
AcDbPolyline
 90
4
 70
0
 10
391.557190
 20
1564.963061
 30
0.0
 10
391.557190
 20
1569.533061
 30
0.0
 10
303.732192
 20
1569.533061
 30
0.0
 10
303.732192
 20
1564.963061
 30
0.0
  0
SPLINE
  5
1a6
100
AcDbEntity
  8
H0104_Printing
 62
7
100
AcDbSpline
 70
8
 71
3
 72
8
 73
4
 74
0
 40
0
 40
0
 40
0
 40
0
 40
1
 40
1
 40
1
 40
1
 10
326.844192
 20
1505.553062
 30
0.0
 10
316.058192
 20
1502.506062
 30
0.0
 10
305.273192
 20
1500.983062
 30
0.0
 10
292.946193
 20
1500.983062
 30
0.0
  0
SPLINE
  5
1a7
100
AcDbEntity
  8
H0104_Printing
 62
7
100
AcDbSpline
 70
8
 71
3
 72
8
 73
4
 74
0
 40
0
 40
0
 40
0
 40
0
 40
1
 40
1
 40
1
 40
1
 10
292.946193
 20
1500.983062
 30
0.0
 10
279.079193
 20
1500.983062
 30
0.0
 10
266.753193
 20
1508.599062
 30
0.0
 10
257.508194
 20
1517.740062
 30
0.0
  0
SPLINE
  5
1a8
100
AcDbEntity
  8
H0104_Printing
 62
7
100
AcDbSpline
 70
8
 71
3
 72
8
 73
4
 74
0
 40
0
 40
0
 40
0
 40
0
 40
1
 40
1
 40
1
 40
1
 10
257.508194
 20
1517.740062
 30
0.0
 10
251.345194
 20
1526.880062
 30
0.0
 10
246.723194
 20
1536.020062
 30
0.0
 10
243.641194
 20
1545.159061
 30
0.0
  0
SPLINE
  5
1a9
100
AcDbEntity
  8
H0104_Printing
 62
7
100
AcDbSpline
 70
8
 71
3
 72
8
 73
4
 74
0
 40
0
 40
0
 40
0
 40
0
 40
1
 40
1
 40
1
 40
1
 10
243.641194
 20
1545.159061
 30
0.0
 10
237.478194
 20
1571.056061
 30
0.0
 10
239.019194
 20
1598.477060
 30
0.0
 10
245.182194
 20
1624.372059
 30
0.0
  0
SPLINE
  5
1aa
100
AcDbEntity
  8
H0104_Printing
 62
7
100
AcDbSpline
 70
8
 71
3
 72
8
 73
4
 74
0
 40
0
 40
0
 40
0
 40
0
 40
1
 40
1
 40
1
 40
1
 10
245.182194
 20
1624.372059
 30
0.0
 10
248.264194
 20
1636.560059
 30
0.0
 10
255.967194
 20
1647.223059
 30
0.0
 10
265.212193
 20
1654.839059
 30
0.0
  0
SPLINE
  5
1ab
100
AcDbEntity
  8
H0104_Printing
 62
7
100
AcDbSpline
 70
8
 71
3
 72
8
 73
4
 74
0
 40
0
 40
0
 40
0
 40
0
 40
1
 40
1
 40
1
 40
1
 10
265.212193
 20
1654.839059
 30
0.0
 10
274.457193
 20
1662.455058
 30
0.0
 10
286.783193
 20
1667.025058
 30
0.0
 10
299.110193
 20
1667.025058
 30
0.0
  0
SPLINE
  5
1ac
100
AcDbEntity
  8
H0104_Printing
 62
7
100
AcDbSpline
 70
8
 71
3
 72
8
 73
4
 74
0
 40
0
 40
0
 40
0
 40
0
 40
1
 40
1
 40
1
 40
1
 10
299.110193
 20
1667.025058
 30
0.0
 10
319.140192
 20
1667.025058
 30
0.0
 10
339.170192
 20
1656.362059
 30
0.0
 10
351.496191
 20
1641.130059
 30
0.0
  0
SPLINE
  5
1ad
100
AcDbEntity
  8
H0104_Printing
 62
7
100
AcDbSpline
 70
8
 71
3
 72
8
 73
4
 74
0
 40
0
 40
0
 40
0
 40
0
 40
1
 40
1
 40
1
 40
1
 10
351.496191
 20
1641.130059
 30
0.0
 10
357.659191
 20
1633.513059
 30
0.0
 10
362.282191
 20
1624.372059
 30
0.0
 10
365.363191
 20
1613.709060
 30
0.0
  0
LWPOLYLINE
  5
1ae
100
AcDbEntity
  8
H0104_Printing
 62
7
100
AcDbPolyline
 90
2
 70
0
 10
326.844192
 20
1543.636061
 30
0.0
 10
326.844192
 20
1505.553062
 30
0.0
  0
SPLINE
  5
1af
100
AcDbEntity
  8
H0104_Printing
 62
7
100
AcDbSpline
 70
8
 71
3
 72
8
 73
4
 74
0
 40
0
 40
0
 40
0
 40
0
 40
1
 40
1
 40
1
 40
1
 10
365.363191
 20
1677.690058
 30
0.0
 10
365.363191
 20
1673.120058
 30
0.0
 10
362.282191
 20
1670.073058
 30
0.0
 10
359.200191
 20
1667.025058
 30
0.0
  0
SPLINE
  5
1b0
100
AcDbEntity
  8
H0104_Printing
 62
7
100
AcDbSpline
 70
8
 71
3
 72
8
 73
4
 74
0
 40
0
 40
0
 40
0
 40
0
 40
1
 40
1
 40
1
 40
1
 10
359.200191
 20
1667.025058
 30
0.0
 10
357.659191
 20
1663.979058
 30
0.0
 10
354.578191
 20
1663.979058
 30
0.0
 10
351.496191
 20
1663.979058
 30
0.0
  0
LWPOLYLINE
  5
1b1
100
AcDbEntity
  8
H0104_Printing
 62
7
100
AcDbPolyline
 90
4
 70
0
 10
365.363191
 20
1613.709060
 30
0.0
 10
369.986191
 20
1613.709060
 30
0.0
 10
369.986191
 20
1677.690058
 30
0.0
 10
365.363191
 20
1677.690058
 30
0.0
  0
SPLINE
  5
1b2
100
AcDbEntity
  8
H0104_Printing
 62
7
100
AcDbSpline
 70
8
 71
3
 72
8
 73
4
 74
0
 40
0
 40
0
 40
0
 40
0
 40
1
 40
1
 40
1
 40
1
 10
333.007192
 20
1670.073058
 30
0.0
 10
315.473192
 20
1677.296058
 30
0.0
 10
296.554193
 20
1679.031058
 30
0.0
 10
277.564193
 20
1676.594058
 30
0.0
  0
SPLINE
  5
1b3
100
AcDbEntity
  8
H0104_Printing
 62
7
100
AcDbSpline
 70
8
 71
3
 72
8
 73
4
 74
0
 40
0
 40
0
 40
0
 40
0
 40
1
 40
1
 40
1
 40
1
 10
277.564193
 20
1676.594058
 30
0.0
 10
279.714193
 20
1678.753058
 30
0.0
 10
283.274193
 20
1681.737058
 30
0.0
 10
283.274193
 20
1685.034058
 30
0.0
  0
SPLINE
  5
1b4
100
AcDbEntity
  8
H0104_Printing
 62
7
100
AcDbSpline
 70
8
 71
3
 72
8
 73
4
 74
0
 40
0
 40
0
 40
0
 40
0
 40
1
 40
1
 40
1
 40
1
 10
283.274193
 20
1685.034058
 30
0.0
 10
283.274193
 20
1691.620058
 30
0.0
 10
275.737193
 20
1700.665057
 30
0.0
 10
269.190193
 20
1700.665057
 30
0.0
  0
SPLINE
  5
1b5
100
AcDbEntity
  8
H0104_Printing
 62
7
100
AcDbSpline
 70
8
 71
3
 72
8
 73
4
 74
0
 40
0
 40
0
 40
0
 40
0
 40
1
 40
1
 40
1
 40
1
 10
269.190193
 20
1700.665057
 30
0.0
 10
262.642193
 20
1700.665057
 30
0.0
 10
254.231194
 20
1691.620058
 30
0.0
 10
254.231194
 20
1685.034058
 30
0.0
  0
SPLINE
  5
1b6
100
AcDbEntity
  8
H0104_Printing
 62
7
100
AcDbSpline
 70
8
 71
3
 72
8
 73
4
 74
0
 40
0
 40
0
 40
0
 40
0
 40
1
 40
1
 40
1
 40
1
 10
254.231194
 20
1685.034058
 30
0.0
 10
254.231194
 20
1680.207058
 30
0.0
 10
260.192193
 20
1676.059058
 30
0.0
 10
264.293193
 20
1674.183058
 30
0.0
  0
SPLINE
  5
1b7
100
AcDbEntity
  8
H0104_Printing
 62
7
100
AcDbSpline
 70
8
 71
3
 72
8
 73
4
 74
0
 40
0
 40
0
 40
0
 40
0
 40
1
 40
1
 40
1
 40
1
 10
264.293193
 20
1674.183058
 30
0.0
 10
205.968195
 20
1659.691059
 30
0.0
 10
174.253196
 20
1595.371060
 30
0.0
 10
200.499195
 20
1540.589061
 30
0.0
  0
SPLINE
  5
1b8
100
AcDbEntity
  8
H0104_Printing
 62
7
100
AcDbSpline
 70
8
 71
3
 72
8
 73
4
 74
0
 40
0
 40
0
 40
0
 40
0
 40
1
 40
1
 40
1
 40
1
 10
200.499195
 20
1540.589061
 30
0.0
 10
214.366195
 20
1517.740062
 30
0.0
 10
235.937194
 20
1500.983062
 30
0.0
 10
260.590193
 20
1494.890063
 30
0.0
  0
SPLINE
  5
1b9
100
AcDbEntity
  8
H0104_Printing
 62
7
100
AcDbSpline
 70
8
 71
3
 72
8
 73
4
 74
0
 40
0
 40
0
 40
0
 40
0
 40
1
 40
1
 40
1
 40
1
 10
260.590193
 20
1494.890063
 30
0.0
 10
218.989195
 20
1485.749063
 30
0.0
 10
189.714195
 20
1447.666064
 30
0.0
 10
191.254195
 20
1406.536065
 30
0.0
  0
LWPOLYLINE
  5
1ba
100
AcDbEntity
  8
H0104_Printing
 62
7
100
AcDbPolyline
 90
2
 70
0
 10
351.496191
 20
1663.979058
 30
0.0
 10
333.007192
 20
1670.073058
 30
0.0
  0
SPLINE
  5
1bb
100
AcDbEntity
  8
H0104_Printing
 62
7
100
AcDbSpline
 70
8
 71
3
 72
8
 73
4
 74
0
 40
0
 40
0
 40
0
 40
0
 40
1
 40
1
 40
1
 40
1
 10
112.674197
 20
1385.210065
 30
0.0
 10
118.837197
 20
1386.733065
 30
0.0
 10
123.460197
 20
1385.210065
 30
0.0
 10
129.623197
 20
1382.163065
 30
0.0
  0
SPLINE
  5
1bc
100
AcDbEntity
  8
H0104_Printing
 62
7
100
AcDbSpline
 70
8
 71
3
 72
8
 73
4
 74
0
 40
0
 40
0
 40
0
 40
0
 40
1
 40
1
 40
1
 40
1
 10
129.623197
 20
1382.163065
 30
0.0
 10
132.705197
 20
1380.640065
 30
0.0
 10
134.245197
 20
1379.117066
 30
0.0
 10
135.786197
 20
1376.070066
 30
0.0
  0
LWPOLYLINE
  5
1bd
100
AcDbEntity
  8
H0104_Printing
 62
7
100
AcDbPolyline
 90
4
 70
0
 10
191.254195
 20
1406.536065
 30
0.0
 10
191.201195
 20
1405.931065
 30
0.0
 10
111.080197
 20
1405.931065
 30
0.0
 10
112.674197
 20
1385.210065
 30
0.0
  0
SPLINE
  5
1be
100
AcDbEntity
  8
H0104_Printing
 62
7
100
AcDbSpline
 70
8
 71
3
 72
8
 73
4
 74
0
 40
0
 40
0
 40
0
 40
0
 40
1
 40
1
 40
1
 40
1
 10
135.786197
 20
1327.323067
 30
0.0
 10
125.001197
 20
1322.753067
 30
0.0
 10
114.215197
 20
1321.230067
 30
0.0
 10
103.430197
 20
1321.230067
 30
0.0
  0
SPLINE
  5
1bf
100
AcDbEntity
  8
H0104_Printing
 62
7
100
AcDbSpline
 70
8
 71
3
 72
8
 73
4
 74
0
 40
0
 40
0
 40
0
 40
0
 40
1
 40
1
 40
1
 40
1
 10
103.430197
 20
1321.230067
 30
0.0
 10
88.022198
 20
1322.753067
 30
0.0
 10
75.695198
 20
1328.847067
 30
0.0
 10
66.451198
 20
1339.510067
 30
0.0
  0
SPLINE
  5
1c0
100
AcDbEntity
  8
H0104_Printing
 62
7
100
AcDbSpline
 70
8
 71
3
 72
8
 73
4
 74
0
 40
0
 40
0
 40
0
 40
0
 40
1
 40
1
 40
1
 40
1
 10
66.451198
 20
1339.510067
 30
0.0
 10
60.287198
 20
1347.126066
 30
0.0
 10
55.665199
 20
1356.267066
 30
0.0
 10
52.584199
 20
1366.930066
 30
0.0
  0
SPLINE
  5
1c1
100
AcDbEntity
  8
H0104_Printing
 62
7
100
AcDbSpline
 70
8
 71
3
 72
8
 73
4
 74
0
 40
0
 40
0
 40
0
 40
0
 40
1
 40
1
 40
1
 40
1
 10
52.584199
 20
1366.930066
 30
0.0
 10
47.961199
 20
1392.827065
 30
0.0
 10
47.961199
 20
1418.723065
 30
0.0
 10
55.665199
 20
1444.620064
 30
0.0
  0
SPLINE
  5
1c2
100
AcDbEntity
  8
H0104_Printing
 62
7
100
AcDbSpline
 70
8
 71
3
 72
8
 73
4
 74
0
 40
0
 40
0
 40
0
 40
0
 40
1
 40
1
 40
1
 40
1
 10
55.665199
 20
1444.620064
 30
0.0
 10
57.206199
 20
1456.806064
 30
0.0
 10
64.910198
 20
1467.469063
 30
0.0
 10
74.154198
 20
1476.610063
 30
0.0
  0
SPLINE
  5
1c3
100
AcDbEntity
  8
H0104_Printing
 62
7
100
AcDbSpline
 70
8
 71
3
 72
8
 73
4
 74
0
 40
0
 40
0
 40
0
 40
0
 40
1
 40
1
 40
1
 40
1
 10
74.154198
 20
1476.610063
 30
0.0
 10
83.399198
 20
1484.226063
 30
0.0
 10
95.726198
 20
1487.273063
 30
0.0
 10
108.052197
 20
1487.273063
 30
0.0
  0
SPLINE
  5
1c4
100
AcDbEntity
  8
H0104_Printing
 62
7
100
AcDbSpline
 70
8
 71
3
 72
8
 73
4
 74
0
 40
0
 40
0
 40
0
 40
0
 40
1
 40
1
 40
1
 40
1
 10
108.052197
 20
1487.273063
 30
0.0
 10
128.082197
 20
1487.273063
 30
0.0
 10
148.112196
 20
1478.133063
 30
0.0
 10
160.439196
 20
1461.376063
 30
0.0
  0
SPLINE
  5
1c5
100
AcDbEntity
  8
H0104_Printing
 62
7
100
AcDbSpline
 70
8
 71
3
 72
8
 73
4
 74
0
 40
0
 40
0
 40
0
 40
0
 40
1
 40
1
 40
1
 40
1
 10
160.439196
 20
1461.376063
 30
0.0
 10
166.602196
 20
1453.760064
 30
0.0
 10
171.224196
 20
1444.620064
 30
0.0
 10
174.306196
 20
1435.480064
 30
0.0
  0
LWPOLYLINE
  5
1c6
100
AcDbEntity
  8
H0104_Printing
 62
7
100
AcDbPolyline
 90
3
 70
0
 10
135.786197
 20
1376.070066
 30
0.0
 10
135.786197
 20
1363.883066
 30
0.0
 10
135.786197
 20
1327.323067
 30
0.0
  0
SPLINE
  5
1c7
100
AcDbEntity
  8
H0104_Printing
 62
7
100
AcDbSpline
 70
8
 71
3
 72
8
 73
4
 74
0
 40
0
 40
0
 40
0
 40
0
 40
1
 40
1
 40
1
 40
1
 10
174.306196
 20
1497.936063
 30
0.0
 10
174.306196
 20
1493.366063
 30
0.0
 10
171.224196
 20
1490.320063
 30
0.0
 10
169.683196
 20
1487.273063
 30
0.0
  0
SPLINE
  5
1c8
100
AcDbEntity
  8
H0104_Printing
 62
7
100
AcDbSpline
 70
8
 71
3
 72
8
 73
4
 74
0
 40
0
 40
0
 40
0
 40
0
 40
1
 40
1
 40
1
 40
1
 10
169.683196
 20
1487.273063
 30
0.0
 10
166.602196
 20
1485.749063
 30
0.0
 10
163.520196
 20
1484.226063
 30
0.0
 10
160.439196
 20
1484.226063
 30
0.0
  0
LWPOLYLINE
  5
1c9
100
AcDbEntity
  8
H0104_Printing
 62
7
100
AcDbPolyline
 90
4
 70
0
 10
174.306196
 20
1435.480064
 30
0.0
 10
180.469195
 20
1435.480064
 30
0.0
 10
180.469195
 20
1497.936063
 30
0.0
 10
174.306196
 20
1497.936063
 30
0.0
  0
SPLINE
  5
1ca
100
AcDbEntity
  8
H0104_Printing
 62
7
100
AcDbSpline
 70
8
 71
3
 72
8
 73
4
 74
0
 40
0
 40
0
 40
0
 40
0
 40
1
 40
1
 40
1
 40
1
 10
141.949196
 20
1490.320063
 30
0.0
 10
123.460197
 20
1497.936063
 30
0.0
 10
103.430197
 20
1499.459063
 30
0.0
 10
83.399198
 20
1496.413063
 30
0.0
  0
SPLINE
  5
1cb
100
AcDbEntity
  8
H0104_Printing
 62
7
100
AcDbSpline
 70
8
 71
3
 72
8
 73
4
 74
0
 40
0
 40
0
 40
0
 40
0
 40
1
 40
1
 40
1
 40
1
 10
83.399198
 20
1496.413063
 30
0.0
 10
18.686200
 20
1487.273063
 30
0.0
 10
-18.292800
 20
1420.246064
 30
0.0
 10
9.441200
 20
1362.360066
 30
0.0
  0
SPLINE
  5
1cc
100
AcDbEntity
  8
H0104_Printing
 62
7
100
AcDbSpline
 70
8
 71
3
 72
8
 73
4
 74
0
 40
0
 40
0
 40
0
 40
0
 40
1
 40
1
 40
1
 40
1
 10
9.441200
 20
1362.360066
 30
0.0
 10
21.768199
 20
1341.033066
 30
0.0
 10
38.716199
 20
1325.800067
 30
0.0
 10
60.287198
 20
1318.184067
 30
0.0
  0
SPLINE
  5
1cd
100
AcDbEntity
  8
H0104_Printing
 62
7
100
AcDbSpline
 70
8
 71
3
 72
8
 73
4
 74
0
 40
0
 40
0
 40
0
 40
0
 40
1
 40
1
 40
1
 40
1
 10
60.287198
 20
1318.184067
 30
0.0
 10
74.154198
 20
1313.613067
 30
0.0
 10
89.562198
 20
1310.567067
 30
0.0
 10
103.430197
 20
1312.090067
 30
0.0
  0
SPLINE
  5
1ce
100
AcDbEntity
  8
H0104_Printing
 62
7
100
AcDbSpline
 70
8
 71
3
 72
8
 73
4
 74
0
 40
0
 40
0
 40
0
 40
0
 40
1
 40
1
 40
1
 40
1
 10
103.430197
 20
1312.090067
 30
0.0
 10
129.623197
 20
1310.567067
 30
0.0
 10
155.816196
 20
1316.660067
 30
0.0
 10
180.469195
 20
1327.323067
 30
0.0
  0
LWPOLYLINE
  5
1cf
100
AcDbEntity
  8
H0104_Printing
 62
7
100
AcDbPolyline
 90
2
 70
0
 10
160.439196
 20
1484.226063
 30
0.0
 10
141.949196
 20
1490.320063
 30
0.0
  0
SPLINE
  5
1d0
100
AcDbEntity
  8
H0104_Printing
 62
7
100
AcDbSpline
 70
8
 71
3
 72
8
 73
4
 74
0
 40
0
 40
0
 40
0
 40
0
 40
1
 40
1
 40
1
 40
1
 10
195.877195
 20
1367.357066
 30
0.0
 10
205.121195
 20
1335.366067
 30
0.0
 10
231.315194
 20
1321.230067
 30
0.0
 10
263.671193
 20
1315.136067
 30
0.0
  0
SPLINE
  5
1d1
100
AcDbEntity
  8
H0104_Printing
 62
7
100
AcDbSpline
 70
8
 71
3
 72
8
 73
4
 74
0
 40
0
 40
0
 40
0
 40
0
 40
1
 40
1
 40
1
 40
1
 10
263.671193
 20
1315.136067
 30
0.0
 10
217.448195
 20
1305.997067
 30
0.0
 10
185.091195
 20
1261.820068
 30
0.0
 10
191.254195
 20
1214.597070
 30
0.0
  0
SPLINE
  5
1d2
100
AcDbEntity
  8
H0104_Printing
 62
7
100
AcDbSpline
 70
8
 71
3
 72
8
 73
4
 74
0
 40
0
 40
0
 40
0
 40
0
 40
1
 40
1
 40
1
 40
1
 10
191.254195
 20
1214.597070
 30
0.0
 10
194.336195
 20
1179.560071
 30
0.0
 10
218.989195
 20
1149.094071
 30
0.0
 10
251.345194
 20
1136.907072
 30
0.0
  0
LWPOLYLINE
  5
1d3
100
AcDbEntity
  8
H0104_Printing
 62
7
100
AcDbPolyline
 90
4
 70
0
 10
180.469195
 20
1327.323067
 30
0.0
 10
180.469195
 20
1361.263066
 30
0.0
 10
180.469195
 20
1367.357066
 30
0.0
 10
195.877195
 20
1367.357066
 30
0.0
  0
SPLINE
  5
1d4
100
AcDbEntity
  8
H0104_Printing
 62
7
100
AcDbSpline
 70
8
 71
3
 72
8
 73
4
 74
0
 40
0
 40
0
 40
0
 40
0
 40
1
 40
1
 40
1
 40
1
 10
195.877195
 20
1132.337072
 30
0.0
 10
202.040195
 20
1133.861072
 30
0.0
 10
208.203195
 20
1132.337072
 30
0.0
 10
214.366195
 20
1129.291072
 30
0.0
  0
SPLINE
  5
1d5
100
AcDbEntity
  8
H0104_Printing
 62
7
100
AcDbSpline
 70
8
 71
3
 72
8
 73
4
 74
0
 40
0
 40
0
 40
0
 40
0
 40
1
 40
1
 40
1
 40
1
 10
214.366195
 20
1129.291072
 30
0.0
 10
217.448195
 20
1127.767072
 30
0.0
 10
220.529194
 20
1124.720072
 30
0.0
 10
220.529194
 20
1121.674072
 30
0.0
  0
LWPOLYLINE
  5
1d6
100
AcDbEntity
  8
H0104_Printing
 62
7
100
AcDbPolyline
 90
3
 70
0
 10
251.345194
 20
1136.907072
 30
0.0
 10
195.877195
 20
1136.907072
 30
0.0
 10
195.877195
 20
1132.337072
 30
0.0
  0
SPLINE
  5
1d7
100
AcDbEntity
  8
H0104_Printing
 62
7
100
AcDbSpline
 70
8
 71
3
 72
8
 73
4
 74
0
 40
0
 40
0
 40
0
 40
0
 40
1
 40
1
 40
1
 40
1
 10
222.070194
 20
990.667075
 30
0.0
 10
222.070194
 20
984.574075
 30
0.0
 10
222.070194
 20
978.481076
 30
0.0
 10
220.529194
 20
973.911076
 30
0.0
  0
SPLINE
  5
1d8
100
AcDbEntity
  8
H0104_Printing
 62
7
100
AcDbSpline
 70
8
 71
3
 72
8
 73
4
 74
0
 40
0
 40
0
 40
0
 40
0
 40
1
 40
1
 40
1
 40
1
 10
220.529194
 20
973.911076
 30
0.0
 10
218.989195
 20
970.864076
 30
0.0
 10
215.907195
 20
967.817076
 30
0.0
 10
212.825195
 20
966.294076
 30
0.0
  0
SPLINE
  5
1d9
100
AcDbEntity
  8
H0104_Printing
 62
7
100
AcDbSpline
 70
8
 71
3
 72
8
 73
4
 74
0
 40
0
 40
0
 40
0
 40
0
 40
1
 40
1
 40
1
 40
1
 10
212.825195
 20
966.294076
 30
0.0
 10
206.662195
 20
964.771076
 30
0.0
 10
202.040195
 20
964.771076
 30
0.0
 10
195.877195
 20
964.771076
 30
0.0
  0
LWPOLYLINE
  5
1da
100
AcDbEntity
  8
H0104_Printing
 62
7
100
AcDbPolyline
 90
3
 70
0
 10
220.529194
 20
1121.674072
 30
0.0
 10
222.070194
 20
1106.441072
 30
0.0
 10
222.070194
 20
990.667075
 30
0.0
  0
SPLINE
  5
1db
100
AcDbEntity
  8
H0104_Printing
 62
7
100
AcDbSpline
 70
8
 71
3
 72
8
 73
4
 74
0
 40
0
 40
0
 40
0
 40
0
 40
1
 40
1
 40
1
 40
1
 10
285.242193
 20
960.201076
 30
0.0
 10
302.191192
 20
960.201076
 30
0.0
 10
319.140192
 20
963.248076
 30
0.0
 10
334.548192
 20
970.864076
 30
0.0
  0
SPLINE
  5
1dc
100
AcDbEntity
  8
H0104_Printing
 62
7
100
AcDbSpline
 70
8
 71
3
 72
8
 73
4
 74
0
 40
0
 40
0
 40
0
 40
0
 40
1
 40
1
 40
1
 40
1
 10
334.548192
 20
970.864076
 30
0.0
 10
353.037191
 20
980.004075
 30
0.0
 10
366.904191
 20
995.238075
 30
0.0
 10
374.608191
 20
1013.518075
 30
0.0
  0
SPLINE
  5
1dd
100
AcDbEntity
  8
H0104_Printing
 62
7
100
AcDbSpline
 70
8
 71
3
 72
8
 73
4
 74
0
 40
0
 40
0
 40
0
 40
0
 40
1
 40
1
 40
1
 40
1
 10
374.608191
 20
1013.518075
 30
0.0
 10
383.853190
 20
1040.937074
 30
0.0
 10
382.312190
 20
1071.404073
 30
0.0
 10
366.904191
 20
1097.301073
 30
0.0
  0
SPLINE
  5
1de
100
AcDbEntity
  8
H0104_Printing
 62
7
100
AcDbSpline
 70
8
 71
3
 72
8
 73
4
 74
0
 40
0
 40
0
 40
0
 40
0
 40
1
 40
1
 40
1
 40
1
 10
366.904191
 20
1097.301073
 30
0.0
 10
356.119191
 20
1117.104072
 30
0.0
 10
336.088192
 20
1130.814072
 30
0.0
 10
312.977192
 20
1133.861072
 30
0.0
  0
SPLINE
  5
1df
100
AcDbEntity
  8
H0104_Printing
 62
7
100
AcDbSpline
 70
8
 71
3
 72
8
 73
4
 74
0
 40
0
 40
0
 40
0
 40
0
 40
1
 40
1
 40
1
 40
1
 10
312.977192
 20
1133.861072
 30
0.0
 10
333.007192
 20
1138.430072
 30
0.0
 10
351.496191
 20
1149.094071
 30
0.0
 10
365.363191
 20
1165.851071
 30
0.0
  0
SPLINE
  5
1e0
100
AcDbEntity
  8
H0104_Printing
 62
7
100
AcDbSpline
 70
8
 71
3
 72
8
 73
4
 74
0
 40
0
 40
0
 40
0
 40
0
 40
1
 40
1
 40
1
 40
1
 10
365.363191
 20
1165.851071
 30
0.0
 10
380.771190
 20
1187.177070
 30
0.0
 10
388.475190
 20
1213.074070
 30
0.0
 10
383.853190
 20
1238.970069
 30
0.0
  0
SPLINE
  5
1e1
100
AcDbEntity
  8
H0104_Printing
 62
7
100
AcDbSpline
 70
8
 71
3
 72
8
 73
4
 74
0
 40
0
 40
0
 40
0
 40
0
 40
1
 40
1
 40
1
 40
1
 10
383.853190
 20
1238.970069
 30
0.0
 10
379.230191
 20
1277.053068
 30
0.0
 10
349.956191
 20
1307.520067
 30
0.0
 10
311.436192
 20
1315.136067
 30
0.0
  0
SPLINE
  5
1e2
100
AcDbEntity
  8
H0104_Printing
 62
7
100
AcDbSpline
 70
8
 71
3
 72
8
 73
4
 74
0
 40
0
 40
0
 40
0
 40
0
 40
1
 40
1
 40
1
 40
1
 10
311.436192
 20
1315.136067
 30
0.0
 10
343.792191
 20
1321.230067
 30
0.0
 10
369.986191
 20
1342.557066
 30
0.0
 10
379.230191
 20
1373.024066
 30
0.0
  0
LWPOLYLINE
  5
1e3
100
AcDbEntity
  8
H0104_Printing
 62
7
100
AcDbPolyline
 90
3
 70
0
 10
195.877195
 20
964.771076
 30
0.0
 10
195.877195
 20
960.201076
 30
0.0
 10
285.242193
 20
960.201076
 30
0.0
  0
SPLINE
  5
1e4
100
AcDbEntity
  8
H0104_Printing
 62
7
100
AcDbSpline
 70
8
 71
3
 72
8
 73
4
 74
0
 40
0
 40
0
 40
0
 40
0
 40
1
 40
1
 40
1
 40
1
 10
379.230191
 20
1336.464067
 30
0.0
 10
379.230191
 20
1330.370067
 30
0.0
 10
376.149191
 20
1324.277067
 30
0.0
 10
369.986191
 20
1322.753067
 30
0.0
  0
SPLINE
  5
1e5
100
AcDbEntity
  8
H0104_Printing
 62
7
100
AcDbSpline
 70
8
 71
3
 72
8
 73
4
 74
0
 40
0
 40
0
 40
0
 40
0
 40
1
 40
1
 40
1
 40
1
 10
369.986191
 20
1322.753067
 30
0.0
 10
365.363191
 20
1321.230067
 30
0.0
 10
359.200191
 20
1321.230067
 30
0.0
 10
354.578191
 20
1321.230067
 30
0.0
  0
LWPOLYLINE
  5
1e6
100
AcDbEntity
  8
H0104_Printing
 62
7
100
AcDbPolyline
 90
2
 70
0
 10
379.230191
 20
1373.024066
 30
0.0
 10
379.230191
 20
1336.464067
 30
0.0
  0
SPLINE
  5
1e7
100
AcDbEntity
  8
H0104_Printing
 62
7
100
AcDbSpline
 70
8
 71
3
 72
8
 73
4
 74
0
 40
0
 40
0
 40
0
 40
0
 40
1
 40
1
 40
1
 40
1
 10
443.944189
 20
1316.660067
 30
0.0
 10
460.892188
 20
1316.660067
 30
0.0
 10
477.841188
 20
1319.707067
 30
0.0
 10
493.249188
 20
1327.323067
 30
0.0
  0
SPLINE
  5
1e8
100
AcDbEntity
  8
H0104_Printing
 62
7
100
AcDbSpline
 70
8
 71
3
 72
8
 73
4
 74
0
 40
0
 40
0
 40
0
 40
0
 40
1
 40
1
 40
1
 40
1
 10
493.249188
 20
1327.323067
 30
0.0
 10
511.738187
 20
1336.464067
 30
0.0
 10
525.605187
 20
1351.696066
 30
0.0
 10
531.768187
 20
1369.976066
 30
0.0
  0
SPLINE
  5
1e9
100
AcDbEntity
  8
H0104_Printing
 62
7
100
AcDbSpline
 70
8
 71
3
 72
8
 73
4
 74
0
 40
0
 40
0
 40
0
 40
0
 40
1
 40
1
 40
1
 40
1
 10
531.768187
 20
1369.976066
 30
0.0
 10
542.554186
 20
1397.397065
 30
0.0
 10
539.472187
 20
1427.863064
 30
0.0
 10
525.605187
 20
1453.760064
 30
0.0
  0
LWPOLYLINE
  5
1ea
100
AcDbEntity
  8
H0104_Printing
 62
7
100
AcDbPolyline
 90
3
 70
0
 10
354.578191
 20
1321.230067
 30
0.0
 10
354.578191
 20
1316.660067
 30
0.0
 10
443.944189
 20
1316.660067
 30
0.0
  0
LWPOLYLINE
  5
1eb
100
AcDbEntity
  8
H0104_Printing
 62
7
100
AcDbPolyline
 90
1
 70
1
 10
525.605187
 20
1453.760064
 30
0.0
  0
ENDSEC
  0
SECTION
  2
OBJECTS
  0
DICTIONARY
  5
C
330
0
100
AcDbDictionary
  3
ACAD_GROUP
350
D
  3
ACAD_MLINESTYLE
350
17
  0
DICTIONARY
  5
D
330
C
100
AcDbDictionary
  0
DICTIONARY
  5
1A
330
C
100
AcDbDictionary
  0
DICTIONARY
  5
17
330
C
100
AcDbDictionary
  3
STANDARD
350
18
  0
DICTIONARY
  5
19
330
C
100
AcDbDictionary
  0
ENDSEC
  0
EOF
