  0
SECTION
  2
HEADER
  9
$ACADVER
  1
AC1009
  9
$ANGBASE
 50
0
  9
$ANGDIR
 70
0
  9
$AUNITS
 70
0
  9
$LUNITS
 70
2
  9
$EXTMIN
 10
-29.5037693631005
 20
-30.3089636214597
 30
0
  9
$EXTMAX
 10
718.5710399789
 20
669.224144333139
 30
0
  9
$LIMMIN
 10
-29.5037693631005
 20
-30.3089636214597
  9
$LIMMAX
 10
718.5710399789
 20
669.224144333139
  0
ENDSEC
  0
SECTION
  2
TABLES
  0
TABLE
  2
APPID
 70
1
  0
APPID
  2
D3D
 70
64
  0
ENDTAB
  0
TABLE
  2
LTYPE
 70
10
  0
LTYPE
  2
CONTINUOUS
 70
0
  3
Solid line
 72
65
 73
0
 40
0
  0
LTYPE
  2
DASHED
 70
0
  3
__ __ __ __ __ __ __ __ __ __ __ __ __ __ __
 72
65
 73
2
 40
0.75
 49
0.5
 49
-0.25
  0
LTYPE
  2
DOT
 70
0
  3
...............................................
 72
65
 73
2
 40
0.25
 49
0.25
 49
0
  0
LTYPE
  2
CENTER
 70
0
  3
____ _ ____ _ ____ _ ____ _ ____ _ ____ _ ____
 72
65
 73
4
 40
2
 49
1.25
 49
-0.25
 49
0.25
 49
-0.25
  0
LTYPE
  2
PHANTOM
 70
0
  3
_____ _ _ _____ _ _ _____ _ _ _____ _ _ ____
 72
65
 73
6
 40
2.5
 49
1.25
 49
-0.25
 49
0.25
 49
-0.25
 49
0.25
 49
-0.25
  0
ENDTAB
  0
TABLE
  2
LAYER
 70
1000
  0
LAYER
  2
0
 70
0
 62
7
  6
CONTINUOUS
  0
LAYER
  2
1
 70
0
 62
7
  6
CONTINUOUS
  0
LAYER
  2
2
 70
0
 62
7
  6
CONTINUOUS
  0
LAYER
  2
3
 70
0
 62
7
  6
CONTINUOUS
  0
LAYER
  2
4
 70
0
 62
7
  6
CONTINUOUS
  0
LAYER
  2
5
 70
0
 62
7
  6
CONTINUOUS
  0
LAYER
  2
6
 70
0
 62
7
  6
CONTINUOUS
  0
LAYER
  2
7
 70
0
 62
7
  6
CONTINUOUS
  0
LAYER
  2
8
 70
0
 62
7
  6
CONTINUOUS
  0
LAYER
  2
9
 70
0
 62
7
  6
CONTINUOUS
  0
LAYER
  2
10
 70
0
 62
7
  6
CONTINUOUS
  0
LAYER
  2
11
 70
0
 62
7
  6
CONTINUOUS
  0
LAYER
  2
12
 70
0
 62
7
  6
CONTINUOUS
  0
LAYER
  2
13
 70
0
 62
7
  6
CONTINUOUS
  0
LAYER
  2
14
 70
0
 62
7
  6
CONTINUOUS
  0
LAYER
  2
15
 70
0
 62
7
  6
CONTINUOUS
  0
LAYER
  2
16
 70
0
 62
7
  6
CONTINUOUS
  0
LAYER
  2
17
 70
0
 62
7
  6
CONTINUOUS
  0
LAYER
  2
18
 70
0
 62
7
  6
CONTINUOUS
  0
LAYER
  2
19
 70
0
 62
7
  6
CONTINUOUS
  0
LAYER
  2
20
 70
0
 62
7
  6
CONTINUOUS
  0
LAYER
  2
21
 70
0
 62
7
  6
CONTINUOUS
  0
LAYER
  2
22
 70
0
 62
7
  6
CONTINUOUS
  0
LAYER
  2
23
 70
0
 62
7
  6
CONTINUOUS
  0
LAYER
  2
24
 70
0
 62
7
  6
CONTINUOUS
  0
LAYER
  2
25
 70
0
 62
7
  6
CONTINUOUS
  0
LAYER
  2
26
 70
0
 62
7
  6
CONTINUOUS
  0
LAYER
  2
27
 70
0
 62
7
  6
CONTINUOUS
  0
LAYER
  2
28
 70
0
 62
7
  6
CONTINUOUS
  0
LAYER
  2
29
 70
0
 62
7
  6
CONTINUOUS
  0
LAYER
  2
30
 70
0
 62
7
  6
CONTINUOUS
  0
LAYER
  2
31
 70
0
 62
7
  6
CONTINUOUS
  0
LAYER
  2
32
 70
0
 62
7
  6
CONTINUOUS
  0
LAYER
  2
33
 70
0
 62
7
  6
CONTINUOUS
  0
LAYER
  2
34
 70
0
 62
7
  6
CONTINUOUS
  0
LAYER
  2
35
 70
0
 62
7
  6
CONTINUOUS
  0
LAYER
  2
36
 70
0
 62
7
  6
CONTINUOUS
  0
LAYER
  2
37
 70
0
 62
7
  6
CONTINUOUS
  0
LAYER
  2
38
 70
0
 62
7
  6
CONTINUOUS
  0
LAYER
  2
39
 70
0
 62
7
  6
CONTINUOUS
  0
LAYER
  2
40
 70
0
 62
7
  6
CONTINUOUS
  0
LAYER
  2
41
 70
0
 62
7
  6
CONTINUOUS
  0
LAYER
  2
42
 70
0
 62
7
  6
CONTINUOUS
  0
LAYER
  2
43
 70
0
 62
7
  6
CONTINUOUS
  0
LAYER
  2
44
 70
0
 62
7
  6
CONTINUOUS
  0
LAYER
  2
45
 70
0
 62
7
  6
CONTINUOUS
  0
LAYER
  2
46
 70
0
 62
7
  6
CONTINUOUS
  0
LAYER
  2
47
 70
0
 62
7
  6
CONTINUOUS
  0
LAYER
  2
48
 70
0
 62
7
  6
CONTINUOUS
  0
LAYER
  2
49
 70
0
 62
7
  6
CONTINUOUS
  0
LAYER
  2
50
 70
0
 62
7
  6
CONTINUOUS
  0
LAYER
  2
51
 70
0
 62
7
  6
CONTINUOUS
  0
LAYER
  2
52
 70
0
 62
7
  6
CONTINUOUS
  0
LAYER
  2
53
 70
0
 62
7
  6
CONTINUOUS
  0
LAYER
  2
54
 70
0
 62
7
  6
CONTINUOUS
  0
LAYER
  2
55
 70
0
 62
7
  6
CONTINUOUS
  0
LAYER
  2
56
 70
0
 62
7
  6
CONTINUOUS
  0
LAYER
  2
57
 70
0
 62
7
  6
CONTINUOUS
  0
LAYER
  2
58
 70
0
 62
7
  6
CONTINUOUS
  0
LAYER
  2
59
 70
0
 62
7
  6
CONTINUOUS
  0
LAYER
  2
60
 70
0
 62
7
  6
CONTINUOUS
  0
LAYER
  2
61
 70
0
 62
7
  6
CONTINUOUS
  0
LAYER
  2
62
 70
0
 62
7
  6
CONTINUOUS
  0
LAYER
  2
63
 70
0
 62
7
  6
CONTINUOUS
  0
LAYER
  2
64
 70
0
 62
7
  6
CONTINUOUS
  0
LAYER
  2
65
 70
0
 62
7
  6
CONTINUOUS
  0
LAYER
  2
66
 70
0
 62
7
  6
CONTINUOUS
  0
LAYER
  2
67
 70
0
 62
7
  6
CONTINUOUS
  0
LAYER
  2
68
 70
0
 62
7
  6
CONTINUOUS
  0
LAYER
  2
69
 70
0
 62
7
  6
CONTINUOUS
  0
LAYER
  2
70
 70
0
 62
7
  6
CONTINUOUS
  0
LAYER
  2
71
 70
0
 62
7
  6
CONTINUOUS
  0
LAYER
  2
72
 70
0
 62
7
  6
CONTINUOUS
  0
LAYER
  2
73
 70
0
 62
7
  6
CONTINUOUS
  0
LAYER
  2
74
 70
0
 62
7
  6
CONTINUOUS
  0
LAYER
  2
75
 70
0
 62
7
  6
CONTINUOUS
  0
LAYER
  2
76
 70
0
 62
7
  6
CONTINUOUS
  0
LAYER
  2
77
 70
0
 62
7
  6
CONTINUOUS
  0
LAYER
  2
78
 70
0
 62
7
  6
CONTINUOUS
  0
LAYER
  2
79
 70
0
 62
7
  6
CONTINUOUS
  0
LAYER
  2
80
 70
0
 62
7
  6
CONTINUOUS
  0
LAYER
  2
81
 70
0
 62
7
  6
CONTINUOUS
  0
LAYER
  2
82
 70
0
 62
7
  6
CONTINUOUS
  0
LAYER
  2
83
 70
0
 62
7
  6
CONTINUOUS
  0
LAYER
  2
84
 70
0
 62
7
  6
CONTINUOUS
  0
LAYER
  2
85
 70
0
 62
7
  6
CONTINUOUS
  0
LAYER
  2
86
 70
0
 62
7
  6
CONTINUOUS
  0
LAYER
  2
87
 70
0
 62
7
  6
CONTINUOUS
  0
LAYER
  2
88
 70
0
 62
7
  6
CONTINUOUS
  0
LAYER
  2
89
 70
0
 62
7
  6
CONTINUOUS
  0
LAYER
  2
90
 70
0
 62
7
  6
CONTINUOUS
  0
LAYER
  2
91
 70
0
 62
7
  6
CONTINUOUS
  0
LAYER
  2
92
 70
0
 62
7
  6
CONTINUOUS
  0
LAYER
  2
93
 70
0
 62
7
  6
CONTINUOUS
  0
LAYER
  2
94
 70
0
 62
7
  6
CONTINUOUS
  0
LAYER
  2
95
 70
0
 62
7
  6
CONTINUOUS
  0
LAYER
  2
96
 70
0
 62
7
  6
CONTINUOUS
  0
LAYER
  2
97
 70
0
 62
7
  6
CONTINUOUS
  0
LAYER
  2
98
 70
0
 62
7
  6
CONTINUOUS
  0
LAYER
  2
99
 70
0
 62
7
  6
CONTINUOUS
  0
LAYER
  2
100
 70
0
 62
7
  6
CONTINUOUS
  0
LAYER
  2
101
 70
0
 62
7
  6
CONTINUOUS
  0
LAYER
  2
102
 70
0
 62
7
  6
CONTINUOUS
  0
LAYER
  2
103
 70
0
 62
7
  6
CONTINUOUS
  0
LAYER
  2
104
 70
0
 62
7
  6
CONTINUOUS
  0
LAYER
  2
105
 70
0
 62
7
  6
CONTINUOUS
  0
LAYER
  2
106
 70
0
 62
7
  6
CONTINUOUS
  0
LAYER
  2
107
 70
0
 62
7
  6
CONTINUOUS
  0
LAYER
  2
108
 70
0
 62
7
  6
CONTINUOUS
  0
LAYER
  2
109
 70
0
 62
7
  6
CONTINUOUS
  0
LAYER
  2
110
 70
0
 62
7
  6
CONTINUOUS
  0
LAYER
  2
111
 70
0
 62
7
  6
CONTINUOUS
  0
LAYER
  2
112
 70
0
 62
7
  6
CONTINUOUS
  0
LAYER
  2
113
 70
0
 62
7
  6
CONTINUOUS
  0
LAYER
  2
114
 70
0
 62
7
  6
CONTINUOUS
  0
LAYER
  2
115
 70
0
 62
7
  6
CONTINUOUS
  0
LAYER
  2
116
 70
0
 62
7
  6
CONTINUOUS
  0
LAYER
  2
117
 70
0
 62
7
  6
CONTINUOUS
  0
LAYER
  2
118
 70
0
 62
7
  6
CONTINUOUS
  0
LAYER
  2
119
 70
0
 62
7
  6
CONTINUOUS
  0
LAYER
  2
120
 70
0
 62
7
  6
CONTINUOUS
  0
LAYER
  2
121
 70
0
 62
7
  6
CONTINUOUS
  0
LAYER
  2
122
 70
0
 62
7
  6
CONTINUOUS
  0
LAYER
  2
123
 70
0
 62
7
  6
CONTINUOUS
  0
LAYER
  2
124
 70
0
 62
7
  6
CONTINUOUS
  0
LAYER
  2
125
 70
0
 62
7
  6
CONTINUOUS
  0
LAYER
  2
126
 70
0
 62
7
  6
CONTINUOUS
  0
LAYER
  2
127
 70
0
 62
7
  6
CONTINUOUS
  0
LAYER
  2
128
 70
0
 62
7
  6
CONTINUOUS
  0
LAYER
  2
129
 70
0
 62
7
  6
CONTINUOUS
  0
LAYER
  2
130
 70
0
 62
7
  6
CONTINUOUS
  0
LAYER
  2
131
 70
0
 62
7
  6
CONTINUOUS
  0
LAYER
  2
132
 70
0
 62
7
  6
CONTINUOUS
  0
LAYER
  2
133
 70
0
 62
7
  6
CONTINUOUS
  0
LAYER
  2
134
 70
0
 62
7
  6
CONTINUOUS
  0
LAYER
  2
135
 70
0
 62
7
  6
CONTINUOUS
  0
LAYER
  2
136
 70
0
 62
7
  6
CONTINUOUS
  0
LAYER
  2
137
 70
0
 62
7
  6
CONTINUOUS
  0
LAYER
  2
138
 70
0
 62
7
  6
CONTINUOUS
  0
LAYER
  2
139
 70
0
 62
7
  6
CONTINUOUS
  0
LAYER
  2
140
 70
0
 62
7
  6
CONTINUOUS
  0
LAYER
  2
141
 70
0
 62
7
  6
CONTINUOUS
  0
LAYER
  2
142
 70
0
 62
7
  6
CONTINUOUS
  0
LAYER
  2
143
 70
0
 62
7
  6
CONTINUOUS
  0
LAYER
  2
144
 70
0
 62
7
  6
CONTINUOUS
  0
LAYER
  2
145
 70
0
 62
7
  6
CONTINUOUS
  0
LAYER
  2
146
 70
0
 62
7
  6
CONTINUOUS
  0
LAYER
  2
147
 70
0
 62
7
  6
CONTINUOUS
  0
LAYER
  2
148
 70
0
 62
7
  6
CONTINUOUS
  0
LAYER
  2
149
 70
0
 62
7
  6
CONTINUOUS
  0
LAYER
  2
150
 70
0
 62
7
  6
CONTINUOUS
  0
LAYER
  2
151
 70
0
 62
7
  6
CONTINUOUS
  0
LAYER
  2
152
 70
0
 62
7
  6
CONTINUOUS
  0
LAYER
  2
153
 70
0
 62
7
  6
CONTINUOUS
  0
LAYER
  2
154
 70
0
 62
7
  6
CONTINUOUS
  0
LAYER
  2
155
 70
0
 62
7
  6
CONTINUOUS
  0
LAYER
  2
156
 70
0
 62
7
  6
CONTINUOUS
  0
LAYER
  2
157
 70
0
 62
7
  6
CONTINUOUS
  0
LAYER
  2
158
 70
0
 62
7
  6
CONTINUOUS
  0
LAYER
  2
159
 70
0
 62
7
  6
CONTINUOUS
  0
LAYER
  2
160
 70
0
 62
7
  6
CONTINUOUS
  0
LAYER
  2
161
 70
0
 62
7
  6
CONTINUOUS
  0
LAYER
  2
162
 70
0
 62
7
  6
CONTINUOUS
  0
LAYER
  2
163
 70
0
 62
7
  6
CONTINUOUS
  0
LAYER
  2
164
 70
0
 62
7
  6
CONTINUOUS
  0
LAYER
  2
165
 70
0
 62
7
  6
CONTINUOUS
  0
LAYER
  2
166
 70
0
 62
7
  6
CONTINUOUS
  0
LAYER
  2
167
 70
0
 62
7
  6
CONTINUOUS
  0
LAYER
  2
168
 70
0
 62
7
  6
CONTINUOUS
  0
LAYER
  2
169
 70
0
 62
7
  6
CONTINUOUS
  0
LAYER
  2
170
 70
0
 62
7
  6
CONTINUOUS
  0
LAYER
  2
171
 70
0
 62
7
  6
CONTINUOUS
  0
LAYER
  2
172
 70
0
 62
7
  6
CONTINUOUS
  0
LAYER
  2
173
 70
0
 62
7
  6
CONTINUOUS
  0
LAYER
  2
174
 70
0
 62
7
  6
CONTINUOUS
  0
LAYER
  2
175
 70
0
 62
7
  6
CONTINUOUS
  0
LAYER
  2
176
 70
0
 62
7
  6
CONTINUOUS
  0
LAYER
  2
177
 70
0
 62
7
  6
CONTINUOUS
  0
LAYER
  2
178
 70
0
 62
7
  6
CONTINUOUS
  0
LAYER
  2
179
 70
0
 62
7
  6
CONTINUOUS
  0
LAYER
  2
180
 70
0
 62
7
  6
CONTINUOUS
  0
LAYER
  2
181
 70
0
 62
7
  6
CONTINUOUS
  0
LAYER
  2
182
 70
0
 62
7
  6
CONTINUOUS
  0
LAYER
  2
183
 70
0
 62
7
  6
CONTINUOUS
  0
LAYER
  2
184
 70
0
 62
7
  6
CONTINUOUS
  0
LAYER
  2
185
 70
0
 62
7
  6
CONTINUOUS
  0
LAYER
  2
186
 70
0
 62
7
  6
CONTINUOUS
  0
LAYER
  2
187
 70
0
 62
7
  6
CONTINUOUS
  0
LAYER
  2
188
 70
0
 62
7
  6
CONTINUOUS
  0
LAYER
  2
189
 70
0
 62
7
  6
CONTINUOUS
  0
LAYER
  2
190
 70
0
 62
7
  6
CONTINUOUS
  0
LAYER
  2
191
 70
0
 62
7
  6
CONTINUOUS
  0
LAYER
  2
192
 70
0
 62
7
  6
CONTINUOUS
  0
LAYER
  2
193
 70
0
 62
7
  6
CONTINUOUS
  0
LAYER
  2
194
 70
0
 62
7
  6
CONTINUOUS
  0
LAYER
  2
195
 70
0
 62
7
  6
CONTINUOUS
  0
LAYER
  2
196
 70
0
 62
7
  6
CONTINUOUS
  0
LAYER
  2
197
 70
0
 62
7
  6
CONTINUOUS
  0
LAYER
  2
198
 70
0
 62
7
  6
CONTINUOUS
  0
LAYER
  2
199
 70
0
 62
7
  6
CONTINUOUS
  0
LAYER
  2
200
 70
0
 62
7
  6
CONTINUOUS
  0
LAYER
  2
201
 70
0
 62
7
  6
CONTINUOUS
  0
LAYER
  2
202
 70
0
 62
7
  6
CONTINUOUS
  0
LAYER
  2
203
 70
0
 62
7
  6
CONTINUOUS
  0
LAYER
  2
204
 70
0
 62
7
  6
CONTINUOUS
  0
LAYER
  2
205
 70
0
 62
7
  6
CONTINUOUS
  0
LAYER
  2
206
 70
0
 62
7
  6
CONTINUOUS
  0
LAYER
  2
207
 70
0
 62
7
  6
CONTINUOUS
  0
LAYER
  2
208
 70
0
 62
7
  6
CONTINUOUS
  0
LAYER
  2
209
 70
0
 62
7
  6
CONTINUOUS
  0
LAYER
  2
210
 70
0
 62
7
  6
CONTINUOUS
  0
LAYER
  2
211
 70
0
 62
7
  6
CONTINUOUS
  0
LAYER
  2
212
 70
0
 62
7
  6
CONTINUOUS
  0
LAYER
  2
213
 70
0
 62
7
  6
CONTINUOUS
  0
LAYER
  2
214
 70
0
 62
7
  6
CONTINUOUS
  0
LAYER
  2
215
 70
0
 62
7
  6
CONTINUOUS
  0
LAYER
  2
216
 70
0
 62
7
  6
CONTINUOUS
  0
LAYER
  2
217
 70
0
 62
7
  6
CONTINUOUS
  0
LAYER
  2
218
 70
0
 62
7
  6
CONTINUOUS
  0
LAYER
  2
219
 70
0
 62
7
  6
CONTINUOUS
  0
LAYER
  2
220
 70
0
 62
7
  6
CONTINUOUS
  0
LAYER
  2
221
 70
0
 62
7
  6
CONTINUOUS
  0
LAYER
  2
222
 70
0
 62
7
  6
CONTINUOUS
  0
LAYER
  2
223
 70
0
 62
7
  6
CONTINUOUS
  0
LAYER
  2
224
 70
0
 62
7
  6
CONTINUOUS
  0
LAYER
  2
225
 70
0
 62
7
  6
CONTINUOUS
  0
LAYER
  2
226
 70
0
 62
7
  6
CONTINUOUS
  0
LAYER
  2
227
 70
0
 62
7
  6
CONTINUOUS
  0
LAYER
  2
228
 70
0
 62
7
  6
CONTINUOUS
  0
LAYER
  2
229
 70
0
 62
7
  6
CONTINUOUS
  0
LAYER
  2
230
 70
0
 62
7
  6
CONTINUOUS
  0
LAYER
  2
231
 70
0
 62
7
  6
CONTINUOUS
  0
LAYER
  2
232
 70
0
 62
7
  6
CONTINUOUS
  0
LAYER
  2
233
 70
0
 62
7
  6
CONTINUOUS
  0
LAYER
  2
234
 70
0
 62
7
  6
CONTINUOUS
  0
LAYER
  2
235
 70
0
 62
7
  6
CONTINUOUS
  0
LAYER
  2
236
 70
0
 62
7
  6
CONTINUOUS
  0
LAYER
  2
237
 70
0
 62
7
  6
CONTINUOUS
  0
LAYER
  2
238
 70
0
 62
7
  6
CONTINUOUS
  0
LAYER
  2
239
 70
0
 62
7
  6
CONTINUOUS
  0
LAYER
  2
240
 70
0
 62
7
  6
CONTINUOUS
  0
LAYER
  2
241
 70
0
 62
7
  6
CONTINUOUS
  0
LAYER
  2
242
 70
0
 62
7
  6
CONTINUOUS
  0
LAYER
  2
243
 70
0
 62
7
  6
CONTINUOUS
  0
LAYER
  2
244
 70
0
 62
7
  6
CONTINUOUS
  0
LAYER
  2
245
 70
0
 62
7
  6
CONTINUOUS
  0
LAYER
  2
246
 70
0
 62
7
  6
CONTINUOUS
  0
LAYER
  2
247
 70
0
 62
7
  6
CONTINUOUS
  0
LAYER
  2
248
 70
0
 62
7
  6
CONTINUOUS
  0
LAYER
  2
249
 70
0
 62
7
  6
CONTINUOUS
  0
LAYER
  2
250
 70
0
 62
7
  6
CONTINUOUS
  0
LAYER
  2
251
 70
0
 62
7
  6
CONTINUOUS
  0
LAYER
  2
252
 70
0
 62
7
  6
CONTINUOUS
  0
LAYER
  2
253
 70
0
 62
7
  6
CONTINUOUS
  0
LAYER
  2
254
 70
0
 62
7
  6
CONTINUOUS
  0
LAYER
  2
255
 70
0
 62
7
  6
CONTINUOUS
  0
LAYER
  2
256
 70
0
 62
7
  6
CONTINUOUS
  0
LAYER
  2
257
 70
0
 62
7
  6
CONTINUOUS
  0
LAYER
  2
258
 70
0
 62
7
  6
CONTINUOUS
  0
LAYER
  2
259
 70
0
 62
7
  6
CONTINUOUS
  0
LAYER
  2
260
 70
0
 62
7
  6
CONTINUOUS
  0
LAYER
  2
261
 70
0
 62
7
  6
CONTINUOUS
  0
LAYER
  2
262
 70
0
 62
7
  6
CONTINUOUS
  0
LAYER
  2
263
 70
0
 62
7
  6
CONTINUOUS
  0
LAYER
  2
264
 70
0
 62
7
  6
CONTINUOUS
  0
LAYER
  2
265
 70
0
 62
7
  6
CONTINUOUS
  0
LAYER
  2
266
 70
0
 62
7
  6
CONTINUOUS
  0
LAYER
  2
267
 70
0
 62
7
  6
CONTINUOUS
  0
LAYER
  2
268
 70
0
 62
7
  6
CONTINUOUS
  0
LAYER
  2
269
 70
0
 62
7
  6
CONTINUOUS
  0
LAYER
  2
270
 70
0
 62
7
  6
CONTINUOUS
  0
LAYER
  2
271
 70
0
 62
7
  6
CONTINUOUS
  0
LAYER
  2
272
 70
0
 62
7
  6
CONTINUOUS
  0
LAYER
  2
273
 70
0
 62
7
  6
CONTINUOUS
  0
LAYER
  2
274
 70
0
 62
7
  6
CONTINUOUS
  0
LAYER
  2
275
 70
0
 62
7
  6
CONTINUOUS
  0
LAYER
  2
276
 70
0
 62
7
  6
CONTINUOUS
  0
LAYER
  2
277
 70
0
 62
7
  6
CONTINUOUS
  0
LAYER
  2
278
 70
0
 62
7
  6
CONTINUOUS
  0
LAYER
  2
279
 70
0
 62
7
  6
CONTINUOUS
  0
LAYER
  2
280
 70
0
 62
7
  6
CONTINUOUS
  0
LAYER
  2
281
 70
0
 62
7
  6
CONTINUOUS
  0
LAYER
  2
282
 70
0
 62
7
  6
CONTINUOUS
  0
LAYER
  2
283
 70
0
 62
7
  6
CONTINUOUS
  0
LAYER
  2
284
 70
0
 62
7
  6
CONTINUOUS
  0
LAYER
  2
285
 70
0
 62
7
  6
CONTINUOUS
  0
LAYER
  2
286
 70
0
 62
7
  6
CONTINUOUS
  0
LAYER
  2
287
 70
0
 62
7
  6
CONTINUOUS
  0
LAYER
  2
288
 70
0
 62
7
  6
CONTINUOUS
  0
LAYER
  2
289
 70
0
 62
7
  6
CONTINUOUS
  0
LAYER
  2
290
 70
0
 62
7
  6
CONTINUOUS
  0
LAYER
  2
291
 70
0
 62
7
  6
CONTINUOUS
  0
LAYER
  2
292
 70
0
 62
7
  6
CONTINUOUS
  0
LAYER
  2
293
 70
0
 62
7
  6
CONTINUOUS
  0
LAYER
  2
294
 70
0
 62
7
  6
CONTINUOUS
  0
LAYER
  2
295
 70
0
 62
7
  6
CONTINUOUS
  0
LAYER
  2
296
 70
0
 62
7
  6
CONTINUOUS
  0
LAYER
  2
297
 70
0
 62
7
  6
CONTINUOUS
  0
LAYER
  2
298
 70
0
 62
7
  6
CONTINUOUS
  0
LAYER
  2
299
 70
0
 62
7
  6
CONTINUOUS
  0
LAYER
  2
300
 70
0
 62
7
  6
CONTINUOUS
  0
LAYER
  2
301
 70
0
 62
7
  6
CONTINUOUS
  0
LAYER
  2
302
 70
0
 62
7
  6
CONTINUOUS
  0
LAYER
  2
303
 70
0
 62
7
  6
CONTINUOUS
  0
LAYER
  2
304
 70
0
 62
7
  6
CONTINUOUS
  0
LAYER
  2
305
 70
0
 62
7
  6
CONTINUOUS
  0
LAYER
  2
306
 70
0
 62
7
  6
CONTINUOUS
  0
LAYER
  2
307
 70
0
 62
7
  6
CONTINUOUS
  0
LAYER
  2
308
 70
0
 62
7
  6
CONTINUOUS
  0
LAYER
  2
309
 70
0
 62
7
  6
CONTINUOUS
  0
LAYER
  2
310
 70
0
 62
7
  6
CONTINUOUS
  0
LAYER
  2
311
 70
0
 62
7
  6
CONTINUOUS
  0
LAYER
  2
312
 70
0
 62
7
  6
CONTINUOUS
  0
LAYER
  2
313
 70
0
 62
7
  6
CONTINUOUS
  0
LAYER
  2
314
 70
0
 62
7
  6
CONTINUOUS
  0
LAYER
  2
315
 70
0
 62
7
  6
CONTINUOUS
  0
LAYER
  2
316
 70
0
 62
7
  6
CONTINUOUS
  0
LAYER
  2
317
 70
0
 62
7
  6
CONTINUOUS
  0
LAYER
  2
318
 70
0
 62
7
  6
CONTINUOUS
  0
LAYER
  2
319
 70
0
 62
7
  6
CONTINUOUS
  0
LAYER
  2
320
 70
0
 62
7
  6
CONTINUOUS
  0
LAYER
  2
321
 70
0
 62
7
  6
CONTINUOUS
  0
LAYER
  2
322
 70
0
 62
7
  6
CONTINUOUS
  0
LAYER
  2
323
 70
0
 62
7
  6
CONTINUOUS
  0
LAYER
  2
324
 70
0
 62
7
  6
CONTINUOUS
  0
LAYER
  2
325
 70
0
 62
7
  6
CONTINUOUS
  0
LAYER
  2
326
 70
0
 62
7
  6
CONTINUOUS
  0
LAYER
  2
327
 70
0
 62
7
  6
CONTINUOUS
  0
LAYER
  2
328
 70
0
 62
7
  6
CONTINUOUS
  0
LAYER
  2
329
 70
0
 62
7
  6
CONTINUOUS
  0
LAYER
  2
330
 70
0
 62
7
  6
CONTINUOUS
  0
LAYER
  2
331
 70
0
 62
7
  6
CONTINUOUS
  0
LAYER
  2
332
 70
0
 62
7
  6
CONTINUOUS
  0
LAYER
  2
333
 70
0
 62
7
  6
CONTINUOUS
  0
LAYER
  2
334
 70
0
 62
7
  6
CONTINUOUS
  0
LAYER
  2
335
 70
0
 62
7
  6
CONTINUOUS
  0
LAYER
  2
336
 70
0
 62
7
  6
CONTINUOUS
  0
LAYER
  2
337
 70
0
 62
7
  6
CONTINUOUS
  0
LAYER
  2
338
 70
0
 62
7
  6
CONTINUOUS
  0
LAYER
  2
339
 70
0
 62
7
  6
CONTINUOUS
  0
LAYER
  2
340
 70
0
 62
7
  6
CONTINUOUS
  0
LAYER
  2
341
 70
0
 62
7
  6
CONTINUOUS
  0
LAYER
  2
342
 70
0
 62
7
  6
CONTINUOUS
  0
LAYER
  2
343
 70
0
 62
7
  6
CONTINUOUS
  0
LAYER
  2
344
 70
0
 62
7
  6
CONTINUOUS
  0
LAYER
  2
345
 70
0
 62
7
  6
CONTINUOUS
  0
LAYER
  2
346
 70
0
 62
7
  6
CONTINUOUS
  0
LAYER
  2
347
 70
0
 62
7
  6
CONTINUOUS
  0
LAYER
  2
348
 70
0
 62
7
  6
CONTINUOUS
  0
LAYER
  2
349
 70
0
 62
7
  6
CONTINUOUS
  0
LAYER
  2
350
 70
0
 62
7
  6
CONTINUOUS
  0
LAYER
  2
351
 70
0
 62
7
  6
CONTINUOUS
  0
LAYER
  2
352
 70
0
 62
7
  6
CONTINUOUS
  0
LAYER
  2
353
 70
0
 62
7
  6
CONTINUOUS
  0
LAYER
  2
354
 70
0
 62
7
  6
CONTINUOUS
  0
LAYER
  2
355
 70
0
 62
7
  6
CONTINUOUS
  0
LAYER
  2
356
 70
0
 62
7
  6
CONTINUOUS
  0
LAYER
  2
357
 70
0
 62
7
  6
CONTINUOUS
  0
LAYER
  2
358
 70
0
 62
7
  6
CONTINUOUS
  0
LAYER
  2
359
 70
0
 62
7
  6
CONTINUOUS
  0
LAYER
  2
360
 70
0
 62
7
  6
CONTINUOUS
  0
LAYER
  2
361
 70
0
 62
7
  6
CONTINUOUS
  0
LAYER
  2
362
 70
0
 62
7
  6
CONTINUOUS
  0
LAYER
  2
363
 70
0
 62
7
  6
CONTINUOUS
  0
LAYER
  2
364
 70
0
 62
7
  6
CONTINUOUS
  0
LAYER
  2
365
 70
0
 62
7
  6
CONTINUOUS
  0
LAYER
  2
366
 70
0
 62
7
  6
CONTINUOUS
  0
LAYER
  2
367
 70
0
 62
7
  6
CONTINUOUS
  0
LAYER
  2
368
 70
0
 62
7
  6
CONTINUOUS
  0
LAYER
  2
369
 70
0
 62
7
  6
CONTINUOUS
  0
LAYER
  2
370
 70
0
 62
7
  6
CONTINUOUS
  0
LAYER
  2
371
 70
0
 62
7
  6
CONTINUOUS
  0
LAYER
  2
372
 70
0
 62
7
  6
CONTINUOUS
  0
LAYER
  2
373
 70
0
 62
7
  6
CONTINUOUS
  0
LAYER
  2
374
 70
0
 62
7
  6
CONTINUOUS
  0
LAYER
  2
375
 70
0
 62
7
  6
CONTINUOUS
  0
LAYER
  2
376
 70
0
 62
7
  6
CONTINUOUS
  0
LAYER
  2
377
 70
0
 62
7
  6
CONTINUOUS
  0
LAYER
  2
378
 70
0
 62
7
  6
CONTINUOUS
  0
LAYER
  2
379
 70
0
 62
7
  6
CONTINUOUS
  0
LAYER
  2
380
 70
0
 62
7
  6
CONTINUOUS
  0
LAYER
  2
381
 70
0
 62
7
  6
CONTINUOUS
  0
LAYER
  2
382
 70
0
 62
7
  6
CONTINUOUS
  0
LAYER
  2
383
 70
0
 62
7
  6
CONTINUOUS
  0
LAYER
  2
384
 70
0
 62
7
  6
CONTINUOUS
  0
LAYER
  2
385
 70
0
 62
7
  6
CONTINUOUS
  0
LAYER
  2
386
 70
0
 62
7
  6
CONTINUOUS
  0
LAYER
  2
387
 70
0
 62
7
  6
CONTINUOUS
  0
LAYER
  2
388
 70
0
 62
7
  6
CONTINUOUS
  0
LAYER
  2
389
 70
0
 62
7
  6
CONTINUOUS
  0
LAYER
  2
390
 70
0
 62
7
  6
CONTINUOUS
  0
LAYER
  2
391
 70
0
 62
7
  6
CONTINUOUS
  0
LAYER
  2
392
 70
0
 62
7
  6
CONTINUOUS
  0
LAYER
  2
393
 70
0
 62
7
  6
CONTINUOUS
  0
LAYER
  2
394
 70
0
 62
7
  6
CONTINUOUS
  0
LAYER
  2
395
 70
0
 62
7
  6
CONTINUOUS
  0
LAYER
  2
396
 70
0
 62
7
  6
CONTINUOUS
  0
LAYER
  2
397
 70
0
 62
7
  6
CONTINUOUS
  0
LAYER
  2
398
 70
0
 62
7
  6
CONTINUOUS
  0
LAYER
  2
399
 70
0
 62
7
  6
CONTINUOUS
  0
LAYER
  2
400
 70
0
 62
7
  6
CONTINUOUS
  0
LAYER
  2
401
 70
0
 62
7
  6
CONTINUOUS
  0
LAYER
  2
402
 70
0
 62
7
  6
CONTINUOUS
  0
LAYER
  2
403
 70
0
 62
7
  6
CONTINUOUS
  0
LAYER
  2
404
 70
0
 62
7
  6
CONTINUOUS
  0
LAYER
  2
405
 70
0
 62
7
  6
CONTINUOUS
  0
LAYER
  2
406
 70
0
 62
7
  6
CONTINUOUS
  0
LAYER
  2
407
 70
0
 62
7
  6
CONTINUOUS
  0
LAYER
  2
408
 70
0
 62
7
  6
CONTINUOUS
  0
LAYER
  2
409
 70
0
 62
7
  6
CONTINUOUS
  0
LAYER
  2
410
 70
0
 62
7
  6
CONTINUOUS
  0
LAYER
  2
411
 70
0
 62
7
  6
CONTINUOUS
  0
LAYER
  2
412
 70
0
 62
7
  6
CONTINUOUS
  0
LAYER
  2
413
 70
0
 62
7
  6
CONTINUOUS
  0
LAYER
  2
414
 70
0
 62
7
  6
CONTINUOUS
  0
LAYER
  2
415
 70
0
 62
7
  6
CONTINUOUS
  0
LAYER
  2
416
 70
0
 62
7
  6
CONTINUOUS
  0
LAYER
  2
417
 70
0
 62
7
  6
CONTINUOUS
  0
LAYER
  2
418
 70
0
 62
7
  6
CONTINUOUS
  0
LAYER
  2
419
 70
0
 62
7
  6
CONTINUOUS
  0
LAYER
  2
420
 70
0
 62
7
  6
CONTINUOUS
  0
LAYER
  2
421
 70
0
 62
7
  6
CONTINUOUS
  0
LAYER
  2
422
 70
0
 62
7
  6
CONTINUOUS
  0
LAYER
  2
423
 70
0
 62
7
  6
CONTINUOUS
  0
LAYER
  2
424
 70
0
 62
7
  6
CONTINUOUS
  0
LAYER
  2
425
 70
0
 62
7
  6
CONTINUOUS
  0
LAYER
  2
426
 70
0
 62
7
  6
CONTINUOUS
  0
LAYER
  2
427
 70
0
 62
7
  6
CONTINUOUS
  0
LAYER
  2
428
 70
0
 62
7
  6
CONTINUOUS
  0
LAYER
  2
429
 70
0
 62
7
  6
CONTINUOUS
  0
LAYER
  2
430
 70
0
 62
7
  6
CONTINUOUS
  0
LAYER
  2
431
 70
0
 62
7
  6
CONTINUOUS
  0
LAYER
  2
432
 70
0
 62
7
  6
CONTINUOUS
  0
LAYER
  2
433
 70
0
 62
7
  6
CONTINUOUS
  0
LAYER
  2
434
 70
0
 62
7
  6
CONTINUOUS
  0
LAYER
  2
435
 70
0
 62
7
  6
CONTINUOUS
  0
LAYER
  2
436
 70
0
 62
7
  6
CONTINUOUS
  0
LAYER
  2
437
 70
0
 62
7
  6
CONTINUOUS
  0
LAYER
  2
438
 70
0
 62
7
  6
CONTINUOUS
  0
LAYER
  2
439
 70
0
 62
7
  6
CONTINUOUS
  0
LAYER
  2
440
 70
0
 62
7
  6
CONTINUOUS
  0
LAYER
  2
441
 70
0
 62
7
  6
CONTINUOUS
  0
LAYER
  2
442
 70
0
 62
7
  6
CONTINUOUS
  0
LAYER
  2
443
 70
0
 62
7
  6
CONTINUOUS
  0
LAYER
  2
444
 70
0
 62
7
  6
CONTINUOUS
  0
LAYER
  2
445
 70
0
 62
7
  6
CONTINUOUS
  0
LAYER
  2
446
 70
0
 62
7
  6
CONTINUOUS
  0
LAYER
  2
447
 70
0
 62
7
  6
CONTINUOUS
  0
LAYER
  2
448
 70
0
 62
7
  6
CONTINUOUS
  0
LAYER
  2
449
 70
0
 62
7
  6
CONTINUOUS
  0
LAYER
  2
450
 70
0
 62
7
  6
CONTINUOUS
  0
LAYER
  2
451
 70
0
 62
7
  6
CONTINUOUS
  0
LAYER
  2
452
 70
0
 62
7
  6
CONTINUOUS
  0
LAYER
  2
453
 70
0
 62
7
  6
CONTINUOUS
  0
LAYER
  2
454
 70
0
 62
7
  6
CONTINUOUS
  0
LAYER
  2
455
 70
0
 62
7
  6
CONTINUOUS
  0
LAYER
  2
456
 70
0
 62
7
  6
CONTINUOUS
  0
LAYER
  2
457
 70
0
 62
7
  6
CONTINUOUS
  0
LAYER
  2
458
 70
0
 62
7
  6
CONTINUOUS
  0
LAYER
  2
459
 70
0
 62
7
  6
CONTINUOUS
  0
LAYER
  2
460
 70
0
 62
7
  6
CONTINUOUS
  0
LAYER
  2
461
 70
0
 62
7
  6
CONTINUOUS
  0
LAYER
  2
462
 70
0
 62
7
  6
CONTINUOUS
  0
LAYER
  2
463
 70
0
 62
7
  6
CONTINUOUS
  0
LAYER
  2
464
 70
0
 62
7
  6
CONTINUOUS
  0
LAYER
  2
465
 70
0
 62
7
  6
CONTINUOUS
  0
LAYER
  2
466
 70
0
 62
7
  6
CONTINUOUS
  0
LAYER
  2
467
 70
0
 62
7
  6
CONTINUOUS
  0
LAYER
  2
468
 70
0
 62
7
  6
CONTINUOUS
  0
LAYER
  2
469
 70
0
 62
7
  6
CONTINUOUS
  0
LAYER
  2
470
 70
0
 62
7
  6
CONTINUOUS
  0
LAYER
  2
471
 70
0
 62
7
  6
CONTINUOUS
  0
LAYER
  2
472
 70
0
 62
7
  6
CONTINUOUS
  0
LAYER
  2
473
 70
0
 62
7
  6
CONTINUOUS
  0
LAYER
  2
474
 70
0
 62
7
  6
CONTINUOUS
  0
LAYER
  2
475
 70
0
 62
7
  6
CONTINUOUS
  0
LAYER
  2
476
 70
0
 62
7
  6
CONTINUOUS
  0
LAYER
  2
477
 70
0
 62
7
  6
CONTINUOUS
  0
LAYER
  2
478
 70
0
 62
7
  6
CONTINUOUS
  0
LAYER
  2
479
 70
0
 62
7
  6
CONTINUOUS
  0
LAYER
  2
480
 70
0
 62
7
  6
CONTINUOUS
  0
LAYER
  2
481
 70
0
 62
7
  6
CONTINUOUS
  0
LAYER
  2
482
 70
0
 62
7
  6
CONTINUOUS
  0
LAYER
  2
483
 70
0
 62
7
  6
CONTINUOUS
  0
LAYER
  2
484
 70
0
 62
7
  6
CONTINUOUS
  0
LAYER
  2
485
 70
0
 62
7
  6
CONTINUOUS
  0
LAYER
  2
486
 70
0
 62
7
  6
CONTINUOUS
  0
LAYER
  2
487
 70
0
 62
7
  6
CONTINUOUS
  0
LAYER
  2
488
 70
0
 62
7
  6
CONTINUOUS
  0
LAYER
  2
489
 70
0
 62
7
  6
CONTINUOUS
  0
LAYER
  2
490
 70
0
 62
7
  6
CONTINUOUS
  0
LAYER
  2
491
 70
0
 62
7
  6
CONTINUOUS
  0
LAYER
  2
492
 70
0
 62
7
  6
CONTINUOUS
  0
LAYER
  2
493
 70
0
 62
7
  6
CONTINUOUS
  0
LAYER
  2
494
 70
0
 62
7
  6
CONTINUOUS
  0
LAYER
  2
495
 70
0
 62
7
  6
CONTINUOUS
  0
LAYER
  2
496
 70
0
 62
7
  6
CONTINUOUS
  0
LAYER
  2
497
 70
0
 62
7
  6
CONTINUOUS
  0
LAYER
  2
498
 70
0
 62
7
  6
CONTINUOUS
  0
LAYER
  2
499
 70
0
 62
7
  6
CONTINUOUS
  0
LAYER
  2
500
 70
0
 62
7
  6
CONTINUOUS
  0
LAYER
  2
501
 70
0
 62
7
  6
CONTINUOUS
  0
LAYER
  2
502
 70
0
 62
7
  6
CONTINUOUS
  0
LAYER
  2
503
 70
0
 62
7
  6
CONTINUOUS
  0
LAYER
  2
504
 70
0
 62
7
  6
CONTINUOUS
  0
LAYER
  2
505
 70
0
 62
7
  6
CONTINUOUS
  0
LAYER
  2
506
 70
0
 62
7
  6
CONTINUOUS
  0
LAYER
  2
507
 70
0
 62
7
  6
CONTINUOUS
  0
LAYER
  2
508
 70
0
 62
7
  6
CONTINUOUS
  0
LAYER
  2
509
 70
0
 62
7
  6
CONTINUOUS
  0
LAYER
  2
510
 70
0
 62
7
  6
CONTINUOUS
  0
LAYER
  2
511
 70
0
 62
7
  6
CONTINUOUS
  0
LAYER
  2
512
 70
0
 62
7
  6
CONTINUOUS
  0
LAYER
  2
513
 70
0
 62
7
  6
CONTINUOUS
  0
LAYER
  2
514
 70
0
 62
7
  6
CONTINUOUS
  0
LAYER
  2
515
 70
0
 62
7
  6
CONTINUOUS
  0
LAYER
  2
516
 70
0
 62
7
  6
CONTINUOUS
  0
LAYER
  2
517
 70
0
 62
7
  6
CONTINUOUS
  0
LAYER
  2
518
 70
0
 62
7
  6
CONTINUOUS
  0
LAYER
  2
519
 70
0
 62
7
  6
CONTINUOUS
  0
LAYER
  2
520
 70
0
 62
7
  6
CONTINUOUS
  0
LAYER
  2
521
 70
0
 62
7
  6
CONTINUOUS
  0
LAYER
  2
522
 70
0
 62
7
  6
CONTINUOUS
  0
LAYER
  2
523
 70
0
 62
7
  6
CONTINUOUS
  0
LAYER
  2
524
 70
0
 62
7
  6
CONTINUOUS
  0
LAYER
  2
525
 70
0
 62
7
  6
CONTINUOUS
  0
LAYER
  2
526
 70
0
 62
7
  6
CONTINUOUS
  0
LAYER
  2
527
 70
0
 62
7
  6
CONTINUOUS
  0
LAYER
  2
528
 70
0
 62
7
  6
CONTINUOUS
  0
LAYER
  2
529
 70
0
 62
7
  6
CONTINUOUS
  0
LAYER
  2
530
 70
0
 62
7
  6
CONTINUOUS
  0
LAYER
  2
531
 70
0
 62
7
  6
CONTINUOUS
  0
LAYER
  2
532
 70
0
 62
7
  6
CONTINUOUS
  0
LAYER
  2
533
 70
0
 62
7
  6
CONTINUOUS
  0
LAYER
  2
534
 70
0
 62
7
  6
CONTINUOUS
  0
LAYER
  2
535
 70
0
 62
7
  6
CONTINUOUS
  0
LAYER
  2
536
 70
0
 62
7
  6
CONTINUOUS
  0
LAYER
  2
537
 70
0
 62
7
  6
CONTINUOUS
  0
LAYER
  2
538
 70
0
 62
7
  6
CONTINUOUS
  0
LAYER
  2
539
 70
0
 62
7
  6
CONTINUOUS
  0
LAYER
  2
540
 70
0
 62
7
  6
CONTINUOUS
  0
LAYER
  2
541
 70
0
 62
7
  6
CONTINUOUS
  0
LAYER
  2
542
 70
0
 62
7
  6
CONTINUOUS
  0
LAYER
  2
543
 70
0
 62
7
  6
CONTINUOUS
  0
LAYER
  2
544
 70
0
 62
7
  6
CONTINUOUS
  0
LAYER
  2
545
 70
0
 62
7
  6
CONTINUOUS
  0
LAYER
  2
546
 70
0
 62
7
  6
CONTINUOUS
  0
LAYER
  2
547
 70
0
 62
7
  6
CONTINUOUS
  0
LAYER
  2
548
 70
0
 62
7
  6
CONTINUOUS
  0
LAYER
  2
549
 70
0
 62
7
  6
CONTINUOUS
  0
LAYER
  2
550
 70
0
 62
7
  6
CONTINUOUS
  0
LAYER
  2
551
 70
0
 62
7
  6
CONTINUOUS
  0
LAYER
  2
552
 70
0
 62
7
  6
CONTINUOUS
  0
LAYER
  2
553
 70
0
 62
7
  6
CONTINUOUS
  0
LAYER
  2
554
 70
0
 62
7
  6
CONTINUOUS
  0
LAYER
  2
555
 70
0
 62
7
  6
CONTINUOUS
  0
LAYER
  2
556
 70
0
 62
7
  6
CONTINUOUS
  0
LAYER
  2
557
 70
0
 62
7
  6
CONTINUOUS
  0
LAYER
  2
558
 70
0
 62
7
  6
CONTINUOUS
  0
LAYER
  2
559
 70
0
 62
7
  6
CONTINUOUS
  0
LAYER
  2
560
 70
0
 62
7
  6
CONTINUOUS
  0
LAYER
  2
561
 70
0
 62
7
  6
CONTINUOUS
  0
LAYER
  2
562
 70
0
 62
7
  6
CONTINUOUS
  0
LAYER
  2
563
 70
0
 62
7
  6
CONTINUOUS
  0
LAYER
  2
564
 70
0
 62
7
  6
CONTINUOUS
  0
LAYER
  2
565
 70
0
 62
7
  6
CONTINUOUS
  0
LAYER
  2
566
 70
0
 62
7
  6
CONTINUOUS
  0
LAYER
  2
567
 70
0
 62
7
  6
CONTINUOUS
  0
LAYER
  2
568
 70
0
 62
7
  6
CONTINUOUS
  0
LAYER
  2
569
 70
0
 62
7
  6
CONTINUOUS
  0
LAYER
  2
570
 70
0
 62
7
  6
CONTINUOUS
  0
LAYER
  2
571
 70
0
 62
7
  6
CONTINUOUS
  0
LAYER
  2
572
 70
0
 62
7
  6
CONTINUOUS
  0
LAYER
  2
573
 70
0
 62
7
  6
CONTINUOUS
  0
LAYER
  2
574
 70
0
 62
7
  6
CONTINUOUS
  0
LAYER
  2
575
 70
0
 62
7
  6
CONTINUOUS
  0
LAYER
  2
576
 70
0
 62
7
  6
CONTINUOUS
  0
LAYER
  2
577
 70
0
 62
7
  6
CONTINUOUS
  0
LAYER
  2
578
 70
0
 62
7
  6
CONTINUOUS
  0
LAYER
  2
579
 70
0
 62
7
  6
CONTINUOUS
  0
LAYER
  2
580
 70
0
 62
7
  6
CONTINUOUS
  0
LAYER
  2
581
 70
0
 62
7
  6
CONTINUOUS
  0
LAYER
  2
582
 70
0
 62
7
  6
CONTINUOUS
  0
LAYER
  2
583
 70
0
 62
7
  6
CONTINUOUS
  0
LAYER
  2
584
 70
0
 62
7
  6
CONTINUOUS
  0
LAYER
  2
585
 70
0
 62
7
  6
CONTINUOUS
  0
LAYER
  2
586
 70
0
 62
7
  6
CONTINUOUS
  0
LAYER
  2
587
 70
0
 62
7
  6
CONTINUOUS
  0
LAYER
  2
588
 70
0
 62
7
  6
CONTINUOUS
  0
LAYER
  2
589
 70
0
 62
7
  6
CONTINUOUS
  0
LAYER
  2
590
 70
0
 62
7
  6
CONTINUOUS
  0
LAYER
  2
591
 70
0
 62
7
  6
CONTINUOUS
  0
LAYER
  2
592
 70
0
 62
7
  6
CONTINUOUS
  0
LAYER
  2
593
 70
0
 62
7
  6
CONTINUOUS
  0
LAYER
  2
594
 70
0
 62
7
  6
CONTINUOUS
  0
LAYER
  2
595
 70
0
 62
7
  6
CONTINUOUS
  0
LAYER
  2
596
 70
0
 62
7
  6
CONTINUOUS
  0
LAYER
  2
597
 70
0
 62
7
  6
CONTINUOUS
  0
LAYER
  2
598
 70
0
 62
7
  6
CONTINUOUS
  0
LAYER
  2
599
 70
0
 62
7
  6
CONTINUOUS
  0
LAYER
  2
600
 70
0
 62
7
  6
CONTINUOUS
  0
LAYER
  2
601
 70
0
 62
7
  6
CONTINUOUS
  0
LAYER
  2
602
 70
0
 62
7
  6
CONTINUOUS
  0
LAYER
  2
603
 70
0
 62
7
  6
CONTINUOUS
  0
LAYER
  2
604
 70
0
 62
7
  6
CONTINUOUS
  0
LAYER
  2
605
 70
0
 62
7
  6
CONTINUOUS
  0
LAYER
  2
606
 70
0
 62
7
  6
CONTINUOUS
  0
LAYER
  2
607
 70
0
 62
7
  6
CONTINUOUS
  0
LAYER
  2
608
 70
0
 62
7
  6
CONTINUOUS
  0
LAYER
  2
609
 70
0
 62
7
  6
CONTINUOUS
  0
LAYER
  2
610
 70
0
 62
7
  6
CONTINUOUS
  0
LAYER
  2
611
 70
0
 62
7
  6
CONTINUOUS
  0
LAYER
  2
612
 70
0
 62
7
  6
CONTINUOUS
  0
LAYER
  2
613
 70
0
 62
7
  6
CONTINUOUS
  0
LAYER
  2
614
 70
0
 62
7
  6
CONTINUOUS
  0
LAYER
  2
615
 70
0
 62
7
  6
CONTINUOUS
  0
LAYER
  2
616
 70
0
 62
7
  6
CONTINUOUS
  0
LAYER
  2
617
 70
0
 62
7
  6
CONTINUOUS
  0
LAYER
  2
618
 70
0
 62
7
  6
CONTINUOUS
  0
LAYER
  2
619
 70
0
 62
7
  6
CONTINUOUS
  0
LAYER
  2
620
 70
0
 62
7
  6
CONTINUOUS
  0
LAYER
  2
621
 70
0
 62
7
  6
CONTINUOUS
  0
LAYER
  2
622
 70
0
 62
7
  6
CONTINUOUS
  0
LAYER
  2
623
 70
0
 62
7
  6
CONTINUOUS
  0
LAYER
  2
624
 70
0
 62
7
  6
CONTINUOUS
  0
LAYER
  2
625
 70
0
 62
7
  6
CONTINUOUS
  0
LAYER
  2
626
 70
0
 62
7
  6
CONTINUOUS
  0
LAYER
  2
627
 70
0
 62
7
  6
CONTINUOUS
  0
LAYER
  2
628
 70
0
 62
7
  6
CONTINUOUS
  0
LAYER
  2
629
 70
0
 62
7
  6
CONTINUOUS
  0
LAYER
  2
630
 70
0
 62
7
  6
CONTINUOUS
  0
LAYER
  2
631
 70
0
 62
7
  6
CONTINUOUS
  0
LAYER
  2
632
 70
0
 62
7
  6
CONTINUOUS
  0
LAYER
  2
633
 70
0
 62
7
  6
CONTINUOUS
  0
LAYER
  2
634
 70
0
 62
7
  6
CONTINUOUS
  0
LAYER
  2
635
 70
0
 62
7
  6
CONTINUOUS
  0
LAYER
  2
636
 70
0
 62
7
  6
CONTINUOUS
  0
LAYER
  2
637
 70
0
 62
7
  6
CONTINUOUS
  0
LAYER
  2
638
 70
0
 62
7
  6
CONTINUOUS
  0
LAYER
  2
639
 70
0
 62
7
  6
CONTINUOUS
  0
LAYER
  2
640
 70
0
 62
7
  6
CONTINUOUS
  0
LAYER
  2
641
 70
0
 62
7
  6
CONTINUOUS
  0
LAYER
  2
642
 70
0
 62
7
  6
CONTINUOUS
  0
LAYER
  2
643
 70
0
 62
7
  6
CONTINUOUS
  0
LAYER
  2
644
 70
0
 62
7
  6
CONTINUOUS
  0
LAYER
  2
645
 70
0
 62
7
  6
CONTINUOUS
  0
LAYER
  2
646
 70
0
 62
7
  6
CONTINUOUS
  0
LAYER
  2
647
 70
0
 62
7
  6
CONTINUOUS
  0
LAYER
  2
648
 70
0
 62
7
  6
CONTINUOUS
  0
LAYER
  2
649
 70
0
 62
7
  6
CONTINUOUS
  0
LAYER
  2
650
 70
0
 62
7
  6
CONTINUOUS
  0
LAYER
  2
651
 70
0
 62
7
  6
CONTINUOUS
  0
LAYER
  2
652
 70
0
 62
7
  6
CONTINUOUS
  0
LAYER
  2
653
 70
0
 62
7
  6
CONTINUOUS
  0
LAYER
  2
654
 70
0
 62
7
  6
CONTINUOUS
  0
LAYER
  2
655
 70
0
 62
7
  6
CONTINUOUS
  0
LAYER
  2
656
 70
0
 62
7
  6
CONTINUOUS
  0
LAYER
  2
657
 70
0
 62
7
  6
CONTINUOUS
  0
LAYER
  2
658
 70
0
 62
7
  6
CONTINUOUS
  0
LAYER
  2
659
 70
0
 62
7
  6
CONTINUOUS
  0
LAYER
  2
660
 70
0
 62
7
  6
CONTINUOUS
  0
LAYER
  2
661
 70
0
 62
7
  6
CONTINUOUS
  0
LAYER
  2
662
 70
0
 62
7
  6
CONTINUOUS
  0
LAYER
  2
663
 70
0
 62
7
  6
CONTINUOUS
  0
LAYER
  2
664
 70
0
 62
7
  6
CONTINUOUS
  0
LAYER
  2
665
 70
0
 62
7
  6
CONTINUOUS
  0
LAYER
  2
666
 70
0
 62
7
  6
CONTINUOUS
  0
LAYER
  2
667
 70
0
 62
7
  6
CONTINUOUS
  0
LAYER
  2
668
 70
0
 62
7
  6
CONTINUOUS
  0
LAYER
  2
669
 70
0
 62
7
  6
CONTINUOUS
  0
LAYER
  2
670
 70
0
 62
7
  6
CONTINUOUS
  0
LAYER
  2
671
 70
0
 62
7
  6
CONTINUOUS
  0
LAYER
  2
672
 70
0
 62
7
  6
CONTINUOUS
  0
LAYER
  2
673
 70
0
 62
7
  6
CONTINUOUS
  0
LAYER
  2
674
 70
0
 62
7
  6
CONTINUOUS
  0
LAYER
  2
675
 70
0
 62
7
  6
CONTINUOUS
  0
LAYER
  2
676
 70
0
 62
7
  6
CONTINUOUS
  0
LAYER
  2
677
 70
0
 62
7
  6
CONTINUOUS
  0
LAYER
  2
678
 70
0
 62
7
  6
CONTINUOUS
  0
LAYER
  2
679
 70
0
 62
7
  6
CONTINUOUS
  0
LAYER
  2
680
 70
0
 62
7
  6
CONTINUOUS
  0
LAYER
  2
681
 70
0
 62
7
  6
CONTINUOUS
  0
LAYER
  2
682
 70
0
 62
7
  6
CONTINUOUS
  0
LAYER
  2
683
 70
0
 62
7
  6
CONTINUOUS
  0
LAYER
  2
684
 70
0
 62
7
  6
CONTINUOUS
  0
LAYER
  2
685
 70
0
 62
7
  6
CONTINUOUS
  0
LAYER
  2
686
 70
0
 62
7
  6
CONTINUOUS
  0
LAYER
  2
687
 70
0
 62
7
  6
CONTINUOUS
  0
LAYER
  2
688
 70
0
 62
7
  6
CONTINUOUS
  0
LAYER
  2
689
 70
0
 62
7
  6
CONTINUOUS
  0
LAYER
  2
690
 70
0
 62
7
  6
CONTINUOUS
  0
LAYER
  2
691
 70
0
 62
7
  6
CONTINUOUS
  0
LAYER
  2
692
 70
0
 62
7
  6
CONTINUOUS
  0
LAYER
  2
693
 70
0
 62
7
  6
CONTINUOUS
  0
LAYER
  2
694
 70
0
 62
7
  6
CONTINUOUS
  0
LAYER
  2
695
 70
0
 62
7
  6
CONTINUOUS
  0
LAYER
  2
696
 70
0
 62
7
  6
CONTINUOUS
  0
LAYER
  2
697
 70
0
 62
7
  6
CONTINUOUS
  0
LAYER
  2
698
 70
0
 62
7
  6
CONTINUOUS
  0
LAYER
  2
699
 70
0
 62
7
  6
CONTINUOUS
  0
LAYER
  2
700
 70
0
 62
7
  6
CONTINUOUS
  0
LAYER
  2
701
 70
0
 62
7
  6
CONTINUOUS
  0
LAYER
  2
702
 70
0
 62
7
  6
CONTINUOUS
  0
LAYER
  2
703
 70
0
 62
7
  6
CONTINUOUS
  0
LAYER
  2
704
 70
0
 62
7
  6
CONTINUOUS
  0
LAYER
  2
705
 70
0
 62
7
  6
CONTINUOUS
  0
LAYER
  2
706
 70
0
 62
7
  6
CONTINUOUS
  0
LAYER
  2
707
 70
0
 62
7
  6
CONTINUOUS
  0
LAYER
  2
708
 70
0
 62
7
  6
CONTINUOUS
  0
LAYER
  2
709
 70
0
 62
7
  6
CONTINUOUS
  0
LAYER
  2
710
 70
0
 62
7
  6
CONTINUOUS
  0
LAYER
  2
711
 70
0
 62
7
  6
CONTINUOUS
  0
LAYER
  2
712
 70
0
 62
7
  6
CONTINUOUS
  0
LAYER
  2
713
 70
0
 62
7
  6
CONTINUOUS
  0
LAYER
  2
714
 70
0
 62
7
  6
CONTINUOUS
  0
LAYER
  2
715
 70
0
 62
7
  6
CONTINUOUS
  0
LAYER
  2
716
 70
0
 62
7
  6
CONTINUOUS
  0
LAYER
  2
717
 70
0
 62
7
  6
CONTINUOUS
  0
LAYER
  2
718
 70
0
 62
7
  6
CONTINUOUS
  0
LAYER
  2
719
 70
0
 62
7
  6
CONTINUOUS
  0
LAYER
  2
720
 70
0
 62
7
  6
CONTINUOUS
  0
LAYER
  2
721
 70
0
 62
7
  6
CONTINUOUS
  0
LAYER
  2
722
 70
0
 62
7
  6
CONTINUOUS
  0
LAYER
  2
723
 70
0
 62
7
  6
CONTINUOUS
  0
LAYER
  2
724
 70
0
 62
7
  6
CONTINUOUS
  0
LAYER
  2
725
 70
0
 62
7
  6
CONTINUOUS
  0
LAYER
  2
726
 70
0
 62
7
  6
CONTINUOUS
  0
LAYER
  2
727
 70
0
 62
7
  6
CONTINUOUS
  0
LAYER
  2
728
 70
0
 62
7
  6
CONTINUOUS
  0
LAYER
  2
729
 70
0
 62
7
  6
CONTINUOUS
  0
LAYER
  2
730
 70
0
 62
7
  6
CONTINUOUS
  0
LAYER
  2
731
 70
0
 62
7
  6
CONTINUOUS
  0
LAYER
  2
732
 70
0
 62
7
  6
CONTINUOUS
  0
LAYER
  2
733
 70
0
 62
7
  6
CONTINUOUS
  0
LAYER
  2
734
 70
0
 62
7
  6
CONTINUOUS
  0
LAYER
  2
735
 70
0
 62
7
  6
CONTINUOUS
  0
LAYER
  2
736
 70
0
 62
7
  6
CONTINUOUS
  0
LAYER
  2
737
 70
0
 62
7
  6
CONTINUOUS
  0
LAYER
  2
738
 70
0
 62
7
  6
CONTINUOUS
  0
LAYER
  2
739
 70
0
 62
7
  6
CONTINUOUS
  0
LAYER
  2
740
 70
0
 62
7
  6
CONTINUOUS
  0
LAYER
  2
741
 70
0
 62
7
  6
CONTINUOUS
  0
LAYER
  2
742
 70
0
 62
7
  6
CONTINUOUS
  0
LAYER
  2
743
 70
0
 62
7
  6
CONTINUOUS
  0
LAYER
  2
744
 70
0
 62
7
  6
CONTINUOUS
  0
LAYER
  2
745
 70
0
 62
7
  6
CONTINUOUS
  0
LAYER
  2
746
 70
0
 62
7
  6
CONTINUOUS
  0
LAYER
  2
747
 70
0
 62
7
  6
CONTINUOUS
  0
LAYER
  2
748
 70
0
 62
7
  6
CONTINUOUS
  0
LAYER
  2
749
 70
0
 62
7
  6
CONTINUOUS
  0
LAYER
  2
750
 70
0
 62
7
  6
CONTINUOUS
  0
LAYER
  2
751
 70
0
 62
7
  6
CONTINUOUS
  0
LAYER
  2
752
 70
0
 62
7
  6
CONTINUOUS
  0
LAYER
  2
753
 70
0
 62
7
  6
CONTINUOUS
  0
LAYER
  2
754
 70
0
 62
7
  6
CONTINUOUS
  0
LAYER
  2
755
 70
0
 62
7
  6
CONTINUOUS
  0
LAYER
  2
756
 70
0
 62
7
  6
CONTINUOUS
  0
LAYER
  2
757
 70
0
 62
7
  6
CONTINUOUS
  0
LAYER
  2
758
 70
0
 62
7
  6
CONTINUOUS
  0
LAYER
  2
759
 70
0
 62
7
  6
CONTINUOUS
  0
LAYER
  2
760
 70
0
 62
7
  6
CONTINUOUS
  0
LAYER
  2
761
 70
0
 62
7
  6
CONTINUOUS
  0
LAYER
  2
762
 70
0
 62
7
  6
CONTINUOUS
  0
LAYER
  2
763
 70
0
 62
7
  6
CONTINUOUS
  0
LAYER
  2
764
 70
0
 62
7
  6
CONTINUOUS
  0
LAYER
  2
765
 70
0
 62
7
  6
CONTINUOUS
  0
LAYER
  2
766
 70
0
 62
7
  6
CONTINUOUS
  0
LAYER
  2
767
 70
0
 62
7
  6
CONTINUOUS
  0
LAYER
  2
768
 70
0
 62
7
  6
CONTINUOUS
  0
LAYER
  2
769
 70
0
 62
7
  6
CONTINUOUS
  0
LAYER
  2
770
 70
0
 62
7
  6
CONTINUOUS
  0
LAYER
  2
771
 70
0
 62
7
  6
CONTINUOUS
  0
LAYER
  2
772
 70
0
 62
7
  6
CONTINUOUS
  0
LAYER
  2
773
 70
0
 62
7
  6
CONTINUOUS
  0
LAYER
  2
774
 70
0
 62
7
  6
CONTINUOUS
  0
LAYER
  2
775
 70
0
 62
7
  6
CONTINUOUS
  0
LAYER
  2
776
 70
0
 62
7
  6
CONTINUOUS
  0
LAYER
  2
777
 70
0
 62
7
  6
CONTINUOUS
  0
LAYER
  2
778
 70
0
 62
7
  6
CONTINUOUS
  0
LAYER
  2
779
 70
0
 62
7
  6
CONTINUOUS
  0
LAYER
  2
780
 70
0
 62
7
  6
CONTINUOUS
  0
LAYER
  2
781
 70
0
 62
7
  6
CONTINUOUS
  0
LAYER
  2
782
 70
0
 62
7
  6
CONTINUOUS
  0
LAYER
  2
783
 70
0
 62
7
  6
CONTINUOUS
  0
LAYER
  2
784
 70
0
 62
7
  6
CONTINUOUS
  0
LAYER
  2
785
 70
0
 62
7
  6
CONTINUOUS
  0
LAYER
  2
786
 70
0
 62
7
  6
CONTINUOUS
  0
LAYER
  2
787
 70
0
 62
7
  6
CONTINUOUS
  0
LAYER
  2
788
 70
0
 62
7
  6
CONTINUOUS
  0
LAYER
  2
789
 70
0
 62
7
  6
CONTINUOUS
  0
LAYER
  2
790
 70
0
 62
7
  6
CONTINUOUS
  0
LAYER
  2
791
 70
0
 62
7
  6
CONTINUOUS
  0
LAYER
  2
792
 70
0
 62
7
  6
CONTINUOUS
  0
LAYER
  2
793
 70
0
 62
7
  6
CONTINUOUS
  0
LAYER
  2
794
 70
0
 62
7
  6
CONTINUOUS
  0
LAYER
  2
795
 70
0
 62
7
  6
CONTINUOUS
  0
LAYER
  2
796
 70
0
 62
7
  6
CONTINUOUS
  0
LAYER
  2
797
 70
0
 62
7
  6
CONTINUOUS
  0
LAYER
  2
798
 70
0
 62
7
  6
CONTINUOUS
  0
LAYER
  2
799
 70
0
 62
7
  6
CONTINUOUS
  0
LAYER
  2
800
 70
0
 62
7
  6
CONTINUOUS
  0
LAYER
  2
801
 70
0
 62
7
  6
CONTINUOUS
  0
LAYER
  2
802
 70
0
 62
7
  6
CONTINUOUS
  0
LAYER
  2
803
 70
0
 62
7
  6
CONTINUOUS
  0
LAYER
  2
804
 70
0
 62
7
  6
CONTINUOUS
  0
LAYER
  2
805
 70
0
 62
7
  6
CONTINUOUS
  0
LAYER
  2
806
 70
0
 62
7
  6
CONTINUOUS
  0
LAYER
  2
807
 70
0
 62
7
  6
CONTINUOUS
  0
LAYER
  2
808
 70
0
 62
7
  6
CONTINUOUS
  0
LAYER
  2
809
 70
0
 62
7
  6
CONTINUOUS
  0
LAYER
  2
810
 70
0
 62
7
  6
CONTINUOUS
  0
LAYER
  2
811
 70
0
 62
7
  6
CONTINUOUS
  0
LAYER
  2
812
 70
0
 62
7
  6
CONTINUOUS
  0
LAYER
  2
813
 70
0
 62
7
  6
CONTINUOUS
  0
LAYER
  2
814
 70
0
 62
7
  6
CONTINUOUS
  0
LAYER
  2
815
 70
0
 62
7
  6
CONTINUOUS
  0
LAYER
  2
816
 70
0
 62
7
  6
CONTINUOUS
  0
LAYER
  2
817
 70
0
 62
7
  6
CONTINUOUS
  0
LAYER
  2
818
 70
0
 62
7
  6
CONTINUOUS
  0
LAYER
  2
819
 70
0
 62
7
  6
CONTINUOUS
  0
LAYER
  2
820
 70
0
 62
7
  6
CONTINUOUS
  0
LAYER
  2
821
 70
0
 62
7
  6
CONTINUOUS
  0
LAYER
  2
822
 70
0
 62
7
  6
CONTINUOUS
  0
LAYER
  2
823
 70
0
 62
7
  6
CONTINUOUS
  0
LAYER
  2
824
 70
0
 62
7
  6
CONTINUOUS
  0
LAYER
  2
825
 70
0
 62
7
  6
CONTINUOUS
  0
LAYER
  2
826
 70
0
 62
7
  6
CONTINUOUS
  0
LAYER
  2
827
 70
0
 62
7
  6
CONTINUOUS
  0
LAYER
  2
828
 70
0
 62
7
  6
CONTINUOUS
  0
LAYER
  2
829
 70
0
 62
7
  6
CONTINUOUS
  0
LAYER
  2
830
 70
0
 62
7
  6
CONTINUOUS
  0
LAYER
  2
831
 70
0
 62
7
  6
CONTINUOUS
  0
LAYER
  2
832
 70
0
 62
7
  6
CONTINUOUS
  0
LAYER
  2
833
 70
0
 62
7
  6
CONTINUOUS
  0
LAYER
  2
834
 70
0
 62
7
  6
CONTINUOUS
  0
LAYER
  2
835
 70
0
 62
7
  6
CONTINUOUS
  0
LAYER
  2
836
 70
0
 62
7
  6
CONTINUOUS
  0
LAYER
  2
837
 70
0
 62
7
  6
CONTINUOUS
  0
LAYER
  2
838
 70
0
 62
7
  6
CONTINUOUS
  0
LAYER
  2
839
 70
0
 62
7
  6
CONTINUOUS
  0
LAYER
  2
840
 70
0
 62
7
  6
CONTINUOUS
  0
LAYER
  2
841
 70
0
 62
7
  6
CONTINUOUS
  0
LAYER
  2
842
 70
0
 62
7
  6
CONTINUOUS
  0
LAYER
  2
843
 70
0
 62
7
  6
CONTINUOUS
  0
LAYER
  2
844
 70
0
 62
7
  6
CONTINUOUS
  0
LAYER
  2
845
 70
0
 62
7
  6
CONTINUOUS
  0
LAYER
  2
846
 70
0
 62
7
  6
CONTINUOUS
  0
LAYER
  2
847
 70
0
 62
7
  6
CONTINUOUS
  0
LAYER
  2
848
 70
0
 62
7
  6
CONTINUOUS
  0
LAYER
  2
849
 70
0
 62
7
  6
CONTINUOUS
  0
LAYER
  2
850
 70
0
 62
7
  6
CONTINUOUS
  0
LAYER
  2
851
 70
0
 62
7
  6
CONTINUOUS
  0
LAYER
  2
852
 70
0
 62
7
  6
CONTINUOUS
  0
LAYER
  2
853
 70
0
 62
7
  6
CONTINUOUS
  0
LAYER
  2
854
 70
0
 62
7
  6
CONTINUOUS
  0
LAYER
  2
855
 70
0
 62
7
  6
CONTINUOUS
  0
LAYER
  2
856
 70
0
 62
7
  6
CONTINUOUS
  0
LAYER
  2
857
 70
0
 62
7
  6
CONTINUOUS
  0
LAYER
  2
858
 70
0
 62
7
  6
CONTINUOUS
  0
LAYER
  2
859
 70
0
 62
7
  6
CONTINUOUS
  0
LAYER
  2
860
 70
0
 62
7
  6
CONTINUOUS
  0
LAYER
  2
861
 70
0
 62
7
  6
CONTINUOUS
  0
LAYER
  2
862
 70
0
 62
7
  6
CONTINUOUS
  0
LAYER
  2
863
 70
0
 62
7
  6
CONTINUOUS
  0
LAYER
  2
864
 70
0
 62
7
  6
CONTINUOUS
  0
LAYER
  2
865
 70
0
 62
7
  6
CONTINUOUS
  0
LAYER
  2
866
 70
0
 62
7
  6
CONTINUOUS
  0
LAYER
  2
867
 70
0
 62
7
  6
CONTINUOUS
  0
LAYER
  2
868
 70
0
 62
7
  6
CONTINUOUS
  0
LAYER
  2
869
 70
0
 62
7
  6
CONTINUOUS
  0
LAYER
  2
870
 70
0
 62
7
  6
CONTINUOUS
  0
LAYER
  2
871
 70
0
 62
7
  6
CONTINUOUS
  0
LAYER
  2
872
 70
0
 62
7
  6
CONTINUOUS
  0
LAYER
  2
873
 70
0
 62
7
  6
CONTINUOUS
  0
LAYER
  2
874
 70
0
 62
7
  6
CONTINUOUS
  0
LAYER
  2
875
 70
0
 62
7
  6
CONTINUOUS
  0
LAYER
  2
876
 70
0
 62
7
  6
CONTINUOUS
  0
LAYER
  2
877
 70
0
 62
7
  6
CONTINUOUS
  0
LAYER
  2
878
 70
0
 62
7
  6
CONTINUOUS
  0
LAYER
  2
879
 70
0
 62
7
  6
CONTINUOUS
  0
LAYER
  2
880
 70
0
 62
7
  6
CONTINUOUS
  0
LAYER
  2
881
 70
0
 62
7
  6
CONTINUOUS
  0
LAYER
  2
882
 70
0
 62
7
  6
CONTINUOUS
  0
LAYER
  2
883
 70
0
 62
7
  6
CONTINUOUS
  0
LAYER
  2
884
 70
0
 62
7
  6
CONTINUOUS
  0
LAYER
  2
885
 70
0
 62
7
  6
CONTINUOUS
  0
LAYER
  2
886
 70
0
 62
7
  6
CONTINUOUS
  0
LAYER
  2
887
 70
0
 62
7
  6
CONTINUOUS
  0
LAYER
  2
888
 70
0
 62
7
  6
CONTINUOUS
  0
LAYER
  2
889
 70
0
 62
7
  6
CONTINUOUS
  0
LAYER
  2
890
 70
0
 62
7
  6
CONTINUOUS
  0
LAYER
  2
891
 70
0
 62
7
  6
CONTINUOUS
  0
LAYER
  2
892
 70
0
 62
7
  6
CONTINUOUS
  0
LAYER
  2
893
 70
0
 62
7
  6
CONTINUOUS
  0
LAYER
  2
894
 70
0
 62
7
  6
CONTINUOUS
  0
LAYER
  2
895
 70
0
 62
7
  6
CONTINUOUS
  0
LAYER
  2
896
 70
0
 62
7
  6
CONTINUOUS
  0
LAYER
  2
897
 70
0
 62
7
  6
CONTINUOUS
  0
LAYER
  2
898
 70
0
 62
7
  6
CONTINUOUS
  0
LAYER
  2
899
 70
0
 62
7
  6
CONTINUOUS
  0
LAYER
  2
900
 70
0
 62
7
  6
CONTINUOUS
  0
LAYER
  2
901
 70
0
 62
7
  6
CONTINUOUS
  0
LAYER
  2
902
 70
0
 62
7
  6
CONTINUOUS
  0
LAYER
  2
903
 70
0
 62
7
  6
CONTINUOUS
  0
LAYER
  2
904
 70
0
 62
7
  6
CONTINUOUS
  0
LAYER
  2
905
 70
0
 62
7
  6
CONTINUOUS
  0
LAYER
  2
906
 70
0
 62
7
  6
CONTINUOUS
  0
LAYER
  2
907
 70
0
 62
7
  6
CONTINUOUS
  0
LAYER
  2
908
 70
0
 62
7
  6
CONTINUOUS
  0
LAYER
  2
909
 70
0
 62
7
  6
CONTINUOUS
  0
LAYER
  2
910
 70
0
 62
7
  6
CONTINUOUS
  0
LAYER
  2
911
 70
0
 62
7
  6
CONTINUOUS
  0
LAYER
  2
912
 70
0
 62
7
  6
CONTINUOUS
  0
LAYER
  2
913
 70
0
 62
7
  6
CONTINUOUS
  0
LAYER
  2
914
 70
0
 62
7
  6
CONTINUOUS
  0
LAYER
  2
915
 70
0
 62
7
  6
CONTINUOUS
  0
LAYER
  2
916
 70
0
 62
7
  6
CONTINUOUS
  0
LAYER
  2
917
 70
0
 62
7
  6
CONTINUOUS
  0
LAYER
  2
918
 70
0
 62
7
  6
CONTINUOUS
  0
LAYER
  2
919
 70
0
 62
7
  6
CONTINUOUS
  0
LAYER
  2
920
 70
0
 62
7
  6
CONTINUOUS
  0
LAYER
  2
921
 70
0
 62
7
  6
CONTINUOUS
  0
LAYER
  2
922
 70
0
 62
7
  6
CONTINUOUS
  0
LAYER
  2
923
 70
0
 62
7
  6
CONTINUOUS
  0
LAYER
  2
924
 70
0
 62
7
  6
CONTINUOUS
  0
LAYER
  2
925
 70
0
 62
7
  6
CONTINUOUS
  0
LAYER
  2
926
 70
0
 62
7
  6
CONTINUOUS
  0
LAYER
  2
927
 70
0
 62
7
  6
CONTINUOUS
  0
LAYER
  2
928
 70
0
 62
7
  6
CONTINUOUS
  0
LAYER
  2
929
 70
0
 62
7
  6
CONTINUOUS
  0
LAYER
  2
930
 70
0
 62
7
  6
CONTINUOUS
  0
LAYER
  2
931
 70
0
 62
7
  6
CONTINUOUS
  0
LAYER
  2
932
 70
0
 62
7
  6
CONTINUOUS
  0
LAYER
  2
933
 70
0
 62
7
  6
CONTINUOUS
  0
LAYER
  2
934
 70
0
 62
7
  6
CONTINUOUS
  0
LAYER
  2
935
 70
0
 62
7
  6
CONTINUOUS
  0
LAYER
  2
936
 70
0
 62
7
  6
CONTINUOUS
  0
LAYER
  2
937
 70
0
 62
7
  6
CONTINUOUS
  0
LAYER
  2
938
 70
0
 62
7
  6
CONTINUOUS
  0
LAYER
  2
939
 70
0
 62
7
  6
CONTINUOUS
  0
LAYER
  2
940
 70
0
 62
7
  6
CONTINUOUS
  0
LAYER
  2
941
 70
0
 62
7
  6
CONTINUOUS
  0
LAYER
  2
942
 70
0
 62
7
  6
CONTINUOUS
  0
LAYER
  2
943
 70
0
 62
7
  6
CONTINUOUS
  0
LAYER
  2
944
 70
0
 62
7
  6
CONTINUOUS
  0
LAYER
  2
945
 70
0
 62
7
  6
CONTINUOUS
  0
LAYER
  2
946
 70
0
 62
7
  6
CONTINUOUS
  0
LAYER
  2
947
 70
0
 62
7
  6
CONTINUOUS
  0
LAYER
  2
948
 70
0
 62
7
  6
CONTINUOUS
  0
LAYER
  2
949
 70
0
 62
7
  6
CONTINUOUS
  0
LAYER
  2
950
 70
0
 62
7
  6
CONTINUOUS
  0
LAYER
  2
951
 70
0
 62
7
  6
CONTINUOUS
  0
LAYER
  2
952
 70
0
 62
7
  6
CONTINUOUS
  0
LAYER
  2
953
 70
0
 62
7
  6
CONTINUOUS
  0
LAYER
  2
954
 70
0
 62
7
  6
CONTINUOUS
  0
LAYER
  2
955
 70
0
 62
7
  6
CONTINUOUS
  0
LAYER
  2
956
 70
0
 62
7
  6
CONTINUOUS
  0
LAYER
  2
957
 70
0
 62
7
  6
CONTINUOUS
  0
LAYER
  2
958
 70
0
 62
7
  6
CONTINUOUS
  0
LAYER
  2
959
 70
0
 62
7
  6
CONTINUOUS
  0
LAYER
  2
960
 70
0
 62
7
  6
CONTINUOUS
  0
LAYER
  2
961
 70
0
 62
7
  6
CONTINUOUS
  0
LAYER
  2
962
 70
0
 62
7
  6
CONTINUOUS
  0
LAYER
  2
963
 70
0
 62
7
  6
CONTINUOUS
  0
LAYER
  2
964
 70
0
 62
7
  6
CONTINUOUS
  0
LAYER
  2
965
 70
0
 62
7
  6
CONTINUOUS
  0
LAYER
  2
966
 70
0
 62
7
  6
CONTINUOUS
  0
LAYER
  2
967
 70
0
 62
7
  6
CONTINUOUS
  0
LAYER
  2
968
 70
0
 62
7
  6
CONTINUOUS
  0
LAYER
  2
969
 70
0
 62
7
  6
CONTINUOUS
  0
LAYER
  2
970
 70
0
 62
7
  6
CONTINUOUS
  0
LAYER
  2
971
 70
0
 62
7
  6
CONTINUOUS
  0
LAYER
  2
972
 70
0
 62
7
  6
CONTINUOUS
  0
LAYER
  2
973
 70
0
 62
7
  6
CONTINUOUS
  0
LAYER
  2
974
 70
0
 62
7
  6
CONTINUOUS
  0
LAYER
  2
975
 70
0
 62
7
  6
CONTINUOUS
  0
LAYER
  2
976
 70
0
 62
7
  6
CONTINUOUS
  0
LAYER
  2
977
 70
0
 62
7
  6
CONTINUOUS
  0
LAYER
  2
978
 70
0
 62
7
  6
CONTINUOUS
  0
LAYER
  2
979
 70
0
 62
7
  6
CONTINUOUS
  0
LAYER
  2
980
 70
0
 62
7
  6
CONTINUOUS
  0
LAYER
  2
981
 70
0
 62
7
  6
CONTINUOUS
  0
LAYER
  2
982
 70
0
 62
7
  6
CONTINUOUS
  0
LAYER
  2
983
 70
0
 62
7
  6
CONTINUOUS
  0
LAYER
  2
984
 70
0
 62
7
  6
CONTINUOUS
  0
LAYER
  2
985
 70
0
 62
7
  6
CONTINUOUS
  0
LAYER
  2
986
 70
0
 62
7
  6
CONTINUOUS
  0
LAYER
  2
987
 70
0
 62
7
  6
CONTINUOUS
  0
LAYER
  2
988
 70
0
 62
7
  6
CONTINUOUS
  0
LAYER
  2
989
 70
0
 62
7
  6
CONTINUOUS
  0
LAYER
  2
990
 70
0
 62
7
  6
CONTINUOUS
  0
LAYER
  2
991
 70
0
 62
7
  6
CONTINUOUS
  0
LAYER
  2
992
 70
0
 62
7
  6
CONTINUOUS
  0
LAYER
  2
993
 70
0
 62
7
  6
CONTINUOUS
  0
LAYER
  2
994
 70
0
 62
7
  6
CONTINUOUS
  0
LAYER
  2
995
 70
0
 62
7
  6
CONTINUOUS
  0
LAYER
  2
996
 70
0
 62
7
  6
CONTINUOUS
  0
LAYER
  2
997
 70
0
 62
7
  6
CONTINUOUS
  0
LAYER
  2
998
 70
0
 62
7
  6
CONTINUOUS
  0
LAYER
  2
999
 70
0
 62
7
  6
CONTINUOUS
  0
ENDTAB
  0
ENDSEC
  0
SECTION
  2
BLOCKS
  0
ENDSEC
  0
SECTION
  2
ENTITIES
  0
LINE
  8
1
 62
3
  6
CONTINUOUS
 10
439.32
 20
578.34
 30
0
 11
471.95
 21
578.34
 31
0
  0
LINE
  8
1
 62
3
  6
CONTINUOUS
 10
472.95
 20
577.34
 30
0
 11
472.95
 21
324.7
 31
0
  0
LINE
  8
1
 62
3
  6
CONTINUOUS
 10
472.95
 20
324.7
 30
0
 11
474.45
 21
324.7
 31
0
  0
LINE
  8
1
 62
3
  6
CONTINUOUS
 10
474.45
 20
324.7
 30
0
 11
474.45
 21
577.34
 31
0
  0
LINE
  8
1
 62
3
  6
CONTINUOUS
 10
475.45
 20
578.34
 30
0
 11
508.07
 21
578.34
 31
0
  0
LINE
  8
1
 62
3
  6
CONTINUOUS
 10
508.07
 20
578.34
 30
0
 11
508.07
 21
574.59
 31
0
  0
LINE
  8
1
 62
3
  6
CONTINUOUS
 10
508.07
 20
574.59
 30
0
 11
514.319
 21
574.59
 31
0
  0
LINE
  8
1
 62
3
  6
CONTINUOUS
 10
514.319
 20
574.59
 30
0
 11
511.91
 21
548.54
 31
0
  0
LINE
  8
1
 62
3
  6
CONTINUOUS
 10
435.48
 20
548.54
 30
0
 11
433.07
 21
574.59
 31
0
  0
LINE
  8
1
 62
3
  6
CONTINUOUS
 10
433.07
 20
574.59
 30
0
 11
439.32
 21
574.59
 31
0
  0
LINE
  8
1
 62
3
  6
CONTINUOUS
 10
439.32
 20
574.59
 30
0
 11
439.32
 21
578.34
 31
0
  0
LINE
  8
1
 62
3
  6
CONTINUOUS
 10
181.32
 20
4.22
 30
0
 11
250.07
 21
4.22
 31
0
  0
LINE
  8
1
 62
3
  6
CONTINUOUS
 10
250.07
 20
4.22
 30
0
 11
250.07
 21
7.97
 31
0
  0
LINE
  8
1
 62
3
  6
CONTINUOUS
 10
250.07
 20
7.97
 30
0
 11
256.32
 21
7.97
 31
0
  0
LINE
  8
1
 62
3
  6
CONTINUOUS
 10
256.32
 20
7.97
 30
0
 11
253.903
 21
34.02
 31
0
  0
LINE
  8
1
 62
3
  6
CONTINUOUS
 10
216.44
 20
507.831
 30
0
 11
216.44
 21
255.37
 31
0
  0
LINE
  8
1
 62
3
  6
CONTINUOUS
 10
216.44
 20
255.37
 30
0
 11
214.94
 21
255.37
 31
0
  0
LINE
  8
1
 62
3
  6
CONTINUOUS
 10
214.94
 20
255.37
 30
0
 11
214.935
 21
507.836
 31
0
  0
LINE
  8
1
 62
3
  6
CONTINUOUS
 10
177.48
 20
34.02
 30
0
 11
175.068
 21
7.97
 31
0
  0
LINE
  8
1
 62
3
  6
CONTINUOUS
 10
175.068
 20
7.97
 30
0
 11
181.32
 21
7.97
 31
0
  0
LINE
  8
1
 62
3
  6
CONTINUOUS
 10
181.32
 20
7.97
 30
0
 11
181.32
 21
4.22
 31
0
  0
LINE
  8
1
 62
3
  6
CONTINUOUS
 10
185.52
 20
429.18
 30
0
 11
187.4
 21
425.93
 31
0
  0
LINE
  8
1
 62
3
  6
CONTINUOUS
 10
187.4
 20
425.73
 30
0
 11
185.52
 21
422.48
 31
0
  0
LINE
  8
1
 62
3
  6
CONTINUOUS
 10
185.69
 20
422.18
 30
0
 11
189.45
 21
422.19
 31
0
  0
LINE
  8
1
 62
3
  6
CONTINUOUS
 10
189.62
 20
422.09
 30
0
 11
191.49
 21
418.83
 31
0
  0
LINE
  8
1
 62
3
  6
CONTINUOUS
 10
191.84
 20
418.83
 30
0
 11
193.701
 21
422.092
 31
0
  0
LINE
  8
1
 62
3
  6
CONTINUOUS
 10
193.875
 20
422.193
 30
0
 11
197.64
 21
422.18
 31
0
  0
LINE
  8
1
 62
3
  6
CONTINUOUS
 10
197.81
 20
422.48
 30
0
 11
195.92
 21
425.73
 31
0
  0
LINE
  8
1
 62
3
  6
CONTINUOUS
 10
195.92
 20
425.93
 30
0
 11
197.81
 21
429.18
 31
0
  0
LINE
  8
1
 62
3
  6
CONTINUOUS
 10
197.64
 20
429.48
 30
0
 11
193.88
 21
429.47
 31
0
  0
LINE
  8
1
 62
3
  6
CONTINUOUS
 10
193.7
 20
429.57
 30
0
 11
191.84
 21
432.83
 31
0
  0
LINE
  8
1
 62
3
  6
CONTINUOUS
 10
191.49
 20
432.83
 30
0
 11
189.62
 21
429.57
 31
0
  0
LINE
  8
1
 62
3
  6
CONTINUOUS
 10
189.45
 20
429.47
 30
0
 11
185.69
 21
429.48
 31
0
  0
LINE
  8
1
 62
3
  6
CONTINUOUS
 10
266.195
 20
383.867
 30
0
 11
264.31
 21
387.12
 31
0
  0
LINE
  8
1
 62
3
  6
CONTINUOUS
 10
264.31
 20
387.32
 30
0
 11
266.2
 21
390.57
 31
0
  0
LINE
  8
1
 62
3
  6
CONTINUOUS
 10
266.02
 20
390.87
 30
0
 11
262.27
 21
390.86
 31
0
  0
LINE
  8
1
 62
3
  6
CONTINUOUS
 10
262.09
 20
390.96
 30
0
 11
260.22
 21
394.22
 31
0
  0
LINE
  8
1
 62
3
  6
CONTINUOUS
 10
259.88
 20
394.22
 30
0
 11
258.01
 21
390.96
 31
0
  0
LINE
  8
1
 62
3
  6
CONTINUOUS
 10
257.83
 20
390.86
 30
0
 11
254.08
 21
390.87
 31
0
  0
LINE
  8
1
 62
3
  6
CONTINUOUS
 10
253.9
 20
390.57
 30
0
 11
255.79
 21
387.32
 31
0
  0
LINE
  8
1
 62
3
  6
CONTINUOUS
 10
255.79
 20
387.12
 30
0
 11
253.9
 21
383.87
 31
0
  0
LINE
  8
1
 62
3
  6
CONTINUOUS
 10
254.08
 20
383.57
 30
0
 11
257.83
 21
383.58
 31
0
  0
LINE
  8
1
 62
3
  6
CONTINUOUS
 10
258.01
 20
383.48
 30
0
 11
259.88
 21
380.22
 31
0
  0
LINE
  8
1
 62
3
  6
CONTINUOUS
 10
260.22
 20
380.22
 30
0
 11
262.091
 21
383.482
 31
0
  0
LINE
  8
1
 62
3
  6
CONTINUOUS
 10
262.265
 20
383.583
 30
0
 11
266.02
 21
383.57
 31
0
  0
LINE
  8
1
 62
3
  6
CONTINUOUS
 10
264.59
 20
316.31
 30
0
 11
262.7
 21
319.56
 31
0
  0
LINE
  8
1
 62
3
  6
CONTINUOUS
 10
262.7
 20
319.76
 30
0
 11
264.59
 21
323.01
 31
0
  0
LINE
  8
1
 62
3
  6
CONTINUOUS
 10
264.41
 20
323.31
 30
0
 11
260.66
 21
323.3
 31
0
  0
LINE
  8
1
 62
3
  6
CONTINUOUS
 10
260.485
 20
323.403
 30
0
 11
258.61
 21
326.66
 31
0
  0
LINE
  8
1
 62
3
  6
CONTINUOUS
 10
258.27
 20
326.66
 30
0
 11
256.4
 21
323.4
 31
0
  0
LINE
  8
1
 62
3
  6
CONTINUOUS
 10
256.22
 20
323.3
 30
0
 11
252.47
 21
323.31
 31
0
  0
LINE
  8
1
 62
3
  6
CONTINUOUS
 10
252.29
 20
323.01
 30
0
 11
254.18
 21
319.76
 31
0
  0
LINE
  8
1
 62
3
  6
CONTINUOUS
 10
254.18
 20
319.56
 30
0
 11
252.29
 21
316.31
 31
0
  0
LINE
  8
1
 62
3
  6
CONTINUOUS
 10
252.47
 20
316.01
 30
0
 11
256.22
 21
316.02
 31
0
  0
LINE
  8
1
 62
3
  6
CONTINUOUS
 10
256.4
 20
315.92
 30
0
 11
258.27
 21
312.66
 31
0
  0
LINE
  8
1
 62
3
  6
CONTINUOUS
 10
258.61
 20
312.66
 30
0
 11
260.481
 21
315.922
 31
0
  0
LINE
  8
1
 62
3
  6
CONTINUOUS
 10
260.655
 20
316.023
 30
0
 11
264.41
 21
316.01
 31
0
  0
LINE
  8
1
 62
3
  6
CONTINUOUS
 10
175.371
 20
305.566
 30
0
 11
179.13
 21
305.56
 31
0
  0
LINE
  8
1
 62
3
  6
CONTINUOUS
 10
179.3
 20
305.86
 30
0
 11
177.42
 21
309.11
 31
0
  0
LINE
  8
1
 62
3
  6
CONTINUOUS
 10
177.42
 20
309.31
 30
0
 11
179.3
 21
312.55
 31
0
  0
LINE
  8
1
 62
3
  6
CONTINUOUS
 10
179.13
 20
312.85
 30
0
 11
175.37
 21
312.84
 31
0
  0
LINE
  8
1
 62
3
  6
CONTINUOUS
 10
175.2
 20
312.94
 30
0
 11
173.33
 21
316.2
 31
0
  0
LINE
  8
1
 62
3
  6
CONTINUOUS
 10
172.98
 20
316.2
 30
0
 11
171.11
 21
312.94
 31
0
  0
LINE
  8
1
 62
3
  6
CONTINUOUS
 10
170.94
 20
312.84
 30
0
 11
167.18
 21
312.85
 31
0
  0
LINE
  8
1
 62
3
  6
CONTINUOUS
 10
167.01
 20
312.55
 30
0
 11
168.9
 21
309.31
 31
0
  0
LINE
  8
1
 62
3
  6
CONTINUOUS
 10
168.9
 20
309.11
 30
0
 11
167.01
 21
305.86
 31
0
  0
LINE
  8
1
 62
3
  6
CONTINUOUS
 10
167.18
 20
305.56
 30
0
 11
170.94
 21
305.57
 31
0
  0
LINE
  8
1
 62
3
  6
CONTINUOUS
 10
171.112
 20
305.471
 30
0
 11
172.98
 21
302.21
 31
0
  0
LINE
  8
1
 62
3
  6
CONTINUOUS
 10
173.33
 20
302.21
 30
0
 11
175.198
 21
305.466
 31
0
  0
LINE
  8
1
 62
3
  6
CONTINUOUS
 10
137.13
 20
240.28
 30
0
 11
138.987
 21
243.535
 31
0
  0
LINE
  8
1
 62
3
  6
CONTINUOUS
 10
139.162
 20
243.636
 30
0
 11
142.93
 21
243.63
 31
0
  0
LINE
  8
1
 62
3
  6
CONTINUOUS
 10
143.1
 20
243.93
 30
0
 11
141.21
 21
247.17
 31
0
  0
LINE
  8
1
 62
3
  6
CONTINUOUS
 10
141.214
 20
247.377
 30
0
 11
143.1
 21
250.62
 31
0
  0
LINE
  8
1
 62
3
  6
CONTINUOUS
 10
142.93
 20
250.92
 30
0
 11
139.17
 21
250.91
 31
0
  0
LINE
  8
1
 62
3
  6
CONTINUOUS
 10
138.99
 20
251.01
 30
0
 11
137.13
 21
254.27
 31
0
  0
LINE
  8
1
 62
3
  6
CONTINUOUS
 10
136.78
 20
254.27
 30
0
 11
134.91
 21
251.01
 31
0
  0
LINE
  8
1
 62
3
  6
CONTINUOUS
 10
134.74
 20
250.91
 30
0
 11
130.98
 21
250.92
 31
0
  0
LINE
  8
1
 62
3
  6
CONTINUOUS
 10
130.81
 20
250.62
 30
0
 11
132.69
 21
247.38
 31
0
  0
LINE
  8
1
 62
3
  6
CONTINUOUS
 10
132.69
 20
247.17
 30
0
 11
130.81
 21
243.93
 31
0
  0
LINE
  8
1
 62
3
  6
CONTINUOUS
 10
130.98
 20
243.63
 30
0
 11
134.74
 21
243.64
 31
0
  0
LINE
  8
1
 62
3
  6
CONTINUOUS
 10
134.91
 20
243.54
 30
0
 11
136.78
 21
240.28
 31
0
  0
LINE
  8
1
 62
3
  6
CONTINUOUS
 10
280.8
 20
225.68
 30
0
 11
289.28
 21
240.46
 31
0
  0
LINE
  8
1
 62
3
  6
CONTINUOUS
 10
290.15
 20
240.97
 30
0
 11
308.93
 21
240.91
 31
0
  0
LINE
  8
1
 62
3
  6
CONTINUOUS
 10
309.8
 20
242.41
 30
0
 11
300.36
 21
258.65
 31
0
  0
LINE
  8
1
 62
3
  6
CONTINUOUS
 10
300.36
 20
259.66
 30
0
 11
309.8
 21
275.9
 31
0
  0
LINE
  8
1
 62
3
  6
CONTINUOUS
 10
308.93
 20
277.4
 30
0
 11
290.15
 21
277.34
 31
0
  0
LINE
  8
1
 62
3
  6
CONTINUOUS
 10
289.28
 20
277.85
 30
0
 11
279.93
 21
294.14
 31
0
  0
LINE
  8
1
 62
3
  6
CONTINUOUS
 10
278.2
 20
294.14
 30
0
 11
268.85
 21
277.85
 31
0
  0
LINE
  8
1
 62
3
  6
CONTINUOUS
 10
267.98
 20
277.34
 30
0
 11
249.2
 21
277.4
 31
0
  0
LINE
  8
1
 62
3
  6
CONTINUOUS
 10
248.33
 20
275.9
 30
0
 11
257.77
 21
259.66
 31
0
  0
LINE
  8
1
 62
3
  6
CONTINUOUS
 10
257.77
 20
258.65
 30
0
 11
248.33
 21
242.41
 31
0
  0
LINE
  8
1
 62
3
  6
CONTINUOUS
 10
249.2
 20
240.91
 30
0
 11
267.98
 21
240.97
 31
0
  0
LINE
  8
1
 62
3
  6
CONTINUOUS
 10
268.85
 20
240.46
 30
0
 11
277.33
 21
225.68
 31
0
  0
LINE
  8
1
 62
3
  6
CONTINUOUS
 10
327.82
 20
174.5
 30
0
 11
324.07
 21
174.52
 31
0
  0
LINE
  8
1
 62
3
  6
CONTINUOUS
 10
323.9
 20
174.22
 30
0
 11
325.79
 21
170.97
 31
0
  0
LINE
  8
1
 62
3
  6
CONTINUOUS
 10
325.79
 20
170.77
 30
0
 11
323.9
 21
167.52
 31
0
  0
LINE
  8
1
 62
3
  6
CONTINUOUS
 10
324.07
 20
167.22
 30
0
 11
327.83
 21
167.23
 31
0
  0
LINE
  8
1
 62
3
  6
CONTINUOUS
 10
328
 20
167.13
 30
0
 11
329.87
 21
163.87
 31
0
  0
LINE
  8
1
 62
3
  6
CONTINUOUS
 10
330.22
 20
163.87
 30
0
 11
332.091
 21
167.132
 31
0
  0
LINE
  8
1
 62
3
  6
CONTINUOUS
 10
332.265
 20
167.233
 30
0
 11
336.02
 21
167.22
 31
0
  0
LINE
  8
1
 62
3
  6
CONTINUOUS
 10
336.19
 20
167.52
 30
0
 11
334.31
 21
170.77
 31
0
  0
LINE
  8
1
 62
3
  6
CONTINUOUS
 10
334.31
 20
170.97
 30
0
 11
336.19
 21
174.22
 31
0
  0
LINE
  8
1
 62
3
  6
CONTINUOUS
 10
336.02
 20
174.52
 30
0
 11
332.26
 21
174.5
 31
0
  0
LINE
  8
1
 62
3
  6
CONTINUOUS
 10
332.09
 20
174.61
 30
0
 11
330.22
 21
177.86
 31
0
  0
LINE
  8
1
 62
3
  6
CONTINUOUS
 10
329.87
 20
177.86
 30
0
 11
327.994
 21
174.6
 31
0
  0
LINE
  8
1
 62
3
  6
CONTINUOUS
 10
75.19
 20
180.13
 30
0
 11
71.44
 21
180.15
 31
0
  0
LINE
  8
1
 62
3
  6
CONTINUOUS
 10
71.27
 20
179.85
 30
0
 11
73.16
 21
176.6
 31
0
  0
LINE
  8
1
 62
3
  6
CONTINUOUS
 10
73.16
 20
176.4
 30
0
 11
71.27
 21
173.15
 31
0
  0
LINE
  8
1
 62
3
  6
CONTINUOUS
 10
71.44
 20
172.85
 30
0
 11
75.2
 21
172.86
 31
0
  0
LINE
  8
1
 62
3
  6
CONTINUOUS
 10
75.37
 20
172.76
 30
0
 11
77.24
 21
169.5
 31
0
  0
LINE
  8
1
 62
3
  6
CONTINUOUS
 10
77.59
 20
169.5
 30
0
 11
79.461
 21
172.762
 31
0
  0
LINE
  8
1
 62
3
  6
CONTINUOUS
 10
79.635
 20
172.863
 30
0
 11
83.39
 21
172.85
 31
0
  0
LINE
  8
1
 62
3
  6
CONTINUOUS
 10
83.56
 20
173.15
 30
0
 11
81.67
 21
176.4
 31
0
  0
LINE
  8
1
 62
3
  6
CONTINUOUS
 10
81.67
 20
176.6
 30
0
 11
83.56
 21
179.85
 31
0
  0
LINE
  8
1
 62
3
  6
CONTINUOUS
 10
83.39
 20
180.15
 30
0
 11
79.63
 21
180.13
 31
0
  0
LINE
  8
1
 62
3
  6
CONTINUOUS
 10
79.46
 20
180.24
 30
0
 11
77.59
 21
183.49
 31
0
  0
LINE
  8
1
 62
3
  6
CONTINUOUS
 10
77.24
 20
183.49
 30
0
 11
75.364
 21
180.23
 31
0
  0
LINE
  8
1
 62
3
  6
CONTINUOUS
 10
142.07
 20
144.46
 30
0
 11
143.96
 21
141.21
 31
0
  0
LINE
  8
1
 62
3
  6
CONTINUOUS
 10
143.96
 20
141.01
 30
0
 11
142.07
 21
137.76
 31
0
  0
LINE
  8
1
 62
3
  6
CONTINUOUS
 10
142.24
 20
137.46
 30
0
 11
146
 21
137.47
 31
0
  0
LINE
  8
1
 62
3
  6
CONTINUOUS
 10
146.17
 20
137.37
 30
0
 11
148.04
 21
134.11
 31
0
  0
LINE
  8
1
 62
3
  6
CONTINUOUS
 10
148.39
 20
134.11
 30
0
 11
150.261
 21
137.372
 31
0
  0
LINE
  8
1
 62
3
  6
CONTINUOUS
 10
150.435
 20
137.473
 30
0
 11
154.19
 21
137.46
 31
0
  0
LINE
  8
1
 62
3
  6
CONTINUOUS
 10
154.36
 20
137.76
 30
0
 11
152.47
 21
141.01
 31
0
  0
LINE
  8
1
 62
3
  6
CONTINUOUS
 10
152.47
 20
141.21
 30
0
 11
154.36
 21
144.46
 31
0
  0
LINE
  8
1
 62
3
  6
CONTINUOUS
 10
154.19
 20
144.76
 30
0
 11
150.43
 21
144.75
 31
0
  0
LINE
  8
1
 62
3
  6
CONTINUOUS
 10
150.26
 20
144.85
 30
0
 11
148.39
 21
148.11
 31
0
  0
LINE
  8
1
 62
3
  6
CONTINUOUS
 10
148.04
 20
148.11
 30
0
 11
146.17
 21
144.85
 31
0
  0
LINE
  8
1
 62
3
  6
CONTINUOUS
 10
146
 20
144.75
 30
0
 11
142.24
 21
144.76
 31
0
  0
LINE
  8
1
 62
3
  6
CONTINUOUS
 10
220.45
 20
123.17
 30
0
 11
218.58
 21
119.91
 31
0
  0
LINE
  8
1
 62
3
  6
CONTINUOUS
 10
218.41
 20
119.81
 30
0
 11
214.65
 21
119.82
 31
0
  0
LINE
  8
1
 62
3
  6
CONTINUOUS
 10
214.48
 20
119.52
 30
0
 11
216.37
 21
116.28
 31
0
  0
LINE
  8
1
 62
3
  6
CONTINUOUS
 10
216.37
 20
116.07
 30
0
 11
214.48
 21
112.83
 31
0
  0
LINE
  8
1
 62
3
  6
CONTINUOUS
 10
214.65
 20
112.53
 30
0
 11
218.41
 21
112.54
 31
0
  0
LINE
  8
1
 62
3
  6
CONTINUOUS
 10
218.58
 20
112.44
 30
0
 11
220.45
 21
109.18
 31
0
  0
LINE
  8
1
 62
3
  6
CONTINUOUS
 10
220.8
 20
109.18
 30
0
 11
222.668
 21
112.436
 31
0
  0
LINE
  8
1
 62
3
  6
CONTINUOUS
 10
222.841
 20
112.536
 30
0
 11
226.6
 21
112.53
 31
0
  0
LINE
  8
1
 62
3
  6
CONTINUOUS
 10
226.77
 20
112.83
 30
0
 11
224.88
 21
116.07
 31
0
  0
LINE
  8
1
 62
3
  6
CONTINUOUS
 10
224.88
 20
116.28
 30
0
 11
226.77
 21
119.52
 31
0
  0
LINE
  8
1
 62
3
  6
CONTINUOUS
 10
226.6
 20
119.82
 30
0
 11
222.84
 21
119.81
 31
0
  0
LINE
  8
1
 62
3
  6
CONTINUOUS
 10
222.67
 20
119.91
 30
0
 11
220.8
 21
123.17
 31
0
  0
LINE
  8
1
 62
3
  6
CONTINUOUS
 10
331.85
 20
119.01
 30
0
 11
328.1
 21
119.02
 31
0
  0
LINE
  8
1
 62
3
  6
CONTINUOUS
 10
327.92
 20
118.72
 30
0
 11
329.81
 21
115.47
 31
0
  0
LINE
  8
1
 62
3
  6
CONTINUOUS
 10
329.81
 20
115.27
 30
0
 11
327.92
 21
112.02
 31
0
  0
LINE
  8
1
 62
3
  6
CONTINUOUS
 10
328.1
 20
111.72
 30
0
 11
331.85
 21
111.73
 31
0
  0
LINE
  8
1
 62
3
  6
CONTINUOUS
 10
332.03
 20
111.63
 30
0
 11
333.9
 21
108.37
 31
0
  0
LINE
  8
1
 62
3
  6
CONTINUOUS
 10
334.24
 20
108.37
 30
0
 11
336.111
 21
111.632
 31
0
  0
LINE
  8
1
 62
3
  6
CONTINUOUS
 10
336.285
 20
111.733
 30
0
 11
340.04
 21
111.72
 31
0
  0
LINE
  8
1
 62
3
  6
CONTINUOUS
 10
340.22
 20
112.02
 30
0
 11
338.33
 21
115.27
 31
0
  0
LINE
  8
1
 62
3
  6
CONTINUOUS
 10
338.33
 20
115.47
 30
0
 11
340.22
 21
118.72
 31
0
  0
LINE
  8
1
 62
3
  6
CONTINUOUS
 10
340.04
 20
119.02
 30
0
 11
336.29
 21
119.01
 31
0
  0
LINE
  8
1
 62
3
  6
CONTINUOUS
 10
336.11
 20
119.11
 30
0
 11
334.24
 21
122.37
 31
0
  0
LINE
  8
1
 62
3
  6
CONTINUOUS
 10
333.9
 20
122.37
 30
0
 11
332.03
 21
119.11
 31
0
  0
LINE
  8
1
 62
3
  6
CONTINUOUS
 10
59.91
 20
82.01
 30
0
 11
56.15
 21
82.02
 31
0
  0
LINE
  8
1
 62
3
  6
CONTINUOUS
 10
55.98
 20
81.72
 30
0
 11
57.87
 21
78.47
 31
0
  0
LINE
  8
1
 62
3
  6
CONTINUOUS
 10
57.87
 20
78.27
 30
0
 11
55.98
 21
75.02
 31
0
  0
LINE
  8
1
 62
3
  6
CONTINUOUS
 10
56.15
 20
74.72
 30
0
 11
59.91
 21
74.74
 31
0
  0
LINE
  8
1
 62
3
  6
CONTINUOUS
 10
60.09
 20
74.64
 30
0
 11
61.95
 21
71.38
 31
0
  0
LINE
  8
1
 62
3
  6
CONTINUOUS
 10
62.3
 20
71.38
 30
0
 11
64.165
 21
74.632
 31
0
  0
LINE
  8
1
 62
3
  6
CONTINUOUS
 10
64.34
 20
74.733
 30
0
 11
68.1
 21
74.72
 31
0
  0
LINE
  8
1
 62
3
  6
CONTINUOUS
 10
68.27
 20
75.02
 30
0
 11
66.39
 21
78.27
 31
0
  0
LINE
  8
1
 62
3
  6
CONTINUOUS
 10
66.39
 20
78.47
 30
0
 11
68.27
 21
81.72
 31
0
  0
LINE
  8
1
 62
3
  6
CONTINUOUS
 10
68.1
 20
82.02
 30
0
 11
64.34
 21
82.01
 31
0
  0
LINE
  8
1
 62
3
  6
CONTINUOUS
 10
64.17
 20
82.11
 30
0
 11
62.3
 21
85.37
 31
0
  0
LINE
  8
1
 62
3
  6
CONTINUOUS
 10
61.95
 20
85.37
 30
0
 11
60.09
 21
82.11
 31
0
  0
LINE
  8
1
 62
3
  6
CONTINUOUS
 10
179.08
 20
76.09
 30
0
 11
180.97
 21
72.84
 31
0
  0
LINE
  8
1
 62
3
  6
CONTINUOUS
 10
180.97
 20
72.64
 30
0
 11
179.08
 21
69.39
 31
0
  0
LINE
  8
1
 62
3
  6
CONTINUOUS
 10
179.25
 20
69.09
 30
0
 11
183.01
 21
69.11
 31
0
  0
LINE
  8
1
 62
3
  6
CONTINUOUS
 10
183.18
 20
69.01
 30
0
 11
185.05
 21
65.75
 31
0
  0
LINE
  8
1
 62
3
  6
CONTINUOUS
 10
185.4
 20
65.75
 30
0
 11
187.266
 21
69.002
 31
0
  0
LINE
  8
1
 62
3
  6
CONTINUOUS
 10
187.44
 20
69.103
 30
0
 11
191.2
 21
69.09
 31
0
  0
LINE
  8
1
 62
3
  6
CONTINUOUS
 10
191.37
 20
69.39
 30
0
 11
189.48
 21
72.64
 31
0
  0
LINE
  8
1
 62
3
  6
CONTINUOUS
 10
189.48
 20
72.84
 30
0
 11
191.37
 21
76.09
 31
0
  0
LINE
  8
1
 62
3
  6
CONTINUOUS
 10
191.2
 20
76.39
 30
0
 11
187.44
 21
76.38
 31
0
  0
LINE
  8
1
 62
3
  6
CONTINUOUS
 10
187.27
 20
76.48
 30
0
 11
185.4
 21
79.74
 31
0
  0
LINE
  8
1
 62
3
  6
CONTINUOUS
 10
185.05
 20
79.74
 30
0
 11
183.18
 21
76.48
 31
0
  0
LINE
  8
1
 62
3
  6
CONTINUOUS
 10
183.01
 20
76.38
 30
0
 11
179.25
 21
76.39
 31
0
  0
LINE
  8
1
 62
3
  6
CONTINUOUS
 10
298.3
 20
59.59
 30
0
 11
296.43
 21
62.85
 31
0
  0
LINE
  8
1
 62
3
  6
CONTINUOUS
 10
296.08
 20
62.85
 30
0
 11
294.21
 21
59.59
 31
0
  0
LINE
  8
1
 62
3
  6
CONTINUOUS
 10
294.04
 20
59.49
 30
0
 11
290.28
 21
59.5
 31
0
  0
LINE
  8
1
 62
3
  6
CONTINUOUS
 10
290.11
 20
59.2
 30
0
 11
292
 21
55.95
 31
0
  0
LINE
  8
1
 62
3
  6
CONTINUOUS
 10
292
 20
55.75
 30
0
 11
290.11
 21
52.5
 31
0
  0
LINE
  8
1
 62
3
  6
CONTINUOUS
 10
290.28
 20
52.2
 30
0
 11
294.04
 21
52.22
 31
0
  0
LINE
  8
1
 62
3
  6
CONTINUOUS
 10
294.21
 20
52.11
 30
0
 11
296.08
 21
48.86
 31
0
  0
LINE
  8
1
 62
3
  6
CONTINUOUS
 10
296.43
 20
48.86
 30
0
 11
298.301
 21
52.112
 31
0
  0
LINE
  8
1
 62
3
  6
CONTINUOUS
 10
298.475
 20
52.213
 30
0
 11
302.23
 21
52.2
 31
0
  0
LINE
  8
1
 62
3
  6
CONTINUOUS
 10
302.4
 20
52.5
 30
0
 11
300.51
 21
55.75
 31
0
  0
LINE
  8
1
 62
3
  6
CONTINUOUS
 10
300.51
 20
55.95
 30
0
 11
302.4
 21
59.2
 31
0
  0
LINE
  8
1
 62
3
  6
CONTINUOUS
 10
302.23
 20
59.5
 30
0
 11
298.47
 21
59.49
 31
0
  0
LINE
  8
1
 62
3
  6
CONTINUOUS
 10
382.145
 20
77.153
 30
0
 11
385.9
 21
77.14
 31
0
  0
LINE
  8
1
 62
3
  6
CONTINUOUS
 10
386.08
 20
77.44
 30
0
 11
384.19
 21
80.69
 31
0
  0
LINE
  8
1
 62
3
  6
CONTINUOUS
 10
384.19
 20
80.89
 30
0
 11
386.085
 21
84.139
 31
0
  0
LINE
  8
1
 62
3
  6
CONTINUOUS
 10
385.912
 20
84.44
 30
0
 11
382.144
 21
84.42
 31
0
  0
LINE
  8
1
 62
3
  6
CONTINUOUS
 10
381.97
 20
84.52
 30
0
 11
380.1
 21
87.78
 31
0
  0
LINE
  8
1
 62
3
  6
CONTINUOUS
 10
379.76
 20
87.78
 30
0
 11
377.89
 21
84.52
 31
0
  0
LINE
  8
1
 62
3
  6
CONTINUOUS
 10
377.71
 20
84.42
 30
0
 11
373.948
 21
84.44
 31
0
  0
LINE
  8
1
 62
3
  6
CONTINUOUS
 10
373.775
 20
84.139
 30
0
 11
375.67
 21
80.89
 31
0
  0
LINE
  8
1
 62
3
  6
CONTINUOUS
 10
375.67
 20
80.69
 30
0
 11
373.78
 21
77.44
 31
0
  0
LINE
  8
1
 62
3
  6
CONTINUOUS
 10
373.96
 20
77.14
 30
0
 11
377.71
 21
77.15
 31
0
  0
LINE
  8
1
 62
3
  6
CONTINUOUS
 10
377.89
 20
77.05
 30
0
 11
379.76
 21
73.79
 31
0
  0
LINE
  8
1
 62
3
  6
CONTINUOUS
 10
380.1
 20
73.79
 30
0
 11
381.971
 21
77.052
 31
0
  0
LINE
  8
1
 62
3
  6
CONTINUOUS
 10
278.08
 20
78.09
 30
0
 11
269.61
 21
92.88
 31
0
  0
LINE
  8
1
 62
3
  6
CONTINUOUS
 10
268.74
 20
93.38
 30
0
 11
249.95
 21
93.32
 31
0
  0
LINE
  8
1
 62
3
  6
CONTINUOUS
 10
249.09
 20
94.83
 30
0
 11
258.53
 21
111.07
 31
0
  0
LINE
  8
1
 62
3
  6
CONTINUOUS
 10
258.53
 20
112.07
 30
0
 11
249.09
 21
128.31
 31
0
  0
LINE
  8
1
 62
3
  6
CONTINUOUS
 10
249.95
 20
129.81
 30
0
 11
268.74
 21
129.76
 31
0
  0
LINE
  8
1
 62
3
  6
CONTINUOUS
 10
269.61
 20
130.26
 30
0
 11
278.95
 21
146.55
 31
0
  0
LINE
  8
1
 62
3
  6
CONTINUOUS
 10
280.69
 20
146.55
 30
0
 11
290.03
 21
130.26
 31
0
  0
LINE
  8
1
 62
3
  6
CONTINUOUS
 10
290.9
 20
129.76
 30
0
 11
309.68
 21
129.81
 31
0
  0
LINE
  8
1
 62
3
  6
CONTINUOUS
 10
310.55
 20
128.31
 30
0
 11
301.11
 21
112.07
 31
0
  0
LINE
  8
1
 62
3
  6
CONTINUOUS
 10
301.11
 20
111.07
 30
0
 11
310.554
 21
94.823
 31
0
  0
LINE
  8
1
 62
3
  6
CONTINUOUS
 10
309.687
 20
93.32
 30
0
 11
290.9
 21
93.38
 31
0
  0
LINE
  8
1
 62
3
  6
CONTINUOUS
 10
290.03
 20
92.88
 30
0
 11
281.55
 21
78.09
 31
0
  0
LINE
  8
1
 62
3
  6
CONTINUOUS
 10
112.37
 20
54.75
 30
0
 11
103.89
 21
69.53
 31
0
  0
LINE
  8
1
 62
3
  6
CONTINUOUS
 10
103.02
 20
70.04
 30
0
 11
84.24
 21
69.98
 31
0
  0
LINE
  8
1
 62
3
  6
CONTINUOUS
 10
83.37
 20
71.48
 30
0
 11
92.81
 21
87.72
 31
0
  0
LINE
  8
1
 62
3
  6
CONTINUOUS
 10
92.81
 20
88.73
 30
0
 11
83.37
 21
104.97
 31
0
  0
LINE
  8
1
 62
3
  6
CONTINUOUS
 10
84.24
 20
106.47
 30
0
 11
103.02
 21
106.41
 31
0
  0
LINE
  8
1
 62
3
  6
CONTINUOUS
 10
103.89
 20
106.92
 30
0
 11
113.24
 21
123.21
 31
0
  0
LINE
  8
1
 62
3
  6
CONTINUOUS
 10
114.97
 20
123.21
 30
0
 11
124.32
 21
106.92
 31
0
  0
LINE
  8
1
 62
3
  6
CONTINUOUS
 10
125.19
 20
106.41
 30
0
 11
143.97
 21
106.47
 31
0
  0
LINE
  8
1
 62
3
  6
CONTINUOUS
 10
144.84
 20
104.97
 30
0
 11
135.4
 21
88.73
 31
0
  0
LINE
  8
1
 62
3
  6
CONTINUOUS
 10
135.4
 20
87.72
 30
0
 11
144.84
 21
71.48
 31
0
  0
LINE
  8
1
 62
3
  6
CONTINUOUS
 10
143.97
 20
69.98
 30
0
 11
125.19
 21
70.04
 31
0
  0
LINE
  8
1
 62
3
  6
CONTINUOUS
 10
124.32
 20
69.53
 30
0
 11
115.84
 21
54.75
 31
0
  0
LINE
  8
1
 62
3
  6
CONTINUOUS
 10
178.36
 20
160.92
 30
0
 11
186.83
 21
175.71
 31
0
  0
LINE
  8
1
 62
3
  6
CONTINUOUS
 10
187.71
 20
176.21
 30
0
 11
206.49
 21
176.15
 31
0
  0
LINE
  8
1
 62
3
  6
CONTINUOUS
 10
207.36
 20
177.66
 30
0
 11
197.92
 21
193.89
 31
0
  0
LINE
  8
1
 62
3
  6
CONTINUOUS
 10
197.92
 20
194.9
 30
0
 11
207.36
 21
211.14
 31
0
  0
LINE
  8
1
 62
3
  6
CONTINUOUS
 10
206.49
 20
212.64
 30
0
 11
187.699
 21
212.59
 31
0
  0
LINE
  8
1
 62
3
  6
CONTINUOUS
 10
186.828
 20
213.092
 30
0
 11
177.49
 21
229.38
 31
0
  0
LINE
  8
1
 62
3
  6
CONTINUOUS
 10
175.76
 20
229.38
 30
0
 11
166.41
 21
213.09
 31
0
  0
LINE
  8
1
 62
3
  6
CONTINUOUS
 10
165.54
 20
212.59
 30
0
 11
146.76
 21
212.64
 31
0
  0
LINE
  8
1
 62
3
  6
CONTINUOUS
 10
145.89
 20
211.14
 30
0
 11
155.33
 21
194.9
 31
0
  0
LINE
  8
1
 62
3
  6
CONTINUOUS
 10
155.33
 20
193.89
 30
0
 11
145.886
 21
177.653
 31
0
  0
LINE
  8
1
 62
3
  6
CONTINUOUS
 10
146.753
 20
176.15
 30
0
 11
165.54
 21
176.21
 31
0
  0
LINE
  8
1
 62
3
  6
CONTINUOUS
 10
166.41
 20
175.71
 30
0
 11
174.89
 21
160.92
 31
0
  0
LINE
  8
1
 62
3
  6
CONTINUOUS
 10
254.93
 20
203.71
 30
0
 11
253.04
 21
206.96
 31
0
  0
LINE
  8
1
 62
3
  6
CONTINUOUS
 10
253.04
 20
207.16
 30
0
 11
254.93
 21
210.41
 31
0
  0
LINE
  8
1
 62
3
  6
CONTINUOUS
 10
254.76
 20
210.71
 30
0
 11
251
 21
210.7
 31
0
  0
LINE
  8
1
 62
3
  6
CONTINUOUS
 10
250.83
 20
210.8
 30
0
 11
248.96
 21
214.06
 31
0
  0
LINE
  8
1
 62
3
  6
CONTINUOUS
 10
248.61
 20
214.06
 30
0
 11
246.74
 21
210.8
 31
0
  0
LINE
  8
1
 62
3
  6
CONTINUOUS
 10
246.57
 20
210.703
 30
0
 11
242.81
 21
210.71
 31
0
  0
LINE
  8
1
 62
3
  6
CONTINUOUS
 10
242.64
 20
210.41
 30
0
 11
244.53
 21
207.16
 31
0
  0
LINE
  8
1
 62
3
  6
CONTINUOUS
 10
244.53
 20
206.96
 30
0
 11
242.64
 21
203.71
 31
0
  0
LINE
  8
1
 62
3
  6
CONTINUOUS
 10
242.81
 20
203.41
 30
0
 11
246.57
 21
203.42
 31
0
  0
LINE
  8
1
 62
3
  6
CONTINUOUS
 10
246.74
 20
203.32
 30
0
 11
248.61
 21
200.06
 31
0
  0
LINE
  8
1
 62
3
  6
CONTINUOUS
 10
248.96
 20
200.06
 30
0
 11
250.831
 21
203.322
 31
0
  0
LINE
  8
1
 62
3
  6
CONTINUOUS
 10
251.005
 20
203.423
 30
0
 11
254.76
 21
203.41
 31
0
  0
LINE
  8
1
 62
3
  6
CONTINUOUS
 10
177.61
 20
332.61
 30
0
 11
186.08
 21
347.39
 31
0
  0
LINE
  8
1
 62
3
  6
CONTINUOUS
 10
186.95
 20
347.89
 30
0
 11
205.74
 21
347.84
 31
0
  0
LINE
  8
1
 62
3
  6
CONTINUOUS
 10
206.6
 20
349.34
 30
0
 11
197.16
 21
365.58
 31
0
  0
LINE
  8
1
 62
3
  6
CONTINUOUS
 10
197.16
 20
366.58
 30
0
 11
206.6
 21
382.82
 31
0
  0
LINE
  8
1
 62
3
  6
CONTINUOUS
 10
205.74
 20
384.32
 30
0
 11
186.95
 21
384.27
 31
0
  0
LINE
  8
1
 62
3
  6
CONTINUOUS
 10
186.08
 20
384.77
 30
0
 11
176.74
 21
401.07
 31
0
  0
LINE
  8
1
 62
3
  6
CONTINUOUS
 10
175
 20
401.07
 30
0
 11
165.66
 21
384.77
 31
0
  0
LINE
  8
1
 62
3
  6
CONTINUOUS
 10
164.79
 20
384.27
 30
0
 11
146
 21
384.32
 31
0
  0
LINE
  8
1
 62
3
  6
CONTINUOUS
 10
145.14
 20
382.82
 30
0
 11
154.58
 21
366.58
 31
0
  0
LINE
  8
1
 62
3
  6
CONTINUOUS
 10
154.58
 20
365.58
 30
0
 11
145.14
 21
349.34
 31
0
  0
LINE
  8
1
 62
3
  6
CONTINUOUS
 10
146
 20
347.84
 30
0
 11
164.79
 21
347.89
 31
0
  0
LINE
  8
1
 62
3
  6
CONTINUOUS
 10
165.66
 20
347.39
 30
0
 11
174.14
 21
332.61
 31
0
  0
LINE
  8
1
 62
3
  6
CONTINUOUS
 10
473.23
 20
230.75
 30
0
 11
481.71
 21
215.97
 31
0
  0
LINE
  8
1
 62
3
  6
CONTINUOUS
 10
482.58
 20
215.46
 30
0
 11
501.37
 21
215.52
 31
0
  0
LINE
  8
1
 62
3
  6
CONTINUOUS
 10
502.23
 20
214.02
 30
0
 11
492.79
 21
197.78
 31
0
  0
LINE
  8
1
 62
3
  6
CONTINUOUS
 10
492.79
 20
196.77
 30
0
 11
502.23
 21
180.53
 31
0
  0
LINE
  8
1
 62
3
  6
CONTINUOUS
 10
501.37
 20
179.03
 30
0
 11
482.58
 21
179.09
 31
0
  0
LINE
  8
1
 62
3
  6
CONTINUOUS
 10
481.71
 20
178.58
 30
0
 11
472.37
 21
162.29
 31
0
  0
LINE
  8
1
 62
3
  6
CONTINUOUS
 10
470.63
 20
162.29
 30
0
 11
461.29
 21
178.58
 31
0
  0
LINE
  8
1
 62
3
  6
CONTINUOUS
 10
460.42
 20
179.09
 30
0
 11
441.63
 21
179.03
 31
0
  0
LINE
  8
1
 62
3
  6
CONTINUOUS
 10
440.77
 20
180.53
 30
0
 11
450.21
 21
196.77
 31
0
  0
LINE
  8
1
 62
3
  6
CONTINUOUS
 10
450.21
 20
197.78
 30
0
 11
440.77
 21
214.02
 31
0
  0
LINE
  8
1
 62
3
  6
CONTINUOUS
 10
441.63
 20
215.52
 30
0
 11
460.42
 21
215.46
 31
0
  0
LINE
  8
1
 62
3
  6
CONTINUOUS
 10
461.29
 20
215.97
 30
0
 11
469.76
 21
230.75
 31
0
  0
LINE
  8
1
 62
3
  6
CONTINUOUS
 10
400.99
 20
354.3
 30
0
 11
392.51
 21
339.52
 31
0
  0
LINE
  8
1
 62
3
  6
CONTINUOUS
 10
391.64
 20
339.02
 30
0
 11
372.86
 21
339.07
 31
0
  0
LINE
  8
1
 62
3
  6
CONTINUOUS
 10
371.99
 20
337.57
 30
0
 11
381.43
 21
321.33
 31
0
  0
LINE
  8
1
 62
3
  6
CONTINUOUS
 10
381.43
 20
320.33
 30
0
 11
371.986
 21
304.082
 31
0
  0
LINE
  8
1
 62
3
  6
CONTINUOUS
 10
372.853
 20
302.58
 30
0
 11
391.64
 21
302.64
 31
0
  0
LINE
  8
1
 62
3
  6
CONTINUOUS
 10
392.51
 20
302.14
 30
0
 11
401.86
 21
285.84
 31
0
  0
LINE
  8
1
 62
3
  6
CONTINUOUS
 10
403.59
 20
285.84
 30
0
 11
412.94
 21
302.14
 31
0
  0
LINE
  8
1
 62
3
  6
CONTINUOUS
 10
413.81
 20
302.64
 30
0
 11
432.59
 21
302.58
 31
0
  0
LINE
  8
1
 62
3
  6
CONTINUOUS
 10
433.46
 20
304.09
 30
0
 11
424.02
 21
320.33
 31
0
  0
LINE
  8
1
 62
3
  6
CONTINUOUS
 10
424.02
 20
321.33
 30
0
 11
433.46
 21
337.57
 31
0
  0
LINE
  8
1
 62
3
  6
CONTINUOUS
 10
432.59
 20
339.07
 30
0
 11
413.81
 21
339.02
 31
0
  0
LINE
  8
1
 62
3
  6
CONTINUOUS
 10
412.94
 20
339.52
 30
0
 11
404.46
 21
354.3
 31
0
  0
LINE
  8
1
 62
3
  6
CONTINUOUS
 10
515.1
 20
374.23
 30
0
 11
523.57
 21
359.45
 31
0
  0
LINE
  8
1
 62
3
  6
CONTINUOUS
 10
524.44
 20
358.95
 30
0
 11
543.23
 21
359
 31
0
  0
LINE
  8
1
 62
3
  6
CONTINUOUS
 10
544.1
 20
357.5
 30
0
 11
534.65
 21
341.26
 31
0
  0
LINE
  8
1
 62
3
  6
CONTINUOUS
 10
534.65
 20
340.25
 30
0
 11
544.104
 21
324.013
 31
0
  0
LINE
  8
1
 62
3
  6
CONTINUOUS
 10
543.237
 20
322.51
 30
0
 11
524.44
 21
322.57
 31
0
  0
LINE
  8
1
 62
3
  6
CONTINUOUS
 10
523.57
 20
322.07
 30
0
 11
514.23
 21
305.77
 31
0
  0
LINE
  8
1
 62
3
  6
CONTINUOUS
 10
512.49
 20
305.77
 30
0
 11
503.15
 21
322.07
 31
0
  0
LINE
  8
1
 62
3
  6
CONTINUOUS
 10
502.28
 20
322.57
 30
0
 11
483.5
 21
322.51
 31
0
  0
LINE
  8
1
 62
3
  6
CONTINUOUS
 10
482.63
 20
324.02
 30
0
 11
492.07
 21
340.25
 31
0
  0
LINE
  8
1
 62
3
  6
CONTINUOUS
 10
492.07
 20
341.26
 30
0
 11
482.63
 21
357.5
 31
0
  0
LINE
  8
1
 62
3
  6
CONTINUOUS
 10
483.5
 20
359
 30
0
 11
502.28
 21
358.95
 31
0
  0
LINE
  8
1
 62
3
  6
CONTINUOUS
 10
503.15
 20
359.45
 30
0
 11
511.63
 21
374.23
 31
0
  0
LINE
  8
1
 62
3
  6
CONTINUOUS
 10
554.97
 20
489.81
 30
0
 11
563.44
 21
475.03
 31
0
  0
LINE
  8
1
 62
3
  6
CONTINUOUS
 10
564.31
 20
474.53
 30
0
 11
583.1
 21
474.58
 31
0
  0
LINE
  8
1
 62
3
  6
CONTINUOUS
 10
583.96
 20
473.08
 30
0
 11
574.52
 21
456.84
 31
0
  0
LINE
  8
1
 62
3
  6
CONTINUOUS
 10
574.52
 20
455.84
 30
0
 11
583.96
 21
439.6
 31
0
  0
LINE
  8
1
 62
3
  6
CONTINUOUS
 10
583.1
 20
438.1
 30
0
 11
564.31
 21
438.15
 31
0
  0
LINE
  8
1
 62
3
  6
CONTINUOUS
 10
563.44
 20
437.65
 30
0
 11
554.1
 21
421.35
 31
0
  0
LINE
  8
1
 62
3
  6
CONTINUOUS
 10
552.36
 20
421.35
 30
0
 11
543.02
 21
437.65
 31
0
  0
LINE
  8
1
 62
3
  6
CONTINUOUS
 10
542.15
 20
438.15
 30
0
 11
523.37
 21
438.1
 31
0
  0
LINE
  8
1
 62
3
  6
CONTINUOUS
 10
522.5
 20
439.6
 30
0
 11
531.94
 21
455.84
 31
0
  0
LINE
  8
1
 62
3
  6
CONTINUOUS
 10
531.94
 20
456.84
 30
0
 11
522.5
 21
473.08
 31
0
  0
LINE
  8
1
 62
3
  6
CONTINUOUS
 10
523.37
 20
474.58
 30
0
 11
542.15
 21
474.53
 31
0
  0
LINE
  8
1
 62
3
  6
CONTINUOUS
 10
543.02
 20
475.03
 30
0
 11
551.5
 21
489.81
 31
0
  0
LINE
  8
1
 62
3
  6
CONTINUOUS
 10
388.51
 20
515.72
 30
0
 11
396.99
 21
500.94
 31
0
  0
LINE
  8
1
 62
3
  6
CONTINUOUS
 10
397.86
 20
500.43
 30
0
 11
416.64
 21
500.49
 31
0
  0
LINE
  8
1
 62
3
  6
CONTINUOUS
 10
417.51
 20
498.99
 30
0
 11
408.07
 21
482.75
 31
0
  0
LINE
  8
1
 62
3
  6
CONTINUOUS
 10
408.07
 20
481.74
 30
0
 11
417.51
 21
465.5
 31
0
  0
LINE
  8
1
 62
3
  6
CONTINUOUS
 10
416.64
 20
464
 30
0
 11
397.86
 21
464.06
 31
0
  0
LINE
  8
1
 62
3
  6
CONTINUOUS
 10
396.99
 20
463.56
 30
0
 11
387.64
 21
447.26
 31
0
  0
LINE
  8
1
 62
3
  6
CONTINUOUS
 10
385.91
 20
447.26
 30
0
 11
376.57
 21
463.56
 31
0
  0
LINE
  8
1
 62
3
  6
CONTINUOUS
 10
375.7
 20
464.06
 30
0
 11
356.91
 21
464
 31
0
  0
LINE
  8
1
 62
3
  6
CONTINUOUS
 10
356.04
 20
465.5
 30
0
 11
365.48
 21
481.74
 31
0
  0
LINE
  8
1
 62
3
  6
CONTINUOUS
 10
365.48
 20
482.75
 30
0
 11
356.04
 21
498.99
 31
0
  0
LINE
  8
1
 62
3
  6
CONTINUOUS
 10
356.91
 20
500.49
 30
0
 11
375.7
 21
500.43
 31
0
  0
LINE
  8
1
 62
3
  6
CONTINUOUS
 10
376.57
 20
500.94
 30
0
 11
385.04
 21
515.72
 31
0
  0
LINE
  8
1
 62
3
  6
CONTINUOUS
 10
311.575
 20
507.247
 30
0
 11
307.82
 21
507.26
 31
0
  0
LINE
  8
1
 62
3
  6
CONTINUOUS
 10
307.65
 20
506.96
 30
0
 11
309.53
 21
503.71
 31
0
  0
LINE
  8
1
 62
3
  6
CONTINUOUS
 10
309.53
 20
503.51
 30
0
 11
307.65
 21
500.26
 31
0
  0
LINE
  8
1
 62
3
  6
CONTINUOUS
 10
307.82
 20
499.96
 30
0
 11
311.58
 21
499.97
 31
0
  0
LINE
  8
1
 62
3
  6
CONTINUOUS
 10
311.75
 20
499.87
 30
0
 11
313.62
 21
496.61
 31
0
  0
LINE
  8
1
 62
3
  6
CONTINUOUS
 10
313.97
 20
496.61
 30
0
 11
315.83
 21
499.87
 31
0
  0
LINE
  8
1
 62
3
  6
CONTINUOUS
 10
316.01
 20
499.97
 30
0
 11
319.77
 21
499.96
 31
0
  0
LINE
  8
1
 62
3
  6
CONTINUOUS
 10
319.94
 20
500.26
 30
0
 11
318.05
 21
503.51
 31
0
  0
LINE
  8
1
 62
3
  6
CONTINUOUS
 10
318.05
 20
503.71
 30
0
 11
319.94
 21
506.96
 31
0
  0
LINE
  8
1
 62
3
  6
CONTINUOUS
 10
319.77
 20
507.26
 30
0
 11
316.01
 21
507.25
 31
0
  0
LINE
  8
1
 62
3
  6
CONTINUOUS
 10
315.83
 20
507.35
 30
0
 11
313.97
 21
510.61
 31
0
  0
LINE
  8
1
 62
3
  6
CONTINUOUS
 10
313.62
 20
510.61
 30
0
 11
311.749
 21
507.348
 31
0
  0
LINE
  8
1
 62
3
  6
CONTINUOUS
 10
438.13
 20
517.8
 30
0
 11
436.26
 21
521.06
 31
0
  0
LINE
  8
1
 62
3
  6
CONTINUOUS
 10
435.91
 20
521.06
 30
0
 11
434.042
 21
517.804
 31
0
  0
LINE
  8
1
 62
3
  6
CONTINUOUS
 10
433.869
 20
517.704
 30
0
 11
430.11
 21
517.71
 31
0
  0
LINE
  8
1
 62
3
  6
CONTINUOUS
 10
429.94
 20
517.41
 30
0
 11
431.83
 21
514.17
 31
0
  0
LINE
  8
1
 62
3
  6
CONTINUOUS
 10
431.83
 20
513.97
 30
0
 11
429.94
 21
510.72
 31
0
  0
LINE
  8
1
 62
3
  6
CONTINUOUS
 10
430.11
 20
510.42
 30
0
 11
433.87
 21
510.43
 31
0
  0
LINE
  8
1
 62
3
  6
CONTINUOUS
 10
434.04
 20
510.33
 30
0
 11
435.91
 21
507.07
 31
0
  0
LINE
  8
1
 62
3
  6
CONTINUOUS
 10
436.26
 20
507.07
 30
0
 11
438.13
 21
510.33
 31
0
  0
LINE
  8
1
 62
3
  6
CONTINUOUS
 10
438.3
 20
510.43
 30
0
 11
442.06
 21
510.42
 31
0
  0
LINE
  8
1
 62
3
  6
CONTINUOUS
 10
442.23
 20
510.72
 30
0
 11
440.34
 21
513.97
 31
0
  0
LINE
  8
1
 62
3
  6
CONTINUOUS
 10
440.34
 20
514.17
 30
0
 11
442.23
 21
517.41
 31
0
  0
LINE
  8
1
 62
3
  6
CONTINUOUS
 10
442.06
 20
517.71
 30
0
 11
438.3
 21
517.7
 31
0
  0
LINE
  8
1
 62
3
  6
CONTINUOUS
 10
552.135
 20
525.747
 30
0
 11
548.38
 21
525.76
 31
0
  0
LINE
  8
1
 62
3
  6
CONTINUOUS
 10
548.21
 20
525.46
 30
0
 11
550.1
 21
522.21
 31
0
  0
LINE
  8
1
 62
3
  6
CONTINUOUS
 10
550.1
 20
522.01
 30
0
 11
548.21
 21
518.76
 31
0
  0
LINE
  8
1
 62
3
  6
CONTINUOUS
 10
548.38
 20
518.46
 30
0
 11
552.14
 21
518.47
 31
0
  0
LINE
  8
1
 62
3
  6
CONTINUOUS
 10
552.31
 20
518.37
 30
0
 11
554.18
 21
515.11
 31
0
  0
LINE
  8
1
 62
3
  6
CONTINUOUS
 10
554.53
 20
515.11
 30
0
 11
556.4
 21
518.37
 31
0
  0
LINE
  8
1
 62
3
  6
CONTINUOUS
 10
556.57
 20
518.47
 30
0
 11
560.33
 21
518.46
 31
0
  0
LINE
  8
1
 62
3
  6
CONTINUOUS
 10
560.5
 20
518.76
 30
0
 11
558.61
 21
522.01
 31
0
  0
LINE
  8
1
 62
3
  6
CONTINUOUS
 10
558.61
 20
522.21
 30
0
 11
560.5
 21
525.46
 31
0
  0
LINE
  8
1
 62
3
  6
CONTINUOUS
 10
560.33
 20
525.76
 30
0
 11
556.57
 21
525.75
 31
0
  0
LINE
  8
1
 62
3
  6
CONTINUOUS
 10
556.4
 20
525.85
 30
0
 11
554.53
 21
529.11
 31
0
  0
LINE
  8
1
 62
3
  6
CONTINUOUS
 10
554.18
 20
529.11
 30
0
 11
552.309
 21
525.848
 31
0
  0
LINE
  8
1
 62
3
  6
CONTINUOUS
 10
619.29
 20
489.03
 30
0
 11
617.4
 21
485.78
 31
0
  0
LINE
  8
1
 62
3
  6
CONTINUOUS
 10
617.58
 20
485.48
 30
0
 11
621.33
 21
485.49
 31
0
  0
LINE
  8
1
 62
3
  6
CONTINUOUS
 10
621.51
 20
485.39
 30
0
 11
623.38
 21
482.14
 31
0
  0
LINE
  8
1
 62
3
  6
CONTINUOUS
 10
623.72
 20
482.14
 30
0
 11
625.59
 21
485.39
 31
0
  0
LINE
  8
1
 62
3
  6
CONTINUOUS
 10
625.77
 20
485.49
 30
0
 11
629.52
 21
485.48
 31
0
  0
LINE
  8
1
 62
3
  6
CONTINUOUS
 10
629.7
 20
485.78
 30
0
 11
627.81
 21
489.03
 31
0
  0
LINE
  8
1
 62
3
  6
CONTINUOUS
 10
627.81
 20
489.23
 30
0
 11
629.7
 21
492.48
 31
0
  0
LINE
  8
1
 62
3
  6
CONTINUOUS
 10
629.52
 20
492.78
 30
0
 11
625.76
 21
492.77
 31
0
  0
LINE
  8
1
 62
3
  6
CONTINUOUS
 10
625.59
 20
492.87
 30
0
 11
623.72
 21
496.13
 31
0
  0
LINE
  8
1
 62
3
  6
CONTINUOUS
 10
623.38
 20
496.13
 30
0
 11
621.509
 21
492.868
 31
0
  0
LINE
  8
1
 62
3
  6
CONTINUOUS
 10
621.335
 20
492.767
 30
0
 11
617.58
 21
492.78
 31
0
  0
LINE
  8
1
 62
3
  6
CONTINUOUS
 10
617.4
 20
492.48
 30
0
 11
619.29
 21
489.23
 31
0
  0
LINE
  8
1
 62
3
  6
CONTINUOUS
 10
495.015
 20
486.337
 30
0
 11
491.26
 21
486.35
 31
0
  0
LINE
  8
1
 62
3
  6
CONTINUOUS
 10
491.09
 20
486.05
 30
0
 11
492.97
 21
482.8
 31
0
  0
LINE
  8
1
 62
3
  6
CONTINUOUS
 10
492.97
 20
482.6
 30
0
 11
491.09
 21
479.35
 31
0
  0
LINE
  8
1
 62
3
  6
CONTINUOUS
 10
491.26
 20
479.05
 30
0
 11
495.02
 21
479.06
 31
0
  0
LINE
  8
1
 62
3
  6
CONTINUOUS
 10
495.19
 20
478.96
 30
0
 11
497.06
 21
475.7
 31
0
  0
LINE
  8
1
 62
3
  6
CONTINUOUS
 10
497.41
 20
475.7
 30
0
 11
499.27
 21
478.96
 31
0
  0
LINE
  8
1
 62
3
  6
CONTINUOUS
 10
499.45
 20
479.06
 30
0
 11
503.21
 21
479.05
 31
0
  0
LINE
  8
1
 62
3
  6
CONTINUOUS
 10
503.38
 20
479.35
 30
0
 11
501.49
 21
482.6
 31
0
  0
LINE
  8
1
 62
3
  6
CONTINUOUS
 10
501.49
 20
482.8
 30
0
 11
503.38
 21
486.05
 31
0
  0
LINE
  8
1
 62
3
  6
CONTINUOUS
 10
503.21
 20
486.35
 30
0
 11
499.45
 21
486.34
 31
0
  0
LINE
  8
1
 62
3
  6
CONTINUOUS
 10
499.27
 20
486.44
 30
0
 11
497.41
 21
489.7
 31
0
  0
LINE
  8
1
 62
3
  6
CONTINUOUS
 10
497.06
 20
489.7
 30
0
 11
495.189
 21
486.438
 31
0
  0
LINE
  8
1
 62
3
  6
CONTINUOUS
 10
372.73
 20
420.387
 30
0
 11
368.958
 21
420.4
 31
0
  0
LINE
  8
1
 62
3
  6
CONTINUOUS
 10
368.785
 20
420.099
 30
0
 11
370.68
 21
416.85
 31
0
  0
LINE
  8
1
 62
3
  6
CONTINUOUS
 10
370.68
 20
416.65
 30
0
 11
368.79
 21
413.4
 31
0
  0
LINE
  8
1
 62
3
  6
CONTINUOUS
 10
368.97
 20
413.1
 30
0
 11
372.72
 21
413.11
 31
0
  0
LINE
  8
1
 62
3
  6
CONTINUOUS
 10
372.9
 20
413.01
 30
0
 11
374.77
 21
409.75
 31
0
  0
LINE
  8
1
 62
3
  6
CONTINUOUS
 10
375.11
 20
409.75
 30
0
 11
376.98
 21
413.01
 31
0
  0
LINE
  8
1
 62
3
  6
CONTINUOUS
 10
377.16
 20
413.11
 30
0
 11
380.91
 21
413.1
 31
0
  0
LINE
  8
1
 62
3
  6
CONTINUOUS
 10
381.09
 20
413.4
 30
0
 11
379.2
 21
416.65
 31
0
  0
LINE
  8
1
 62
3
  6
CONTINUOUS
 10
379.2
 20
416.85
 30
0
 11
381.095
 21
420.099
 31
0
  0
LINE
  8
1
 62
3
  6
CONTINUOUS
 10
380.922
 20
420.4
 30
0
 11
377.16
 21
420.38
 31
0
  0
LINE
  8
1
 62
3
  6
CONTINUOUS
 10
376.98
 20
420.48
 30
0
 11
375.11
 21
423.74
 31
0
  0
LINE
  8
1
 62
3
  6
CONTINUOUS
 10
374.77
 20
423.74
 30
0
 11
372.904
 21
420.488
 31
0
  0
LINE
  8
1
 62
3
  6
CONTINUOUS
 10
438.695
 20
391.427
 30
0
 11
434.94
 21
391.44
 31
0
  0
LINE
  8
1
 62
3
  6
CONTINUOUS
 10
434.77
 20
391.14
 30
0
 11
436.65
 21
387.89
 31
0
  0
LINE
  8
1
 62
3
  6
CONTINUOUS
 10
436.65
 20
387.69
 30
0
 11
434.77
 21
384.44
 31
0
  0
LINE
  8
1
 62
3
  6
CONTINUOUS
 10
434.94
 20
384.14
 30
0
 11
438.7
 21
384.15
 31
0
  0
LINE
  8
1
 62
3
  6
CONTINUOUS
 10
438.87
 20
384.05
 30
0
 11
440.74
 21
380.79
 31
0
  0
LINE
  8
1
 62
3
  6
CONTINUOUS
 10
441.09
 20
380.79
 30
0
 11
442.96
 21
384.05
 31
0
  0
LINE
  8
1
 62
3
  6
CONTINUOUS
 10
443.13
 20
384.15
 30
0
 11
446.89
 21
384.14
 31
0
  0
LINE
  8
1
 62
3
  6
CONTINUOUS
 10
447.06
 20
384.44
 30
0
 11
445.17
 21
387.69
 31
0
  0
LINE
  8
1
 62
3
  6
CONTINUOUS
 10
445.17
 20
387.89
 30
0
 11
447.06
 21
391.14
 31
0
  0
LINE
  8
1
 62
3
  6
CONTINUOUS
 10
446.89
 20
391.44
 30
0
 11
443.13
 21
391.43
 31
0
  0
LINE
  8
1
 62
3
  6
CONTINUOUS
 10
442.96
 20
391.53
 30
0
 11
441.09
 21
394.79
 31
0
  0
LINE
  8
1
 62
3
  6
CONTINUOUS
 10
440.74
 20
394.79
 30
0
 11
438.869
 21
391.528
 31
0
  0
LINE
  8
1
 62
3
  6
CONTINUOUS
 10
526.395
 20
400.277
 30
0
 11
522.64
 21
400.29
 31
0
  0
LINE
  8
1
 62
3
  6
CONTINUOUS
 10
522.46
 20
399.99
 30
0
 11
524.35
 21
396.74
 31
0
  0
LINE
  8
1
 62
3
  6
CONTINUOUS
 10
524.35
 20
396.54
 30
0
 11
522.46
 21
393.29
 31
0
  0
LINE
  8
1
 62
3
  6
CONTINUOUS
 10
522.64
 20
392.99
 30
0
 11
526.39
 21
393
 31
0
  0
LINE
  8
1
 62
3
  6
CONTINUOUS
 10
526.57
 20
392.9
 30
0
 11
528.44
 21
389.64
 31
0
  0
LINE
  8
1
 62
3
  6
CONTINUOUS
 10
528.78
 20
389.64
 30
0
 11
530.65
 21
392.9
 31
0
  0
LINE
  8
1
 62
3
  6
CONTINUOUS
 10
530.83
 20
393
 30
0
 11
534.58
 21
392.99
 31
0
  0
LINE
  8
1
 62
3
  6
CONTINUOUS
 10
534.76
 20
393.29
 30
0
 11
532.87
 21
396.54
 31
0
  0
LINE
  8
1
 62
3
  6
CONTINUOUS
 10
532.87
 20
396.74
 30
0
 11
534.76
 21
399.99
 31
0
  0
LINE
  8
1
 62
3
  6
CONTINUOUS
 10
534.58
 20
400.29
 30
0
 11
530.83
 21
400.28
 31
0
  0
LINE
  8
1
 62
3
  6
CONTINUOUS
 10
530.65
 20
400.38
 30
0
 11
528.78
 21
403.64
 31
0
  0
LINE
  8
1
 62
3
  6
CONTINUOUS
 10
528.44
 20
403.64
 30
0
 11
526.569
 21
400.378
 31
0
  0
LINE
  8
1
 62
3
  6
CONTINUOUS
 10
595.19
 20
395.41
 30
0
 11
598.95
 21
395.4
 31
0
  0
LINE
  8
1
 62
3
  6
CONTINUOUS
 10
599.12
 20
395.7
 30
0
 11
597.23
 21
398.95
 31
0
  0
LINE
  8
1
 62
3
  6
CONTINUOUS
 10
597.23
 20
399.15
 30
0
 11
599.12
 21
402.4
 31
0
  0
LINE
  8
1
 62
3
  6
CONTINUOUS
 10
598.95
 20
402.7
 30
0
 11
595.19
 21
402.69
 31
0
  0
LINE
  8
1
 62
3
  6
CONTINUOUS
 10
595.02
 20
402.79
 30
0
 11
593.15
 21
406.05
 31
0
  0
LINE
  8
1
 62
3
  6
CONTINUOUS
 10
592.8
 20
406.05
 30
0
 11
590.929
 21
402.788
 31
0
  0
LINE
  8
1
 62
3
  6
CONTINUOUS
 10
590.755
 20
402.687
 30
0
 11
587
 21
402.7
 31
0
  0
LINE
  8
1
 62
3
  6
CONTINUOUS
 10
586.83
 20
402.4
 30
0
 11
588.72
 21
399.15
 31
0
  0
LINE
  8
1
 62
3
  6
CONTINUOUS
 10
588.72
 20
398.95
 30
0
 11
586.83
 21
395.7
 31
0
  0
LINE
  8
1
 62
3
  6
CONTINUOUS
 10
587
 20
395.4
 30
0
 11
590.76
 21
395.41
 31
0
  0
LINE
  8
1
 62
3
  6
CONTINUOUS
 10
590.93
 20
395.31
 30
0
 11
592.8
 21
392.05
 31
0
  0
LINE
  8
1
 62
3
  6
CONTINUOUS
 10
593.15
 20
392.05
 30
0
 11
595.02
 21
395.31
 31
0
  0
LINE
  8
1
 62
3
  6
CONTINUOUS
 10
580.54
 20
318.34
 30
0
 11
578.67
 21
321.6
 31
0
  0
LINE
  8
1
 62
3
  6
CONTINUOUS
 10
578.32
 20
321.6
 30
0
 11
576.449
 21
318.338
 31
0
  0
LINE
  8
1
 62
3
  6
CONTINUOUS
 10
576.275
 20
318.237
 30
0
 11
572.52
 21
318.25
 31
0
  0
LINE
  8
1
 62
3
  6
CONTINUOUS
 10
572.35
 20
317.95
 30
0
 11
574.23
 21
314.7
 31
0
  0
LINE
  8
1
 62
3
  6
CONTINUOUS
 10
574.23
 20
314.5
 30
0
 11
572.35
 21
311.25
 31
0
  0
LINE
  8
1
 62
3
  6
CONTINUOUS
 10
572.52
 20
310.95
 30
0
 11
576.28
 21
310.96
 31
0
  0
LINE
  8
1
 62
3
  6
CONTINUOUS
 10
576.45
 20
310.86
 30
0
 11
578.32
 21
307.6
 31
0
  0
LINE
  8
1
 62
3
  6
CONTINUOUS
 10
578.67
 20
307.6
 30
0
 11
580.54
 21
310.86
 31
0
  0
LINE
  8
1
 62
3
  6
CONTINUOUS
 10
580.71
 20
310.96
 30
0
 11
584.47
 21
310.95
 31
0
  0
LINE
  8
1
 62
3
  6
CONTINUOUS
 10
584.64
 20
311.25
 30
0
 11
582.75
 21
314.5
 31
0
  0
LINE
  8
1
 62
3
  6
CONTINUOUS
 10
582.75
 20
314.7
 30
0
 11
584.64
 21
317.95
 31
0
  0
LINE
  8
1
 62
3
  6
CONTINUOUS
 10
584.47
 20
318.25
 30
0
 11
580.71
 21
318.24
 31
0
  0
LINE
  8
1
 62
3
  6
CONTINUOUS
 10
441.48
 20
269.46
 30
0
 11
439.59
 21
266.21
 31
0
  0
LINE
  8
1
 62
3
  6
CONTINUOUS
 10
439.77
 20
265.91
 30
0
 11
443.52
 21
265.92
 31
0
  0
LINE
  8
1
 62
3
  6
CONTINUOUS
 10
443.7
 20
265.82
 30
0
 11
445.57
 21
262.56
 31
0
  0
LINE
  8
1
 62
3
  6
CONTINUOUS
 10
445.91
 20
262.56
 30
0
 11
447.78
 21
265.82
 31
0
  0
LINE
  8
1
 62
3
  6
CONTINUOUS
 10
447.96
 20
265.92
 30
0
 11
451.71
 21
265.91
 31
0
  0
LINE
  8
1
 62
3
  6
CONTINUOUS
 10
451.89
 20
266.21
 30
0
 11
450
 21
269.46
 31
0
  0
LINE
  8
1
 62
3
  6
CONTINUOUS
 10
450
 20
269.66
 30
0
 11
451.89
 21
272.91
 31
0
  0
LINE
  8
1
 62
3
  6
CONTINUOUS
 10
451.71
 20
273.21
 30
0
 11
447.96
 21
273.2
 31
0
  0
LINE
  8
1
 62
3
  6
CONTINUOUS
 10
447.78
 20
273.3
 30
0
 11
445.91
 21
276.56
 31
0
  0
LINE
  8
1
 62
3
  6
CONTINUOUS
 10
445.57
 20
276.56
 30
0
 11
443.699
 21
273.298
 31
0
  0
LINE
  8
1
 62
3
  6
CONTINUOUS
 10
443.525
 20
273.197
 30
0
 11
439.77
 21
273.21
 31
0
  0
LINE
  8
1
 62
3
  6
CONTINUOUS
 10
439.59
 20
272.91
 30
0
 11
441.48
 21
269.66
 31
0
  0
LINE
  8
1
 62
3
  6
CONTINUOUS
 10
507.93
 20
250.36
 30
0
 11
509.82
 21
253.61
 31
0
  0
LINE
  8
1
 62
3
  6
CONTINUOUS
 10
509.64
 20
253.91
 30
0
 11
505.89
 21
253.9
 31
0
  0
LINE
  8
1
 62
3
  6
CONTINUOUS
 10
505.71
 20
254
 30
0
 11
503.84
 21
257.25
 31
0
  0
LINE
  8
1
 62
3
  6
CONTINUOUS
 10
503.5
 20
257.25
 30
0
 11
501.629
 21
253.998
 31
0
  0
LINE
  8
1
 62
3
  6
CONTINUOUS
 10
501.455
 20
253.897
 30
0
 11
497.7
 21
253.91
 31
0
  0
LINE
  8
1
 62
3
  6
CONTINUOUS
 10
497.52
 20
253.61
 30
0
 11
499.41
 21
250.36
 31
0
  0
LINE
  8
1
 62
3
  6
CONTINUOUS
 10
499.41
 20
250.16
 30
0
 11
497.52
 21
246.91
 31
0
  0
LINE
  8
1
 62
3
  6
CONTINUOUS
 10
497.7
 20
246.61
 30
0
 11
501.45
 21
246.62
 31
0
  0
LINE
  8
1
 62
3
  6
CONTINUOUS
 10
501.63
 20
246.52
 30
0
 11
503.5
 21
243.26
 31
0
  0
LINE
  8
1
 62
3
  6
CONTINUOUS
 10
503.84
 20
243.26
 30
0
 11
505.71
 21
246.52
 31
0
  0
LINE
  8
1
 62
3
  6
CONTINUOUS
 10
505.89
 20
246.62
 30
0
 11
509.64
 21
246.61
 31
0
  0
LINE
  8
1
 62
3
  6
CONTINUOUS
 10
509.82
 20
246.91
 30
0
 11
507.93
 21
250.16
 31
0
  0
LINE
  8
1
 62
3
  6
CONTINUOUS
 10
537.7
 20
216.58
 30
0
 11
539.58
 21
219.83
 31
0
  0
LINE
  8
1
 62
3
  6
CONTINUOUS
 10
539.41
 20
220.13
 30
0
 11
535.65
 21
220.11
 31
0
  0
LINE
  8
1
 62
3
  6
CONTINUOUS
 10
535.48
 20
220.22
 30
0
 11
533.61
 21
223.47
 31
0
  0
LINE
  8
1
 62
3
  6
CONTINUOUS
 10
533.26
 20
223.47
 30
0
 11
531.399
 21
220.218
 31
0
  0
LINE
  8
1
 62
3
  6
CONTINUOUS
 10
531.225
 20
220.117
 30
0
 11
527.46
 21
220.13
 31
0
  0
LINE
  8
1
 62
3
  6
CONTINUOUS
 10
527.29
 20
219.83
 30
0
 11
529.18
 21
216.58
 31
0
  0
LINE
  8
1
 62
3
  6
CONTINUOUS
 10
529.18
 20
216.38
 30
0
 11
527.29
 21
213.13
 31
0
  0
LINE
  8
1
 62
3
  6
CONTINUOUS
 10
527.46
 20
212.83
 30
0
 11
531.22
 21
212.84
 31
0
  0
LINE
  8
1
 62
3
  6
CONTINUOUS
 10
531.4
 20
212.74
 30
0
 11
533.26
 21
209.48
 31
0
  0
LINE
  8
1
 62
3
  6
CONTINUOUS
 10
533.61
 20
209.48
 30
0
 11
535.48
 21
212.74
 31
0
  0
LINE
  8
1
 62
3
  6
CONTINUOUS
 10
535.65
 20
212.84
 30
0
 11
539.41
 21
212.83
 31
0
  0
LINE
  8
1
 62
3
  6
CONTINUOUS
 10
539.58
 20
213.13
 30
0
 11
537.7
 21
216.38
 31
0
  0
LINE
  8
1
 62
3
  6
CONTINUOUS
 10
395.62
 20
211.55
 30
0
 11
393.73
 21
208.3
 31
0
  0
LINE
  8
1
 62
3
  6
CONTINUOUS
 10
393.91
 20
208
 30
0
 11
397.66
 21
208.01
 31
0
  0
LINE
  8
1
 62
3
  6
CONTINUOUS
 10
397.84
 20
207.91
 30
0
 11
399.71
 21
204.65
 31
0
  0
LINE
  8
1
 62
3
  6
CONTINUOUS
 10
400.05
 20
204.65
 30
0
 11
401.92
 21
207.91
 31
0
  0
LINE
  8
1
 62
3
  6
CONTINUOUS
 10
402.1
 20
208.01
 30
0
 11
405.85
 21
208
 31
0
  0
LINE
  8
1
 62
3
  6
CONTINUOUS
 10
406.03
 20
208.3
 30
0
 11
404.14
 21
211.55
 31
0
  0
LINE
  8
1
 62
3
  6
CONTINUOUS
 10
404.14
 20
211.75
 30
0
 11
406.03
 21
215
 31
0
  0
LINE
  8
1
 62
3
  6
CONTINUOUS
 10
405.85
 20
215.3
 30
0
 11
402.1
 21
215.29
 31
0
  0
LINE
  8
1
 62
3
  6
CONTINUOUS
 10
401.92
 20
215.39
 30
0
 11
400.05
 21
218.65
 31
0
  0
LINE
  8
1
 62
3
  6
CONTINUOUS
 10
399.71
 20
218.65
 30
0
 11
397.839
 21
215.388
 31
0
  0
LINE
  8
1
 62
3
  6
CONTINUOUS
 10
397.665
 20
215.287
 30
0
 11
393.91
 21
215.3
 31
0
  0
LINE
  8
1
 62
3
  6
CONTINUOUS
 10
393.73
 20
215
 30
0
 11
395.62
 21
211.75
 31
0
  0
LINE
  8
1
 62
3
  6
CONTINUOUS
 10
468.03
 20
123.88
 30
0
 11
466.14
 21
120.63
 31
0
  0
LINE
  8
1
 62
3
  6
CONTINUOUS
 10
466.32
 20
120.33
 30
0
 11
470.07
 21
120.35
 31
0
  0
LINE
  8
1
 62
3
  6
CONTINUOUS
 10
470.25
 20
120.25
 30
0
 11
472.12
 21
116.99
 31
0
  0
LINE
  8
1
 62
3
  6
CONTINUOUS
 10
472.46
 20
116.99
 30
0
 11
474.33
 21
120.25
 31
0
  0
LINE
  8
1
 62
3
  6
CONTINUOUS
 10
474.51
 20
120.35
 30
0
 11
478.26
 21
120.33
 31
0
  0
LINE
  8
1
 62
3
  6
CONTINUOUS
 10
478.44
 20
120.63
 30
0
 11
476.55
 21
123.88
 31
0
  0
LINE
  8
1
 62
3
  6
CONTINUOUS
 10
476.55
 20
124.08
 30
0
 11
478.44
 21
127.33
 31
0
  0
LINE
  8
1
 62
3
  6
CONTINUOUS
 10
478.26
 20
127.63
 30
0
 11
474.51
 21
127.62
 31
0
  0
LINE
  8
1
 62
3
  6
CONTINUOUS
 10
474.33
 20
127.72
 30
0
 11
472.46
 21
130.98
 31
0
  0
LINE
  8
1
 62
3
  6
CONTINUOUS
 10
472.12
 20
130.98
 30
0
 11
470.249
 21
127.718
 31
0
  0
LINE
  8
1
 62
3
  6
CONTINUOUS
 10
470.075
 20
127.617
 30
0
 11
466.32
 21
127.63
 31
0
  0
LINE
  8
1
 62
3
  6
CONTINUOUS
 10
466.14
 20
127.33
 30
0
 11
468.03
 21
124.08
 31
0
  0
LINE
  8
1
 62
3
  6
CONTINUOUS
 10
44.506
 20
629.235
 30
0
 11
47.677
 21
631.062
 31
0
  0
LINE
  8
1
 62
3
  6
CONTINUOUS
 10
49.276
 20
628.295
 30
0
 11
46.108
 21
626.461
 31
0
  0
LINE
  8
1
 62
3
  6
CONTINUOUS
 10
28.866
 20
596.585
 30
0
 11
28.856
 21
592.925
 31
0
  0
LINE
  8
1
 62
3
  6
CONTINUOUS
 10
25.666
 20
592.925
 30
0
 11
25.666
 21
596.582
 31
0
  0
LINE
  8
1
 62
3
  6
CONTINUOUS
 10
8.416
 20
626.465
 30
0
 11
5.248
 21
628.299
 31
0
  0
LINE
  8
1
 62
3
  6
CONTINUOUS
 10
6.846
 20
631.065
 30
0
 11
10.013
 21
629.23
 31
0
  0
LINE
  8
1
 62
3
  6
CONTINUOUS
 10
660.208
 20
95.135
 30
0
 11
643.283
 21
66.019
 31
0
  0
LINE
  8
1
 62
3
  6
CONTINUOUS
 10
643.283
 20
64.208
 30
0
 11
660.208
 21
35.092
 31
0
  0
LINE
  8
1
 62
3
  6
CONTINUOUS
 10
658.666
 20
32.403
 30
0
 11
624.978
 21
32.511
 31
0
  0
LINE
  8
1
 62
3
  6
CONTINUOUS
 10
623.419
 20
31.596
 30
0
 11
606.674
 21
2.391
 31
0
  0
LINE
  8
1
 62
3
  6
CONTINUOUS
 10
603.554
 20
2.391
 30
0
 11
586.809
 21
31.596
 31
0
  0
LINE
  8
1
 62
3
  6
CONTINUOUS
 10
585.249
 20
32.511
 30
0
 11
551.562
 21
32.403
 31
0
  0
LINE
  8
1
 62
3
  6
CONTINUOUS
 10
550.02
 20
35.092
 30
0
 11
566.944
 21
64.208
 31
0
  0
LINE
  8
1
 62
3
  6
CONTINUOUS
 10
566.944
 20
66.019
 30
0
 11
550.02
 21
95.135
 31
0
  0
LINE
  8
1
 62
3
  6
CONTINUOUS
 10
551.562
 20
97.824
 30
0
 11
585.249
 21
97.717
 31
0
  0
LINE
  8
1
 62
3
  6
CONTINUOUS
 10
586.809
 20
98.631
 30
0
 11
603.554
 21
127.85
 31
0
  0
LINE
  8
1
 62
3
  6
CONTINUOUS
 10
606.674
 20
127.85
 30
0
 11
623.419
 21
98.631
 31
0
  0
LINE
  8
1
 62
3
  6
CONTINUOUS
 10
624.978
 20
97.717
 30
0
 11
658.666
 21
97.824
 31
0
  0
LINE
  8
1
 62
3
  6
CONTINUOUS
 10
605.412
 20
83.006
 30
0
 11
603.912
 21
83.006
 31
0
  0
LINE
  8
1
 62
3
  6
CONTINUOUS
 10
602.303
 20
65.925
 30
0
 11
587.419
 21
65.925
 31
0
  0
LINE
  8
1
 62
3
  6
CONTINUOUS
 10
587.427
 20
64.425
 30
0
 11
602.302
 21
64.425
 31
0
  0
LINE
  8
1
 62
3
  6
CONTINUOUS
 10
603.91
 20
47.526
 30
0
 11
605.412
 21
47.526
 31
0
  0
LINE
  8
1
 62
3
  6
CONTINUOUS
 10
607.802
 20
64.425
 30
0
 11
622.887
 21
64.425
 31
0
  0
LINE
  8
1
 62
3
  6
CONTINUOUS
 10
622.895
 20
65.925
 30
0
 11
607.803
 21
65.925
 31
0
  0
LINE
  8
1
 62
3
  6
CONTINUOUS
 10
94.506
 20
629.235
 30
0
 11
97.677
 21
631.062
 31
0
  0
LINE
  8
1
 62
3
  6
CONTINUOUS
 10
99.276
 20
628.295
 30
0
 11
96.108
 21
626.461
 31
0
  0
LINE
  8
1
 62
3
  6
CONTINUOUS
 10
78.866
 20
596.585
 30
0
 11
78.856
 21
592.925
 31
0
  0
LINE
  8
1
 62
3
  6
CONTINUOUS
 10
75.666
 20
592.925
 30
0
 11
75.666
 21
596.582
 31
0
  0
LINE
  8
1
 62
3
  6
CONTINUOUS
 10
58.416
 20
626.465
 30
0
 11
55.248
 21
628.299
 31
0
  0
LINE
  8
1
 62
3
  6
CONTINUOUS
 10
56.846
 20
631.065
 30
0
 11
60.013
 21
629.23
 31
0
  0
LINE
  8
1
 62
3
  6
CONTINUOUS
 10
144.506
 20
629.235
 30
0
 11
147.677
 21
631.062
 31
0
  0
LINE
  8
1
 62
3
  6
CONTINUOUS
 10
149.276
 20
628.295
 30
0
 11
146.108
 21
626.461
 31
0
  0
LINE
  8
1
 62
3
  6
CONTINUOUS
 10
128.866
 20
596.585
 30
0
 11
128.856
 21
592.925
 31
0
  0
LINE
  8
1
 62
3
  6
CONTINUOUS
 10
125.666
 20
592.925
 30
0
 11
125.666
 21
596.582
 31
0
  0
LINE
  8
1
 62
3
  6
CONTINUOUS
 10
108.416
 20
626.465
 30
0
 11
105.248
 21
628.299
 31
0
  0
LINE
  8
1
 62
3
  6
CONTINUOUS
 10
106.846
 20
631.065
 30
0
 11
110.013
 21
629.23
 31
0
  0
LINE
  8
1
 62
3
  6
CONTINUOUS
 10
194.506
 20
629.235
 30
0
 11
197.677
 21
631.062
 31
0
  0
LINE
  8
1
 62
3
  6
CONTINUOUS
 10
199.276
 20
628.295
 30
0
 11
196.108
 21
626.461
 31
0
  0
LINE
  8
1
 62
3
  6
CONTINUOUS
 10
178.866
 20
596.585
 30
0
 11
178.856
 21
592.925
 31
0
  0
LINE
  8
1
 62
3
  6
CONTINUOUS
 10
175.666
 20
592.925
 30
0
 11
175.666
 21
596.582
 31
0
  0
LINE
  8
1
 62
3
  6
CONTINUOUS
 10
158.416
 20
626.465
 30
0
 11
155.248
 21
628.299
 31
0
  0
LINE
  8
1
 62
3
  6
CONTINUOUS
 10
156.846
 20
631.065
 30
0
 11
160.013
 21
629.23
 31
0
  0
LINE
  8
1
 62
3
  6
CONTINUOUS
 10
244.506
 20
629.235
 30
0
 11
247.677
 21
631.062
 31
0
  0
LINE
  8
1
 62
3
  6
CONTINUOUS
 10
249.276
 20
628.295
 30
0
 11
246.108
 21
626.461
 31
0
  0
LINE
  8
1
 62
3
  6
CONTINUOUS
 10
228.866
 20
596.585
 30
0
 11
228.856
 21
592.925
 31
0
  0
LINE
  8
1
 62
3
  6
CONTINUOUS
 10
225.666
 20
592.925
 30
0
 11
225.666
 21
596.582
 31
0
  0
LINE
  8
1
 62
3
  6
CONTINUOUS
 10
208.416
 20
626.465
 30
0
 11
205.248
 21
628.299
 31
0
  0
LINE
  8
1
 62
3
  6
CONTINUOUS
 10
206.846
 20
631.065
 30
0
 11
210.013
 21
629.23
 31
0
  0
LINE
  8
1
 62
3
  6
CONTINUOUS
 10
294.506
 20
629.235
 30
0
 11
297.677
 21
631.062
 31
0
  0
LINE
  8
1
 62
3
  6
CONTINUOUS
 10
299.276
 20
628.295
 30
0
 11
296.108
 21
626.461
 31
0
  0
LINE
  8
1
 62
3
  6
CONTINUOUS
 10
278.866
 20
596.585
 30
0
 11
278.856
 21
592.925
 31
0
  0
LINE
  8
1
 62
3
  6
CONTINUOUS
 10
275.666
 20
592.925
 30
0
 11
275.666
 21
596.582
 31
0
  0
LINE
  8
1
 62
3
  6
CONTINUOUS
 10
258.416
 20
626.465
 30
0
 11
255.248
 21
628.299
 31
0
  0
LINE
  8
1
 62
3
  6
CONTINUOUS
 10
256.846
 20
631.065
 30
0
 11
260.013
 21
629.23
 31
0
  0
LINE
  8
1
 62
3
  6
CONTINUOUS
 10
344.506
 20
629.235
 30
0
 11
347.677
 21
631.062
 31
0
  0
LINE
  8
1
 62
3
  6
CONTINUOUS
 10
349.276
 20
628.295
 30
0
 11
346.108
 21
626.461
 31
0
  0
LINE
  8
1
 62
3
  6
CONTINUOUS
 10
328.866
 20
596.585
 30
0
 11
328.856
 21
592.925
 31
0
  0
LINE
  8
1
 62
3
  6
CONTINUOUS
 10
325.666
 20
592.925
 30
0
 11
325.666
 21
596.582
 31
0
  0
LINE
  8
1
 62
3
  6
CONTINUOUS
 10
308.416
 20
626.465
 30
0
 11
305.248
 21
628.299
 31
0
  0
LINE
  8
1
 62
3
  6
CONTINUOUS
 10
306.846
 20
631.065
 30
0
 11
310.013
 21
629.23
 31
0
  0
LINE
  8
1
 62
3
  6
CONTINUOUS
 10
394.506
 20
629.235
 30
0
 11
397.677
 21
631.062
 31
0
  0
LINE
  8
1
 62
3
  6
CONTINUOUS
 10
399.276
 20
628.295
 30
0
 11
396.108
 21
626.461
 31
0
  0
LINE
  8
1
 62
3
  6
CONTINUOUS
 10
378.866
 20
596.585
 30
0
 11
378.856
 21
592.925
 31
0
  0
LINE
  8
1
 62
3
  6
CONTINUOUS
 10
375.666
 20
592.925
 30
0
 11
375.666
 21
596.582
 31
0
  0
LINE
  8
1
 62
3
  6
CONTINUOUS
 10
358.416
 20
626.465
 30
0
 11
355.248
 21
628.299
 31
0
  0
LINE
  8
1
 62
3
  6
CONTINUOUS
 10
356.846
 20
631.065
 30
0
 11
360.013
 21
629.23
 31
0
  0
LINE
  8
1
 62
3
  6
CONTINUOUS
 10
444.506
 20
629.235
 30
0
 11
447.677
 21
631.062
 31
0
  0
LINE
  8
1
 62
3
  6
CONTINUOUS
 10
449.276
 20
628.295
 30
0
 11
446.108
 21
626.461
 31
0
  0
LINE
  8
1
 62
3
  6
CONTINUOUS
 10
428.866
 20
596.585
 30
0
 11
428.856
 21
592.925
 31
0
  0
LINE
  8
1
 62
3
  6
CONTINUOUS
 10
425.666
 20
592.925
 30
0
 11
425.666
 21
596.582
 31
0
  0
LINE
  8
1
 62
3
  6
CONTINUOUS
 10
408.416
 20
626.465
 30
0
 11
405.248
 21
628.299
 31
0
  0
LINE
  8
1
 62
3
  6
CONTINUOUS
 10
406.846
 20
631.065
 30
0
 11
410.013
 21
629.23
 31
0
  0
LINE
  8
1
 62
3
  6
CONTINUOUS
 10
494.506
 20
629.235
 30
0
 11
497.677
 21
631.062
 31
0
  0
LINE
  8
1
 62
3
  6
CONTINUOUS
 10
499.276
 20
628.295
 30
0
 11
496.108
 21
626.461
 31
0
  0
LINE
  8
1
 62
3
  6
CONTINUOUS
 10
478.866
 20
596.585
 30
0
 11
478.856
 21
592.925
 31
0
  0
LINE
  8
1
 62
3
  6
CONTINUOUS
 10
475.666
 20
592.925
 30
0
 11
475.666
 21
596.582
 31
0
  0
LINE
  8
1
 62
3
  6
CONTINUOUS
 10
458.416
 20
626.465
 30
0
 11
455.248
 21
628.299
 31
0
  0
LINE
  8
1
 62
3
  6
CONTINUOUS
 10
456.846
 20
631.065
 30
0
 11
460.013
 21
629.23
 31
0
  0
ARC
  8
1
 62
3
  6
CONTINUOUS
 10
471.95
 20
577.34
 30
0
 40
1
 50
0
 51
90
  0
ARC
  8
1
 62
3
  6
CONTINUOUS
 10
475.45
 20
577.34
 30
0
 40
1
 50
90
 51
180
  0
ARC
  8
1
 62
3
  6
CONTINUOUS
 10
518.13
 20
547.96
 30
0
 40
6.24698327194811
 50
174.672711551814
 51
275.975384496302
  0
ARC
  8
1
 62
3
  6
CONTINUOUS
 10
546.32
 20
249.61
 30
0
 40
293.435224879359
 50
62.5887651268214
 51
95.3853504920377
  0
ARC
  8
1
 62
3
  6
CONTINUOUS
 10
678.32
 20
504.67
 30
0
 40
6.24763955426364
 50
-69.7660790823487
 51
60.3574934234983
  0
ARC
  8
1
 62
3
  6
CONTINUOUS
 10
745.49
 20
322.94
 30
0
 40
187.500818664879
 50
110.28673389903
 51
137.159164657139
  0
ARC
  8
1
 62
3
  6
CONTINUOUS
 10
612.59
 20
446.18
 30
0
 40
6.24811171475034
 50
137.140295785911
 51
263.386539517685
  0
ARC
  8
1
 62
3
  6
CONTINUOUS
 10
602.22
 20
356.88
 30
0
 40
83.6484943080269
 50
52.2205262458895
 51
83.3753967188064
  0
ARC
  8
1
 62
3
  6
CONTINUOUS
 10
649.64
 20
418.06
 30
0
 40
6.25079994880658
 50
-69.5941118520646
 51
52.2134480977704
  0
ARC
  8
1
 62
3
  6
CONTINUOUS
 10
696.38
 20
292.37
 30
0
 40
127.846871295312
 50
110.3981612114
 51
150.507487102595
  0
ARC
  8
1
 62
3
  6
CONTINUOUS
 10
590.54
 20
352.23
 30
0
 40
6.25139984323505
 50
150.482481714048
 51
261.908777381686
  0
ARC
  8
1
 62
3
  6
CONTINUOUS
 10
579.75
 20
275.84
 30
0
 40
70.8960372658445
 50
48.7798652258132
 51
81.9647600135259
  0
ARC
  8
1
 62
3
  6
CONTINUOUS
 10
622.35
 20
324.47
 30
0
 40
6.25015199815172
 50
-69.3903070624686
 51
48.7623327235701
  0
ARC
  8
1
 62
3
  6
CONTINUOUS
 10
674.79
 20
184.84
 30
0
 40
142.902575204228
 50
110.583262777585
 51
152.430806367072
  0
ARC
  8
1
 62
3
  6
CONTINUOUS
 10
553.65
 20
248.09
 30
0
 40
6.24849581899512
 50
152.450723017942
 51
272.38213092115
  0
ARC
  8
1
 62
3
  6
CONTINUOUS
 10
556.51
 20
178.02
 30
0
 40
63.8729394970985
 50
59.9947508837882
 51
92.3329159105684
  0
ARC
  8
1
 62
3
  6
CONTINUOUS
 10
585.32
 20
227.92
 30
0
 40
6.25019999680012
 50
-53.9726266148966
 51
59.948119051885
  0
ARC
  8
1
 62
3
  6
CONTINUOUS
 10
797.04
 20
-47.67
 30
0
 40
341.272797773277
 50
127.56060768145
 51
158.53903711409
  0
ARC
  8
1
 62
3
  6
CONTINUOUS
 10
473.7
 20
79.68
 30
0
 40
6.24763955426369
 50
203.451099134831
 51
336.512404222346
  0
ARC
  8
1
 62
3
  6
CONTINUOUS
 10
150.35
 20
-47.67
 30
0
 40
341.271346145556
 50
21.4609628859103
 51
52.467429766347
  0
ARC
  8
1
 62
3
  6
CONTINUOUS
 10
362.064
 20
227.917
 30
0
 40
6.24941477260071
 50
120.023483169446
 51
232.469978559761
  0
ARC
  8
1
 62
3
  6
CONTINUOUS
 10
390.89
 20
178.03
 30
0
 40
63.8659769595674
 50
87.4971197958605
 51
120.020732319802
  0
ARC
  8
1
 62
3
  6
CONTINUOUS
 10
393.74
 20
248.08
 30
0
 40
6.2452979112289
 50
269.440363266224
 51
387.630515089016
  0
ARC
  8
1
 62
3
  6
CONTINUOUS
 10
272.61
 20
184.85
 30
0
 40
142.893197178872
 50
27.567494994535
 51
69.4153275421993
  0
ARC
  8
1
 62
3
  6
CONTINUOUS
 10
325.05
 20
324.47
 30
0
 40
6.25000000000002
 50
131.306529545273
 51
249.390307062468
  0
ARC
  8
1
 62
3
  6
CONTINUOUS
 10
367.64
 20
275.85
 30
0
 40
70.8927415184375
 50
98.0363698162749
 51
131.22546046377
  0
ARC
  8
1
 62
3
  6
CONTINUOUS
 10
356.86
 20
352.23
 30
0
 40
6.25083994355958
 50
278.000474114893
 51
389.517518285952
  0
ARC
  8
1
 62
3
  6
CONTINUOUS
 10
251.02
 20
292.37
 30
0
 40
127.846321808646
 50
29.4925128974054
 51
69.6060394707609
  0
ARC
  8
1
 62
3
  6
CONTINUOUS
 10
297.75
 20
418.06
 30
0
 40
6.25235955460018
 50
127.786551902229
 51
249.594111852065
  0
ARC
  8
1
 62
3
  6
CONTINUOUS
 10
345.16
 20
356.89
 30
0
 40
83.6425113205002
 50
96.6185888216382
 51
127.778256148524
  0
ARC
  8
1
 62
3
  6
CONTINUOUS
 10
334.8
 20
446.18
 30
0
 40
6.25159979525239
 50
276.613460482315
 51
402.859704214089
  0
ARC
  8
1
 62
3
  6
CONTINUOUS
 10
201.9
 20
322.93
 30
0
 40
187.502001055989
 50
42.8430759519432
 51
69.7143255369958
  0
ARC
  8
1
 62
3
  6
CONTINUOUS
 10
269.08
 20
504.67
 30
0
 40
6.24887989963001
 50
119.642506576502
 51
249.680047684536
  0
ARC
  8
1
 62
3
  6
CONTINUOUS
 10
401.08
 20
249.61
 30
0
 40
293.435424241859
 50
84.6165934824133
 51
117.411234873179
  0
ARC
  8
1
 62
3
  6
CONTINUOUS
 10
429.26
 20
547.97
 30
0
 40
6.25387080135178
 50
264.034152890688
 51
365.235953599343
  0
ARC
  8
1
 62
3
  6
CONTINUOUS
 10
260.13
 20
34.6
 30
0
 40
6.2539530698591
 50
84.0332005172978
 51
185.321334244246
  0
ARC
  8
1
 62
3
  6
CONTINUOUS
 10
288.31
 20
332.96
 30
0
 40
293.435282099818
 50
264.616611801577
 51
297.41131831679
  0
ARC
  8
1
 62
3
  6
CONTINUOUS
 10
420.31
 20
77.9
 30
0
 40
6.24900328052404
 50
299.645940667283
 51
429.685463127172
  0
ARC
  8
1
 62
3
  6
CONTINUOUS
 10
487.49
 20
259.63
 30
0
 40
187.502103353536
 50
222.84290069606
 51
249.713085430076
  0
ARC
  8
1
 62
3
  6
CONTINUOUS
 10
354.59
 20
136.38
 30
0
 40
6.2516712165628
 50
96.6162285726648
 51
222.854438319446
  0
ARC
  8
1
 62
3
  6
CONTINUOUS
 10
344.22
 20
225.68
 30
0
 40
83.6424190049523
 50
276.624396996936
 51
307.778377927464
  0
ARC
  8
1
 62
3
  6
CONTINUOUS
 10
391.63
 20
164.51
 30
0
 40
6.25220297175325
 50
307.788179237146
 51
429.597306523058
  0
ARC
  8
1
 62
3
  6
CONTINUOUS
 10
438.37
 20
290.2
 30
0
 40
127.845934002611
 50
209.49241054128
 51
249.60168258509
  0
ARC
  8
1
 62
3
  6
CONTINUOUS
 10
332.53
 20
230.33
 30
0
 40
6.25094552847804
 50
98.0031700545293
 51
209.435644438792
  0
ARC
  8
1
 62
3
  6
CONTINUOUS
 10
321.74
 20
306.72
 30
0
 40
70.8923450451458
 50
278.043007313498
 51
311.22546046377
  0
ARC
  8
1
 62
3
  6
CONTINUOUS
 10
364.34
 20
258.1
 30
0
 40
6.25015199815174
 50
311.23766727643
 51
429.390307062467
  0
ARC
  8
1
 62
3
  6
CONTINUOUS
 10
416.78
 20
397.72
 30
0
 40
142.89321362472
 50
207.567372165636
 51
249.415327542199
  0
ARC
  8
1
 62
3
  6
CONTINUOUS
 10
295.65
 20
334.49
 30
0
 40
6.24507045596762
 50
87.7046206592539
 51
207.627786105138
  0
ARC
  8
1
 62
3
  6
CONTINUOUS
 10
298.5
 20
404.54
 30
0
 40
63.86594529951
 50
267.666828461814
 51
300.017176329346
  0
ARC
  8
1
 62
3
  6
CONTINUOUS
 10
327.32
 20
354.65
 30
0
 40
6.24883365117044
 50
300.048536190881
 51
413.920073438721
  0
ARC
  8
1
 62
3
  6
CONTINUOUS
 10
539.03
 20
630.24
 30
0
 40
341.271031810495
 50
201.460901460916
 51
232.44170578533
  0
ARC
  8
1
 62
3
  6
CONTINUOUS
 10
215.69
 20
502.88
 30
0
 40
6.25071523907466
 50
23.5753172021073
 51
70.5360699006431
  0
ARC
  8
1
 62
3
  6
CONTINUOUS
 10
217.44
 20
507.831
 30
0
 40
1.00006899761965
 50
70.5504312355569
 51
180
  0
ARC
  8
1
 62
3
  6
CONTINUOUS
 10
213.935
 20
507.836
 30
0
 40
1
 50
0
 51
109.522712663306
  0
ARC
  8
1
 62
3
  6
CONTINUOUS
 10
215.69
 20
502.89
 30
0
 40
6.24759673794655
 50
109.53414571939
 51
156.517161156919
  0
ARC
  8
1
 62
3
  6
CONTINUOUS
 10
-107.65
 20
630.24
 30
0
 40
341.272642680306
 50
307.560628303528
 51
338.538942290647
  0
ARC
  8
1
 62
3
  6
CONTINUOUS
 10
104.07
 20
354.65
 30
0
 40
6.25028007372469
 50
126.024677525436
 51
239.946022908984
  0
ARC
  8
1
 62
3
  6
CONTINUOUS
 10
132.88
 20
404.55
 30
0
 40
63.873463449229
 50
239.994543025244
 51
272.332660338928
  0
ARC
  8
1
 62
3
  6
CONTINUOUS
 10
135.74
 20
334.48
 30
0
 40
6.24841171818887
 50
-27.5499818760332
 51
92.3847988171963
  0
ARC
  8
1
 62
3
  6
CONTINUOUS
 10
14.6
 20
397.73
 30
0
 40
142.90221838726
 50
290.583262777585
 51
332.430774943965
  0
ARC
  8
1
 62
3
  6
CONTINUOUS
 10
67.04
 20
258.1
 30
0
 40
6.24999999999997
 50
110.609692937532
 51
228.760632118786
  0
ARC
  8
1
 62
3
  6
CONTINUOUS
 10
109.64
 20
306.72
 30
0
 40
70.8955638104388
 50
228.774389057287
 51
261.964543512915
  0
ARC
  8
1
 62
3
  6
CONTINUOUS
 10
98.85
 20
230.34
 30
0
 40
6.25139040534183
 50
-29.5175182859517
 51
81.8984133241811
  0
ARC
  8
1
 62
3
  6
CONTINUOUS
 10
-6.99
 20
290.2
 30
0
 40
127.846321808646
 50
290.398268861562
 51
330.507487102595
  0
ARC
  8
1
 62
3
  6
CONTINUOUS
 10
39.75
 20
164.51
 30
0
 40
6.25013639851164
 50
110.403688868307
 51
232.212554511126
  0
ARC
  8
1
 62
3
  6
CONTINUOUS
 10
87.16
 20
225.68
 30
0
 40
83.6489136869093
 50
232.221676373434
 51
263.375554753839
  0
ARC
  8
1
 62
3
  6
CONTINUOUS
 10
76.8
 20
136.38
 30
0
 40
6.24846893246658
 50
-42.8567943008858
 51
83.4755129674555
  0
ARC
  8
1
 62
3
  6
CONTINUOUS
 10
-56.11
 20
259.63
 30
0
 40
187.500854110055
 50
290.286627950658
 51
317.159099531094
  0
ARC
  8
1
 62
3
  6
CONTINUOUS
 10
11.07
 20
77.9
 30
0
 40
6.24794214121737
 50
110.323136829663
 51
240.357493423498
  0
ARC
  8
1
 62
3
  6
CONTINUOUS
 10
143.07
 20
332.96
 30
0
 40
293.435424241859
 50
242.588765126821
 51
275.385416606926
  0
ARC
  8
1
 62
3
  6
CONTINUOUS
 10
171.26
 20
34.6
 30
0
 40
6.24680478324719
 50
-5.32728844818665
 51
95.9633978641174
  0
ARC
  8
1
 62
3
  6
CONTINUOUS
 10
187.23
 20
425.83
 30
0
 40
0.197230829233185
 50
-30.465544919449
 51
30.4655449194632
  0
ARC
  8
1
 62
3
  6
CONTINUOUS
 10
185.69
 20
422.38
 30
0
 40
0.197230829233161
 50
149.534455080533
 51
270
  0
ARC
  8
1
 62
3
  6
CONTINUOUS
 10
189.45
 20
421.99
 30
0
 40
0.199999999999989
 50
30.465544919449
 51
90
  0
ARC
  8
1
 62
3
  6
CONTINUOUS
 10
191.66
 20
418.93
 30
0
 40
0.197230829233161
 50
210.465544919467
 51
330.945395900918
  0
ARC
  8
1
 62
3
  6
CONTINUOUS
 10
193.875
 20
421.993
 30
0
 40
0.200192407448435
 50
90
 51
150.361616311852
  0
ARC
  8
1
 62
3
  6
CONTINUOUS
 10
197.64
 20
422.38
 30
0
 40
0.199999999999989
 50
270
 51
390.465544919463
  0
ARC
  8
1
 62
3
  6
CONTINUOUS
 10
196.09
 20
425.83
 30
0
 40
0.197230829233157
 50
149.534455080537
 51
210.465544919449
  0
ARC
  8
1
 62
3
  6
CONTINUOUS
 10
197.64
 20
429.28
 30
0
 40
0.197230829233157
 50
329.534455080551
 51
450
  0
ARC
  8
1
 62
3
  6
CONTINUOUS
 10
193.88
 20
429.67
 30
0
 40
0.199999999999989
 50
209.054604099082
 51
270
  0
ARC
  8
1
 62
3
  6
CONTINUOUS
 10
191.67
 20
432.73
 30
0
 40
0.197230829233157
 50
30.465544919449
 51
150.945395900928
  0
ARC
  8
1
 62
3
  6
CONTINUOUS
 10
189.45
 20
429.67
 30
0
 40
0.197230829233185
 50
270
 51
329.534455080537
  0
ARC
  8
1
 62
3
  6
CONTINUOUS
 10
185.69
 20
429.28
 30
0
 40
0.200000000000045
 50
90
 51
210.465544919453
  0
ARC
  8
1
 62
3
  6
CONTINUOUS
 10
264.48
 20
387.22
 30
0
 40
0.197230829233185
 50
149.534455080551
 51
210.465544919463
  0
ARC
  8
1
 62
3
  6
CONTINUOUS
 10
266.03
 20
390.67
 30
0
 40
0.197230829233185
 50
329.534455080537
 51
452.862405226109
  0
ARC
  8
1
 62
3
  6
CONTINUOUS
 10
262.27
 20
391.06
 30
0
 40
0.199999999999989
 50
209.054604099082
 51
270
  0
ARC
  8
1
 62
3
  6
CONTINUOUS
 10
260.05
 20
394.12
 30
0
 40
0.197230829233185
 50
30.4655449194632
 51
149.534455080537
  0
ARC
  8
1
 62
3
  6
CONTINUOUS
 10
257.84
 20
391.06
 30
0
 40
0.197230829233185
 50
267.137594773891
 51
329.534455080537
  0
ARC
  8
1
 62
3
  6
CONTINUOUS
 10
254.08
 20
390.67
 30
0
 40
0.199999999999989
 50
90
 51
209.054604099082
  0
ARC
  8
1
 62
3
  6
CONTINUOUS
 10
255.62
 20
387.22
 30
0
 40
0.197230829233132
 50
-30.4655449194674
 51
30.4655449194532
  0
ARC
  8
1
 62
3
  6
CONTINUOUS
 10
254.07
 20
383.77
 30
0
 40
0.197230829233161
 50
149.534455080533
 51
272.862405226117
  0
ARC
  8
1
 62
3
  6
CONTINUOUS
 10
257.83
 20
383.38
 30
0
 40
0.199999999999989
 50
29.0546040990817
 51
90
  0
ARC
  8
1
 62
3
  6
CONTINUOUS
 10
260.05
 20
380.32
 30
0
 40
0.197230829233157
 50
210.465544919449
 51
329.534455080551
  0
ARC
  8
1
 62
3
  6
CONTINUOUS
 10
262.265
 20
383.383
 30
0
 40
0.200192407448438
 50
90
 51
150.361616311834
  0
ARC
  8
1
 62
3
  6
CONTINUOUS
 10
266.02
 20
383.77
 30
0
 40
0.199999999999989
 50
270
 51
388.998977146162
  0
ARC
  8
1
 62
3
  6
CONTINUOUS
 10
262.87
 20
319.66
 30
0
 40
0.197230829233185
 50
149.534455080551
 51
210.465544919463
  0
ARC
  8
1
 62
3
  6
CONTINUOUS
 10
264.42
 20
323.11
 30
0
 40
0.197230829233136
 50
329.534455080528
 51
452.862405226109
  0
ARC
  8
1
 62
3
  6
CONTINUOUS
 10
260.66
 20
323.5
 30
0
 40
0.199999999999989
 50
208.998977146147
 51
270
  0
ARC
  8
1
 62
3
  6
CONTINUOUS
 10
258.44
 20
326.56
 30
0
 40
0.197230829233185
 50
30.4655449194632
 51
149.534455080537
  0
ARC
  8
1
 62
3
  6
CONTINUOUS
 10
256.23
 20
323.5
 30
0
 40
0.197230829233136
 50
267.137594773891
 51
329.534455080528
  0
ARC
  8
1
 62
3
  6
CONTINUOUS
 10
252.47
 20
323.11
 30
0
 40
0.199999999999989
 50
90
 51
209.054604099082
  0
ARC
  8
1
 62
3
  6
CONTINUOUS
 10
254.01
 20
319.66
 30
0
 40
0.197230829233157
 50
-30.4655449194632
 51
30.465544919449
  0
ARC
  8
1
 62
3
  6
CONTINUOUS
 10
252.46
 20
316.21
 30
0
 40
0.197230829233185
 50
149.534455080537
 51
272.862405226109
  0
ARC
  8
1
 62
3
  6
CONTINUOUS
 10
256.22
 20
315.82
 30
0
 40
0.199999999999989
 50
29.0546040990894
 51
90
  0
ARC
  8
1
 62
3
  6
CONTINUOUS
 10
258.44
 20
312.76
 30
0
 40
0.197230829233157
 50
210.465544919449
 51
329.534455080551
  0
ARC
  8
1
 62
3
  6
CONTINUOUS
 10
260.655
 20
315.823
 30
0
 40
0.200192407448438
 50
90
 51
150.361616311834
  0
ARC
  8
1
 62
3
  6
CONTINUOUS
 10
264.41
 20
316.21
 30
0
 40
0.199999999999989
 50
270
 51
389.054604099089
  0
ARC
  8
1
 62
3
  6
CONTINUOUS
 10
179.13
 20
305.76
 30
0
 40
0.199999999999989
 50
270
 51
390.465544919463
  0
ARC
  8
1
 62
3
  6
CONTINUOUS
 10
177.59
 20
309.21
 30
0
 40
0.197230829233157
 50
149.534455080537
 51
210.465544919449
  0
ARC
  8
1
 62
3
  6
CONTINUOUS
 10
179.13
 20
312.65
 30
0
 40
0.197230829233157
 50
329.534455080551
 51
450
  0
ARC
  8
1
 62
3
  6
CONTINUOUS
 10
175.37
 20
313.04
 30
0
 40
0.200000000000045
 50
210.465544919463
 51
270
  0
ARC
  8
1
 62
3
  6
CONTINUOUS
 10
173.16
 20
316.1
 30
0
 40
0.197230829233157
 50
30.465544919449
 51
150.945395900932
  0
ARC
  8
1
 62
3
  6
CONTINUOUS
 10
170.94
 20
313.04
 30
0
 40
0.197230829233185
 50
270
 51
329.534455080537
  0
ARC
  8
1
 62
3
  6
CONTINUOUS
 10
167.18
 20
312.65
 30
0
 40
0.200000000000045
 50
90
 51
210.465544919449
  0
ARC
  8
1
 62
3
  6
CONTINUOUS
 10
168.73
 20
309.21
 30
0
 40
0.197230829233185
 50
-30.465544919449
 51
30.4655449194632
  0
ARC
  8
1
 62
3
  6
CONTINUOUS
 10
167.18
 20
305.76
 30
0
 40
0.197230829233185
 50
149.534455080537
 51
270
  0
ARC
  8
1
 62
3
  6
CONTINUOUS
 10
170.94
 20
305.37
 30
0
 40
0.199999999999989
 50
30.421852162668
 51
90
  0
ARC
  8
1
 62
3
  6
CONTINUOUS
 10
173.15
 20
302.31
 30
0
 40
0.197230829233185
 50
210.465544919463
 51
330.945395900918
  0
ARC
  8
1
 62
3
  6
CONTINUOUS
 10
175.371
 20
305.366
 30
0
 40
0.199822421164406
 50
90
 51
149.97059823848
  0
ARC
  8
1
 62
3
  6
CONTINUOUS
 10
139.161
 20
243.436
 30
0
 40
0.200192407448435
 50
89.7135234897215
 51
150.361616311852
  0
ARC
  8
1
 62
3
  6
CONTINUOUS
 10
142.93
 20
243.83
 30
0
 40
0.200000000000017
 50
270
 51
390.46554491946
  0
ARC
  8
1
 62
3
  6
CONTINUOUS
 10
141.38
 20
247.27
 30
0
 40
0.197230829233161
 50
147.195049661898
 51
210.465544919467
  0
ARC
  8
1
 62
3
  6
CONTINUOUS
 10
142.93
 20
250.72
 30
0
 40
0.197230829233147
 50
329.53445508054
 51
450
  0
ARC
  8
1
 62
3
  6
CONTINUOUS
 10
139.17
 20
251.11
 30
0
 40
0.200000000000017
 50
209.054604099086
 51
270
  0
ARC
  8
1
 62
3
  6
CONTINUOUS
 10
136.96
 20
254.17
 30
0
 40
0.197230829233161
 50
30.4655449194674
 51
150.945395900918
  0
ARC
  8
1
 62
3
  6
CONTINUOUS
 10
134.74
 20
251.11
 30
0
 40
0.197230829233161
 50
270
 51
329.534455080533
  0
ARC
  8
1
 62
3
  6
CONTINUOUS
 10
130.98
 20
250.72
 30
0
 40
0.199999999999989
 50
90
 51
210.46554491946
  0
ARC
  8
1
 62
3
  6
CONTINUOUS
 10
132.52
 20
247.28
 30
0
 40
0.197230829233147
 50
-32.9052429229931
 51
30.4655449194603
  0
ARC
  8
1
 62
3
  6
CONTINUOUS
 10
130.98
 20
243.83
 30
0
 40
0.197230829233147
 50
149.53445508054
 51
270
  0
ARC
  8
1
 62
3
  6
CONTINUOUS
 10
134.74
 20
243.44
 30
0
 40
0.199999999999989
 50
30.4655449194603
 51
90
  0
ARC
  8
1
 62
3
  6
CONTINUOUS
 10
136.95
 20
240.38
 30
0
 40
0.197230829233147
 50
210.46554491946
 51
330.945395900925
  0
ARC
  8
1
 62
3
  6
CONTINUOUS
 10
290.15
 20
239.96
 30
0
 40
1.0034440691937
 50
90
 51
150.113473059576
  0
ARC
  8
1
 62
3
  6
CONTINUOUS
 10
308.93
 20
241.91
 30
0
 40
1
 50
270
 51
389.886526940424
  0
ARC
  8
1
 62
3
  6
CONTINUOUS
 10
301.22
 20
259.15
 30
0
 40
0.994786409235683
 50
149.331073350283
 51
210.173520029644
  0
ARC
  8
1
 62
3
  6
CONTINUOUS
 10
308.94
 20
276.4
 30
0
 40
0.994786409235683
 50
329.826479970356
 51
450.572938697683
  0
ARC
  8
1
 62
3
  6
CONTINUOUS
 10
290.15
 20
278.34
 30
0
 40
1
 50
209.389011466318
 51
270
  0
ARC
  8
1
 62
3
  6
CONTINUOUS
 10
279.06
 20
293.64
 30
0
 40
1.0034440691937
 50
29.8865269404239
 51
149.826479970356
  0
ARC
  8
1
 62
3
  6
CONTINUOUS
 10
267.98
 20
278.35
 30
0
 40
1.0034440691937
 50
270
 51
330.113473059576
  0
ARC
  8
1
 62
3
  6
CONTINUOUS
 10
249.2
 20
276.4
 30
0
 40
1
 50
90
 51
209.886526940425
  0
ARC
  8
1
 62
3
  6
CONTINUOUS
 10
256.91
 20
259.16
 30
0
 40
0.994786409235634
 50
-30.6689266497186
 51
30.1735200296456
  0
ARC
  8
1
 62
3
  6
CONTINUOUS
 10
249.19
 20
241.91
 30
0
 40
0.994786409235658
 50
149.826479970355
 51
270.572938697683
  0
ARC
  8
1
 62
3
  6
CONTINUOUS
 10
267.98
 20
239.97
 30
0
 40
1
 50
29.3890114663207
 51
90
  0
ARC
  8
1
 62
3
  6
CONTINUOUS
 10
324.07
 20
174.32
 30
0
 40
0.200000000000017
 50
90
 51
210.465544919456
  0
ARC
  8
1
 62
3
  6
CONTINUOUS
 10
325.62
 20
170.87
 30
0
 40
0.197230829233171
 50
-30.4655449194561
 51
30.4655449194561
  0
ARC
  8
1
 62
3
  6
CONTINUOUS
 10
324.07
 20
167.42
 30
0
 40
0.197230829233185
 50
149.534455080537
 51
270
  0
ARC
  8
1
 62
3
  6
CONTINUOUS
 10
327.83
 20
167.03
 30
0
 40
0.199999999999989
 50
30.4655449194561
 51
90
  0
ARC
  8
1
 62
3
  6
CONTINUOUS
 10
330.04
 20
163.97
 30
0
 40
0.197230829233171
 50
210.465544919456
 51
330.945395900925
  0
ARC
  8
1
 62
3
  6
CONTINUOUS
 10
332.265
 20
167.033
 30
0
 40
0.200192407448424
 50
90
 51
150.361616311841
  0
ARC
  8
1
 62
3
  6
CONTINUOUS
 10
336.02
 20
167.42
 30
0
 40
0.199999999999989
 50
270
 51
390.465544919463
  0
ARC
  8
1
 62
3
  6
CONTINUOUS
 10
334.48
 20
170.87
 30
0
 40
0.197230829233171
 50
149.534455080544
 51
210.465544919456
  0
ARC
  8
1
 62
3
  6
CONTINUOUS
 10
336.02
 20
174.32
 30
0
 40
0.197230829233171
 50
329.534455080544
 51
450
  0
ARC
  8
1
 62
3
  6
CONTINUOUS
 10
332.26
 20
174.7
 30
0
 40
0.199999999999989
 50
207.897271030939
 51
270
  0
ARC
  8
1
 62
3
  6
CONTINUOUS
 10
330.05
 20
177.76
 30
0
 40
0.197230829233185
 50
30.4655449194632
 51
150.945395900918
  0
ARC
  8
1
 62
3
  6
CONTINUOUS
 10
327.821
 20
174.7
 30
0
 40
0.199822421164392
 50
269.713523489713
 51
329.970598238487
  0
ARC
  8
1
 62
3
  6
CONTINUOUS
 10
71.44
 20
179.95
 30
0
 40
0.200000000000017
 50
90
 51
210.465544919458
  0
ARC
  8
1
 62
3
  6
CONTINUOUS
 10
72.99
 20
176.5
 30
0
 40
0.197230829233159
 50
-30.4655449194582
 51
30.4655449194582
  0
ARC
  8
1
 62
3
  6
CONTINUOUS
 10
71.44
 20
173.05
 30
0
 40
0.197230829233159
 50
149.534455080542
 51
270
  0
ARC
  8
1
 62
3
  6
CONTINUOUS
 10
75.2
 20
172.66
 30
0
 40
0.200000000000017
 50
30.4655449194582
 51
90
  0
ARC
  8
1
 62
3
  6
CONTINUOUS
 10
77.41
 20
169.6
 30
0
 40
0.197230829233159
 50
210.465544919458
 51
330.945395900925
  0
ARC
  8
1
 62
3
  6
CONTINUOUS
 10
79.635
 20
172.663
 30
0
 40
0.200192407448435
 50
90
 51
150.361616311852
  0
ARC
  8
1
 62
3
  6
CONTINUOUS
 10
83.39
 20
173.05
 30
0
 40
0.200000000000017
 50
270
 51
390.465544919458
  0
ARC
  8
1
 62
3
  6
CONTINUOUS
 10
81.84
 20
176.5
 30
0
 40
0.197230829233159
 50
149.534455080542
 51
210.465544919458
  0
ARC
  8
1
 62
3
  6
CONTINUOUS
 10
83.39
 20
179.95
 30
0
 40
0.197230829233159
 50
329.534455080542
 51
450
  0
ARC
  8
1
 62
3
  6
CONTINUOUS
 10
79.63
 20
180.33
 30
0
 40
0.200000000000017
 50
207.897271030948
 51
270
  0
ARC
  8
1
 62
3
  6
CONTINUOUS
 10
77.42
 20
183.39
 30
0
 40
0.197230829233173
 50
30.4655449194653
 51
150.945395900918
  0
ARC
  8
1
 62
3
  6
CONTINUOUS
 10
75.191
 20
180.33
 30
0
 40
0.199822421164406
 50
269.713523489722
 51
329.97059823848
  0
ARC
  8
1
 62
3
  6
CONTINUOUS
 10
143.79
 20
141.11
 30
0
 40
0.197230829233171
 50
-30.4655449194632
 51
30.4655449194561
  0
ARC
  8
1
 62
3
  6
CONTINUOUS
 10
142.24
 20
137.66
 30
0
 40
0.197230829233171
 50
149.534455080544
 51
270
  0
ARC
  8
1
 62
3
  6
CONTINUOUS
 10
146
 20
137.27
 30
0
 40
0.199999999999989
 50
30.4655449194603
 51
90
  0
ARC
  8
1
 62
3
  6
CONTINUOUS
 10
148.21
 20
134.21
 30
0
 40
0.197230829233171
 50
210.465544919456
 51
330.945395900921
  0
ARC
  8
1
 62
3
  6
CONTINUOUS
 10
150.435
 20
137.273
 30
0
 40
0.200192407448449
 50
90
 51
150.361616311845
  0
ARC
  8
1
 62
3
  6
CONTINUOUS
 10
154.19
 20
137.66
 30
0
 40
0.199999999999989
 50
270
 51
390.465544919456
  0
ARC
  8
1
 62
3
  6
CONTINUOUS
 10
152.64
 20
141.11
 30
0
 40
0.197230829233161
 50
149.53445508054
 51
210.465544919467
  0
ARC
  8
1
 62
3
  6
CONTINUOUS
 10
154.19
 20
144.56
 30
0
 40
0.197230829233171
 50
329.534455080544
 51
450
  0
ARC
  8
1
 62
3
  6
CONTINUOUS
 10
150.43
 20
144.95
 30
0
 40
0.199999999999989
 50
210.465544919456
 51
270
  0
ARC
  8
1
 62
3
  6
CONTINUOUS
 10
148.22
 20
148.01
 30
0
 40
0.197230829233161
 50
30.4655449194674
 51
150.945395900918
  0
ARC
  8
1
 62
3
  6
CONTINUOUS
 10
146
 20
144.95
 30
0
 40
0.197230829233147
 50
270
 51
329.53445508054
  0
ARC
  8
1
 62
3
  6
CONTINUOUS
 10
142.24
 20
144.56
 30
0
 40
0.199999999999989
 50
90
 51
210.465544919456
  0
ARC
  8
1
 62
3
  6
CONTINUOUS
 10
218.41
 20
120.01
 30
0
 40
0.197230829233178
 50
270
 51
329.53445508054
  0
ARC
  8
1
 62
3
  6
CONTINUOUS
 10
214.65
 20
119.62
 30
0
 40
0.199999999999989
 50
90
 51
210.46554491946
  0
ARC
  8
1
 62
3
  6
CONTINUOUS
 10
216.2
 20
116.18
 30
0
 40
0.197230829233171
 50
-32.9052429229887
 51
30.4655449194561
  0
ARC
  8
1
 62
3
  6
CONTINUOUS
 10
214.65
 20
112.73
 30
0
 40
0.197230829233171
 50
149.534455080544
 51
270
  0
ARC
  8
1
 62
3
  6
CONTINUOUS
 10
218.41
 20
112.34
 30
0
 40
0.200000000000003
 50
30.4655449194561
 51
90
  0
ARC
  8
1
 62
3
  6
CONTINUOUS
 10
220.62
 20
109.28
 30
0
 40
0.197230829233171
 50
210.465544919456
 51
330.945395900925
  0
ARC
  8
1
 62
3
  6
CONTINUOUS
 10
222.841
 20
112.336
 30
0
 40
0.199822421164399
 50
90
 51
149.970598238483
  0
ARC
  8
1
 62
3
  6
CONTINUOUS
 10
226.6
 20
112.73
 30
0
 40
0.200000000000003
 50
270
 51
390.465544919456
  0
ARC
  8
1
 62
3
  6
CONTINUOUS
 10
225.05
 20
116.17
 30
0
 40
0.197230829233178
 50
147.094757077015
 51
210.46554491946
  0
ARC
  8
1
 62
3
  6
CONTINUOUS
 10
226.6
 20
119.62
 30
0
 40
0.197230829233178
 50
329.53445508054
 51
450
  0
ARC
  8
1
 62
3
  6
CONTINUOUS
 10
222.84
 20
120.01
 30
0
 40
0.200000000000003
 50
210.46554491946
 51
270
  0
ARC
  8
1
 62
3
  6
CONTINUOUS
 10
220.63
 20
123.07
 30
0
 40
0.197230829233178
 50
30.4655449194597
 51
150.945395900922
  0
ARC
  8
1
 62
3
  6
CONTINUOUS
 10
328.1
 20
118.82
 30
0
 40
0.200000000000003
 50
90
 51
209.054604099075
  0
ARC
  8
1
 62
3
  6
CONTINUOUS
 10
329.64
 20
115.37
 30
0
 40
0.197230829233171
 50
-30.4655449194597
 51
30.4655449194561
  0
ARC
  8
1
 62
3
  6
CONTINUOUS
 10
328.09
 20
111.92
 30
0
 40
0.197230829233122
 50
149.534455080536
 51
272.862405226125
  0
ARC
  8
1
 62
3
  6
CONTINUOUS
 10
331.85
 20
111.53
 30
0
 40
0.200000000000003
 50
29.0546040990825
 51
90
  0
ARC
  8
1
 62
3
  6
CONTINUOUS
 10
334.07
 20
108.47
 30
0
 40
0.197230829233171
 50
210.465544919456
 51
329.534455080544
  0
ARC
  8
1
 62
3
  6
CONTINUOUS
 10
336.285
 20
111.533
 30
0
 40
0.200192407448467
 50
90
 51
150.361616311853
  0
ARC
  8
1
 62
3
  6
CONTINUOUS
 10
340.04
 20
111.92
 30
0
 40
0.200000000000003
 50
270
 51
389.054604099075
  0
ARC
  8
1
 62
3
  6
CONTINUOUS
 10
338.5
 20
115.37
 30
0
 40
0.197230829233178
 50
149.534455080544
 51
210.46554491946
  0
ARC
  8
1
 62
3
  6
CONTINUOUS
 10
340.05
 20
118.82
 30
0
 40
0.197230829233171
 50
329.534455080544
 51
452.862405226109
  0
ARC
  8
1
 62
3
  6
CONTINUOUS
 10
336.29
 20
119.21
 30
0
 40
0.199999999999989
 50
209.054604099075
 51
270
  0
ARC
  8
1
 62
3
  6
CONTINUOUS
 10
334.07
 20
122.27
 30
0
 40
0.197230829233178
 50
30.4655449194597
 51
149.53445508054
  0
ARC
  8
1
 62
3
  6
CONTINUOUS
 10
331.86
 20
119.21
 30
0
 40
0.197230829233122
 50
267.137594773891
 51
329.534455080536
  0
ARC
  8
1
 62
3
  6
CONTINUOUS
 10
56.15
 20
81.82
 30
0
 40
0.200000000000003
 50
90
 51
210.465544919458
  0
ARC
  8
1
 62
3
  6
CONTINUOUS
 10
57.7
 20
78.37
 30
0
 40
0.197230829233153
 50
-30.4655449194628
 51
30.4655449194592
  0
ARC
  8
1
 62
3
  6
CONTINUOUS
 10
56.15
 20
74.92
 30
0
 40
0.197230829233159
 50
149.534455080542
 51
270
  0
ARC
  8
1
 62
3
  6
CONTINUOUS
 10
59.91
 20
74.54
 30
0
 40
0.199999999999989
 50
29.0546040990748
 51
90
  0
ARC
  8
1
 62
3
  6
CONTINUOUS
 10
62.12
 20
71.48
 30
0
 40
0.19723082923316
 50
210.465544919463
 51
330.945395900921
  0
ARC
  8
1
 62
3
  6
CONTINUOUS
 10
64.339
 20
74.533
 30
0
 40
0.20019240744843
 50
89.7135234897216
 51
150.361616311847
  0
ARC
  8
1
 62
3
  6
CONTINUOUS
 10
68.1
 20
74.92
 30
0
 40
0.200000000000003
 50
270
 51
390.465544919458
  0
ARC
  8
1
 62
3
  6
CONTINUOUS
 10
66.56
 20
78.37
 30
0
 40
0.197230829233166
 50
149.534455080542
 51
210.465544919462
  0
ARC
  8
1
 62
3
  6
CONTINUOUS
 10
68.1
 20
81.82
 30
0
 40
0.197230829233159
 50
329.534455080542
 51
450
  0
ARC
  8
1
 62
3
  6
CONTINUOUS
 10
64.34
 20
82.21
 30
0
 40
0.199999999999989
 50
210.465544919458
 51
270
  0
ARC
  8
1
 62
3
  6
CONTINUOUS
 10
62.13
 20
85.27
 30
0
 40
0.19723082923316
 50
30.4655449194628
 51
150.945395900921
  0
ARC
  8
1
 62
3
  6
CONTINUOUS
 10
59.92
 20
82.21
 30
0
 40
0.197230829233159
 50
267.137594773887
 51
329.534455080542
  0
ARC
  8
1
 62
3
  6
CONTINUOUS
 10
180.8
 20
72.74
 30
0
 40
0.197230829233154
 50
-30.4655449194603
 51
30.4655449194639
  0
ARC
  8
1
 62
3
  6
CONTINUOUS
 10
179.25
 20
69.29
 30
0
 40
0.197230829233147
 50
149.53445508054
 51
270
  0
ARC
  8
1
 62
3
  6
CONTINUOUS
 10
183.01
 20
68.91
 30
0
 40
0.200000000000003
 50
30.4655449194597
 51
90
  0
ARC
  8
1
 62
3
  6
CONTINUOUS
 10
185.22
 20
65.85
 30
0
 40
0.197230829233147
 50
210.46554491946
 51
330.945395900925
  0
ARC
  8
1
 62
3
  6
CONTINUOUS
 10
187.439
 20
68.903
 30
0
 40
0.199323857076865
 50
89.7135234897216
 51
150.219464831177
  0
ARC
  8
1
 62
3
  6
CONTINUOUS
 10
191.2
 20
69.29
 30
0
 40
0.200000000000003
 50
270
 51
390.465544919456
  0
ARC
  8
1
 62
3
  6
CONTINUOUS
 10
189.65
 20
72.74
 30
0
 40
0.197230829233171
 50
149.53445508054
 51
210.465544919456
  0
ARC
  8
1
 62
3
  6
CONTINUOUS
 10
191.2
 20
76.19
 30
0
 40
0.197230829233171
 50
329.534455080544
 51
450
  0
ARC
  8
1
 62
3
  6
CONTINUOUS
 10
187.44
 20
76.58
 30
0
 40
0.200000000000003
 50
210.46554491946
 51
270
  0
ARC
  8
1
 62
3
  6
CONTINUOUS
 10
185.23
 20
79.64
 30
0
 40
0.197230829233171
 50
30.4655449194561
 51
150.945395900921
  0
ARC
  8
1
 62
3
  6
CONTINUOUS
 10
183.01
 20
76.58
 30
0
 40
0.197230829233171
 50
270
 51
329.534455080544
  0
ARC
  8
1
 62
3
  6
CONTINUOUS
 10
179.25
 20
76.19
 30
0
 40
0.200000000000003
 50
90
 51
210.46554491946
  0
ARC
  8
1
 62
3
  6
CONTINUOUS
 10
296.26
 20
62.75
 30
0
 40
0.197230829233175
 50
30.4655449194579
 51
150.945395900923
  0
ARC
  8
1
 62
3
  6
CONTINUOUS
 10
294.04
 20
59.69
 30
0
 40
0.197230829233122
 50
270
 51
329.534455080536
  0
ARC
  8
1
 62
3
  6
CONTINUOUS
 10
290.28
 20
59.3
 30
0
 40
0.200000000000003
 50
90
 51
210.465544919464
  0
ARC
  8
1
 62
3
  6
CONTINUOUS
 10
291.83
 20
55.85
 30
0
 40
0.197230829233175
 50
-30.4655449194579
 51
30.4655449194579
  0
ARC
  8
1
 62
3
  6
CONTINUOUS
 10
290.28
 20
52.4
 30
0
 40
0.197230829233126
 50
149.534455080534
 51
270
  0
ARC
  8
1
 62
3
  6
CONTINUOUS
 10
294.04
 20
52.02
 30
0
 40
0.199999999999996
 50
27.8972710309524
 51
90
  0
ARC
  8
1
 62
3
  6
CONTINUOUS
 10
296.25
 20
48.96
 30
0
 40
0.197230829233175
 50
210.465544919458
 51
330.945395900923
  0
ARC
  8
1
 62
3
  6
CONTINUOUS
 10
298.475
 20
52.013
 30
0
 40
0.200192407448467
 50
90
 51
150.361616311853
  0
ARC
  8
1
 62
3
  6
CONTINUOUS
 10
302.23
 20
52.4
 30
0
 40
0.199999999999996
 50
270
 51
390.465544919466
  0
ARC
  8
1
 62
3
  6
CONTINUOUS
 10
300.68
 20
55.85
 30
0
 40
0.197230829233175
 50
149.534455080542
 51
210.465544919458
  0
ARC
  8
1
 62
3
  6
CONTINUOUS
 10
302.23
 20
59.3
 30
0
 40
0.197230829233122
 50
329.534455080536
 51
450
  0
ARC
  8
1
 62
3
  6
CONTINUOUS
 10
298.47
 20
59.69
 30
0
 40
0.199999999999996
 50
210.465544919456
 51
270
  0
ARC
  8
1
 62
3
  6
CONTINUOUS
 10
385.9
 20
77.34
 30
0
 40
0.200000000000003
 50
270
 51
389.054604099075
  0
ARC
  8
1
 62
3
  6
CONTINUOUS
 10
384.36
 20
80.79
 30
0
 40
0.197230829233178
 50
149.534455080544
 51
210.46554491946
  0
ARC
  8
1
 62
3
  6
CONTINUOUS
 10
385.913
 20
84.24
 30
0
 40
0.199461775786713
 50
329.578147837328
 51
450.286476510287
  0
ARC
  8
1
 62
3
  6
CONTINUOUS
 10
382.143
 20
84.62
 30
0
 40
0.200002499984378
 50
210.029401761525
 51
270.286476510287
  0
ARC
  8
1
 62
3
  6
CONTINUOUS
 10
379.93
 20
87.68
 30
0
 40
0.197230829233171
 50
30.4655449194561
 51
149.534455080544
  0
ARC
  8
1
 62
3
  6
CONTINUOUS
 10
377.72
 20
84.62
 30
0
 40
0.197230829233129
 50
267.137594773875
 51
329.534455080532
  0
ARC
  8
1
 62
3
  6
CONTINUOUS
 10
373.947
 20
84.24
 30
0
 40
0.200002499984378
 50
89.7135234897297
 51
210.421852162664
  0
ARC
  8
1
 62
3
  6
CONTINUOUS
 10
375.5
 20
80.79
 30
0
 40
0.197230829233171
 50
-30.4655449194597
 51
30.4655449194561
  0
ARC
  8
1
 62
3
  6
CONTINUOUS
 10
373.95
 20
77.34
 30
0
 40
0.197230829233171
 50
149.534455080544
 51
272.862405226109
  0
ARC
  8
1
 62
3
  6
CONTINUOUS
 10
377.71
 20
76.95
 30
0
 40
0.200000000000003
 50
29.0546040990748
 51
90
  0
ARC
  8
1
 62
3
  6
CONTINUOUS
 10
379.93
 20
73.89
 30
0
 40
0.197230829233171
 50
210.465544919456
 51
329.534455080544
  0
ARC
  8
1
 62
3
  6
CONTINUOUS
 10
382.145
 20
76.953
 30
0
 40
0.200192407448417
 50
90
 51
150.361616311845
  0
ARC
  8
1
 62
3
  6
CONTINUOUS
 10
268.74
 20
92.38
 30
0
 40
1.0034440691937
 50
29.8865269404239
 51
90
  0
ARC
  8
1
 62
3
  6
CONTINUOUS
 10
249.95
 20
94.32
 30
0
 40
1
 50
149.331073350284
 51
270
  0
ARC
  8
1
 62
3
  6
CONTINUOUS
 10
257.67
 20
111.57
 30
0
 40
0.994786409235634
 50
329.826479970354
 51
390.173520029646
  0
ARC
  8
1
 62
3
  6
CONTINUOUS
 10
249.95
 20
128.81
 30
0
 40
0.994786409235658
 50
90
 51
210.173520029645
  0
ARC
  8
1
 62
3
  6
CONTINUOUS
 10
268.74
 20
130.76
 30
0
 40
1
 50
270
 51
330.113473059576
  0
ARC
  8
1
 62
3
  6
CONTINUOUS
 10
279.82
 20
146.05
 30
0
 40
1.0034440691937
 50
29.8865269404239
 51
150.113473059576
  0
ARC
  8
1
 62
3
  6
CONTINUOUS
 10
290.9
 20
130.76
 30
0
 40
1.0034440691937
 50
209.886526940424
 51
270
  0
ARC
  8
1
 62
3
  6
CONTINUOUS
 10
309.68
 20
128.81
 30
0
 40
1
 50
-29.8865269404239
 51
90
  0
ARC
  8
1
 62
3
  6
CONTINUOUS
 10
301.97
 20
111.57
 30
0
 40
0.994786409235683
 50
149.826479970356
 51
210.173520029644
  0
ARC
  8
1
 62
3
  6
CONTINUOUS
 10
309.69
 20
94.32
 30
0
 40
0.999752469364271
 50
-90.1718868228792
 51
30.2069340183737
  0
ARC
  8
1
 62
3
  6
CONTINUOUS
 10
290.9
 20
92.38
 30
0
 40
1
 50
90
 51
150.113473059576
  0
ARC
  8
1
 62
3
  6
CONTINUOUS
 10
103.02
 20
69.03
 30
0
 40
1.0034440691937
 50
29.8865269404239
 51
90
  0
ARC
  8
1
 62
3
  6
CONTINUOUS
 10
84.24
 20
70.98
 30
0
 40
1
 50
150.113473059576
 51
270
  0
ARC
  8
1
 62
3
  6
CONTINUOUS
 10
91.95
 20
88.22
 30
0
 40
0.994786409235671
 50
329.826479970356
 51
390.668926649715
  0
ARC
  8
1
 62
3
  6
CONTINUOUS
 10
84.23
 20
105.47
 30
0
 40
0.994786409235671
 50
89.427061302317
 51
210.173520029644
  0
ARC
  8
1
 62
3
  6
CONTINUOUS
 10
103.02
 20
107.41
 30
0
 40
1
 50
270
 51
330.61098853368
  0
ARC
  8
1
 62
3
  6
CONTINUOUS
 10
114.11
 20
122.71
 30
0
 40
1.0034440691937
 50
30.1735200296444
 51
150.113473059576
  0
ARC
  8
1
 62
3
  6
CONTINUOUS
 10
125.19
 20
107.42
 30
0
 40
1.0034440691937
 50
209.886526940424
 51
270
  0
ARC
  8
1
 62
3
  6
CONTINUOUS
 10
143.97
 20
105.47
 30
0
 40
1
 50
-29.8865269404239
 51
90
  0
ARC
  8
1
 62
3
  6
CONTINUOUS
 10
136.26
 20
88.23
 30
0
 40
0.994786409235658
 50
149.826479970355
 51
210.668926649716
  0
ARC
  8
1
 62
3
  6
CONTINUOUS
 10
143.98
 20
70.98
 30
0
 40
0.994786409235683
 50
-90.572938697683
 51
30.1735200296439
  0
ARC
  8
1
 62
3
  6
CONTINUOUS
 10
125.19
 20
69.04
 30
0
 40
1
 50
90
 51
150.61098853368
  0
ARC
  8
1
 62
3
  6
CONTINUOUS
 10
187.7
 20
175.21
 30
0
 40
1.00344406919367
 50
89.4270613023154
 51
150.113473059575
  0
ARC
  8
1
 62
3
  6
CONTINUOUS
 10
206.49
 20
177.15
 30
0
 40
1
 50
270
 51
390.379126011368
  0
ARC
  8
1
 62
3
  6
CONTINUOUS
 10
198.78
 20
194.39
 30
0
 40
0.994786409235683
 50
149.331073350285
 51
210.173520029644
  0
ARC
  8
1
 62
3
  6
CONTINUOUS
 10
206.5
 20
211.64
 30
0
 40
0.994786409235683
 50
329.826479970356
 51
450.572938697683
  0
ARC
  8
1
 62
3
  6
CONTINUOUS
 10
187.696
 20
213.59
 30
0
 40
1.00000449998988
 50
209.844303719857
 51
270.171886822881
  0
ARC
  8
1
 62
3
  6
CONTINUOUS
 10
176.62
 20
228.88
 30
0
 40
1.0034440691937
 50
29.8865269404239
 51
149.826479970356
  0
ARC
  8
1
 62
3
  6
CONTINUOUS
 10
165.54
 20
213.59
 30
0
 40
1.0034440691937
 50
270
 51
330.113473059576
  0
ARC
  8
1
 62
3
  6
CONTINUOUS
 10
146.76
 20
211.64
 30
0
 40
1
 50
90
 51
209.886526940424
  0
ARC
  8
1
 62
3
  6
CONTINUOUS
 10
154.47
 20
194.4
 30
0
 40
0.994786409235683
 50
-30.6689266497155
 51
30.1735200296439
  0
ARC
  8
1
 62
3
  6
CONTINUOUS
 10
146.75
 20
177.15
 30
0
 40
0.999752469364289
 50
149.793065981628
 51
270.171886822879
  0
ARC
  8
1
 62
3
  6
CONTINUOUS
 10
165.54
 20
175.21
 30
0
 40
1
 50
29.8865269404239
 51
90
  0
ARC
  8
1
 62
3
  6
CONTINUOUS
 10
253.21
 20
207.06
 30
0
 40
0.197230829233171
 50
149.534455080544
 51
210.465544919456
  0
ARC
  8
1
 62
3
  6
CONTINUOUS
 10
254.76
 20
210.51
 30
0
 40
0.197230829233171
 50
329.534455080544
 51
450
  0
ARC
  8
1
 62
3
  6
CONTINUOUS
 10
251
 20
210.9
 30
0
 40
0.200000000000017
 50
210.46554491946
 51
270
  0
ARC
  8
1
 62
3
  6
CONTINUOUS
 10
248.79
 20
213.96
 30
0
 40
0.197230829233171
 50
30.4655449194561
 51
150.945395900921
  0
ARC
  8
1
 62
3
  6
CONTINUOUS
 10
246.57
 20
210.9
 30
0
 40
0.197230829233171
 50
270
 51
329.534455080544
  0
ARC
  8
1
 62
3
  6
CONTINUOUS
 10
242.81
 20
210.51
 30
0
 40
0.200000000000017
 50
90
 51
210.465544919456
  0
ARC
  8
1
 62
3
  6
CONTINUOUS
 10
244.36
 20
207.06
 30
0
 40
0.197230829233147
 50
-30.4655449194603
 51
30.4655449194603
  0
ARC
  8
1
 62
3
  6
CONTINUOUS
 10
242.81
 20
203.61
 30
0
 40
0.197230829233171
 50
149.534455080544
 51
270
  0
ARC
  8
1
 62
3
  6
CONTINUOUS
 10
246.57
 20
203.22
 30
0
 40
0.199999999999989
 50
30.4655449194561
 51
90
  0
ARC
  8
1
 62
3
  6
CONTINUOUS
 10
248.78
 20
200.16
 30
0
 40
0.197230829233147
 50
210.46554491946
 51
330.945395900925
  0
ARC
  8
1
 62
3
  6
CONTINUOUS
 10
251.005
 20
203.223
 30
0
 40
0.200192407448435
 50
90
 51
150.361616311852
  0
ARC
  8
1
 62
3
  6
CONTINUOUS
 10
254.76
 20
203.61
 30
0
 40
0.200000000000017
 50
270
 51
390.465544919456
  0
ARC
  8
1
 62
3
  6
CONTINUOUS
 10
186.95
 20
346.89
 30
0
 40
1.00344406919367
 50
90
 51
150.113473059575
  0
ARC
  8
1
 62
3
  6
CONTINUOUS
 10
205.74
 20
348.84
 30
0
 40
1
 50
270
 51
390.173520029645
  0
ARC
  8
1
 62
3
  6
CONTINUOUS
 10
198.02
 20
366.08
 30
0
 40
0.994786409235683
 50
149.826479970356
 51
210.173520029644
  0
ARC
  8
1
 62
3
  6
CONTINUOUS
 10
205.74
 20
383.32
 30
0
 40
0.994786409235658
 50
329.826479970355
 51
450
  0
ARC
  8
1
 62
3
  6
CONTINUOUS
 10
186.95
 20
385.27
 30
0
 40
1
 50
209.886526940425
 51
270
  0
ARC
  8
1
 62
3
  6
CONTINUOUS
 10
175.87
 20
400.57
 30
0
 40
1.0034440691937
 50
29.8865269404239
 51
150.113473059576
  0
ARC
  8
1
 62
3
  6
CONTINUOUS
 10
164.79
 20
385.27
 30
0
 40
1.0034440691937
 50
270
 51
330.113473059576
  0
ARC
  8
1
 62
3
  6
CONTINUOUS
 10
146
 20
383.32
 30
0
 40
1
 50
90
 51
210.173520029644
  0
ARC
  8
1
 62
3
  6
CONTINUOUS
 10
153.72
 20
366.08
 30
0
 40
0.994786409235683
 50
-30.1735200296439
 51
30.1735200296439
  0
ARC
  8
1
 62
3
  6
CONTINUOUS
 10
146
 20
348.84
 30
0
 40
0.994786409235683
 50
149.826479970356
 51
270
  0
ARC
  8
1
 62
3
  6
CONTINUOUS
 10
164.79
 20
346.89
 30
0
 40
1
 50
29.8865269404239
 51
90
  0
ARC
  8
1
 62
3
  6
CONTINUOUS
 10
482.58
 20
216.47
 30
0
 40
1.0034440691937
 50
209.886526940424
 51
270
  0
ARC
  8
1
 62
3
  6
CONTINUOUS
 10
501.37
 20
214.52
 30
0
 40
1
 50
-30.173520029644
 51
90
  0
ARC
  8
1
 62
3
  6
CONTINUOUS
 10
493.65
 20
197.28
 30
0
 40
0.994786409235634
 50
149.826479970354
 51
210.668926649716
  0
ARC
  8
1
 62
3
  6
CONTINUOUS
 10
501.37
 20
180.03
 30
0
 40
0.994786409235683
 50
-90
 51
30.1735200296439
  0
ARC
  8
1
 62
3
  6
CONTINUOUS
 10
482.58
 20
178.09
 30
0
 40
1
 50
90
 51
150.610988533679
  0
ARC
  8
1
 62
3
  6
CONTINUOUS
 10
471.5
 20
162.79
 30
0
 40
1.0034440691937
 50
209.886526940424
 51
330.113473059576
  0
ARC
  8
1
 62
3
  6
CONTINUOUS
 10
460.42
 20
178.08
 30
0
 40
1.0034440691937
 50
29.8865269404239
 51
90
  0
ARC
  8
1
 62
3
  6
CONTINUOUS
 10
441.63
 20
180.03
 30
0
 40
1
 50
149.826479970356
 51
270
  0
ARC
  8
1
 62
3
  6
CONTINUOUS
 10
449.35
 20
197.27
 30
0
 40
0.994786409235634
 50
329.826479970354
 51
390.668926649716
  0
ARC
  8
1
 62
3
  6
CONTINUOUS
 10
441.63
 20
214.52
 30
0
 40
0.994786409235683
 50
90
 51
210.173520029644
  0
ARC
  8
1
 62
3
  6
CONTINUOUS
 10
460.42
 20
216.46
 30
0
 40
1
 50
270
 51
330.610988533679
  0
ARC
  8
1
 62
3
  6
CONTINUOUS
 10
391.64
 20
340.02
 30
0
 40
1.0034440691937
 50
270
 51
330.113473059576
  0
ARC
  8
1
 62
3
  6
CONTINUOUS
 10
372.86
 20
338.07
 30
0
 40
1
 50
90
 51
209.886526940424
  0
ARC
  8
1
 62
3
  6
CONTINUOUS
 10
380.57
 20
320.83
 30
0
 40
0.994786409235683
 50
-30.1735200296439
 51
30.1735200296439
  0
ARC
  8
1
 62
3
  6
CONTINUOUS
 10
372.85
 20
303.58
 30
0
 40
0.999249718538898
 50
149.842618976673
 51
270.171886822879
  0
ARC
  8
1
 62
3
  6
CONTINUOUS
 10
391.64
 20
301.64
 30
0
 40
1
 50
29.8865269404239
 51
90
  0
ARC
  8
1
 62
3
  6
CONTINUOUS
 10
402.73
 20
286.34
 30
0
 40
1.0034440691937
 50
209.886526940424
 51
329.826479970354
  0
ARC
  8
1
 62
3
  6
CONTINUOUS
 10
413.81
 20
301.64
 30
0
 40
1.0034440691937
 50
90
 51
150.113473059576
  0
ARC
  8
1
 62
3
  6
CONTINUOUS
 10
432.59
 20
303.58
 30
0
 40
1
 50
270
 51
390.379126011368
  0
ARC
  8
1
 62
3
  6
CONTINUOUS
 10
424.88
 20
320.83
 30
0
 40
0.994786409235683
 50
149.826479970356
 51
210.173520029644
  0
ARC
  8
1
 62
3
  6
CONTINUOUS
 10
432.6
 20
338.07
 30
0
 40
0.994786409235634
 50
329.826479970354
 51
450.572938697686
  0
ARC
  8
1
 62
3
  6
CONTINUOUS
 10
413.81
 20
340.02
 30
0
 40
1
 50
209.886526940424
 51
270
  0
ARC
  8
1
 62
3
  6
CONTINUOUS
 10
524.44
 20
359.95
 30
0
 40
1.0034440691937
 50
209.886526940424
 51
270
  0
ARC
  8
1
 62
3
  6
CONTINUOUS
 10
543.23
 20
358
 30
0
 40
1
 50
-29.8865269404239
 51
90
  0
ARC
  8
1
 62
3
  6
CONTINUOUS
 10
535.51
 20
340.76
 30
0
 40
0.994786409235683
 50
149.826479970356
 51
210.668926649714
  0
ARC
  8
1
 62
3
  6
CONTINUOUS
 10
543.24
 20
323.51
 30
0
 40
0.999752469364313
 50
-90.1718868228825
 51
30.2069340183713
  0
ARC
  8
1
 62
3
  6
CONTINUOUS
 10
524.44
 20
321.57
 30
0
 40
1
 50
90
 51
150.113473059576
  0
ARC
  8
1
 62
3
  6
CONTINUOUS
 10
513.36
 20
306.27
 30
0
 40
1.0034440691937
 50
209.886526940424
 51
330.113473059576
  0
ARC
  8
1
 62
3
  6
CONTINUOUS
 10
502.28
 20
321.57
 30
0
 40
1.0034440691937
 50
29.8865269404239
 51
90
  0
ARC
  8
1
 62
3
  6
CONTINUOUS
 10
483.5
 20
323.51
 30
0
 40
1
 50
149.620873988632
 51
270
  0
ARC
  8
1
 62
3
  6
CONTINUOUS
 10
491.21
 20
340.75
 30
0
 40
0.994786409235683
 50
329.826479970356
 51
390.668926649714
  0
ARC
  8
1
 62
3
  6
CONTINUOUS
 10
483.49
 20
358
 30
0
 40
0.994786409235683
 50
89.427061302317
 51
210.173520029644
  0
ARC
  8
1
 62
3
  6
CONTINUOUS
 10
502.28
 20
359.95
 30
0
 40
1
 50
270
 51
330.113473059576
  0
ARC
  8
1
 62
3
  6
CONTINUOUS
 10
564.31
 20
475.53
 30
0
 40
1.0034440691936
 50
209.886526940427
 51
270
  0
ARC
  8
1
 62
3
  6
CONTINUOUS
 10
583.1
 20
473.58
 30
0
 40
1
 50
-30.173520029644
 51
90
  0
ARC
  8
1
 62
3
  6
CONTINUOUS
 10
575.38
 20
456.34
 30
0
 40
0.994786409235683
 50
149.826479970356
 51
210.173520029644
  0
ARC
  8
1
 62
3
  6
CONTINUOUS
 10
583.1
 20
439.1
 30
0
 40
0.994786409235683
 50
-90
 51
30.1735200296439
  0
ARC
  8
1
 62
3
  6
CONTINUOUS
 10
564.31
 20
437.15
 30
0
 40
1
 50
90
 51
150.113473059573
  0
ARC
  8
1
 62
3
  6
CONTINUOUS
 10
553.23
 20
421.85
 30
0
 40
1.0034440691937
 50
209.886526940424
 51
330.113473059576
  0
ARC
  8
1
 62
3
  6
CONTINUOUS
 10
542.15
 20
437.15
 30
0
 40
1.0034440691937
 50
29.8865269404239
 51
90
  0
ARC
  8
1
 62
3
  6
CONTINUOUS
 10
523.37
 20
439.1
 30
0
 40
1
 50
150.113473059576
 51
270
  0
ARC
  8
1
 62
3
  6
CONTINUOUS
 10
531.08
 20
456.34
 30
0
 40
0.994786409235683
 50
329.826479970356
 51
390.173520029644
  0
ARC
  8
1
 62
3
  6
CONTINUOUS
 10
523.36
 20
473.58
 30
0
 40
0.994786409235683
 50
89.427061302317
 51
210.173520029644
  0
ARC
  8
1
 62
3
  6
CONTINUOUS
 10
542.15
 20
475.53
 30
0
 40
1
 50
270
 51
330.113473059576
  0
ARC
  8
1
 62
3
  6
CONTINUOUS
 10
397.86
 20
501.44
 30
0
 40
1.0034440691937
 50
209.886526940424
 51
270
  0
ARC
  8
1
 62
3
  6
CONTINUOUS
 10
416.64
 20
499.49
 30
0
 40
1
 50
-29.8865269404239
 51
90
  0
ARC
  8
1
 62
3
  6
CONTINUOUS
 10
408.93
 20
482.25
 30
0
 40
0.994786409235683
 50
149.826479970356
 51
210.668926649714
  0
ARC
  8
1
 62
3
  6
CONTINUOUS
 10
416.65
 20
465
 30
0
 40
0.994786409235683
 50
-90.572938697683
 51
30.1735200296439
  0
ARC
  8
1
 62
3
  6
CONTINUOUS
 10
397.86
 20
463.06
 30
0
 40
1
 50
90
 51
150.113473059576
  0
ARC
  8
1
 62
3
  6
CONTINUOUS
 10
386.77
 20
447.76
 30
0
 40
1.0034440691937
 50
210.173520029646
 51
330.113473059576
  0
ARC
  8
1
 62
3
  6
CONTINUOUS
 10
375.7
 20
463.06
 30
0
 40
1.0034440691937
 50
29.8865269404239
 51
90
  0
ARC
  8
1
 62
3
  6
CONTINUOUS
 10
356.91
 20
465
 30
0
 40
1
 50
150.113473059576
 51
270
  0
ARC
  8
1
 62
3
  6
CONTINUOUS
 10
364.62
 20
482.24
 30
0
 40
0.994786409235683
 50
329.826479970356
 51
390.668926649714
  0
ARC
  8
1
 62
3
  6
CONTINUOUS
 10
356.9
 20
499.49
 30
0
 40
0.994786409235634
 50
89.4270613023138
 51
210.173520029646
  0
ARC
  8
1
 62
3
  6
CONTINUOUS
 10
375.7
 20
501.43
 30
0
 40
1
 50
270
 51
330.610988533679
  0
ARC
  8
1
 62
3
  6
CONTINUOUS
 10
307.82
 20
507.06
 30
0
 40
0.199999999999989
 50
90
 51
210.465544919463
  0
ARC
  8
1
 62
3
  6
CONTINUOUS
 10
309.36
 20
503.61
 30
0
 40
0.197230829233108
 50
-30.4655449194716
 51
30.4655449194574
  0
ARC
  8
1
 62
3
  6
CONTINUOUS
 10
307.82
 20
500.16
 30
0
 40
0.197230829233157
 50
149.534455080551
 51
270
  0
ARC
  8
1
 62
3
  6
CONTINUOUS
 10
311.58
 20
499.77
 30
0
 40
0.200000000000045
 50
30.4655449194632
 51
90
  0
ARC
  8
1
 62
3
  6
CONTINUOUS
 10
313.79
 20
496.71
 30
0
 40
0.197230829233157
 50
210.465544919449
 51
330.945395900932
  0
ARC
  8
1
 62
3
  6
CONTINUOUS
 10
316
 20
499.77
 30
0
 40
0.197230829233185
 50
87.1375947738915
 51
149.534455080537
  0
ARC
  8
1
 62
3
  6
CONTINUOUS
 10
319.77
 20
500.16
 30
0
 40
0.200000000000045
 50
270
 51
390.465544919449
  0
ARC
  8
1
 62
3
  6
CONTINUOUS
 10
318.22
 20
503.61
 30
0
 40
0.197230829233185
 50
149.534455080551
 51
210.465544919463
  0
ARC
  8
1
 62
3
  6
CONTINUOUS
 10
319.77
 20
507.06
 30
0
 40
0.197230829233185
 50
329.534455080537
 51
450
  0
ARC
  8
1
 62
3
  6
CONTINUOUS
 10
316.01
 20
507.45
 30
0
 40
0.199999999999989
 50
209.054604099068
 51
270
  0
ARC
  8
1
 62
3
  6
CONTINUOUS
 10
313.8
 20
510.51
 30
0
 40
0.197230829233185
 50
30.4655449194632
 51
150.945395900918
  0
ARC
  8
1
 62
3
  6
CONTINUOUS
 10
311.575
 20
507.447
 30
0
 40
0.20019240744846
 50
270
 51
330.361616311856
  0
ARC
  8
1
 62
3
  6
CONTINUOUS
 10
436.09
 20
520.96
 30
0
 40
0.197230829233128
 50
30.4655449194348
 51
150.945395900938
  0
ARC
  8
1
 62
3
  6
CONTINUOUS
 10
433.869
 20
517.904
 30
0
 40
0.199822421164357
 50
270
 51
329.970598238472
  0
ARC
  8
1
 62
3
  6
CONTINUOUS
 10
430.11
 20
517.51
 30
0
 40
0.200000000000045
 50
90
 51
210.465544919463
  0
ARC
  8
1
 62
3
  6
CONTINUOUS
 10
431.66
 20
514.07
 30
0
 40
0.197230829233079
 50
-30.4655449194716
 51
30.4655449194431
  0
ARC
  8
1
 62
3
  6
CONTINUOUS
 10
430.11
 20
510.62
 30
0
 40
0.197230829233185
 50
149.534455080537
 51
270
  0
ARC
  8
1
 62
3
  6
CONTINUOUS
 10
433.87
 20
510.23
 30
0
 40
0.199999999999989
 50
30.465544919449
 51
90
  0
ARC
  8
1
 62
3
  6
CONTINUOUS
 10
436.08
 20
507.17
 30
0
 40
0.197230829233136
 50
210.465544919472
 51
330.945395900918
  0
ARC
  8
1
 62
3
  6
CONTINUOUS
 10
438.3
 20
510.23
 30
0
 40
0.197230829233157
 50
90
 51
149.534455080551
  0
ARC
  8
1
 62
3
  6
CONTINUOUS
 10
442.06
 20
510.62
 30
0
 40
0.199999999999989
 50
270
 51
390.465544919463
  0
ARC
  8
1
 62
3
  6
CONTINUOUS
 10
440.51
 20
514.07
 30
0
 40
0.197230829233185
 50
149.534455080565
 51
210.465544919463
  0
ARC
  8
1
 62
3
  6
CONTINUOUS
 10
442.06
 20
517.51
 30
0
 40
0.197230829233185
 50
329.534455080537
 51
450
  0
ARC
  8
1
 62
3
  6
CONTINUOUS
 10
438.3
 20
517.9
 30
0
 40
0.199999999999932
 50
210.465544919463
 51
270
  0
ARC
  8
1
 62
3
  6
CONTINUOUS
 10
548.38
 20
525.56
 30
0
 40
0.200000000000045
 50
90
 51
210.465544919443
  0
ARC
  8
1
 62
3
  6
CONTINUOUS
 10
549.93
 20
522.11
 30
0
 40
0.197230829233234
 50
-30.4655449194549
 51
30.4655449194549
  0
ARC
  8
1
 62
3
  6
CONTINUOUS
 10
548.38
 20
518.66
 30
0
 40
0.197230829233136
 50
149.534455080528
 51
270
  0
ARC
  8
1
 62
3
  6
CONTINUOUS
 10
552.14
 20
518.27
 30
0
 40
0.200000000000045
 50
30.4655449194716
 51
90
  0
ARC
  8
1
 62
3
  6
CONTINUOUS
 10
554.35
 20
515.21
 30
0
 40
0.197230829233234
 50
210.465544919455
 51
330.945395900911
  0
ARC
  8
1
 62
3
  6
CONTINUOUS
 10
556.57
 20
518.27
 30
0
 40
0.197230829233234
 50
90
 51
149.534455080545
  0
ARC
  8
1
 62
3
  6
CONTINUOUS
 10
560.33
 20
518.66
 30
0
 40
0.199999999999932
 50
270
 51
390.465544919472
  0
ARC
  8
1
 62
3
  6
CONTINUOUS
 10
558.78
 20
522.11
 30
0
 40
0.197230829233136
 50
149.534455080528
 51
210.465544919472
  0
ARC
  8
1
 62
3
  6
CONTINUOUS
 10
560.33
 20
525.56
 30
0
 40
0.197230829233079
 50
329.534455080557
 51
450
  0
ARC
  8
1
 62
3
  6
CONTINUOUS
 10
556.57
 20
525.95
 30
0
 40
0.200000000000045
 50
210.465544919455
 51
270
  0
ARC
  8
1
 62
3
  6
CONTINUOUS
 10
554.36
 20
529.01
 30
0
 40
0.197230829233136
 50
30.4655449194716
 51
150.945395900926
  0
ARC
  8
1
 62
3
  6
CONTINUOUS
 10
552.135
 20
525.947
 30
0
 40
0.200192407448438
 50
270
 51
330.361616311834
  0
ARC
  8
1
 62
3
  6
CONTINUOUS
 10
617.57
 20
485.68
 30
0
 40
0.197230829233206
 50
149.534455080559
 51
272.862405226109
  0
ARC
  8
1
 62
3
  6
CONTINUOUS
 10
621.33
 20
485.29
 30
0
 40
0.199999999999989
 50
29.0546040990756
 51
90
  0
ARC
  8
1
 62
3
  6
CONTINUOUS
 10
623.55
 20
482.24
 30
0
 40
0.197230829233136
 50
210.465544919472
 51
329.534455080545
  0
ARC
  8
1
 62
3
  6
CONTINUOUS
 10
625.76
 20
485.29
 30
0
 40
0.197230829233108
 50
87.1375947738907
 51
149.534455080543
  0
ARC
  8
1
 62
3
  6
CONTINUOUS
 10
629.52
 20
485.68
 30
0
 40
0.199999999999989
 50
270
 51
389.05460409906
  0
ARC
  8
1
 62
3
  6
CONTINUOUS
 10
627.98
 20
489.13
 30
0
 40
0.197230829233234
 50
149.534455080545
 51
210.465544919455
  0
ARC
  8
1
 62
3
  6
CONTINUOUS
 10
629.53
 20
492.58
 30
0
 40
0.197230829233206
 50
329.534455080559
 51
452.862405226109
  0
ARC
  8
1
 62
3
  6
CONTINUOUS
 10
625.76
 20
492.97
 30
0
 40
0.200000000000045
 50
210.465544919472
 51
270
  0
ARC
  8
1
 62
3
  6
CONTINUOUS
 10
623.55
 20
496.03
 30
0
 40
0.197230829233234
 50
30.4655449194549
 51
149.534455080528
  0
ARC
  8
1
 62
3
  6
CONTINUOUS
 10
621.335
 20
492.967
 30
0
 40
0.20019240744841
 50
270
 51
330.361616311848
  0
ARC
  8
1
 62
3
  6
CONTINUOUS
 10
617.58
 20
492.58
 30
0
 40
0.199999999999989
 50
90
 51
209.05460409906
  0
ARC
  8
1
 62
3
  6
CONTINUOUS
 10
619.12
 20
489.13
 30
0
 40
0.197230829233136
 50
-30.4655449194716
 51
30.4655449194716
  0
ARC
  8
1
 62
3
  6
CONTINUOUS
 10
491.26
 20
486.15
 30
0
 40
0.200000000000045
 50
90
 51
210.465544919449
  0
ARC
  8
1
 62
3
  6
CONTINUOUS
 10
492.8
 20
482.7
 30
0
 40
0.197230829233185
 50
-30.465544919449
 51
30.4655449194632
  0
ARC
  8
1
 62
3
  6
CONTINUOUS
 10
491.26
 20
479.25
 30
0
 40
0.197230829233185
 50
149.534455080537
 51
270
  0
ARC
  8
1
 62
3
  6
CONTINUOUS
 10
495.02
 20
478.86
 30
0
 40
0.199999999999989
 50
30.465544919449
 51
90
  0
ARC
  8
1
 62
3
  6
CONTINUOUS
 10
497.23
 20
475.8
 30
0
 40
0.197230829233185
 50
210.465544919463
 51
330.945395900918
  0
ARC
  8
1
 62
3
  6
CONTINUOUS
 10
499.44
 20
478.86
 30
0
 40
0.197230829233157
 50
87.1375947738907
 51
149.534455080551
  0
ARC
  8
1
 62
3
  6
CONTINUOUS
 10
503.21
 20
479.25
 30
0
 40
0.199999999999989
 50
270
 51
390.465544919463
  0
ARC
  8
1
 62
3
  6
CONTINUOUS
 10
501.66
 20
482.7
 30
0
 40
0.197230829233157
 50
149.534455080537
 51
210.465544919449
  0
ARC
  8
1
 62
3
  6
CONTINUOUS
 10
503.21
 20
486.15
 30
0
 40
0.197230829233157
 50
329.534455080551
 51
450
  0
ARC
  8
1
 62
3
  6
CONTINUOUS
 10
499.45
 20
486.54
 30
0
 40
0.200000000000045
 50
209.054604099082
 51
270
  0
ARC
  8
1
 62
3
  6
CONTINUOUS
 10
497.24
 20
489.6
 30
0
 40
0.197230829233157
 50
30.465544919449
 51
150.945395900932
  0
ARC
  8
1
 62
3
  6
CONTINUOUS
 10
495.015
 20
486.537
 30
0
 40
0.20019240744846
 50
270
 51
330.361616311856
  0
ARC
  8
1
 62
3
  6
CONTINUOUS
 10
368.957
 20
420.2
 30
0
 40
0.200002499984364
 50
89.7135234897134
 51
210.421852162672
  0
ARC
  8
1
 62
3
  6
CONTINUOUS
 10
370.51
 20
416.75
 30
0
 40
0.197230829233185
 50
-30.4655449194632
 51
30.4655449194632
  0
ARC
  8
1
 62
3
  6
CONTINUOUS
 10
368.96
 20
413.3
 30
0
 40
0.197230829233108
 50
149.534455080543
 51
272.862405226126
  0
ARC
  8
1
 62
3
  6
CONTINUOUS
 10
372.72
 20
412.91
 30
0
 40
0.199999999999989
 50
29.0546040990756
 51
90
  0
ARC
  8
1
 62
3
  6
CONTINUOUS
 10
374.94
 20
409.85
 30
0
 40
0.197230829233185
 50
210.465544919463
 51
329.534455080537
  0
ARC
  8
1
 62
3
  6
CONTINUOUS
 10
377.15
 20
412.91
 30
0
 40
0.197230829233108
 50
87.1375947738744
 51
149.534455080543
  0
ARC
  8
1
 62
3
  6
CONTINUOUS
 10
380.91
 20
413.3
 30
0
 40
0.199999999999989
 50
270
 51
389.054604099076
  0
ARC
  8
1
 62
3
  6
CONTINUOUS
 10
379.37
 20
416.75
 30
0
 40
0.197230829233185
 50
149.534455080537
 51
210.465544919463
  0
ARC
  8
1
 62
3
  6
CONTINUOUS
 10
380.923
 20
420.2
 30
0
 40
0.199461775786762
 50
329.578147837336
 51
450.28647651027
  0
ARC
  8
1
 62
3
  6
CONTINUOUS
 10
377.16
 20
420.58
 30
0
 40
0.199999999999989
 50
209.054604099068
 51
270
  0
ARC
  8
1
 62
3
  6
CONTINUOUS
 10
374.94
 20
423.64
 30
0
 40
0.197230829233185
 50
30.4655449194632
 51
149.534455080537
  0
ARC
  8
1
 62
3
  6
CONTINUOUS
 10
372.731
 20
420.587
 30
0
 40
0.199323857076865
 50
269.71352348973
 51
330.219464831177
  0
ARC
  8
1
 62
3
  6
CONTINUOUS
 10
434.94
 20
391.24
 30
0
 40
0.199999999999989
 50
90
 51
210.465544919463
  0
ARC
  8
1
 62
3
  6
CONTINUOUS
 10
436.48
 20
387.79
 30
0
 40
0.197230829233108
 50
-30.4655449194716
 51
30.4655449194574
  0
ARC
  8
1
 62
3
  6
CONTINUOUS
 10
434.94
 20
384.34
 30
0
 40
0.197230829233185
 50
149.534455080537
 51
270
  0
ARC
  8
1
 62
3
  6
CONTINUOUS
 10
438.7
 20
383.95
 30
0
 40
0.199999999999989
 50
30.4655449194632
 51
90
  0
ARC
  8
1
 62
3
  6
CONTINUOUS
 10
440.91
 20
380.89
 30
0
 40
0.197230829233157
 50
210.465544919449
 51
330.945395900924
  0
ARC
  8
1
 62
3
  6
CONTINUOUS
 10
443.13
 20
383.95
 30
0
 40
0.197230829233185
 50
90
 51
149.534455080537
  0
ARC
  8
1
 62
3
  6
CONTINUOUS
 10
446.89
 20
384.34
 30
0
 40
0.199999999999989
 50
270
 51
390.465544919463
  0
ARC
  8
1
 62
3
  6
CONTINUOUS
 10
445.34
 20
387.79
 30
0
 40
0.197230829233136
 50
149.534455080543
 51
210.465544919472
  0
ARC
  8
1
 62
3
  6
CONTINUOUS
 10
446.89
 20
391.24
 30
0
 40
0.197230829233185
 50
329.534455080537
 51
450
  0
ARC
  8
1
 62
3
  6
CONTINUOUS
 10
443.13
 20
391.63
 30
0
 40
0.199999999999989
 50
210.465544919463
 51
270
  0
ARC
  8
1
 62
3
  6
CONTINUOUS
 10
440.92
 20
394.69
 30
0
 40
0.197230829233136
 50
30.4655449194716
 51
150.945395900918
  0
ARC
  8
1
 62
3
  6
CONTINUOUS
 10
438.695
 20
391.627
 30
0
 40
0.20019240744846
 50
270
 51
330.361616311856
  0
ARC
  8
1
 62
3
  6
CONTINUOUS
 10
522.64
 20
400.09
 30
0
 40
0.200000000000045
 50
90
 51
209.054604099076
  0
ARC
  8
1
 62
3
  6
CONTINUOUS
 10
524.18
 20
396.64
 30
0
 40
0.197230829233234
 50
-30.4655449194406
 51
30.4655449194549
  0
ARC
  8
1
 62
3
  6
CONTINUOUS
 10
522.63
 20
393.19
 30
0
 40
0.197230829233136
 50
149.534455080528
 51
272.862405226109
  0
ARC
  8
1
 62
3
  6
CONTINUOUS
 10
526.39
 20
392.8
 30
0
 40
0.199999999999989
 50
29.0546040990602
 51
90
  0
ARC
  8
1
 62
3
  6
CONTINUOUS
 10
528.61
 20
389.74
 30
0
 40
0.197230829233136
 50
210.465544919472
 51
329.534455080528
  0
ARC
  8
1
 62
3
  6
CONTINUOUS
 10
530.82
 20
392.8
 30
0
 40
0.197230829233206
 50
87.1375947738907
 51
149.534455080559
  0
ARC
  8
1
 62
3
  6
CONTINUOUS
 10
534.58
 20
393.19
 30
0
 40
0.199999999999989
 50
270
 51
389.054604099089
  0
ARC
  8
1
 62
3
  6
CONTINUOUS
 10
533.04
 20
396.64
 30
0
 40
0.197230829233108
 50
149.534455080528
 51
210.465544919457
  0
ARC
  8
1
 62
3
  6
CONTINUOUS
 10
534.59
 20
400.09
 30
0
 40
0.197230829233108
 50
329.534455080543
 51
452.862405226108
  0
ARC
  8
1
 62
3
  6
CONTINUOUS
 10
530.83
 20
400.48
 30
0
 40
0.200000000000045
 50
209.054604099074
 51
270
  0
ARC
  8
1
 62
3
  6
CONTINUOUS
 10
528.61
 20
403.54
 30
0
 40
0.197230829233108
 50
30.4655449194574
 51
149.534455080543
  0
ARC
  8
1
 62
3
  6
CONTINUOUS
 10
526.395
 20
400.477
 30
0
 40
0.20019240744841
 50
270
 51
330.361616311848
  0
ARC
  8
1
 62
3
  6
CONTINUOUS
 10
598.95
 20
395.6
 30
0
 40
0.200000000000045
 50
270
 51
390.465544919457
  0
ARC
  8
1
 62
3
  6
CONTINUOUS
 10
597.4
 20
399.05
 30
0
 40
0.197230829233136
 50
149.534455080543
 51
210.465544919472
  0
ARC
  8
1
 62
3
  6
CONTINUOUS
 10
598.95
 20
402.5
 30
0
 40
0.197230829233136
 50
329.534455080528
 51
450
  0
ARC
  8
1
 62
3
  6
CONTINUOUS
 10
595.19
 20
402.89
 30
0
 40
0.199999999999989
 50
210.465544919441
 51
270
  0
ARC
  8
1
 62
3
  6
CONTINUOUS
 10
592.98
 20
405.95
 30
0
 40
0.197230829233136
 50
30.4655449194716
 51
150.945395900926
  0
ARC
  8
1
 62
3
  6
CONTINUOUS
 10
590.755
 20
402.887
 30
0
 40
0.20019240744841
 50
270
 51
330.361616311848
  0
ARC
  8
1
 62
3
  6
CONTINUOUS
 10
587
 20
402.5
 30
0
 40
0.199999999999989
 50
90
 51
210.465544919472
  0
ARC
  8
1
 62
3
  6
CONTINUOUS
 10
588.55
 20
399.05
 30
0
 40
0.197230829233206
 50
-30.4655449194549
 51
30.4655449194406
  0
ARC
  8
1
 62
3
  6
CONTINUOUS
 10
587
 20
395.6
 30
0
 40
0.197230829233108
 50
149.534455080543
 51
270
  0
ARC
  8
1
 62
3
  6
CONTINUOUS
 10
590.76
 20
395.21
 30
0
 40
0.200000000000045
 50
30.4655449194716
 51
90
  0
ARC
  8
1
 62
3
  6
CONTINUOUS
 10
592.97
 20
392.15
 30
0
 40
0.197230829233206
 50
210.465544919441
 51
330.945395900924
  0
ARC
  8
1
 62
3
  6
CONTINUOUS
 10
595.19
 20
395.21
 30
0
 40
0.197230829233234
 50
90
 51
149.534455080545
  0
ARC
  8
1
 62
3
  6
CONTINUOUS
 10
578.5
 20
321.5
 30
0
 40
0.197230829233136
 50
30.4655449194716
 51
150.945395900911
  0
ARC
  8
1
 62
3
  6
CONTINUOUS
 10
576.275
 20
318.437
 30
0
 40
0.20019240744841
 50
270
 51
330.361616311848
  0
ARC
  8
1
 62
3
  6
CONTINUOUS
 10
572.52
 20
318.05
 30
0
 40
0.199999999999989
 50
90
 51
210.465544919472
  0
ARC
  8
1
 62
3
  6
CONTINUOUS
 10
574.06
 20
314.6
 30
0
 40
0.197230829233206
 50
-30.4655449194549
 51
30.4655449194406
  0
ARC
  8
1
 62
3
  6
CONTINUOUS
 10
572.52
 20
311.15
 30
0
 40
0.197230829233136
 50
149.534455080528
 51
270
  0
ARC
  8
1
 62
3
  6
CONTINUOUS
 10
576.28
 20
310.76
 30
0
 40
0.199999999999989
 50
30.4655449194549
 51
90
  0
ARC
  8
1
 62
3
  6
CONTINUOUS
 10
578.49
 20
307.7
 30
0
 40
0.197230829233108
 50
210.465544919457
 51
330.945395900924
  0
ARC
  8
1
 62
3
  6
CONTINUOUS
 10
580.71
 20
310.76
 30
0
 40
0.197230829233234
 50
90
 51
149.534455080545
  0
ARC
  8
1
 62
3
  6
CONTINUOUS
 10
584.47
 20
311.15
 30
0
 40
0.199999999999989
 50
270
 51
390.465544919472
  0
ARC
  8
1
 62
3
  6
CONTINUOUS
 10
582.92
 20
314.6
 30
0
 40
0.197230829233136
 50
149.534455080543
 51
210.465544919472
  0
ARC
  8
1
 62
3
  6
CONTINUOUS
 10
584.47
 20
318.05
 30
0
 40
0.197230829233136
 50
329.534455080528
 51
450
  0
ARC
  8
1
 62
3
  6
CONTINUOUS
 10
580.71
 20
318.44
 30
0
 40
0.199999999999989
 50
210.465544919455
 51
270
  0
ARC
  8
1
 62
3
  6
CONTINUOUS
 10
439.76
 20
266.11
 30
0
 40
0.197230829233157
 50
149.534455080551
 51
272.862405226109
  0
ARC
  8
1
 62
3
  6
CONTINUOUS
 10
443.52
 20
265.72
 30
0
 40
0.199999999999989
 50
29.0546040990679
 51
90
  0
ARC
  8
1
 62
3
  6
CONTINUOUS
 10
445.74
 20
262.66
 30
0
 40
0.197230829233185
 50
210.465544919463
 51
329.534455080537
  0
ARC
  8
1
 62
3
  6
CONTINUOUS
 10
447.95
 20
265.72
 30
0
 40
0.197230829233157
 50
87.1375947738907
 51
149.534455080551
  0
ARC
  8
1
 62
3
  6
CONTINUOUS
 10
451.71
 20
266.11
 30
0
 40
0.199999999999989
 50
270
 51
389.054604099068
  0
ARC
  8
1
 62
3
  6
CONTINUOUS
 10
450.17
 20
269.56
 30
0
 40
0.197230829233185
 50
149.534455080537
 51
210.465544919463
  0
ARC
  8
1
 62
3
  6
CONTINUOUS
 10
451.72
 20
273.01
 30
0
 40
0.197230829233108
 50
329.534455080543
 51
452.862405226126
  0
ARC
  8
1
 62
3
  6
CONTINUOUS
 10
447.96
 20
273.4
 30
0
 40
0.199999999999989
 50
209.054604099068
 51
270
  0
ARC
  8
1
 62
3
  6
CONTINUOUS
 10
445.74
 20
276.46
 30
0
 40
0.197230829233185
 50
30.4655449194632
 51
149.534455080537
  0
ARC
  8
1
 62
3
  6
CONTINUOUS
 10
443.525
 20
273.397
 30
0
 40
0.20019240744846
 50
270
 51
330.361616311856
  0
ARC
  8
1
 62
3
  6
CONTINUOUS
 10
439.77
 20
273.01
 30
0
 40
0.199999999999989
 50
90
 51
209.054604099068
  0
ARC
  8
1
 62
3
  6
CONTINUOUS
 10
441.31
 20
269.56
 30
0
 40
0.197230829233185
 50
-30.4655449194632
 51
30.4655449194632
  0
ARC
  8
1
 62
3
  6
CONTINUOUS
 10
509.65
 20
253.71
 30
0
 40
0.197230829233171
 50
329.534455080544
 51
452.862405226109
  0
ARC
  8
1
 62
3
  6
CONTINUOUS
 10
505.89
 20
254.1
 30
0
 40
0.199999999999989
 50
209.054604099075
 51
270
  0
ARC
  8
1
 62
3
  6
CONTINUOUS
 10
503.67
 20
257.15
 30
0
 40
0.197230829233136
 50
30.4655449194716
 51
149.534455080537
  0
ARC
  8
1
 62
3
  6
CONTINUOUS
 10
501.455
 20
254.097
 30
0
 40
0.200192407448474
 50
270
 51
330.361616311849
  0
ARC
  8
1
 62
3
  6
CONTINUOUS
 10
497.7
 20
253.71
 30
0
 40
0.199999999999989
 50
90
 51
209.054604099075
  0
ARC
  8
1
 62
3
  6
CONTINUOUS
 10
499.24
 20
250.26
 30
0
 40
0.197230829233185
 50
-30.4655449194561
 51
30.4655449194632
  0
ARC
  8
1
 62
3
  6
CONTINUOUS
 10
497.69
 20
246.81
 30
0
 40
0.197230829233171
 50
149.534455080544
 51
272.862405226109
  0
ARC
  8
1
 62
3
  6
CONTINUOUS
 10
501.45
 20
246.42
 30
0
 40
0.200000000000017
 50
29.0546040990817
 51
90
  0
ARC
  8
1
 62
3
  6
CONTINUOUS
 10
503.67
 20
243.36
 30
0
 40
0.197230829233185
 50
210.465544919463
 51
329.534455080528
  0
ARC
  8
1
 62
3
  6
CONTINUOUS
 10
505.88
 20
246.42
 30
0
 40
0.197230829233185
 50
87.1375947738911
 51
149.534455080537
  0
ARC
  8
1
 62
3
  6
CONTINUOUS
 10
509.64
 20
246.81
 30
0
 40
0.199999999999989
 50
270
 51
389.054604099075
  0
ARC
  8
1
 62
3
  6
CONTINUOUS
 10
508.1
 20
250.26
 30
0
 40
0.197230829233171
 50
149.534455080537
 51
210.465544919456
  0
ARC
  8
1
 62
3
  6
CONTINUOUS
 10
539.41
 20
219.93
 30
0
 40
0.19723082923322
 50
329.534455080552
 51
450
  0
ARC
  8
1
 62
3
  6
CONTINUOUS
 10
535.65
 20
220.31
 30
0
 40
0.199999999999989
 50
207.897271030954
 51
270
  0
ARC
  8
1
 62
3
  6
CONTINUOUS
 10
533.44
 20
223.37
 30
0
 40
0.197230829233122
 50
30.4655449194645
 51
150.945395900933
  0
ARC
  8
1
 62
3
  6
CONTINUOUS
 10
531.225
 20
220.317
 30
0
 40
0.200192407448424
 50
270
 51
330.361616311841
  0
ARC
  8
1
 62
3
  6
CONTINUOUS
 10
527.46
 20
219.93
 30
0
 40
0.199999999999989
 50
90
 51
210.465544919448
  0
ARC
  8
1
 62
3
  6
CONTINUOUS
 10
529.01
 20
216.48
 30
0
 40
0.197230829233136
 50
-30.4655449194645
 51
30.4655449194716
  0
ARC
  8
1
 62
3
  6
CONTINUOUS
 10
527.46
 20
213.03
 30
0
 40
0.19723082923322
 50
149.534455080552
 51
270
  0
ARC
  8
1
 62
3
  6
CONTINUOUS
 10
531.22
 20
212.64
 30
0
 40
0.200000000000017
 50
29.0546040990894
 51
90
  0
ARC
  8
1
 62
3
  6
CONTINUOUS
 10
533.43
 20
209.58
 30
0
 40
0.197230829233136
 50
210.465544919472
 51
330.945395900926
  0
ARC
  8
1
 62
3
  6
CONTINUOUS
 10
535.65
 20
212.64
 30
0
 40
0.197230829233136
 50
90
 51
149.534455080528
  0
ARC
  8
1
 62
3
  6
CONTINUOUS
 10
539.41
 20
213.03
 30
0
 40
0.199999999999989
 50
270
 51
390.465544919448
  0
ARC
  8
1
 62
3
  6
CONTINUOUS
 10
537.87
 20
216.48
 30
0
 40
0.197230829233122
 50
149.534455080528
 51
210.465544919464
  0
ARC
  8
1
 62
3
  6
CONTINUOUS
 10
393.9
 20
208.2
 30
0
 40
0.197230829233136
 50
149.534455080528
 51
272.862405226126
  0
ARC
  8
1
 62
3
  6
CONTINUOUS
 10
397.66
 20
207.81
 30
0
 40
0.199999999999989
 50
29.0546040990825
 51
90
  0
ARC
  8
1
 62
3
  6
CONTINUOUS
 10
399.88
 20
204.75
 30
0
 40
0.197230829233171
 50
210.465544919456
 51
329.534455080544
  0
ARC
  8
1
 62
3
  6
CONTINUOUS
 10
402.09
 20
207.81
 30
0
 40
0.197230829233122
 50
87.1375947738744
 51
149.534455080536
  0
ARC
  8
1
 62
3
  6
CONTINUOUS
 10
405.85
 20
208.2
 30
0
 40
0.199999999999989
 50
270
 51
389.054604099089
  0
ARC
  8
1
 62
3
  6
CONTINUOUS
 10
404.31
 20
211.65
 30
0
 40
0.197230829233171
 50
149.534455080544
 51
210.465544919456
  0
ARC
  8
1
 62
3
  6
CONTINUOUS
 10
405.86
 20
215.1
 30
0
 40
0.197230829233122
 50
329.534455080536
 51
452.862405226109
  0
ARC
  8
1
 62
3
  6
CONTINUOUS
 10
402.1
 20
215.49
 30
0
 40
0.200000000000017
 50
209.054604099082
 51
270
  0
ARC
  8
1
 62
3
  6
CONTINUOUS
 10
399.88
 20
218.55
 30
0
 40
0.197230829233171
 50
30.4655449194561
 51
149.534455080544
  0
ARC
  8
1
 62
3
  6
CONTINUOUS
 10
397.665
 20
215.487
 30
0
 40
0.20019240744841
 50
270
 51
330.361616311848
  0
ARC
  8
1
 62
3
  6
CONTINUOUS
 10
393.91
 20
215.1
 30
0
 40
0.200000000000017
 50
90
 51
209.054604099075
  0
ARC
  8
1
 62
3
  6
CONTINUOUS
 10
395.45
 20
211.65
 30
0
 40
0.197230829233171
 50
-30.4655449194561
 51
30.4655449194561
  0
ARC
  8
1
 62
3
  6
CONTINUOUS
 10
466.31
 20
120.53
 30
0
 40
0.197230829233171
 50
149.534455080544
 51
272.862405226109
  0
ARC
  8
1
 62
3
  6
CONTINUOUS
 10
470.07
 20
120.15
 30
0
 40
0.199999999999989
 50
29.0546040990748
 51
90
  0
ARC
  8
1
 62
3
  6
CONTINUOUS
 10
472.29
 20
117.09
 30
0
 40
0.197230829233178
 50
210.46554491946
 51
329.534455080532
  0
ARC
  8
1
 62
3
  6
CONTINUOUS
 10
474.5
 20
120.15
 30
0
 40
0.197230829233171
 50
87.1375947738907
 51
149.534455080544
  0
ARC
  8
1
 62
3
  6
CONTINUOUS
 10
478.26
 20
120.53
 30
0
 40
0.200000000000003
 50
270
 51
389.054604099075
  0
ARC
  8
1
 62
3
  6
CONTINUOUS
 10
476.72
 20
123.98
 30
0
 40
0.197230829233178
 50
149.534455080544
 51
210.46554491946
  0
ARC
  8
1
 62
3
  6
CONTINUOUS
 10
478.27
 20
127.43
 30
0
 40
0.197230829233178
 50
329.53445508054
 51
452.862405226109
  0
ARC
  8
1
 62
3
  6
CONTINUOUS
 10
474.51
 20
127.82
 30
0
 40
0.199999999999989
 50
209.054604099075
 51
270
  0
ARC
  8
1
 62
3
  6
CONTINUOUS
 10
472.29
 20
130.88
 30
0
 40
0.197230829233122
 50
30.4655449194645
 51
149.534455080544
  0
ARC
  8
1
 62
3
  6
CONTINUOUS
 10
470.075
 20
127.817
 30
0
 40
0.20019240744846
 50
270
 51
330.361616311856
  0
ARC
  8
1
 62
3
  6
CONTINUOUS
 10
466.32
 20
127.43
 30
0
 40
0.199999999999989
 50
90
 51
209.054604099078
  0
ARC
  8
1
 62
3
  6
CONTINUOUS
 10
467.86
 20
123.98
 30
0
 40
0.197230829233122
 50
-30.465544919468
 51
30.4655449194645
  0
ARC
  8
1
 62
3
  6
CONTINUOUS
 10
48.426
 20
629.755
 30
0
 40
1.50640300052809
 50
30.3328715279444
 51
119.815645912479
  0
ARC
  8
1
 62
3
  6
CONTINUOUS
 10
27.266
 20
617.425
 30
0
 40
26.0011143030448
 50
29.7700309261148
 51
30.2354996088629
  0
ARC
  8
1
 62
3
  6
CONTINUOUS
 10
48.526
 20
629.595
 30
0
 40
1.50009333042978
 50
-60.018360631152
 51
29.4701062237406
  0
ARC
  8
1
 62
3
  6
CONTINUOUS
 10
46.606
 20
625.595
 30
0
 40
0.998979479268708
 50
119.901387879292
 51
202.987112192915
  0
ARC
  8
1
 62
3
  6
CONTINUOUS
 10
27.256
 20
617.435
 30
0
 40
20.0040978301947
 50
-82.8788897053622
 51
22.8593570077263
  0
ARC
  8
1
 62
3
  6
CONTINUOUS
 10
29.866
 20
596.585
 30
0
 40
0.999360795708923
 50
97.416577312441
 51
180
  0
ARC
  8
1
 62
3
  6
CONTINUOUS
 10
27.356
 20
592.925
 30
0
 40
1.5
 50
-89.618033795271
 51
0
  0
ARC
  8
1
 62
3
  6
CONTINUOUS
 10
27.266
 20
617.425
 30
0
 40
26.0001923069811
 50
269.757596225271
 51
270.220367296123
  0
ARC
  8
1
 62
3
  6
CONTINUOUS
 10
27.166
 20
592.925
 30
0
 40
1.50003333296297
 50
180
 51
269.618033795271
  0
ARC
  8
1
 62
3
  6
CONTINUOUS
 10
24.666
 20
596.582
 30
0
 40
1
 50
0
 51
82.9318599490933
  0
ARC
  8
1
 62
3
  6
CONTINUOUS
 10
27.266
 20
617.425
 30
0
 40
20.0049426392579
 50
157.115488756637
 51
262.887417245366
  0
ARC
  8
1
 62
3
  6
CONTINUOUS
 10
7.916
 20
625.595
 30
0
 40
1.00279260069071
 50
336.988968655044
 51
420.113473059576
  0
ARC
  8
1
 62
3
  6
CONTINUOUS
 10
5.996
 20
629.595
 30
0
 40
1.49636893846408
 50
150.340429586432
 51
240.008155665632
  0
ARC
  8
1
 62
3
  6
CONTINUOUS
 10
27.256
 20
617.425
 30
0
 40
25.9963211435772
 50
149.765773576412
 51
150.219033594127
  0
ARC
  8
1
 62
3
  6
CONTINUOUS
 10
6.096
 20
629.765
 30
0
 40
1.50083310198036
 50
60.018360631152
 51
150.018360631151
  0
ARC
  8
1
 62
3
  6
CONTINUOUS
 10
10.516
 20
630.095
 30
0
 40
1.00061680977286
 50
239.821875125719
 51
323.130102354155
  0
ARC
  8
1
 62
3
  6
CONTINUOUS
 10
27.266
 20
617.425
 30
0
 40
20.0021848806574
 50
37.1162433450291
 51
142.883756654971
  0
ARC
  8
1
 62
3
  6
CONTINUOUS
 10
44.006
 20
630.105
 30
0
 40
0.998098191562341
 50
217.673593339831
 51
299.886526940424
  0
ARC
  8
1
 62
3
  6
CONTINUOUS
 10
644.825
 20
65.123
 30
0
 40
1.78341806652285
 50
149.840689912451
 51
210.684267141528
  0
ARC
  8
1
 62
3
  6
CONTINUOUS
 10
658.666
 20
34.196
 30
0
 40
1.78341806652275
 50
-90
 51
30.1593100875511
  0
ARC
  8
1
 62
3
  6
CONTINUOUS
 10
624.978
 20
30.718
 30
0
 40
1.793
 50
90
 51
150.612592065052
  0
ARC
  8
1
 62
3
  6
CONTINUOUS
 10
605.114
 20
3.287
 30
0
 40
1.79900416897789
 50
209.871292078071
 51
330.128707921927
  0
ARC
  8
1
 62
3
  6
CONTINUOUS
 10
585.249
 20
30.7
 30
0
 40
1.79900416897789
 50
29.8712920780728
 51
90
  0
ARC
  8
1
 62
3
  6
CONTINUOUS
 10
551.562
 20
34.196
 30
0
 40
1.793
 50
149.840689912451
 51
270
  0
ARC
  8
1
 62
3
  6
CONTINUOUS
 10
565.402
 20
65.105
 30
0
 40
1.78392068209317
 50
329.812919756367
 51
390.656778637771
  0
ARC
  8
1
 62
3
  6
CONTINUOUS
 10
551.562
 20
96.031
 30
0
 40
1.78341806652285
 50
90
 51
210.159310087549
  0
ARC
  8
1
 62
3
  6
CONTINUOUS
 10
585.249
 20
99.509
 30
0
 40
1.792
 50
270
 51
330.628298242642
  0
ARC
  8
1
 62
3
  6
CONTINUOUS
 10
605.114
 20
126.953
 30
0
 40
1.7995024312293
 50
29.8989018386152
 51
150.101098161387
  0
ARC
  8
1
 62
3
  6
CONTINUOUS
 10
624.978
 20
99.527
 30
0
 40
1.79813709154778
 50
209.887162032448
 51
270
  0
ARC
  8
1
 62
3
  6
CONTINUOUS
 10
658.666
 20
96.031
 30
0
 40
1.79299999999999
 50
-30.1593100875511
 51
90
  0
ARC
  8
1
 62
3
  6
CONTINUOUS
 10
211.642
 20
65.29
 30
0
 40
392.669848035217
 50
0.386527354203774
 51
2.58587898004783
  0
ARC
  8
1
 62
3
  6
CONTINUOUS
 10
602.303
 20
67.925
 30
0
 40
2.00004899939976
 50
-90.0000000000001
 51
0.401063905966466
  0
ARC
  8
1
 62
3
  6
CONTINUOUS
 10
605.157
 20
65.266
 30
0
 40
17.7502373223572
 50
177.872332780941
 51
182.715716899667
  0
ARC
  8
1
 62
3
  6
CONTINUOUS
 10
602.302
 20
62.425
 30
0
 40
2
 50
-0.401264531677072
 51
90
  0
ARC
  8
1
 62
3
  6
CONTINUOUS
 10
211.642
 20
65.29
 30
0
 40
392.669554360916
 50
357.407111146972
 51
359.579911339417
  0
ARC
  8
1
 62
3
  6
CONTINUOUS
 10
212.44
 20
65.266
 30
0
 40
393.372216080394
 50
357.415242025338
 51
359.588381472286
  0
ARC
  8
1
 62
3
  6
CONTINUOUS
 10
607.802
 20
62.425
 30
0
 40
2.00005624920901
 50
90.0000000000005
 51
179.570289710599
  0
ARC
  8
1
 62
3
  6
CONTINUOUS
 10
605.157
 20
65.266
 30
0
 40
17.749934675936
 50
357.284283100333
 51
362.127667219059
  0
ARC
  8
1
 62
3
  6
CONTINUOUS
 10
607.803
 20
67.925
 30
0
 40
2
 50
180.372417322017
 51
270
  0
ARC
  8
1
 62
3
  6
CONTINUOUS
 10
212.44
 20
65.266
 30
0
 40
393.371899206082
 50
0.385400625088975
 51
2.58475797466161
  0
ARC
  8
1
 62
3
  6
CONTINUOUS
 10
98.426
 20
629.755
 30
0
 40
1.50640300052809
 50
30.3328715279443
 51
119.815645912479
  0
ARC
  8
1
 62
3
  6
CONTINUOUS
 10
77.266
 20
617.425
 30
0
 40
26.0011143030448
 50
29.770030926114
 51
30.2354996088629
  0
ARC
  8
1
 62
3
  6
CONTINUOUS
 10
98.526
 20
629.595
 30
0
 40
1.50009333042978
 50
-60.018360631152
 51
29.4701062237406
  0
ARC
  8
1
 62
3
  6
CONTINUOUS
 10
96.606
 20
625.595
 30
0
 40
0.998979479268701
 50
119.901387879291
 51
202.987112192915
  0
ARC
  8
1
 62
3
  6
CONTINUOUS
 10
77.256
 20
617.435
 30
0
 40
20.0040978301947
 50
-82.8788897053622
 51
22.8593570077263
  0
ARC
  8
1
 62
3
  6
CONTINUOUS
 10
79.866
 20
596.585
 30
0
 40
0.999360795708923
 50
97.4165773124412
 51
180
  0
ARC
  8
1
 62
3
  6
CONTINUOUS
 10
77.356
 20
592.925
 30
0
 40
1.5
 50
-89.6180337952708
 51
0
  0
ARC
  8
1
 62
3
  6
CONTINUOUS
 10
77.266
 20
617.425
 30
0
 40
26.0001923069811
 50
269.757596225271
 51
270.220367296123
  0
ARC
  8
1
 62
3
  6
CONTINUOUS
 10
77.166
 20
592.925
 30
0
 40
1.50003333296297
 50
180
 51
269.618033795271
  0
ARC
  8
1
 62
3
  6
CONTINUOUS
 10
74.666
 20
596.582
 30
0
 40
1
 50
0
 51
82.9318599490931
  0
ARC
  8
1
 62
3
  6
CONTINUOUS
 10
77.266
 20
617.425
 30
0
 40
20.0049426392579
 50
157.115488756637
 51
262.887417245366
  0
ARC
  8
1
 62
3
  6
CONTINUOUS
 10
57.916
 20
625.595
 30
0
 40
1.00279260069071
 50
336.988968655044
 51
420.113473059576
  0
ARC
  8
1
 62
3
  6
CONTINUOUS
 10
55.996
 20
629.595
 30
0
 40
1.49636893846409
 50
150.340429586432
 51
240.008155665632
  0
ARC
  8
1
 62
3
  6
CONTINUOUS
 10
77.256
 20
617.425
 30
0
 40
25.9963211435772
 50
149.765773576412
 51
150.219033594127
  0
ARC
  8
1
 62
3
  6
CONTINUOUS
 10
56.096
 20
629.765
 30
0
 40
1.50083310198036
 50
60.018360631152
 51
150.018360631151
  0
ARC
  8
1
 62
3
  6
CONTINUOUS
 10
60.516
 20
630.095
 30
0
 40
1.00061680977286
 50
239.821875125719
 51
323.130102354155
  0
ARC
  8
1
 62
3
  6
CONTINUOUS
 10
77.266
 20
617.425
 30
0
 40
20.0021848806574
 50
37.1162433450291
 51
142.883756654971
  0
ARC
  8
1
 62
3
  6
CONTINUOUS
 10
94.006
 20
630.105
 30
0
 40
0.998098191562346
 50
217.673593339831
 51
299.886526940424
  0
ARC
  8
1
 62
3
  6
CONTINUOUS
 10
148.426
 20
629.755
 30
0
 40
1.50640300052809
 50
30.3328715279443
 51
119.815645912479
  0
ARC
  8
1
 62
3
  6
CONTINUOUS
 10
127.266
 20
617.425
 30
0
 40
26.0011143030448
 50
29.770030926114
 51
30.2354996088629
  0
ARC
  8
1
 62
3
  6
CONTINUOUS
 10
148.526
 20
629.595
 30
0
 40
1.50009333042977
 50
-60.018360631152
 51
29.4701062237409
  0
ARC
  8
1
 62
3
  6
CONTINUOUS
 10
146.606
 20
625.595
 30
0
 40
0.998979479268701
 50
119.901387879291
 51
202.987112192915
  0
ARC
  8
1
 62
3
  6
CONTINUOUS
 10
127.256
 20
617.435
 30
0
 40
20.0040978301947
 50
-82.8788897053622
 51
22.8593570077263
  0
ARC
  8
1
 62
3
  6
CONTINUOUS
 10
129.866
 20
596.585
 30
0
 40
0.999360795708925
 50
97.416577312442
 51
180
  0
ARC
  8
1
 62
3
  6
CONTINUOUS
 10
127.356
 20
592.925
 30
0
 40
1.5
 50
-89.6180337952708
 51
0
  0
ARC
  8
1
 62
3
  6
CONTINUOUS
 10
127.266
 20
617.425
 30
0
 40
26.0001923069811
 50
269.757596225271
 51
270.220367296123
  0
ARC
  8
1
 62
3
  6
CONTINUOUS
 10
127.166
 20
592.925
 30
0
 40
1.50003333296297
 50
180
 51
269.618033795271
  0
ARC
  8
1
 62
3
  6
CONTINUOUS
 10
124.666
 20
596.582
 30
0
 40
1
 50
0
 51
82.9318599490931
  0
ARC
  8
1
 62
3
  6
CONTINUOUS
 10
127.266
 20
617.425
 30
0
 40
20.0049426392579
 50
157.115488756637
 51
262.887417245366
  0
ARC
  8
1
 62
3
  6
CONTINUOUS
 10
107.916
 20
625.595
 30
0
 40
1.00279260069071
 50
336.988968655044
 51
420.113473059576
  0
ARC
  8
1
 62
3
  6
CONTINUOUS
 10
105.996
 20
629.595
 30
0
 40
1.49636893846408
 50
150.340429586432
 51
240.008155665633
  0
ARC
  8
1
 62
3
  6
CONTINUOUS
 10
127.256
 20
617.425
 30
0
 40
25.9963211435772
 50
149.765773576412
 51
150.219033594127
  0
ARC
  8
1
 62
3
  6
CONTINUOUS
 10
106.096
 20
629.765
 30
0
 40
1.50083310198036
 50
60.018360631152
 51
150.018360631151
  0
ARC
  8
1
 62
3
  6
CONTINUOUS
 10
110.516
 20
630.095
 30
0
 40
1.00061680977286
 50
239.821875125719
 51
323.130102354155
  0
ARC
  8
1
 62
3
  6
CONTINUOUS
 10
127.266
 20
617.425
 30
0
 40
20.0021848806574
 50
37.1162433450291
 51
142.883756654971
  0
ARC
  8
1
 62
3
  6
CONTINUOUS
 10
144.006
 20
630.105
 30
0
 40
0.998098191562335
 50
217.673593339831
 51
299.886526940424
  0
ARC
  8
1
 62
3
  6
CONTINUOUS
 10
198.426
 20
629.755
 30
0
 40
1.50640300052809
 50
30.3328715279443
 51
119.815645912479
  0
ARC
  8
1
 62
3
  6
CONTINUOUS
 10
177.266
 20
617.425
 30
0
 40
26.0011143030448
 50
29.7700309261148
 51
30.2354996088629
  0
ARC
  8
1
 62
3
  6
CONTINUOUS
 10
198.526
 20
629.595
 30
0
 40
1.50009333042977
 50
-60.018360631152
 51
29.4701062237409
  0
ARC
  8
1
 62
3
  6
CONTINUOUS
 10
196.606
 20
625.595
 30
0
 40
0.998979479268701
 50
119.901387879291
 51
202.987112192915
  0
ARC
  8
1
 62
3
  6
CONTINUOUS
 10
177.256
 20
617.435
 30
0
 40
20.0040978301947
 50
-82.8788897053622
 51
22.8593570077263
  0
ARC
  8
1
 62
3
  6
CONTINUOUS
 10
179.866
 20
596.585
 30
0
 40
0.999360795708925
 50
97.416577312442
 51
180
  0
ARC
  8
1
 62
3
  6
CONTINUOUS
 10
177.356
 20
592.925
 30
0
 40
1.5
 50
-89.6180337952702
 51
0
  0
ARC
  8
1
 62
3
  6
CONTINUOUS
 10
177.266
 20
617.425
 30
0
 40
26.0001923069811
 50
269.757596225271
 51
270.220367296123
  0
ARC
  8
1
 62
3
  6
CONTINUOUS
 10
177.166
 20
592.925
 30
0
 40
1.50003333296297
 50
180
 51
269.618033795271
  0
ARC
  8
1
 62
3
  6
CONTINUOUS
 10
174.666
 20
596.582
 30
0
 40
1
 50
0
 51
82.9318599490939
  0
ARC
  8
1
 62
3
  6
CONTINUOUS
 10
177.266
 20
617.425
 30
0
 40
20.0049426392579
 50
157.115488756637
 51
262.887417245366
  0
ARC
  8
1
 62
3
  6
CONTINUOUS
 10
157.916
 20
625.595
 30
0
 40
1.00279260069071
 50
336.988968655044
 51
420.113473059576
  0
ARC
  8
1
 62
3
  6
CONTINUOUS
 10
155.996
 20
629.595
 30
0
 40
1.49636893846409
 50
150.340429586432
 51
240.008155665632
  0
ARC
  8
1
 62
3
  6
CONTINUOUS
 10
177.256
 20
617.425
 30
0
 40
25.9963211435772
 50
149.765773576413
 51
150.219033594127
  0
ARC
  8
1
 62
3
  6
CONTINUOUS
 10
156.096
 20
629.765
 30
0
 40
1.50083310198037
 50
60.018360631152
 51
150.018360631151
  0
ARC
  8
1
 62
3
  6
CONTINUOUS
 10
160.516
 20
630.095
 30
0
 40
1.00061680977285
 50
239.82187512572
 51
323.130102354155
  0
ARC
  8
1
 62
3
  6
CONTINUOUS
 10
177.266
 20
617.425
 30
0
 40
20.0021848806574
 50
37.1162433450291
 51
142.883756654971
  0
ARC
  8
1
 62
3
  6
CONTINUOUS
 10
194.006
 20
630.105
 30
0
 40
0.998098191562335
 50
217.673593339831
 51
299.886526940424
  0
ARC
  8
1
 62
3
  6
CONTINUOUS
 10
248.426
 20
629.755
 30
0
 40
1.50640300052809
 50
30.3328715279443
 51
119.815645912479
  0
ARC
  8
1
 62
3
  6
CONTINUOUS
 10
227.266
 20
617.425
 30
0
 40
26.0011143030448
 50
29.7700309261148
 51
30.2354996088629
  0
ARC
  8
1
 62
3
  6
CONTINUOUS
 10
248.526
 20
629.595
 30
0
 40
1.50009333042977
 50
-60.018360631152
 51
29.4701062237409
  0
ARC
  8
1
 62
3
  6
CONTINUOUS
 10
246.606
 20
625.595
 30
0
 40
0.998979479268701
 50
119.901387879291
 51
202.987112192915
  0
ARC
  8
1
 62
3
  6
CONTINUOUS
 10
227.256
 20
617.435
 30
0
 40
20.0040978301947
 50
-82.8788897053622
 51
22.8593570077263
  0
ARC
  8
1
 62
3
  6
CONTINUOUS
 10
229.866
 20
596.585
 30
0
 40
0.999360795708925
 50
97.416577312442
 51
180
  0
ARC
  8
1
 62
3
  6
CONTINUOUS
 10
227.356
 20
592.925
 30
0
 40
1.5
 50
-89.6180337952702
 51
0
  0
ARC
  8
1
 62
3
  6
CONTINUOUS
 10
227.266
 20
617.425
 30
0
 40
26.0001923069811
 50
269.757596225271
 51
270.220367296123
  0
ARC
  8
1
 62
3
  6
CONTINUOUS
 10
227.166
 20
592.925
 30
0
 40
1.50003333296297
 50
180
 51
269.618033795271
  0
ARC
  8
1
 62
3
  6
CONTINUOUS
 10
224.666
 20
596.582
 30
0
 40
1
 50
0
 51
82.9318599490939
  0
ARC
  8
1
 62
3
  6
CONTINUOUS
 10
227.266
 20
617.425
 30
0
 40
20.0049426392579
 50
157.115488756637
 51
262.887417245366
  0
ARC
  8
1
 62
3
  6
CONTINUOUS
 10
207.916
 20
625.595
 30
0
 40
1.00279260069071
 50
336.988968655044
 51
420.113473059576
  0
ARC
  8
1
 62
3
  6
CONTINUOUS
 10
205.996
 20
629.595
 30
0
 40
1.49636893846409
 50
150.340429586432
 51
240.008155665632
  0
ARC
  8
1
 62
3
  6
CONTINUOUS
 10
227.256
 20
617.425
 30
0
 40
25.9963211435772
 50
149.765773576413
 51
150.219033594127
  0
ARC
  8
1
 62
3
  6
CONTINUOUS
 10
206.096
 20
629.765
 30
0
 40
1.50083310198037
 50
60.018360631152
 51
150.018360631151
  0
ARC
  8
1
 62
3
  6
CONTINUOUS
 10
210.516
 20
630.095
 30
0
 40
1.00061680977285
 50
239.82187512572
 51
323.130102354155
  0
ARC
  8
1
 62
3
  6
CONTINUOUS
 10
227.266
 20
617.425
 30
0
 40
20.0021848806574
 50
37.1162433450291
 51
142.883756654971
  0
ARC
  8
1
 62
3
  6
CONTINUOUS
 10
244.006
 20
630.105
 30
0
 40
0.998098191562335
 50
217.673593339831
 51
299.886526940424
  0
ARC
  8
1
 62
3
  6
CONTINUOUS
 10
298.426
 20
629.755
 30
0
 40
1.50640300052808
 50
30.3328715279438
 51
119.815645912478
  0
ARC
  8
1
 62
3
  6
CONTINUOUS
 10
277.266
 20
617.425
 30
0
 40
26.0011143030448
 50
29.7700309261148
 51
30.2354996088629
  0
ARC
  8
1
 62
3
  6
CONTINUOUS
 10
298.526
 20
629.595
 30
0
 40
1.50009333042977
 50
-60.018360631152
 51
29.4701062237409
  0
ARC
  8
1
 62
3
  6
CONTINUOUS
 10
296.606
 20
625.595
 30
0
 40
0.998979479268701
 50
119.901387879291
 51
202.987112192916
  0
ARC
  8
1
 62
3
  6
CONTINUOUS
 10
277.256
 20
617.435
 30
0
 40
20.0040978301948
 50
-82.8788897053621
 51
22.8593570077262
  0
ARC
  8
1
 62
3
  6
CONTINUOUS
 10
279.866
 20
596.585
 30
0
 40
0.999360795708918
 50
97.4165773124388
 51
180
  0
ARC
  8
1
 62
3
  6
CONTINUOUS
 10
277.356
 20
592.925
 30
0
 40
1.5
 50
-89.6180337952713
 51
0
  0
ARC
  8
1
 62
3
  6
CONTINUOUS
 10
277.266
 20
617.425
 30
0
 40
26.0001923069811
 50
269.75759622527
 51
270.220367296123
  0
ARC
  8
1
 62
3
  6
CONTINUOUS
 10
277.166
 20
592.925
 30
0
 40
1.50003333296297
 50
180
 51
269.618033795271
  0
ARC
  8
1
 62
3
  6
CONTINUOUS
 10
274.666
 20
596.582
 30
0
 40
1
 50
0
 51
82.9318599490939
  0
ARC
  8
1
 62
3
  6
CONTINUOUS
 10
277.266
 20
617.425
 30
0
 40
20.0049426392579
 50
157.115488756637
 51
262.887417245366
  0
ARC
  8
1
 62
3
  6
CONTINUOUS
 10
257.916
 20
625.595
 30
0
 40
1.00279260069071
 50
336.988968655044
 51
420.113473059576
  0
ARC
  8
1
 62
3
  6
CONTINUOUS
 10
255.996
 20
629.595
 30
0
 40
1.49636893846409
 50
150.340429586432
 51
240.008155665632
  0
ARC
  8
1
 62
3
  6
CONTINUOUS
 10
277.256
 20
617.425
 30
0
 40
25.9963211435772
 50
149.765773576413
 51
150.219033594127
  0
ARC
  8
1
 62
3
  6
CONTINUOUS
 10
256.096
 20
629.765
 30
0
 40
1.50083310198037
 50
60.018360631152
 51
150.018360631151
  0
ARC
  8
1
 62
3
  6
CONTINUOUS
 10
260.515
 20
630.095
 30
0
 40
1.00011449344564
 50
239.871399760147
 51
323.164452337757
  0
ARC
  8
1
 62
3
  6
CONTINUOUS
 10
277.266
 20
617.425
 30
0
 40
20.0021848806575
 50
37.1162433450291
 51
142.883756654971
  0
ARC
  8
1
 62
3
  6
CONTINUOUS
 10
294.006
 20
630.105
 30
0
 40
0.998098191562313
 50
217.673593339832
 51
299.886526940424
  0
ARC
  8
1
 62
3
  6
CONTINUOUS
 10
348.426
 20
629.755
 30
0
 40
1.50640300052808
 50
30.3328715279438
 51
119.815645912478
  0
ARC
  8
1
 62
3
  6
CONTINUOUS
 10
327.266
 20
617.425
 30
0
 40
26.0011143030448
 50
29.7700309261148
 51
30.2354996088629
  0
ARC
  8
1
 62
3
  6
CONTINUOUS
 10
348.526
 20
629.595
 30
0
 40
1.50009333042977
 50
-60.018360631152
 51
29.4701062237409
  0
ARC
  8
1
 62
3
  6
CONTINUOUS
 10
346.606
 20
625.595
 30
0
 40
0.998979479268701
 50
119.901387879291
 51
202.987112192916
  0
ARC
  8
1
 62
3
  6
CONTINUOUS
 10
327.256
 20
617.435
 30
0
 40
20.0040978301948
 50
-82.8788897053621
 51
22.8593570077262
  0
ARC
  8
1
 62
3
  6
CONTINUOUS
 10
329.866
 20
596.585
 30
0
 40
0.999360795708918
 50
97.4165773124388
 51
180
  0
ARC
  8
1
 62
3
  6
CONTINUOUS
 10
327.356
 20
592.925
 30
0
 40
1.5
 50
-89.6180337952713
 51
0
  0
ARC
  8
1
 62
3
  6
CONTINUOUS
 10
327.266
 20
617.425
 30
0
 40
26.0001923069811
 50
269.75759622527
 51
270.220367296123
  0
ARC
  8
1
 62
3
  6
CONTINUOUS
 10
327.166
 20
592.925
 30
0
 40
1.50003333296297
 50
180
 51
269.618033795271
  0
ARC
  8
1
 62
3
  6
CONTINUOUS
 10
324.666
 20
596.582
 30
0
 40
1
 50
0
 51
82.9318599490939
  0
ARC
  8
1
 62
3
  6
CONTINUOUS
 10
327.266
 20
617.425
 30
0
 40
20.0049426392579
 50
157.115488756637
 51
262.887417245366
  0
ARC
  8
1
 62
3
  6
CONTINUOUS
 10
307.916
 20
625.595
 30
0
 40
1.00279260069071
 50
336.988968655044
 51
420.113473059576
  0
ARC
  8
1
 62
3
  6
CONTINUOUS
 10
305.996
 20
629.595
 30
0
 40
1.49636893846408
 50
150.340429586432
 51
240.008155665633
  0
ARC
  8
1
 62
3
  6
CONTINUOUS
 10
327.256
 20
617.425
 30
0
 40
25.9963211435772
 50
149.765773576413
 51
150.219033594127
  0
ARC
  8
1
 62
3
  6
CONTINUOUS
 10
306.096
 20
629.765
 30
0
 40
1.50083310198037
 50
60.018360631152
 51
150.018360631151
  0
ARC
  8
1
 62
3
  6
CONTINUOUS
 10
310.516
 20
630.095
 30
0
 40
1.00061680977288
 50
239.821875125717
 51
323.130102354153
  0
ARC
  8
1
 62
3
  6
CONTINUOUS
 10
327.266
 20
617.425
 30
0
 40
20.0021848806575
 50
37.1162433450291
 51
142.883756654971
  0
ARC
  8
1
 62
3
  6
CONTINUOUS
 10
344.006
 20
630.105
 30
0
 40
0.998098191562313
 50
217.673593339832
 51
299.886526940424
  0
ARC
  8
1
 62
3
  6
CONTINUOUS
 10
398.426
 20
629.755
 30
0
 40
1.50640300052808
 50
30.3328715279438
 51
119.815645912478
  0
ARC
  8
1
 62
3
  6
CONTINUOUS
 10
377.266
 20
617.425
 30
0
 40
26.0011143030448
 50
29.7700309261148
 51
30.2354996088629
  0
ARC
  8
1
 62
3
  6
CONTINUOUS
 10
398.526
 20
629.595
 30
0
 40
1.50009333042977
 50
-60.018360631152
 51
29.4701062237409
  0
ARC
  8
1
 62
3
  6
CONTINUOUS
 10
396.606
 20
625.595
 30
0
 40
0.998979479268701
 50
119.901387879291
 51
202.987112192916
  0
ARC
  8
1
 62
3
  6
CONTINUOUS
 10
377.256
 20
617.435
 30
0
 40
20.0040978301948
 50
-82.8788897053621
 51
22.8593570077262
  0
ARC
  8
1
 62
3
  6
CONTINUOUS
 10
379.866
 20
596.585
 30
0
 40
0.999360795708918
 50
97.4165773124388
 51
180
  0
ARC
  8
1
 62
3
  6
CONTINUOUS
 10
377.356
 20
592.925
 30
0
 40
1.5
 50
-89.6180337952713
 51
0
  0
ARC
  8
1
 62
3
  6
CONTINUOUS
 10
377.266
 20
617.425
 30
0
 40
26.0001923069811
 50
269.75759622527
 51
270.220367296123
  0
ARC
  8
1
 62
3
  6
CONTINUOUS
 10
377.166
 20
592.925
 30
0
 40
1.50003333296297
 50
180
 51
269.618033795271
  0
ARC
  8
1
 62
3
  6
CONTINUOUS
 10
374.666
 20
596.582
 30
0
 40
1
 50
0
 51
82.9318599490939
  0
ARC
  8
1
 62
3
  6
CONTINUOUS
 10
377.266
 20
617.425
 30
0
 40
20.0049426392579
 50
157.115488756637
 51
262.887417245366
  0
ARC
  8
1
 62
3
  6
CONTINUOUS
 10
357.916
 20
625.595
 30
0
 40
1.00279260069071
 50
336.988968655044
 51
420.113473059576
  0
ARC
  8
1
 62
3
  6
CONTINUOUS
 10
355.996
 20
629.595
 30
0
 40
1.49636893846408
 50
150.340429586432
 51
240.008155665633
  0
ARC
  8
1
 62
3
  6
CONTINUOUS
 10
377.256
 20
617.425
 30
0
 40
25.9963211435772
 50
149.765773576413
 51
150.219033594127
  0
ARC
  8
1
 62
3
  6
CONTINUOUS
 10
356.096
 20
629.765
 30
0
 40
1.50083310198037
 50
60.018360631152
 51
150.018360631151
  0
ARC
  8
1
 62
3
  6
CONTINUOUS
 10
360.516
 20
630.095
 30
0
 40
1.00061680977288
 50
239.821875125717
 51
323.130102354153
  0
ARC
  8
1
 62
3
  6
CONTINUOUS
 10
377.266
 20
617.425
 30
0
 40
20.0021848806575
 50
37.1162433450291
 51
142.883756654971
  0
ARC
  8
1
 62
3
  6
CONTINUOUS
 10
394.006
 20
630.105
 30
0
 40
0.998098191562313
 50
217.673593339832
 51
299.886526940424
  0
ARC
  8
1
 62
3
  6
CONTINUOUS
 10
448.426
 20
629.755
 30
0
 40
1.50640300052808
 50
30.3328715279438
 51
119.815645912478
  0
ARC
  8
1
 62
3
  6
CONTINUOUS
 10
427.266
 20
617.425
 30
0
 40
26.0011143030448
 50
29.7700309261148
 51
30.2354996088629
  0
ARC
  8
1
 62
3
  6
CONTINUOUS
 10
448.526
 20
629.595
 30
0
 40
1.50009333042977
 50
-60.018360631152
 51
29.4701062237409
  0
ARC
  8
1
 62
3
  6
CONTINUOUS
 10
446.606
 20
625.595
 30
0
 40
0.998979479268701
 50
119.901387879291
 51
202.987112192916
  0
ARC
  8
1
 62
3
  6
CONTINUOUS
 10
427.256
 20
617.435
 30
0
 40
20.0040978301948
 50
-82.8788897053621
 51
22.8593570077262
  0
ARC
  8
1
 62
3
  6
CONTINUOUS
 10
429.866
 20
596.585
 30
0
 40
0.999360795708918
 50
97.4165773124388
 51
180
  0
ARC
  8
1
 62
3
  6
CONTINUOUS
 10
427.356
 20
592.925
 30
0
 40
1.5
 50
-89.6180337952713
 51
0
  0
ARC
  8
1
 62
3
  6
CONTINUOUS
 10
427.266
 20
617.425
 30
0
 40
26.0001923069811
 50
269.75759622527
 51
270.220367296123
  0
ARC
  8
1
 62
3
  6
CONTINUOUS
 10
427.166
 20
592.925
 30
0
 40
1.50003333296297
 50
180
 51
269.618033795271
  0
ARC
  8
1
 62
3
  6
CONTINUOUS
 10
424.666
 20
596.582
 30
0
 40
1
 50
0
 51
82.9318599490939
  0
ARC
  8
1
 62
3
  6
CONTINUOUS
 10
427.266
 20
617.425
 30
0
 40
20.0049426392579
 50
157.115488756637
 51
262.887417245366
  0
ARC
  8
1
 62
3
  6
CONTINUOUS
 10
407.916
 20
625.595
 30
0
 40
1.00279260069071
 50
336.988968655044
 51
420.113473059576
  0
ARC
  8
1
 62
3
  6
CONTINUOUS
 10
405.996
 20
629.595
 30
0
 40
1.49636893846408
 50
150.340429586432
 51
240.008155665633
  0
ARC
  8
1
 62
3
  6
CONTINUOUS
 10
427.256
 20
617.425
 30
0
 40
25.9963211435772
 50
149.765773576413
 51
150.219033594127
  0
ARC
  8
1
 62
3
  6
CONTINUOUS
 10
406.096
 20
629.765
 30
0
 40
1.50083310198037
 50
60.018360631152
 51
150.018360631151
  0
ARC
  8
1
 62
3
  6
CONTINUOUS
 10
410.516
 20
630.095
 30
0
 40
1.00061680977288
 50
239.821875125717
 51
323.130102354153
  0
ARC
  8
1
 62
3
  6
CONTINUOUS
 10
427.266
 20
617.425
 30
0
 40
20.0021848806575
 50
37.1162433450291
 51
142.883756654971
  0
ARC
  8
1
 62
3
  6
CONTINUOUS
 10
444.006
 20
630.105
 30
0
 40
0.998098191562313
 50
217.673593339832
 51
299.886526940424
  0
ARC
  8
1
 62
3
  6
CONTINUOUS
 10
498.426
 20
629.755
 30
0
 40
1.50640300052808
 50
30.3328715279438
 51
119.815645912478
  0
ARC
  8
1
 62
3
  6
CONTINUOUS
 10
477.266
 20
617.425
 30
0
 40
26.0011143030448
 50
29.7700309261148
 51
30.2354996088629
  0
ARC
  8
1
 62
3
  6
CONTINUOUS
 10
498.526
 20
629.595
 30
0
 40
1.50009333042977
 50
-60.018360631152
 51
29.4701062237409
  0
ARC
  8
1
 62
3
  6
CONTINUOUS
 10
496.606
 20
625.595
 30
0
 40
0.998979479268701
 50
119.901387879291
 51
202.987112192916
  0
ARC
  8
1
 62
3
  6
CONTINUOUS
 10
477.256
 20
617.435
 30
0
 40
20.0040978301948
 50
-82.8788897053621
 51
22.8593570077262
  0
ARC
  8
1
 62
3
  6
CONTINUOUS
 10
479.866
 20
596.585
 30
0
 40
0.999360795708918
 50
97.4165773124388
 51
180
  0
ARC
  8
1
 62
3
  6
CONTINUOUS
 10
477.356
 20
592.925
 30
0
 40
1.5
 50
-89.6180337952713
 51
0
  0
ARC
  8
1
 62
3
  6
CONTINUOUS
 10
477.266
 20
617.425
 30
0
 40
26.0001923069811
 50
269.75759622527
 51
270.220367296123
  0
ARC
  8
1
 62
3
  6
CONTINUOUS
 10
477.166
 20
592.925
 30
0
 40
1.50003333296297
 50
180
 51
269.618033795271
  0
ARC
  8
1
 62
3
  6
CONTINUOUS
 10
474.666
 20
596.582
 30
0
 40
1
 50
0
 51
82.9318599490939
  0
ARC
  8
1
 62
3
  6
CONTINUOUS
 10
477.266
 20
617.425
 30
0
 40
20.0049426392579
 50
157.115488756637
 51
262.887417245366
  0
ARC
  8
1
 62
3
  6
CONTINUOUS
 10
457.916
 20
625.595
 30
0
 40
1.00279260069071
 50
336.988968655044
 51
420.113473059576
  0
ARC
  8
1
 62
3
  6
CONTINUOUS
 10
455.996
 20
629.595
 30
0
 40
1.49636893846408
 50
150.340429586432
 51
240.008155665633
  0
ARC
  8
1
 62
3
  6
CONTINUOUS
 10
477.256
 20
617.425
 30
0
 40
25.9963211435772
 50
149.765773576413
 51
150.219033594127
  0
ARC
  8
1
 62
3
  6
CONTINUOUS
 10
456.096
 20
629.765
 30
0
 40
1.50083310198037
 50
60.018360631152
 51
150.018360631151
  0
ARC
  8
1
 62
3
  6
CONTINUOUS
 10
460.516
 20
630.095
 30
0
 40
1.00061680977288
 50
239.821875125717
 51
323.130102354153
  0
ARC
  8
1
 62
3
  6
CONTINUOUS
 10
477.266
 20
617.425
 30
0
 40
20.0021848806575
 50
37.1162433450291
 51
142.883756654971
  0
ARC
  8
1
 62
3
  6
CONTINUOUS
 10
494.006
 20
630.105
 30
0
 40
0.998098191562313
 50
217.673593339832
 51
299.886526940424
  0
ENDSEC
  0
EOF

