  0
SECTION
  2
HEADER
  9
$ACADVER
  1
AC1012
  9
$DWGCODEPAGE
  3
ansi_1251
  9
$INSBASE
 10
0.0
 20
0.0
 30
0.0
  9
$EXTMIN
 10
0.0
 20
0.0
 30
0.0
  9
$EXTMAX
 10
279.4
 20
215.9
 30
0.0
  9
$LIMMIN
 10
0.0
 20
0.0
  9
$LIMMAX
 10
0.0
 20
0.0
  9
$ORTHOMODE
 70
         0
  9
$REGENMODE
 70
         1
  9
$FILLMODE
 70
         1
  9
$QTEXTMODE
 70
         0
  9
$MIRRTEXT
 70
         1
  9
$DRAGMODE
 70
         2
  9
$LTSCALE
 40
1.0
  9
$OSMODE
 70
         0
  9
$ATTMODE
 70
         1
  9
$TEXTSIZE
 40
3.5
  9
$TRACEWID
 40
0.05
  9
$TEXTSTYLE
  7
STANDARD
  9
$CLAYER
  8
0
  9
$CELTYPE
  6
CONTINUOUS
  9
$CECOLOR
 62
       256
  9
$CELTSCALE
 40
1.0
  9
$DELOBJ
 70
         1
  9
$DISPSILH
 70
         0
  9
$DIMSCALE
 40
1.0
  9
$DIMASZ
 40
0.0
  9
$DIMEXO
 40
0.0
  9
$DIMDLI
 40
0.38
  9
$DIMRND
 40
0.0
  9
$DIMDLE
 40
0.0
  9
$DIMEXE
 40
0.18
  9
$DIMTP
 40
0.0
  9
$DIMTM
 40
0.0
  9
$DIMTXT
 40
3.5
  9
$DIMCEN
 40
0.09
  9
$DIMTSZ
 40
0.0
  9
$DIMTOL
 70
         0
  9
$DIMLIM
 70
         0
  9
$DIMTIH
 70
         1
  9
$DIMTOH
 70
         1
  9
$DIMSE1
 70
         0
  9
$DIMSE2
 70
         0
  9
$DIMTAD
 70
         1
  9
$DIMZIN
 70
         0
  9
$DIMBLK
  1

  9
$DIMASO
 70
         1
  9
$DIMSHO
 70
         1
  9
$DIMPOST
  1

  9
$DIMAPOST
  1

  9
$DIMALT
 70
         0
  9
$DIMALTD
 70
         2
  9
$DIMALTF
 40
0.0394
  9
$DIMLFAC
 40
1.0
  9
$DIMTOFL
 70
         0
  9
$DIMTVP
 40
0.0
  9
$DIMTIX
 70
         0
  9
$DIMSOXD
 70
         0
  9
$DIMSAH
 70
         0
  9
$DIMBLK1
  1

  9
$DIMBLK2
  1

  9
$DIMSTYLE
  2
STANDARD
  9
$DIMCLRD
 70
         0
  9
$DIMCLRE
 70
         0
  9
$DIMCLRT
 70
         0
  9
$DIMTFAC
 40
1.0
  9
$DIMGAP
 40
0.0
  9
$DIMJUST
 70
         0
  9
$DIMSD1
 70
         0
  9
$DIMSD2
 70
         0
  9
$DIMTOLJ
 70
         1
  9
$DIMTZIN
 70
         0
  9
$DIMALTZ
 70
         0
  9
$DIMALTTZ
 70
         0
  9
$DIMFIT
 70
         3
  9
$DIMUPT
 70
         0
  9
$DIMUNIT
 70
         2
  9
$DIMDEC
 70
         4
  9
$DIMTDEC
 70
         4
  9
$DIMALTU
 70
         2
  9
$DIMALTTD
 70
         2
  9
$DIMTXSTY
  7
STANDARD
  9
$DIMAUNIT
 70
         0
  9
$LUNITS
 70
         2
  9
$LUPREC
 70
         2
  9
$SKETCHINC
 40
0.1
  9
$FILLETRAD
 40
0.0
  9
$AUNITS
 70
         0
  9
$AUPREC
 70
         2
  9
$MENU
  1
acad
  9
$ELEVATION
 40
0.0
  9
$PELEVATION
 40
0.0
  9
$THICKNESS
 40
0.0
  9
$LIMCHECK
 70
         0
  9
$BLIPMODE
 70
         1
  9
$CHAMFERA
 40
0.0
  9
$CHAMFERB
 40
0.0
  9
$CHAMFERC
 40
0.0
  9
$CHAMFERD
 40
0.0
  9
$SKPOLY
 70
         0
  9
$TDCREATE
 40
0.000000000
  9
$TDUPDATE
 40
0.000000000
  9
$TDINDWG
 40
0.0000000000
  9
$TDUSRTIMER
 40
0.0000000000
  9
$USRTIMER
 70
         1
  9
$ANGBASE
 50
0.0
  9
$ANGDIR
 70
         0
  9
$PDMODE
 70
         0
  9
$PDSIZE
 40
-1.0
  9
$PLINEWID
 40
0.0
  9
$COORDS
 70
         0
  9
$SPLFRAME
 70
         0
  9
$SPLINETYPE
 70
         6
  9
$SPLINESEGS
 70
         8
  9
$ATTDIA
 70
         0
  9
$ATTREQ
 70
         1
  9
$HANDLING
 70
         1
  9
$HANDSEED
  5
CF
  9
$SURFTAB1
 70
         6
  9
$SURFTAB2
 70
         6
  9
$SURFTYPE
 70
         6
  9
$SURFU
 70
         6
  9
$SURFV
 70
         6
  9
$UCSNAME
  2

  9
$UCSORG
 10
0.0
 20
0.0
 30
0.0
  9
$UCSXDIR
 10
1.0
 20
0.0
 30
0.0
  9
$UCSYDIR
 10
0.0
 20
1.0
 30
0.0
  9
$PUCSNAME
  2

  9
$PUCSORG
 10
0.0
 20
0.0
 30
0.0
  9
$PUCSXDIR
 10
1.0
 20
0.0
 30
0.0
  9
$PUCSYDIR
 10
0.0
 20
1.0
 30
0.0
  9
$USERI1
 70
         0
  9
$USERI2
 70
         0
  9
$USERI3
 70
         0
  9
$USERI4
 70
         0
  9
$USERI5
 70
         0
  9
$USERR1
 40
0.0
  9
$USERR2
 40
0.0
  9
$USERR3
 40
0.0
  9
$USERR4
 40
0.0
  9
$USERR5
 40
0.0
  9
$WORLDVIEW
 70
         1
  9
$SHADEDGE
 70
         3
  9
$SHADEDIF
 70
        70
  9
$TILEMODE
 70
         1
  9
$MAXACTVP
 70
        16
  9
$PINSBASE
 10
0.0
 20
0.0
 30
0.0
  9
$PLIMCHECK
 70
         0
  9
$PEXTMIN
 10
1.0000000000E+20
 20
1.0000000000E+20
 30
1.0000000000E+20
  9
$PEXTMAX
 10
-1.0000000000E+20
 20
-1.0000000000E+20
 30
-1.0000000000E+20
  9
$PLIMMIN
 10
0.0
 20
0.0
  9
$PLIMMAX
 10
12.0
 20
9.0
  9
$UNITMODE
 70
         0
  9
$VISRETAIN
 70
         0
  9
$PLINEGEN
 70
         1
  9
$PSLTSCALE
 70
         1
  9
$TREEDEPTH
 70
      3020
  9
$PICKSTYLE
 70
         1
  9
$CMLSTYLE
  2
STANDARD
  9
$CMLJUST
 70
         0
  9
$CMLSCALE
 40
1.0
  9
$SAVEIMAGES
 70
         0
  0
ENDSEC
  0
SECTION
  2
CLASSES
  0
CLASS
  1
LWPOLYLINE
  2
AcDbPolyline
  3
"AutoCAD"
 90
    32768
280
         0
281
         1
  0
CLASS
  1
IMAGE
  2
AcDbRasterImage
  3
ISM
 90
    32895
280
         0
281
         1
  0
CLASS
  1
OLE2FRAME
  2
AcDbOle2Frame
  3
""
 90
    32768
280
         0
281
         1
  0
CLASS
  1
HATCH
  2
AcDbHatch
  3
"ACAD_SEDONA"
 90
    32768
280
         0
281
         1
  0
CLASS
  1
DICTIONARYVAR
  2
AcDbDictionaryVar
  3
"AutoCAD"
 90
    32768
280
         0
281
         0
  0
CLASS
  1
RASTERVARIABLES
  2
AcDbRasterVariables
  3
ISM
 90
    32768
280
         0
281
         0
  0
CLASS
  1
IMAGEDEF
  2
AcDbRasterImageDef
  3
ISM
 90
    32768
280
         0
281
         0
  0
CLASS
  1
IMAGEDEF_REACTOR
  2
AcDbRasterImageDefReactor
  3
ISM
 90
    32769
280
         0
281
         0
  0
CLASS
  1
IDBUFFER
  2
AcDbIdBuffer
  3
"Acad"
 90
    32768
280
         0
281
         0
  0
CLASS
  1
SPATIAL_FILTER
  2
AcDbSpatialFilter
  3
"Acad"
 90
    32768
280
         0
281
         0
  0
CLASS
  1
XRECORD
  2
AcDbXrecord
  3
"<Built In>"
 90
    32768
280
         0
281
         0
  0
CLASS
  1
SORTENTSTABLE
  2
AcDbSortentsTable
  3
"AutoCAD"
 90
    32768
280
         0
281
         0
  0
CLASS
  1
LAYER_INDEX
  2
AcDbLayerIndex
  3
"Acad"
 90
    32768
280
         0
281
         0
  0
CLASS
  1
SPATIAL_INDEX
  2
AcDbSpatialIndex
  3
"Acad"
 90
    32768
280
         0
281
         0
  0
CLASS
  1
OBJECT_PTR
  2
CAseDLPNTableRecord
  3
"ASE-LPNTableRecord"
 90
    32769
280
         0
281
         0
  0
CLASS
  1
LAYOUT
  2
AcDbLayout
  3
"AutoCAD 2000"
 90
    32768
280
         0
281
         0
  0
CLASS
  1
PLOTSETTINGS
  2
AcDbPlotSettings
  3
"AutoCAD 2000"
 90
    32768
280
         0
281
         0
  0
CLASS
  1
ACDBDICTIONARYWDFLT
  2
AcDbDictionaryWithDefault
  3
"AutoCAD 2000"
 90
    32768
280
         0
281
         0
  0
CLASS
  1
ACDBPLACEHOLDER
  2
AcDbPlaceHolder
  3
"AutoCAD 2000"
 90
    32768
280
         0
281
         0
  0
CLASS
  1
VBA_PROJECT
  2
AcDbVbaProject
  3
"acadvba"
 90
    32768
280
         0
281
         0
  0
CLASS
  1
WIPEOUT
  2
AcDbWipeout
  3
WipeOut|AutoCAD Express Tool|expresstools@autodesk.com
 90
    32895
280
         0
281
         1
  0
CLASS
  1
WIPEOUTVARIABLES
  2
AcDbWipeoutVariables
  3
WipeOut|AutoCAD Express Tool|expresstools@autodesk.com
 90
    32768
280
         0
281
         0
  0
CLASS
  1
RTEXT
  2
RText
  3
RText|AutoCAD Express Tool|expresstools@autodesk.com
 90
    32768
280
         0
281
         1
  0
CLASS
  1
ARCALIGNEDTEXT
  2
AcDbArcAlignedText
  3
ATEXT|AutoCAD Express Tool|expresstools@autodesk.com
 90
    32768
280
         0
281
         1
  0
ENDSEC
  0
SECTION
  2
TABLES
  0
TABLE
  2
VPORT
  5
7
100
AcDbSymbolTable
 70
         1
  0
VPORT
  5
15
100
AcDbSymbolTableRecord
100
AcDbViewportTableRecord
  2
*ACTIVE
 70
         0
 10
0.0
 20
0.0
 11
1.0
 21
1.0
 12
139.7
 22
107.95
 13
0.0
 23
0.0
 14
1.0
 24
1.0
 15
0.0
 25
0.0
 16
0.0
 26
0.0
 36
1.0
 17
0.0
 27
0.0
 37
0.0
 40
215.9
 41
0.7727272727
 42
50.0
 43
0.0
 44
0.0
 50
0.0
 51
0.0
 71
         0
 72
      2000
 73
         1
 74
         1
 75
         0
 76
         0
 77
         0
 78
         0
  0
ENDTAB
  0
TABLE
  2
LTYPE
  5
4
100
AcDbSymbolTable
 70
         8
  0
LTYPE
  5
11
100
AcDbSymbolTableRecord
100
AcDbLinetypeTableRecord
  2
BYBLOCK
 70
        64
  3

 72
        65
 73
         0
 40
0.0
  0
LTYPE
  5
12
100
AcDbSymbolTableRecord
100
AcDbLinetypeTableRecord
  2
BYLAYER
 70
        64
  3

 72
        65
 73
         0
 40
0.0
  0
LTYPE
  5
13
100
AcDbSymbolTableRecord
100
AcDbLinetypeTableRecord
  2
CONTINUOUS
 70
        64
  3
Solid line
 72
        65
 73
         0
 40
0.0
  0
LTYPE
  5
1D
100
AcDbSymbolTableRecord
100
AcDbLinetypeTableRecord
  2
HIDDEN
 70
        64
  3
Hidden __ __ __ __ __ __ __ __ __ __ __ __ __ __
 72
        65
 73
         2
 40
1.905
 49
1.27
 74
         0
 49
-0.635
 74
         0
  0
LTYPE
  5
1E
100
AcDbSymbolTableRecord
100
AcDbLinetypeTableRecord
  2
PHANTOM
 70
        64
  3
Phantom ______  __  __  ______  __  __  ______
 72
        65
 73
         6
 40
12.7
 49
6.35
 74
         0
 49
-1.27
 74
         0
 49
1.27
 74
         0
 49
-1.27
 74
         0
 49
1.27
 74
         0
 49
-1.27
 74
         0
  0
LTYPE
  5
1F
100
AcDbSymbolTableRecord
100
AcDbLinetypeTableRecord
  2
CENTER
 70
        64
  3
Center ____ _ ____ _ ____ _ ____ _ ____ _ ____
 72
        65
 73
         4
 40
10.16
 49
6.35
 74
         0
 49
-1.27
 74
         0
 49
1.27
 74
         0
 49
-1.27
 74
         0
  0
LTYPE
  5
20
100
AcDbSymbolTableRecord
100
AcDbLinetypeTableRecord
  2
CENTERX2
 70
        64
  3
Center (2x) ________  __  ________  __  _____
 72
        65
 73
         4
 40
20.32
 49
12.7
 74
         0
 49
-2.54
 74
         0
 49
2.54
 74
         0
 49
-2.54
 74
         0
  0
LTYPE
  5
21
100
AcDbSymbolTableRecord
100
AcDbLinetypeTableRecord
  2
DOT2
 70
        64
  3
Dot (.5x) ........................................
 72
        65
 73
         2
 40
0.635
 49
0.0
 74
         0
 49
-0.635
 74
         0
  0
ENDTAB
  0
TABLE
  2
LAYER
  5
2
100
AcDbSymbolTable
 70
         2
  0
LAYER
  5
14
100
AcDbSymbolTableRecord
100
AcDbLayerTableRecord
  2
0
 70
         0
 62
         7
  6
CONTINUOUS
  0
LAYER
  5
23
100
AcDbSymbolTableRecord
100
AcDbLayerTableRecord
  2
DEFPOINTS
 70
         0
 62
         7
  6
CONTINUOUS
  0
ENDTAB
  0
TABLE
  2
STYLE
  5
3
100
AcDbSymbolTable
 70
         1
  0
STYLE
  5
17
100
AcDbSymbolTableRecord
100
AcDbTextStyleTableRecord
  2
STANDARD
 70
         0
 40
0.0
 41
1.0
 50
0.0
 71
         0
 42
0.0
  3
txt
  4

  0
ENDTAB
  0
TABLE
  2
VIEW
  5
5
100
AcDbSymbolTable
 70
         0
  0
ENDTAB
  0
TABLE
  2
UCS
  5
6
100
AcDbSymbolTable
 70
         0
  0
ENDTAB
  0
TABLE
  2
APPID
  5
8
100
AcDbSymbolTable
 70
         1
  0
APPID
  5
16
100
AcDbSymbolTableRecord
100
AcDbRegAppTableRecord
  2
ACAD
 70
         0
  0
ENDTAB
  0
TABLE
  2
DIMSTYLE
  5
9
100
AcDbSymbolTable
 70
         1
  0
DIMSTYLE
105
18
100
AcDbSymbolTableRecord
100
AcDbDimStyleTableRecord
  2
STANDARD
 70
         0
  3

  4

  5

  6

  7

 40
1.0
 41
0.18
 42
0.0625
 43
0.38
 44
0.18
 45
0.0
 46
0.0
 47
0.0
 48
0.0
 71
         0
 72
         0
 73
         1
 74
         1
 75
         0
 76
         0
 77
         0
 78
         0
140
0.18
141
0.09
142
0.0
143
25.4
144
1.0
145
0.0
146
1.0
147
0.09
170
         0
171
         2
172
         0
173
         0
174
         0
175
         0
176
         0
177
         0
178
         0
270
         2
271
         4
272
         4
273
         2
274
         2
275
         0
280
         0
281
         0
282
         0
283
         1
284
         0
285
         0
286
         0
287
         3
288
         0
340
17
  0
ENDTAB
  0
TABLE
  2
BLOCK_RECORD
  5
1
100
AcDbSymbolTable
 70
         0
  0
BLOCK_RECORD
  5
A
100
AcDbSymbolTableRecord
100
AcDbBlockTableRecord
  2
*MODEL_SPACE
  0
BLOCK_RECORD
  5
B
100
AcDbSymbolTableRecord
100
AcDbBlockTableRecord
  2
*PAPER_SPACE
  0
ENDTAB
  0
ENDSEC
  0
SECTION
  2
BLOCKS
  0
BLOCK
  5
D
100
AcDbEntity
  8
0
100
AcDbBlockBegin
  2
*MODEL_SPACE
 70
         0
 10
0.0
 20
0.0
 30
0.0
  3
*MODEL_SPACE
  1

  0
ENDBLK
  5
E
100
AcDbEntity
  8
0
100
AcDbBlockEnd
  0
BLOCK
  5
F
100
AcDbEntity
 67
         1
  8
0
100
AcDbBlockBegin
  2
*PAPER_SPACE
 70
         0
 10
0.0
 20
0.0
 30
0.0
  3
*PAPER_SPACE
  1

  0
ENDBLK
  5
10
100
AcDbEntity
 67
         1
  8
0
100
AcDbBlockEnd
  0
ENDSEC
  0
SECTION
  2
ENTITIES
  0
LINE
  5
24
100
AcDbEntity
  8
0
  6
CONTINUOUS
 62
         7
100
AcDbLine
 10
20.3362707424
 20
48.5802620087
 30
0.0
 11
46.3362707424
 21
48.5802620087
 31
0.0
  0
LINE
  5
25
100
AcDbEntity
  8
0
  6
CONTINUOUS
 62
         7
100
AcDbLine
 10
-123.136849407
 20
42.5802620087
 30
0.0
 11
-119.6637292576
 21
42.5802620087
 31
0.0
  0
LINE
  5
26
100
AcDbEntity
  8
0
  6
CONTINUOUS
 62
         7
100
AcDbLine
 10
20.3362707424
 20
48.5802620087
 30
0.0
 11
20.3362707424
 21
51.5802620087
 31
0.0
  0
LINE
  5
27
100
AcDbEntity
  8
0
  6
CONTINUOUS
 62
         7
100
AcDbLine
 10
-75.7664818988
 20
222.5802620087
 30
0.0
 11
-85.7664818988
 21
212.5802620087
 31
0.0
  0
LINE
  5
28
100
AcDbEntity
  8
0
  6
CONTINUOUS
 62
         7
100
AcDbLine
 10
46.3362707424
 20
48.5802620087
 30
0.0
 11
46.3362707424
 21
51.5802620087
 31
0.0
  0
LINE
  5
29
100
AcDbEntity
  8
0
  6
CONTINUOUS
 62
         7
100
AcDbLine
 10
22.3362707424
 20
53.5802620087
 30
0.0
 11
44.3362707424
 21
53.5802620087
 31
0.0
  0
LINE
  5
2A
100
AcDbEntity
  8
0
  6
CONTINUOUS
 62
         7
100
AcDbLine
 10
-116.6637292576
 20
45.5802620087
 30
0.0
 11
-116.6637292576
 21
132.5802620087
 31
0.0
  0
LINE
  5
2B
100
AcDbEntity
  8
0
  6
CONTINUOUS
 62
         7
100
AcDbLine
 10
353.3362707424
 20
45.5802620087
 30
0.0
 11
353.3362707424
 21
132.5802620087
 31
0.0
  0
LINE
  5
2C
100
AcDbEntity
  8
0
  6
CONTINUOUS
 62
         7
100
AcDbLine
 10
-112.6637292576
 20
130.2717511734
 30
0.0
 11
-112.6637292576
 21
45.5802620087
 31
0.0
  0
LINE
  5
2D
100
AcDbEntity
  8
0
  6
CONTINUOUS
 62
         7
100
AcDbLine
 10
349.3362707424
 20
130.2717511734
 30
0.0
 11
349.3362707424
 21
45.5802620087
 31
0.0
  0
LINE
  5
2E
100
AcDbEntity
  8
0
  6
CONTINUOUS
 62
         7
100
AcDbLine
 10
190.3362707424
 20
48.5802620087
 30
0.0
 11
216.3362707424
 21
48.5802620087
 31
0.0
  0
LINE
  5
2F
100
AcDbEntity
  8
0
  6
CONTINUOUS
 62
         7
100
AcDbLine
 10
-109.6637292576
 20
42.5802620087
 30
0.0
 11
2.4103882222
 21
42.5802620087
 31
0.0
  0
LINE
  5
30
100
AcDbEntity
  8
0
  6
CONTINUOUS
 62
         7
100
AcDbLine
 10
192.3362707424
 20
53.5802620087
 30
0.0
 11
214.3362707424
 21
53.5802620087
 31
0.0
  0
LINE
  5
31
100
AcDbEntity
  8
0
  6
CONTINUOUS
 62
         7
100
AcDbLine
 10
64.2621532625
 20
42.5802620087
 30
0.0
 11
172.4103882222
 21
42.5802620087
 31
0.0
  0
LINE
  5
32
100
AcDbEntity
  8
0
  6
CONTINUOUS
 62
         7
100
AcDbLine
 10
353.3362707424
 20
132.5802620087
 30
0.0
 11
349.3362707424
 21
132.5802620087
 31
0.0
  0
LINE
  5
33
100
AcDbEntity
  8
0
  6
CONTINUOUS
 62
         7
100
AcDbLine
 10
234.2621532625
 20
42.5802620087
 30
0.0
 11
346.3362707424
 21
42.5802620087
 31
0.0
  0
LINE
  5
34
100
AcDbEntity
  8
0
  6
CONTINUOUS
 62
         7
100
AcDbLine
 10
312.4390233835
 20
222.5802620087
 30
0.0
 11
322.4390233835
 21
212.5802620087
 31
0.0
  0
LINE
  5
35
100
AcDbEntity
  8
0
  6
CONTINUOUS
 62
         7
100
AcDbLine
 10
356.3362707424
 20
42.5802620087
 30
0.0
 11
359.8093908917
 21
42.5802620087
 31
0.0
  0
LINE
  5
36
100
AcDbEntity
  8
0
  6
CONTINUOUS
 62
         7
100
AcDbLine
 10
216.3362707424
 20
48.5802620087
 30
0.0
 11
216.3362707424
 21
51.5802620087
 31
0.0
  0
LINE
  5
37
100
AcDbEntity
  8
0
  6
CONTINUOUS
 62
         7
100
AcDbLine
 10
-48.6637292576
 20
212.5802620087
 30
0.0
 11
-44.6637292576
 21
212.5802620087
 31
0.0
  0
LINE
  5
38
100
AcDbEntity
  8
0
  6
CONTINUOUS
 62
         7
100
AcDbLine
 10
285.3362707424
 20
212.5802620087
 30
0.0
 11
281.3362707424
 21
212.5802620087
 31
0.0
  0
LINE
  5
39
100
AcDbEntity
  8
0
  6
CONTINUOUS
 62
         7
100
AcDbLine
 10
-112.6637292576
 20
222.5802620087
 30
0.0
 11
-102.6637292576
 21
212.5802620087
 31
0.0
  0
LINE
  5
3A
100
AcDbEntity
  8
0
  6
CONTINUOUS
 62
         7
100
AcDbLine
 10
349.3362707424
 20
222.5802620087
 30
0.0
 11
339.3362707424
 21
212.5802620087
 31
0.0
  0
LINE
  5
3B
100
AcDbEntity
  8
0
  6
CONTINUOUS
 62
         7
100
AcDbLine
 10
-112.6637292576
 20
222.5802620087
 30
0.0
 11
-119.6637292576
 21
222.5802620087
 31
0.0
  0
LINE
  5
3C
100
AcDbEntity
  8
0
  6
CONTINUOUS
 62
         7
100
AcDbLine
 10
349.3362707424
 20
222.5802620087
 30
0.0
 11
356.3362707424
 21
222.5802620087
 31
0.0
  0
LINE
  5
3D
100
AcDbEntity
  8
0
  6
CONTINUOUS
 62
         7
100
AcDbLine
 10
-112.6637292576
 20
132.5802620087
 30
0.0
 11
-116.6637292576
 21
132.5802620087
 31
0.0
  0
LINE
  5
3E
100
AcDbEntity
  8
0
  6
CONTINUOUS
 62
         7
100
AcDbLine
 10
190.3362707424
 20
48.5802620087
 30
0.0
 11
190.3362707424
 21
51.5802620087
 31
0.0
  0
LINE
  5
3F
100
AcDbEntity
  8
0
  6
CONTINUOUS
 62
         7
100
AcDbLine
 10
113.3362707424
 20
222.5802620087
 30
0.0
 11
123.3362707424
 21
222.5802620087
 31
0.0
  0
LINE
  5
40
100
AcDbEntity
  8
0
  6
CONTINUOUS
 62
         7
100
AcDbLine
 10
-26.6637292576
 20
222.5802620087
 30
0.0
 11
-21.6637292576
 21
217.5802620087
 31
0.0
  0
LINE
  5
41
100
AcDbEntity
  8
0
  6
CONTINUOUS
 62
         7
100
AcDbLine
 10
-44.6637292576
 20
212.5802620087
 30
0.0
 11
-44.6637292576
 21
217.5802620087
 31
0.0
  0
LINE
  5
42
100
AcDbEntity
  8
0
  6
CONTINUOUS
 62
         7
100
AcDbLine
 10
48.3362707424
 20
217.5802620087
 30
0.0
 11
45.3362707424
 21
217.5802620087
 31
0.0
  0
LINE
  5
43
100
AcDbEntity
  8
0
  6
CONTINUOUS
 62
         7
100
AcDbLine
 10
71.3362707424
 20
212.5802620087
 30
0.0
 11
71.3362707424
 21
217.5802620087
 31
0.0
  0
LINE
  5
44
100
AcDbEntity
  8
0
  6
CONTINUOUS
 62
         7
100
AcDbLine
 10
101.3362707424
 20
212.5802620087
 30
0.0
 11
101.3362707424
 21
217.5802620087
 31
0.0
  0
LINE
  5
45
100
AcDbEntity
  8
0
  6
CONTINUOUS
 62
         7
100
AcDbLine
 10
191.3362707424
 20
212.5802620087
 30
0.0
 11
191.3362707424
 21
217.5802620087
 31
0.0
  0
LINE
  5
46
100
AcDbEntity
  8
0
  6
CONTINUOUS
 62
         7
100
AcDbLine
 10
131.3362707424
 20
212.5802620087
 30
0.0
 11
131.3362707424
 21
217.5802620087
 31
0.0
  0
LINE
  5
47
100
AcDbEntity
  8
0
  6
CONTINUOUS
 62
         7
100
AcDbLine
 10
18.3362707424
 20
217.5802620087
 30
0.0
 11
15.3362707424
 21
217.5802620087
 31
0.0
  0
LINE
  5
48
100
AcDbEntity
  8
0
  6
CONTINUOUS
 62
         7
100
AcDbLine
 10
168.3362707424
 20
217.5802620087
 30
0.0
 11
165.3362707424
 21
217.5802620087
 31
0.0
  0
LINE
  5
49
100
AcDbEntity
  8
0
  6
CONTINUOUS
 62
         7
100
AcDbLine
 10
213.3362707424
 20
222.5802620087
 30
0.0
 11
218.3362707424
 21
217.5802620087
 31
0.0
  0
LINE
  5
4A
100
AcDbEntity
  8
0
  6
CONTINUOUS
 62
         7
100
AcDbLine
 10
23.3362707424
 20
222.5802620087
 30
0.0
 11
33.3362707424
 21
222.5802620087
 31
0.0
  0
LINE
  5
4B
100
AcDbEntity
  8
0
  6
CONTINUOUS
 62
         7
100
AcDbLine
 10
53.3362707424
 20
222.5802620087
 30
0.0
 11
63.3362707424
 21
222.5802620087
 31
0.0
  0
LINE
  5
4C
100
AcDbEntity
  8
0
  6
CONTINUOUS
 62
         7
100
AcDbLine
 10
-14.6637292576
 20
212.5802620087
 30
0.0
 11
-14.6637292576
 21
217.5802620087
 31
0.0
  0
LINE
  5
4D
100
AcDbEntity
  8
0
  6
CONTINUOUS
 62
         7
100
AcDbLine
 10
-56.6637292576
 20
222.5802620087
 30
0.0
 11
-51.6637292576
 21
217.5802620087
 31
0.0
  0
LINE
  5
4E
100
AcDbEntity
  8
0
  6
CONTINUOUS
 62
         7
100
AcDbLine
 10
-6.6637292576
 20
222.5802620087
 30
0.0
 11
-11.6637292576
 21
217.5802620087
 31
0.0
  0
LINE
  5
4F
100
AcDbEntity
  8
0
  6
CONTINUOUS
 62
         7
100
AcDbLine
 10
255.3362707424
 20
212.5802620087
 30
0.0
 11
255.3362707424
 21
217.5802620087
 31
0.0
  0
LINE
  5
50
100
AcDbEntity
  8
0
  6
CONTINUOUS
 62
         7
100
AcDbLine
 10
251.3362707424
 20
212.5802620087
 30
0.0
 11
251.3362707424
 21
217.5802620087
 31
0.0
  0
LINE
  5
51
100
AcDbEntity
  8
0
  6
CONTINUOUS
 62
         7
100
AcDbLine
 10
213.3362707424
 20
222.5802620087
 30
0.0
 11
203.3362707424
 21
222.5802620087
 31
0.0
  0
LINE
  5
52
100
AcDbEntity
  8
0
  6
CONTINUOUS
 62
         7
100
AcDbLine
 10
41.3362707424
 20
212.5802620087
 30
0.0
 11
45.3362707424
 21
212.5802620087
 31
0.0
  0
LINE
  5
53
100
AcDbEntity
  8
0
  6
CONTINUOUS
 62
         7
100
AcDbLine
 10
71.3362707424
 20
212.5802620087
 30
0.0
 11
75.3362707424
 21
212.5802620087
 31
0.0
  0
LINE
  5
54
100
AcDbEntity
  8
0
  6
CONTINUOUS
 62
         7
100
AcDbLine
 10
83.3362707424
 20
222.5802620087
 30
0.0
 11
78.3362707424
 21
217.5802620087
 31
0.0
  0
LINE
  5
55
100
AcDbEntity
  8
0
  6
CONTINUOUS
 62
         7
100
AcDbLine
 10
98.3362707424
 20
217.5802620087
 30
0.0
 11
101.3362707424
 21
217.5802620087
 31
0.0
  0
LINE
  5
56
100
AcDbEntity
  8
0
  6
CONTINUOUS
 62
         7
100
AcDbLine
 10
153.3362707424
 20
222.5802620087
 30
0.0
 11
158.3362707424
 21
217.5802620087
 31
0.0
  0
LINE
  5
57
100
AcDbEntity
  8
0
  6
CONTINUOUS
 62
         7
100
AcDbLine
 10
165.3362707424
 20
212.5802620087
 30
0.0
 11
161.3362707424
 21
212.5802620087
 31
0.0
  0
LINE
  5
58
100
AcDbEntity
  8
0
  6
CONTINUOUS
 62
         7
100
AcDbLine
 10
195.3362707424
 20
212.5802620087
 30
0.0
 11
191.3362707424
 21
212.5802620087
 31
0.0
  0
LINE
  5
59
100
AcDbEntity
  8
0
  6
CONTINUOUS
 62
         7
100
AcDbLine
 10
225.3362707424
 20
212.5802620087
 30
0.0
 11
225.3362707424
 21
217.5802620087
 31
0.0
  0
LINE
  5
5A
100
AcDbEntity
  8
0
  6
CONTINUOUS
 62
         7
100
AcDbLine
 10
83.3362707424
 20
222.5802620087
 30
0.0
 11
93.3362707424
 21
222.5802620087
 31
0.0
  0
LINE
  5
5B
100
AcDbEntity
  8
0
  6
CONTINUOUS
 62
         7
100
AcDbLine
 10
138.3362707424
 20
217.5802620087
 30
0.0
 11
135.3362707424
 21
217.5802620087
 31
0.0
  0
LINE
  5
5C
100
AcDbEntity
  8
0
  6
CONTINUOUS
 62
         7
100
AcDbLine
 10
-18.6637292576
 20
212.5802620087
 30
0.0
 11
-18.6637292576
 21
217.5802620087
 31
0.0
  0
LINE
  5
5D
100
AcDbEntity
  8
0
  6
CONTINUOUS
 62
         7
100
AcDbLine
 10
-21.6637292576
 20
217.5802620087
 30
0.0
 11
-18.6637292576
 21
217.5802620087
 31
0.0
  0
LINE
  5
5E
100
AcDbEntity
  8
0
  6
CONTINUOUS
 62
         7
100
AcDbLine
 10
258.3362707424
 20
217.5802620087
 30
0.0
 11
255.3362707424
 21
217.5802620087
 31
0.0
  0
LINE
  5
5F
100
AcDbEntity
  8
0
  6
CONTINUOUS
 62
         7
100
AcDbLine
 10
243.3362707424
 20
222.5802620087
 30
0.0
 11
248.3362707424
 21
217.5802620087
 31
0.0
  0
LINE
  5
60
100
AcDbEntity
  8
0
  6
CONTINUOUS
 62
         7
100
AcDbLine
 10
255.3362707424
 20
212.5802620087
 30
0.0
 11
251.3362707424
 21
212.5802620087
 31
0.0
  0
LINE
  5
61
100
AcDbEntity
  8
0
  6
CONTINUOUS
 62
         7
100
AcDbLine
 10
312.4390233835
 20
222.5802620087
 30
0.0
 11
293.3362707424
 21
222.5802620087
 31
0.0
  0
LINE
  5
62
100
AcDbEntity
  8
0
  6
CONTINUOUS
 62
         7
100
AcDbLine
 10
-51.6637292576
 20
217.5802620087
 30
0.0
 11
-48.6637292576
 21
217.5802620087
 31
0.0
  0
LINE
  5
63
100
AcDbEntity
  8
0
  6
CONTINUOUS
 62
         7
100
AcDbLine
 10
11.3362707424
 20
212.5802620087
 30
0.0
 11
11.3362707424
 21
217.5802620087
 31
0.0
  0
LINE
  5
64
100
AcDbEntity
  8
0
  6
CONTINUOUS
 62
         7
100
AcDbLine
 10
23.3362707424
 20
222.5802620087
 30
0.0
 11
18.3362707424
 21
217.5802620087
 31
0.0
  0
LINE
  5
65
100
AcDbEntity
  8
0
  6
CONTINUOUS
 62
         7
100
AcDbLine
 10
68.3362707424
 20
217.5802620087
 30
0.0
 11
71.3362707424
 21
217.5802620087
 31
0.0
  0
LINE
  5
66
100
AcDbEntity
  8
0
  6
CONTINUOUS
 62
         7
100
AcDbLine
 10
165.3362707424
 20
212.5802620087
 30
0.0
 11
165.3362707424
 21
217.5802620087
 31
0.0
  0
LINE
  5
67
100
AcDbEntity
  8
0
  6
CONTINUOUS
 62
         7
100
AcDbLine
 10
218.3362707424
 20
217.5802620087
 30
0.0
 11
221.3362707424
 21
217.5802620087
 31
0.0
  0
LINE
  5
68
100
AcDbEntity
  8
0
  6
CONTINUOUS
 62
         7
100
AcDbLine
 10
273.3362707424
 20
222.5802620087
 30
0.0
 11
263.3362707424
 21
222.5802620087
 31
0.0
  0
LINE
  5
69
100
AcDbEntity
  8
0
  6
CONTINUOUS
 62
         7
100
AcDbLine
 10
-48.6637292576
 20
212.5802620087
 30
0.0
 11
-48.6637292576
 21
217.5802620087
 31
0.0
  0
LINE
  5
6A
100
AcDbEntity
  8
0
  6
CONTINUOUS
 62
         7
100
AcDbLine
 10
45.3362707424
 20
212.5802620087
 30
0.0
 11
45.3362707424
 21
217.5802620087
 31
0.0
  0
LINE
  5
6B
100
AcDbEntity
  8
0
  6
CONTINUOUS
 62
         7
100
AcDbLine
 10
188.3362707424
 20
217.5802620087
 30
0.0
 11
191.3362707424
 21
217.5802620087
 31
0.0
  0
LINE
  5
6C
100
AcDbEntity
  8
0
  6
CONTINUOUS
 62
         7
100
AcDbLine
 10
233.3362707424
 20
222.5802620087
 30
0.0
 11
228.3362707424
 21
217.5802620087
 31
0.0
  0
LINE
  5
6D
100
AcDbEntity
  8
0
  6
CONTINUOUS
 62
         7
100
AcDbLine
 10
153.3362707424
 20
222.5802620087
 30
0.0
 11
143.3362707424
 21
222.5802620087
 31
0.0
  0
LINE
  5
6E
100
AcDbEntity
  8
0
  6
CONTINUOUS
 62
         7
100
AcDbLine
 10
-41.6637292576
 20
217.5802620087
 30
0.0
 11
-44.6637292576
 21
217.5802620087
 31
0.0
  0
LINE
  5
6F
100
AcDbEntity
  8
0
  6
CONTINUOUS
 62
         7
100
AcDbLine
 10
123.3362707424
 20
222.5802620087
 30
0.0
 11
128.3362707424
 21
217.5802620087
 31
0.0
  0
LINE
  5
70
100
AcDbEntity
  8
0
  6
CONTINUOUS
 62
         7
100
AcDbLine
 10
-11.6637292576
 20
217.5802620087
 30
0.0
 11
-14.6637292576
 21
217.5802620087
 31
0.0
  0
LINE
  5
71
100
AcDbEntity
  8
0
  6
CONTINUOUS
 62
         7
100
AcDbLine
 10
281.3362707424
 20
212.5802620087
 30
0.0
 11
281.3362707424
 21
217.5802620087
 31
0.0
  0
LINE
  5
72
100
AcDbEntity
  8
0
  6
CONTINUOUS
 62
         7
100
AcDbLine
 10
339.3362707424
 20
212.5802620087
 30
0.0
 11
322.4390233835
 21
212.5802620087
 31
0.0
  0
LINE
  5
73
100
AcDbEntity
  8
0
  6
CONTINUOUS
 62
         7
100
AcDbLine
 10
243.3362707424
 20
222.5802620087
 30
0.0
 11
233.3362707424
 21
222.5802620087
 31
0.0
  0
LINE
  5
74
100
AcDbEntity
  8
0
  6
CONTINUOUS
 62
         7
100
AcDbLine
 10
-75.7664818988
 20
222.5802620087
 30
0.0
 11
-56.6637292576
 21
222.5802620087
 31
0.0
  0
LINE
  5
75
100
AcDbEntity
  8
0
  6
CONTINUOUS
 62
         7
100
AcDbLine
 10
33.3362707424
 20
222.5802620087
 30
0.0
 11
38.3362707424
 21
217.5802620087
 31
0.0
  0
LINE
  5
76
100
AcDbEntity
  8
0
  6
CONTINUOUS
 62
         7
100
AcDbLine
 10
78.3362707424
 20
217.5802620087
 30
0.0
 11
75.3362707424
 21
217.5802620087
 31
0.0
  0
LINE
  5
77
100
AcDbEntity
  8
0
  6
CONTINUOUS
 62
         7
100
AcDbLine
 10
173.3362707424
 20
222.5802620087
 30
0.0
 11
168.3362707424
 21
217.5802620087
 31
0.0
  0
LINE
  5
78
100
AcDbEntity
  8
0
  6
CONTINUOUS
 62
         7
100
AcDbLine
 10
198.3362707424
 20
217.5802620087
 30
0.0
 11
195.3362707424
 21
217.5802620087
 31
0.0
  0
LINE
  5
79
100
AcDbEntity
  8
0
  6
CONTINUOUS
 62
         7
100
AcDbLine
 10
228.3362707424
 20
217.5802620087
 30
0.0
 11
225.3362707424
 21
217.5802620087
 31
0.0
  0
LINE
  5
7A
100
AcDbEntity
  8
0
  6
CONTINUOUS
 62
         7
100
AcDbLine
 10
221.3362707424
 20
212.5802620087
 30
0.0
 11
221.3362707424
 21
217.5802620087
 31
0.0
  0
LINE
  5
7B
100
AcDbEntity
  8
0
  6
CONTINUOUS
 62
         7
100
AcDbLine
 10
-6.6637292576
 20
222.5802620087
 30
0.0
 11
3.3362707424
 21
222.5802620087
 31
0.0
  0
LINE
  5
7C
100
AcDbEntity
  8
0
  6
CONTINUOUS
 62
         7
100
AcDbLine
 10
135.3362707424
 20
212.5802620087
 30
0.0
 11
135.3362707424
 21
217.5802620087
 31
0.0
  0
LINE
  5
7D
100
AcDbEntity
  8
0
  6
CONTINUOUS
 62
         7
100
AcDbLine
 10
11.3362707424
 20
212.5802620087
 30
0.0
 11
15.3362707424
 21
212.5802620087
 31
0.0
  0
LINE
  5
7E
100
AcDbEntity
  8
0
  6
CONTINUOUS
 62
         7
100
AcDbLine
 10
273.3362707424
 20
222.5802620087
 30
0.0
 11
278.3362707424
 21
217.5802620087
 31
0.0
  0
LINE
  5
7F
100
AcDbEntity
  8
0
  6
CONTINUOUS
 62
         7
100
AcDbLine
 10
288.3362707424
 20
217.5802620087
 30
0.0
 11
285.3362707424
 21
217.5802620087
 31
0.0
  0
LINE
  5
80
100
AcDbEntity
  8
0
  6
CONTINUOUS
 62
         7
100
AcDbLine
 10
278.3362707424
 20
217.5802620087
 30
0.0
 11
281.3362707424
 21
217.5802620087
 31
0.0
  0
LINE
  5
81
100
AcDbEntity
  8
0
  6
CONTINUOUS
 62
         7
100
AcDbLine
 10
41.3362707424
 20
212.5802620087
 30
0.0
 11
41.3362707424
 21
217.5802620087
 31
0.0
  0
LINE
  5
82
100
AcDbEntity
  8
0
  6
CONTINUOUS
 62
         7
100
AcDbLine
 10
101.3362707424
 20
212.5802620087
 30
0.0
 11
105.3362707424
 21
212.5802620087
 31
0.0
  0
LINE
  5
83
100
AcDbEntity
  8
0
  6
CONTINUOUS
 62
         7
100
AcDbLine
 10
113.3362707424
 20
222.5802620087
 30
0.0
 11
108.3362707424
 21
217.5802620087
 31
0.0
  0
LINE
  5
84
100
AcDbEntity
  8
0
  6
CONTINUOUS
 62
         7
100
AcDbLine
 10
161.3362707424
 20
212.5802620087
 30
0.0
 11
161.3362707424
 21
217.5802620087
 31
0.0
  0
LINE
  5
85
100
AcDbEntity
  8
0
  6
CONTINUOUS
 62
         7
100
AcDbLine
 10
225.3362707424
 20
212.5802620087
 30
0.0
 11
221.3362707424
 21
212.5802620087
 31
0.0
  0
LINE
  5
86
100
AcDbEntity
  8
0
  6
CONTINUOUS
 62
         7
100
AcDbLine
 10
15.3362707424
 20
212.5802620087
 30
0.0
 11
15.3362707424
 21
217.5802620087
 31
0.0
  0
LINE
  5
87
100
AcDbEntity
  8
0
  6
CONTINUOUS
 62
         7
100
AcDbLine
 10
183.3362707424
 20
222.5802620087
 30
0.0
 11
188.3362707424
 21
217.5802620087
 31
0.0
  0
LINE
  5
88
100
AcDbEntity
  8
0
  6
CONTINUOUS
 62
         7
100
AcDbLine
 10
248.3362707424
 20
217.5802620087
 30
0.0
 11
251.3362707424
 21
217.5802620087
 31
0.0
  0
LINE
  5
89
100
AcDbEntity
  8
0
  6
CONTINUOUS
 62
         7
100
AcDbLine
 10
-102.6637292576
 20
212.5802620087
 30
0.0
 11
-85.7664818988
 21
212.5802620087
 31
0.0
  0
LINE
  5
8A
100
AcDbEntity
  8
0
  6
CONTINUOUS
 62
         7
100
AcDbLine
 10
3.3362707424
 20
222.5802620087
 30
0.0
 11
8.3362707424
 21
217.5802620087
 31
0.0
  0
LINE
  5
8B
100
AcDbEntity
  8
0
  6
CONTINUOUS
 62
         7
100
AcDbLine
 10
105.3362707424
 20
212.5802620087
 30
0.0
 11
105.3362707424
 21
217.5802620087
 31
0.0
  0
LINE
  5
8C
100
AcDbEntity
  8
0
  6
CONTINUOUS
 62
         7
100
AcDbLine
 10
293.3362707424
 20
222.5802620087
 30
0.0
 11
288.3362707424
 21
217.5802620087
 31
0.0
  0
LINE
  5
8D
100
AcDbEntity
  8
0
  6
CONTINUOUS
 62
         7
100
AcDbLine
 10
53.3362707424
 20
222.5802620087
 30
0.0
 11
48.3362707424
 21
217.5802620087
 31
0.0
  0
LINE
  5
8E
100
AcDbEntity
  8
0
  6
CONTINUOUS
 62
         7
100
AcDbLine
 10
75.3362707424
 20
212.5802620087
 30
0.0
 11
75.3362707424
 21
217.5802620087
 31
0.0
  0
LINE
  5
8F
100
AcDbEntity
  8
0
  6
CONTINUOUS
 62
         7
100
AcDbLine
 10
108.3362707424
 20
217.5802620087
 30
0.0
 11
105.3362707424
 21
217.5802620087
 31
0.0
  0
LINE
  5
90
100
AcDbEntity
  8
0
  6
CONTINUOUS
 62
         7
100
AcDbLine
 10
135.3362707424
 20
212.5802620087
 30
0.0
 11
131.3362707424
 21
212.5802620087
 31
0.0
  0
LINE
  5
91
100
AcDbEntity
  8
0
  6
CONTINUOUS
 62
         7
100
AcDbLine
 10
195.3362707424
 20
212.5802620087
 30
0.0
 11
195.3362707424
 21
217.5802620087
 31
0.0
  0
LINE
  5
92
100
AcDbEntity
  8
0
  6
CONTINUOUS
 62
         7
100
AcDbLine
 10
128.3362707424
 20
217.5802620087
 30
0.0
 11
131.3362707424
 21
217.5802620087
 31
0.0
  0
LINE
  5
93
100
AcDbEntity
  8
0
  6
CONTINUOUS
 62
         7
100
AcDbLine
 10
-18.6637292576
 20
212.5802620087
 30
0.0
 11
-14.6637292576
 21
212.5802620087
 31
0.0
  0
LINE
  5
94
100
AcDbEntity
  8
0
  6
CONTINUOUS
 62
         7
100
AcDbLine
 10
143.3362707424
 20
222.5802620087
 30
0.0
 11
138.3362707424
 21
217.5802620087
 31
0.0
  0
LINE
  5
95
100
AcDbEntity
  8
0
  6
CONTINUOUS
 62
         7
100
AcDbLine
 10
-36.6637292576
 20
222.5802620087
 30
0.0
 11
-41.6637292576
 21
217.5802620087
 31
0.0
  0
LINE
  5
96
100
AcDbEntity
  8
0
  6
CONTINUOUS
 62
         7
100
AcDbLine
 10
263.3362707424
 20
222.5802620087
 30
0.0
 11
258.3362707424
 21
217.5802620087
 31
0.0
  0
LINE
  5
97
100
AcDbEntity
  8
0
  6
CONTINUOUS
 62
         7
100
AcDbLine
 10
38.3362707424
 20
217.5802620087
 30
0.0
 11
41.3362707424
 21
217.5802620087
 31
0.0
  0
LINE
  5
98
100
AcDbEntity
  8
0
  6
CONTINUOUS
 62
         7
100
AcDbLine
 10
63.3362707424
 20
222.5802620087
 30
0.0
 11
68.3362707424
 21
217.5802620087
 31
0.0
  0
LINE
  5
99
100
AcDbEntity
  8
0
  6
CONTINUOUS
 62
         7
100
AcDbLine
 10
93.3362707424
 20
222.5802620087
 30
0.0
 11
98.3362707424
 21
217.5802620087
 31
0.0
  0
LINE
  5
9A
100
AcDbEntity
  8
0
  6
CONTINUOUS
 62
         7
100
AcDbLine
 10
203.3362707424
 20
222.5802620087
 30
0.0
 11
198.3362707424
 21
217.5802620087
 31
0.0
  0
LINE
  5
9B
100
AcDbEntity
  8
0
  6
CONTINUOUS
 62
         7
100
AcDbLine
 10
-36.6637292576
 20
222.5802620087
 30
0.0
 11
-26.6637292576
 21
222.5802620087
 31
0.0
  0
LINE
  5
9C
100
AcDbEntity
  8
0
  6
CONTINUOUS
 62
         7
100
AcDbLine
 10
8.3362707424
 20
217.5802620087
 30
0.0
 11
11.3362707424
 21
217.5802620087
 31
0.0
  0
LINE
  5
9D
100
AcDbEntity
  8
0
  6
CONTINUOUS
 62
         7
100
AcDbLine
 10
158.3362707424
 20
217.5802620087
 30
0.0
 11
161.3362707424
 21
217.5802620087
 31
0.0
  0
LINE
  5
9E
100
AcDbEntity
  8
0
  6
CONTINUOUS
 62
         7
100
AcDbLine
 10
285.3362707424
 20
212.5802620087
 30
0.0
 11
285.3362707424
 21
217.5802620087
 31
0.0
  0
LINE
  5
9F
100
AcDbEntity
  8
0
  6
CONTINUOUS
 62
         7
100
AcDbLine
 10
183.3362707424
 20
222.5802620087
 30
0.0
 11
173.3362707424
 21
222.5802620087
 31
0.0
  0
ARC
  5
A0
100
AcDbEntity
  8
0
  6
CONTINUOUS
 62
         7
100
AcDbCircle
 10
-119.6637292576
 20
45.5802620087
 30
0.0
 40
3.0
100
AcDbArc
 50
270.0
 51
0.0
  0
ARC
  5
A1
100
AcDbEntity
  8
0
  6
CONTINUOUS
 62
         7
100
AcDbCircle
 10
-109.6637292576
 20
45.5802620087
 30
0.0
 40
3.0
100
AcDbArc
 50
180.0
 51
270.0
  0
ARC
  5
A2
100
AcDbEntity
  8
0
  6
CONTINUOUS
 62
         7
100
AcDbCircle
 10
346.3362707424
 20
45.5802620087
 30
0.0
 40
3.0
100
AcDbArc
 50
270.0
 51
0.0
  0
ARC
  5
A3
100
AcDbEntity
  8
0
  6
CONTINUOUS
 62
         7
100
AcDbCircle
 10
356.3362707424
 20
45.5802620087
 30
0.0
 40
3.0
100
AcDbArc
 50
180.0
 51
270.0
  0
CIRCLE
  5
A4
100
AcDbEntity
  8
0
  6
CONTINUOUS
 62
         7
100
AcDbCircle
 10
-85.7664818988
 20
112.5802620087
 30
0.0
 40
5.0
  0
CIRCLE
  5
A5
100
AcDbEntity
  8
0
  6
CONTINUOUS
 62
         7
100
AcDbCircle
 10
-66.1975235075
 20
87.5802620087
 30
0.0
 40
5.0
  0
CIRCLE
  5
A6
100
AcDbEntity
  8
0
  6
CONTINUOUS
 62
         7
100
AcDbCircle
 10
-56.6637292576
 20
112.5802620087
 30
0.0
 40
5.0
  0
CIRCLE
  5
A7
100
AcDbEntity
  8
0
  6
CONTINUOUS
 62
         7
100
AcDbCircle
 10
-37.0947708663
 20
87.5802620087
 30
0.0
 40
5.0
  0
CIRCLE
  5
A8
100
AcDbEntity
  8
0
  6
CONTINUOUS
 62
         7
100
AcDbCircle
 10
-27.5609766165
 20
112.5802620087
 30
0.0
 40
5.0
  0
CIRCLE
  5
A9
100
AcDbEntity
  8
0
  6
CONTINUOUS
 62
         7
100
AcDbCircle
 10
-7.9920182252
 20
87.5802620087
 30
0.0
 40
5.0
  0
CIRCLE
  5
AA
100
AcDbEntity
  8
0
  6
CONTINUOUS
 62
         7
100
AcDbCircle
 10
1.5417760247
 20
112.5802620087
 30
0.0
 40
5.0
  0
CIRCLE
  5
AB
100
AcDbEntity
  8
0
  6
CONTINUOUS
 62
         7
100
AcDbCircle
 10
21.110734416
 20
87.5802620087
 30
0.0
 40
5.0
  0
CIRCLE
  5
AC
100
AcDbEntity
  8
0
  6
CONTINUOUS
 62
         7
100
AcDbCircle
 10
30.6445286658
 20
112.5802620087
 30
0.0
 40
5.0
  0
CIRCLE
  5
AD
100
AcDbEntity
  8
0
  6
CONTINUOUS
 62
         7
100
AcDbCircle
 10
50.2134870571
 20
87.5802620087
 30
0.0
 40
5.0
  0
CIRCLE
  5
AE
100
AcDbEntity
  8
0
  6
CONTINUOUS
 62
         7
100
AcDbCircle
 10
59.747281307
 20
112.5802620087
 30
0.0
 40
5.0
  0
CIRCLE
  5
AF
100
AcDbEntity
  8
0
  6
CONTINUOUS
 62
         7
100
AcDbCircle
 10
79.3162396983
 20
87.5802620087
 30
0.0
 40
5.0
  0
CIRCLE
  5
B0
100
AcDbEntity
  8
0
  6
CONTINUOUS
 62
         7
100
AcDbCircle
 10
88.8500339481
 20
112.5802620087
 30
0.0
 40
5.0
  0
CIRCLE
  5
B1
100
AcDbEntity
  8
0
  6
CONTINUOUS
 62
         7
100
AcDbCircle
 10
108.4189923394
 20
87.5802620087
 30
0.0
 40
5.0
  0
CIRCLE
  5
B2
100
AcDbEntity
  8
0
  6
CONTINUOUS
 62
         7
100
AcDbCircle
 10
117.9527865892
 20
112.5802620087
 30
0.0
 40
5.0
  0
CIRCLE
  5
B3
100
AcDbEntity
  8
0
  6
CONTINUOUS
 62
         7
100
AcDbCircle
 10
137.5217449806
 20
87.5802620087
 30
0.0
 40
5.0
  0
CIRCLE
  5
B4
100
AcDbEntity
  8
0
  6
CONTINUOUS
 62
         7
100
AcDbCircle
 10
147.0555392304
 20
112.5802620087
 30
0.0
 40
5.0
  0
CIRCLE
  5
B5
100
AcDbEntity
  8
0
  6
CONTINUOUS
 62
         7
100
AcDbCircle
 10
166.6244976217
 20
87.5802620087
 30
0.0
 40
5.0
  0
CIRCLE
  5
B6
100
AcDbEntity
  8
0
  6
CONTINUOUS
 62
         7
100
AcDbCircle
 10
176.1582918715
 20
112.5802620087
 30
0.0
 40
5.0
  0
CIRCLE
  5
B7
100
AcDbEntity
  8
0
  6
CONTINUOUS
 62
         7
100
AcDbCircle
 10
195.7272502629
 20
87.5802620087
 30
0.0
 40
5.0
  0
CIRCLE
  5
B8
100
AcDbEntity
  8
0
  6
CONTINUOUS
 62
         7
100
AcDbCircle
 10
205.2610445127
 20
112.5802620087
 30
0.0
 40
5.0
  0
CIRCLE
  5
B9
100
AcDbEntity
  8
0
  6
CONTINUOUS
 62
         7
100
AcDbCircle
 10
224.830002904
 20
87.5802620087
 30
0.0
 40
5.0
  0
CIRCLE
  5
BA
100
AcDbEntity
  8
0
  6
CONTINUOUS
 62
         7
100
AcDbCircle
 10
234.3637971538
 20
112.5802620087
 30
0.0
 40
5.0
  0
CIRCLE
  5
BB
100
AcDbEntity
  8
0
  6
CONTINUOUS
 62
         7
100
AcDbCircle
 10
253.9327555452
 20
87.5802620087
 30
0.0
 40
5.0
  0
CIRCLE
  5
BC
100
AcDbEntity
  8
0
  6
CONTINUOUS
 62
         7
100
AcDbCircle
 10
263.466549795
 20
112.5802620087
 30
0.0
 40
5.0
  0
CIRCLE
  5
BD
100
AcDbEntity
  8
0
  6
CONTINUOUS
 62
         7
100
AcDbCircle
 10
283.0355081863
 20
87.5802620087
 30
0.0
 40
5.0
  0
CIRCLE
  5
BE
100
AcDbEntity
  8
0
  6
CONTINUOUS
 62
         7
100
AcDbCircle
 10
293.3362707424
 20
112.5802620087
 30
0.0
 40
5.0
  0
CIRCLE
  5
BF
100
AcDbEntity
  8
0
  6
CONTINUOUS
 62
         7
100
AcDbCircle
 10
312.9052291337
 20
87.5802620087
 30
0.0
 40
5.0
  0
CIRCLE
  5
C0
100
AcDbEntity
  8
0
  6
CONTINUOUS
 62
         7
100
AcDbCircle
 10
323.2059916897
 20
112.5802620087
 30
0.0
 40
5.0
  0
ARC
  5
C1
100
AcDbEntity
  8
0
  6
CONTINUOUS
 62
         7
100
AcDbCircle
 10
33.3362707424
 20
69.7377694962
 30
0.0
 40
41.1575074875
100
AcDbArc
 50
221.2879266252
 51
318.7120733748
  0
ARC
  5
C2
100
AcDbEntity
  8
0
  6
CONTINUOUS
 62
         7
100
AcDbCircle
 10
203.3362707424
 20
69.7377694962
 30
0.0
 40
41.1575074875
100
AcDbArc
 50
221.2879266252
 51
318.7120733748
  0
ARC
  5
C3
100
AcDbEntity
  8
0
  6
CONTINUOUS
 62
         7
100
AcDbCircle
 10
247.9239629427
 20
107.674415862
 30
0.0
 40
385.1286342715
100
AcDbArc
 50
162.6410491056
 51
188.4454291215
  0
ARC
  5
C4
100
AcDbEntity
  8
0
  6
CONTINUOUS
 62
         7
100
AcDbCircle
 10
-11.2514214579
 20
107.674415862
 30
0.0
 40
385.1286342715
100
AcDbArc
 50
351.5545708785
 51
17.3589508944
  0
ARC
  5
C5
100
AcDbEntity
  8
0
  6
CONTINUOUS
 62
         7
100
AcDbCircle
 10
-123.136849407
 20
52.5802620087
 30
0.0
 40
10.0
100
AcDbArc
 50
188.4454291215
 51
270.0
  0
ARC
  5
C6
100
AcDbEntity
  8
0
  6
CONTINUOUS
 62
         7
100
AcDbCircle
 10
359.8093908917
 20
52.5802620087
 30
0.0
 40
10.0
100
AcDbArc
 50
270.0
 51
351.5545708785
  0
ARC
  5
C7
100
AcDbEntity
  8
0
  6
CONTINUOUS
 62
         7
100
AcDbCircle
 10
-112.6637292576
 20
131.4260065911
 30
0.0
 40
1.1542554177
100
AcDbArc
 50
270.0
 51
90.0
  0
ARC
  5
C8
100
AcDbEntity
  8
0
  6
CONTINUOUS
 62
         7
100
AcDbCircle
 10
46.3362707424
 20
53.5802620087
 30
0.0
 40
2.0
100
AcDbArc
 50
270.0
 51
180.0
  0
ARC
  5
C9
100
AcDbEntity
  8
0
  6
CONTINUOUS
 62
         7
100
AcDbCircle
 10
349.3362707424
 20
131.4260065911
 30
0.0
 40
1.1542554177
100
AcDbArc
 50
90.0
 51
270.0
  0
ARC
  5
CA
100
AcDbEntity
  8
0
  6
CONTINUOUS
 62
         7
100
AcDbCircle
 10
20.3362707424
 20
53.5802620087
 30
0.0
 40
2.0
100
AcDbArc
 50
0.0
 51
270.0
  0
ARC
  5
CB
100
AcDbEntity
  8
0
  6
CONTINUOUS
 62
         7
100
AcDbCircle
 10
216.3362707424
 20
53.5802620087
 30
0.0
 40
2.0
100
AcDbArc
 50
270.0
 51
180.0
  0
ARC
  5
CC
100
AcDbEntity
  8
0
  6
CONTINUOUS
 62
         7
100
AcDbCircle
 10
190.3362707424
 20
53.5802620087
 30
0.0
 40
2.0
100
AcDbArc
 50
0.0
 51
270.0
  0
ENDSEC
  0
SECTION
  2
OBJECTS
  0
DICTIONARY
  5
19
100
AcDbDictionary
  3
ACAD_GROUP
350
1A
  3
ACAD_MLINESTYLE
350
1B
  0
DICTIONARY
  5
1A
102
{ACAD_REACTORS
330
19
102
}
100
AcDbDictionary
  0
DICTIONARY
  5
1B
102
{ACAD_REACTORS
330
19
102
}
100
AcDbDictionary
  3
STANDARD
350
1C
  0
MLINESTYLE
  5
1C
102
{ACAD_REACTORS
330
1B
102
}
100
AcDbMlineStyle
  2
STANDARD
 70
         0
  3

 62
         0
 51
90.0
 52
90.0
 71
         2
 49
0.5
 62
       256
  6
BYLAYER
 49
-0.5
 62
       256
  6
BYLAYER
  0
ENDSEC
  0
EOF
