  0
SECTION
  2
HEADER
  9
$ACADVER
  1
AC1014
  9
$HANDSEED
  5
FFFF
  9
$MEASUREMENT
 70
     1
  0
ENDSEC
  0
SECTION
  2
TABLES
  0
TABLE
  2
VPORT
  5
8
330
0
100
AcDbSymbolTable
 70
     4
  0
VPORT
  5
2E
330
8
100
AcDbSymbolTableRecord
100
AcDbViewportTableRecord
  2
*ACTIVE
 70
     0
 10
0.0
 20
0.0
 11
1.0
 21
1.0
 12
210.0
 22
148.5
 13
0.0
 23
0.0
 14
10.0
 24
10.0
 15
10.0
 25
10.0
 16
0.0
 26
0.0
 36
1.0
 17
0.0
 27
0.0
 37
0.0
 40
341.0
 41
1.24
 42
50.0
 43
0.0
 44
0.0
 50
0.0
 51
0.0
 71
     0
 72
   100
 73
     1
 74
     3
 75
     0
 76
     0
 77
     0
 78
     0
  0
ENDTAB
  0
TABLE
  2
LTYPE
  5
5
330
0
100
AcDbSymbolTable
 70
     1
  0
LTYPE
  5
14
330
5
100
AcDbSymbolTableRecord
100
AcDbLinetypeTableRecord
  2
BYBLOCK
 70
     0
  3

 72
    65
 73
     0
 40
0.0
  0
LTYPE
  5
15
330
5
100
AcDbSymbolTableRecord
100
AcDbLinetypeTableRecord
  2
BYLAYER
 70
     0
  3

 72
    65
 73
     0
 40
0.0
  0
LTYPE
  5
16
330
5
100
AcDbSymbolTableRecord
100
AcDbLinetypeTableRecord
  2
CONTINUOUS
 70
     0
  3
Solid line
 72
    65
 73
     0
 40
0.0
  0
ENDTAB
  0
TABLE
  2
LAYER
  5
2
100
AcDbSymbolTable
 70
2
  0
LAYER
  5
50
100
AcDbSymbolTableRecord
100
AcDbLayerTableRecord
  2
0
 70
0
  6
CONTINUOUS
  0
LAYER
  5
51
100
AcDbSymbolTableRecord
100
AcDbLayerTableRecord
  2
H0106_Printing
 70
0
  6
CONTINUOUS
  0
ENDTAB
  0
TABLE
  2
STYLE
  5
3
330
0
100
AcDbSymbolTable
 70
     1
  0
STYLE
  5
11
330
3
100
AcDbSymbolTableRecord
100
AcDbTextStyleTableRecord
  2
STANDARD
 70
     0
 40
0.0
 41
1.0
 50
0.0
 71
     0
 42
2.5
  3
txt
  4

  0
ENDTAB
  0
TABLE
  2
VIEW
  5
6
330
0
100
AcDbSymbolTable
 70
     0
  0
ENDTAB
  0
TABLE
  2
UCS
  5
7
330
0
100
AcDbSymbolTable
 70
     0
  0
ENDTAB
  0
TABLE
  2
APPID
  5
9
330
0
100
AcDbSymbolTable
 70
     2
  0
APPID
  5
12
330
9
100
AcDbSymbolTableRecord
100
AcDbRegAppTableRecord
  2
ACAD
 70
     0
  0
ENDTAB
  0
TABLE
  2
DIMSTYLE
  5
A
330
0
100
AcDbSymbolTable
 70
     1
  0
DIMSTYLE
105
27
330
A
100
AcDbSymbolTableRecord
100
AcDbDimStyleTableRecord
  2
ISO-25
 70
     0
  3

  4

  5

  6

  7

 40
1.0
 41
2.5
 42
0.625
 43
3.75
 44
1.25
 45
0.0
 46
0.0
 47
0.0
 48
0.0
140
2.5
141
2.5
142
0.0
143
0.03937007874016
144
1.0
145
0.0
146
1.0
147
0.625
 71
     0
 72
     0
 73
     0
 74
     0
 75
     0
 76
     0
 77
     1
 78
     8
170
     0
171
     3
172
     1
173
     0
174
     0
175
     0
176
     0
177
     0
178
     0
270
     2
271
     2
272
     2
273
     2
274
     3
340
11
275
     0
280
     0
281
     0
282
     0
283
     0
284
     8
285
     0
286
     0
287
     3
288
     0
  0
ENDTAB
  0
TABLE
  2
BLOCK_RECORD
  5
1
330
0
100
AcDbSymbolTable
 70
     1
  0
BLOCK_RECORD
  5
1F
330
1
100
AcDbSymbolTableRecord
100
AcDbBlockTableRecord
  2
*MODEL_SPACE
  0
BLOCK_RECORD
  5
1B
330
1
100
AcDbSymbolTableRecord
100
AcDbBlockTableRecord
  2
*PAPER_SPACE
  0
ENDTAB
  0
ENDSEC
  0
SECTION
  2
BLOCKS
  0
BLOCK
  5
20
330
1F
100
AcDbEntity
  8
0
100
AcDbBlockBegin
  2
*MODEL_SPACE
 70
     0
 10
0.0
 20
0.0
 30
0.0
  3
*MODEL_SPACE
  1

  0
ENDBLK
  5
21
330
1F
100
AcDbEntity
  8
0
100
AcDbBlockEnd
  0
BLOCK
  5
1C
330
1B
100
AcDbEntity
 67
     1
  8
0
100
AcDbBlockBegin
  2
*PAPER_SPACE
  1

  0
ENDBLK
  5
1D
330
1B
100
AcDbEntity
 67
     1
  8
0
100
AcDbBlockEnd
  0
ENDSEC
  0
SECTION
  2
ENTITIES
  0
SPLINE
  5
100
100
AcDbEntity
  8
H0106_Printing
 62
7
100
AcDbSpline
 70
8
 71
3
 72
8
 73
4
 74
0
 40
0
 40
0
 40
0
 40
0
 40
1
 40
1
 40
1
 40
1
 10
815.966680
 20
1005.968975
 30
0.0
 10
823.725679
 20
1005.968975
 30
0.0
 10
830.015679
 20
999.707975
 30
0.0
 10
830.015679
 20
991.983975
 30
0.0
  0
SPLINE
  5
101
100
AcDbEntity
  8
H0106_Printing
 62
7
100
AcDbSpline
 70
8
 71
3
 72
8
 73
4
 74
0
 40
0
 40
0
 40
0
 40
0
 40
1
 40
1
 40
1
 40
1
 10
830.015679
 20
991.983975
 30
0.0
 10
830.015679
 20
984.259975
 30
0.0
 10
823.725679
 20
977.998976
 30
0.0
 10
815.966680
 20
977.998976
 30
0.0
  0
SPLINE
  5
102
100
AcDbEntity
  8
H0106_Printing
 62
7
100
AcDbSpline
 70
8
 71
3
 72
8
 73
4
 74
0
 40
0
 40
0
 40
0
 40
0
 40
1
 40
1
 40
1
 40
1
 10
815.966680
 20
977.998976
 30
0.0
 10
808.207680
 20
977.998976
 30
0.0
 10
801.917680
 20
984.259975
 30
0.0
 10
801.917680
 20
991.983975
 30
0.0
  0
SPLINE
  5
103
100
AcDbEntity
  8
H0106_Printing
 62
7
100
AcDbSpline
 70
8
 71
3
 72
8
 73
4
 74
0
 40
0
 40
0
 40
0
 40
0
 40
1
 40
1
 40
1
 40
1
 10
801.917680
 20
991.983975
 30
0.0
 10
801.917680
 20
999.707975
 30
0.0
 10
808.207680
 20
1005.968975
 30
0.0
 10
815.966680
 20
1005.968975
 30
0.0
  0
SPLINE
  5
104
100
AcDbEntity
  8
H0106_Printing
 62
7
100
AcDbSpline
 70
8
 71
3
 72
8
 73
4
 74
0
 40
0
 40
0
 40
0
 40
0
 40
1
 40
1
 40
1
 40
1
 10
666.852683
 20
1277.859968
 30
0.0
 10
668.195683
 20
1272.210968
 30
0.0
 10
669.284683
 20
1266.767968
 30
0.0
 10
670.179683
 20
1261.593968
 30
0.0
  0
SPLINE
  5
105
100
AcDbEntity
  8
H0106_Printing
 62
7
100
AcDbSpline
 70
8
 71
3
 72
8
 73
4
 74
0
 40
0
 40
0
 40
0
 40
0
 40
1
 40
1
 40
1
 40
1
 10
670.179683
 20
1261.593968
 30
0.0
 10
679.670683
 20
1246.888969
 30
0.0
 10
687.125683
 20
1229.889969
 30
0.0
 10
695.111683
 20
1214.914970
 30
0.0
  0
SPLINE
  5
106
100
AcDbEntity
  8
H0106_Printing
 62
7
100
AcDbSpline
 70
8
 71
3
 72
8
 73
4
 74
0
 40
0
 40
0
 40
0
 40
0
 40
1
 40
1
 40
1
 40
1
 10
695.111683
 20
1214.914970
 30
0.0
 10
703.072682
 20
1199.561970
 30
0.0
 10
711.837682
 20
1186.363970
 30
0.0
 10
719.814682
 20
1178.280971
 30
0.0
  0
SPLINE
  5
107
100
AcDbEntity
  8
H0106_Printing
 62
7
100
AcDbSpline
 70
8
 71
3
 72
8
 73
4
 74
0
 40
0
 40
0
 40
0
 40
0
 40
1
 40
1
 40
1
 40
1
 10
719.814682
 20
1178.280971
 30
0.0
 10
727.602682
 20
1169.996971
 30
0.0
 10
733.936682
 20
1166.668971
 30
0.0
 10
733.410682
 20
1166.389971
 30
0.0
  0
SPLINE
  5
108
100
AcDbEntity
  8
H0106_Printing
 62
7
100
AcDbSpline
 70
8
 71
3
 72
8
 73
4
 74
0
 40
0
 40
0
 40
0
 40
0
 40
1
 40
1
 40
1
 40
1
 10
733.410682
 20
1166.389971
 30
0.0
 10
733.273682
 20
1166.423971
 30
0.0
 10
726.439682
 20
1169.504971
 30
0.0
 10
718.186682
 20
1177.754971
 30
0.0
  0
SPLINE
  5
109
100
AcDbEntity
  8
H0106_Printing
 62
7
100
AcDbSpline
 70
8
 71
3
 72
8
 73
4
 74
0
 40
0
 40
0
 40
0
 40
0
 40
1
 40
1
 40
1
 40
1
 10
718.186682
 20
1177.754971
 30
0.0
 10
709.751682
 20
1185.788970
 30
0.0
 10
700.566682
 20
1198.982970
 30
0.0
 10
692.290683
 20
1214.171970
 30
0.0
  0
SPLINE
  5
10a
100
AcDbEntity
  8
H0106_Printing
 62
7
100
AcDbSpline
 70
8
 71
3
 72
8
 73
4
 74
0
 40
0
 40
0
 40
0
 40
0
 40
1
 40
1
 40
1
 40
1
 10
692.290683
 20
1214.171970
 30
0.0
 10
684.745683
 20
1227.686969
 30
0.0
 10
675.603683
 20
1241.942969
 30
0.0
 10
666.875683
 20
1254.974969
 30
0.0
  0
LWPOLYLINE
  5
10b
100
AcDbEntity
  8
H0106_Printing
 62
7
100
AcDbPolyline
 90
1
 70
1
 10
815.966680
 20
1005.968975
 30
0.0
  0
SPLINE
  5
10c
100
AcDbEntity
  8
H0106_Printing
 62
7
100
AcDbSpline
 70
8
 71
3
 72
8
 73
4
 74
0
 40
0
 40
0
 40
0
 40
0
 40
1
 40
1
 40
1
 40
1
 10
676.657683
 20
1153.134971
 30
0.0
 10
673.201683
 20
1156.424971
 30
0.0
 10
681.360683
 20
1148.590971
 30
0.0
 10
680.542683
 20
1149.404971
 30
0.0
  0
LWPOLYLINE
  5
10d
100
AcDbEntity
  8
H0106_Printing
 62
7
100
AcDbPolyline
 90
9
 70
0
 10
666.875683
 20
1254.974969
 30
0.0
 10
512.660687
 20
1224.920969
 30
0.0
 10
530.469687
 20
1133.545972
 30
0.0
 10
676.745683
 20
1162.050971
 30
0.0
 10
676.752683
 20
1157.113971
 30
0.0
 10
676.692683
 20
1154.031971
 30
0.0
 10
676.661683
 20
1153.274971
 30
0.0
 10
676.657683
 20
1153.183971
 30
0.0
 10
676.657683
 20
1153.134971
 30
0.0
  0
SPLINE
  5
10e
100
AcDbEntity
  8
H0106_Printing
 62
7
100
AcDbSpline
 70
8
 71
3
 72
8
 73
4
 74
0
 40
0
 40
0
 40
0
 40
0
 40
1
 40
1
 40
1
 40
1
 10
682.579683
 20
1149.575971
 30
0.0
 10
686.547683
 20
1149.882971
 30
0.0
 10
690.635683
 20
1149.681971
 30
0.0
 10
694.706683
 20
1149.105971
 30
0.0
  0
SPLINE
  5
10f
100
AcDbEntity
  8
H0106_Printing
 62
7
100
AcDbSpline
 70
8
 71
3
 72
8
 73
4
 74
0
 40
0
 40
0
 40
0
 40
0
 40
1
 40
1
 40
1
 40
1
 10
694.706683
 20
1149.105971
 30
0.0
 10
702.853682
 20
1147.863971
 30
0.0
 10
710.883682
 20
1145.259971
 30
0.0
 10
718.307682
 20
1142.086971
 30
0.0
  0
SPLINE
  5
110
100
AcDbEntity
  8
H0106_Printing
 62
7
100
AcDbSpline
 70
8
 71
3
 72
8
 73
4
 74
0
 40
0
 40
0
 40
0
 40
0
 40
1
 40
1
 40
1
 40
1
 10
718.307682
 20
1142.086971
 30
0.0
 10
748.122681
 20
1128.975972
 30
0.0
 10
761.181681
 20
1105.862972
 30
0.0
 10
765.310681
 20
1104.639972
 30
0.0
  0
SPLINE
  5
111
100
AcDbEntity
  8
H0106_Printing
 62
7
100
AcDbSpline
 70
8
 71
3
 72
8
 73
4
 74
0
 40
0
 40
0
 40
0
 40
0
 40
1
 40
1
 40
1
 40
1
 10
765.310681
 20
1104.639972
 30
0.0
 10
766.173681
 20
1104.586972
 30
0.0
 10
777.465681
 20
1106.880972
 30
0.0
 10
793.440680
 20
1110.746972
 30
0.0
  0
LWPOLYLINE
  5
112
100
AcDbEntity
  8
H0106_Printing
 62
7
100
AcDbPolyline
 90
4
 70
0
 10
680.542683
 20
1149.404971
 30
0.0
 10
680.727683
 20
1149.420971
 30
0.0
 10
681.095683
 20
1149.450971
 30
0.0
 10
682.579683
 20
1149.575971
 30
0.0
  0
SPLINE
  5
113
100
AcDbEntity
  8
H0106_Printing
 62
7
100
AcDbSpline
 70
8
 71
3
 72
8
 73
4
 74
0
 40
0
 40
0
 40
0
 40
0
 40
1
 40
1
 40
1
 40
1
 10
809.423680
 20
1019.562975
 30
0.0
 10
796.924680
 20
1016.607975
 30
0.0
 10
787.620680
 20
1005.385975
 30
0.0
 10
787.620680
 20
991.983975
 30
0.0
  0
SPLINE
  5
114
100
AcDbEntity
  8
H0106_Printing
 62
7
100
AcDbSpline
 70
8
 71
3
 72
8
 73
4
 74
0
 40
0
 40
0
 40
0
 40
0
 40
1
 40
1
 40
1
 40
1
 10
787.620680
 20
991.983975
 30
0.0
 10
787.620680
 20
976.327976
 30
0.0
 10
800.311680
 20
963.636976
 30
0.0
 10
815.966680
 20
963.636976
 30
0.0
  0
SPLINE
  5
115
100
AcDbEntity
  8
H0106_Printing
 62
7
100
AcDbSpline
 70
8
 71
3
 72
8
 73
4
 74
0
 40
0
 40
0
 40
0
 40
0
 40
1
 40
1
 40
1
 40
1
 10
815.966680
 20
963.636976
 30
0.0
 10
831.621679
 20
963.636976
 30
0.0
 10
844.312679
 20
976.327976
 30
0.0
 10
844.312679
 20
991.983975
 30
0.0
  0
SPLINE
  5
116
100
AcDbEntity
  8
H0106_Printing
 62
7
100
AcDbSpline
 70
8
 71
3
 72
8
 73
4
 74
0
 40
0
 40
0
 40
0
 40
0
 40
1
 40
1
 40
1
 40
1
 10
844.312679
 20
991.983975
 30
0.0
 10
844.312679
 20
993.754975
 30
0.0
 10
844.142679
 20
995.485975
 30
0.0
 10
843.831679
 20
997.166975
 30
0.0
  0
LWPOLYLINE
  5
117
100
AcDbEntity
  8
H0106_Printing
 62
7
100
AcDbPolyline
 90
2
 70
0
 10
793.440680
 20
1110.746972
 30
0.0
 10
809.423680
 20
1019.562975
 30
0.0
  0
SPLINE
  5
118
100
AcDbEntity
  8
H0106_Printing
 62
7
100
AcDbSpline
 70
8
 71
3
 72
8
 73
4
 74
0
 40
0
 40
0
 40
0
 40
0
 40
1
 40
1
 40
1
 40
1
 10
883.102678
 20
1138.421972
 30
0.0
 10
886.352678
 20
1139.807972
 30
0.0
 10
889.421678
 20
1141.211971
 30
0.0
 10
892.256678
 20
1142.620971
 30
0.0
  0
SPLINE
  5
119
100
AcDbEntity
  8
H0106_Printing
 62
7
100
AcDbSpline
 70
8
 71
3
 72
8
 73
4
 74
0
 40
0
 40
0
 40
0
 40
0
 40
1
 40
1
 40
1
 40
1
 10
892.256678
 20
1142.620971
 30
0.0
 10
901.990677
 20
1147.568971
 30
0.0
 10
911.872677
 20
1156.375971
 30
0.0
 10
917.265677
 20
1166.831971
 30
0.0
  0
SPLINE
  5
11a
100
AcDbEntity
  8
H0106_Printing
 62
7
100
AcDbSpline
 70
8
 71
3
 72
8
 73
4
 74
0
 40
0
 40
0
 40
0
 40
0
 40
1
 40
1
 40
1
 40
1
 10
917.265677
 20
1166.831971
 30
0.0
 10
922.997677
 20
1177.088971
 30
0.0
 10
926.845677
 20
1188.090970
 30
0.0
 10
929.925677
 20
1199.319970
 30
0.0
  0
SPLINE
  5
11b
100
AcDbEntity
  8
H0106_Printing
 62
7
100
AcDbSpline
 70
8
 71
3
 72
8
 73
4
 74
0
 40
0
 40
0
 40
0
 40
0
 40
1
 40
1
 40
1
 40
1
 10
929.925677
 20
1199.319970
 30
0.0
 10
931.068677
 20
1203.514970
 30
0.0
 10
932.110677
 20
1207.743970
 30
0.0
 10
933.071677
 20
1212.009970
 30
0.0
  0
LWPOLYLINE
  5
11c
100
AcDbEntity
  8
H0106_Printing
 62
7
100
AcDbPolyline
 90
3
 70
0
 10
843.831679
 20
997.166975
 30
0.0
 10
905.954677
 20
1008.054975
 30
0.0
 10
883.102678
 20
1138.421972
 30
0.0
  0
SPLINE
  5
11d
100
AcDbEntity
  8
H0106_Printing
 62
7
100
AcDbSpline
 70
8
 71
3
 72
8
 73
4
 74
0
 40
0
 40
0
 40
0
 40
0
 40
1
 40
1
 40
1
 40
1
 10
948.618676
 20
1309.885967
 30
0.0
 10
953.359676
 20
1344.568966
 30
0.0
 10
957.067676
 20
1380.051965
 30
0.0
 10
964.181676
 20
1414.643965
 30
0.0
  0
SPLINE
  5
11e
100
AcDbEntity
  8
H0106_Printing
 62
7
100
AcDbSpline
 70
8
 71
3
 72
8
 73
4
 74
0
 40
0
 40
0
 40
0
 40
0
 40
1
 40
1
 40
1
 40
1
 10
964.181676
 20
1414.643965
 30
0.0
 10
980.148675
 20
1492.294963
 30
0.0
 10
1038.700674
 20
1579.478961
 30
0.0
 10
1035.982674
 20
1593.694960
 30
0.0
  0
SPLINE
  5
11f
100
AcDbEntity
  8
H0106_Printing
 62
7
100
AcDbSpline
 70
8
 71
3
 72
8
 73
4
 74
0
 40
0
 40
0
 40
0
 40
0
 40
1
 40
1
 40
1
 40
1
 10
1035.982674
 20
1593.694960
 30
0.0
 10
1034.186674
 20
1601.429960
 30
0.0
 10
1008.632675
 20
1599.229960
 30
0.0
 10
1002.158675
 20
1599.127960
 30
0.0
  0
SPLINE
  5
120
100
AcDbEntity
  8
H0106_Printing
 62
7
100
AcDbSpline
 70
8
 71
3
 72
8
 73
4
 74
0
 40
0
 40
0
 40
0
 40
0
 40
1
 40
1
 40
1
 40
1
 10
1002.158675
 20
1599.127960
 30
0.0
 10
995.848675
 20
1599.290960
 30
0.0
 10
988.742675
 20
1598.407960
 30
0.0
 10
983.073675
 20
1597.730960
 30
0.0
  0
SPLINE
  5
121
100
AcDbEntity
  8
H0106_Printing
 62
7
100
AcDbSpline
 70
8
 71
3
 72
8
 73
4
 74
0
 40
0
 40
0
 40
0
 40
0
 40
1
 40
1
 40
1
 40
1
 10
983.073675
 20
1597.730960
 30
0.0
 10
960.646676
 20
1594.640960
 30
0.0
 10
939.761677
 20
1589.900960
 30
0.0
 10
919.256677
 20
1587.780960
 30
0.0
  0
SPLINE
  5
122
100
AcDbEntity
  8
H0106_Printing
 62
7
100
AcDbSpline
 70
8
 71
3
 72
8
 73
4
 74
0
 40
0
 40
0
 40
0
 40
0
 40
1
 40
1
 40
1
 40
1
 10
919.256677
 20
1587.780960
 30
0.0
 10
878.388678
 20
1583.271960
 30
0.0
 10
840.875679
 20
1583.760960
 30
0.0
 10
810.786680
 20
1591.138960
 30
0.0
  0
SPLINE
  5
123
100
AcDbEntity
  8
H0106_Printing
 62
7
100
AcDbSpline
 70
8
 71
3
 72
8
 73
4
 74
0
 40
0
 40
0
 40
0
 40
0
 40
1
 40
1
 40
1
 40
1
 10
810.786680
 20
1591.138960
 30
0.0
 10
808.255680
 20
1591.729960
 30
0.0
 10
805.811680
 20
1592.392960
 30
0.0
 10
803.409680
 20
1593.085960
 30
0.0
  0
LWPOLYLINE
  5
124
100
AcDbEntity
  8
H0106_Printing
 62
7
100
AcDbPolyline
 90
4
 70
0
 10
933.071677
 20
1212.009970
 30
0.0
 10
1086.216673
 20
1241.854969
 30
0.0
 10
1068.407673
 20
1333.233967
 30
0.0
 10
948.618676
 20
1309.885967
 30
0.0
  0
SPLINE
  5
125
100
AcDbEntity
  8
H0106_Printing
 62
7
100
AcDbSpline
 70
8
 71
3
 72
8
 73
4
 74
0
 40
0
 40
0
 40
0
 40
0
 40
1
 40
1
 40
1
 40
1
 10
701.041682
 20
1637.895959
 30
0.0
 10
700.946682
 20
1637.726959
 30
0.0
 10
700.858682
 20
1637.571959
 30
0.0
 10
700.757682
 20
1637.391959
 30
0.0
  0
SPLINE
  5
126
100
AcDbEntity
  8
H0106_Printing
 62
7
100
AcDbSpline
 70
8
 71
3
 72
8
 73
4
 74
0
 40
0
 40
0
 40
0
 40
0
 40
1
 40
1
 40
1
 40
1
 10
700.757682
 20
1637.391959
 30
0.0
 10
691.557683
 20
1624.049959
 30
0.0
 10
649.046684
 20
1610.985960
 30
0.0
 10
628.943684
 20
1600.228960
 30
0.0
  0
SPLINE
  5
127
100
AcDbEntity
  8
H0106_Printing
 62
7
100
AcDbSpline
 70
8
 71
3
 72
8
 73
4
 74
0
 40
0
 40
0
 40
0
 40
0
 40
1
 40
1
 40
1
 40
1
 10
628.943684
 20
1600.228960
 30
0.0
 10
618.580685
 20
1594.890960
 30
0.0
 10
607.650685
 20
1589.435960
 30
0.0
 10
596.595685
 20
1583.199960
 30
0.0
  0
SPLINE
  5
128
100
AcDbEntity
  8
H0106_Printing
 62
7
100
AcDbSpline
 70
8
 71
3
 72
8
 73
4
 74
0
 40
0
 40
0
 40
0
 40
0
 40
1
 40
1
 40
1
 40
1
 10
596.595685
 20
1583.199960
 30
0.0
 10
585.877685
 20
1576.532961
 30
0.0
 10
543.398686
 20
1551.560961
 30
0.0
 10
545.371686
 20
1547.770961
 30
0.0
  0
SPLINE
  5
129
100
AcDbEntity
  8
H0106_Printing
 62
7
100
AcDbSpline
 70
8
 71
3
 72
8
 73
4
 74
0
 40
0
 40
0
 40
0
 40
0
 40
1
 40
1
 40
1
 40
1
 10
545.371686
 20
1547.770961
 30
0.0
 10
547.495686
 20
1543.954961
 30
0.0
 10
601.824685
 20
1465.303963
 30
0.0
 10
666.852683
 20
1277.859968
 30
0.0
  0
LWPOLYLINE
  5
12a
100
AcDbEntity
  8
H0106_Printing
 62
7
100
AcDbPolyline
 90
4
 70
0
 10
803.409680
 20
1593.085960
 30
0.0
 10
784.554680
 20
1700.644957
 30
0.0
 10
692.858683
 20
1684.569958
 30
0.0
 10
701.041682
 20
1637.895959
 30
0.0
  0
SPLINE
  5
12b
100
AcDbEntity
  8
H0106_Printing
 62
7
100
AcDbSpline
 70
8
 71
3
 72
8
 73
4
 74
0
 40
0
 40
0
 40
0
 40
0
 40
1
 40
1
 40
1
 40
1
 10
514.115587
 20
1114.884772
 30
0.0
 10
508.478587
 20
1104.809772
 30
0.0
 10
497.733588
 20
1101.046772
 30
0.0
 10
487.284588
 20
1094.841773
 30
0.0
  0
SPLINE
  5
12c
100
AcDbEntity
  8
H0106_Printing
 62
7
100
AcDbSpline
 70
8
 71
3
 72
8
 73
4
 74
0
 40
0
 40
0
 40
0
 40
0
 40
1
 40
1
 40
1
 40
1
 10
487.284588
 20
1094.841773
 30
0.0
 10
476.323588
 20
1088.708773
 30
0.0
 10
465.332588
 20
1083.683773
 30
0.0
 10
454.864589
 20
1078.341773
 30
0.0
  0
SPLINE
  5
12d
100
AcDbEntity
  8
H0106_Printing
 62
7
100
AcDbSpline
 70
8
 71
3
 72
8
 73
4
 74
0
 40
0
 40
0
 40
0
 40
0
 40
1
 40
1
 40
1
 40
1
 10
454.864589
 20
1078.341773
 30
0.0
 10
444.392589
 20
1072.999773
 30
0.0
 10
431.803589
 20
1067.756773
 30
0.0
 10
422.668589
 20
1062.206773
 30
0.0
  0
SPLINE
  5
12e
100
AcDbEntity
  8
H0106_Printing
 62
7
100
AcDbSpline
 70
8
 71
3
 72
8
 73
4
 74
0
 40
0
 40
0
 40
0
 40
0
 40
1
 40
1
 40
1
 40
1
 10
422.668589
 20
1062.206773
 30
0.0
 10
414.996590
 20
1057.331774
 30
0.0
 10
386.869590
 20
1048.180774
 30
0.0
 10
377.286591
 20
1039.666774
 30
0.0
  0
LWPOLYLINE
  5
12f
100
AcDbEntity
  8
H0106_Printing
 62
7
100
AcDbPolyline
 90
1
 70
1
 10
666.852683
 20
1277.859968
 30
0.0
  0
SPLINE
  5
130
100
AcDbEntity
  8
H0106_Printing
 62
7
100
AcDbSpline
 70
8
 71
3
 72
8
 73
4
 74
0
 40
0
 40
0
 40
0
 40
0
 40
1
 40
1
 40
1
 40
1
 10
377.110591
 20
1040.673774
 30
0.0
 10
376.978591
 20
1041.423774
 30
0.0
 10
376.423591
 20
1042.022774
 30
0.0
 10
375.690591
 20
1042.228774
 30
0.0
  0
SPLINE
  5
131
100
AcDbEntity
  8
H0106_Printing
 62
7
100
AcDbSpline
 70
8
 71
3
 72
8
 73
4
 74
0
 40
0
 40
0
 40
0
 40
0
 40
1
 40
1
 40
1
 40
1
 10
375.690591
 20
1042.228774
 30
0.0
 10
361.153591
 20
1046.310774
 30
0.0
 10
355.896591
 20
1048.934774
 30
0.0
 10
341.757591
 20
1054.476774
 30
0.0
  0
SPLINE
  5
132
100
AcDbEntity
  8
H0106_Printing
 62
7
100
AcDbSpline
 70
8
 71
3
 72
8
 73
4
 74
0
 40
0
 40
0
 40
0
 40
0
 40
1
 40
1
 40
1
 40
1
 10
341.757591
 20
1054.476774
 30
0.0
 10
336.179592
 20
1056.664774
 30
0.0
 10
330.666592
 20
1058.997774
 30
0.0
 10
325.193592
 20
1061.416773
 30
0.0
  0
SPLINE
  5
133
100
AcDbEntity
  8
H0106_Printing
 62
7
100
AcDbSpline
 70
8
 71
3
 72
8
 73
4
 74
0
 40
0
 40
0
 40
0
 40
0
 40
1
 40
1
 40
1
 40
1
 10
325.193592
 20
1061.416773
 30
0.0
 10
311.545592
 20
1070.692773
 30
0.0
 10
294.409593
 20
1077.187773
 30
0.0
 10
274.312593
 20
1081.840773
 30
0.0
  0
SPLINE
  5
134
100
AcDbEntity
  8
H0106_Printing
 62
7
100
AcDbSpline
 70
8
 71
3
 72
8
 73
4
 74
0
 40
0
 40
0
 40
0
 40
0
 40
1
 40
1
 40
1
 40
1
 10
274.312593
 20
1081.840773
 30
0.0
 10
243.293594
 20
1089.404773
 30
0.0
 10
203.274595
 20
1091.691773
 30
0.0
 10
162.084596
 20
1087.481773
 30
0.0
  0
SPLINE
  5
135
100
AcDbEntity
  8
H0106_Printing
 62
7
100
AcDbSpline
 70
8
 71
3
 72
8
 73
4
 74
0
 40
0
 40
0
 40
0
 40
0
 40
1
 40
1
 40
1
 40
1
 10
162.084596
 20
1087.481773
 30
0.0
 10
141.468596
 20
1085.535773
 30
0.0
 10
119.957597
 20
1081.851773
 30
0.0
 10
97.955598
 20
1079.341773
 30
0.0
  0
SPLINE
  5
136
100
AcDbEntity
  8
H0106_Printing
 62
7
100
AcDbSpline
 70
8
 71
3
 72
8
 73
4
 74
0
 40
0
 40
0
 40
0
 40
0
 40
1
 40
1
 40
1
 40
1
 10
97.955598
 20
1079.341773
 30
0.0
 10
92.622598
 20
1078.883773
 30
0.0
 10
86.597598
 20
1076.705773
 30
0.0
 10
82.385598
 20
1077.841773
 30
0.0
  0
SPLINE
  5
137
100
AcDbEntity
  8
H0106_Printing
 62
7
100
AcDbSpline
 70
8
 71
3
 72
8
 73
4
 74
0
 40
0
 40
0
 40
0
 40
0
 40
1
 40
1
 40
1
 40
1
 10
82.385598
 20
1077.841773
 30
0.0
 10
77.757598
 20
1079.030773
 30
0.0
 10
75.440598
 20
1078.622773
 30
0.0
 10
75.264598
 20
1083.634773
 30
0.0
  0
SPLINE
  5
138
100
AcDbEntity
  8
H0106_Printing
 62
7
100
AcDbSpline
 70
8
 71
3
 72
8
 73
4
 74
0
 40
0
 40
0
 40
0
 40
0
 40
1
 40
1
 40
1
 40
1
 10
75.264598
 20
1083.634773
 30
0.0
 10
75.163598
 20
1090.877773
 30
0.0
 10
95.352598
 20
1124.298772
 30
0.0
 10
114.259597
 20
1175.424771
 30
0.0
  0
LWPOLYLINE
  5
139
100
AcDbEntity
  8
H0106_Printing
 62
7
100
AcDbPolyline
 90
2
 70
0
 10
377.286591
 20
1039.666774
 30
0.0
 10
377.110591
 20
1040.673774
 30
0.0
  0
SPLINE
  5
13a
100
AcDbEntity
  8
H0106_Printing
 62
7
100
AcDbSpline
 70
8
 71
3
 72
8
 73
4
 74
0
 40
0
 40
0
 40
0
 40
0
 40
1
 40
1
 40
1
 40
1
 10
140.464596
 20
1102.329772
 30
0.0
 10
140.464596
 20
1102.329772
 30
0.0
 10
170.508596
 20
1105.764772
 30
0.0
 10
194.227595
 20
1106.927772
 30
0.0
  0
SPLINE
  5
13b
100
AcDbEntity
  8
H0106_Printing
 62
7
100
AcDbSpline
 70
8
 71
3
 72
8
 73
4
 74
0
 40
0
 40
0
 40
0
 40
0
 40
1
 40
1
 40
1
 40
1
 10
194.227595
 20
1106.927772
 30
0.0
 10
235.343594
 20
1108.945772
 30
0.0
 10
303.822592
 20
1082.445773
 30
0.0
 10
341.654591
 20
1070.607773
 30
0.0
  0
SPLINE
  5
13c
100
AcDbEntity
  8
H0106_Printing
 62
7
100
AcDbSpline
 70
8
 71
3
 72
8
 73
4
 74
0
 40
0
 40
0
 40
0
 40
0
 40
1
 40
1
 40
1
 40
1
 10
341.654591
 20
1070.607773
 30
0.0
 10
337.217592
 20
1117.019772
 30
0.0
 10
377.888591
 20
1114.434772
 30
0.0
 10
395.117590
 20
1159.161771
 30
0.0
  0
LWPOLYLINE
  5
13d
100
AcDbEntity
  8
H0106_Printing
 62
7
100
AcDbPolyline
 90
2
 70
0
 10
114.259597
 20
1175.424771
 30
0.0
 10
140.464596
 20
1102.329772
 30
0.0
  0
SPLINE
  5
13e
100
AcDbEntity
  8
H0106_Printing
 62
7
100
AcDbSpline
 70
8
 71
3
 72
8
 73
4
 74
0
 40
0
 40
0
 40
0
 40
0
 40
1
 40
1
 40
1
 40
1
 10
386.286590
 20
1241.558769
 30
0.0
 10
386.104590
 20
1254.377769
 30
0.0
 10
387.361590
 20
1271.467768
 30
0.0
 10
389.148590
 20
1289.261768
 30
0.0
  0
SPLINE
  5
13f
100
AcDbEntity
  8
H0106_Printing
 62
7
100
AcDbSpline
 70
8
 71
3
 72
8
 73
4
 74
0
 40
0
 40
0
 40
0
 40
0
 40
1
 40
1
 40
1
 40
1
 10
389.148590
 20
1289.261768
 30
0.0
 10
407.741590
 20
1247.835769
 30
0.0
 10
468.142588
 20
1102.455772
 30
0.0
 10
469.982588
 20
1101.534772
 30
0.0
  0
SPLINE
  5
140
100
AcDbEntity
  8
H0106_Printing
 62
7
100
AcDbSpline
 70
8
 71
3
 72
8
 73
4
 74
0
 40
0
 40
0
 40
0
 40
0
 40
1
 40
1
 40
1
 40
1
 10
469.982588
 20
1101.534772
 30
0.0
 10
472.249588
 20
1100.399772
 30
0.0
 10
487.552588
 20
1104.435772
 30
0.0
 10
497.188588
 20
1112.366772
 30
0.0
  0
SPLINE
  5
141
100
AcDbEntity
  8
H0106_Printing
 62
7
100
AcDbSpline
 70
8
 71
3
 72
8
 73
4
 74
0
 40
0
 40
0
 40
0
 40
0
 40
1
 40
1
 40
1
 40
1
 10
497.188588
 20
1112.366772
 30
0.0
 10
469.959588
 20
1144.418771
 30
0.0
 10
418.456590
 20
1270.424768
 30
0.0
 10
402.145590
 20
1360.924766
 30
0.0
  0
SPLINE
  5
142
100
AcDbEntity
  8
H0106_Printing
 62
7
100
AcDbSpline
 70
8
 71
3
 72
8
 73
4
 74
0
 40
0
 40
0
 40
0
 40
0
 40
1
 40
1
 40
1
 40
1
 10
402.145590
 20
1360.924766
 30
0.0
 10
402.475590
 20
1369.136766
 30
0.0
 10
403.137590
 20
1380.823765
 30
0.0
 10
403.732590
 20
1393.552765
 30
0.0
  0
SPLINE
  5
143
100
AcDbEntity
  8
H0106_Printing
 62
7
100
AcDbSpline
 70
8
 71
3
 72
8
 73
4
 74
0
 40
0
 40
0
 40
0
 40
0
 40
1
 40
1
 40
1
 40
1
 10
403.732590
 20
1393.552765
 30
0.0
 10
413.057590
 20
1359.133766
 30
0.0
 10
439.016589
 20
1300.481767
 30
0.0
 10
454.194589
 20
1257.434769
 30
0.0
  0
SPLINE
  5
144
100
AcDbEntity
  8
H0106_Printing
 62
7
100
AcDbSpline
 70
8
 71
3
 72
8
 73
4
 74
0
 40
0
 40
0
 40
0
 40
0
 40
1
 40
1
 40
1
 40
1
 10
454.194589
 20
1257.434769
 30
0.0
 10
462.962588
 20
1232.446769
 30
0.0
 10
472.847588
 20
1206.618770
 30
0.0
 10
483.729588
 20
1181.123770
 30
0.0
  0
SPLINE
  5
145
100
AcDbEntity
  8
H0106_Printing
 62
7
100
AcDbSpline
 70
8
 71
3
 72
8
 73
4
 74
0
 40
0
 40
0
 40
0
 40
0
 40
1
 40
1
 40
1
 40
1
 10
483.729588
 20
1181.123770
 30
0.0
 10
489.165588
 20
1168.376771
 30
0.0
 10
494.855588
 20
1155.712771
 30
0.0
 10
500.932587
 20
1143.336771
 30
0.0
  0
SPLINE
  5
146
100
AcDbEntity
  8
H0106_Printing
 62
7
100
AcDbSpline
 70
8
 71
3
 72
8
 73
4
 74
0
 40
0
 40
0
 40
0
 40
0
 40
1
 40
1
 40
1
 40
1
 10
500.932587
 20
1143.336771
 30
0.0
 10
503.987587
 20
1137.153772
 30
0.0
 10
507.099587
 20
1131.027772
 30
0.0
 10
510.537587
 20
1125.057772
 30
0.0
  0
SPLINE
  5
147
100
AcDbEntity
  8
H0106_Printing
 62
7
100
AcDbSpline
 70
8
 71
3
 72
8
 73
4
 74
0
 40
0
 40
0
 40
0
 40
0
 40
1
 40
1
 40
1
 40
1
 10
510.537587
 20
1125.057772
 30
0.0
 10
512.135587
 20
1122.198772
 30
0.0
 10
512.460587
 20
1124.322772
 30
0.0
 10
513.979587
 20
1121.971772
 30
0.0
  0
SPLINE
  5
148
100
AcDbEntity
  8
H0106_Printing
 62
7
100
AcDbSpline
 70
8
 71
3
 72
8
 73
4
 74
0
 40
0
 40
0
 40
0
 40
0
 40
1
 40
1
 40
1
 40
1
 10
513.979587
 20
1121.971772
 30
0.0
 10
515.217587
 20
1119.711772
 30
0.0
 10
515.258587
 20
1117.375772
 30
0.0
 10
514.115587
 20
1114.884772
 30
0.0
  0
LWPOLYLINE
  5
149
100
AcDbEntity
  8
H0106_Printing
 62
7
100
AcDbPolyline
 90
4
 70
0
 10
395.117590
 20
1159.161771
 30
0.0
 10
392.899590
 20
1055.622774
 30
0.0
 10
442.211589
 20
1083.964773
 30
0.0
 10
386.286590
 20
1241.558769
 30
0.0
  0
SPLINE
  5
14a
100
AcDbEntity
  8
H0106_Printing
 62
7
100
AcDbSpline
 70
8
 71
3
 72
8
 73
4
 74
0
 40
0
 40
0
 40
0
 40
0
 40
1
 40
1
 40
1
 40
1
 10
137.214597
 20
1250.074769
 30
0.0
 10
145.511596
 20
1299.129768
 30
0.0
 10
145.507596
 20
1348.339766
 30
0.0
 10
154.450596
 20
1395.225765
 30
0.0
  0
SPLINE
  5
14b
100
AcDbEntity
  8
H0106_Printing
 62
7
100
AcDbSpline
 70
8
 71
3
 72
8
 73
4
 74
0
 40
0
 40
0
 40
0
 40
0
 40
1
 40
1
 40
1
 40
1
 10
154.450596
 20
1395.225765
 30
0.0
 10
155.332596
 20
1402.009765
 30
0.0
 10
156.252596
 20
1408.741765
 30
0.0
 10
157.244596
 20
1415.408765
 30
0.0
  0
LWPOLYLINE
  5
14c
100
AcDbEntity
  8
H0106_Printing
 62
7
100
AcDbPolyline
 90
1
 70
1
 10
514.115587
 20
1114.884772
 30
0.0
  0
SPLINE
  5
14d
100
AcDbEntity
  8
H0106_Printing
 62
7
100
AcDbSpline
 70
8
 71
3
 72
8
 73
4
 74
0
 40
0
 40
0
 40
0
 40
0
 40
1
 40
1
 40
1
 40
1
 10
182.563595
 20
1364.914766
 30
0.0
 10
165.467596
 20
1276.837768
 30
0.0
 10
158.410596
 20
1183.853770
 30
0.0
 10
162.612596
 20
1118.428772
 30
0.0
  0
LWPOLYLINE
  5
14e
100
AcDbEntity
  8
H0106_Printing
 62
7
100
AcDbPolyline
 90
2
 70
0
 10
157.244596
 20
1415.408765
 30
0.0
 10
182.563595
 20
1364.914766
 30
0.0
  0
SPLINE
  5
14f
100
AcDbEntity
  8
H0106_Printing
 62
7
100
AcDbSpline
 70
8
 71
3
 72
8
 73
4
 74
0
 40
0
 40
0
 40
0
 40
0
 40
1
 40
1
 40
1
 40
1
 10
122.081597
 20
1195.965770
 30
0.0
 10
128.785597
 20
1214.573770
 30
0.0
 10
134.371597
 20
1233.260769
 30
0.0
 10
137.214597
 20
1250.074769
 30
0.0
  0
LWPOLYLINE
  5
150
100
AcDbEntity
  8
H0106_Printing
 62
7
100
AcDbPolyline
 90
2
 70
0
 10
162.612596
 20
1118.428772
 30
0.0
 10
122.081597
 20
1195.965770
 30
0.0
  0
SPLINE
  5
151
100
AcDbEntity
  8
H0106_Printing
 62
7
100
AcDbSpline
 70
8
 71
3
 72
8
 73
4
 74
0
 40
0
 40
0
 40
0
 40
0
 40
1
 40
1
 40
1
 40
1
 10
166.898596
 20
1462.956763
 30
0.0
 10
173.048596
 20
1484.260763
 30
0.0
 10
181.379595
 20
1504.087762
 30
0.0
 10
199.713595
 20
1512.322762
 30
0.0
  0
SPLINE
  5
152
100
AcDbEntity
  8
H0106_Printing
 62
7
100
AcDbSpline
 70
8
 71
3
 72
8
 73
4
 74
0
 40
0
 40
0
 40
0
 40
0
 40
1
 40
1
 40
1
 40
1
 10
199.713595
 20
1512.322762
 30
0.0
 10
220.682594
 20
1522.620762
 30
0.0
 10
258.593594
 20
1531.251762
 30
0.0
 10
287.292593
 20
1537.025762
 30
0.0
  0
LWPOLYLINE
  5
153
100
AcDbEntity
  8
H0106_Printing
 62
7
100
AcDbPolyline
 90
1
 70
1
 10
137.214597
 20
1250.074769
 30
0.0
  0
SPLINE
  5
154
100
AcDbEntity
  8
H0106_Printing
 62
7
100
AcDbSpline
 70
8
 71
3
 72
8
 73
4
 74
0
 40
0
 40
0
 40
0
 40
0
 40
1
 40
1
 40
1
 40
1
 10
234.652594
 20
1520.124762
 30
0.0
 10
216.133595
 20
1503.599762
 30
0.0
 10
198.875595
 20
1448.604764
 30
0.0
 10
185.790595
 20
1382.054765
 30
0.0
  0
LWPOLYLINE
  5
155
100
AcDbEntity
  8
H0106_Printing
 62
7
100
AcDbPolyline
 90
2
 70
0
 10
287.292593
 20
1537.025762
 30
0.0
 10
234.652594
 20
1520.124762
 30
0.0
  0
SPLINE
  5
156
100
AcDbEntity
  8
H0106_Printing
 62
7
100
AcDbSpline
 70
8
 71
3
 72
8
 73
4
 74
0
 40
0
 40
0
 40
0
 40
0
 40
1
 40
1
 40
1
 40
1
 10
164.295596
 20
1452.882764
 30
0.0
 10
165.111596
 20
1456.270764
 30
0.0
 10
165.963596
 20
1459.640764
 30
0.0
 10
166.898596
 20
1462.956763
 30
0.0
  0
LWPOLYLINE
  5
157
100
AcDbEntity
  8
H0106_Printing
 62
7
100
AcDbPolyline
 90
2
 70
0
 10
185.790595
 20
1382.054765
 30
0.0
 10
164.295596
 20
1452.882764
 30
0.0
  0
SPLINE
  5
158
100
AcDbEntity
  8
H0106_Printing
 62
7
100
AcDbSpline
 70
8
 71
3
 72
8
 73
4
 74
0
 40
0
 40
0
 40
0
 40
0
 40
1
 40
1
 40
1
 40
1
 10
270.396593
 20
1686.303758
 30
0.0
 10
278.155593
 20
1686.303758
 30
0.0
 10
284.445593
 20
1680.042758
 30
0.0
 10
284.445593
 20
1672.318758
 30
0.0
  0
SPLINE
  5
159
100
AcDbEntity
  8
H0106_Printing
 62
7
100
AcDbSpline
 70
8
 71
3
 72
8
 73
4
 74
0
 40
0
 40
0
 40
0
 40
0
 40
1
 40
1
 40
1
 40
1
 10
284.445593
 20
1672.318758
 30
0.0
 10
284.445593
 20
1664.594758
 30
0.0
 10
278.155593
 20
1658.333759
 30
0.0
 10
270.396593
 20
1658.333759
 30
0.0
  0
SPLINE
  5
15a
100
AcDbEntity
  8
H0106_Printing
 62
7
100
AcDbSpline
 70
8
 71
3
 72
8
 73
4
 74
0
 40
0
 40
0
 40
0
 40
0
 40
1
 40
1
 40
1
 40
1
 10
270.396593
 20
1658.333759
 30
0.0
 10
262.637593
 20
1658.333759
 30
0.0
 10
256.347594
 20
1664.594758
 30
0.0
 10
256.347594
 20
1672.318758
 30
0.0
  0
SPLINE
  5
15b
100
AcDbEntity
  8
H0106_Printing
 62
7
100
AcDbSpline
 70
8
 71
3
 72
8
 73
4
 74
0
 40
0
 40
0
 40
0
 40
0
 40
1
 40
1
 40
1
 40
1
 10
256.347594
 20
1672.318758
 30
0.0
 10
256.347594
 20
1680.042758
 30
0.0
 10
262.637593
 20
1686.303758
 30
0.0
 10
270.396593
 20
1686.303758
 30
0.0
  0
LWPOLYLINE
  5
15c
100
AcDbEntity
  8
H0106_Printing
 62
7
100
AcDbPolyline
 90
1
 70
1
 10
166.898596
 20
1462.956763
 30
0.0
  0
SPLINE
  5
15d
100
AcDbEntity
  8
H0106_Printing
 62
7
100
AcDbSpline
 70
8
 71
3
 72
8
 73
4
 74
0
 40
0
 40
0
 40
0
 40
0
 40
1
 40
1
 40
1
 40
1
 10
306.768592
 20
1540.819761
 30
0.0
 10
314.565592
 20
1542.303761
 30
0.0
 10
320.454592
 20
1543.409761
 30
0.0
 10
323.329592
 20
1544.078761
 30
0.0
  0
SPLINE
  5
15e
100
AcDbEntity
  8
H0106_Printing
 62
7
100
AcDbSpline
 70
8
 71
3
 72
8
 73
4
 74
0
 40
0
 40
0
 40
0
 40
0
 40
1
 40
1
 40
1
 40
1
 10
323.329592
 20
1544.078761
 30
0.0
 10
332.191592
 20
1536.703762
 30
0.0
 10
344.957591
 20
1520.905762
 30
0.0
 10
362.138591
 20
1512.515762
 30
0.0
  0
SPLINE
  5
15f
100
AcDbEntity
  8
H0106_Printing
 62
7
100
AcDbSpline
 70
8
 71
3
 72
8
 73
4
 74
0
 40
0
 40
0
 40
0
 40
0
 40
1
 40
1
 40
1
 40
1
 10
362.138591
 20
1512.515762
 30
0.0
 10
367.942591
 20
1509.785762
 30
0.0
 10
379.682591
 20
1506.996762
 30
0.0
 10
400.345590
 20
1499.272763
 30
0.0
  0
SPLINE
  5
160
100
AcDbEntity
  8
H0106_Printing
 62
7
100
AcDbSpline
 70
8
 71
3
 72
8
 73
4
 74
0
 40
0
 40
0
 40
0
 40
0
 40
1
 40
1
 40
1
 40
1
 10
400.345590
 20
1499.272763
 30
0.0
 10
400.205590
 20
1490.974763
 30
0.0
 10
412.917590
 20
1454.875764
 30
0.0
 10
412.448590
 20
1446.554764
 30
0.0
  0
SPLINE
  5
161
100
AcDbEntity
  8
H0106_Printing
 62
7
100
AcDbSpline
 70
8
 71
3
 72
8
 73
4
 74
0
 40
0
 40
0
 40
0
 40
0
 40
1
 40
1
 40
1
 40
1
 10
412.448590
 20
1446.554764
 30
0.0
 10
392.697590
 20
1486.221763
 30
0.0
 10
339.033592
 20
1518.850762
 30
0.0
 10
326.350592
 20
1532.304762
 30
0.0
  0
SPLINE
  5
162
100
AcDbEntity
  8
H0106_Printing
 62
7
100
AcDbSpline
 70
8
 71
3
 72
8
 73
4
 74
0
 40
0
 40
0
 40
0
 40
0
 40
1
 40
1
 40
1
 40
1
 10
326.350592
 20
1532.304762
 30
0.0
 10
311.844592
 20
1527.769762
 30
0.0
 10
269.332593
 20
1519.269762
 30
0.0
 10
252.329594
 20
1500.566762
 30
0.0
  0
SPLINE
  5
163
100
AcDbEntity
  8
H0106_Printing
 62
7
100
AcDbSpline
 70
8
 71
3
 72
8
 73
4
 74
0
 40
0
 40
0
 40
0
 40
0
 40
1
 40
1
 40
1
 40
1
 10
252.329594
 20
1500.566762
 30
0.0
 10
249.368594
 20
1497.307763
 30
0.0
 10
246.417594
 20
1493.657763
 30
0.0
 10
243.559594
 20
1489.704763
 30
0.0
  0
LWPOLYLINE
  5
164
100
AcDbEntity
  8
H0106_Printing
 62
7
100
AcDbPolyline
 90
1
 70
1
 10
270.396593
 20
1686.303758
 30
0.0
  0
SPLINE
  5
165
100
AcDbEntity
  8
H0106_Printing
 62
7
100
AcDbSpline
 70
8
 71
3
 72
8
 73
4
 74
0
 40
0
 40
0
 40
0
 40
0
 40
1
 40
1
 40
1
 40
1
 10
334.799592
 20
1139.532772
 30
0.0
 10
334.339592
 20
1138.749772
 30
0.0
 10
331.343592
 20
1145.554771
 30
0.0
 10
336.260592
 20
1154.405771
 30
0.0
  0
SPLINE
  5
166
100
AcDbEntity
  8
H0106_Printing
 62
7
100
AcDbSpline
 70
8
 71
3
 72
8
 73
4
 74
0
 40
0
 40
0
 40
0
 40
0
 40
1
 40
1
 40
1
 40
1
 10
336.260592
 20
1154.405771
 30
0.0
 10
340.278591
 20
1163.194771
 30
0.0
 10
347.806591
 20
1174.050771
 30
0.0
 10
353.827591
 20
1186.960770
 30
0.0
  0
SPLINE
  5
167
100
AcDbEntity
  8
H0106_Printing
 62
7
100
AcDbSpline
 70
8
 71
3
 72
8
 73
4
 74
0
 40
0
 40
0
 40
0
 40
0
 40
1
 40
1
 40
1
 40
1
 10
353.827591
 20
1186.960770
 30
0.0
 10
359.996591
 20
1199.751770
 30
0.0
 10
364.053591
 20
1214.909770
 30
0.0
 10
363.208591
 20
1229.040769
 30
0.0
  0
SPLINE
  5
168
100
AcDbEntity
  8
H0106_Printing
 62
7
100
AcDbSpline
 70
8
 71
3
 72
8
 73
4
 74
0
 40
0
 40
0
 40
0
 40
0
 40
1
 40
1
 40
1
 40
1
 10
363.208591
 20
1229.040769
 30
0.0
 10
362.611591
 20
1243.191769
 30
0.0
 10
357.743591
 20
1255.602769
 30
0.0
 10
353.378591
 20
1264.136768
 30
0.0
  0
SPLINE
  5
169
100
AcDbEntity
  8
H0106_Printing
 62
7
100
AcDbSpline
 70
8
 71
3
 72
8
 73
4
 74
0
 40
0
 40
0
 40
0
 40
0
 40
1
 40
1
 40
1
 40
1
 10
353.378591
 20
1264.136768
 30
0.0
 10
352.757591
 20
1265.412768
 30
0.0
 10
353.598591
 20
1266.277768
 30
0.0
 10
354.834591
 20
1266.932768
 30
0.0
  0
SPLINE
  5
16a
100
AcDbEntity
  8
H0106_Printing
 62
7
100
AcDbSpline
 70
8
 71
3
 72
8
 73
4
 74
0
 40
0
 40
0
 40
0
 40
0
 40
1
 40
1
 40
1
 40
1
 10
354.834591
 20
1266.932768
 30
0.0
 10
356.071591
 20
1267.587768
 30
0.0
 10
357.328591
 20
1267.602768
 30
0.0
 10
357.899591
 20
1266.434768
 30
0.0
  0
SPLINE
  5
16b
100
AcDbEntity
  8
H0106_Printing
 62
7
100
AcDbSpline
 70
8
 71
3
 72
8
 73
4
 74
0
 40
0
 40
0
 40
0
 40
0
 40
1
 40
1
 40
1
 40
1
 10
357.899591
 20
1266.434768
 30
0.0
 10
362.465591
 20
1257.513769
 30
0.0
 10
367.446591
 20
1244.379769
 30
0.0
 10
367.846591
 20
1229.441769
 30
0.0
  0
SPLINE
  5
16c
100
AcDbEntity
  8
H0106_Printing
 62
7
100
AcDbSpline
 70
8
 71
3
 72
8
 73
4
 74
0
 40
0
 40
0
 40
0
 40
0
 40
1
 40
1
 40
1
 40
1
 10
367.846591
 20
1229.441769
 30
0.0
 10
368.482591
 20
1214.513770
 30
0.0
 10
363.912591
 20
1198.754770
 30
0.0
 10
357.245591
 20
1185.938770
 30
0.0
  0
SPLINE
  5
16d
100
AcDbEntity
  8
H0106_Printing
 62
7
100
AcDbSpline
 70
8
 71
3
 72
8
 73
4
 74
0
 40
0
 40
0
 40
0
 40
0
 40
1
 40
1
 40
1
 40
1
 10
357.245591
 20
1185.938770
 30
0.0
 10
350.729591
 20
1172.966771
 30
0.0
 10
342.791591
 20
1162.417771
 30
0.0
 10
338.245592
 20
1154.127771
 30
0.0
  0
SPLINE
  5
16e
100
AcDbEntity
  8
H0106_Printing
 62
7
100
AcDbSpline
 70
8
 71
3
 72
8
 73
4
 74
0
 40
0
 40
0
 40
0
 40
0
 40
1
 40
1
 40
1
 40
1
 10
338.245592
 20
1154.127771
 30
0.0
 10
332.985592
 20
1145.837771
 30
0.0
 10
334.669592
 20
1139.649772
 30
0.0
 10
334.799592
 20
1139.532772
 30
0.0
  0
LWPOLYLINE
  5
16f
100
AcDbEntity
  8
H0106_Printing
 62
7
100
AcDbPolyline
 90
3
 70
0
 10
243.559594
 20
1489.704763
 30
0.0
 10
238.781594
 20
1506.022762
 30
0.0
 10
306.768592
 20
1540.819761
 30
0.0
  0
SPLINE
  5
170
100
AcDbEntity
  8
H0106_Printing
 62
7
100
AcDbSpline
 70
8
 71
3
 72
8
 73
4
 74
0
 40
0
 40
0
 40
0
 40
0
 40
1
 40
1
 40
1
 40
1
 10
273.583593
 20
1268.459768
 30
0.0
 10
280.387593
 20
1263.359768
 30
0.0
 10
273.869593
 20
1254.288769
 30
0.0
 10
282.371593
 20
1250.884769
 30
0.0
  0
SPLINE
  5
171
100
AcDbEntity
  8
H0106_Printing
 62
7
100
AcDbSpline
 70
8
 71
3
 72
8
 73
4
 74
0
 40
0
 40
0
 40
0
 40
0
 40
1
 40
1
 40
1
 40
1
 10
282.371593
 20
1250.884769
 30
0.0
 10
290.874593
 20
1247.484769
 30
0.0
 10
283.503593
 20
1237.569769
 30
0.0
 10
272.029593
 20
1240.401769
 30
0.0
  0
SPLINE
  5
172
100
AcDbEntity
  8
H0106_Printing
 62
7
100
AcDbSpline
 70
8
 71
3
 72
8
 73
4
 74
0
 40
0
 40
0
 40
0
 40
0
 40
1
 40
1
 40
1
 40
1
 10
272.029593
 20
1240.401769
 30
0.0
 10
260.556593
 20
1243.236769
 30
0.0
 10
254.822594
 20
1275.323768
 30
0.0
 10
254.738594
 20
1277.386768
 30
0.0
  0
SPLINE
  5
173
100
AcDbEntity
  8
H0106_Printing
 62
7
100
AcDbSpline
 70
8
 71
3
 72
8
 73
4
 74
0
 40
0
 40
0
 40
0
 40
0
 40
1
 40
1
 40
1
 40
1
 10
254.738594
 20
1277.386768
 30
0.0
 10
254.589594
 20
1281.085768
 30
0.0
 10
266.784593
 20
1273.558768
 30
0.0
 10
273.583593
 20
1268.459768
 30
0.0
  0
LWPOLYLINE
  5
174
100
AcDbEntity
  8
H0106_Printing
 62
7
100
AcDbPolyline
 90
1
 70
1
 10
334.799592
 20
1139.532772
 30
0.0
  0
SPLINE
  5
175
100
AcDbEntity
  8
H0106_Printing
 62
7
100
AcDbSpline
 70
8
 71
3
 72
8
 73
4
 74
0
 40
0
 40
0
 40
0
 40
0
 40
1
 40
1
 40
1
 40
1
 10
308.278592
 20
1197.121770
 30
0.0
 10
311.540592
 20
1188.120770
 30
0.0
 10
315.189592
 20
1180.882770
 30
0.0
 10
314.840592
 20
1180.599770
 30
0.0
  0
SPLINE
  5
176
100
AcDbEntity
  8
H0106_Printing
 62
7
100
AcDbSpline
 70
8
 71
3
 72
8
 73
4
 74
0
 40
0
 40
0
 40
0
 40
0
 40
1
 40
1
 40
1
 40
1
 10
314.840592
 20
1180.599770
 30
0.0
 10
314.513592
 20
1180.259770
 30
0.0
 10
310.125592
 20
1187.027770
 30
0.0
 10
306.131592
 20
1196.083770
 30
0.0
  0
SPLINE
  5
177
100
AcDbEntity
  8
H0106_Printing
 62
7
100
AcDbSpline
 70
8
 71
3
 72
8
 73
4
 74
0
 40
0
 40
0
 40
0
 40
0
 40
1
 40
1
 40
1
 40
1
 10
306.131592
 20
1196.083770
 30
0.0
 10
301.924592
 20
1205.094770
 30
0.0
 10
300.582592
 20
1217.281770
 30
0.0
 10
301.868592
 20
1224.068769
 30
0.0
  0
SPLINE
  5
178
100
AcDbEntity
  8
H0106_Printing
 62
7
100
AcDbSpline
 70
8
 71
3
 72
8
 73
4
 74
0
 40
0
 40
0
 40
0
 40
0
 40
1
 40
1
 40
1
 40
1
 10
301.868592
 20
1224.068769
 30
0.0
 10
301.914592
 20
1224.575769
 30
0.0
 10
302.686592
 20
1224.595769
 30
0.0
 10
303.624592
 20
1224.458769
 30
0.0
  0
SPLINE
  5
179
100
AcDbEntity
  8
H0106_Printing
 62
7
100
AcDbSpline
 70
8
 71
3
 72
8
 73
4
 74
0
 40
0
 40
0
 40
0
 40
0
 40
1
 40
1
 40
1
 40
1
 10
303.624592
 20
1224.458769
 30
0.0
 10
304.563592
 20
1224.321769
 30
0.0
 10
305.308592
 20
1224.027769
 30
0.0
 10
305.269592
 20
1223.617769
 30
0.0
  0
SPLINE
  5
17a
100
AcDbEntity
  8
H0106_Printing
 62
7
100
AcDbSpline
 70
8
 71
3
 72
8
 73
4
 74
0
 40
0
 40
0
 40
0
 40
0
 40
1
 40
1
 40
1
 40
1
 10
305.269592
 20
1223.617769
 30
0.0
 10
304.084592
 20
1217.220770
 30
0.0
 10
304.862592
 20
1206.137770
 30
0.0
 10
308.278592
 20
1197.121770
 30
0.0
  0
LWPOLYLINE
  5
17b
100
AcDbEntity
  8
H0106_Printing
 62
7
100
AcDbPolyline
 90
1
 70
1
 10
273.583593
 20
1268.459768
 30
0.0
  0
SPLINE
  5
17c
100
AcDbEntity
  8
H0106_Printing
 62
7
100
AcDbSpline
 70
8
 71
3
 72
8
 73
4
 74
0
 40
0
 40
0
 40
0
 40
0
 40
1
 40
1
 40
1
 40
1
 10
305.232592
 20
1266.096768
 30
0.0
 10
294.274593
 20
1268.739768
 30
0.0
 10
277.114593
 20
1275.989768
 30
0.0
 10
272.167593
 20
1280.078768
 30
0.0
  0
SPLINE
  5
17d
100
AcDbEntity
  8
H0106_Printing
 62
7
100
AcDbSpline
 70
8
 71
3
 72
8
 73
4
 74
0
 40
0
 40
0
 40
0
 40
0
 40
1
 40
1
 40
1
 40
1
 10
272.167593
 20
1280.078768
 30
0.0
 10
269.856593
 20
1281.990768
 30
0.0
 10
297.295593
 20
1275.732768
 30
0.0
 10
302.775592
 20
1274.221768
 30
0.0
  0
SPLINE
  5
17e
100
AcDbEntity
  8
H0106_Printing
 62
7
100
AcDbSpline
 70
8
 71
3
 72
8
 73
4
 74
0
 40
0
 40
0
 40
0
 40
0
 40
1
 40
1
 40
1
 40
1
 10
302.775592
 20
1274.221768
 30
0.0
 10
308.254592
 20
1272.710768
 30
0.0
 10
323.558592
 20
1269.306768
 30
0.0
 10
323.558592
 20
1269.306768
 30
0.0
  0
SPLINE
  5
17f
100
AcDbEntity
  8
H0106_Printing
 62
7
100
AcDbSpline
 70
8
 71
3
 72
8
 73
4
 74
0
 40
0
 40
0
 40
0
 40
0
 40
1
 40
1
 40
1
 40
1
 10
323.558592
 20
1269.306768
 30
0.0
 10
323.558592
 20
1269.306768
 30
0.0
 10
316.189592
 20
1263.450768
 30
0.0
 10
305.232592
 20
1266.096768
 30
0.0
  0
LWPOLYLINE
  5
180
100
AcDbEntity
  8
H0106_Printing
 62
7
100
AcDbPolyline
 90
1
 70
1
 10
308.278592
 20
1197.121770
 30
0.0
  0
SPLINE
  5
181
100
AcDbEntity
  8
H0106_Printing
 62
7
100
AcDbSpline
 70
8
 71
3
 72
8
 73
4
 74
0
 40
0
 40
0
 40
0
 40
0
 40
1
 40
1
 40
1
 40
1
 10
336.219592
 20
1259.671769
 30
0.0
 10
332.824592
 20
1254.750769
 30
0.0
 10
326.580592
 20
1238.984769
 30
0.0
 10
323.558592
 20
1237.853769
 30
0.0
  0
SPLINE
  5
182
100
AcDbEntity
  8
H0106_Printing
 62
7
100
AcDbSpline
 70
8
 71
3
 72
8
 73
4
 74
0
 40
0
 40
0
 40
0
 40
0
 40
1
 40
1
 40
1
 40
1
 10
323.558592
 20
1237.853769
 30
0.0
 10
319.189592
 20
1236.209769
 30
0.0
 10
314.214592
 20
1250.987769
 30
0.0
 10
315.103592
 20
1258.539769
 30
0.0
  0
SPLINE
  5
183
100
AcDbEntity
  8
H0106_Printing
 62
7
100
AcDbSpline
 70
8
 71
3
 72
8
 73
4
 74
0
 40
0
 40
0
 40
0
 40
0
 40
1
 40
1
 40
1
 40
1
 10
315.103592
 20
1258.539769
 30
0.0
 10
315.670592
 20
1263.359768
 30
0.0
 10
340.610591
 20
1266.051768
 30
0.0
 10
336.219592
 20
1259.671769
 30
0.0
  0
LWPOLYLINE
  5
184
100
AcDbEntity
  8
H0106_Printing
 62
7
100
AcDbPolyline
 90
1
 70
1
 10
305.232592
 20
1266.096768
 30
0.0
  0
SPLINE
  5
185
100
AcDbEntity
  8
H0106_Printing
 62
7
100
AcDbSpline
 70
8
 71
3
 72
8
 73
4
 74
0
 40
0
 40
0
 40
0
 40
0
 40
1
 40
1
 40
1
 40
1
 10
334.198592
 20
1234.816769
 30
0.0
 10
333.929592
 20
1235.521769
 30
0.0
 10
334.688592
 20
1236.129769
 30
0.0
 10
335.709592
 20
1236.641769
 30
0.0
  0
SPLINE
  5
186
100
AcDbEntity
  8
H0106_Printing
 62
7
100
AcDbSpline
 70
8
 71
3
 72
8
 73
4
 74
0
 40
0
 40
0
 40
0
 40
0
 40
1
 40
1
 40
1
 40
1
 10
335.709592
 20
1236.641769
 30
0.0
 10
336.727592
 20
1237.165769
 30
0.0
 10
337.702592
 20
1237.219769
 30
0.0
 10
338.030592
 20
1236.382769
 30
0.0
  0
SPLINE
  5
187
100
AcDbEntity
  8
H0106_Printing
 62
7
100
AcDbSpline
 70
8
 71
3
 72
8
 73
4
 74
0
 40
0
 40
0
 40
0
 40
0
 40
1
 40
1
 40
1
 40
1
 10
338.030592
 20
1236.382769
 30
0.0
 10
342.284591
 20
1223.737769
 30
0.0
 10
339.993592
 20
1202.591770
 30
0.0
 10
333.644592
 20
1185.900770
 30
0.0
  0
SPLINE
  5
188
100
AcDbEntity
  8
H0106_Printing
 62
7
100
AcDbSpline
 70
8
 71
3
 72
8
 73
4
 74
0
 40
0
 40
0
 40
0
 40
0
 40
1
 40
1
 40
1
 40
1
 10
333.644592
 20
1185.900770
 30
0.0
 10
327.514592
 20
1168.860771
 30
0.0
 10
315.709592
 20
1158.924771
 30
0.0
 10
315.492592
 20
1159.165771
 30
0.0
  0
SPLINE
  5
189
100
AcDbEntity
  8
H0106_Printing
 62
7
100
AcDbSpline
 70
8
 71
3
 72
8
 73
4
 74
0
 40
0
 40
0
 40
0
 40
0
 40
1
 40
1
 40
1
 40
1
 10
315.492592
 20
1159.165771
 30
0.0
 10
314.677592
 20
1159.466771
 30
0.0
 10
325.542592
 20
1169.745771
 30
0.0
 10
330.825592
 20
1186.550770
 30
0.0
  0
SPLINE
  5
18a
100
AcDbEntity
  8
H0106_Printing
 62
7
100
AcDbSpline
 70
8
 71
3
 72
8
 73
4
 74
0
 40
0
 40
0
 40
0
 40
0
 40
1
 40
1
 40
1
 40
1
 10
330.825592
 20
1186.550770
 30
0.0
 10
336.462592
 20
1202.813770
 30
0.0
 10
337.858592
 20
1224.357769
 30
0.0
 10
334.198592
 20
1234.816769
 30
0.0
  0
LWPOLYLINE
  5
18b
100
AcDbEntity
  8
H0106_Printing
 62
7
100
AcDbPolyline
 90
1
 70
1
 10
336.219592
 20
1259.671769
 30
0.0
  0
SPLINE
  5
18c
100
AcDbEntity
  8
H0106_Printing
 62
7
100
AcDbSpline
 70
8
 71
3
 72
8
 73
4
 74
0
 40
0
 40
0
 40
0
 40
0
 40
1
 40
1
 40
1
 40
1
 10
236.206594
 20
1192.852770
 30
0.0
 10
240.482594
 20
1173.903771
 30
0.0
 10
248.144594
 20
1154.568771
 30
0.0
 10
261.966593
 20
1140.076771
 30
0.0
  0
SPLINE
  5
18d
100
AcDbEntity
  8
H0106_Printing
 62
7
100
AcDbSpline
 70
8
 71
3
 72
8
 73
4
 74
0
 40
0
 40
0
 40
0
 40
0
 40
1
 40
1
 40
1
 40
1
 10
261.966593
 20
1140.076771
 30
0.0
 10
261.966593
 20
1140.076771
 30
0.0
 10
265.729593
 20
1135.411772
 30
0.0
 10
272.141593
 20
1128.343772
 30
0.0
  0
LWPOLYLINE
  5
18e
100
AcDbEntity
  8
H0106_Printing
 62
7
100
AcDbPolyline
 90
1
 70
1
 10
334.198592
 20
1234.816769
 30
0.0
  0
SPLINE
  5
18f
100
AcDbEntity
  8
H0106_Printing
 62
7
100
AcDbSpline
 70
8
 71
3
 72
8
 73
4
 74
0
 40
0
 40
0
 40
0
 40
0
 40
1
 40
1
 40
1
 40
1
 10
272.143593
 20
1128.339772
 30
0.0
 10
281.873593
 20
1117.617772
 30
0.0
 10
297.702593
 20
1101.360772
 30
0.0
 10
315.746592
 20
1087.481773
 30
0.0
  0
SPLINE
  5
190
100
AcDbEntity
  8
H0106_Printing
 62
7
100
AcDbSpline
 70
8
 71
3
 72
8
 73
4
 74
0
 40
0
 40
0
 40
0
 40
0
 40
1
 40
1
 40
1
 40
1
 10
315.746592
 20
1087.481773
 30
0.0
 10
284.718593
 20
1103.908772
 30
0.0
 10
250.903594
 20
1117.174772
 30
0.0
 10
217.049595
 20
1124.269772
 30
0.0
  0
SPLINE
  5
191
100
AcDbEntity
  8
H0106_Printing
 62
7
100
AcDbSpline
 70
8
 71
3
 72
8
 73
4
 74
0
 40
0
 40
0
 40
0
 40
0
 40
1
 40
1
 40
1
 40
1
 10
217.049595
 20
1124.269772
 30
0.0
 10
204.748595
 20
1155.371771
 30
0.0
 10
187.165595
 20
1211.911770
 30
0.0
 10
185.688595
 20
1283.542768
 30
0.0
  0
LWPOLYLINE
  5
192
100
AcDbEntity
  8
H0106_Printing
 62
7
100
AcDbPolyline
 90
2
 70
0
 10
272.141593
 20
1128.343772
 30
0.0
 10
272.143593
 20
1128.339772
 30
0.0
  0
SPLINE
  5
193
100
AcDbEntity
  8
H0106_Printing
 62
7
100
AcDbSpline
 70
8
 71
3
 72
8
 73
4
 74
0
 40
0
 40
0
 40
0
 40
0
 40
1
 40
1
 40
1
 40
1
 10
218.546595
 20
1421.087764
 30
0.0
 10
218.546595
 20
1400.684765
 30
0.0
 10
219.088595
 20
1381.103765
 30
0.0
 10
220.174594
 20
1349.941766
 30
0.0
  0
SPLINE
  5
194
100
AcDbEntity
  8
H0106_Printing
 62
7
100
AcDbSpline
 70
8
 71
3
 72
8
 73
4
 74
0
 40
0
 40
0
 40
0
 40
0
 40
1
 40
1
 40
1
 40
1
 10
220.174594
 20
1349.941766
 30
0.0
 10
221.299594
 20
1317.646767
 30
0.0
 10
230.224594
 20
1268.739768
 30
0.0
 10
230.790594
 20
1242.668769
 30
0.0
  0
SPLINE
  5
195
100
AcDbEntity
  8
H0106_Printing
 62
7
100
AcDbSpline
 70
8
 71
3
 72
8
 73
4
 74
0
 40
0
 40
0
 40
0
 40
0
 40
1
 40
1
 40
1
 40
1
 10
230.790594
 20
1242.668769
 30
0.0
 10
230.819594
 20
1241.351769
 30
0.0
 10
230.857594
 20
1239.962769
 30
0.0
 10
230.902594
 20
1238.534769
 30
0.0
  0
LWPOLYLINE
  5
196
100
AcDbEntity
  8
H0106_Printing
 62
7
100
AcDbPolyline
 90
2
 70
0
 10
185.688595
 20
1283.542768
 30
0.0
 10
236.206594
 20
1192.852770
 30
0.0
  0
SPLINE
  5
197
100
AcDbEntity
  8
H0106_Printing
 62
7
100
AcDbSpline
 70
8
 71
3
 72
8
 73
4
 74
0
 40
0
 40
0
 40
0
 40
0
 40
1
 40
1
 40
1
 40
1
 10
185.707595
 20
1303.926767
 30
0.0
 10
186.992595
 20
1359.848766
 30
0.0
 10
198.517595
 20
1423.767764
 30
0.0
 10
229.397594
 20
1491.294763
 30
0.0
  0
LWPOLYLINE
  5
198
100
AcDbEntity
  8
H0106_Printing
 62
7
100
AcDbPolyline
 90
2
 70
0
 10
230.902594
 20
1238.534769
 30
0.0
 10
185.707595
 20
1303.926767
 30
0.0
  0
SPLINE
  5
199
100
AcDbEntity
  8
H0106_Printing
 62
7
100
AcDbSpline
 70
8
 71
3
 72
8
 73
4
 74
0
 40
0
 40
0
 40
0
 40
0
 40
1
 40
1
 40
1
 40
1
 10
238.686594
 20
1482.526763
 30
0.0
 10
227.360594
 20
1464.698763
 30
0.0
 10
218.546595
 20
1442.334764
 30
0.0
 10
218.546595
 20
1421.087764
 30
0.0
  0
LWPOLYLINE
  5
19a
100
AcDbEntity
  8
H0106_Printing
 62
7
100
AcDbPolyline
 90
2
 70
0
 10
229.397594
 20
1491.294763
 30
0.0
 10
238.686594
 20
1482.526763
 30
0.0
  0
SPLINE
  5
19b
100
AcDbEntity
  8
H0106_Printing
 62
7
100
AcDbSpline
 70
8
 71
3
 72
8
 73
4
 74
0
 40
0
 40
0
 40
0
 40
0
 40
1
 40
1
 40
1
 40
1
 10
325.229592
 20
1512.835762
 30
0.0
 10
326.804592
 20
1513.627762
 30
0.0
 10
330.881592
 20
1510.380762
 30
0.0
 10
331.399592
 20
1509.066762
 30
0.0
  0
SPLINE
  5
19c
100
AcDbEntity
  8
H0106_Printing
 62
7
100
AcDbSpline
 70
8
 71
3
 72
8
 73
4
 74
0
 40
0
 40
0
 40
0
 40
0
 40
1
 40
1
 40
1
 40
1
 10
331.399592
 20
1509.066762
 30
0.0
 10
331.910592
 20
1507.748762
 30
0.0
 10
331.922592
 20
1506.461762
 30
0.0
 10
331.001592
 20
1506.014762
 30
0.0
  0
SPLINE
  5
19d
100
AcDbEntity
  8
H0106_Printing
 62
7
100
AcDbSpline
 70
8
 71
3
 72
8
 73
4
 74
0
 40
0
 40
0
 40
0
 40
0
 40
1
 40
1
 40
1
 40
1
 10
331.001592
 20
1506.014762
 30
0.0
 10
315.343592
 20
1495.444763
 30
0.0
 10
292.052593
 20
1469.805763
 30
0.0
 10
270.535593
 20
1450.637764
 30
0.0
  0
SPLINE
  5
19e
100
AcDbEntity
  8
H0106_Printing
 62
7
100
AcDbSpline
 70
8
 71
3
 72
8
 73
4
 74
0
 40
0
 40
0
 40
0
 40
0
 40
1
 40
1
 40
1
 40
1
 10
270.535593
 20
1450.637764
 30
0.0
 10
259.806594
 20
1440.888764
 30
0.0
 10
249.512594
 20
1432.377764
 30
0.0
 10
241.187594
 20
1427.258764
 30
0.0
  0
SPLINE
  5
19f
100
AcDbEntity
  8
H0106_Printing
 62
7
100
AcDbSpline
 70
8
 71
3
 72
8
 73
4
 74
0
 40
0
 40
0
 40
0
 40
0
 40
1
 40
1
 40
1
 40
1
 10
241.187594
 20
1427.258764
 30
0.0
 10
232.952594
 20
1421.787764
 30
0.0
 10
226.351594
 20
1421.348764
 30
0.0
 10
226.264594
 20
1421.780764
 30
0.0
  0
SPLINE
  5
1a0
100
AcDbEntity
  8
H0106_Printing
 62
7
100
AcDbSpline
 70
8
 71
3
 72
8
 73
4
 74
0
 40
0
 40
0
 40
0
 40
0
 40
1
 40
1
 40
1
 40
1
 10
226.264594
 20
1421.780764
 30
0.0
 10
226.037594
 20
1422.086764
 30
0.0
 10
231.877594
 20
1422.780764
 30
0.0
 10
239.593594
 20
1428.508764
 30
0.0
  0
SPLINE
  5
1a1
100
AcDbEntity
  8
H0106_Printing
 62
7
100
AcDbSpline
 70
8
 71
3
 72
8
 73
4
 74
0
 40
0
 40
0
 40
0
 40
0
 40
1
 40
1
 40
1
 40
1
 10
239.593594
 20
1428.508764
 30
0.0
 10
247.382594
 20
1433.903764
 30
0.0
 10
254.005594
 20
1445.104764
 30
0.0
 10
264.424593
 20
1455.197764
 30
0.0
  0
SPLINE
  5
1a2
100
AcDbEntity
  8
H0106_Printing
 62
7
100
AcDbSpline
 70
8
 71
3
 72
8
 73
4
 74
0
 40
0
 40
0
 40
0
 40
0
 40
1
 40
1
 40
1
 40
1
 10
264.424593
 20
1455.197764
 30
0.0
 10
285.609593
 20
1475.225763
 30
0.0
 10
307.732592
 20
1500.959762
 30
0.0
 10
325.229592
 20
1512.835762
 30
0.0
  0
LWPOLYLINE
  5
1a3
100
AcDbEntity
  8
H0106_Printing
 62
7
100
AcDbPolyline
 90
1
 70
1
 10
218.546595
 20
1421.087764
 30
0.0
  0
SPLINE
  5
1a4
100
AcDbEntity
  8
H0106_Printing
 62
7
100
AcDbSpline
 70
8
 71
3
 72
8
 73
4
 74
0
 40
0
 40
0
 40
0
 40
0
 40
1
 40
1
 40
1
 40
1
 10
318.586592
 20
1514.934762
 30
0.0
 10
304.239592
 20
1509.766762
 30
0.0
 10
280.944593
 20
1493.627763
 30
0.0
 10
263.856593
 20
1477.797763
 30
0.0
  0
SPLINE
  5
1a5
100
AcDbEntity
  8
H0106_Printing
 62
7
100
AcDbSpline
 70
8
 71
3
 72
8
 73
4
 74
0
 40
0
 40
0
 40
0
 40
0
 40
1
 40
1
 40
1
 40
1
 10
263.856593
 20
1477.797763
 30
0.0
 10
245.973594
 20
1462.214763
 30
0.0
 10
234.989594
 20
1446.304764
 30
0.0
 10
234.654594
 20
1446.171764
 30
0.0
  0
SPLINE
  5
1a6
100
AcDbEntity
  8
H0106_Printing
 62
7
100
AcDbSpline
 70
8
 71
3
 72
8
 73
4
 74
0
 40
0
 40
0
 40
0
 40
0
 40
1
 40
1
 40
1
 40
1
 10
234.654594
 20
1446.171764
 30
0.0
 10
233.351594
 20
1446.099764
 30
0.0
 10
241.162594
 20
1465.219763
 30
0.0
 10
258.784594
 20
1482.025763
 30
0.0
  0
SPLINE
  5
1a7
100
AcDbEntity
  8
H0106_Printing
 62
7
100
AcDbSpline
 70
8
 71
3
 72
8
 73
4
 74
0
 40
0
 40
0
 40
0
 40
0
 40
1
 40
1
 40
1
 40
1
 10
258.784594
 20
1482.025763
 30
0.0
 10
275.825593
 20
1499.156763
 30
0.0
 10
298.488593
 20
1516.057762
 30
0.0
 10
314.945592
 20
1522.062762
 30
0.0
  0
SPLINE
  5
1a8
100
AcDbEntity
  8
H0106_Printing
 62
7
100
AcDbSpline
 70
8
 71
3
 72
8
 73
4
 74
0
 40
0
 40
0
 40
0
 40
0
 40
1
 40
1
 40
1
 40
1
 10
314.945592
 20
1522.062762
 30
0.0
 10
316.227592
 20
1522.474762
 30
0.0
 10
318.864592
 20
1519.583762
 30
0.0
 10
319.216592
 20
1518.077762
 30
0.0
  0
SPLINE
  5
1a9
100
AcDbEntity
  8
H0106_Printing
 62
7
100
AcDbSpline
 70
8
 71
3
 72
8
 73
4
 74
0
 40
0
 40
0
 40
0
 40
0
 40
1
 40
1
 40
1
 40
1
 10
319.216592
 20
1518.077762
 30
0.0
 10
319.566592
 20
1516.574762
 30
0.0
 10
319.461592
 20
1515.222762
 30
0.0
 10
318.586592
 20
1514.934762
 30
0.0
  0
LWPOLYLINE
  5
1aa
100
AcDbEntity
  8
H0106_Printing
 62
7
100
AcDbPolyline
 90
1
 70
1
 10
325.229592
 20
1512.835762
 30
0.0
  0
SPLINE
  5
1ab
100
AcDbEntity
  8
H0106_Printing
 62
7
100
AcDbSpline
 70
8
 71
3
 72
8
 73
4
 74
0
 40
0
 40
0
 40
0
 40
0
 40
1
 40
1
 40
1
 40
1
 10
320.875592
 20
1107.078772
 30
0.0
 10
319.763592
 20
1110.147772
 30
0.0
 10
316.305592
 20
1113.853772
 30
0.0
 10
311.899592
 20
1118.110772
 30
0.0
  0
SPLINE
  5
1ac
100
AcDbEntity
  8
H0106_Printing
 62
7
100
AcDbSpline
 70
8
 71
3
 72
8
 73
4
 74
0
 40
0
 40
0
 40
0
 40
0
 40
1
 40
1
 40
1
 40
1
 10
311.899592
 20
1118.110772
 30
0.0
 10
302.990592
 20
1126.609772
 30
0.0
 10
289.625593
 20
1137.646772
 30
0.0
 10
277.245593
 20
1152.102771
 30
0.0
  0
SPLINE
  5
1ad
100
AcDbEntity
  8
H0106_Printing
 62
7
100
AcDbSpline
 70
8
 71
3
 72
8
 73
4
 74
0
 40
0
 40
0
 40
0
 40
0
 40
1
 40
1
 40
1
 40
1
 10
277.245593
 20
1152.102771
 30
0.0
 10
264.848593
 20
1166.440771
 30
0.0
 10
251.846594
 20
1184.490770
 30
0.0
 10
247.089594
 20
1203.344770
 30
0.0
  0
SPLINE
  5
1ae
100
AcDbEntity
  8
H0106_Printing
 62
7
100
AcDbSpline
 70
8
 71
3
 72
8
 73
4
 74
0
 40
0
 40
0
 40
0
 40
0
 40
1
 40
1
 40
1
 40
1
 10
247.089594
 20
1203.344770
 30
0.0
 10
242.063594
 20
1222.142769
 30
0.0
 10
239.818594
 20
1242.624769
 30
0.0
 10
242.114594
 20
1255.446769
 30
0.0
  0
SPLINE
  5
1af
100
AcDbEntity
  8
H0106_Printing
 62
7
100
AcDbSpline
 70
8
 71
3
 72
8
 73
4
 74
0
 40
0
 40
0
 40
0
 40
0
 40
1
 40
1
 40
1
 40
1
 10
242.114594
 20
1255.446769
 30
0.0
 10
242.799594
 20
1262.822768
 30
0.0
 10
248.787594
 20
1255.683769
 30
0.0
 10
249.989594
 20
1255.446769
 30
0.0
  0
SPLINE
  5
1b0
100
AcDbEntity
  8
H0106_Printing
 62
7
100
AcDbSpline
 70
8
 71
3
 72
8
 73
4
 74
0
 40
0
 40
0
 40
0
 40
0
 40
1
 40
1
 40
1
 40
1
 10
249.989594
 20
1255.446769
 30
0.0
 10
251.187594
 20
1255.218769
 30
0.0
 10
252.043594
 20
1254.313769
 30
0.0
 10
251.793594
 20
1252.710769
 30
0.0
  0
SPLINE
  5
1b1
100
AcDbEntity
  8
H0106_Printing
 62
7
100
AcDbSpline
 70
8
 71
3
 72
8
 73
4
 74
0
 40
0
 40
0
 40
0
 40
0
 40
1
 40
1
 40
1
 40
1
 10
251.793594
 20
1252.710769
 30
0.0
 10
249.574594
 20
1240.272769
 30
0.0
 10
248.494594
 20
1222.880769
 30
0.0
 10
253.012594
 20
1204.855770
 30
0.0
  0
SPLINE
  5
1b2
100
AcDbEntity
  8
H0106_Printing
 62
7
100
AcDbSpline
 70
8
 71
3
 72
8
 73
4
 74
0
 40
0
 40
0
 40
0
 40
0
 40
1
 40
1
 40
1
 40
1
 10
253.012594
 20
1204.855770
 30
0.0
 10
257.279594
 20
1186.785770
 30
0.0
 10
267.378593
 20
1168.978771
 30
0.0
 10
279.133593
 20
1154.645771
 30
0.0
  0
SPLINE
  5
1b3
100
AcDbEntity
  8
H0106_Printing
 62
7
100
AcDbSpline
 70
8
 71
3
 72
8
 73
4
 74
0
 40
0
 40
0
 40
0
 40
0
 40
1
 40
1
 40
1
 40
1
 10
279.133593
 20
1154.645771
 30
0.0
 10
290.836593
 20
1140.195771
 30
0.0
 10
303.731592
 20
1128.859772
 30
0.0
 10
312.480592
 20
1119.885772
 30
0.0
  0
SPLINE
  5
1b4
100
AcDbEntity
  8
H0106_Printing
 62
7
100
AcDbSpline
 70
8
 71
3
 72
8
 73
4
 74
0
 40
0
 40
0
 40
0
 40
0
 40
1
 40
1
 40
1
 40
1
 10
312.480592
 20
1119.885772
 30
0.0
 10
316.831592
 20
1115.390772
 30
0.0
 10
320.211592
 20
1111.370772
 30
0.0
 10
321.502592
 20
1107.892772
 30
0.0
  0
SPLINE
  5
1b5
100
AcDbEntity
  8
H0106_Printing
 62
7
100
AcDbSpline
 70
8
 71
3
 72
8
 73
4
 74
0
 40
0
 40
0
 40
0
 40
0
 40
1
 40
1
 40
1
 40
1
 10
321.502592
 20
1107.892772
 30
0.0
 10
322.878592
 20
1104.206772
 30
0.0
 10
320.769592
 20
1102.274772
 30
0.0
 10
320.855592
 20
1102.330772
 30
0.0
  0
SPLINE
  5
1b6
100
AcDbEntity
  8
H0106_Printing
 62
7
100
AcDbSpline
 70
8
 71
3
 72
8
 73
4
 74
0
 40
0
 40
0
 40
0
 40
0
 40
1
 40
1
 40
1
 40
1
 10
320.855592
 20
1102.330772
 30
0.0
 10
320.454592
 20
1102.310772
 30
0.0
 10
321.993592
 20
1103.963772
 30
0.0
 10
320.875592
 20
1107.078772
 30
0.0
  0
LWPOLYLINE
  5
1b7
100
AcDbEntity
  8
H0106_Printing
 62
7
100
AcDbPolyline
 90
1
 70
1
 10
318.586592
 20
1514.934762
 30
0.0
  0
SPLINE
  5
1b8
100
AcDbEntity
  8
H0106_Printing
 62
7
100
AcDbSpline
 70
8
 71
3
 72
8
 73
4
 74
0
 40
0
 40
0
 40
0
 40
0
 40
1
 40
1
 40
1
 40
1
 10
336.569592
 20
1110.756772
 30
0.0
 10
336.301592
 20
1113.337772
 30
0.0
 10
334.435592
 20
1116.853772
 30
0.0
 10
331.545592
 20
1120.739772
 30
0.0
  0
SPLINE
  5
1b9
100
AcDbEntity
  8
H0106_Printing
 62
7
100
AcDbSpline
 70
8
 71
3
 72
8
 73
4
 74
0
 40
0
 40
0
 40
0
 40
0
 40
1
 40
1
 40
1
 40
1
 10
331.545592
 20
1120.739772
 30
0.0
 10
325.723592
 20
1128.546772
 30
0.0
 10
316.130592
 20
1138.255772
 30
0.0
 10
306.469592
 20
1149.697771
 30
0.0
  0
SPLINE
  5
1ba
100
AcDbEntity
  8
H0106_Printing
 62
7
100
AcDbSpline
 70
8
 71
3
 72
8
 73
4
 74
0
 40
0
 40
0
 40
0
 40
0
 40
1
 40
1
 40
1
 40
1
 10
306.469592
 20
1149.697771
 30
0.0
 10
296.781593
 20
1161.082771
 30
0.0
 10
287.021593
 20
1174.452771
 30
0.0
 10
281.006593
 20
1188.573770
 30
0.0
  0
SPLINE
  5
1bb
100
AcDbEntity
  8
H0106_Printing
 62
7
100
AcDbSpline
 70
8
 71
3
 72
8
 73
4
 74
0
 40
0
 40
0
 40
0
 40
0
 40
1
 40
1
 40
1
 40
1
 10
281.006593
 20
1188.573770
 30
0.0
 10
274.808593
 20
1202.611770
 30
0.0
 10
273.301593
 20
1217.276770
 30
0.0
 10
274.910593
 20
1227.640769
 30
0.0
  0
SPLINE
  5
1bc
100
AcDbEntity
  8
H0106_Printing
 62
7
100
AcDbSpline
 70
8
 71
3
 72
8
 73
4
 74
0
 40
0
 40
0
 40
0
 40
0
 40
1
 40
1
 40
1
 40
1
 10
274.910593
 20
1227.640769
 30
0.0
 10
275.093593
 20
1229.186769
 30
0.0
 10
275.911593
 20
1229.450769
 30
0.0
 10
276.865593
 20
1229.292769
 30
0.0
  0
SPLINE
  5
1bd
100
AcDbEntity
  8
H0106_Printing
 62
7
100
AcDbSpline
 70
8
 71
3
 72
8
 73
4
 74
0
 40
0
 40
0
 40
0
 40
0
 40
1
 40
1
 40
1
 40
1
 10
276.865593
 20
1229.292769
 30
0.0
 10
277.818593
 20
1229.137769
 30
0.0
 10
282.280593
 20
1229.238769
 30
0.0
 10
282.136593
 20
1227.977769
 30
0.0
  0
SPLINE
  5
1be
100
AcDbEntity
  8
H0106_Printing
 62
7
100
AcDbSpline
 70
8
 71
3
 72
8
 73
4
 74
0
 40
0
 40
0
 40
0
 40
0
 40
1
 40
1
 40
1
 40
1
 10
282.136593
 20
1227.977769
 30
0.0
 10
280.626593
 20
1218.157770
 30
0.0
 10
280.115593
 20
1204.249770
 30
0.0
 10
285.849593
 20
1190.672770
 30
0.0
  0
SPLINE
  5
1bf
100
AcDbEntity
  8
H0106_Printing
 62
7
100
AcDbSpline
 70
8
 71
3
 72
8
 73
4
 74
0
 40
0
 40
0
 40
0
 40
0
 40
1
 40
1
 40
1
 40
1
 10
285.849593
 20
1190.672770
 30
0.0
 10
291.416593
 20
1177.038771
 30
0.0
 10
298.689593
 20
1163.163771
 30
0.0
 10
307.966592
 20
1151.706771
 30
0.0
  0
SPLINE
  5
1c0
100
AcDbEntity
  8
H0106_Printing
 62
7
100
AcDbSpline
 70
8
 71
3
 72
8
 73
4
 74
0
 40
0
 40
0
 40
0
 40
0
 40
1
 40
1
 40
1
 40
1
 10
307.966592
 20
1151.706771
 30
0.0
 10
317.232592
 20
1140.196771
 30
0.0
 10
326.513592
 20
1130.241772
 30
0.0
 10
332.227592
 20
1122.044772
 30
0.0
  0
SPLINE
  5
1c1
100
AcDbEntity
  8
H0106_Printing
 62
7
100
AcDbSpline
 70
8
 71
3
 72
8
 73
4
 74
0
 40
0
 40
0
 40
0
 40
0
 40
1
 40
1
 40
1
 40
1
 10
332.227592
 20
1122.044772
 30
0.0
 10
335.088592
 20
1117.984772
 30
0.0
 10
336.964592
 20
1114.185772
 30
0.0
 10
337.190592
 20
1111.256772
 30
0.0
  0
SPLINE
  5
1c2
100
AcDbEntity
  8
H0106_Printing
 62
7
100
AcDbSpline
 70
8
 71
3
 72
8
 73
4
 74
0
 40
0
 40
0
 40
0
 40
0
 40
1
 40
1
 40
1
 40
1
 10
337.190592
 20
1111.256772
 30
0.0
 10
337.428592
 20
1108.280772
 30
0.0
 10
335.988592
 20
1106.946772
 30
0.0
 10
336.020592
 20
1106.927772
 30
0.0
  0
SPLINE
  5
1c3
100
AcDbEntity
  8
H0106_Printing
 62
7
100
AcDbSpline
 70
8
 71
3
 72
8
 73
4
 74
0
 40
0
 40
0
 40
0
 40
0
 40
1
 40
1
 40
1
 40
1
 10
336.020592
 20
1106.927772
 30
0.0
 10
335.712592
 20
1106.941772
 30
0.0
 10
336.812592
 20
1108.165772
 30
0.0
 10
336.569592
 20
1110.756772
 30
0.0
  0
LWPOLYLINE
  5
1c4
100
AcDbEntity
  8
H0106_Printing
 62
7
100
AcDbPolyline
 90
1
 70
1
 10
320.875592
 20
1107.078772
 30
0.0
  0
SPLINE
  5
1c5
100
AcDbEntity
  8
H0106_Printing
 62
7
100
AcDbSpline
 70
8
 71
3
 72
8
 73
4
 74
0
 40
0
 40
0
 40
0
 40
0
 40
1
 40
1
 40
1
 40
1
 10
380.049590
 20
1439.536764
 30
0.0
 10
382.695590
 20
1423.298764
 30
0.0
 10
380.806590
 20
1399.511765
 30
0.0
 10
384.956590
 20
1384.772765
 30
0.0
  0
SPLINE
  5
1c6
100
AcDbEntity
  8
H0106_Printing
 62
7
100
AcDbSpline
 70
8
 71
3
 72
8
 73
4
 74
0
 40
0
 40
0
 40
0
 40
0
 40
1
 40
1
 40
1
 40
1
 10
384.956590
 20
1384.772765
 30
0.0
 10
381.295590
 20
1387.683765
 30
0.0
 10
374.003591
 20
1391.832765
 30
0.0
 10
371.360591
 20
1393.154765
 30
0.0
  0
SPLINE
  5
1c7
100
AcDbEntity
  8
H0106_Printing
 62
7
100
AcDbSpline
 70
8
 71
3
 72
8
 73
4
 74
0
 40
0
 40
0
 40
0
 40
0
 40
1
 40
1
 40
1
 40
1
 10
371.360591
 20
1393.154765
 30
0.0
 10
367.960591
 20
1394.858765
 30
0.0
 10
353.532591
 20
1395.668765
 30
0.0
 10
345.002591
 20
1395.138765
 30
0.0
  0
SPLINE
  5
1c8
100
AcDbEntity
  8
H0106_Printing
 62
7
100
AcDbSpline
 70
8
 71
3
 72
8
 73
4
 74
0
 40
0
 40
0
 40
0
 40
0
 40
1
 40
1
 40
1
 40
1
 10
345.002591
 20
1395.138765
 30
0.0
 10
331.288592
 20
1394.286765
 30
0.0
 10
331.399592
 20
1372.842766
 30
0.0
 10
331.399592
 20
1363.396766
 30
0.0
  0
SPLINE
  5
1c9
100
AcDbEntity
  8
H0106_Printing
 62
7
100
AcDbSpline
 70
8
 71
3
 72
8
 73
4
 74
0
 40
0
 40
0
 40
0
 40
0
 40
1
 40
1
 40
1
 40
1
 10
331.399592
 20
1363.396766
 30
0.0
 10
334.138592
 20
1360.375766
 30
0.0
 10
339.617592
 20
1355.748766
 30
0.0
 10
349.254591
 20
1347.809766
 30
0.0
  0
SPLINE
  5
1ca
100
AcDbEntity
  8
H0106_Printing
 62
7
100
AcDbSpline
 70
8
 71
3
 72
8
 73
4
 74
0
 40
0
 40
0
 40
0
 40
0
 40
1
 40
1
 40
1
 40
1
 10
349.254591
 20
1347.809766
 30
0.0
 10
358.889591
 20
1339.874767
 30
0.0
 10
367.960591
 20
1350.361766
 30
0.0
 10
372.208591
 20
1353.193766
 30
0.0
  0
SPLINE
  5
1cb
100
AcDbEntity
  8
H0106_Printing
 62
7
100
AcDbSpline
 70
8
 71
3
 72
8
 73
4
 74
0
 40
0
 40
0
 40
0
 40
0
 40
1
 40
1
 40
1
 40
1
 10
372.208591
 20
1353.193766
 30
0.0
 10
376.460591
 20
1356.029766
 30
0.0
 10
382.677590
 20
1360.636766
 30
0.0
 10
379.860591
 20
1366.516766
 30
0.0
  0
SPLINE
  5
1cc
100
AcDbEntity
  8
H0106_Printing
 62
7
100
AcDbSpline
 70
8
 71
3
 72
8
 73
4
 74
0
 40
0
 40
0
 40
0
 40
0
 40
1
 40
1
 40
1
 40
1
 10
379.860591
 20
1366.516766
 30
0.0
 10
377.047591
 20
1372.392766
 30
0.0
 10
370.509591
 20
1374.167766
 30
0.0
 10
367.960591
 20
1376.151766
 30
0.0
  0
SPLINE
  5
1cd
100
AcDbEntity
  8
H0106_Printing
 62
7
100
AcDbSpline
 70
8
 71
3
 72
8
 73
4
 74
0
 40
0
 40
0
 40
0
 40
0
 40
1
 40
1
 40
1
 40
1
 10
367.960591
 20
1376.151766
 30
0.0
 10
365.405591
 20
1378.135766
 30
0.0
 10
367.677591
 20
1378.699766
 30
0.0
 10
372.492591
 20
1379.411766
 30
0.0
  0
SPLINE
  5
1ce
100
AcDbEntity
  8
H0106_Printing
 62
7
100
AcDbSpline
 70
8
 71
3
 72
8
 73
4
 74
0
 40
0
 40
0
 40
0
 40
0
 40
1
 40
1
 40
1
 40
1
 10
372.492591
 20
1379.411766
 30
0.0
 10
376.063591
 20
1379.941766
 30
0.0
 10
382.942590
 20
1380.149765
 30
0.0
 10
385.807590
 20
1381.201765
 30
0.0
  0
SPLINE
  5
1cf
100
AcDbEntity
  8
H0106_Printing
 62
7
100
AcDbSpline
 70
8
 71
3
 72
8
 73
4
 74
0
 40
0
 40
0
 40
0
 40
0
 40
1
 40
1
 40
1
 40
1
 10
385.807590
 20
1381.201765
 30
0.0
 10
387.932590
 20
1369.976766
 30
0.0
 10
382.052590
 20
1368.867766
 30
0.0
 10
381.560590
 20
1349.229766
 30
0.0
  0
SPLINE
  5
1d0
100
AcDbEntity
  8
H0106_Printing
 62
7
100
AcDbSpline
 70
8
 71
3
 72
8
 73
4
 74
0
 40
0
 40
0
 40
0
 40
0
 40
1
 40
1
 40
1
 40
1
 10
381.560590
 20
1349.229766
 30
0.0
 10
381.280590
 20
1337.894767
 30
0.0
 10
373.329591
 20
1319.471767
 30
0.0
 10
366.533591
 20
1309.832767
 30
0.0
  0
SPLINE
  5
1d1
100
AcDbEntity
  8
H0106_Printing
 62
7
100
AcDbSpline
 70
8
 71
3
 72
8
 73
4
 74
0
 40
0
 40
0
 40
0
 40
0
 40
1
 40
1
 40
1
 40
1
 10
366.533591
 20
1309.832767
 30
0.0
 10
359.741591
 20
1300.200767
 30
0.0
 10
348.027591
 20
1291.981768
 30
0.0
 10
346.797591
 20
1280.078768
 30
0.0
  0
SPLINE
  5
1d2
100
AcDbEntity
  8
H0106_Printing
 62
7
100
AcDbSpline
 70
8
 71
3
 72
8
 73
4
 74
0
 40
0
 40
0
 40
0
 40
0
 40
1
 40
1
 40
1
 40
1
 10
346.797591
 20
1280.078768
 30
0.0
 10
344.152591
 20
1287.260768
 30
0.0
 10
323.369592
 20
1303.505767
 30
0.0
 10
326.771592
 20
1305.769767
 30
0.0
  0
SPLINE
  5
1d3
100
AcDbEntity
  8
H0106_Printing
 62
7
100
AcDbSpline
 70
8
 71
3
 72
8
 73
4
 74
0
 40
0
 40
0
 40
0
 40
0
 40
1
 40
1
 40
1
 40
1
 10
326.771592
 20
1305.769767
 30
0.0
 10
330.173592
 20
1308.037767
 30
0.0
 10
330.173592
 20
1316.351767
 30
0.0
 10
330.173592
 20
1316.351767
 30
0.0
  0
SPLINE
  5
1d4
100
AcDbEntity
  8
H0106_Printing
 62
7
100
AcDbSpline
 70
8
 71
3
 72
8
 73
4
 74
0
 40
0
 40
0
 40
0
 40
0
 40
1
 40
1
 40
1
 40
1
 10
330.173592
 20
1316.351767
 30
0.0
 10
330.173592
 20
1316.351767
 30
0.0
 10
327.526592
 20
1312.952767
 30
0.0
 10
322.990592
 20
1312.573767
 30
0.0
  0
SPLINE
  5
1d5
100
AcDbEntity
  8
H0106_Printing
 62
7
100
AcDbSpline
 70
8
 71
3
 72
8
 73
4
 74
0
 40
0
 40
0
 40
0
 40
0
 40
1
 40
1
 40
1
 40
1
 10
322.990592
 20
1312.573767
 30
0.0
 10
318.457592
 20
1312.198767
 30
0.0
 10
316.568592
 20
1312.198767
 30
0.0
 10
310.900592
 20
1317.866767
 30
0.0
  0
SPLINE
  5
1d6
100
AcDbEntity
  8
H0106_Printing
 62
7
100
AcDbSpline
 70
8
 71
3
 72
8
 73
4
 74
0
 40
0
 40
0
 40
0
 40
0
 40
1
 40
1
 40
1
 40
1
 10
310.900592
 20
1317.866767
 30
0.0
 10
305.232592
 20
1323.533767
 30
0.0
 10
289.361593
 20
1321.644767
 30
0.0
 10
289.361593
 20
1321.644767
 30
0.0
  0
SPLINE
  5
1d7
100
AcDbEntity
  8
H0106_Printing
 62
7
100
AcDbSpline
 70
8
 71
3
 72
8
 73
4
 74
0
 40
0
 40
0
 40
0
 40
0
 40
1
 40
1
 40
1
 40
1
 10
289.361593
 20
1321.644767
 30
0.0
 10
289.361593
 20
1321.644767
 30
0.0
 10
288.606593
 20
1315.973767
 30
0.0
 10
297.673593
 20
1312.952767
 30
0.0
  0
SPLINE
  5
1d8
100
AcDbEntity
  8
H0106_Printing
 62
7
100
AcDbSpline
 70
8
 71
3
 72
8
 73
4
 74
0
 40
0
 40
0
 40
0
 40
0
 40
1
 40
1
 40
1
 40
1
 10
297.673593
 20
1312.952767
 30
0.0
 10
297.486593
 20
1301.457767
 30
0.0
 10
261.777593
 20
1307.663767
 30
0.0
 10
244.584594
 20
1291.413768
 30
0.0
  0
SPLINE
  5
1d9
100
AcDbEntity
  8
H0106_Printing
 62
7
100
AcDbSpline
 70
8
 71
3
 72
8
 73
4
 74
0
 40
0
 40
0
 40
0
 40
0
 40
1
 40
1
 40
1
 40
1
 10
244.584594
 20
1291.413768
 30
0.0
 10
254.409594
 20
1307.284767
 30
0.0
 10
230.414594
 20
1333.733767
 30
0.0
 10
229.656594
 20
1342.426766
 30
0.0
  0
SPLINE
  5
1da
100
AcDbEntity
  8
H0106_Printing
 62
7
100
AcDbSpline
 70
8
 71
3
 72
8
 73
4
 74
0
 40
0
 40
0
 40
0
 40
0
 40
1
 40
1
 40
1
 40
1
 10
229.656594
 20
1342.426766
 30
0.0
 10
228.901594
 20
1351.118766
 30
0.0
 10
227.014594
 20
1382.860765
 30
0.0
 10
227.390594
 20
1398.348765
 30
0.0
  0
SPLINE
  5
1db
100
AcDbEntity
  8
H0106_Printing
 62
7
100
AcDbSpline
 70
8
 71
3
 72
8
 73
4
 74
0
 40
0
 40
0
 40
0
 40
0
 40
1
 40
1
 40
1
 40
1
 10
227.390594
 20
1398.348765
 30
0.0
 10
230.760594
 20
1399.387765
 30
0.0
 10
234.306594
 20
1400.969765
 30
0.0
 10
237.981594
 20
1402.977765
 30
0.0
  0
LWPOLYLINE
  5
1dc
100
AcDbEntity
  8
H0106_Printing
 62
7
100
AcDbPolyline
 90
1
 70
1
 10
336.569592
 20
1110.756772
 30
0.0
  0
SPLINE
  5
1dd
100
AcDbEntity
  8
H0106_Printing
 62
7
100
AcDbSpline
 70
8
 71
3
 72
8
 73
4
 74
0
 40
0
 40
0
 40
0
 40
0
 40
1
 40
1
 40
1
 40
1
 10
242.125594
 20
1398.833765
 30
0.0
 10
237.272594
 20
1395.630765
 30
0.0
 10
233.622594
 20
1392.309765
 30
0.0
 10
235.042594
 20
1390.606765
 30
0.0
  0
SPLINE
  5
1de
100
AcDbEntity
  8
H0106_Printing
 62
7
100
AcDbSpline
 70
8
 71
3
 72
8
 73
4
 74
0
 40
0
 40
0
 40
0
 40
0
 40
1
 40
1
 40
1
 40
1
 10
235.042594
 20
1390.606765
 30
0.0
 10
237.876594
 20
1387.202765
 30
0.0
 10
248.645594
 20
1381.073765
 30
0.0
 10
253.275594
 20
1373.599766
 30
0.0
  0
SPLINE
  5
1df
100
AcDbEntity
  8
H0106_Printing
 62
7
100
AcDbSpline
 70
8
 71
3
 72
8
 73
4
 74
0
 40
0
 40
0
 40
0
 40
0
 40
1
 40
1
 40
1
 40
1
 10
253.275594
 20
1373.599766
 30
0.0
 10
258.659594
 20
1364.907766
 30
0.0
 10
269.902593
 20
1357.729766
 30
0.0
 10
279.537593
 20
1358.012766
 30
0.0
  0
SPLINE
  5
1e0
100
AcDbEntity
  8
H0106_Printing
 62
7
100
AcDbSpline
 70
8
 71
3
 72
8
 73
4
 74
0
 40
0
 40
0
 40
0
 40
0
 40
1
 40
1
 40
1
 40
1
 10
279.537593
 20
1358.012766
 30
0.0
 10
289.172593
 20
1358.296766
 30
0.0
 10
303.057592
 20
1367.364766
 30
0.0
 10
303.057592
 20
1369.915766
 30
0.0
  0
SPLINE
  5
1e1
100
AcDbEntity
  8
H0106_Printing
 62
7
100
AcDbSpline
 70
8
 71
3
 72
8
 73
4
 74
0
 40
0
 40
0
 40
0
 40
0
 40
1
 40
1
 40
1
 40
1
 10
303.057592
 20
1369.915766
 30
0.0
 10
303.057592
 20
1372.467766
 30
0.0
 10
297.108593
 20
1373.031766
 30
0.0
 10
298.807593
 20
1375.019766
 30
0.0
  0
SPLINE
  5
1e2
100
AcDbEntity
  8
H0106_Printing
 62
7
100
AcDbSpline
 70
8
 71
3
 72
8
 73
4
 74
0
 40
0
 40
0
 40
0
 40
0
 40
1
 40
1
 40
1
 40
1
 10
298.807593
 20
1375.019766
 30
0.0
 10
300.509592
 20
1377.003766
 30
0.0
 10
304.475592
 20
1382.103765
 30
0.0
 10
307.877592
 20
1375.867766
 30
0.0
  0
SPLINE
  5
1e3
100
AcDbEntity
  8
H0106_Printing
 62
7
100
AcDbSpline
 70
8
 71
3
 72
8
 73
4
 74
0
 40
0
 40
0
 40
0
 40
0
 40
1
 40
1
 40
1
 40
1
 10
307.877592
 20
1375.867766
 30
0.0
 10
311.278592
 20
1369.632766
 30
0.0
 10
308.445592
 20
1359.148766
 30
0.0
 10
307.593592
 20
1355.180766
 30
0.0
  0
SPLINE
  5
1e4
100
AcDbEntity
  8
H0106_Printing
 62
7
100
AcDbSpline
 70
8
 71
3
 72
8
 73
4
 74
0
 40
0
 40
0
 40
0
 40
0
 40
1
 40
1
 40
1
 40
1
 10
307.593592
 20
1355.180766
 30
0.0
 10
306.743592
 20
1351.209766
 30
0.0
 10
312.267592
 20
1348.339766
 30
0.0
 10
313.215592
 20
1355.006766
 30
0.0
  0
SPLINE
  5
1e5
100
AcDbEntity
  8
H0106_Printing
 62
7
100
AcDbSpline
 70
8
 71
3
 72
8
 73
4
 74
0
 40
0
 40
0
 40
0
 40
0
 40
1
 40
1
 40
1
 40
1
 10
313.215592
 20
1355.006766
 30
0.0
 10
314.461592
 20
1363.778766
 30
0.0
 10
314.663592
 20
1379.248766
 30
0.0
 10
319.778592
 20
1381.103765
 30
0.0
  0
SPLINE
  5
1e6
100
AcDbEntity
  8
H0106_Printing
 62
7
100
AcDbSpline
 70
8
 71
3
 72
8
 73
4
 74
0
 40
0
 40
0
 40
0
 40
0
 40
1
 40
1
 40
1
 40
1
 10
319.778592
 20
1381.103765
 30
0.0
 10
326.067592
 20
1383.382765
 30
0.0
 10
330.400592
 20
1392.870765
 30
0.0
 10
319.778592
 20
1398.822765
 30
0.0
  0
SPLINE
  5
1e7
100
AcDbEntity
  8
H0106_Printing
 62
7
100
AcDbSpline
 70
8
 71
3
 72
8
 73
4
 74
0
 40
0
 40
0
 40
0
 40
0
 40
1
 40
1
 40
1
 40
1
 10
319.778592
 20
1398.822765
 30
0.0
 10
316.070592
 20
1400.904765
 30
0.0
 10
301.641592
 20
1409.025765
 30
0.0
 10
294.840593
 20
1410.445765
 30
0.0
  0
SPLINE
  5
1e8
100
AcDbEntity
  8
H0106_Printing
 62
7
100
AcDbSpline
 70
8
 71
3
 72
8
 73
4
 74
0
 40
0
 40
0
 40
0
 40
0
 40
1
 40
1
 40
1
 40
1
 10
294.840593
 20
1410.445765
 30
0.0
 10
288.038593
 20
1411.860765
 30
0.0
 10
263.983593
 20
1409.127765
 30
0.0
 10
256.386594
 20
1406.345765
 30
0.0
  0
SPLINE
  5
1e9
100
AcDbEntity
  8
H0106_Printing
 62
7
100
AcDbSpline
 70
8
 71
3
 72
8
 73
4
 74
0
 40
0
 40
0
 40
0
 40
0
 40
1
 40
1
 40
1
 40
1
 10
256.386594
 20
1406.345765
 30
0.0
 10
255.146594
 20
1405.890765
 30
0.0
 10
253.555594
 20
1405.191765
 30
0.0
 10
251.803594
 20
1404.334765
 30
0.0
  0
LWPOLYLINE
  5
1ea
100
AcDbEntity
  8
H0106_Printing
 62
7
100
AcDbPolyline
 90
2
 70
0
 10
237.981594
 20
1402.977765
 30
0.0
 10
242.125594
 20
1398.833765
 30
0.0
  0
SPLINE
  5
1eb
100
AcDbEntity
  8
H0106_Printing
 62
7
100
AcDbSpline
 70
8
 71
3
 72
8
 73
4
 74
0
 40
0
 40
0
 40
0
 40
0
 40
1
 40
1
 40
1
 40
1
 10
248.037594
 20
1409.258765
 30
0.0
 10
283.143593
 20
1433.631764
 30
0.0
 10
325.751592
 20
1485.638763
 30
0.0
 10
342.640591
 20
1485.638763
 30
0.0
  0
SPLINE
  5
1ec
100
AcDbEntity
  8
H0106_Printing
 62
7
100
AcDbSpline
 70
8
 71
3
 72
8
 73
4
 74
0
 40
0
 40
0
 40
0
 40
0
 40
1
 40
1
 40
1
 40
1
 10
342.640591
 20
1485.638763
 30
0.0
 10
359.643591
 20
1469.392763
 30
0.0
 10
377.407591
 20
1455.785764
 30
0.0
 10
380.049590
 20
1439.536764
 30
0.0
  0
LWPOLYLINE
  5
1ed
100
AcDbEntity
  8
H0106_Printing
 62
7
100
AcDbPolyline
 90
2
 70
0
 10
251.803594
 20
1404.334765
 30
0.0
 10
248.037594
 20
1409.258765
 30
0.0
  0
SPLINE
  5
1ee
100
AcDbEntity
  8
H0106_Printing
 62
7
100
AcDbSpline
 70
8
 71
3
 72
8
 73
4
 74
0
 40
0
 40
0
 40
0
 40
0
 40
1
 40
1
 40
1
 40
1
 10
419.511590
 20
1386.441765
 30
0.0
 10
418.167590
 20
1392.090765
 30
0.0
 10
417.078590
 20
1397.534765
 30
0.0
 10
416.183590
 20
1402.707765
 30
0.0
  0
SPLINE
  5
1ef
100
AcDbEntity
  8
H0106_Printing
 62
7
100
AcDbSpline
 70
8
 71
3
 72
8
 73
4
 74
0
 40
0
 40
0
 40
0
 40
0
 40
1
 40
1
 40
1
 40
1
 10
416.183590
 20
1402.707765
 30
0.0
 10
406.692590
 20
1417.413765
 30
0.0
 10
399.237590
 20
1434.412764
 30
0.0
 10
391.252590
 20
1449.387764
 30
0.0
  0
SPLINE
  5
1f0
100
AcDbEntity
  8
H0106_Printing
 62
7
100
AcDbSpline
 70
8
 71
3
 72
8
 73
4
 74
0
 40
0
 40
0
 40
0
 40
0
 40
1
 40
1
 40
1
 40
1
 10
391.252590
 20
1449.387764
 30
0.0
 10
383.290590
 20
1464.739763
 30
0.0
 10
374.525591
 20
1477.937763
 30
0.0
 10
366.548591
 20
1486.021763
 30
0.0
  0
SPLINE
  5
1f1
100
AcDbEntity
  8
H0106_Printing
 62
7
100
AcDbSpline
 70
8
 71
3
 72
8
 73
4
 74
0
 40
0
 40
0
 40
0
 40
0
 40
1
 40
1
 40
1
 40
1
 10
366.548591
 20
1486.021763
 30
0.0
 10
358.761591
 20
1494.304763
 30
0.0
 10
352.427591
 20
1497.632763
 30
0.0
 10
352.953591
 20
1497.912763
 30
0.0
  0
SPLINE
  5
1f2
100
AcDbEntity
  8
H0106_Printing
 62
7
100
AcDbSpline
 70
8
 71
3
 72
8
 73
4
 74
0
 40
0
 40
0
 40
0
 40
0
 40
1
 40
1
 40
1
 40
1
 10
352.953591
 20
1497.912763
 30
0.0
 10
353.089591
 20
1497.878763
 30
0.0
 10
359.923591
 20
1494.796763
 30
0.0
 10
368.176591
 20
1486.547763
 30
0.0
  0
SPLINE
  5
1f3
100
AcDbEntity
  8
H0106_Printing
 62
7
100
AcDbSpline
 70
8
 71
3
 72
8
 73
4
 74
0
 40
0
 40
0
 40
0
 40
0
 40
1
 40
1
 40
1
 40
1
 10
368.176591
 20
1486.547763
 30
0.0
 10
376.612591
 20
1478.513763
 30
0.0
 10
385.796590
 20
1465.319763
 30
0.0
 10
394.073590
 20
1450.129764
 30
0.0
  0
SPLINE
  5
1f4
100
AcDbEntity
  8
H0106_Printing
 62
7
100
AcDbSpline
 70
8
 71
3
 72
8
 73
4
 74
0
 40
0
 40
0
 40
0
 40
0
 40
1
 40
1
 40
1
 40
1
 10
394.073590
 20
1450.129764
 30
0.0
 10
401.617590
 20
1436.615764
 30
0.0
 10
410.759590
 20
1422.359764
 30
0.0
 10
419.487590
 20
1409.327765
 30
0.0
  0
LWPOLYLINE
  5
1f5
100
AcDbEntity
  8
H0106_Printing
 62
7
100
AcDbPolyline
 90
1
 70
1
 10
380.049590
 20
1439.536764
 30
0.0
  0
SPLINE
  5
1f6
100
AcDbEntity
  8
H0106_Printing
 62
7
100
AcDbSpline
 70
8
 71
3
 72
8
 73
4
 74
0
 40
0
 40
0
 40
0
 40
0
 40
1
 40
1
 40
1
 40
1
 10
409.705590
 20
1511.167762
 30
0.0
 10
413.161590
 20
1507.877762
 30
0.0
 10
405.002590
 20
1515.710762
 30
0.0
 10
405.821590
 20
1514.896762
 30
0.0
  0
LWPOLYLINE
  5
1f7
100
AcDbEntity
  8
H0106_Printing
 62
7
100
AcDbPolyline
 90
9
 70
0
 10
419.487590
 20
1409.327765
 30
0.0
 10
573.703586
 20
1439.381764
 30
0.0
 10
555.893586
 20
1530.756762
 30
0.0
 10
409.617590
 20
1502.251762
 30
0.0
 10
409.610590
 20
1507.188762
 30
0.0
 10
409.671590
 20
1510.270762
 30
0.0
 10
409.701590
 20
1511.027762
 30
0.0
 10
409.705590
 20
1511.118762
 30
0.0
 10
409.705590
 20
1511.167762
 30
0.0
  0
SPLINE
  5
1f8
100
AcDbEntity
  8
H0106_Printing
 62
7
100
AcDbSpline
 70
8
 71
3
 72
8
 73
4
 74
0
 40
0
 40
0
 40
0
 40
0
 40
1
 40
1
 40
1
 40
1
 10
403.784590
 20
1514.726762
 30
0.0
 10
399.816590
 20
1514.419762
 30
0.0
 10
395.727590
 20
1514.620762
 30
0.0
 10
391.657590
 20
1515.195762
 30
0.0
  0
SPLINE
  5
1f9
100
AcDbEntity
  8
H0106_Printing
 62
7
100
AcDbSpline
 70
8
 71
3
 72
8
 73
4
 74
0
 40
0
 40
0
 40
0
 40
0
 40
1
 40
1
 40
1
 40
1
 10
391.657590
 20
1515.195762
 30
0.0
 10
383.510590
 20
1516.437762
 30
0.0
 10
375.480591
 20
1519.042762
 30
0.0
 10
368.055591
 20
1522.215762
 30
0.0
  0
SPLINE
  5
1fa
100
AcDbEntity
  8
H0106_Printing
 62
7
100
AcDbSpline
 70
8
 71
3
 72
8
 73
4
 74
0
 40
0
 40
0
 40
0
 40
0
 40
1
 40
1
 40
1
 40
1
 10
368.055591
 20
1522.215762
 30
0.0
 10
338.240592
 20
1535.325762
 30
0.0
 10
325.181592
 20
1558.439761
 30
0.0
 10
321.052592
 20
1559.662761
 30
0.0
  0
SPLINE
  5
1fb
100
AcDbEntity
  8
H0106_Printing
 62
7
100
AcDbSpline
 70
8
 71
3
 72
8
 73
4
 74
0
 40
0
 40
0
 40
0
 40
0
 40
1
 40
1
 40
1
 40
1
 10
321.052592
 20
1559.662761
 30
0.0
 10
320.189592
 20
1559.715761
 30
0.0
 10
308.897592
 20
1557.420761
 30
0.0
 10
292.922593
 20
1553.555761
 30
0.0
  0
LWPOLYLINE
  5
1fc
100
AcDbEntity
  8
H0106_Printing
 62
7
100
AcDbPolyline
 90
4
 70
0
 10
405.821590
 20
1514.896762
 30
0.0
 10
405.635590
 20
1514.881762
 30
0.0
 10
405.268590
 20
1514.851762
 30
0.0
 10
403.784590
 20
1514.726762
 30
0.0
  0
SPLINE
  5
1fd
100
AcDbEntity
  8
H0106_Printing
 62
7
100
AcDbSpline
 70
8
 71
3
 72
8
 73
4
 74
0
 40
0
 40
0
 40
0
 40
0
 40
1
 40
1
 40
1
 40
1
 10
276.939593
 20
1644.739759
 30
0.0
 10
289.438593
 20
1647.693759
 30
0.0
 10
298.743593
 20
1658.915759
 30
0.0
 10
298.743593
 20
1672.318758
 30
0.0
  0
SPLINE
  5
1fe
100
AcDbEntity
  8
H0106_Printing
 62
7
100
AcDbSpline
 70
8
 71
3
 72
8
 73
4
 74
0
 40
0
 40
0
 40
0
 40
0
 40
1
 40
1
 40
1
 40
1
 10
298.743593
 20
1672.318758
 30
0.0
 10
298.743593
 20
1687.973758
 30
0.0
 10
286.052593
 20
1700.664757
 30
0.0
 10
270.396593
 20
1700.664757
 30
0.0
  0
SPLINE
  5
1ff
100
AcDbEntity
  8
H0106_Printing
 62
7
100
AcDbSpline
 70
8
 71
3
 72
8
 73
4
 74
0
 40
0
 40
0
 40
0
 40
0
 40
1
 40
1
 40
1
 40
1
 10
270.396593
 20
1700.664757
 30
0.0
 10
254.741594
 20
1700.664757
 30
0.0
 10
242.050594
 20
1687.973758
 30
0.0
 10
242.050594
 20
1672.318758
 30
0.0
  0
SPLINE
  5
200
100
AcDbEntity
  8
H0106_Printing
 62
7
100
AcDbSpline
 70
8
 71
3
 72
8
 73
4
 74
0
 40
0
 40
0
 40
0
 40
0
 40
1
 40
1
 40
1
 40
1
 10
242.050594
 20
1672.318758
 30
0.0
 10
242.050594
 20
1670.546758
 30
0.0
 10
242.220594
 20
1668.816758
 30
0.0
 10
242.531594
 20
1667.134758
 30
0.0
  0
LWPOLYLINE
  5
201
100
AcDbEntity
  8
H0106_Printing
 62
7
100
AcDbPolyline
 90
2
 70
0
 10
292.922593
 20
1553.555761
 30
0.0
 10
276.939593
 20
1644.739759
 30
0.0
  0
SPLINE
  5
202
100
AcDbEntity
  8
H0106_Printing
 62
7
100
AcDbSpline
 70
8
 71
3
 72
8
 73
4
 74
0
 40
0
 40
0
 40
0
 40
0
 40
1
 40
1
 40
1
 40
1
 10
203.260595
 20
1525.879762
 30
0.0
 10
200.010595
 20
1524.494762
 30
0.0
 10
196.942595
 20
1523.089762
 30
0.0
 10
194.106595
 20
1521.681762
 30
0.0
  0
SPLINE
  5
203
100
AcDbEntity
  8
H0106_Printing
 62
7
100
AcDbSpline
 70
8
 71
3
 72
8
 73
4
 74
0
 40
0
 40
0
 40
0
 40
0
 40
1
 40
1
 40
1
 40
1
 10
194.106595
 20
1521.681762
 30
0.0
 10
184.372595
 20
1516.732762
 30
0.0
 10
174.491596
 20
1507.926762
 30
0.0
 10
169.098596
 20
1497.469763
 30
0.0
  0
SPLINE
  5
204
100
AcDbEntity
  8
H0106_Printing
 62
7
100
AcDbSpline
 70
8
 71
3
 72
8
 73
4
 74
0
 40
0
 40
0
 40
0
 40
0
 40
1
 40
1
 40
1
 40
1
 10
169.098596
 20
1497.469763
 30
0.0
 10
163.366596
 20
1487.213763
 30
0.0
 10
159.517596
 20
1476.211763
 30
0.0
 10
156.437596
 20
1464.982763
 30
0.0
  0
SPLINE
  5
205
100
AcDbEntity
  8
H0106_Printing
 62
7
100
AcDbSpline
 70
8
 71
3
 72
8
 73
4
 74
0
 40
0
 40
0
 40
0
 40
0
 40
1
 40
1
 40
1
 40
1
 10
156.437596
 20
1464.982763
 30
0.0
 10
155.294596
 20
1460.787763
 30
0.0
 10
154.253596
 20
1456.558764
 30
0.0
 10
153.291596
 20
1452.291764
 30
0.0
  0
LWPOLYLINE
  5
206
100
AcDbEntity
  8
H0106_Printing
 62
7
100
AcDbPolyline
 90
3
 70
0
 10
242.531594
 20
1667.134758
 30
0.0
 10
180.408595
 20
1656.246759
 30
0.0
 10
203.260595
 20
1525.879762
 30
0.0
  0
SPLINE
  5
207
100
AcDbEntity
  8
H0106_Printing
 62
7
100
AcDbSpline
 70
8
 71
3
 72
8
 73
4
 74
0
 40
0
 40
0
 40
0
 40
0
 40
1
 40
1
 40
1
 40
1
 10
137.744597
 20
1354.416766
 30
0.0
 10
133.004597
 20
1319.732767
 30
0.0
 10
129.295597
 20
1284.250768
 30
0.0
 10
122.181597
 20
1249.657769
 30
0.0
  0
SPLINE
  5
208
100
AcDbEntity
  8
H0106_Printing
 62
7
100
AcDbSpline
 70
8
 71
3
 72
8
 73
4
 74
0
 40
0
 40
0
 40
0
 40
0
 40
1
 40
1
 40
1
 40
1
 10
122.181597
 20
1249.657769
 30
0.0
 10
106.214597
 20
1172.007771
 30
0.0
 10
47.662599
 20
1084.823773
 30
0.0
 10
50.380599
 20
1070.607773
 30
0.0
  0
SPLINE
  5
209
100
AcDbEntity
  8
H0106_Printing
 62
7
100
AcDbSpline
 70
8
 71
3
 72
8
 73
4
 74
0
 40
0
 40
0
 40
0
 40
0
 40
1
 40
1
 40
1
 40
1
 10
50.380599
 20
1070.607773
 30
0.0
 10
52.177599
 20
1062.872773
 30
0.0
 10
77.730598
 20
1065.072773
 30
0.0
 10
84.204598
 20
1065.174773
 30
0.0
  0
SPLINE
  5
20a
100
AcDbEntity
  8
H0106_Printing
 62
7
100
AcDbSpline
 70
8
 71
3
 72
8
 73
4
 74
0
 40
0
 40
0
 40
0
 40
0
 40
1
 40
1
 40
1
 40
1
 10
84.204598
 20
1065.174773
 30
0.0
 10
90.514598
 20
1065.011773
 30
0.0
 10
97.620598
 20
1065.893773
 30
0.0
 10
103.290597
 20
1066.571773
 30
0.0
  0
SPLINE
  5
20b
100
AcDbEntity
  8
H0106_Printing
 62
7
100
AcDbSpline
 70
8
 71
3
 72
8
 73
4
 74
0
 40
0
 40
0
 40
0
 40
0
 40
1
 40
1
 40
1
 40
1
 10
103.290597
 20
1066.571773
 30
0.0
 10
125.716597
 20
1069.660773
 30
0.0
 10
146.601596
 20
1074.400773
 30
0.0
 10
167.106596
 20
1076.520773
 30
0.0
  0
SPLINE
  5
20c
100
AcDbEntity
  8
H0106_Printing
 62
7
100
AcDbSpline
 70
8
 71
3
 72
8
 73
4
 74
0
 40
0
 40
0
 40
0
 40
0
 40
1
 40
1
 40
1
 40
1
 10
167.106596
 20
1076.520773
 30
0.0
 10
207.974595
 20
1081.030773
 30
0.0
 10
245.488594
 20
1080.541773
 30
0.0
 10
275.576593
 20
1073.162773
 30
0.0
  0
SPLINE
  5
20d
100
AcDbEntity
  8
H0106_Printing
 62
7
100
AcDbSpline
 70
8
 71
3
 72
8
 73
4
 74
0
 40
0
 40
0
 40
0
 40
0
 40
1
 40
1
 40
1
 40
1
 10
275.576593
 20
1073.162773
 30
0.0
 10
278.108593
 20
1072.571773
 30
0.0
 10
280.551593
 20
1071.909773
 30
0.0
 10
282.954593
 20
1071.216773
 30
0.0
  0
LWPOLYLINE
  5
20e
100
AcDbEntity
  8
H0106_Printing
 62
7
100
AcDbPolyline
 90
4
 70
0
 10
153.291596
 20
1452.291764
 30
0.0
 10
0.146600
 20
1422.446764
 30
0.0
 10
17.955600
 20
1331.067767
 30
0.0
 10
137.744597
 20
1354.416766
 30
0.0
  0
SPLINE
  5
20f
100
AcDbEntity
  8
H0106_Printing
 62
7
100
AcDbSpline
 70
8
 71
3
 72
8
 73
4
 74
0
 40
0
 40
0
 40
0
 40
0
 40
1
 40
1
 40
1
 40
1
 10
385.321590
 20
1026.405774
 30
0.0
 10
385.416590
 20
1026.575774
 30
0.0
 10
385.505590
 20
1026.729774
 30
0.0
 10
385.605590
 20
1026.910774
 30
0.0
  0
SPLINE
  5
210
100
AcDbEntity
  8
H0106_Printing
 62
7
100
AcDbSpline
 70
8
 71
3
 72
8
 73
4
 74
0
 40
0
 40
0
 40
0
 40
0
 40
1
 40
1
 40
1
 40
1
 10
385.605590
 20
1026.910774
 30
0.0
 10
394.805590
 20
1040.252774
 30
0.0
 10
437.316589
 20
1053.316774
 30
0.0
 10
457.419589
 20
1064.072773
 30
0.0
  0
SPLINE
  5
211
100
AcDbEntity
  8
H0106_Printing
 62
7
100
AcDbSpline
 70
8
 71
3
 72
8
 73
4
 74
0
 40
0
 40
0
 40
0
 40
0
 40
1
 40
1
 40
1
 40
1
 10
457.419589
 20
1064.072773
 30
0.0
 10
467.782588
 20
1069.410773
 30
0.0
 10
478.712588
 20
1074.866773
 30
0.0
 10
489.767588
 20
1081.101773
 30
0.0
  0
SPLINE
  5
212
100
AcDbEntity
  8
H0106_Printing
 62
7
100
AcDbSpline
 70
8
 71
3
 72
8
 73
4
 74
0
 40
0
 40
0
 40
0
 40
0
 40
1
 40
1
 40
1
 40
1
 10
489.767588
 20
1081.101773
 30
0.0
 10
500.485587
 20
1087.769773
 30
0.0
 10
542.964586
 20
1112.741772
 30
0.0
 10
540.992586
 20
1116.531772
 30
0.0
  0
SPLINE
  5
213
100
AcDbEntity
  8
H0106_Printing
 62
7
100
AcDbSpline
 70
8
 71
3
 72
8
 73
4
 74
0
 40
0
 40
0
 40
0
 40
0
 40
1
 40
1
 40
1
 40
1
 10
540.992586
 20
1116.531772
 30
0.0
 10
538.867587
 20
1120.347772
 30
0.0
 10
484.538588
 20
1198.997770
 30
0.0
 10
419.511590
 20
1386.441765
 30
0.0
  0
LWPOLYLINE
  5
214
100
AcDbEntity
  8
H0106_Printing
 62
7
100
AcDbPolyline
 90
4
 70
0
 10
282.954593
 20
1071.216773
 30
0.0
 10
301.808592
 20
963.656776
 30
0.0
 10
393.505590
 20
979.732776
 30
0.0
 10
385.321590
 20
1026.405774
 30
0.0
  0
LWPOLYLINE
  5
215
100
AcDbEntity
  8
H0106_Printing
 62
7
100
AcDbPolyline
 90
1
 70
1
 10
419.511590
 20
1386.441765
 30
0.0
  0
ENDSEC
  0
SECTION
  2
OBJECTS
  0
DICTIONARY
  5
C
330
0
100
AcDbDictionary
  3
ACAD_GROUP
350
D
  3
ACAD_MLINESTYLE
350
17
  0
DICTIONARY
  5
D
330
C
100
AcDbDictionary
  0
DICTIONARY
  5
1A
330
C
100
AcDbDictionary
  0
DICTIONARY
  5
17
330
C
100
AcDbDictionary
  3
STANDARD
350
18
  0
DICTIONARY
  5
19
330
C
100
AcDbDictionary
  0
ENDSEC
  0
EOF
