  0
SECTION
  2
HEADER
  9
$ACADVER
  1
AC1014
  9
$HANDSEED
  5
FFFF
  9
$MEASUREMENT
 70
     1
  0
ENDSEC
  0
SECTION
  2
TABLES
  0
TABLE
  2
VPORT
  5
8
330
0
100
AcDbSymbolTable
 70
     4
  0
VPORT
  5
2E
330
8
100
AcDbSymbolTableRecord
100
AcDbViewportTableRecord
  2
*ACTIVE
 70
     0
 10
0.0
 20
0.0
 11
1.0
 21
1.0
 12
210.0
 22
148.5
 13
0.0
 23
0.0
 14
10.0
 24
10.0
 15
10.0
 25
10.0
 16
0.0
 26
0.0
 36
1.0
 17
0.0
 27
0.0
 37
0.0
 40
341.0
 41
1.24
 42
50.0
 43
0.0
 44
0.0
 50
0.0
 51
0.0
 71
     0
 72
   100
 73
     1
 74
     3
 75
     0
 76
     0
 77
     0
 78
     0
  0
ENDTAB
  0
TABLE
  2
LTYPE
  5
5
330
0
100
AcDbSymbolTable
 70
     1
  0
LTYPE
  5
14
330
5
100
AcDbSymbolTableRecord
100
AcDbLinetypeTableRecord
  2
BYBLOCK
 70
     0
  3

 72
    65
 73
     0
 40
0.0
  0
LTYPE
  5
15
330
5
100
AcDbSymbolTableRecord
100
AcDbLinetypeTableRecord
  2
BYLAYER
 70
     0
  3

 72
    65
 73
     0
 40
0.0
  0
LTYPE
  5
16
330
5
100
AcDbSymbolTableRecord
100
AcDbLinetypeTableRecord
  2
CONTINUOUS
 70
     0
  3
Solid line
 72
    65
 73
     0
 40
0.0
  0
ENDTAB
  0
TABLE
  2
LAYER
  5
2
100
AcDbSymbolTable
 70
2
  0
LAYER
  5
50
100
AcDbSymbolTableRecord
100
AcDbLayerTableRecord
  2
0
 70
0
  6
CONTINUOUS
  0
LAYER
  5
51
100
AcDbSymbolTableRecord
100
AcDbLayerTableRecord
  2
H0109_Printing_02
 70
0
  6
CONTINUOUS
  0
ENDTAB
  0
TABLE
  2
STYLE
  5
3
330
0
100
AcDbSymbolTable
 70
     1
  0
STYLE
  5
11
330
3
100
AcDbSymbolTableRecord
100
AcDbTextStyleTableRecord
  2
STANDARD
 70
     0
 40
0.0
 41
1.0
 50
0.0
 71
     0
 42
2.5
  3
txt
  4

  0
ENDTAB
  0
TABLE
  2
VIEW
  5
6
330
0
100
AcDbSymbolTable
 70
     0
  0
ENDTAB
  0
TABLE
  2
UCS
  5
7
330
0
100
AcDbSymbolTable
 70
     0
  0
ENDTAB
  0
TABLE
  2
APPID
  5
9
330
0
100
AcDbSymbolTable
 70
     2
  0
APPID
  5
12
330
9
100
AcDbSymbolTableRecord
100
AcDbRegAppTableRecord
  2
ACAD
 70
     0
  0
ENDTAB
  0
TABLE
  2
DIMSTYLE
  5
A
330
0
100
AcDbSymbolTable
 70
     1
  0
DIMSTYLE
105
27
330
A
100
AcDbSymbolTableRecord
100
AcDbDimStyleTableRecord
  2
ISO-25
 70
     0
  3

  4

  5

  6

  7

 40
1.0
 41
2.5
 42
0.625
 43
3.75
 44
1.25
 45
0.0
 46
0.0
 47
0.0
 48
0.0
140
2.5
141
2.5
142
0.0
143
0.03937007874016
144
1.0
145
0.0
146
1.0
147
0.625
 71
     0
 72
     0
 73
     0
 74
     0
 75
     0
 76
     0
 77
     1
 78
     8
170
     0
171
     3
172
     1
173
     0
174
     0
175
     0
176
     0
177
     0
178
     0
270
     2
271
     2
272
     2
273
     2
274
     3
340
11
275
     0
280
     0
281
     0
282
     0
283
     0
284
     8
285
     0
286
     0
287
     3
288
     0
  0
ENDTAB
  0
TABLE
  2
BLOCK_RECORD
  5
1
330
0
100
AcDbSymbolTable
 70
     1
  0
BLOCK_RECORD
  5
1F
330
1
100
AcDbSymbolTableRecord
100
AcDbBlockTableRecord
  2
*MODEL_SPACE
  0
BLOCK_RECORD
  5
1B
330
1
100
AcDbSymbolTableRecord
100
AcDbBlockTableRecord
  2
*PAPER_SPACE
  0
ENDTAB
  0
ENDSEC
  0
SECTION
  2
BLOCKS
  0
BLOCK
  5
20
330
1F
100
AcDbEntity
  8
0
100
AcDbBlockBegin
  2
*MODEL_SPACE
 70
     0
 10
0.0
 20
0.0
 30
0.0
  3
*MODEL_SPACE
  1

  0
ENDBLK
  5
21
330
1F
100
AcDbEntity
  8
0
100
AcDbBlockEnd
  0
BLOCK
  5
1C
330
1B
100
AcDbEntity
 67
     1
  8
0
100
AcDbBlockBegin
  2
*PAPER_SPACE
  1

  0
ENDBLK
  5
1D
330
1B
100
AcDbEntity
 67
     1
  8
0
100
AcDbBlockEnd
  0
ENDSEC
  0
SECTION
  2
ENTITIES
  0
SPLINE
  5
100
100
AcDbEntity
  8
H0109_Printing_02
 62
1
100
AcDbSpline
 70
8
 71
3
 72
8
 73
4
 74
0
 40
0
 40
0
 40
0
 40
0
 40
1
 40
1
 40
1
 40
1
 10
1715.652657
 20
1197.183670
 30
0.0
 10
1715.652657
 20
1189.930670
 30
0.0
 10
1709.773657
 20
1184.050670
 30
0.0
 10
1702.521657
 20
1184.050670
 30
0.0
  0
SPLINE
  5
101
100
AcDbEntity
  8
H0109_Printing_02
 62
1
100
AcDbSpline
 70
8
 71
3
 72
8
 73
4
 74
0
 40
0
 40
0
 40
0
 40
0
 40
1
 40
1
 40
1
 40
1
 10
1702.521657
 20
1184.050670
 30
0.0
 10
1695.270658
 20
1184.050670
 30
0.0
 10
1689.391658
 20
1189.930670
 30
0.0
 10
1689.391658
 20
1197.183670
 30
0.0
  0
SPLINE
  5
102
100
AcDbEntity
  8
H0109_Printing_02
 62
1
100
AcDbSpline
 70
8
 71
3
 72
8
 73
4
 74
0
 40
0
 40
0
 40
0
 40
0
 40
1
 40
1
 40
1
 40
1
 10
1689.391658
 20
1197.183670
 30
0.0
 10
1689.391658
 20
1204.436670
 30
0.0
 10
1695.270658
 20
1210.316670
 30
0.0
 10
1702.521657
 20
1210.316670
 30
0.0
  0
SPLINE
  5
103
100
AcDbEntity
  8
H0109_Printing_02
 62
1
100
AcDbSpline
 70
8
 71
3
 72
8
 73
4
 74
0
 40
0
 40
0
 40
0
 40
0
 40
1
 40
1
 40
1
 40
1
 10
1702.521657
 20
1210.316670
 30
0.0
 10
1709.773657
 20
1210.316670
 30
0.0
 10
1715.652657
 20
1204.436670
 30
0.0
 10
1715.652657
 20
1197.183670
 30
0.0
  0
LWPOLYLINE
  5
104
100
AcDbEntity
  8
H0109_Printing_02
 62
1
100
AcDbPolyline
 90
1
 70
1
 10
1715.652657
 20
1197.183670
 30
0.0
  0
SPLINE
  5
105
100
AcDbEntity
  8
H0109_Printing_02
 62
1
100
AcDbSpline
 70
8
 71
3
 72
8
 73
4
 74
0
 40
0
 40
0
 40
0
 40
0
 40
1
 40
1
 40
1
 40
1
 10
1500.087662
 20
989.535675
 30
0.0
 10
1500.087662
 20
1005.737675
 30
0.0
 10
1523.785662
 20
1010.838675
 30
0.0
 10
1523.785662
 20
994.336675
 30
0.0
  0
SPLINE
  5
106
100
AcDbEntity
  8
H0109_Printing_02
 62
1
100
AcDbSpline
 70
8
 71
3
 72
8
 73
4
 74
0
 40
0
 40
0
 40
0
 40
0
 40
1
 40
1
 40
1
 40
1
 10
1523.785662
 20
994.336675
 30
0.0
 10
1523.785662
 20
977.834676
 30
0.0
 10
1479.389663
 20
954.431676
 30
0.0
 10
1479.389663
 20
937.029677
 30
0.0
  0
SPLINE
  5
107
100
AcDbEntity
  8
H0109_Printing_02
 62
1
100
AcDbSpline
 70
8
 71
3
 72
8
 73
4
 74
0
 40
0
 40
0
 40
0
 40
0
 40
1
 40
1
 40
1
 40
1
 10
1479.389663
 20
937.029677
 30
0.0
 10
1479.389663
 20
919.627677
 30
0.0
 10
1492.588663
 20
914.826677
 30
0.0
 10
1504.887662
 20
914.826677
 30
0.0
  0
LWPOLYLINE
  5
108
100
AcDbEntity
  8
H0109_Printing_02
 62
1
100
AcDbPolyline
 90
2
 70
0
 10
1500.087662
 20
978.734676
 30
0.0
 10
1500.087662
 20
989.535675
 30
0.0
  0
SPLINE
  5
109
100
AcDbEntity
  8
H0109_Printing_02
 62
1
100
AcDbSpline
 70
8
 71
3
 72
8
 73
4
 74
0
 40
0
 40
0
 40
0
 40
0
 40
1
 40
1
 40
1
 40
1
 10
1539.683662
 20
914.826677
 30
0.0
 10
1556.482661
 20
914.826677
 30
0.0
 10
1562.181661
 20
922.627677
 30
0.0
 10
1562.181661
 20
922.627677
 30
0.0
  0
SPLINE
  5
10a
100
AcDbEntity
  8
H0109_Printing_02
 62
1
100
AcDbSpline
 70
8
 71
3
 72
8
 73
4
 74
0
 40
0
 40
0
 40
0
 40
0
 40
1
 40
1
 40
1
 40
1
 10
1562.181661
 20
922.627677
 30
0.0
 10
1562.181661
 20
922.627677
 30
0.0
 10
1570.880661
 20
915.426677
 30
0.0
 10
1581.379660
 20
915.426677
 30
0.0
  0
LWPOLYLINE
  5
10b
100
AcDbEntity
  8
H0109_Printing_02
 62
1
100
AcDbPolyline
 90
2
 70
0
 10
1504.887662
 20
914.826677
 30
0.0
 10
1539.683662
 20
914.826677
 30
0.0
  0
SPLINE
  5
10c
100
AcDbEntity
  8
H0109_Printing_02
 62
1
100
AcDbSpline
 70
8
 71
3
 72
8
 73
4
 74
0
 40
0
 40
0
 40
0
 40
0
 40
1
 40
1
 40
1
 40
1
 10
1641.974659
 20
500.474687
 30
0.0
 10
1641.974659
 20
490.873688
 30
0.0
 10
1638.974659
 20
483.672688
 30
0.0
 10
1650.373659
 20
483.672688
 30
0.0
  0
LWPOLYLINE
  5
10d
100
AcDbEntity
  8
H0109_Printing_02
 62
1
100
AcDbPolyline
 90
3
 70
0
 10
1581.379660
 20
915.426677
 30
0.0
 10
1641.974659
 20
915.426677
 30
0.0
 10
1641.974659
 20
500.474687
 30
0.0
  0
SPLINE
  5
10e
100
AcDbEntity
  8
H0109_Printing_02
 62
1
100
AcDbSpline
 70
8
 71
3
 72
8
 73
4
 74
0
 40
0
 40
0
 40
0
 40
0
 40
1
 40
1
 40
1
 40
1
 10
1737.065657
 20
483.672688
 30
0.0
 10
1749.663656
 20
483.672688
 30
0.0
 10
1754.763656
 20
482.471688
 30
0.0
 10
1754.763656
 20
501.374687
 30
0.0
  0
LWPOLYLINE
  5
10f
100
AcDbEntity
  8
H0109_Printing_02
 62
1
100
AcDbPolyline
 90
2
 70
0
 10
1650.373659
 20
483.672688
 30
0.0
 10
1737.065657
 20
483.672688
 30
0.0
  0
SPLINE
  5
110
100
AcDbEntity
  8
H0109_Printing_02
 62
1
100
AcDbSpline
 70
8
 71
3
 72
8
 73
4
 74
0
 40
0
 40
0
 40
0
 40
0
 40
1
 40
1
 40
1
 40
1
 10
1891.850653
 20
915.426677
 30
0.0
 10
1928.746652
 20
915.426677
 30
0.0
 10
1925.586652
 20
955.843676
 30
0.0
 10
1925.586652
 20
955.843676
 30
0.0
  0
LWPOLYLINE
  5
111
100
AcDbEntity
  8
H0109_Printing_02
 62
1
100
AcDbPolyline
 90
3
 70
0
 10
1754.763656
 20
501.374687
 30
0.0
 10
1754.763656
 20
915.426677
 30
0.0
 10
1891.850653
 20
915.426677
 30
0.0
  0
SPLINE
  5
112
100
AcDbEntity
  8
H0109_Printing_02
 62
1
100
AcDbSpline
 70
8
 71
3
 72
8
 73
4
 74
0
 40
0
 40
0
 40
0
 40
0
 40
1
 40
1
 40
1
 40
1
 10
1892.197653
 20
948.136676
 30
0.0
 10
1892.197653
 20
934.863677
 30
0.0
 10
1878.928653
 20
935.291677
 30
0.0
 10
1878.928653
 20
949.849676
 30
0.0
  0
LWPOLYLINE
  5
113
100
AcDbEntity
  8
H0109_Printing_02
 62
1
100
AcDbPolyline
 90
3
 70
0
 10
1925.586652
 20
955.843676
 30
0.0
 10
1899.902653
 20
955.843676
 30
0.0
 10
1892.197653
 20
948.136676
 30
0.0
  0
SPLINE
  5
114
100
AcDbEntity
  8
H0109_Printing_02
 62
1
100
AcDbSpline
 70
8
 71
3
 72
8
 73
4
 74
0
 40
0
 40
0
 40
0
 40
0
 40
1
 40
1
 40
1
 40
1
 10
1895.622653
 20
980.248675
 30
0.0
 10
1895.622653
 20
980.248675
 30
0.0
 10
1896.050653
 20
979.634676
 30
0.0
 10
1907.448652
 20
979.634676
 30
0.0
  0
SPLINE
  5
115
100
AcDbEntity
  8
H0109_Printing_02
 62
1
100
AcDbSpline
 70
8
 71
3
 72
8
 73
4
 74
0
 40
0
 40
0
 40
0
 40
0
 40
1
 40
1
 40
1
 40
1
 10
1907.448652
 20
979.634676
 30
0.0
 10
1918.847652
 20
979.634676
 30
0.0
 10
1922.147652
 20
985.035675
 30
0.0
 10
1922.147652
 20
991.936675
 30
0.0
  0
LWPOLYLINE
  5
116
100
AcDbEntity
  8
H0109_Printing_02
 62
1
100
AcDbPolyline
 90
4
 70
0
 10
1878.928653
 20
949.849676
 30
0.0
 10
1878.928653
 20
998.659675
 30
0.0
 10
1895.622653
 20
998.659675
 30
0.0
 10
1895.622653
 20
980.248675
 30
0.0
  0
SPLINE
  5
117
100
AcDbEntity
  8
H0109_Printing_02
 62
1
100
AcDbSpline
 70
8
 71
3
 72
8
 73
4
 74
0
 40
0
 40
0
 40
0
 40
0
 40
1
 40
1
 40
1
 40
1
 10
1922.147652
 20
1011.138675
 30
0.0
 10
1922.147652
 20
1021.639674
 30
0.0
 10
1919.147652
 20
1024.040674
 30
0.0
 10
1909.248652
 20
1024.040674
 30
0.0
  0
LWPOLYLINE
  5
118
100
AcDbEntity
  8
H0109_Printing_02
 62
1
100
AcDbPolyline
 90
2
 70
0
 10
1922.147652
 20
991.936675
 30
0.0
 10
1922.147652
 20
1011.138675
 30
0.0
  0
SPLINE
  5
119
100
AcDbEntity
  8
H0109_Printing_02
 62
1
100
AcDbSpline
 70
8
 71
3
 72
8
 73
4
 74
0
 40
0
 40
0
 40
0
 40
0
 40
1
 40
1
 40
1
 40
1
 10
1757.463656
 20
1201.062670
 30
0.0
 10
1757.463656
 20
1219.064670
 30
0.0
 10
1752.363656
 20
1219.664670
 30
0.0
 10
1738.864657
 20
1219.664670
 30
0.0
  0
LWPOLYLINE
  5
11a
100
AcDbEntity
  8
H0109_Printing_02
 62
1
100
AcDbPolyline
 90
3
 70
0
 10
1909.248652
 20
1024.040674
 30
0.0
 10
1757.463656
 20
1024.040674
 30
0.0
 10
1757.463656
 20
1201.062670
 30
0.0
  0
SPLINE
  5
11b
100
AcDbEntity
  8
H0109_Printing_02
 62
1
100
AcDbSpline
 70
8
 71
3
 72
8
 73
4
 74
0
 40
0
 40
0
 40
0
 40
0
 40
1
 40
1
 40
1
 40
1
 10
1661.472658
 20
1219.664670
 30
0.0
 10
1643.773659
 20
1219.664670
 30
0.0
 10
1644.373659
 20
1212.163670
 30
0.0
 10
1644.373659
 20
1197.162670
 30
0.0
  0
LWPOLYLINE
  5
11c
100
AcDbEntity
  8
H0109_Printing_02
 62
1
100
AcDbPolyline
 90
2
 70
0
 10
1738.864657
 20
1219.664670
 30
0.0
 10
1661.472658
 20
1219.664670
 30
0.0
  0
SPLINE
  5
11d
100
AcDbEntity
  8
H0109_Printing_02
 62
1
100
AcDbSpline
 70
8
 71
3
 72
8
 73
4
 74
0
 40
0
 40
0
 40
0
 40
0
 40
1
 40
1
 40
1
 40
1
 10
1624.350659
 20
1024.940674
 30
0.0
 10
1608.602660
 20
1024.940674
 30
0.0
 10
1607.477660
 20
1001.612675
 30
0.0
 10
1607.477660
 20
1001.612675
 30
0.0
  0
LWPOLYLINE
  5
11e
100
AcDbEntity
  8
H0109_Printing_02
 62
1
100
AcDbPolyline
 90
3
 70
0
 10
1644.373659
 20
1197.162670
 30
0.0
 10
1644.373659
 20
1024.940674
 30
0.0
 10
1624.350659
 20
1024.940674
 30
0.0
  0
SPLINE
  5
11f
100
AcDbEntity
  8
H0109_Printing_02
 62
1
100
AcDbSpline
 70
8
 71
3
 72
8
 73
4
 74
0
 40
0
 40
0
 40
0
 40
0
 40
1
 40
1
 40
1
 40
1
 10
1621.201659
 20
943.330676
 30
0.0
 10
1621.201659
 20
937.029677
 30
0.0
 10
1620.301659
 20
936.129677
 30
0.0
 10
1616.926660
 20
936.129677
 30
0.0
  0
LWPOLYLINE
  5
120
100
AcDbEntity
  8
H0109_Printing_02
 62
1
100
AcDbPolyline
 90
3
 70
0
 10
1607.477660
 20
1001.612675
 30
0.0
 10
1621.201659
 20
1001.612675
 30
0.0
 10
1621.201659
 20
943.330676
 30
0.0
  0
SPLINE
  5
121
100
AcDbEntity
  8
H0109_Printing_02
 62
1
100
AcDbSpline
 70
8
 71
3
 72
8
 73
4
 74
0
 40
0
 40
0
 40
0
 40
0
 40
1
 40
1
 40
1
 40
1
 10
1598.028660
 20
936.129677
 30
0.0
 10
1592.403660
 20
936.129677
 30
0.0
 10
1592.478660
 20
936.354677
 30
0.0
 10
1592.478660
 20
941.304676
 30
0.0
  0
LWPOLYLINE
  5
122
100
AcDbEntity
  8
H0109_Printing_02
 62
1
100
AcDbPolyline
 90
2
 70
0
 10
1616.926660
 20
936.129677
 30
0.0
 10
1598.028660
 20
936.129677
 30
0.0
  0
SPLINE
  5
123
100
AcDbEntity
  8
H0109_Printing_02
 62
1
100
AcDbSpline
 70
8
 71
3
 72
8
 73
4
 74
0
 40
0
 40
0
 40
0
 40
0
 40
1
 40
1
 40
1
 40
1
 10
1592.478660
 20
995.836675
 30
0.0
 10
1592.478660
 20
1007.238675
 30
0.0
 10
1604.777660
 20
1003.637675
 30
0.0
 10
1604.777660
 20
1008.138675
 30
0.0
  0
LWPOLYLINE
  5
124
100
AcDbEntity
  8
H0109_Printing_02
 62
1
100
AcDbPolyline
 90
2
 70
0
 10
1592.478660
 20
941.304676
 30
0.0
 10
1592.478660
 20
995.836675
 30
0.0
  0
SPLINE
  5
125
100
AcDbEntity
  8
H0109_Printing_02
 62
1
100
AcDbSpline
 70
8
 71
3
 72
8
 73
4
 74
0
 40
0
 40
0
 40
0
 40
0
 40
1
 40
1
 40
1
 40
1
 10
1559.481661
 20
1024.940674
 30
0.0
 10
1554.982661
 20
1024.940674
 30
0.0
 10
1554.082661
 20
1018.639675
 30
0.0
 10
1554.082661
 20
1018.639675
 30
0.0
  0
SPLINE
  5
126
100
AcDbEntity
  8
H0109_Printing_02
 62
1
100
AcDbSpline
 70
8
 71
3
 72
8
 73
4
 74
0
 40
0
 40
0
 40
0
 40
0
 40
1
 40
1
 40
1
 40
1
 10
1554.082661
 20
1018.639675
 30
0.0
 10
1554.082661
 20
1018.639675
 30
0.0
 10
1553.782661
 20
1024.940674
 30
0.0
 10
1548.382661
 20
1024.940674
 30
0.0
  0
LWPOLYLINE
  5
127
100
AcDbEntity
  8
H0109_Printing_02
 62
1
100
AcDbPolyline
 90
3
 70
0
 10
1604.777660
 20
1008.138675
 30
0.0
 10
1604.777660
 20
1024.940674
 30
0.0
 10
1559.481661
 20
1024.940674
 30
0.0
  0
SPLINE
  5
128
100
AcDbEntity
  8
H0109_Printing_02
 62
1
100
AcDbSpline
 70
8
 71
3
 72
8
 73
4
 74
0
 40
0
 40
0
 40
0
 40
0
 40
1
 40
1
 40
1
 40
1
 10
1502.187662
 20
1024.940674
 30
0.0
 10
1486.288663
 20
1024.940674
 30
0.0
 10
1479.389663
 20
1019.839675
 30
0.0
 10
1479.389663
 20
1007.238675
 30
0.0
  0
LWPOLYLINE
  5
129
100
AcDbEntity
  8
H0109_Printing_02
 62
1
100
AcDbPolyline
 90
2
 70
0
 10
1548.382661
 20
1024.940674
 30
0.0
 10
1502.187662
 20
1024.940674
 30
0.0
  0
LWPOLYLINE
  5
12a
100
AcDbEntity
  8
H0109_Printing_02
 62
1
100
AcDbPolyline
 90
3
 70
0
 10
1479.389663
 20
1007.238675
 30
0.0
 10
1479.389663
 20
978.734676
 30
0.0
 10
1500.087662
 20
978.734676
 30
0.0
  0
ENDSEC
  0
SECTION
  2
OBJECTS
  0
DICTIONARY
  5
C
330
0
100
AcDbDictionary
  3
ACAD_GROUP
350
D
  3
ACAD_MLINESTYLE
350
17
  0
DICTIONARY
  5
D
330
C
100
AcDbDictionary
  0
DICTIONARY
  5
1A
330
C
100
AcDbDictionary
  0
DICTIONARY
  5
17
330
C
100
AcDbDictionary
  3
STANDARD
350
18
  0
DICTIONARY
  5
19
330
C
100
AcDbDictionary
  0
ENDSEC
  0
EOF
