  0
SECTION
  2
HEADER
  9
$ACADVER
  1
AC1014
  9
$HANDSEED
  5
FFFF
  9
$MEASUREMENT
 70
     1
  0
ENDSEC
  0
SECTION
  2
TABLES
  0
TABLE
  2
VPORT
  5
8
330
0
100
AcDbSymbolTable
 70
     4
  0
VPORT
  5
2E
330
8
100
AcDbSymbolTableRecord
100
AcDbViewportTableRecord
  2
*ACTIVE
 70
     0
 10
0.0
 20
0.0
 11
1.0
 21
1.0
 12
210.0
 22
148.5
 13
0.0
 23
0.0
 14
10.0
 24
10.0
 15
10.0
 25
10.0
 16
0.0
 26
0.0
 36
1.0
 17
0.0
 27
0.0
 37
0.0
 40
341.0
 41
1.24
 42
50.0
 43
0.0
 44
0.0
 50
0.0
 51
0.0
 71
     0
 72
   100
 73
     1
 74
     3
 75
     0
 76
     0
 77
     0
 78
     0
  0
ENDTAB
  0
TABLE
  2
LTYPE
  5
5
330
0
100
AcDbSymbolTable
 70
     1
  0
LTYPE
  5
14
330
5
100
AcDbSymbolTableRecord
100
AcDbLinetypeTableRecord
  2
BYBLOCK
 70
     0
  3

 72
    65
 73
     0
 40
0.0
  0
LTYPE
  5
15
330
5
100
AcDbSymbolTableRecord
100
AcDbLinetypeTableRecord
  2
BYLAYER
 70
     0
  3

 72
    65
 73
     0
 40
0.0
  0
LTYPE
  5
16
330
5
100
AcDbSymbolTableRecord
100
AcDbLinetypeTableRecord
  2
CONTINUOUS
 70
     0
  3
Solid line
 72
    65
 73
     0
 40
0.0
  0
ENDTAB
  0
TABLE
  2
LAYER
  5
2
100
AcDbSymbolTable
 70
2
  0
LAYER
  5
50
100
AcDbSymbolTableRecord
100
AcDbLayerTableRecord
  2
0
 70
0
  6
CONTINUOUS
  0
LAYER
  5
51
100
AcDbSymbolTableRecord
100
AcDbLayerTableRecord
  2
H0109_Printing_01
 70
0
  6
CONTINUOUS
  0
ENDTAB
  0
TABLE
  2
STYLE
  5
3
330
0
100
AcDbSymbolTable
 70
     1
  0
STYLE
  5
11
330
3
100
AcDbSymbolTableRecord
100
AcDbTextStyleTableRecord
  2
STANDARD
 70
     0
 40
0.0
 41
1.0
 50
0.0
 71
     0
 42
2.5
  3
txt
  4

  0
ENDTAB
  0
TABLE
  2
VIEW
  5
6
330
0
100
AcDbSymbolTable
 70
     0
  0
ENDTAB
  0
TABLE
  2
UCS
  5
7
330
0
100
AcDbSymbolTable
 70
     0
  0
ENDTAB
  0
TABLE
  2
APPID
  5
9
330
0
100
AcDbSymbolTable
 70
     2
  0
APPID
  5
12
330
9
100
AcDbSymbolTableRecord
100
AcDbRegAppTableRecord
  2
ACAD
 70
     0
  0
ENDTAB
  0
TABLE
  2
DIMSTYLE
  5
A
330
0
100
AcDbSymbolTable
 70
     1
  0
DIMSTYLE
105
27
330
A
100
AcDbSymbolTableRecord
100
AcDbDimStyleTableRecord
  2
ISO-25
 70
     0
  3

  4

  5

  6

  7

 40
1.0
 41
2.5
 42
0.625
 43
3.75
 44
1.25
 45
0.0
 46
0.0
 47
0.0
 48
0.0
140
2.5
141
2.5
142
0.0
143
0.03937007874016
144
1.0
145
0.0
146
1.0
147
0.625
 71
     0
 72
     0
 73
     0
 74
     0
 75
     0
 76
     0
 77
     1
 78
     8
170
     0
171
     3
172
     1
173
     0
174
     0
175
     0
176
     0
177
     0
178
     0
270
     2
271
     2
272
     2
273
     2
274
     3
340
11
275
     0
280
     0
281
     0
282
     0
283
     0
284
     8
285
     0
286
     0
287
     3
288
     0
  0
ENDTAB
  0
TABLE
  2
BLOCK_RECORD
  5
1
330
0
100
AcDbSymbolTable
 70
     1
  0
BLOCK_RECORD
  5
1F
330
1
100
AcDbSymbolTableRecord
100
AcDbBlockTableRecord
  2
*MODEL_SPACE
  0
BLOCK_RECORD
  5
1B
330
1
100
AcDbSymbolTableRecord
100
AcDbBlockTableRecord
  2
*PAPER_SPACE
  0
ENDTAB
  0
ENDSEC
  0
SECTION
  2
BLOCKS
  0
BLOCK
  5
20
330
1F
100
AcDbEntity
  8
0
100
AcDbBlockBegin
  2
*MODEL_SPACE
 70
     0
 10
0.0
 20
0.0
 30
0.0
  3
*MODEL_SPACE
  1

  0
ENDBLK
  5
21
330
1F
100
AcDbEntity
  8
0
100
AcDbBlockEnd
  0
BLOCK
  5
1C
330
1B
100
AcDbEntity
 67
     1
  8
0
100
AcDbBlockBegin
  2
*PAPER_SPACE
  1

  0
ENDBLK
  5
1D
330
1B
100
AcDbEntity
 67
     1
  8
0
100
AcDbBlockEnd
  0
ENDSEC
  0
SECTION
  2
ENTITIES
  0
SPLINE
  5
100
100
AcDbEntity
  8
H0109_Printing_01
 62
1
100
AcDbSpline
 70
8
 71
3
 72
8
 73
4
 74
0
 40
0
 40
0
 40
0
 40
0
 40
1
 40
1
 40
1
 40
1
 10
1866.935153
 20
937.789377
 30
0.0
 10
1856.805154
 20
937.582377
 30
0.0
 10
1863.007153
 20
951.850376
 30
0.0
 10
1854.944154
 20
952.264376
 30
0.0
  0
SPLINE
  5
101
100
AcDbEntity
  8
H0109_Printing_01
 62
1
100
AcDbSpline
 70
8
 71
3
 72
8
 73
4
 74
0
 40
0
 40
0
 40
0
 40
0
 40
1
 40
1
 40
1
 40
1
 10
1854.944154
 20
952.264376
 30
0.0
 10
1846.881154
 20
952.678376
 30
0.0
 10
1840.059154
 20
955.779376
 30
0.0
 10
1839.645154
 20
971.081376
 30
0.0
  0
SPLINE
  5
102
100
AcDbEntity
  8
H0109_Printing_01
 62
1
100
AcDbSpline
 70
8
 71
3
 72
8
 73
4
 74
0
 40
0
 40
0
 40
0
 40
0
 40
1
 40
1
 40
1
 40
1
 10
1839.645154
 20
971.081376
 30
0.0
 10
1839.232154
 20
986.383375
 30
0.0
 10
1846.881154
 20
990.519375
 30
0.0
 10
1846.881154
 20
990.519375
 30
0.0
  0
SPLINE
  5
103
100
AcDbEntity
  8
H0109_Printing_01
 62
1
100
AcDbSpline
 70
8
 71
3
 72
8
 73
4
 74
0
 40
0
 40
0
 40
0
 40
0
 40
1
 40
1
 40
1
 40
1
 10
1846.881154
 20
990.519375
 30
0.0
 10
1846.881154
 20
990.519375
 30
0.0
 10
1843.780154
 20
987.523375
 30
0.0
 10
1849.776154
 20
977.905376
 30
0.0
  0
SPLINE
  5
104
100
AcDbEntity
  8
H0109_Printing_01
 62
1
100
AcDbSpline
 70
8
 71
3
 72
8
 73
4
 74
0
 40
0
 40
0
 40
0
 40
0
 40
1
 40
1
 40
1
 40
1
 10
1849.776154
 20
977.905376
 30
0.0
 10
1855.771154
 20
968.288376
 30
0.0
 10
1879.339153
 20
959.708376
 30
0.0
 10
1879.546153
 20
949.783376
 30
0.0
  0
SPLINE
  5
105
100
AcDbEntity
  8
H0109_Printing_01
 62
1
100
AcDbSpline
 70
8
 71
3
 72
8
 73
4
 74
0
 40
0
 40
0
 40
0
 40
0
 40
1
 40
1
 40
1
 40
1
 10
1879.546153
 20
949.783376
 30
0.0
 10
1879.753153
 20
939.857377
 30
0.0
 10
1877.065153
 20
937.996377
 30
0.0
 10
1866.935153
 20
937.789377
 30
0.0
  0
LWPOLYLINE
  5
106
100
AcDbEntity
  8
H0109_Printing_01
 62
1
100
AcDbPolyline
 90
1
 70
1
 10
1866.935153
 20
937.789377
 30
0.0
  0
SPLINE
  5
107
100
AcDbEntity
  8
H0109_Printing_01
 62
1
100
AcDbSpline
 70
8
 71
3
 72
8
 73
4
 74
0
 40
0
 40
0
 40
0
 40
0
 40
1
 40
1
 40
1
 40
1
 10
1719.009157
 20
1036.342374
 30
0.0
 10
1719.009157
 20
1036.342374
 30
0.0
 10
1731.008157
 20
1024.340374
 30
0.0
 10
1736.407157
 20
1020.140374
 30
0.0
  0
SPLINE
  5
108
100
AcDbEntity
  8
H0109_Printing_01
 62
1
100
AcDbSpline
 70
8
 71
3
 72
8
 73
4
 74
0
 40
0
 40
0
 40
0
 40
0
 40
1
 40
1
 40
1
 40
1
 10
1736.407157
 20
1020.140374
 30
0.0
 10
1741.807156
 20
1015.939375
 30
0.0
 10
1735.508157
 20
1007.538375
 30
0.0
 10
1742.707156
 20
1003.937375
 30
0.0
  0
SPLINE
  5
109
100
AcDbEntity
  8
H0109_Printing_01
 62
1
100
AcDbSpline
 70
8
 71
3
 72
8
 73
4
 74
0
 40
0
 40
0
 40
0
 40
0
 40
1
 40
1
 40
1
 40
1
 10
1742.707156
 20
1003.937375
 30
0.0
 10
1749.906156
 20
1000.337375
 30
0.0
 10
1749.906156
 20
1002.137375
 30
0.0
 10
1749.906156
 20
1002.137375
 30
0.0
  0
LWPOLYLINE
  5
10a
100
AcDbEntity
  8
H0109_Printing_01
 62
1
100
AcDbPolyline
 90
5
 70
0
 10
1749.906156
 20
956.532376
 30
0.0
 10
1688.112158
 20
1033.941374
 30
0.0
 10
1688.112158
 20
1174.059371
 30
0.0
 10
1719.009157
 20
1174.059371
 30
0.0
 10
1719.009157
 20
1036.342374
 30
0.0
  0
LWPOLYLINE
  5
10b
100
AcDbEntity
  8
H0109_Printing_01
 62
1
100
AcDbPolyline
 90
2
 70
0
 10
1749.906156
 20
1002.137375
 30
0.0
 10
1749.906156
 20
956.532376
 30
0.0
  0
SPLINE
  5
10c
100
AcDbEntity
  8
H0109_Printing_01
 62
1
100
AcDbSpline
 70
8
 71
3
 72
8
 73
4
 74
0
 40
0
 40
0
 40
0
 40
0
 40
1
 40
1
 40
1
 40
1
 10
1647.466159
 20
971.908376
 30
0.0
 10
1647.466159
 20
976.859376
 30
0.0
 10
1646.566159
 20
980.910375
 30
0.0
 10
1634.417159
 20
980.910375
 30
0.0
  0
LWPOLYLINE
  5
10d
100
AcDbEntity
  8
H0109_Printing_01
 62
1
100
AcDbPolyline
 90
10
 70
0
 10
1721.709157
 20
553.581386
 30
0.0
 10
1689.312158
 20
553.581386
 30
0.0
 10
1689.312158
 20
926.228377
 30
0.0
 10
1658.602159
 20
956.944376
 30
0.0
 10
1640.941159
 20
944.680376
 30
0.0
 10
1640.941159
 20
935.454377
 30
0.0
 10
1608.995160
 20
935.454377
 30
0.0
 10
1608.995160
 20
958.632376
 30
0.0
 10
1647.466159
 20
958.632376
 30
0.0
 10
1647.466159
 20
971.908376
 30
0.0
  0
SPLINE
  5
10e
100
AcDbEntity
  8
H0109_Printing_01
 62
1
100
AcDbSpline
 70
8
 71
3
 72
8
 73
4
 74
0
 40
0
 40
0
 40
0
 40
0
 40
1
 40
1
 40
1
 40
1
 10
1641.617159
 20
999.812375
 30
0.0
 10
1641.617159
 20
999.812375
 30
0.0
 10
1641.392159
 20
995.311375
 30
0.0
 10
1647.466159
 20
991.036375
 30
0.0
  0
SPLINE
  5
10f
100
AcDbEntity
  8
H0109_Printing_01
 62
1
100
AcDbSpline
 70
8
 71
3
 72
8
 73
4
 74
0
 40
0
 40
0
 40
0
 40
0
 40
1
 40
1
 40
1
 40
1
 10
1647.466159
 20
991.036375
 30
0.0
 10
1653.540159
 20
986.760375
 30
0.0
 10
1662.539158
 20
988.786375
 30
0.0
 10
1662.539158
 20
988.786375
 30
0.0
  0
LWPOLYLINE
  5
110
100
AcDbEntity
  8
H0109_Printing_01
 62
1
100
AcDbPolyline
 90
4
 70
0
 10
1634.417159
 20
980.910375
 30
0.0
 10
1608.995160
 20
980.910375
 30
0.0
 10
1608.995160
 20
999.812375
 30
0.0
 10
1641.617159
 20
999.812375
 30
0.0
  0
LWPOLYLINE
  5
111
100
AcDbEntity
  8
H0109_Printing_01
 62
1
100
AcDbPolyline
 90
3
 70
0
 10
1662.539158
 20
988.786375
 30
0.0
 10
1721.709157
 20
912.726377
 30
0.0
 10
1721.709157
 20
553.581386
 30
0.0
  0
SPLINE
  5
112
100
AcDbEntity
  8
H0109_Printing_01
 62
1
100
AcDbSpline
 70
8
 71
3
 72
8
 73
4
 74
0
 40
0
 40
0
 40
0
 40
0
 40
1
 40
1
 40
1
 40
1
 10
1702.257157
 20
1210.316370
 30
0.0
 10
1709.509157
 20
1210.316370
 30
0.0
 10
1715.388157
 20
1204.436370
 30
0.0
 10
1715.388157
 20
1197.183370
 30
0.0
  0
SPLINE
  5
113
100
AcDbEntity
  8
H0109_Printing_01
 62
1
100
AcDbSpline
 70
8
 71
3
 72
8
 73
4
 74
0
 40
0
 40
0
 40
0
 40
0
 40
1
 40
1
 40
1
 40
1
 10
1715.388157
 20
1197.183370
 30
0.0
 10
1715.388157
 20
1189.930370
 30
0.0
 10
1709.509157
 20
1184.051370
 30
0.0
 10
1702.257157
 20
1184.051370
 30
0.0
  0
SPLINE
  5
114
100
AcDbEntity
  8
H0109_Printing_01
 62
1
100
AcDbSpline
 70
8
 71
3
 72
8
 73
4
 74
0
 40
0
 40
0
 40
0
 40
0
 40
1
 40
1
 40
1
 40
1
 10
1702.257157
 20
1184.051370
 30
0.0
 10
1695.005158
 20
1184.051370
 30
0.0
 10
1689.127158
 20
1189.930370
 30
0.0
 10
1689.127158
 20
1197.183370
 30
0.0
  0
SPLINE
  5
115
100
AcDbEntity
  8
H0109_Printing_01
 62
1
100
AcDbSpline
 70
8
 71
3
 72
8
 73
4
 74
0
 40
0
 40
0
 40
0
 40
0
 40
1
 40
1
 40
1
 40
1
 10
1689.127158
 20
1197.183370
 30
0.0
 10
1689.127158
 20
1204.436370
 30
0.0
 10
1695.005158
 20
1210.316370
 30
0.0
 10
1702.257157
 20
1210.316370
 30
0.0
  0
LWPOLYLINE
  5
116
100
AcDbEntity
  8
H0109_Printing_01
 62
1
100
AcDbPolyline
 90
4
 70
1
 10
1578.623161
 20
935.454377
 30
0.0
 10
1561.525161
 20
935.454377
 30
0.0
 10
1561.525161
 20
999.812375
 30
0.0
 10
1578.623161
 20
999.812375
 30
0.0
  0
LWPOLYLINE
  5
117
100
AcDbEntity
  8
H0109_Printing_01
 62
1
100
AcDbPolyline
 90
1
 70
1
 10
1702.257157
 20
1210.316370
 30
0.0
  0
SPLINE
  5
118
100
AcDbEntity
  8
H0109_Printing_01
 62
1
100
AcDbSpline
 70
8
 71
3
 72
8
 73
4
 74
0
 40
0
 40
0
 40
0
 40
0
 40
1
 40
1
 40
1
 40
1
 10
1925.390152
 20
1007.238375
 30
0.0
 10
1925.390152
 20
1019.839375
 30
0.0
 10
1918.490152
 20
1024.940374
 30
0.0
 10
1902.592152
 20
1024.940374
 30
0.0
  0
LWPOLYLINE
  5
119
100
AcDbEntity
  8
H0109_Printing_01
 62
1
100
AcDbPolyline
 90
2
 70
0
 10
1925.390152
 20
978.734376
 30
0.0
 10
1925.390152
 20
1007.238375
 30
0.0
  0
SPLINE
  5
11a
100
AcDbEntity
  8
H0109_Printing_01
 62
1
100
AcDbSpline
 70
8
 71
3
 72
8
 73
4
 74
0
 40
0
 40
0
 40
0
 40
0
 40
1
 40
1
 40
1
 40
1
 10
1856.396154
 20
1024.940374
 30
0.0
 10
1850.997154
 20
1024.940374
 30
0.0
 10
1850.697154
 20
1018.639375
 30
0.0
 10
1850.697154
 20
1018.639375
 30
0.0
  0
SPLINE
  5
11b
100
AcDbEntity
  8
H0109_Printing_01
 62
1
100
AcDbSpline
 70
8
 71
3
 72
8
 73
4
 74
0
 40
0
 40
0
 40
0
 40
0
 40
1
 40
1
 40
1
 40
1
 10
1850.697154
 20
1018.639375
 30
0.0
 10
1850.697154
 20
1018.639375
 30
0.0
 10
1849.797154
 20
1024.940374
 30
0.0
 10
1845.297154
 20
1024.940374
 30
0.0
  0
LWPOLYLINE
  5
11c
100
AcDbEntity
  8
H0109_Printing_01
 62
1
100
AcDbPolyline
 90
2
 70
0
 10
1902.592152
 20
1024.940374
 30
0.0
 10
1856.396154
 20
1024.940374
 30
0.0
  0
SPLINE
  5
11d
100
AcDbEntity
  8
H0109_Printing_01
 62
1
100
AcDbSpline
 70
8
 71
3
 72
8
 73
4
 74
0
 40
0
 40
0
 40
0
 40
0
 40
1
 40
1
 40
1
 40
1
 10
1800.002155
 20
1008.138375
 30
0.0
 10
1800.002155
 20
1003.637375
 30
0.0
 10
1812.300155
 20
1007.238375
 30
0.0
 10
1812.300155
 20
995.836375
 30
0.0
  0
LWPOLYLINE
  5
11e
100
AcDbEntity
  8
H0109_Printing_01
 62
1
100
AcDbPolyline
 90
3
 70
0
 10
1845.297154
 20
1024.940374
 30
0.0
 10
1800.002155
 20
1024.940374
 30
0.0
 10
1800.002155
 20
1008.138375
 30
0.0
  0
SPLINE
  5
11f
100
AcDbEntity
  8
H0109_Printing_01
 62
1
100
AcDbSpline
 70
8
 71
3
 72
8
 73
4
 74
0
 40
0
 40
0
 40
0
 40
0
 40
1
 40
1
 40
1
 40
1
 10
1812.300155
 20
941.305376
 30
0.0
 10
1812.300155
 20
936.354377
 30
0.0
 10
1812.375155
 20
936.129377
 30
0.0
 10
1806.751155
 20
936.129377
 30
0.0
  0
LWPOLYLINE
  5
120
100
AcDbEntity
  8
H0109_Printing_01
 62
1
100
AcDbPolyline
 90
2
 70
0
 10
1812.300155
 20
995.836375
 30
0.0
 10
1812.300155
 20
941.305376
 30
0.0
  0
SPLINE
  5
121
100
AcDbEntity
  8
H0109_Printing_01
 62
1
100
AcDbSpline
 70
8
 71
3
 72
8
 73
4
 74
0
 40
0
 40
0
 40
0
 40
0
 40
1
 40
1
 40
1
 40
1
 10
1787.853155
 20
936.129377
 30
0.0
 10
1784.478155
 20
936.129377
 30
0.0
 10
1783.578155
 20
937.029377
 30
0.0
 10
1783.578155
 20
943.330376
 30
0.0
  0
LWPOLYLINE
  5
122
100
AcDbEntity
  8
H0109_Printing_01
 62
1
100
AcDbPolyline
 90
2
 70
0
 10
1806.751155
 20
936.129377
 30
0.0
 10
1787.853155
 20
936.129377
 30
0.0
  0
SPLINE
  5
123
100
AcDbEntity
  8
H0109_Printing_01
 62
1
100
AcDbSpline
 70
8
 71
3
 72
8
 73
4
 74
0
 40
0
 40
0
 40
0
 40
0
 40
1
 40
1
 40
1
 40
1
 10
1797.302155
 20
1001.612375
 30
0.0
 10
1797.302155
 20
1001.612375
 30
0.0
 10
1796.177155
 20
1024.940374
 30
0.0
 10
1780.428155
 20
1024.940374
 30
0.0
  0
LWPOLYLINE
  5
124
100
AcDbEntity
  8
H0109_Printing_01
 62
1
100
AcDbPolyline
 90
3
 70
0
 10
1783.578155
 20
943.330376
 30
0.0
 10
1783.578155
 20
1001.612375
 30
0.0
 10
1797.302155
 20
1001.612375
 30
0.0
  0
SPLINE
  5
125
100
AcDbEntity
  8
H0109_Printing_01
 62
1
100
AcDbSpline
 70
8
 71
3
 72
8
 73
4
 74
0
 40
0
 40
0
 40
0
 40
0
 40
1
 40
1
 40
1
 40
1
 10
1760.405156
 20
1197.162370
 30
0.0
 10
1760.405156
 20
1212.164370
 30
0.0
 10
1761.005156
 20
1219.665370
 30
0.0
 10
1743.307156
 20
1219.665370
 30
0.0
  0
LWPOLYLINE
  5
126
100
AcDbEntity
  8
H0109_Printing_01
 62
1
100
AcDbPolyline
 90
3
 70
0
 10
1780.428155
 20
1024.940374
 30
0.0
 10
1760.405156
 20
1024.940374
 30
0.0
 10
1760.405156
 20
1197.162370
 30
0.0
  0
SPLINE
  5
127
100
AcDbEntity
  8
H0109_Printing_01
 62
1
100
AcDbSpline
 70
8
 71
3
 72
8
 73
4
 74
0
 40
0
 40
0
 40
0
 40
0
 40
1
 40
1
 40
1
 40
1
 10
1665.914158
 20
1219.665370
 30
0.0
 10
1652.415159
 20
1219.665370
 30
0.0
 10
1647.316159
 20
1219.065370
 30
0.0
 10
1647.316159
 20
1201.062370
 30
0.0
  0
LWPOLYLINE
  5
128
100
AcDbEntity
  8
H0109_Printing_01
 62
1
100
AcDbPolyline
 90
2
 70
0
 10
1743.307156
 20
1219.665370
 30
0.0
 10
1665.914158
 20
1219.665370
 30
0.0
  0
SPLINE
  5
129
100
AcDbEntity
  8
H0109_Printing_01
 62
1
100
AcDbSpline
 70
8
 71
3
 72
8
 73
4
 74
0
 40
0
 40
0
 40
0
 40
0
 40
1
 40
1
 40
1
 40
1
 10
1495.530163
 20
1024.040374
 30
0.0
 10
1485.631163
 20
1024.040374
 30
0.0
 10
1482.631163
 20
1021.640374
 30
0.0
 10
1482.631163
 20
1011.138375
 30
0.0
  0
LWPOLYLINE
  5
12a
100
AcDbEntity
  8
H0109_Printing_01
 62
1
100
AcDbPolyline
 90
3
 70
0
 10
1647.316159
 20
1201.062370
 30
0.0
 10
1647.316159
 20
1024.040374
 30
0.0
 10
1495.530163
 20
1024.040374
 30
0.0
  0
SPLINE
  5
12b
100
AcDbEntity
  8
H0109_Printing_01
 62
1
100
AcDbSpline
 70
8
 71
3
 72
8
 73
4
 74
0
 40
0
 40
0
 40
0
 40
0
 40
1
 40
1
 40
1
 40
1
 10
1482.631163
 20
991.936375
 30
0.0
 10
1482.631163
 20
985.035375
 30
0.0
 10
1485.931163
 20
979.634376
 30
0.0
 10
1497.330163
 20
979.634376
 30
0.0
  0
SPLINE
  5
12c
100
AcDbEntity
  8
H0109_Printing_01
 62
1
100
AcDbSpline
 70
8
 71
3
 72
8
 73
4
 74
0
 40
0
 40
0
 40
0
 40
0
 40
1
 40
1
 40
1
 40
1
 10
1497.330163
 20
979.634376
 30
0.0
 10
1508.729162
 20
979.634376
 30
0.0
 10
1509.157162
 20
980.248375
 30
0.0
 10
1509.157162
 20
980.248375
 30
0.0
  0
LWPOLYLINE
  5
12d
100
AcDbEntity
  8
H0109_Printing_01
 62
1
100
AcDbPolyline
 90
2
 70
0
 10
1482.631163
 20
1011.138375
 30
0.0
 10
1482.631163
 20
991.936375
 30
0.0
  0
SPLINE
  5
12e
100
AcDbEntity
  8
H0109_Printing_01
 62
1
100
AcDbSpline
 70
8
 71
3
 72
8
 73
4
 74
0
 40
0
 40
0
 40
0
 40
0
 40
1
 40
1
 40
1
 40
1
 10
1525.851162
 20
949.849376
 30
0.0
 10
1525.851162
 20
935.292377
 30
0.0
 10
1512.581162
 20
934.864377
 30
0.0
 10
1512.581162
 20
948.136376
 30
0.0
  0
LWPOLYLINE
  5
12f
100
AcDbEntity
  8
H0109_Printing_01
 62
1
100
AcDbPolyline
 90
4
 70
0
 10
1509.157162
 20
980.248375
 30
0.0
 10
1509.157162
 20
998.659375
 30
0.0
 10
1525.851162
 20
998.659375
 30
0.0
 10
1525.851162
 20
949.849376
 30
0.0
  0
SPLINE
  5
130
100
AcDbEntity
  8
H0109_Printing_01
 62
1
100
AcDbSpline
 70
8
 71
3
 72
8
 73
4
 74
0
 40
0
 40
0
 40
0
 40
0
 40
1
 40
1
 40
1
 40
1
 10
1479.192163
 20
955.843376
 30
0.0
 10
1479.192163
 20
955.843376
 30
0.0
 10
1476.032163
 20
915.426377
 30
0.0
 10
1512.929162
 20
915.426377
 30
0.0
  0
LWPOLYLINE
  5
131
100
AcDbEntity
  8
H0109_Printing_01
 62
1
100
AcDbPolyline
 90
3
 70
0
 10
1512.581162
 20
948.136376
 30
0.0
 10
1504.876162
 20
955.843376
 30
0.0
 10
1479.192163
 20
955.843376
 30
0.0
  0
SPLINE
  5
132
100
AcDbEntity
  8
H0109_Printing_01
 62
1
100
AcDbSpline
 70
8
 71
3
 72
8
 73
4
 74
0
 40
0
 40
0
 40
0
 40
0
 40
1
 40
1
 40
1
 40
1
 10
1650.016159
 20
501.374387
 30
0.0
 10
1650.016159
 20
482.472388
 30
0.0
 10
1655.115159
 20
483.672388
 30
0.0
 10
1667.714158
 20
483.672388
 30
0.0
  0
LWPOLYLINE
  5
133
100
AcDbEntity
  8
H0109_Printing_01
 62
1
100
AcDbPolyline
 90
3
 70
0
 10
1512.929162
 20
915.426377
 30
0.0
 10
1650.016159
 20
915.426377
 30
0.0
 10
1650.016159
 20
501.374387
 30
0.0
  0
SPLINE
  5
134
100
AcDbEntity
  8
H0109_Printing_01
 62
1
100
AcDbSpline
 70
8
 71
3
 72
8
 73
4
 74
0
 40
0
 40
0
 40
0
 40
0
 40
1
 40
1
 40
1
 40
1
 10
1754.406156
 20
483.672388
 30
0.0
 10
1765.805156
 20
483.672388
 30
0.0
 10
1762.805156
 20
490.873388
 30
0.0
 10
1762.805156
 20
500.474387
 30
0.0
  0
LWPOLYLINE
  5
135
100
AcDbEntity
  8
H0109_Printing_01
 62
1
100
AcDbPolyline
 90
2
 70
0
 10
1667.714158
 20
483.672388
 30
0.0
 10
1754.406156
 20
483.672388
 30
0.0
  0
SPLINE
  5
136
100
AcDbEntity
  8
H0109_Printing_01
 62
1
100
AcDbSpline
 70
8
 71
3
 72
8
 73
4
 74
0
 40
0
 40
0
 40
0
 40
0
 40
1
 40
1
 40
1
 40
1
 10
1823.399154
 20
915.426377
 30
0.0
 10
1833.898154
 20
915.426377
 30
0.0
 10
1842.597154
 20
922.627377
 30
0.0
 10
1842.597154
 20
922.627377
 30
0.0
  0
SPLINE
  5
137
100
AcDbEntity
  8
H0109_Printing_01
 62
1
100
AcDbSpline
 70
8
 71
3
 72
8
 73
4
 74
0
 40
0
 40
0
 40
0
 40
0
 40
1
 40
1
 40
1
 40
1
 10
1842.597154
 20
922.627377
 30
0.0
 10
1842.597154
 20
922.627377
 30
0.0
 10
1848.297154
 20
914.826377
 30
0.0
 10
1865.095153
 20
914.826377
 30
0.0
  0
LWPOLYLINE
  5
138
100
AcDbEntity
  8
H0109_Printing_01
 62
1
100
AcDbPolyline
 90
3
 70
0
 10
1762.805156
 20
500.474387
 30
0.0
 10
1762.805156
 20
915.426377
 30
0.0
 10
1823.399154
 20
915.426377
 30
0.0
  0
SPLINE
  5
139
100
AcDbEntity
  8
H0109_Printing_01
 62
1
100
AcDbSpline
 70
8
 71
3
 72
8
 73
4
 74
0
 40
0
 40
0
 40
0
 40
0
 40
1
 40
1
 40
1
 40
1
 10
1899.892153
 20
914.826377
 30
0.0
 10
1912.191152
 20
914.826377
 30
0.0
 10
1925.390152
 20
919.627377
 30
0.0
 10
1925.390152
 20
937.029377
 30
0.0
  0
SPLINE
  5
13a
100
AcDbEntity
  8
H0109_Printing_01
 62
1
100
AcDbSpline
 70
8
 71
3
 72
8
 73
4
 74
0
 40
0
 40
0
 40
0
 40
0
 40
1
 40
1
 40
1
 40
1
 10
1925.390152
 20
937.029377
 30
0.0
 10
1925.390152
 20
954.431376
 30
0.0
 10
1880.994153
 20
977.834376
 30
0.0
 10
1880.994153
 20
994.336375
 30
0.0
  0
SPLINE
  5
13b
100
AcDbEntity
  8
H0109_Printing_01
 62
1
100
AcDbSpline
 70
8
 71
3
 72
8
 73
4
 74
0
 40
0
 40
0
 40
0
 40
0
 40
1
 40
1
 40
1
 40
1
 10
1880.994153
 20
994.336375
 30
0.0
 10
1880.994153
 20
1010.838375
 30
0.0
 10
1904.692152
 20
1005.738375
 30
0.0
 10
1904.692152
 20
989.536375
 30
0.0
  0
LWPOLYLINE
  5
13c
100
AcDbEntity
  8
H0109_Printing_01
 62
1
100
AcDbPolyline
 90
2
 70
0
 10
1865.095153
 20
914.826377
 30
0.0
 10
1899.892153
 20
914.826377
 30
0.0
  0
LWPOLYLINE
  5
13d
100
AcDbEntity
  8
H0109_Printing_01
 62
1
100
AcDbPolyline
 90
3
 70
0
 10
1904.692152
 20
989.536375
 30
0.0
 10
1904.692152
 20
978.734376
 30
0.0
 10
1925.390152
 20
978.734376
 30
0.0
  0
ENDSEC
  0
SECTION
  2
OBJECTS
  0
DICTIONARY
  5
C
330
0
100
AcDbDictionary
  3
ACAD_GROUP
350
D
  3
ACAD_MLINESTYLE
350
17
  0
DICTIONARY
  5
D
330
C
100
AcDbDictionary
  0
DICTIONARY
  5
1A
330
C
100
AcDbDictionary
  0
DICTIONARY
  5
17
330
C
100
AcDbDictionary
  3
STANDARD
350
18
  0
DICTIONARY
  5
19
330
C
100
AcDbDictionary
  0
ENDSEC
  0
EOF
