  0
SECTION
  2
HEADER
  9
$ACADVER
  1
AC1014
  9
$ACADMAINTVER
 70
     9
  9
$DWGCODEPAGE
  3
ANSI_1252
  9
$INSBASE
 10
0.0
 20
0.0
 30
0.0
  9
$EXTMIN
 10
1.000000000000000E+20
 20
1.000000000000000E+20
 30
1.000000000000000E+20
  9
$EXTMAX
 10
-1.000000000000000E+20
 20
-1.000000000000000E+20
 30
-1.000000000000000E+20
  9
$LIMMIN
 10
0.0
 20
0.0
  9
$LIMMAX
 10
12.0
 20
9.0
  9
$ORTHOMODE
 70
     0
  9
$REGENMODE
 70
     1
  9
$FILLMODE
 70
     1
  9
$QTEXTMODE
 70
     0
  9
$MIRRTEXT
 70
     1
  9
$DRAGMODE
 70
     2
  9
$LTSCALE
 40
1.0
  9
$OSMODE
 70
    37
  9
$ATTMODE
 70
     1
  9
$TEXTSIZE
 40
0.2
  9
$TRACEWID
 40
0.05
  9
$TEXTSTYLE
  7
STANDARD
  9
$CLAYER
  8
0
  9
$CELTYPE
  6
BYLAYER
  9
$CECOLOR
 62
   256
  9
$CELTSCALE
 40
1.0
  9
$DELOBJ
 70
     1
  9
$DISPSILH
 70
     0
  9
$DIMSCALE
 40
1.0
  9
$DIMASZ
 40
0.18
  9
$DIMEXO
 40
0.0625
  9
$DIMDLI
 40
0.38
  9
$DIMRND
 40
0.0
  9
$DIMDLE
 40
0.0
  9
$DIMEXE
 40
0.18
  9
$DIMTP
 40
0.0
  9
$DIMTM
 40
0.0
  9
$DIMTXT
 40
0.18
  9
$DIMCEN
 40
0.09
  9
$DIMTSZ
 40
0.0
  9
$DIMTOL
 70
     0
  9
$DIMLIM
 70
     0
  9
$DIMTIH
 70
     1
  9
$DIMTOH
 70
     1
  9
$DIMSE1
 70
     0
  9
$DIMSE2
 70
     0
  9
$DIMTAD
 70
     0
  9
$DIMZIN
 70
     0
  9
$DIMBLK
  1

  9
$DIMASO
 70
     1
  9
$DIMSHO
 70
     1
  9
$DIMPOST
  1

  9
$DIMAPOST
  1

  9
$DIMALT
 70
     0
  9
$DIMALTD
 70
     2
  9
$DIMALTF
 40
25.4
  9
$DIMLFAC
 40
1.0
  9
$DIMTOFL
 70
     0
  9
$DIMTVP
 40
0.0
  9
$DIMTIX
 70
     0
  9
$DIMSOXD
 70
     0
  9
$DIMSAH
 70
     0
  9
$DIMBLK1
  1

  9
$DIMBLK2
  1

  9
$DIMSTYLE
  2
STANDARD
  9
$DIMCLRD
 70
     0
  9
$DIMCLRE
 70
     0
  9
$DIMCLRT
 70
     0
  9
$DIMTFAC
 40
1.0
  9
$DIMGAP
 40
0.09
  9
$DIMJUST
 70
     0
  9
$DIMSD1
 70
     0
  9
$DIMSD2
 70
     0
  9
$DIMTOLJ
 70
     1
  9
$DIMTZIN
 70
     0
  9
$DIMALTZ
 70
     0
  9
$DIMALTTZ
 70
     0
  9
$DIMFIT
 70
     3
  9
$DIMUPT
 70
     0
  9
$DIMUNIT
 70
     2
  9
$DIMDEC
 70
     4
  9
$DIMTDEC
 70
     4
  9
$DIMALTU
 70
     2
  9
$DIMALTTD
 70
     2
  9
$DIMTXSTY
  7
STANDARD
  9
$DIMAUNIT
 70
     0
  9
$LUNITS
 70
     2
  9
$LUPREC
 70
     4
  9
$SKETCHINC
 40
0.1
  9
$FILLETRAD
 40
0.5
  9
$AUNITS
 70
     0
  9
$AUPREC
 70
     0
  9
$MENU
  1
.
  9
$ELEVATION
 40
0.0
  9
$PELEVATION
 40
0.0
  9
$THICKNESS
 40
0.0
  9
$LIMCHECK
 70
     0
  9
$CHAMFERA
 40
0.5
  9
$CHAMFERB
 40
0.5
  9
$CHAMFERC
 40
1.0
  9
$CHAMFERD
 40
0.0
  9
$SKPOLY
 70
     0
  9
$TDCREATE
 40
2455572.89661331
  9
$TDUPDATE
 40
2455572.896613322
  9
$TDINDWG
 40
0.0000000116
  9
$TDUSRTIMER
 40
0.0000000116
  9
$USRTIMER
 70
     1
  9
$ANGBASE
 50
0.0
  9
$ANGDIR
 70
     0
  9
$PDMODE
 70
     0
  9
$PDSIZE
 40
0.0
  9
$PLINEWID
 40
0.0
  9
$COORDS
 70
     1
  9
$SPLFRAME
 70
     0
  9
$SPLINETYPE
 70
     6
  9
$SPLINESEGS
 70
     8
  9
$ATTDIA
 70
     0
  9
$ATTREQ
 70
     1
  9
$HANDLING
 70
     1
  9
$HANDSEED
  5
2AF
  9
$SURFTAB1
 70
     6
  9
$SURFTAB2
 70
     6
  9
$SURFTYPE
 70
     6
  9
$SURFU
 70
     6
  9
$SURFV
 70
     6
  9
$UCSNAME
  2

  9
$UCSORG
 10
0.0
 20
0.0
 30
0.0
  9
$UCSXDIR
 10
1.0
 20
0.0
 30
0.0
  9
$UCSYDIR
 10
0.0
 20
1.0
 30
0.0
  9
$PUCSNAME
  2

  9
$PUCSORG
 10
0.0
 20
0.0
 30
0.0
  9
$PUCSXDIR
 10
1.0
 20
0.0
 30
0.0
  9
$PUCSYDIR
 10
0.0
 20
1.0
 30
0.0
  9
$USERI1
 70
     0
  9
$USERI2
 70
     0
  9
$USERI3
 70
     0
  9
$USERI4
 70
     0
  9
$USERI5
 70
     0
  9
$USERR1
 40
0.0
  9
$USERR2
 40
0.0
  9
$USERR3
 40
0.0
  9
$USERR4
 40
0.0
  9
$USERR5
 40
0.0
  9
$WORLDVIEW
 70
     1
  9
$SHADEDGE
 70
     3
  9
$SHADEDIF
 70
    70
  9
$TILEMODE
 70
     1
  9
$MAXACTVP
 70
    64
  9
$PINSBASE
 10
0.0
 20
0.0
 30
0.0
  9
$PLIMCHECK
 70
     0
  9
$PEXTMIN
 10
1.000000000000000E+20
 20
1.000000000000000E+20
 30
1.000000000000000E+20
  9
$PEXTMAX
 10
-1.000000000000000E+20
 20
-1.000000000000000E+20
 30
-1.000000000000000E+20
  9
$PLIMMIN
 10
0.0
 20
0.0
  9
$PLIMMAX
 10
12.0
 20
9.0
  9
$UNITMODE
 70
     0
  9
$VISRETAIN
 70
     1
  9
$PLINEGEN
 70
     0
  9
$PSLTSCALE
 70
     1
  9
$TREEDEPTH
 70
  3020
  9
$PICKSTYLE
 70
     1
  9
$CMLSTYLE
  2
STANDARD
  9
$CMLJUST
 70
     0
  9
$CMLSCALE
 40
1.0
  9
$PROXYGRAPHICS
 70
     1
  9
$MEASUREMENT
 70
     0
  0
ENDSEC
  0
SECTION
  2
CLASSES
  0
CLASS
  1
ACDBDICTIONARYWDFLT
  2
AcDbDictionaryWithDefault
  3
ObjectDBX Classes
 90
        0
280
     0
281
     0
  0
CLASS
  1
VISUALSTYLE
  2
AcDbVisualStyle
  3
ObjectDBX Classes
 90
     4095
280
     0
281
     0
  0
CLASS
  1
SCALE
  2
AcDbScale
  3
ObjectDBX Classes
 90
     1153
280
     0
281
     0
  0
CLASS
  1
DICTIONARYVAR
  2
AcDbDictionaryVar
  3
ObjectDBX Classes
 90
        0
280
     0
281
     0
  0
CLASS
  1
XRECORD
  2
AcDbXrecord
  3
AutoCAD 2000
 90
        0
280
     0
281
     0
  0
CLASS
  1
LWPOLYLINE
  2
AcDbPolyline
  3
AutoCAD 2000
 90
        0
280
     0
281
     1
  0
CLASS
  1
HATCH
  2
AcDbHatch
  3
AutoCAD 2000
 90
        0
280
     0
281
     1
  0
CLASS
  1
ACDBPLACEHOLDER
  2
AcDbPlaceHolder
  3
ObjectDBX Classes
 90
        0
280
     0
281
     0
  0
CLASS
  1
LAYOUT
  2
AcDbLayout
  3
ObjectDBX Classes
 90
        0
280
     0
281
     0
  0
ENDSEC
  0
SECTION
  2
TABLES
  0
TABLE
  2
VPORT
  5
8
330
0
100
AcDbSymbolTable
 70
     1
  0
VPORT
  5
29
330
8
100
AcDbSymbolTableRecord
100
AcDbViewportTableRecord
  2
*ACTIVE
 70
     0
 10
0.0
 20
0.0
 11
1.0
 21
1.0
 12
0.0
 22
0.0
 13
0.0
 23
0.0
 14
0.5
 24
0.5
 15
0.5
 25
0.5
 16
0.0
 26
0.0
 36
1.0
 17
0.0
 27
0.0
 37
-1000.0
 40
196.5539497282755
 41
1.579185520361991
 42
50.0
 43
280.0752684039713
 44
343.4144948831402
 50
0.0
 51
0.0
 71
     0
 72
   100
 73
     1
 74
     3
 75
     0
 76
     0
 77
     0
 78
     0
  0
ENDTAB
  0
TABLE
  2
LTYPE
  5
5
330
0
100
AcDbSymbolTable
 70
     1
  0
LTYPE
  5
14
330
5
100
AcDbSymbolTableRecord
100
AcDbLinetypeTableRecord
  2
BYBLOCK
 70
     0
  3

 72
    65
 73
     0
 40
0.0
  0
LTYPE
  5
15
330
5
100
AcDbSymbolTableRecord
100
AcDbLinetypeTableRecord
  2
BYLAYER
 70
     0
  3

 72
    65
 73
     0
 40
0.0
  0
LTYPE
  5
16
330
5
100
AcDbSymbolTableRecord
100
AcDbLinetypeTableRecord
  2
CONTINUOUS
 70
     0
  3
Solid line
 72
    65
 73
     0
 40
0.0
  0
ENDTAB
  0
TABLE
  2
LAYER
  5
2
330
0
100
AcDbSymbolTable
 70
     3
  0
LAYER
  5
10
330
2
100
AcDbSymbolTableRecord
100
AcDbLayerTableRecord
  2
0
 70
     0
 62
     7
  6
CONTINUOUS
  0
LAYER
  5
5D
330
2
100
AcDbSymbolTableRecord
100
AcDbLayerTableRecord
  2
PROFILEEDGES
 70
     0
 62
     7
  6
CONTINUOUS
  0
LAYER
  5
5E
330
2
100
AcDbSymbolTableRecord
100
AcDbLayerTableRecord
  2
SECTIONCUTEDGES
 70
     0
 62
     7
  6
CONTINUOUS
  0
ENDTAB
  0
TABLE
  2
STYLE
  5
3
330
0
100
AcDbSymbolTable
 70
     1
  0
STYLE
  5
11
330
3
100
AcDbSymbolTableRecord
100
AcDbTextStyleTableRecord
  2
STANDARD
 70
     0
 40
0.0
 41
1.0
 50
0.0
 71
     0
 42
0.2
  3
txt
  4

  0
ENDTAB
  0
TABLE
  2
VIEW
  5
6
330
0
100
AcDbSymbolTable
 70
     0
  0
ENDTAB
  0
TABLE
  2
UCS
  5
7
330
0
100
AcDbSymbolTable
 70
     0
  0
ENDTAB
  0
TABLE
  2
APPID
  5
9
330
0
100
AcDbSymbolTable
 70
     1
  0
APPID
  5
12
330
9
100
AcDbSymbolTableRecord
100
AcDbRegAppTableRecord
  2
ACAD
 70
     0
  0
ENDTAB
  0
TABLE
  2
DIMSTYLE
  5
A
330
0
100
AcDbSymbolTable
 70
     1
  0
DIMSTYLE
105
27
330
A
100
AcDbSymbolTableRecord
100
AcDbDimStyleTableRecord
  2
STANDARD
 70
     0
  3

  4

  5

  6

  7

 40
1.0
 41
0.18
 42
0.0625
 43
0.38
 44
0.18
 45
0.0
 46
0.0
 47
0.0
 48
0.0
140
0.18
141
0.09
142
0.0
143
25.4
144
1.0
145
0.0
146
1.0
147
0.09
 71
     0
 72
     0
 73
     1
 74
     1
 75
     0
 76
     0
 77
     0
 78
     0
170
     0
171
     2
172
     0
173
     0
174
     0
175
     0
176
     0
177
     0
178
     0
270
     2
271
     4
272
     4
273
     2
274
     2
340
11
275
     0
280
     0
281
     0
282
     0
283
     1
284
     0
285
     0
286
     0
287
     3
288
     0
  0
ENDTAB
  0
TABLE
  2
BLOCK_RECORD
  5
1
330
0
100
AcDbSymbolTable
 70
     1
  0
BLOCK_RECORD
  5
1F
330
1
100
AcDbSymbolTableRecord
100
AcDbBlockTableRecord
  2
*MODEL_SPACE
  0
BLOCK_RECORD
  5
1B
330
1
100
AcDbSymbolTableRecord
100
AcDbBlockTableRecord
  2
*PAPER_SPACE
  0
ENDTAB
  0
ENDSEC
  0
SECTION
  2
BLOCKS
  0
BLOCK
  5
20
330
1F
100
AcDbEntity
  8
0
100
AcDbBlockBegin
  2
*MODEL_SPACE
 70
     0
 10
0.0
 20
0.0
 30
0.0
  3
*MODEL_SPACE
  1

  0
ENDBLK
  5
21
330
1F
100
AcDbEntity
  8
0
100
AcDbBlockEnd
  0
BLOCK
  5
1C
330
1B
100
AcDbEntity
 67
     1
  8
0
100
AcDbBlockBegin
  2
*PAPER_SPACE
 70
     0
 10
0.0
 20
0.0
 30
0.0
  3
*PAPER_SPACE
  1

  0
ENDBLK
  5
1D
330
1B
100
AcDbEntity
 67
     1
  8
0
100
AcDbBlockEnd
  0
ENDSEC
  0
SECTION
  2
ENTITIES
  0
LINE
  5
5F
330
1F
100
AcDbEntity
  8
0
100
AcDbLine
 10
-95.83633540718427
 20
-31.68183202354037
 30
0.0
 11
-100.3363354071843
 21
-31.68183202354051
 31
0.0
  0
LINE
  5
60
330
1F
100
AcDbEntity
  8
0
100
AcDbLine
 10
-100.3363354071843
 20
-30.48183202354043
 30
0.0
 11
-100.3363354071843
 21
-31.68183202354051
 31
0.0
  0
LINE
  5
61
330
1F
100
AcDbEntity
  8
0
100
AcDbLine
 10
-114.6944493969096
 20
-30.4818320235411
 30
0.0
 11
-100.3363354071843
 21
-30.48183202354043
 31
0.0
  0
LINE
  5
62
330
1F
100
AcDbEntity
  8
0
100
AcDbLine
 10
-114.6944493969095
 20
-31.68183202354118
 30
0.0
 11
-114.6944493969096
 21
-30.4818320235411
 31
0.0
  0
LINE
  5
63
330
1F
100
AcDbEntity
  8
0
100
AcDbLine
 10
-114.6944493969095
 20
-31.68183202354118
 30
0.0
 11
-119.1944493969095
 21
-31.68183202354127
 31
0.0
  0
LINE
  5
64
330
1F
100
AcDbEntity
  8
0
100
AcDbLine
 10
-119.1944493969096
 20
-29.9124126104648
 30
0.0
 11
-119.1944493969095
 21
-31.68183202354127
 31
0.0
  0
LINE
  5
65
330
1F
100
AcDbEntity
  8
0
100
AcDbLine
 10
-147.4376969059044
 20
-16.16936361480433
 30
0.0
 11
-119.1944493969096
 21
-29.9124126104648
 31
0.0
  0
LINE
  5
66
330
1F
100
AcDbEntity
  8
0
100
AcDbLine
 10
-119.1898070995474
 20
-2.421104229771053
 30
0.0
 11
-147.4376969059044
 21
-16.16936361480433
 31
0.0
  0
LINE
  5
67
330
1F
100
AcDbEntity
  8
0
100
AcDbLine
 10
-119.194449396911
 20
-0.4818320235413083
 30
0.0
 11
-119.1898070995474
 21
-2.421104229771053
 31
0.0
  0
LINE
  5
68
330
1F
100
AcDbEntity
  8
0
100
AcDbLine
 10
-119.194449396911
 20
-0.4818320235413083
 30
0.0
 11
-114.6944493969109
 21
-0.4818320235411377
 31
0.0
  0
LINE
  5
69
330
1F
100
AcDbEntity
  8
0
100
AcDbLine
 10
-114.6944493969108
 20
-1.681832023541247
 30
0.0
 11
-114.6944493969109
 21
-0.4818320235411377
 31
0.0
  0
LINE
  5
6A
330
1F
100
AcDbEntity
  8
0
100
AcDbLine
 10
-100.3363354071856
 20
-1.681832023540579
 30
0.0
 11
-114.6944493969108
 21
-1.681832023541247
 31
0.0
  0
LINE
  5
6B
330
1F
100
AcDbEntity
  8
0
100
AcDbLine
 10
-100.3363354071857
 20
-0.4818320235404627
 30
0.0
 11
-100.3363354071856
 21
-1.681832023540579
 31
0.0
  0
LINE
  5
6C
330
1F
100
AcDbEntity
  8
0
100
AcDbLine
 10
-100.3363354071857
 20
-0.4818320235404627
 30
0.0
 11
-95.83633540718569
 21
-0.4818320235404059
 31
0.0
  0
LINE
  5
6D
330
1F
100
AcDbEntity
  8
0
100
AcDbLine
 10
-95.83633540718569
 20
-0.4818320235404059
 30
0.0
 11
-95.83633540718546
 21
-5.076743614802382
 31
0.0
  0
LINE
  5
6E
330
1F
100
AcDbEntity
  8
0
100
AcDbLine
 10
-113.6503354071855
 20
-5.076743614803163
 30
0.0
 11
-95.83633540718546
 21
-5.076743614802382
 31
0.0
  0
LINE
  5
6F
330
1F
100
AcDbEntity
  8
0
100
AcDbLine
 10
-113.6503354071855
 20
-5.076743614803163
 30
0.0
 11
-116.1966824699513
 21
-5.901453831773921
 31
0.0
  0
LINE
  5
70
330
1F
100
AcDbEntity
  8
0
100
AcDbLine
 10
-116.1966824699513
 20
-5.901453831773921
 30
0.0
 11
-118.4841712641638
 21
-7.248226770367495
 31
0.0
  0
LINE
  5
71
330
1F
100
AcDbEntity
  8
0
100
AcDbLine
 10
-118.4841712641638
 20
-7.248226770367495
 30
0.0
 11
-120.3964964608103
 21
-9.048586960835145
 31
0.0
  0
LINE
  5
72
330
1F
100
AcDbEntity
  8
0
100
AcDbLine
 10
-120.3964964608103
 20
-9.048586960835145
 30
0.0
 11
-121.8364275896309
 21
-11.21099669386723
 31
0.0
  0
LINE
  5
73
330
1F
100
AcDbEntity
  8
0
100
AcDbLine
 10
-121.8364275896309
 20
-11.21099669386723
 30
0.0
 11
-122.7307526357223
 21
-13.62551017383978
 31
0.0
  0
LINE
  5
74
330
1F
100
AcDbEntity
  8
0
100
AcDbLine
 10
-122.7307526357223
 20
-13.62551017383978
 30
0.0
 11
-123.034000439185
 21
-16.16936361480359
 31
0.0
  0
LINE
  5
75
330
1F
100
AcDbEntity
  8
0
100
AcDbLine
 10
-123.034000439185
 20
-16.16936361480359
 30
0.0
 11
-122.7307526357221
 21
-18.71321705576731
 31
0.0
  0
LINE
  5
76
330
1F
100
AcDbEntity
  8
0
100
AcDbLine
 10
-122.7307526357221
 20
-18.71321705576731
 30
0.0
 11
-121.8364275896305
 21
-21.1277305357398
 31
0.0
  0
LINE
  5
77
330
1F
100
AcDbEntity
  8
0
100
AcDbLine
 10
-121.8364275896305
 20
-21.1277305357398
 30
0.0
 11
-120.3964964608097
 21
-23.29014026877179
 31
0.0
  0
LINE
  5
78
330
1F
100
AcDbEntity
  8
0
100
AcDbLine
 10
-120.3964964608097
 20
-23.29014026877179
 30
0.0
 11
-118.484171264163
 21
-25.09050045923924
 31
0.0
  0
LINE
  5
79
330
1F
100
AcDbEntity
  8
0
100
AcDbLine
 10
-118.484171264163
 20
-25.09050045923924
 30
0.0
 11
-116.1966824699504
 21
-26.43727339783263
 31
0.0
  0
LINE
  5
7A
330
1F
100
AcDbEntity
  8
0
100
AcDbLine
 10
-116.1966824699504
 20
-26.43727339783263
 30
0.0
 11
-113.6503354071845
 21
-27.26198361480315
 31
0.0
  0
LINE
  5
7B
330
1F
100
AcDbEntity
  8
0
100
AcDbLine
 10
-95.83633540718449
 20
-27.26198361480237
 30
0.0
 11
-113.6503354071845
 21
-27.26198361480315
 31
0.0
  0
LINE
  5
7C
330
1F
100
AcDbEntity
  8
0
100
AcDbLine
 10
-95.83633540718449
 20
-27.26198361480237
 30
0.0
 11
-95.83633540718427
 21
-31.68183202354037
 31
0.0
  0
LINE
  5
7D
330
1F
100
AcDbEntity
  8
0
100
AcDbLine
 10
-62.63633540718445
 20
-5.076743614802226
 30
0.0
 11
-62.6363354071845
 21
-0.4818320235402496
 31
0.0
  0
LINE
  5
7E
330
1F
100
AcDbEntity
  8
0
100
AcDbLine
 10
-43.77822141745889
 20
-31.68183202353988
 30
0.0
 11
-43.77822141745889
 21
-30.48183202353986
 31
0.0
  0
LINE
  5
7F
330
1F
100
AcDbEntity
  8
0
100
AcDbLine
 10
-58.13633540718416
 20
-31.68183202353988
 30
0.0
 11
-62.63633540718428
 21
-31.68183202354018
 31
0.0
  0
LINE
  5
80
330
1F
100
AcDbEntity
  8
0
100
AcDbLine
 10
-58.13633540718416
 20
-30.48183202353986
 30
0.0
 11
-58.13633540718416
 21
-31.68183202353988
 31
0.0
  0
LINE
  5
81
330
1F
100
AcDbEntity
  8
0
100
AcDbLine
 10
-43.77822141745889
 20
-30.48183202353986
 30
0.0
 11
-58.13633540718416
 21
-30.48183202353986
 31
0.0
  0
LINE
  5
82
330
1F
100
AcDbEntity
  8
0
100
AcDbLine
 10
-61.4363354071844
 20
-27.2619836148022
 30
0.0
 11
-61.43633540718446
 21
-5.076743614802218
 31
0.0
  0
LINE
  5
83
330
1F
100
AcDbEntity
  8
0
100
AcDbLine
 10
-58.13633540718416
 20
-1.681832023540167
 30
0.0
 11
-58.13633540718422
 21
-0.4818320235401572
 31
0.0
  0
LINE
  5
84
330
1F
100
AcDbEntity
  8
0
100
AcDbLine
 10
-62.6363354071845
 20
-0.4818320235402496
 30
0.0
 11
-58.13633540718422
 21
-0.4818320235401572
 31
0.0
  0
LINE
  5
85
330
1F
100
AcDbEntity
  8
0
100
AcDbLine
 10
-43.77822141745895
 20
-1.681832023539883
 30
0.0
 11
-58.13633540718416
 21
-1.681832023540167
 31
0.0
  0
LINE
  5
86
330
1F
100
AcDbEntity
  8
0
100
AcDbLine
 10
-62.63633540718445
 20
-5.076743614802226
 30
0.0
 11
-61.43633540718446
 21
-5.076743614802218
 31
0.0
  0
LINE
  5
87
330
1F
100
AcDbEntity
  8
0
100
AcDbLine
 10
-62.63633540718439
 20
-27.2619836148022
 30
0.0
 11
-61.4363354071844
 21
-27.2619836148022
 31
0.0
  0
LINE
  5
88
330
1F
100
AcDbEntity
  8
0
100
AcDbLine
 10
-11.03497390846479
 20
-16.16936361480148
 30
0.0
 11
-39.27822141745889
 21
-29.9124126104633
 31
0.0
  0
LINE
  5
89
330
1F
100
AcDbEntity
  8
0
100
AcDbLine
 10
-39.27822141745889
 20
-31.68183202353978
 30
0.0
 11
-43.77822141745889
 21
-31.68183202353988
 31
0.0
  0
LINE
  5
8A
330
1F
100
AcDbEntity
  8
0
100
AcDbLine
 10
-62.63633540718428
 20
-31.68183202354018
 30
0.0
 11
-62.63633540718439
 21
-27.2619836148022
 31
0.0
  0
LINE
  5
8B
330
1F
100
AcDbEntity
  8
0
100
AcDbLine
 10
-39.28286371482238
 20
-2.42110422976954
 30
0.0
 11
-11.03497390846479
 21
-16.16936361480148
 31
0.0
  0
LINE
  5
8C
330
1F
100
AcDbEntity
  8
0
100
AcDbLine
 10
-39.27822141745895
 20
-0.4818320235397948
 30
0.0
 11
-39.28286371482238
 21
-2.42110422976954
 31
0.0
  0
LINE
  5
8D
330
1F
100
AcDbEntity
  8
0
100
AcDbLine
 10
-39.27822141745889
 20
-29.9124126104633
 30
0.0
 11
-39.27822141745889
 21
-31.68183202353978
 31
0.0
  0
LINE
  5
8E
330
1F
100
AcDbEntity
  8
0
100
AcDbLine
 10
-43.77822141745901
 20
-0.4818320235398801
 30
0.0
 11
-39.27822141745895
 21
-0.4818320235397948
 31
0.0
  0
LINE
  5
8F
330
1F
100
AcDbEntity
  8
0
100
AcDbLine
 10
-43.77822141745901
 20
-0.4818320235398801
 30
0.0
 11
-43.77822141745895
 21
-1.681832023539883
 31
0.0
  0
LINE
  5
90
330
1F
100
AcDbEntity
  8
0
100
AcDbLine
 10
-94.83633540718415
 20
-37.18183202354032
 30
0.0
 11
-94.83633540718358
 21
-51.53994601326558
 31
0.0
  0
LINE
  5
91
330
1F
100
AcDbEntity
  8
0
100
AcDbLine
 10
-68.05618381592228
 20
-33.88183202353916
 30
0.0
 11
-90.41648699844626
 21
-33.88183202354013
 31
0.0
  0
LINE
  5
92
330
1F
100
AcDbEntity
  8
0
100
AcDbLine
 10
-64.83633540718404
 20
-37.18183202353918
 30
0.0
 11
-63.63633540718399
 21
-37.18183202353913
 31
0.0
  0
LINE
  5
93
330
1F
100
AcDbEntity
  8
0
100
AcDbLine
 10
-64.83633540718347
 20
-51.53994601326441
 30
0.0
 11
-63.63633540718342
 21
-51.53994601326436
 31
0.0
  0
LINE
  5
94
330
1F
100
AcDbEntity
  8
0
100
AcDbLine
 10
-63.63633540718342
 20
-51.53994601326436
 30
0.0
 11
-63.63633540718399
 21
-37.18183202353913
 31
0.0
  0
LINE
  5
95
330
1F
100
AcDbEntity
  8
0
100
AcDbLine
 10
-64.83633540718404
 20
-37.18183202353918
 30
0.0
 11
-64.83633540718449
 21
-32.68183202353902
 31
0.0
  0
LINE
  5
96
330
1F
100
AcDbEntity
  8
0
100
AcDbLine
 10
-90.41648699844632
 20
-32.68183202354012
 30
0.0
 11
-93.63633540718422
 21
-32.68183202354027
 31
0.0
  0
LINE
  5
97
330
1F
100
AcDbEntity
  8
0
100
AcDbLine
 10
-64.83633540718449
 20
-32.68183202353902
 30
0.0
 11
-68.05618381592234
 21
-32.68183202353916
 31
0.0
  0
LINE
  5
98
330
1F
100
AcDbEntity
  8
0
100
AcDbLine
 10
-90.41648699844632
 20
-32.68183202354012
 30
0.0
 11
-90.41648699844626
 21
-33.88183202354013
 31
0.0
  0
LINE
  5
99
330
1F
100
AcDbEntity
  8
0
100
AcDbLine
 10
-93.63633540718422
 20
-32.68183202354027
 30
0.0
 11
-93.63633540718416
 21
-37.18183202354027
 31
0.0
  0
LINE
  5
9A
330
1F
100
AcDbEntity
  8
0
100
AcDbLine
 10
-93.6363354071836
 20
-51.53994601326553
 30
0.0
 11
-94.83633540718358
 21
-51.53994601326558
 31
0.0
  0
LINE
  5
9B
330
1F
100
AcDbEntity
  8
0
100
AcDbLine
 10
-93.6363354071836
 20
-51.53994601326553
 30
0.0
 11
-93.63633540718325
 21
-57.88109965025184
 31
0.0
  0
LINE
  5
9C
330
1F
100
AcDbEntity
  8
0
100
AcDbLine
 10
-93.63633540718416
 20
-37.18183202354027
 30
0.0
 11
-94.83633540718415
 21
-37.18183202354032
 31
0.0
  0
LINE
  5
9D
330
1F
100
AcDbEntity
  8
0
100
AcDbLine
 10
-68.05618381592234
 20
-32.68183202353916
 30
0.0
 11
-68.05618381592228
 21
-33.88183202353916
 31
0.0
  0
LINE
  5
9E
330
1F
100
AcDbEntity
  8
0
100
AcDbLine
 10
-64.8363354071833
 20
-57.88183202353942
 30
0.0
 11
-93.63633540718325
 21
-57.88109965025184
 31
0.0
  0
LINE
  5
9F
330
1F
100
AcDbEntity
  8
0
100
AcDbLine
 10
-64.8363354071833
 20
-57.88183202353942
 30
0.0
 11
-64.83633540718347
 21
-51.53994601326441
 31
0.0
  0
LINE
  5
A0
330
1F
100
AcDbEntity
  8
0
100
AcDbLine
 10
-64.83633540718472
 20
0.518167976459452
 30
0.0
 11
-68.05618381592234
 21
0.5181679764597078
 31
0.0
  0
LINE
  5
A1
330
1F
100
AcDbEntity
  8
0
100
AcDbLine
 10
-68.05618381592234
 20
0.5181679764597078
 30
0.0
 11
-68.05618381592228
 21
1.71816797645922
 31
0.0
  0
LINE
  5
A2
330
1F
100
AcDbEntity
  8
0
100
AcDbLine
 10
-68.05618381592228
 20
1.71816797645922
 30
0.0
 11
-90.41648699844626
 21
1.718167976459682
 31
0.0
  0
LINE
  5
A3
330
1F
100
AcDbEntity
  8
0
100
AcDbLine
 10
-90.41648699844632
 20
0.5181679764596154
 30
0.0
 11
-90.41648699844626
 21
1.718167976459682
 31
0.0
  0
LINE
  5
A4
330
1F
100
AcDbEntity
  8
0
100
AcDbLine
 10
-90.41648699844632
 20
0.5181679764596154
 30
0.0
 11
-93.63633540718422
 21
0.5181679764596083
 31
0.0
  0
LINE
  5
A5
330
1F
100
AcDbEntity
  8
0
100
AcDbLine
 10
-93.63633540718575
 20
5.018167976459694
 30
0.0
 11
-93.63633540718422
 21
0.5181679764596083
 31
0.0
  0
LINE
  5
A6
330
1F
100
AcDbEntity
  8
0
100
AcDbLine
 10
-93.63633540718575
 20
5.018167976459694
 30
0.0
 11
-94.83633540718569
 21
5.018167976459623
 31
0.0
  0
LINE
  5
A7
330
1F
100
AcDbEntity
  8
0
100
AcDbLine
 10
-94.83633540718574
 20
19.37628196618486
 30
0.0
 11
-94.83633540718569
 21
5.018167976459623
 31
0.0
  0
LINE
  5
A8
330
1F
100
AcDbEntity
  8
0
100
AcDbLine
 10
-93.63633540718581
 20
19.37628196618493
 30
0.0
 11
-94.83633540718574
 21
19.37628196618486
 31
0.0
  0
LINE
  5
A9
330
1F
100
AcDbEntity
  8
0
100
AcDbLine
 10
-93.6363354071845
 20
25.7174356031712
 30
0.0
 11
-93.63633540718581
 21
19.37628196618493
 31
0.0
  0
LINE
  5
AA
330
1F
100
AcDbEntity
  8
0
100
AcDbLine
 10
-64.836335407185
 20
25.71743560317131
 30
0.0
 11
-93.6363354071845
 21
25.7174356031712
 31
0.0
  0
LINE
  5
AB
330
1F
100
AcDbEntity
  8
0
100
AcDbLine
 10
-64.83633540718483
 20
19.37628196618491
 30
0.0
 11
-64.836335407185
 21
25.71743560317131
 31
0.0
  0
LINE
  5
AC
330
1F
100
AcDbEntity
  8
0
100
AcDbLine
 10
-64.83633540718483
 20
19.37628196618491
 30
0.0
 11
-63.63633540718496
 21
19.37628196618493
 31
0.0
  0
LINE
  5
AD
330
1F
100
AcDbEntity
  8
0
100
AcDbLine
 10
-63.6363354071849
 20
5.018167976459736
 30
0.0
 11
-63.63633540718496
 21
19.37628196618493
 31
0.0
  0
LINE
  5
AE
330
1F
100
AcDbEntity
  8
0
100
AcDbLine
 10
-64.83633540718478
 20
5.018167976459708
 30
0.0
 11
-63.6363354071849
 21
5.018167976459736
 31
0.0
  0
LINE
  5
AF
330
1F
100
AcDbEntity
  8
0
100
AcDbLine
 10
-64.83633540718472
 20
0.518167976459452
 30
0.0
 11
-64.83633540718478
 21
5.018167976459708
 31
0.0
  0
LINE
  5
B0
330
1F
100
AcDbEntity
  8
0
100
AcDbLine
 10
33.22136284903112
 20
55.84525211935305
 30
0.0
 11
65.05394004048748
 21
40.46327104903106
 31
0.0
  0
LINE
  5
B1
330
1F
100
AcDbEntity
  8
0
100
AcDbLine
 10
31.76481662512052
 20
57.88183202353942
 30
0.0
 11
33.74346165669255
 21
56.925720922715
 31
0.0
  0
LINE
  5
B2
330
1F
100
AcDbEntity
  8
0
100
AcDbLine
 10
33.74346165669255
 20
56.925720922715
 30
0.0
 11
33.22136284903112
 21
55.84525211935305
 31
0.0
  0
LINE
  5
B3
330
1F
100
AcDbEntity
  8
0
100
AcDbLine
 10
33.22575676159005
 20
25.08341318347669
 30
0.0
 11
33.74785557138844
 21
24.0029443811473
 31
0.0
  0
LINE
  5
B4
330
1F
100
AcDbEntity
  8
0
100
AcDbLine
 10
65.05394004048748
 20
40.46327104903106
 30
0.0
 11
33.22575676159005
 21
25.08341318347669
 31
0.0
  0
LINE
  5
B5
330
1F
100
AcDbEntity
  8
0
100
AcDbLine
 10
31.24271781745907
 20
56.80136322017746
 30
0.0
 11
31.76481662512052
 21
57.88183202353942
 31
0.0
  0
LINE
  5
B6
330
1F
100
AcDbEntity
  8
0
100
AcDbLine
 10
31.76481662725755
 20
23.04471007555529
 30
0.0
 11
31.24271781745915
 21
24.12517887788466
 31
0.0
  0
LINE
  5
B7
330
1F
100
AcDbEntity
  8
0
100
AcDbLine
 10
31.24271781744702
 20
26.80968764260037
 30
0.0
 11
32.17413304151111
 21
27.25975460284918
 31
0.0
  0
LINE
  5
B8
330
1F
100
AcDbEntity
  8
0
100
AcDbLine
 10
32.70317420427969
 20
26.16490083233913
 30
0.0
 11
60.06537805251219
 21
39.38519176262423
 31
0.0
  0
LINE
  5
B9
330
1F
100
AcDbEntity
  8
0
100
AcDbLine
 10
32.17413304151111
 20
27.25975460284918
 30
0.0
 11
32.70317420427969
 21
26.16490083233913
 31
0.0
  0
LINE
  5
BA
330
1F
100
AcDbEntity
  8
0
100
AcDbLine
 10
31.24271781745915
 20
24.12517887788466
 30
0.0
 11
31.24271781744702
 21
26.80968764260037
 31
0.0
  0
LINE
  5
BB
330
1F
100
AcDbEntity
  8
0
100
AcDbLine
 10
33.74785557138844
 20
24.0029443811473
 30
0.0
 11
31.76481662725755
 21
23.04471007555529
 31
0.0
  0
LINE
  5
BC
330
1F
100
AcDbEntity
  8
0
100
AcDbLine
 10
32.69874140550689
 20
54.76441008680756
 30
0.0
 11
32.17683351962006
 21
53.68504377459305
 31
0.0
  0
LINE
  5
BD
330
1F
100
AcDbEntity
  8
0
100
AcDbLine
 10
60.06537805251219
 20
39.38519176262423
 30
0.0
 11
60.06537805251219
 21
41.54078684953731
 31
0.0
  0
LINE
  5
BE
330
1F
100
AcDbEntity
  8
0
100
AcDbLine
 10
60.06537805251219
 20
41.54078684953731
 30
0.0
 11
32.69874140550689
 21
54.76441008680756
 31
0.0
  0
LINE
  5
BF
330
1F
100
AcDbEntity
  8
0
100
AcDbLine
 10
31.24271781745864
 20
54.13671806606889
 30
0.0
 11
31.24271781745907
 21
56.80136322017746
 31
0.0
  0
LINE
  5
C0
330
1F
100
AcDbEntity
  8
0
100
AcDbLine
 10
32.17683351962006
 20
53.68504377459305
 30
0.0
 11
31.24271781745864
 21
54.13671806606889
 31
0.0
  0
LINE
  5
C1
330
1F
100
AcDbEntity
  8
0
100
AcDbLine
 10
-21.83181145954035
 20
24.00294319629613
 30
0.0
 11
-19.84877251539552
 21
23.0447088907041
 31
0.0
  0
LINE
  5
C2
330
1F
100
AcDbEntity
  8
0
100
AcDbLine
 10
-19.84877251539552
 20
23.0447088907041
 30
0.0
 11
-19.32667370559886
 21
24.12517769303349
 31
0.0
  0
LINE
  5
C3
330
1F
100
AcDbEntity
  8
0
100
AcDbLine
 10
-19.32667370559886
 20
24.12517769303349
 30
0.0
 11
-19.32667370559665
 21
26.80968645774919
 31
0.0
  0
LINE
  5
C4
330
1F
100
AcDbEntity
  8
0
100
AcDbLine
 10
-19.32667370559665
 20
26.80968645774919
 30
0.0
 11
-20.25808892967194
 21
27.25975341799801
 31
0.0
  0
LINE
  5
C5
330
1F
100
AcDbEntity
  8
0
100
AcDbLine
 10
-20.25808892967194
 20
27.25975341799801
 30
0.0
 11
-20.78713009243694
 21
26.16489964748796
 31
0.0
  0
LINE
  5
C6
330
1F
100
AcDbEntity
  8
0
100
AcDbLine
 10
-48.14933394073432
 20
41.54078566468614
 30
0.0
 11
-20.78269729365394
 21
54.76440890195637
 31
0.0
  0
LINE
  5
C7
330
1F
100
AcDbEntity
  8
0
100
AcDbLine
 10
-20.78713009243694
 20
26.16489964748796
 30
0.0
 11
-48.14933394073432
 21
39.38519057777306
 31
0.0
  0
LINE
  5
C8
330
1F
100
AcDbEntity
  8
0
100
AcDbLine
 10
-19.32667370559841
 20
54.13671688121771
 30
0.0
 11
-19.32667370559881
 21
56.80136203532628
 31
0.0
  0
LINE
  5
C9
330
1F
100
AcDbEntity
  8
0
100
AcDbLine
 10
-48.14933394073432
 20
39.38519057777306
 30
0.0
 11
-48.14933394073432
 21
41.54078566468614
 31
0.0
  0
LINE
  5
CA
330
1F
100
AcDbEntity
  8
0
100
AcDbLine
 10
-20.78269729365394
 20
54.76440890195637
 30
0.0
 11
-20.26078940776739
 21
53.68504258974187
 31
0.0
  0
LINE
  5
CB
330
1F
100
AcDbEntity
  8
0
100
AcDbLine
 10
-20.26078940776739
 20
53.68504258974187
 30
0.0
 11
-19.32667370559841
 21
54.13671688121771
 31
0.0
  0
LINE
  5
CC
330
1F
100
AcDbEntity
  8
0
100
AcDbLine
 10
-53.13789592851168
 20
40.46326986417989
 30
0.0
 11
-21.30971264974374
 21
25.08341199862552
 31
0.0
  0
LINE
  5
CD
330
1F
100
AcDbEntity
  8
0
100
AcDbLine
 10
-21.30971264974374
 20
25.08341199862552
 30
0.0
 11
-21.83181145954035
 21
24.00294319629613
 31
0.0
  0
LINE
  5
CE
330
1F
100
AcDbEntity
  8
0
100
AcDbLine
 10
-21.30531873717791
 20
55.84525093450186
 30
0.0
 11
-53.13789592851168
 21
40.46326986417989
 31
0.0
  0
LINE
  5
CF
330
1F
100
AcDbEntity
  8
0
100
AcDbLine
 10
-21.82741754483834
 20
56.92571973786382
 30
0.0
 11
-21.30531873717791
 21
55.84525093450186
 31
0.0
  0
LINE
  5
D0
330
1F
100
AcDbEntity
  8
0
100
AcDbLine
 10
-19.84877251325929
 20
57.88183083868823
 30
0.0
 11
-21.82741754483834
 21
56.92571973786382
 31
0.0
  0
LINE
  5
D1
330
1F
100
AcDbEntity
  8
0
100
AcDbLine
 10
-19.32667370559881
 20
56.80136203532628
 30
0.0
 11
-19.84877251325929
 21
57.88183083868823
 31
0.0
  0
LINE
  5
D2
330
1F
100
AcDbEntity
  8
0
100
AcDbLine
 10
-8.078866843376261
 20
-12.08134594261802
 30
0.0
 11
-8.113981555387284
 21
-11.65996939848518
 31
0.0
  0
LINE
  5
D3
330
1F
100
AcDbEntity
  8
0
100
AcDbLine
 10
-8.113981555387284
 20
-11.65996939848518
 30
0.0
 11
-7.973522707342966
 21
-11.23859285435234
 31
0.0
  0
LINE
  5
D4
330
1F
100
AcDbEntity
  8
0
100
AcDbLine
 10
-7.973522707342966
 20
-11.23859285435234
 30
0.0
 11
-7.65749029924342
 21
-10.95767515826379
 31
0.0
  0
LINE
  5
D5
330
1F
100
AcDbEntity
  8
0
100
AcDbLine
 10
-7.65749029924342
 20
-10.95767515826379
 30
0.0
 11
-6.920081347010921
 21
-10.92256044625271
 31
0.0
  0
LINE
  5
D6
330
1F
100
AcDbEntity
  8
0
100
AcDbLine
 10
-6.920081347010921
 20
-10.92256044625271
 30
0.0
 11
-6.849851922988762
 21
-10.78210159820842
 31
0.0
  0
LINE
  5
D7
330
1F
100
AcDbEntity
  8
0
100
AcDbLine
 10
-6.849851922988762
 20
-10.78210159820842
 30
0.0
 11
-7.060540195055182
 21
-10.53629861413095
 31
0.0
  0
LINE
  5
D8
330
1F
100
AcDbEntity
  8
0
100
AcDbLine
 10
-7.060540195055182
 20
-10.53629861413095
 30
0.0
 11
-7.341457891143762
 21
-10.15003678200916
 31
0.0
  0
LINE
  5
D9
330
1F
100
AcDbEntity
  8
0
100
AcDbLine
 10
-7.341457891143762
 20
-10.15003678200916
 30
0.0
 11
-7.411687315165921
 21
-9.869119085920609
 31
0.0
  0
LINE
  5
DA
330
1F
100
AcDbEntity
  8
0
100
AcDbLine
 10
-7.411687315165921
 20
-9.869119085920609
 30
0.0
 11
-7.411687315165921
 21
-9.72866023787632
 31
0.0
  0
LINE
  5
DB
330
1F
100
AcDbEntity
  8
0
100
AcDbLine
 10
-7.411687315165921
 20
-9.72866023787632
 30
0.0
 11
-7.306343179132625
 21
-9.482857253798848
 31
0.0
  0
LINE
  5
DC
330
1F
100
AcDbEntity
  8
0
100
AcDbLine
 10
-7.306343179132625
 20
-9.482857253798848
 30
0.0
 11
-7.165884331088421
 21
-9.447742541787768
 31
0.0
  0
LINE
  5
DD
330
1F
100
AcDbEntity
  8
0
100
AcDbLine
 10
-7.165884331088421
 20
-9.447742541787768
 30
0.0
 11
-6.920081347010921
 21
-9.553086677820978
 31
0.0
  0
LINE
  5
DE
330
1F
100
AcDbEntity
  8
0
100
AcDbLine
 10
-6.920081347010921
 20
-9.553086677820978
 30
0.0
 11
-6.56893422690024
 21
-9.237054269721348
 31
0.0
  0
LINE
  5
DF
330
1F
100
AcDbEntity
  8
0
100
AcDbLine
 10
-6.56893422690024
 20
-9.237054269721348
 30
0.0
 11
-6.112442970756263
 21
-9.237054269721348
 31
0.0
  0
LINE
  5
E0
330
1F
100
AcDbEntity
  8
0
100
AcDbLine
 10
-6.112442970756263
 20
-9.237054269721348
 30
0.0
 11
-5.269689882490582
 21
-9.798889661898478
 31
0.0
  0
LINE
  5
E1
330
1F
100
AcDbEntity
  8
0
100
AcDbLine
 10
-5.269689882490582
 20
-9.798889661898478
 30
0.0
 11
-4.602510354280241
 21
-10.18515149402024
 31
0.0
  0
LINE
  5
E2
330
1F
100
AcDbEntity
  8
0
100
AcDbLine
 10
-4.602510354280241
 20
-10.18515149402024
 30
0.0
 11
-4.216248522158537
 21
-10.43095447809774
 31
0.0
  0
LINE
  5
E3
330
1F
100
AcDbEntity
  8
0
100
AcDbLine
 10
-4.216248522158537
 20
-10.43095447809774
 30
0.0
 11
-3.794871978025697
 21
-10.46606919010879
 31
0.0
  0
LINE
  5
E4
330
1F
100
AcDbEntity
  8
0
100
AcDbLine
 10
-3.794871978025697
 20
-10.46606919010879
 30
0.0
 11
-0.4940890489850744
 21
-10.46606919010879
 31
0.0
  0
LINE
  5
E5
330
1F
100
AcDbEntity
  8
0
100
AcDbLine
 10
-0.4940890489850744
 20
-10.46606919010879
 30
0.0
 11
0.3135493272695271
 21
-10.60652803815308
 31
0.0
  0
LINE
  5
E6
330
1F
100
AcDbEntity
  8
0
100
AcDbLine
 10
0.3135493272695271
 20
-10.60652803815308
 30
0.0
 11
0.5944670233581064
 21
-10.8172163102195
 31
0.0
  0
LINE
  5
E7
330
1F
100
AcDbEntity
  8
0
100
AcDbLine
 10
0.5944670233581064
 20
-10.8172163102195
 30
0.0
 11
1.015843567490947
 21
-10.88744573424163
 31
0.0
  0
LINE
  5
E8
330
1F
100
AcDbEntity
  8
0
100
AcDbLine
 10
1.015843567490947
 20
-10.88744573424163
 30
0.0
 11
1.753252519723389
 21
-10.88744573424163
 31
0.0
  0
LINE
  5
E9
330
1F
100
AcDbEntity
  8
0
100
AcDbLine
 10
1.753252519723389
 20
-10.88744573424163
 30
0.0
 11
2.66623503201123
 21
-11.02790458228592
 31
0.0
  0
LINE
  5
EA
330
1F
100
AcDbEntity
  8
0
100
AcDbLine
 10
2.66623503201123
 20
-11.02790458228592
 30
0.0
 11
3.473873408265888
 21
-11.23859285435234
 31
0.0
  0
LINE
  5
EB
330
1F
100
AcDbEntity
  8
0
100
AcDbLine
 10
3.473873408265888
 20
-11.23859285435234
 30
0.0
 11
4.457085344575773
 21
-11.69508411049626
 31
0.0
  0
LINE
  5
EC
330
1F
100
AcDbEntity
  8
0
100
AcDbLine
 10
4.457085344575773
 20
-11.69508411049626
 30
0.0
 11
4.73800304066441
 21
-11.83554295854052
 31
0.0
  0
LINE
  5
ED
330
1F
100
AcDbEntity
  8
0
100
AcDbLine
 10
4.73800304066441
 20
-11.83554295854052
 30
0.0
 11
5.054035448764012
 21
-12.1164606546291
 31
0.0
  0
LINE
  5
EE
330
1F
100
AcDbEntity
  8
0
100
AcDbLine
 10
5.054035448764012
 20
-12.1164606546291
 30
0.0
 11
5.510526704907932
 21
-12.08134594261802
 31
0.0
  0
LINE
  5
EF
330
1F
100
AcDbEntity
  8
0
100
AcDbLine
 10
5.510526704907932
 20
-12.08134594261802
 30
0.0
 11
5.931903249040772
 21
-11.76531353451839
 31
0.0
  0
LINE
  5
F0
330
1F
100
AcDbEntity
  8
0
100
AcDbLine
 10
5.931903249040772
 20
-11.76531353451839
 30
0.0
 11
6.037247385073954
 21
-11.51951055044089
 31
0.0
  0
LINE
  5
F1
330
1F
100
AcDbEntity
  8
0
100
AcDbLine
 10
6.037247385073954
 20
-11.51951055044089
 30
0.0
 11
5.896788537029693
 21
-11.13324871831913
 31
0.0
  0
LINE
  5
F2
330
1F
100
AcDbEntity
  8
0
100
AcDbLine
 10
5.896788537029693
 20
-11.13324871831913
 30
0.0
 11
6.353279793173613
 21
-10.85233102223058
 31
0.0
  0
LINE
  5
F3
330
1F
100
AcDbEntity
  8
0
100
AcDbLine
 10
6.353279793173613
 20
-10.85233102223058
 30
0.0
 11
6.774656337306453
 21
-10.74698688619737
 31
0.0
  0
LINE
  5
F4
330
1F
100
AcDbEntity
  8
0
100
AcDbLine
 10
6.774656337306453
 20
-10.74698688619737
 30
0.0
 11
7.582294713561055
 21
-10.95767515826379
 31
0.0
  0
LINE
  5
F5
330
1F
100
AcDbEntity
  8
0
100
AcDbLine
 10
7.582294713561055
 20
-10.95767515826379
 30
0.0
 11
8.530391937859974
 21
-10.99278987027484
 31
0.0
  0
LINE
  5
F6
330
1F
100
AcDbEntity
  8
0
100
AcDbLine
 10
8.530391937859974
 20
-10.99278987027484
 30
0.0
 11
9.267800890092417
 21
-10.99278987027484
 31
0.0
  0
LINE
  5
F7
330
1F
100
AcDbEntity
  8
0
100
AcDbLine
 10
9.267800890092417
 20
-10.99278987027484
 30
0.0
 11
9.583833298192019
 21
-11.30882227837447
 31
0.0
  0
LINE
  5
F8
330
1F
100
AcDbEntity
  8
0
100
AcDbLine
 10
9.583833298192019
 20
-11.30882227837447
 30
0.0
 11
10.040324554336
 21
-11.37905170239663
 31
0.0
  0
LINE
  5
F9
330
1F
100
AcDbEntity
  8
0
100
AcDbLine
 10
10.040324554336
 20
-11.37905170239663
 30
0.0
 11
10.81284821857952
 21
-11.41416641440768
 31
0.0
  0
LINE
  5
FA
330
1F
100
AcDbEntity
  8
0
100
AcDbLine
 10
10.81284821857952
 20
-11.41416641440768
 30
0.0
 11
11.1639953386902
 21
-11.80042824652947
 31
0.0
  0
LINE
  5
FB
330
1F
100
AcDbEntity
  8
0
100
AcDbLine
 10
11.1639953386902
 20
-11.80042824652947
 30
0.0
 11
11.54900869226805
 21
-11.59756409457874
 31
0.0
  0
LINE
  5
FC
330
1F
100
AcDbEntity
  8
0
100
AcDbLine
 10
11.61911121960264
 20
-11.5673215693588
 30
0.0
 11
11.54900869226805
 21
-11.59756409457874
 31
0.0
  0
LINE
  5
FD
330
1F
100
AcDbEntity
  8
0
100
AcDbLine
 10
11.68268662367154
 20
-11.5250469591554
 30
0.0
 11
11.61911121960264
 21
-11.5673215693588
 31
0.0
  0
LINE
  5
FE
330
1F
100
AcDbEntity
  8
0
100
AcDbLine
 10
11.73769125111858
 20
-11.47209919593738
 30
0.0
 11
11.68268662367154
 21
-11.5250469591554
 31
0.0
  0
LINE
  5
FF
330
1F
100
AcDbEntity
  8
0
100
AcDbLine
 10
11.78235695916686
 20
-11.41018030386946
 30
0.0
 11
11.73769125111858
 21
-11.47209919593738
 31
0.0
  0
LINE
  5
100
330
1F
100
AcDbEntity
  8
0
100
AcDbLine
 10
11.81524795318018
 20
-11.34128068715652
 30
0.0
 11
11.78235695916686
 21
-11.41018030386946
 31
0.0
  0
LINE
  5
101
330
1F
100
AcDbEntity
  8
0
100
AcDbLine
 10
11.83530694077814
 20
-11.26761514781197
 30
0.0
 11
11.81524795318018
 21
-11.34128068715652
 31
0.0
  0
LINE
  5
102
330
1F
100
AcDbEntity
  8
0
100
AcDbLine
 10
11.84188911886542
 20
-11.19155169008094
 30
0.0
 11
11.83530694077814
 21
-11.26761514781197
 31
0.0
  0
LINE
  5
103
330
1F
100
AcDbEntity
  8
0
100
AcDbLine
 10
11.83478290105046
 20
-11.11553540012449
 30
0.0
 11
11.84188911886542
 21
-11.19155169008094
 31
0.0
  0
LINE
  5
104
330
1F
100
AcDbEntity
  8
0
100
AcDbLine
 10
11.8142167191632
 20
-11.04200984787932
 30
0.0
 11
11.83478290105046
 21
-11.11553540012449
 31
0.0
  0
LINE
  5
105
330
1F
100
AcDbEntity
  8
0
100
AcDbLine
 10
11.78085168023466
 20
-10.97333853765682
 30
0.0
 11
11.8142167191632
 21
-11.04200984787932
 31
0.0
  0
LINE
  5
106
330
1F
100
AcDbEntity
  8
0
100
AcDbLine
 10
11.73576031498322
 20
-10.91172893247927
 30
0.0
 11
11.78085168023466
 21
-10.97333853765682
 31
0.0
  0
LINE
  5
107
330
1F
100
AcDbEntity
  8
0
100
AcDbLine
 10
11.53926227587078
 20
-10.69444037800441
 30
0.0
 11
11.73576031498322
 21
-10.91172893247927
 31
0.0
  0
LINE
  5
108
330
1F
100
AcDbEntity
  8
0
100
AcDbLine
 10
11.33691847985261
 20
-10.48258480575354
 30
0.0
 11
11.53926227587078
 21
-10.69444037800441
 31
0.0
  0
LINE
  5
109
330
1F
100
AcDbEntity
  8
0
100
AcDbLine
 10
11.12887908354134
 20
-10.27631943090058
 30
0.0
 11
11.33691847985261
 21
-10.48258480575354
 31
0.0
  0
LINE
  5
10A
330
1F
100
AcDbEntity
  8
0
100
AcDbLine
 10
10.91529847017802
 20
-10.07579732020915
 30
0.0
 11
11.12887908354134
 21
-10.27631943090058
 31
0.0
  0
LINE
  5
10B
330
1F
100
AcDbEntity
  8
0
100
AcDbLine
 10
10.69633513506642
 20
-9.88116727844372
 30
0.0
 11
10.91529847017802
 21
-10.07579732020915
 31
0.0
  0
LINE
  5
10C
330
1F
100
AcDbEntity
  8
0
100
AcDbLine
 10
10.47215156795596
 20
-9.692573737943441
 30
0.0
 11
10.69633513506642
 21
-9.88116727844372
 31
0.0
  0
LINE
  5
10D
330
1F
100
AcDbEntity
  8
0
100
AcDbLine
 10
10.24291413245993
 20
-9.510156651441072
 30
0.0
 11
10.47215156795596
 21
-9.692573737943441
 31
0.0
  0
LINE
  5
10E
330
1F
100
AcDbEntity
  8
0
100
AcDbLine
 10
10.00879294259954
 20
-9.334051388205843
 30
0.0
 11
10.24291413245993
 21
-9.510156651441072
 31
0.0
  0
LINE
  5
10F
330
1F
100
AcDbEntity
  8
0
100
AcDbLine
 10
9.769961736564426
 20
-9.164388633587699
 30
0.0
 11
10.00879294259954
 21
-9.334051388205843
 31
0.0
  0
LINE
  5
110
330
1F
100
AcDbEntity
  8
0
100
AcDbLine
 10
9.526597747784137
 20
-9.00129429203745
 30
0.0
 11
9.769961736564426
 21
-9.164388633587699
 31
0.0
  0
LINE
  5
111
330
1F
100
AcDbEntity
  8
0
100
AcDbLine
 10
9.278881573405044
 20
-8.844889393674926
 30
0.0
 11
9.526597747784137
 21
-9.00129429203745
 31
0.0
  0
LINE
  5
112
330
1F
100
AcDbEntity
  8
0
100
AcDbLine
 10
9.026997040272306
 20
-8.695290004473954
 30
0.0
 11
9.278881573405044
 21
-8.844889393674926
 31
0.0
  0
LINE
  5
113
330
1F
100
AcDbEntity
  8
0
100
AcDbLine
 10
8.128234982112474
 20
-8.063166895201768
 30
0.0
 11
9.026997040272306
 21
-8.695290004473954
 31
0.0
  0
LINE
  5
114
330
1F
100
AcDbEntity
  8
0
100
AcDbLine
 10
7.358162994562861
 20
-7.279367178147034
 30
0.0
 11
8.128234982112474
 21
-8.063166895201768
 31
0.0
  0
LINE
  5
115
330
1F
100
AcDbEntity
  8
0
100
AcDbLine
 10
6.742017595912841
 20
-6.369577251743102
 30
0.0
 11
7.358162994562861
 21
-7.279367178147034
 31
0.0
  0
LINE
  5
116
330
1F
100
AcDbEntity
  8
0
100
AcDbLine
 10
6.29999087842549
 20
-5.363612419608764
 30
0.0
 11
6.742017595912841
 21
-6.369577251743102
 31
0.0
  0
LINE
  5
117
330
1F
100
AcDbEntity
  8
0
100
AcDbLine
 10
6.046568780455516
 20
-4.294439794293204
 30
0.0
 11
6.29999087842549
 21
-5.363612419608764
 31
0.0
  0
LINE
  5
118
330
1F
100
AcDbEntity
  8
0
100
AcDbLine
 10
5.990056358560878
 20
-3.197097911088498
 30
0.0
 11
6.046568780455516
 21
-4.294439794293204
 31
0.0
  0
LINE
  5
119
330
1F
100
AcDbEntity
  8
0
100
AcDbLine
 10
6.132305617218719
 20
-2.107548457931394
 30
0.0
 11
5.990056358560878
 21
-3.197097911088498
 31
0.0
  0
LINE
  5
11A
330
1F
100
AcDbEntity
  8
0
100
AcDbLine
 10
6.46865481561025
 20
-1.061497752083433
 30
0.0
 11
6.132305617218719
 21
-2.107548457931394
 31
0.0
  0
LINE
  5
11B
330
1F
100
AcDbEntity
  8
0
100
AcDbLine
 10
6.988081240490544
 20
-0.0932265857256951
 30
0.0
 11
6.46865481561025
 21
-1.061497752083433
 31
0.0
  0
LINE
  5
11C
330
1F
100
AcDbEntity
  8
0
100
AcDbLine
 10
7.673562438526176
 20
0.7655332116585143
 30
0.0
 11
6.988081240490544
 21
-0.0932265857256951
 31
0.0
  0
LINE
  5
11D
330
1F
100
AcDbEntity
  8
0
100
AcDbLine
 10
8.502634069926842
 20
1.486638677225265
 30
0.0
 11
7.673562438526176
 21
0.7655332116585143
 31
0.0
  0
LINE
  5
11E
330
1F
100
AcDbEntity
  8
0
100
AcDbLine
 10
9.448126101595392
 20
2.046458005682943
 30
0.0
 11
8.502634069926842
 21
1.486638677225265
 31
0.0
  0
LINE
  5
11F
330
1F
100
AcDbEntity
  8
0
100
AcDbLine
 10
9.948506509882634
 20
2.687443867516855
 30
0.0
 11
9.448126101595392
 21
2.046458005682943
 31
0.0
  0
LINE
  5
120
330
1F
100
AcDbEntity
  8
0
100
AcDbLine
 10
10.54369577968686
 20
3.241513503193168
 30
0.0
 11
9.948506509882634
 21
2.687443867516855
 31
0.0
  0
LINE
  5
121
330
1F
100
AcDbEntity
  8
0
100
AcDbLine
 10
11.21880331958147
 20
3.694805062397556
 30
0.0
 11
10.54369577968686
 21
3.241513503193168
 31
0.0
  0
LINE
  5
122
330
1F
100
AcDbEntity
  8
0
100
AcDbLine
 10
11.95693912321798
 20
4.035977985500345
 30
0.0
 11
11.21880331958147
 21
3.694805062397556
 31
0.0
  0
LINE
  5
123
330
1F
100
AcDbEntity
  8
0
100
AcDbLine
 10
12.73963632765555
 20
4.256496724464021
 30
0.0
 11
11.95693912321798
 21
4.035977985500345
 31
0.0
  0
LINE
  5
124
330
1F
100
AcDbEntity
  8
0
100
AcDbLine
 10
13.54731322187678
 20
4.350844287282193
 30
0.0
 11
12.73963632765555
 21
4.256496724464021
 31
0.0
  0
LINE
  5
125
330
1F
100
AcDbEntity
  8
0
100
AcDbLine
 10
14.35976314684609
 20
4.316660263441257
 30
0.0
 11
13.54731322187678
 21
4.350844287282193
 31
0.0
  0
LINE
  5
126
330
1F
100
AcDbEntity
  8
0
100
AcDbLine
 10
15.15666003067162
 20
4.154799877250916
 30
0.0
 11
14.35976314684609
 21
4.316660263441257
 31
0.0
  0
LINE
  5
127
330
1F
100
AcDbEntity
  8
0
100
AcDbLine
 10
15.9180669112672
 20
3.869312591631733
 30
0.0
 11
15.15666003067162
 21
4.154799877250916
 31
0.0
  0
LINE
  5
128
330
1F
100
AcDbEntity
  8
0
100
AcDbLine
 10
16.62493472416969
 20
3.467340797657265
 30
0.0
 11
15.9180669112672
 21
3.869312591631733
 31
0.0
  0
LINE
  5
129
330
1F
100
AcDbEntity
  8
0
100
AcDbLine
 10
17.2595788767149
 20
2.958941124458413
 30
0.0
 11
16.62493472416969
 21
3.467340797657265
 31
0.0
  0
LINE
  5
12A
330
1F
100
AcDbEntity
  8
0
100
AcDbLine
 10
17.80612168552346
 20
2.356832840004124
 30
0.0
 11
17.2595788767149
 21
2.958941124458413
 31
0.0
  0
LINE
  5
12B
330
1F
100
AcDbEntity
  8
0
100
AcDbLine
 10
17.80612168552346
 20
2.356832840004124
 30
0.0
 11
18.25023048205964
 21
2.368834075493673
 31
0.0
  0
LINE
  5
12C
330
1F
100
AcDbEntity
  8
0
100
AcDbLine
 10
18.25023048205964
 20
2.368834075493673
 30
0.0
 11
18.69169837579597
 21
2.319006857890365
 31
0.0
  0
LINE
  5
12D
330
1F
100
AcDbEntity
  8
0
100
AcDbLine
 10
18.69169837579597
 20
2.319006857890365
 30
0.0
 11
19.12195949186122
 21
2.20831799297374
 31
0.0
  0
LINE
  5
12E
330
1F
100
AcDbEntity
  8
0
100
AcDbLine
 10
19.12195949186122
 20
2.20831799297374
 30
0.0
 11
19.53266540235228
 21
2.03891519517537
 31
0.0
  0
LINE
  5
12F
330
1F
100
AcDbEntity
  8
0
100
AcDbLine
 10
19.53266540235228
 20
2.03891519517537
 30
0.0
 11
19.91584711226858
 21
1.81408541511987
 31
0.0
  0
LINE
  5
130
330
1F
100
AcDbEntity
  8
0
100
AcDbLine
 10
19.91584711226858
 20
1.81408541511987
 30
0.0
 11
20.26406968324471
 21
1.538191062374345
 31
0.0
  0
LINE
  5
131
330
1F
100
AcDbEntity
  8
0
100
AcDbLine
 10
20.26406968324471
 20
1.538191062374345
 30
0.0
 11
20.57057649489531
 21
1.216585360892076
 31
0.0
  0
LINE
  5
132
330
1F
100
AcDbEntity
  8
0
100
AcDbLine
 10
20.57057649489531
 20
1.216585360892076
 30
0.0
 11
20.82942034464196
 21
0.8555084795184982
 31
0.0
  0
LINE
  5
133
330
1F
100
AcDbEntity
  8
0
100
AcDbLine
 10
20.82942034464196
 20
0.8555084795184982
 30
0.0
 11
21.03557884227331
 21
0.4619664529590963
 31
0.0
  0
LINE
  5
134
330
1F
100
AcDbEntity
  8
0
100
AcDbLine
 10
21.03557884227331
 20
0.4619664529590963
 30
0.0
 11
21.18505186021628
 21
0.0435952425237858
 31
0.0
  0
LINE
  5
135
330
1F
100
AcDbEntity
  8
0
100
AcDbLine
 10
21.18505186021628
 20
0.0435952425237858
 30
0.0
 11
21.27493914867574
 21
-0.3914874256986494
 31
0.0
  0
LINE
  5
136
330
1F
100
AcDbEntity
  8
0
100
AcDbLine
 10
21.27493914867574
 20
-0.3914874256986494
 30
0.0
 11
21.30349660966311
 21
-0.8348395704280236
 31
0.0
  0
LINE
  5
137
330
1F
100
AcDbEntity
  8
0
100
AcDbLine
 10
21.30349660966311
 20
-0.8348395704280236
 30
0.0
 11
22.076750072376
 21
-0.9225972990216817
 31
0.0
  0
LINE
  5
138
330
1F
100
AcDbEntity
  8
0
100
AcDbLine
 10
22.076750072376
 20
-0.9225972990216817
 30
0.0
 11
22.48517539740425
 21
-1.024221302083568
 31
0.0
  0
LINE
  5
139
330
1F
100
AcDbEntity
  8
0
100
AcDbLine
 10
22.48517539740425
 20
-1.024221302083568
 30
0.0
 11
22.83194123380343
 21
-1.110503249505776
 31
0.0
  0
LINE
  5
13A
330
1F
100
AcDbEntity
  8
0
100
AcDbLine
 10
22.83194123380343
 20
-1.110503249505776
 30
0.0
 11
23.55615661048961
 21
-1.395344301141087
 31
0.0
  0
LINE
  5
13B
330
1F
100
AcDbEntity
  8
0
100
AcDbLine
 10
23.55615661048961
 20
-1.395344301141087
 30
0.0
 11
24.23701239319132
 21
-1.772249779592876
 31
0.0
  0
LINE
  5
13C
330
1F
100
AcDbEntity
  8
0
100
AcDbLine
 10
24.23701239319132
 20
-1.772249779592876
 30
0.0
 11
24.86286620533605
 21
-2.234774743621138
 31
0.0
  0
LINE
  5
13D
330
1F
100
AcDbEntity
  8
0
100
AcDbLine
 10
24.86286620533605
 20
-2.234774743621138
 30
0.0
 11
25.42301618326104
 21
-2.775010191140133
 31
0.0
  0
LINE
  5
13E
330
1F
100
AcDbEntity
  8
0
100
AcDbLine
 10
25.42301618326104
 20
-2.775010191140133
 30
0.0
 11
25.9078839740377
 21
-3.383718300165079
 31
0.0
  0
LINE
  5
13F
330
1F
100
AcDbEntity
  8
0
100
AcDbLine
 10
25.9078839740377
 20
-3.383718300165079
 30
0.0
 11
26.30917852168687
 21
-4.050490392076888
 31
0.0
  0
LINE
  5
140
330
1F
100
AcDbEntity
  8
0
100
AcDbLine
 10
26.30917852168687
 20
-4.050490392076888
 30
0.0
 11
26.62003784110249
 21
-4.763924916092869
 31
0.0
  0
LINE
  5
141
330
1F
100
AcDbEntity
  8
0
100
AcDbLine
 10
26.62003784110249
 20
-4.763924916092869
 30
0.0
 11
26.83514635540357
 21
-5.511822411476125
 31
0.0
  0
LINE
  5
142
330
1F
100
AcDbEntity
  8
0
100
AcDbLine
 10
26.83514635540357
 20
-5.511822411476125
 30
0.0
 11
26.95082579029022
 21
-6.281394113703875
 31
0.0
  0
LINE
  5
143
330
1F
100
AcDbEntity
  8
0
100
AcDbLine
 10
26.95082579029022
 20
-6.281394113703875
 30
0.0
 11
26.9650980711439
 21
-7.059480637507399
 31
0.0
  0
LINE
  5
144
330
1F
100
AcDbEntity
  8
0
100
AcDbLine
 10
27.24800604826291
 20
-6.895752642457133
 30
0.0
 11
26.9650980711439
 21
-7.059480637507399
 31
0.0
  0
LINE
  5
145
330
1F
100
AcDbEntity
  8
0
100
AcDbLine
 10
27.60786033284302
 20
-6.798930317399005
 30
0.0
 11
27.24800604826291
 21
-6.895752642457133
 31
0.0
  0
LINE
  5
146
330
1F
100
AcDbEntity
  8
0
100
AcDbLine
 10
27.9805123417359
 20
-6.798544275375043
 30
0.0
 11
27.60786033284302
 21
-6.798930317399005
 31
0.0
  0
LINE
  5
147
330
1F
100
AcDbEntity
  8
0
100
AcDbLine
 10
28.34056645637204
 20
-6.894620824511271
 30
0.0
 11
27.9805123417359
 21
-6.798544275375043
 31
0.0
  0
LINE
  5
148
330
1F
100
AcDbEntity
  8
0
100
AcDbLine
 10
28.66348558385656
 20
-7.080612506758065
 30
0.0
 11
28.34056645637204
 21
-6.894620824511271
 31
0.0
  0
LINE
  5
149
330
1F
100
AcDbEntity
  8
0
100
AcDbLine
 10
28.92726331930044
 20
-7.343844296336052
 30
0.0
 11
28.66348558385656
 21
-7.080612506758065
 31
0.0
  0
LINE
  5
14A
330
1F
100
AcDbEntity
  8
0
100
AcDbLine
 10
29.11392364594653
 20
-7.6663773817966
 30
0.0
 11
28.92726331930044
 21
-7.343844296336052
 31
0.0
  0
LINE
  5
14B
330
1F
100
AcDbEntity
  8
0
100
AcDbLine
 10
29.21074597100468
 20
-8.026231666376738
 30
0.0
 11
29.11392364594653
 21
-7.6663773817966
 31
0.0
  0
LINE
  5
14C
330
1F
100
AcDbEntity
  8
0
100
AcDbLine
 10
29.21113201302862
 20
-8.398883675269595
 30
0.0
 11
29.21074597100468
 21
-8.026231666376738
 31
0.0
  0
LINE
  5
14D
330
1F
100
AcDbEntity
  8
0
100
AcDbLine
 10
29.11505546389239
 20
-8.758937789905765
 30
0.0
 11
29.21113201302862
 21
-8.398883675269595
 31
0.0
  0
LINE
  5
14E
330
1F
100
AcDbEntity
  8
0
100
AcDbLine
 10
28.92906378164562
 20
-9.081856917390247
 30
0.0
 11
29.11505546389239
 21
-8.758937789905765
 31
0.0
  0
LINE
  5
14F
330
1F
100
AcDbEntity
  8
0
100
AcDbLine
 10
9.41020046271052
 20
-28.56600306762302
 30
0.0
 11
9.41020046271052
 21
-26.31600306762301
 31
0.0
  0
LINE
  5
150
330
1F
100
AcDbEntity
  8
0
100
AcDbLine
 10
9.41020046271052
 20
-26.31600306762301
 30
0.0
 11
9.321174293689921
 21
-26.3112941008409
 31
0.0
  0
LINE
  5
151
330
1F
100
AcDbEntity
  8
0
100
AcDbLine
 10
9.321174293689921
 20
-26.3112941008409
 30
0.0
 11
9.233141652848815
 21
-26.29721975235931
 31
0.0
  0
LINE
  5
152
330
1F
100
AcDbEntity
  8
0
100
AcDbLine
 10
9.233141652848815
 20
-26.29721975235931
 30
0.0
 11
9.14708498063527
 21
-26.27393709129601
 31
0.0
  0
LINE
  5
153
330
1F
100
AcDbEntity
  8
0
100
AcDbLine
 10
9.14708498063527
 20
-26.27393709129601
 30
0.0
 11
9.063964665773653
 21
-26.24170595113716
 31
0.0
  0
LINE
  5
154
330
1F
100
AcDbEntity
  8
0
100
AcDbLine
 10
9.063964665773653
 20
-26.24170595113716
 30
0.0
 11
8.984708327367287
 21
-26.20088603000706
 31
0.0
  0
LINE
  5
155
330
1F
100
AcDbEntity
  8
0
100
AcDbLine
 10
8.984708327367287
 20
-26.20088603000706
 30
0.0
 11
8.91020046271052
 21
-26.15193287645251
 31
0.0
  0
LINE
  5
156
330
1F
100
AcDbEntity
  8
0
100
AcDbLine
 10
8.91020046271052
 20
-26.15193287645251
 30
0.0
 11
8.841272576336735
 21
-26.09539280554094
 31
0.0
  0
LINE
  5
157
330
1F
100
AcDbEntity
  8
0
100
AcDbLine
 10
8.841272576336735
 20
-26.09539280554094
 30
0.0
 11
8.77869390046402
 21
-26.03189680200798
 31
0.0
  0
LINE
  5
158
330
1F
100
AcDbEntity
  8
0
100
AcDbLine
 10
8.77869390046402
 20
-26.03189680200798
 30
0.0
 11
8.723162810397014
 21
-25.96215347849514
 31
0.0
  0
LINE
  5
159
330
1F
100
AcDbEntity
  8
0
100
AcDbLine
 10
8.723162810397014
 20
-25.96215347849514
 30
0.0
 11
8.675299030688905
 21
-25.8869411674636
 31
0.0
  0
LINE
  5
15A
330
1F
100
AcDbEntity
  8
0
100
AcDbLine
 10
8.675299030688905
 20
-25.8869411674636
 30
0.0
 11
8.635636719042452
 21
-25.8070992350377
 31
0.0
  0
LINE
  5
15B
330
1F
100
AcDbEntity
  8
0
100
AcDbLine
 10
8.635636719042452
 20
-25.8070992350377
 30
0.0
 11
8.604618505132805
 21
-25.72351871371542
 31
0.0
  0
LINE
  5
15C
330
1F
100
AcDbEntity
  8
0
100
AcDbLine
 10
8.604618505132805
 20
-25.72351871371542
 30
0.0
 11
8.59365119682684
 21
-25.69816088820014
 31
0.0
  0
LINE
  5
15D
330
1F
100
AcDbEntity
  8
0
100
AcDbLine
 10
8.59365119682684
 20
-25.69816088820014
 30
0.0
 11
8.577607691134688
 21
-25.67566850968096
 31
0.0
  0
LINE
  5
15E
330
1F
100
AcDbEntity
  8
0
100
AcDbLine
 10
8.577607691134688
 20
-25.67566850968096
 30
0.0
 11
8.55720216923072
 21
-25.6570428327223
 31
0.0
  0
LINE
  5
15F
330
1F
100
AcDbEntity
  8
0
100
AcDbLine
 10
8.55720216923072
 20
-25.6570428327223
 30
0.0
 11
8.53334298866929
 21
-25.64311298457957
 31
0.0
  0
LINE
  5
160
330
1F
100
AcDbEntity
  8
0
100
AcDbLine
 10
8.53334298866929
 20
-25.64311298457957
 30
0.0
 11
8.507092247592652
 21
-25.63449905636594
 31
0.0
  0
LINE
  5
161
330
1F
100
AcDbEntity
  8
0
100
AcDbLine
 10
8.507092247592652
 20
-25.63449905636594
 30
0.0
 11
8.479618505132805
 21
-25.63158449952182
 31
0.0
  0
LINE
  5
162
330
1F
100
AcDbEntity
  8
0
100
AcDbLine
 10
8.479618505132805
 20
-25.63158449952182
 30
0.0
 11
8.452144762673072
 21
-25.63449905636594
 31
0.0
  0
LINE
  5
163
330
1F
100
AcDbEntity
  8
0
100
AcDbLine
 10
8.452144762673072
 20
-25.63449905636594
 30
0.0
 11
8.425894021596434
 21
-25.64311298457957
 31
0.0
  0
LINE
  5
164
330
1F
100
AcDbEntity
  8
0
100
AcDbLine
 10
8.425894021596434
 20
-25.64311298457957
 30
0.0
 11
8.397344720514582
 21
-25.66685440647493
 31
0.0
  0
LINE
  5
165
330
1F
100
AcDbEntity
  8
0
100
AcDbLine
 10
8.397344720514582
 20
-25.66685440647493
 30
0.0
 11
8.366035654001848
 21
-25.68681587084945
 31
0.0
  0
LINE
  5
166
330
1F
100
AcDbEntity
  8
0
100
AcDbLine
 10
8.366035654001848
 20
-25.68681587084945
 30
0.0
 11
8.33246424500095
 21
-25.70268023984319
 31
0.0
  0
LINE
  5
167
330
1F
100
AcDbEntity
  8
0
100
AcDbLine
 10
8.33246424500095
 20
-25.70268023984319
 30
0.0
 11
8.297163859431691
 21
-25.71419546821851
 31
0.0
  0
LINE
  5
168
330
1F
100
AcDbEntity
  8
0
100
AcDbLine
 10
8.297163859431691
 20
-25.71419546821851
 30
0.0
 11
8.260695332337207
 21
-25.72117860772996
 31
0.0
  0
LINE
  5
169
330
1F
100
AcDbEntity
  8
0
100
AcDbLine
 10
8.260695332337207
 20
-25.72117860772996
 30
0.0
 11
8.223638057614778
 21
-25.72351871371542
 31
0.0
  0
LINE
  5
16A
330
1F
100
AcDbEntity
  8
0
100
AcDbLine
 10
8.223638057614778
 20
-25.72351871371542
 30
0.0
 11
4.104618505132805
 21
-25.72351871371542
 31
0.0
  0
LINE
  5
16B
330
1F
100
AcDbEntity
  8
0
100
AcDbLine
 10
3.85476110027588
 20
-25.72130540386456
 30
0.0
 11
4.104618505132805
 21
-25.72351871371542
 31
0.0
  0
LINE
  5
16C
330
1F
100
AcDbEntity
  8
0
100
AcDbLine
 10
3.615531755411155
 20
-25.64917398173826
 30
0.0
 11
3.85476110027588
 21
-25.72130540386456
 31
0.0
  0
LINE
  5
16D
330
1F
100
AcDbEntity
  8
0
100
AcDbLine
 10
3.406094905998941
 20
-25.51290282701133
 30
0.0
 11
3.615531755411155
 21
-25.64917398173826
 31
0.0
  0
LINE
  5
16E
330
1F
100
AcDbEntity
  8
0
100
AcDbLine
 10
3.243228339002428
 20
-25.32340849238062
 30
0.0
 11
3.406094905998941
 21
-25.51290282701133
 31
0.0
  0
LINE
  5
16F
330
1F
100
AcDbEntity
  8
0
100
AcDbLine
 10
3.139979140320008
 20
-25.09587118890317
 30
0.0
 11
3.243228339002428
 21
-25.32340849238062
 31
0.0
  0
LINE
  5
170
330
1F
100
AcDbEntity
  8
0
100
AcDbLine
 10
3.104618505132805
 20
-24.84851871371542
 30
0.0
 11
3.139979140320008
 21
-25.09587118890317
 31
0.0
  0
LINE
  5
171
330
1F
100
AcDbEntity
  8
0
100
AcDbLine
 10
3.139979140320008
 20
-24.60116623852767
 30
0.0
 11
3.104618505132805
 21
-24.84851871371542
 31
0.0
  0
LINE
  5
172
330
1F
100
AcDbEntity
  8
0
100
AcDbLine
 10
3.243228339002428
 20
-24.37362893505022
 30
0.0
 11
3.139979140320008
 21
-24.60116623852767
 31
0.0
  0
LINE
  5
173
330
1F
100
AcDbEntity
  8
0
100
AcDbLine
 10
3.406094905998941
 20
-24.18413460041951
 30
0.0
 11
3.243228339002428
 21
-24.37362893505022
 31
0.0
  0
LINE
  5
174
330
1F
100
AcDbEntity
  8
0
100
AcDbLine
 10
3.615531755411155
 20
-24.04786344569258
 30
0.0
 11
3.406094905998941
 21
-24.18413460041951
 31
0.0
  0
LINE
  5
175
330
1F
100
AcDbEntity
  8
0
100
AcDbLine
 10
3.85476110027588
 20
-23.97573202356628
 30
0.0
 11
3.615531755411155
 21
-24.04786344569258
 31
0.0
  0
LINE
  5
176
330
1F
100
AcDbEntity
  8
0
100
AcDbLine
 10
4.104618505132805
 20
-23.97351871371542
 30
0.0
 11
3.85476110027588
 21
-23.97573202356628
 31
0.0
  0
LINE
  5
177
330
1F
100
AcDbEntity
  8
0
100
AcDbLine
 10
4.104618505132805
 20
-23.97351871371542
 30
0.0
 11
8.104618505132805
 21
-23.97351871371542
 31
0.0
  0
LINE
  5
178
330
1F
100
AcDbEntity
  8
0
100
AcDbLine
 10
8.104618505132805
 20
-23.97351871371542
 30
0.0
 11
7.977237729702608
 21
-23.28271724727916
 31
0.0
  0
LINE
  5
179
330
1F
100
AcDbEntity
  8
0
100
AcDbLine
 10
7.977237729702608
 20
-23.28271724727916
 30
0.0
 11
7.891475348117353
 21
-22.5855247760888
 31
0.0
  0
LINE
  5
17A
330
1F
100
AcDbEntity
  8
0
100
AcDbLine
 10
7.891475348117353
 20
-22.5855247760888
 30
0.0
 11
7.847639510275883
 21
-21.88444635871992
 31
0.0
  0
LINE
  5
17B
330
1F
100
AcDbEntity
  8
0
100
AcDbLine
 10
7.847639510275883
 20
-21.88444635871992
 30
0.0
 11
7.845887721237489
 21
-21.18200101620929
 31
0.0
  0
LINE
  5
17C
330
1F
100
AcDbEntity
  8
0
100
AcDbLine
 10
7.845887721237489
 20
-21.18200101620929
 30
0.0
 11
7.886226275295826
 21
-20.48071268104594
 31
0.0
  0
LINE
  5
17D
330
1F
100
AcDbEntity
  8
0
100
AcDbLine
 10
7.886226275295826
 20
-20.48071268104594
 30
0.0
 11
7.968510233363133
 21
-19.78310112851512
 31
0.0
  0
LINE
  5
17E
330
1F
100
AcDbEntity
  8
0
100
AcDbLine
 10
7.968510233363133
 20
-19.78310112851512
 30
0.0
 11
8.092443943745991
 21
-19.09167292297932
 31
0.0
  0
LINE
  5
17F
330
1F
100
AcDbEntity
  8
0
100
AcDbLine
 10
8.092443943745991
 20
-19.09167292297932
 30
0.0
 11
8.25758210444127
 21
-18.40891241162712
 31
0.0
  0
LINE
  5
180
330
1F
100
AcDbEntity
  8
0
100
AcDbLine
 10
8.25758210444127
 20
-18.40891241162712
 30
0.0
 11
8.46333136313541
 21
-17.73727279804968
 31
0.0
  0
LINE
  5
181
330
1F
100
AcDbEntity
  8
0
100
AcDbLine
 10
8.46333136313541
 20
-17.73727279804968
 30
0.0
 11
8.708952449159312
 21
-17.07916732771822
 31
0.0
  0
LINE
  5
182
330
1F
100
AcDbEntity
  8
0
100
AcDbLine
 10
8.708952449159312
 20
-17.07916732771822
 30
0.0
 11
8.993562829735367
 21
-16.43696061703387
 31
0.0
  0
LINE
  5
183
330
1F
100
AcDbEntity
  8
0
100
AcDbLine
 10
8.993562829735367
 20
-16.43696061703387
 30
0.0
 11
9.316139880977346
 21
-15.81296015710473
 31
0.0
  0
LINE
  5
184
330
1F
100
AcDbEntity
  8
0
100
AcDbLine
 10
9.316139880977346
 20
-15.81296015710473
 30
0.0
 11
7.687638849594293
 21
-15.20655531160327
 31
0.0
  0
LINE
  5
185
330
1F
100
AcDbEntity
  8
0
100
AcDbLine
 10
7.687638849594293
 20
-15.20655531160327
 30
0.0
 11
6.002132673062931
 21
-14.78517876747043
 31
0.0
  0
LINE
  5
186
330
1F
100
AcDbEntity
  8
0
100
AcDbLine
 10
6.002132673062931
 20
-14.78517876747043
 30
0.0
 11
5.194494296808273
 21
-14.67983463143722
 31
0.0
  0
LINE
  5
187
330
1F
100
AcDbEntity
  8
0
100
AcDbLine
 10
5.194494296808273
 20
-14.67983463143722
 30
0.0
 11
4.351741208542592
 21
-14.71494934344827
 31
0.0
  0
LINE
  5
188
330
1F
100
AcDbEntity
  8
0
100
AcDbLine
 10
4.351741208542592
 20
-14.71494934344827
 30
0.0
 11
4.070823512454069
 21
-14.75006405545935
 31
0.0
  0
LINE
  5
189
330
1F
100
AcDbEntity
  8
0
100
AcDbLine
 10
4.070823512454069
 20
-14.75006405545935
 30
0.0
 11
3.649446968321229
 21
-14.64471991942614
 31
0.0
  0
LINE
  5
18A
330
1F
100
AcDbEntity
  8
0
100
AcDbLine
 10
3.649446968321229
 20
-14.64471991942614
 30
0.0
 11
3.263185136199411
 21
-14.4691463593708
 31
0.0
  0
LINE
  5
18B
330
1F
100
AcDbEntity
  8
0
100
AcDbLine
 10
3.263185136199411
 20
-14.4691463593708
 30
0.0
 11
2.806693880055548
 21
-14.4691463593708
 31
0.0
  0
LINE
  5
18C
330
1F
100
AcDbEntity
  8
0
100
AcDbLine
 10
2.806693880055548
 20
-14.4691463593708
 30
0.0
 11
2.104399639834071
 21
-14.64471991942614
 31
0.0
  0
LINE
  5
18D
330
1F
100
AcDbEntity
  8
0
100
AcDbLine
 10
2.104399639834071
 20
-14.64471991942614
 30
0.0
 11
1.68302309570123
 21
-15.31189944763648
 31
0.0
  0
LINE
  5
18E
330
1F
100
AcDbEntity
  8
0
100
AcDbLine
 10
1.68302309570123
 20
-15.31189944763648
 30
0.0
 11
1.402105399612708
 21
-15.38212887165862
 31
0.0
  0
LINE
  5
18F
330
1F
100
AcDbEntity
  8
0
100
AcDbLine
 10
1.402105399612708
 20
-15.38212887165862
 30
0.0
 11
1.050958279502026
 21
-15.62793185573612
 31
0.0
  0
LINE
  5
190
330
1F
100
AcDbEntity
  8
0
100
AcDbLine
 10
1.050958279502026
 20
-15.62793185573612
 30
0.0
 11
0.1028610552031637
 21
-15.73327599176933
 31
0.0
  0
LINE
  5
191
330
1F
100
AcDbEntity
  8
0
100
AcDbLine
 10
0.1028610552031637
 20
-15.73327599176933
 30
0.0
 11
-1.512415697306153
 21
-15.90884955182467
 31
0.0
  0
LINE
  5
192
330
1F
100
AcDbEntity
  8
0
100
AcDbLine
 10
-1.512415697306153
 20
-15.90884955182467
 30
0.0
 11
-1.863562817416835
 21
-15.99663633185234
 31
0.0
  0
LINE
  5
193
330
1F
100
AcDbEntity
  8
0
100
AcDbLine
 10
-2.76080188909765
 20
-15.93999648183243
 30
0.0
 11
-1.863562817416835
 21
-15.99663633185234
 31
0.0
  0
LINE
  5
194
330
1F
100
AcDbEntity
  8
0
100
AcDbLine
 10
-3.223182601929182
 20
-15.34948477458065
 30
0.0
 11
-2.76080188909765
 21
-15.93999648183243
 31
0.0
  0
LINE
  5
195
330
1F
100
AcDbEntity
  8
0
100
AcDbLine
 10
-2.823875301828423
 20
-15.04856338935478
 30
0.0
 11
-3.223182601929182
 21
-15.34948477458065
 31
0.0
  0
LINE
  5
196
330
1F
100
AcDbEntity
  8
0
100
AcDbLine
 10
-2.9967925121137
 20
-14.86800968989898
 30
0.0
 11
-2.823875301828423
 21
-15.04856338935478
 31
0.0
  0
LINE
  5
197
330
1F
100
AcDbEntity
  8
0
100
AcDbLine
 10
-3.4967925121137
 20
-14.86800968989898
 30
0.0
 11
-2.9967925121137
 21
-14.86800968989898
 31
0.0
  0
LINE
  5
198
330
1F
100
AcDbEntity
  8
0
100
AcDbLine
 10
-3.7467925121137
 20
-14.61800968989898
 30
0.0
 11
-3.4967925121137
 21
-14.86800968989898
 31
0.0
  0
LINE
  5
199
330
1F
100
AcDbEntity
  8
0
100
AcDbLine
 10
-3.7467925121137
 20
-14.36800968989898
 30
0.0
 11
-3.7467925121137
 21
-14.61800968989898
 31
0.0
  0
LINE
  5
19A
330
1F
100
AcDbEntity
  8
0
100
AcDbLine
 10
-3.388842180003451
 20
-14.01890861607917
 30
0.0
 11
-3.7467925121137
 21
-14.36800968989898
 31
0.0
  0
LINE
  5
19B
330
1F
100
AcDbEntity
  8
0
100
AcDbLine
 10
-2.638842180003451
 20
-14.01890861607917
 30
0.0
 11
-3.388842180003451
 21
-14.01890861607917
 31
0.0
  0
LINE
  5
19C
330
1F
100
AcDbEntity
  8
0
100
AcDbLine
 10
-2.638842180003451
 20
-13.76890861607917
 30
0.0
 11
-2.638842180003451
 21
-14.01890861607917
 31
0.0
  0
LINE
  5
19D
330
1F
100
AcDbEntity
  8
0
100
AcDbLine
 10
-2.284939361549675
 20
-13.41570499903867
 30
0.0
 11
-2.638842180003451
 21
-13.76890861607917
 31
0.0
  0
LINE
  5
19E
330
1F
100
AcDbEntity
  8
0
100
AcDbLine
 10
-2.284939361549675
 20
-13.41570499903867
 30
0.0
 11
-1.442186273283994
 21
-13.45081971104975
 31
0.0
  0
LINE
  5
19F
330
1F
100
AcDbEntity
  8
0
100
AcDbLine
 10
-1.442186273283994
 20
-13.45081971104975
 30
0.0
 11
-0.7047773210514947
 21
-13.59127855909404
 31
0.0
  0
LINE
  5
1A0
330
1F
100
AcDbEntity
  8
0
100
AcDbLine
 10
-0.7047773210514947
 20
-13.59127855909404
 30
0.0
 11
-0.5643184730071766
 21
-13.59127855909404
 31
0.0
  0
LINE
  5
1A1
330
1F
100
AcDbEntity
  8
0
100
AcDbLine
 10
-0.5643184730071766
 20
-13.59127855909404
 30
0.0
 11
-0.4940890489850744
 21
-13.31036086300546
 31
0.0
  0
LINE
  5
1A2
330
1F
100
AcDbEntity
  8
0
100
AcDbLine
 10
-0.4940890489850744
 20
-13.31036086300546
 30
0.0
 11
-0.8452361690958128
 21
-13.02944316691691
 31
0.0
  0
LINE
  5
1A3
330
1F
100
AcDbEntity
  8
0
100
AcDbLine
 10
-0.8452361690958128
 20
-13.02944316691691
 30
0.0
 11
-1.582645121328198
 21
-12.81875489485049
 31
0.0
  0
LINE
  5
1A4
330
1F
100
AcDbEntity
  8
0
100
AcDbLine
 10
-1.582645121328198
 20
-12.81875489485049
 30
0.0
 11
-2.460512921605016
 21
-12.81875489485049
 31
0.0
  0
LINE
  5
1A5
330
1F
100
AcDbEntity
  8
0
100
AcDbLine
 10
-2.460512921605016
 20
-12.81875489485049
 30
0.0
 11
-3.197921873837515
 21
-12.81875489485049
 31
0.0
  0
LINE
  5
1A6
330
1F
100
AcDbEntity
  8
0
100
AcDbLine
 10
-3.197921873837515
 20
-12.81875489485049
 30
0.0
 11
-3.584183705959219
 21
-12.99432845490583
 31
0.0
  0
LINE
  5
1A7
330
1F
100
AcDbEntity
  8
0
100
AcDbLine
 10
-3.584183705959219
 20
-12.99432845490583
 30
0.0
 11
-3.75975726601456
 21
-13.45081971104975
 31
0.0
  0
LINE
  5
1A8
330
1F
100
AcDbEntity
  8
0
100
AcDbLine
 10
-3.75975726601456
 20
-13.45081971104975
 30
0.0
 11
-3.970445538081037
 21
-13.62639327110512
 31
0.0
  0
LINE
  5
1A9
330
1F
100
AcDbEntity
  8
0
100
AcDbLine
 10
-3.970445538081037
 20
-13.62639327110512
 30
0.0
 11
-4.391822082213878
 21
-13.73173740713833
 31
0.0
  0
LINE
  5
1AA
330
1F
100
AcDbEntity
  8
0
100
AcDbLine
 10
-4.391822082213878
 20
-13.73173740713833
 30
0.0
 11
-5.339919306512741
 21
-13.76685211914938
 31
0.0
  0
LINE
  5
1AB
330
1F
100
AcDbEntity
  8
0
100
AcDbLine
 10
-5.339919306512741
 20
-13.76685211914938
 30
0.0
 11
-6.147557682767399
 21
-13.73173740713833
 31
0.0
  0
LINE
  5
1AC
330
1F
100
AcDbEntity
  8
0
100
AcDbLine
 10
-6.147557682767399
 20
-13.73173740713833
 30
0.0
 11
-6.920081347010921
 21
-13.20501672697225
 31
0.0
  0
LINE
  5
1AD
330
1F
100
AcDbEntity
  8
0
100
AcDbLine
 10
-6.920081347010921
 20
-13.20501672697225
 30
0.0
 11
-7.095654907066262
 21
-12.95921374289478
 31
0.0
  0
LINE
  5
1AE
330
1F
100
AcDbEntity
  8
0
100
AcDbLine
 10
-7.095654907066262
 20
-12.95921374289478
 30
0.0
 11
-7.025425483044103
 21
-12.81875489485049
 31
0.0
  0
LINE
  5
1AF
330
1F
100
AcDbEntity
  8
0
100
AcDbLine
 10
-7.025425483044103
 20
-12.81875489485049
 30
0.0
 11
-7.200999043099443
 21
-12.57295191077299
 31
0.0
  0
LINE
  5
1B0
330
1F
100
AcDbEntity
  8
0
100
AcDbLine
 10
-7.200999043099443
 20
-12.57295191077299
 30
0.0
 11
-7.903293283320863
 21
-12.32714892669552
 31
0.0
  0
LINE
  5
1B1
330
1F
100
AcDbEntity
  8
0
100
AcDbLine
 10
-7.903293283320863
 20
-12.32714892669552
 30
0.0
 11
-8.078866843376261
 21
-12.08134594261802
 31
0.0
  0
LINE
  5
1B2
330
1F
100
AcDbEntity
  8
0
100
AcDbLine
 10
28.66583199206764
 20
-9.345634652834157
 30
0.0
 11
28.92906378164562
 21
-9.081856917390247
 31
0.0
  0
LINE
  5
1B3
330
1F
100
AcDbEntity
  8
0
100
AcDbLine
 10
28.34329890660709
 20
-9.532294979480248
 30
0.0
 11
28.66583199206764
 21
-9.345634652834157
 31
0.0
  0
LINE
  5
1B4
330
1F
100
AcDbEntity
  8
0
100
AcDbLine
 10
27.98344462202695
 20
-9.629117304538404
 30
0.0
 11
28.34329890660709
 21
-9.532294979480248
 31
0.0
  0
LINE
  5
1B5
330
1F
100
AcDbEntity
  8
0
100
AcDbLine
 10
27.61079261313407
 20
-9.629503346562338
 30
0.0
 11
27.98344462202695
 21
-9.629117304538404
 31
0.0
  0
LINE
  5
1B6
330
1F
100
AcDbEntity
  8
0
100
AcDbLine
 10
27.25073849849792
 20
-9.53342679742611
 30
0.0
 11
27.61079261313407
 21
-9.629503346562338
 31
0.0
  0
LINE
  5
1B7
330
1F
100
AcDbEntity
  8
0
100
AcDbLine
 10
26.92781937101341
 20
-9.347435115179316
 30
0.0
 11
27.25073849849792
 21
-9.53342679742611
 31
0.0
  0
LINE
  5
1B8
330
1F
100
AcDbEntity
  8
0
100
AcDbLine
 10
26.6640416355695
 20
-9.08420332560133
 30
0.0
 11
26.92781937101341
 21
-9.347435115179316
 31
0.0
  0
LINE
  5
1B9
330
1F
100
AcDbEntity
  8
0
100
AcDbLine
 10
26.47738130892344
 20
-8.76167024014078
 30
0.0
 11
26.6640416355695
 21
-9.08420332560133
 31
0.0
  0
LINE
  5
1BA
330
1F
100
AcDbEntity
  8
0
100
AcDbLine
 10
26.46548214154831
 20
-8.717445250085099
 30
0.0
 11
26.47738130892344
 21
-8.76167024014078
 31
0.0
  0
LINE
  5
1BB
330
1F
100
AcDbEntity
  8
0
100
AcDbLine
 10
26.46548214154831
 20
-8.717445250085099
 30
0.0
 11
25.55600240080167
 21
-9.574402333747408
 31
0.0
  0
LINE
  5
1BC
330
1F
100
AcDbEntity
  8
0
100
AcDbLine
 10
25.55600240080167
 20
-9.574402333747408
 30
0.0
 11
24.2887843769343
 21
-10.26481278961538
 31
0.0
  0
LINE
  5
1BD
330
1F
100
AcDbEntity
  8
0
100
AcDbLine
 10
24.2887843769343
 20
-10.26481278961538
 30
0.0
 11
22.8383338442822
 21
-10.65856983242654
 31
0.0
  0
LINE
  5
1BE
330
1F
100
AcDbEntity
  8
0
100
AcDbLine
 10
22.8383338442822
 20
-10.65856983242654
 30
0.0
 11
21.30349660966289
 21
-10.72883957042749
 31
0.0
  0
LINE
  5
1BF
330
1F
100
AcDbEntity
  8
0
100
AcDbLine
 10
21.30349660966289
 20
-10.72883957042749
 30
0.0
 11
15.81835001062962
 21
-11.13277865879741
 31
0.0
  0
LINE
  5
1C0
330
1F
100
AcDbEntity
  8
0
100
AcDbLine
 10
15.81835001062962
 20
-11.13277865879741
 30
0.0
 11
15.58538377410576
 21
-11.30462751494409
 31
0.0
  0
LINE
  5
1C1
330
1F
100
AcDbEntity
  8
0
100
AcDbLine
 10
15.58538377410576
 20
-11.30462751494409
 30
0.0
 11
15.38164775702245
 21
-11.51028969440842
 31
0.0
  0
LINE
  5
1C2
330
1F
100
AcDbEntity
  8
0
100
AcDbLine
 10
15.38164775702245
 20
-11.51028969440842
 30
0.0
 11
15.21199860858536
 21
-11.74486263222
 31
0.0
  0
LINE
  5
1C3
330
1F
100
AcDbEntity
  8
0
100
AcDbLine
 10
15.21199860858536
 20
-11.74486263222
 30
0.0
 11
15.08048041689341
 21
-12.00275459016573
 31
0.0
  0
LINE
  5
1C4
330
1F
100
AcDbEntity
  8
0
100
AcDbLine
 10
15.08048041689341
 20
-12.00275459016573
 30
0.0
 11
14.99022830616462
 21
-12.27781795237161
 31
0.0
  0
LINE
  5
1C5
330
1F
100
AcDbEntity
  8
0
100
AcDbLine
 10
14.99022830616462
 20
-12.27781795237161
 30
0.0
 11
14.94339370179824
 21
-12.56349577186908
 31
0.0
  0
LINE
  5
1C6
330
1F
100
AcDbEntity
  8
0
100
AcDbLine
 10
14.94339370179824
 20
-12.56349577186908
 30
0.0
 11
14.94109304480122
 21
-12.85297807477614
 31
0.0
  0
LINE
  5
1C7
330
1F
100
AcDbEntity
  8
0
100
AcDbLine
 10
14.94109304480122
 20
-12.85297807477614
 30
0.0
 11
14.98338117812267
 21
-13.13936419612143
 31
0.0
  0
LINE
  5
1C8
330
1F
100
AcDbEntity
  8
0
100
AcDbLine
 10
14.98338117812267
 20
-13.13936419612143
 30
0.0
 11
15.06925003930968
 21
-13.41582727755807
 31
0.0
  0
LINE
  5
1C9
330
1F
100
AcDbEntity
  8
0
100
AcDbLine
 10
15.06925003930968
 20
-13.41582727755807
 30
0.0
 11
15.19665269065109
 21
-13.67577700567904
 31
0.0
  0
LINE
  5
1CA
330
1F
100
AcDbEntity
  8
0
100
AcDbLine
 10
15.19665269065109
 20
-13.67577700567904
 30
0.0
 11
15.36255211397855
 21
-13.91301671158559
 31
0.0
  0
LINE
  5
1CB
330
1F
100
AcDbEntity
  8
0
100
AcDbLine
 10
15.36255211397855
 20
-13.91301671158559
 30
0.0
 11
15.5629936069567
 21
-14.1218910867772
 31
0.0
  0
LINE
  5
1CC
330
1F
100
AcDbEntity
  8
0
100
AcDbLine
 10
15.5629936069567
 20
-14.1218910867772
 30
0.0
 11
16.5629936069567
 21
-14.12189108677703
 31
0.0
  0
LINE
  5
1CD
330
1F
100
AcDbEntity
  8
0
100
AcDbLine
 10
16.5629936069567
 20
-14.12189108677703
 30
0.0
 11
16.54429895869572
 21
-13.76378946991466
 31
0.0
  0
LINE
  5
1CE
330
1F
100
AcDbEntity
  8
0
100
AcDbLine
 10
16.54429895869572
 20
-13.76378946991466
 30
0.0
 11
16.63180837520758
 21
-13.4160419179535
 31
0.0
  0
LINE
  5
1CF
330
1F
100
AcDbEntity
  8
0
100
AcDbLine
 10
16.63180837520758
 20
-13.4160419179535
 30
0.0
 11
16.81777276365978
 21
-13.10944200911354
 31
0.0
  0
LINE
  5
1D0
330
1F
100
AcDbEntity
  8
0
100
AcDbLine
 10
16.81777276365978
 20
-13.10944200911354
 30
0.0
 11
17.0857246926945
 21
-12.87113963480773
 31
0.0
  0
LINE
  5
1D1
330
1F
100
AcDbEntity
  8
0
100
AcDbLine
 10
17.0857246926945
 20
-12.87113963480773
 30
0.0
 11
17.41193660869016
 21
-12.72223683518511
 31
0.0
  0
LINE
  5
1D2
330
1F
100
AcDbEntity
  8
0
100
AcDbLine
 10
17.41193660869016
 20
-12.72223683518511
 30
0.0
 11
17.767521946969
 21
-12.67591918116177
 31
0.0
  0
LINE
  5
1D3
330
1F
100
AcDbEntity
  8
0
100
AcDbLine
 10
17.767521946969
 20
-12.67591918116177
 30
0.0
 11
18.12099308133116
 21
-12.73628817192577
 31
0.0
  0
LINE
  5
1D4
330
1F
100
AcDbEntity
  8
0
100
AcDbLine
 10
18.12099308133116
 20
-12.73628817192577
 30
0.0
 11
18.44104960157114
 21
-12.89799804090413
 31
0.0
  0
LINE
  5
1D5
330
1F
100
AcDbEntity
  8
0
100
AcDbLine
 10
18.44104960157114
 20
-12.89799804090413
 30
0.0
 11
18.69935001273046
 21
-13.14672913157853
 31
0.0
  0
LINE
  5
1D6
330
1F
100
AcDbEntity
  8
0
100
AcDbLine
 10
18.69935001273046
 20
-13.14672913157853
 30
0.0
 11
18.87302141787478
 21
-13.46045592499659
 31
0.0
  0
LINE
  5
1D7
330
1F
100
AcDbEntity
  8
0
100
AcDbLine
 10
18.87302141787478
 20
-13.46045592499659
 30
0.0
 11
18.94668494814169
 21
-13.81139743320251
 31
0.0
  0
LINE
  5
1D8
330
1F
100
AcDbEntity
  8
0
100
AcDbLine
 10
18.94668494814169
 20
-13.81139743320251
 30
0.0
 11
19.44668494814169
 21
-13.81139743320251
 31
0.0
  0
LINE
  5
1D9
330
1F
100
AcDbEntity
  8
0
100
AcDbLine
 10
19.44668494814169
 20
-13.81139743320251
 30
0.0
 11
19.56383927993448
 21
-13.67548243088942
 31
0.0
  0
LINE
  5
1DA
330
1F
100
AcDbEntity
  8
0
100
AcDbLine
 10
19.56383927993448
 20
-13.67548243088942
 30
0.0
 11
19.67564928816626
 21
-13.48680304199832
 31
0.0
  0
LINE
  5
1DB
330
1F
100
AcDbEntity
  8
0
100
AcDbLine
 10
19.67564928816626
 20
-13.48680304199832
 30
0.0
 11
19.68962553919522
 21
-13.3051117786217
 31
0.0
  0
LINE
  5
1DC
330
1F
100
AcDbEntity
  8
0
100
AcDbLine
 10
19.68962553919522
 20
-13.3051117786217
 30
0.0
 11
19.68263741368077
 21
-13.24920677450582
 31
0.0
  0
LINE
  5
1DD
330
1F
100
AcDbEntity
  8
0
100
AcDbLine
 10
19.68263741368077
 20
-13.24920677450582
 30
0.0
 11
19.69661366470967
 21
-13.15137301730304
 31
0.0
  0
LINE
  5
1DE
330
1F
100
AcDbEntity
  8
0
100
AcDbLine
 10
19.69661366470967
 20
-13.15137301730304
 30
0.0
 11
19.84336430051388
 21
-13.0745036366437
 31
0.0
  0
LINE
  5
1DF
330
1F
100
AcDbEntity
  8
0
100
AcDbLine
 10
19.84336430051388
 20
-13.0745036366437
 30
0.0
 11
20.14385369763676
 21
-13.03956300907127
 31
0.0
  0
LINE
  5
1E0
330
1F
100
AcDbEntity
  8
0
100
AcDbLine
 10
20.14385369763676
 20
-13.03956300907127
 30
0.0
 11
20.5561531029914
 21
-13.06751551112922
 31
0.0
  0
LINE
  5
1E1
330
1F
100
AcDbEntity
  8
0
100
AcDbLine
 10
20.5561531029914
 20
-13.06751551112922
 30
0.0
 11
20.89158312768672
 21
-13.24920677450582
 31
0.0
  0
LINE
  5
1E2
330
1F
100
AcDbEntity
  8
0
100
AcDbLine
 10
20.89158312768672
 20
-13.24920677450582
 30
0.0
 11
20.94050000628812
 21
-13.29113552759274
 31
0.0
  0
LINE
  5
1E3
330
1F
100
AcDbEntity
  8
0
100
AcDbLine
 10
20.94050000628812
 20
-13.29113552759274
 30
0.0
 11
20.9754406338605
 21
-13.37499303376655
 31
0.0
  0
LINE
  5
1E4
330
1F
100
AcDbEntity
  8
0
100
AcDbLine
 10
20.9754406338605
 20
-13.37499303376655
 30
0.0
 11
21.00339313591843
 21
-13.52873179508524
 31
0.0
  0
LINE
  5
1E5
330
1F
100
AcDbEntity
  8
0
100
AcDbLine
 10
21.00339313591843
 20
-13.52873179508524
 30
0.0
 11
21.00339313591843
 21
-13.67548243088942
 31
0.0
  0
LINE
  5
1E6
330
1F
100
AcDbEntity
  8
0
100
AcDbLine
 10
21.00339313591843
 20
-13.67548243088942
 30
0.0
 11
21.08026251657776
 21
-13.85018556875156
 31
0.0
  0
LINE
  5
1E7
330
1F
100
AcDbEntity
  8
0
100
AcDbLine
 10
21.08026251657776
 20
-13.85018556875156
 30
0.0
 11
21.14315564620819
 21
-13.92705494941089
 31
0.0
  0
LINE
  5
1E8
330
1F
100
AcDbEntity
  8
0
100
AcDbLine
 10
21.14315564620819
 20
-13.92705494941089
 30
0.0
 11
21.23400127789648
 21
-13.96898370249782
 31
0.0
  0
LINE
  5
1E9
330
1F
100
AcDbEntity
  8
0
100
AcDbLine
 10
21.23400127789648
 20
-13.96898370249782
 30
0.0
 11
21.39472816472966
 21
-14.03187683212818
 31
0.0
  0
LINE
  5
1EA
330
1F
100
AcDbEntity
  8
0
100
AcDbLine
 10
21.39472816472966
 20
-14.03187683212818
 30
0.0
 11
21.52750254950485
 21
-14.15766309138892
 31
0.0
  0
LINE
  5
1EB
330
1F
100
AcDbEntity
  8
0
100
AcDbLine
 10
21.52750254950485
 20
-14.15766309138892
 30
0.0
 11
21.61136005567869
 21
-14.33236622925103
 31
0.0
  0
LINE
  5
1EC
330
1F
100
AcDbEntity
  8
0
100
AcDbLine
 10
21.61136005567869
 20
-14.33236622925103
 30
0.0
 11
21.68822943633802
 21
-14.55598624571457
 31
0.0
  0
LINE
  5
1ED
330
1F
100
AcDbEntity
  8
0
100
AcDbLine
 10
21.68822943633802
 20
-14.55598624571457
 30
0.0
 11
21.69521756185253
 21
-14.73068938357671
 31
0.0
  0
LINE
  5
1EE
330
1F
100
AcDbEntity
  8
0
100
AcDbLine
 10
21.69521756185253
 20
-14.73068938357671
 30
0.0
 11
21.60437193016418
 21
-14.87744001938089
 31
0.0
  0
LINE
  5
1EF
330
1F
100
AcDbEntity
  8
0
100
AcDbLine
 10
21.60437193016418
 20
-14.87744001938089
 30
0.0
 11
21.54846692604832
 21
-15.03816690621407
 31
0.0
  0
LINE
  5
1F0
330
1F
100
AcDbEntity
  8
0
100
AcDbLine
 10
21.54846692604832
 20
-15.03816690621407
 30
0.0
 11
21.54147880053387
 21
-15.34564442885139
 31
0.0
  0
LINE
  5
1F1
330
1F
100
AcDbEntity
  8
0
100
AcDbLine
 10
21.54147880053387
 20
-15.34564442885139
 30
0.0
 11
21.59039567913527
 21
-15.49938319017009
 31
0.0
  0
LINE
  5
1F2
330
1F
100
AcDbEntity
  8
0
100
AcDbLine
 10
21.59039567913527
 20
-15.49938319017009
 30
0.0
 11
21.70919381288144
 21
-15.66011007700323
 31
0.0
  0
LINE
  5
1F3
330
1F
100
AcDbEntity
  8
0
100
AcDbLine
 10
21.70919381288144
 20
-15.66011007700323
 30
0.0
 11
21.82100382111327
 21
-15.86276571692333
 31
0.0
  0
LINE
  5
1F4
330
1F
100
AcDbEntity
  8
0
100
AcDbLine
 10
21.82100382111327
 20
-15.86276571692333
 30
0.0
 11
21.85594444868565
 21
-16.01650447824199
 31
0.0
  0
LINE
  5
1F5
330
1F
100
AcDbEntity
  8
0
100
AcDbLine
 10
21.85594444868565
 20
-16.01650447824199
 30
0.0
 11
21.84895632317119
 21
-16.16325511404617
 31
0.0
  0
LINE
  5
1F6
330
1F
100
AcDbEntity
  8
0
100
AcDbLine
 10
21.84895632317119
 20
-16.16325511404617
 30
0.0
 11
21.80003944456979
 21
-16.33097012639383
 31
0.0
  0
LINE
  5
1F7
330
1F
100
AcDbEntity
  8
0
100
AcDbLine
 10
21.80003944456979
 20
-16.33097012639383
 30
0.0
 11
21.70919381288144
 21
-16.47073263668353
 31
0.0
  0
LINE
  5
1F8
330
1F
100
AcDbEntity
  8
0
100
AcDbLine
 10
21.70919381288144
 20
-16.47073263668353
 30
0.0
 11
21.59738380464972
 21
-16.56856639388634
 31
0.0
  0
LINE
  5
1F9
330
1F
100
AcDbEntity
  8
0
100
AcDbLine
 10
21.59738380464972
 20
-16.56856639388634
 30
0.0
 11
21.34845962497133
 21
-16.65057415721271
 31
0.0
  0
LINE
  5
1FA
330
1F
100
AcDbEntity
  8
0
100
AcDbLine
 10
21.34845962497133
 20
-16.65057415721271
 30
0.0
 11
21.18752104685194
 21
-16.72485350096012
 31
0.0
  0
LINE
  5
1FB
330
1F
100
AcDbEntity
  8
0
100
AcDbLine
 10
21.18752104685194
 20
-16.72485350096012
 30
0.0
 11
21.03896235935719
 21
-16.73723339158469
 31
0.0
  0
LINE
  5
1FC
330
1F
100
AcDbEntity
  8
0
100
AcDbLine
 10
21.03896235935719
 20
-16.73723339158469
 30
0.0
 11
20.64280585937098
 21
-16.84865240720578
 31
0.0
  0
LINE
  5
1FD
330
1F
100
AcDbEntity
  8
0
100
AcDbLine
 10
20.64280585937098
 20
-16.84865240720578
 30
0.0
 11
20.29616892188318
 21
-16.86103229783036
 31
0.0
  0
LINE
  5
1FE
330
1F
100
AcDbEntity
  8
0
100
AcDbLine
 10
20.29616892188318
 20
-16.86103229783036
 30
0.0
 11
20.11047056251465
 21
-17.08387032907255
 31
0.0
  0
LINE
  5
1FF
330
1F
100
AcDbEntity
  8
0
100
AcDbLine
 10
20.11047056251465
 20
-17.08387032907255
 30
0.0
 11
20.0238113281427
 21
-17.24480890719193
 31
0.0
  0
LINE
  5
200
330
1F
100
AcDbEntity
  8
0
100
AcDbLine
 10
20.0238113281427
 20
-17.24480890719193
 30
0.0
 11
20.01143143751807
 21
-17.40574748531129
 31
0.0
  0
LINE
  5
201
330
1F
100
AcDbEntity
  8
0
100
AcDbLine
 10
20.01143143751807
 20
-17.40574748531129
 30
0.0
 11
20.15999012501294
 21
-17.70286486030091
 31
0.0
  0
LINE
  5
202
330
1F
100
AcDbEntity
  8
0
100
AcDbLine
 10
20.15999012501294
 20
-17.70286486030091
 30
0.0
 11
20.17237001563745
 21
-17.86380343842027
 31
0.0
  0
LINE
  5
203
330
1F
100
AcDbEntity
  8
0
100
AcDbLine
 10
20.17237001563745
 20
-17.86380343842027
 30
0.0
 11
20.09809067189008
 21
-18.01236212591508
 31
0.0
  0
LINE
  5
204
330
1F
100
AcDbEntity
  8
0
100
AcDbLine
 10
20.09809067189008
 20
-18.01236212591508
 30
0.0
 11
19.85049285939874
 21
-18.12378114153618
 31
0.0
  0
LINE
  5
205
330
1F
100
AcDbEntity
  8
0
100
AcDbLine
 10
19.85049285939874
 20
-18.12378114153618
 30
0.0
 11
19.5162358125354
 21
-18.18568059465901
 31
0.0
  0
LINE
  5
206
330
1F
100
AcDbEntity
  8
0
100
AcDbLine
 10
19.5162358125354
 20
-18.18568059465901
 30
0.0
 11
18.81058204693511
 21
-18.18568059465901
 31
0.0
  0
LINE
  5
207
330
1F
100
AcDbEntity
  8
0
100
AcDbLine
 10
18.81058204693511
 20
-18.18568059465901
 30
0.0
 11
17.869710359468
 21
-18.17330070403447
 31
0.0
  0
LINE
  5
208
330
1F
100
AcDbEntity
  8
0
100
AcDbLine
 10
17.869710359468
 20
-18.17330070403447
 30
0.0
 11
17.5230734219802
 21
-18.30947950090474
 31
0.0
  0
LINE
  5
209
330
1F
100
AcDbEntity
  8
0
100
AcDbLine
 10
17.5230734219802
 20
-18.30947950090474
 30
0.0
 11
17.76023541269643
 21
-18.69786337582847
 31
0.0
  0
LINE
  5
20A
330
1F
100
AcDbEntity
  8
0
100
AcDbLine
 10
17.76023541269643
 20
-18.69786337582847
 30
0.0
 11
17.98205953008295
 21
-19.09520693634881
 31
0.0
  0
LINE
  5
20B
330
1F
100
AcDbEntity
  8
0
100
AcDbLine
 10
17.98205953008295
 20
-19.09520693634881
 30
0.0
 11
18.18820779511105
 21
-19.50090477583922
 31
0.0
  0
LINE
  5
20C
330
1F
100
AcDbEntity
  8
0
100
AcDbLine
 10
18.18820779511105
 20
-19.50090477583922
 30
0.0
 11
18.3783661130322
 21
-19.91433875879992
 31
0.0
  0
LINE
  5
20D
330
1F
100
AcDbEntity
  8
0
100
AcDbLine
 10
18.3783661130322
 20
-19.91433875879992
 30
0.0
 11
18.55224475194382
 21
-20.33487896267051
 31
0.0
  0
LINE
  5
20E
330
1F
100
AcDbEntity
  8
0
100
AcDbLine
 10
18.55224475194382
 20
-20.33487896267051
 30
0.0
 11
18.70957878423513
 21
-20.76188463760275
 31
0.0
  0
LINE
  5
20F
330
1F
100
AcDbEntity
  8
0
100
AcDbLine
 10
18.70957878423513
 20
-20.76188463760275
 30
0.0
 11
18.85012849023968
 21
-21.19470518272895
 31
0.0
  0
LINE
  5
210
330
1F
100
AcDbEntity
  8
0
100
AcDbLine
 10
18.85012849023968
 20
-21.19470518272895
 30
0.0
 11
18.9736797234811
 21
-21.63268113744085
 31
0.0
  0
LINE
  5
211
330
1F
100
AcDbEntity
  8
0
100
AcDbLine
 10
18.9736797234811
 20
-21.63268113744085
 30
0.0
 11
19.08004423695439
 21
-22.07514518616677
 31
0.0
  0
LINE
  5
212
330
1F
100
AcDbEntity
  8
0
100
AcDbLine
 10
19.08004423695439
 20
-22.07514518616677
 30
0.0
 11
19.16905996994478
 21
-22.52142317511701
 31
0.0
  0
LINE
  5
213
330
1F
100
AcDbEntity
  8
0
100
AcDbLine
 10
19.16905996994478
 20
-22.52142317511701
 30
0.0
 11
19.24059129495043
 21
-22.9708351394485
 31
0.0
  0
LINE
  5
214
330
1F
100
AcDbEntity
  8
0
100
AcDbLine
 10
19.24059129495043
 20
-22.9708351394485
 30
0.0
 11
19.29452922432796
 21
-23.42269633928278
 31
0.0
  0
LINE
  5
215
330
1F
100
AcDbEntity
  8
0
100
AcDbLine
 10
19.29452922432796
 20
-23.42269633928278
 30
0.0
 11
19.31421929663082
 21
-23.83725161623356
 31
0.0
  0
LINE
  5
216
330
1F
100
AcDbEntity
  8
0
100
AcDbLine
 10
19.31421929663082
 20
-23.83725161623356
 30
0.0
 11
19.26814975848157
 21
-24.24970934043041
 31
0.0
  0
LINE
  5
217
330
1F
100
AcDbEntity
  8
0
100
AcDbLine
 10
19.26814975848157
 20
-24.24970934043041
 30
0.0
 11
19.15747840156314
 21
-24.64970387458411
 31
0.0
  0
LINE
  5
218
330
1F
100
AcDbEntity
  8
0
100
AcDbLine
 10
19.15747840156314
 20
-24.64970387458411
 30
0.0
 11
18.98498655127401
 21
-25.02718279873591
 31
0.0
  0
LINE
  5
219
330
1F
100
AcDbEntity
  8
0
100
AcDbLine
 10
18.98498655127401
 20
-25.02718279873591
 30
0.0
 11
18.75500916814605
 21
-25.37265954157783
 31
0.0
  0
LINE
  5
21A
330
1F
100
AcDbEntity
  8
0
100
AcDbLine
 10
18.75500916814605
 20
-25.37265954157783
 30
0.0
 11
18.47332590424656
 21
-25.67745179120681
 31
0.0
  0
LINE
  5
21B
330
1F
100
AcDbEntity
  8
0
100
AcDbLine
 10
18.47332590424656
 20
-25.67745179120681
 30
0.0
 11
18.14701585246866
 21
-25.93389969372046
 31
0.0
  0
LINE
  5
21C
330
1F
100
AcDbEntity
  8
0
100
AcDbLine
 10
18.14701585246866
 20
-25.93389969372046
 30
0.0
 11
17.78427963906364
 21
-26.13555835601798
 31
0.0
  0
LINE
  5
21D
330
1F
100
AcDbEntity
  8
0
100
AcDbLine
 10
17.78427963906364
 20
-26.13555835601798
 30
0.0
 11
17.3942333304775
 21
-26.27735981494318
 31
0.0
  0
LINE
  5
21E
330
1F
100
AcDbEntity
  8
0
100
AcDbLine
 10
17.3942333304775
 20
-26.27735981494318
 30
0.0
 11
16.98667933389936
 21
-26.35574040226024
 31
0.0
  0
LINE
  5
21F
330
1F
100
AcDbEntity
  8
0
100
AcDbLine
 10
16.98667933389936
 20
-26.35574040226024
 30
0.0
 11
16.57186004911119
 21
-26.36873030460178
 31
0.0
  0
LINE
  5
220
330
1F
100
AcDbEntity
  8
0
100
AcDbLine
 10
16.57186004911119
 20
-26.36873030460178
 30
0.0
 11
16.16020046271052
 21
-26.31600306762301
 31
0.0
  0
LINE
  5
221
330
1F
100
AcDbEntity
  8
0
100
AcDbLine
 10
16.16020046271052
 20
-28.56600306762301
 30
0.0
 11
16.16020046271052
 21
-26.31600306762301
 31
0.0
  0
LINE
  5
222
330
1F
100
AcDbEntity
  8
0
100
AcDbLine
 10
15.16020046271052
 20
-28.56600306762301
 30
0.0
 11
16.16020046271052
 21
-28.56600306762301
 31
0.0
  0
LINE
  5
223
330
1F
100
AcDbEntity
  8
0
100
AcDbLine
 10
15.16020046271052
 20
-34.04269799038342
 30
0.0
 11
15.16020046271052
 21
-28.56600306762301
 31
0.0
  0
LINE
  5
224
330
1F
100
AcDbEntity
  8
0
100
AcDbLine
 10
10.41020046271052
 20
-34.04269799038342
 30
0.0
 11
15.16020046271052
 21
-34.04269799038342
 31
0.0
  0
LINE
  5
225
330
1F
100
AcDbEntity
  8
0
100
AcDbLine
 10
10.41020046271052
 20
-28.56600306762302
 30
0.0
 11
10.41020046271052
 21
-34.04269799038342
 31
0.0
  0
LINE
  5
226
330
1F
100
AcDbEntity
  8
0
100
AcDbLine
 10
9.41020046271052
 20
-28.56600306762302
 30
0.0
 11
10.41020046271052
 21
-28.56600306762302
 31
0.0
  0
LINE
  5
227
330
1F
100
AcDbEntity
  8
0
100
AcDbLine
 10
87.55785809503223
 20
-48.4487840805641
 30
0.0
 11
88.83335442487606
 21
-48.44878408056409
 31
0.0
  0
LINE
  5
228
330
1F
100
AcDbEntity
  8
0
100
AcDbLine
 10
87.55785809503223
 20
-49.64878408056409
 30
0.0
 11
87.55785809503223
 21
-48.4487840805641
 31
0.0
  0
LINE
  5
229
330
1F
100
AcDbEntity
  8
0
100
AcDbLine
 10
77.72318336507092
 20
-49.64878408056391
 30
0.0
 11
87.55785809503223
 21
-49.64878408056409
 31
0.0
  0
LINE
  5
22A
330
1F
100
AcDbEntity
  8
0
100
AcDbLine
 10
77.72318336507092
 20
-48.24248349798973
 30
0.0
 11
77.72318336507092
 21
-49.64878408056391
 31
0.0
  0
LINE
  5
22B
330
1F
100
AcDbEntity
  8
0
100
AcDbLine
 10
48.92318336507083
 20
-48.24248349798989
 30
0.0
 11
77.72318336507092
 21
-48.24248349798973
 31
0.0
  0
LINE
  5
22C
330
1F
100
AcDbEntity
  8
0
100
AcDbLine
 10
48.92318336507083
 20
-49.64878408056406
 30
0.0
 11
48.92318336507083
 21
-48.24248349798989
 31
0.0
  0
LINE
  5
22D
330
1F
100
AcDbEntity
  8
0
100
AcDbLine
 10
39.60818594094485
 20
-49.64878408056408
 30
0.0
 11
48.92318336507083
 21
-49.64878408056406
 31
0.0
  0
LINE
  5
22E
330
1F
100
AcDbEntity
  8
0
100
AcDbLine
 10
39.60818594094485
 20
-48.44878408056409
 30
0.0
 11
39.60818594094485
 21
-49.64878408056408
 31
0.0
  0
LINE
  5
22F
330
1F
100
AcDbEntity
  8
0
100
AcDbLine
 10
38.37783418947276
 20
-48.44878408056409
 30
0.0
 11
39.60818594094485
 21
-48.44878408056409
 31
0.0
  0
LINE
  5
230
330
1F
100
AcDbEntity
  8
0
100
AcDbLine
 10
41.64621942863369
 20
-18.23934461085531
 30
0.0
 11
38.37783418947276
 21
-48.44878408056409
 31
0.0
  0
LINE
  5
231
330
1F
100
AcDbEntity
  8
0
100
AcDbLine
 10
42.87652796488476
 20
-18.23934461085528
 30
0.0
 11
41.64621942863369
 21
-18.23934461085531
 31
0.0
  0
LINE
  5
232
330
1F
100
AcDbEntity
  8
0
100
AcDbLine
 10
43.10806091721548
 20
-16.09927677661855
 30
0.0
 11
42.87652796488476
 21
-18.23934461085528
 31
0.0
  0
LINE
  5
233
330
1F
100
AcDbEntity
  8
0
100
AcDbLine
 10
49.41711023597702
 20
-16.09927677661852
 30
0.0
 11
43.10806091721548
 21
-16.09927677661855
 31
0.0
  0
LINE
  5
234
330
1F
100
AcDbEntity
  8
0
100
AcDbLine
 10
49.41711023597702
 20
-18.23806066923864
 30
0.0
 11
49.41711023597702
 21
-16.09927677661852
 31
0.0
  0
LINE
  5
235
330
1F
100
AcDbEntity
  8
0
100
AcDbLine
 10
54.217110235977
 20
-18.23806066923863
 30
0.0
 11
49.41711023597702
 21
-18.23806066923864
 31
0.0
  0
LINE
  5
236
330
1F
100
AcDbEntity
  8
0
100
AcDbLine
 10
54.217110235977
 20
-16.09927677661859
 30
0.0
 11
54.217110235977
 21
-18.23806066923863
 31
0.0
  0
LINE
  5
237
330
1F
100
AcDbEntity
  8
0
100
AcDbLine
 10
72.9940783783718
 20
-16.09927677661856
 30
0.0
 11
54.217110235977
 21
-16.09927677661859
 31
0.0
  0
LINE
  5
238
330
1F
100
AcDbEntity
  8
0
100
AcDbLine
 10
72.9940783783718
 20
-18.23806066923866
 30
0.0
 11
72.9940783783718
 21
-16.09927677661856
 31
0.0
  0
LINE
  5
239
330
1F
100
AcDbEntity
  8
0
100
AcDbLine
 10
77.79407837837181
 20
-18.23806066923864
 30
0.0
 11
72.9940783783718
 21
-18.23806066923866
 31
0.0
  0
LINE
  5
23A
330
1F
100
AcDbEntity
  8
0
100
AcDbLine
 10
77.79407837837181
 20
-16.09927677661852
 30
0.0
 11
77.79407837837181
 21
-18.23806066923864
 31
0.0
  0
LINE
  5
23B
330
1F
100
AcDbEntity
  8
0
100
AcDbLine
 10
84.10312769713335
 20
-16.0992767766186
 30
0.0
 11
77.79407837837181
 21
-16.09927677661852
 31
0.0
  0
LINE
  5
23C
330
1F
100
AcDbEntity
  8
0
100
AcDbLine
 10
84.33466064946404
 20
-18.23934461085536
 30
0.0
 11
84.10312769713335
 21
-16.0992767766186
 31
0.0
  0
LINE
  5
23D
330
1F
100
AcDbEntity
  8
0
100
AcDbLine
 10
85.5649001353062
 20
-18.23934834612133
 30
0.0
 11
84.33466064946404
 21
-18.23934461085536
 31
0.0
  0
LINE
  5
23E
330
1F
100
AcDbEntity
  8
0
100
AcDbLine
 10
88.83335442487606
 20
-48.44878408056409
 30
0.0
 11
85.5649001353062
 21
-18.23934834612133
 31
0.0
  0
LINE
  5
23F
330
1F
100
AcDbEntity
  8
0
100
AcDbLine
 10
85.55702479375663
 20
-9.907796473722996
 30
0.0
 11
77.79407837837175
 21
-9.835004393959537
 31
0.0
  0
LINE
  5
240
330
1F
100
AcDbEntity
  8
0
100
AcDbLine
 10
77.79407837837175
 20
-11.9744889240098
 30
0.0
 11
72.99407837837174
 21
-11.97448892400985
 31
0.0
  0
LINE
  5
241
330
1F
100
AcDbEntity
  8
0
100
AcDbLine
 10
77.79407837837175
 20
-9.835004393959537
 30
0.0
 11
77.79407837837175
 21
-11.9744889240098
 31
0.0
  0
LINE
  5
242
330
1F
100
AcDbEntity
  8
0
100
AcDbLine
 10
88.83394294789616
 20
20.380881947671
 30
0.0
 11
85.55702479375663
 21
-9.907796473722996
 31
0.0
  0
LINE
  5
243
330
1F
100
AcDbEntity
  8
0
100
AcDbLine
 10
54.21711023597695
 20
-11.97448892400989
 30
0.0
 11
54.21711023597695
 21
-9.835004393959586
 31
0.0
  0
LINE
  5
244
330
1F
100
AcDbEntity
  8
0
100
AcDbLine
 10
54.21711023597695
 20
-9.835004393959586
 30
0.0
 11
72.99407837837174
 21
-9.835004393959586
 31
0.0
  0
LINE
  5
245
330
1F
100
AcDbEntity
  8
0
100
AcDbLine
 10
49.41711023597696
 20
-9.835004393959608
 30
0.0
 11
41.64628847904257
 21
-9.835004393959679
 31
0.0
  0
LINE
  5
246
330
1F
100
AcDbEntity
  8
0
100
AcDbLine
 10
41.64628847904257
 20
-9.835004393959679
 30
0.0
 11
38.37724566645232
 21
20.3808819476708
 31
0.0
  0
LINE
  5
247
330
1F
100
AcDbEntity
  8
0
100
AcDbLine
 10
38.37724566645232
 20
20.3808819476708
 30
0.0
 11
39.58249758212875
 21
20.3808819476708
 31
0.0
  0
LINE
  5
248
330
1F
100
AcDbEntity
  8
0
100
AcDbLine
 10
54.21711023597695
 20
-11.97448892400989
 30
0.0
 11
49.41711023597696
 21
-11.97448892400989
 31
0.0
  0
LINE
  5
249
330
1F
100
AcDbEntity
  8
0
100
AcDbLine
 10
48.92318336507037
 20
21.58088194767086
 30
0.0
 11
48.92318336507037
 21
20.24473839104235
 31
0.0
  0
LINE
  5
24A
330
1F
100
AcDbEntity
  8
0
100
AcDbLine
 10
48.92318336507037
 20
20.24473839104235
 30
0.0
 11
77.7231833650705
 21
20.2447383910426
 31
0.0
  0
LINE
  5
24B
330
1F
100
AcDbEntity
  8
0
100
AcDbLine
 10
77.7231833650705
 20
20.2447383910426
 30
0.0
 11
77.7231833650705
 21
21.58088194767112
 31
0.0
  0
LINE
  5
24C
330
1F
100
AcDbEntity
  8
0
100
AcDbLine
 10
77.7231833650705
 20
21.58088194767112
 30
0.0
 11
87.47811596477533
 21
21.580881947671
 31
0.0
  0
LINE
  5
24D
330
1F
100
AcDbEntity
  8
0
100
AcDbLine
 10
72.99407837837174
 20
-9.835004393959586
 30
0.0
 11
72.99407837837174
 21
-11.97448892400985
 31
0.0
  0
LINE
  5
24E
330
1F
100
AcDbEntity
  8
0
100
AcDbLine
 10
87.47811596477533
 20
21.580881947671
 30
0.0
 11
87.47811596477533
 21
20.380881947671
 31
0.0
  0
LINE
  5
24F
330
1F
100
AcDbEntity
  8
0
100
AcDbLine
 10
87.47811596477533
 20
20.380881947671
 30
0.0
 11
88.83394294789616
 21
20.380881947671
 31
0.0
  0
LINE
  5
250
330
1F
100
AcDbEntity
  8
0
100
AcDbLine
 10
49.41711023597696
 20
-11.97448892400989
 30
0.0
 11
49.41711023597696
 21
-9.835004393959608
 31
0.0
  0
LINE
  5
251
330
1F
100
AcDbEntity
  8
0
100
AcDbLine
 10
39.58249758212875
 20
20.3808819476708
 30
0.0
 11
39.58249758212875
 21
21.5808819476708
 31
0.0
  0
LINE
  5
252
330
1F
100
AcDbEntity
  8
0
100
AcDbLine
 10
39.58249758212875
 20
21.5808819476708
 30
0.0
 11
48.92318336507037
 21
21.58088194767086
 31
0.0
  0
LINE
  5
253
330
1F
100
AcDbEntity
  8
0
100
AcDbLine
 10
146.4842918889334
 20
26.81398792984398
 30
0.0
 11
146.2306943516691
 21
24.46997628364464
 31
0.0
  0
LINE
  5
254
330
1F
100
AcDbEntity
  8
0
100
AcDbLine
 10
146.2306943516691
 20
24.46997628364464
 30
0.0
 11
147.4376969059043
 21
24.46997628469136
 31
0.0
  0
LINE
  5
255
330
1F
100
AcDbEntity
  8
0
100
AcDbLine
 10
98.22689666801276
 20
26.81398788799582
 30
0.0
 11
146.4842918889334
 21
26.81398792984398
 31
0.0
  0
LINE
  5
256
330
1F
100
AcDbEntity
  8
0
100
AcDbLine
 10
147.4376969059043
 20
24.46997628469136
 30
0.0
 11
143.634204851554
 21
-10.68584489479529
 31
0.0
  0
LINE
  5
257
330
1F
100
AcDbEntity
  8
0
100
AcDbLine
 10
143.634204851554
 20
-10.68584489479529
 30
0.0
 11
136.5440783821898
 21
-10.68584490094377
 31
0.0
  0
LINE
  5
258
330
1F
100
AcDbEntity
  8
0
100
AcDbLine
 10
136.5440783821898
 20
-10.68584490094377
 30
0.0
 11
136.5440783840451
 21
-12.82532943099403
 31
0.0
  0
LINE
  5
259
330
1F
100
AcDbEntity
  8
0
100
AcDbLine
 10
136.5440783840451
 20
-12.82532943099403
 30
0.0
 11
131.7440783840451
 21
-12.82532943515655
 31
0.0
  0
LINE
  5
25A
330
1F
100
AcDbEntity
  8
0
100
AcDbLine
 10
131.7440783840451
 20
-12.82532943515655
 30
0.0
 11
131.7440783821898
 21
-10.68584490510628
 31
0.0
  0
LINE
  5
25B
330
1F
100
AcDbEntity
  8
0
100
AcDbLine
 10
131.7440783821898
 20
-10.68584490510628
 30
0.0
 11
127.4102004665285
 21
-10.68584490886457
 31
0.0
  0
LINE
  5
25C
330
1F
100
AcDbEntity
  8
0
100
AcDbLine
 10
127.4102004665285
 20
-10.68584490886457
 30
0.0
 11
127.4102004624088
 21
-5.935181427102833
 31
0.0
  0
LINE
  5
25D
330
1F
100
AcDbEntity
  8
0
100
AcDbLine
 10
112.9671102416503
 20
-12.82532945143966
 30
0.0
 11
108.1671102416502
 21
-12.82532945560215
 31
0.0
  0
LINE
  5
25E
330
1F
100
AcDbEntity
  8
0
100
AcDbLine
 10
127.4102004624088
 20
-5.935181427102833
 30
0.0
 11
122.6602004624088
 21
-5.935181431221956
 31
0.0
  0
LINE
  5
25F
330
1F
100
AcDbEntity
  8
0
100
AcDbLine
 10
122.6602004624088
 20
-5.935181431221956
 30
0.0
 11
122.6602004665285
 21
-10.68584491298367
 31
0.0
  0
LINE
  5
260
330
1F
100
AcDbEntity
  8
0
100
AcDbLine
 10
122.6602004665285
 20
-10.68584491298367
 30
0.0
 11
112.967110239795
 21
-10.68584492138937
 31
0.0
  0
LINE
  5
261
330
1F
100
AcDbEntity
  8
0
100
AcDbLine
 10
112.967110239795
 20
-10.68584492138937
 30
0.0
 11
112.9671102416503
 21
-12.82532945143966
 31
0.0
  0
LINE
  5
262
330
1F
100
AcDbEntity
  8
0
100
AcDbLine
 10
108.1671102416502
 20
-12.82532945560215
 30
0.0
 11
108.1671102397949
 21
-10.68584492555188
 31
0.0
  0
LINE
  5
263
330
1F
100
AcDbEntity
  8
0
100
AcDbLine
 10
108.1671102397949
 20
-10.68584492555188
 30
0.0
 11
101.1490551645855
 21
-10.68584493163785
 31
0.0
  0
LINE
  5
264
330
1F
100
AcDbEntity
  8
0
100
AcDbLine
 10
97.27349723768003
 20
24.46997624118963
 30
0.0
 11
101.1490551645855
 21
-10.68584493163785
 31
0.0
  0
LINE
  5
265
330
1F
100
AcDbEntity
  8
0
100
AcDbLine
 10
97.27349723768003
 20
24.46997624118963
 30
0.0
 11
98.48049420934251
 21
24.46997624223634
 31
0.0
  0
LINE
  5
266
330
1F
100
AcDbEntity
  8
0
100
AcDbLine
 10
98.48049420934251
 20
24.46997624223634
 30
0.0
 11
98.22689666801276
 21
26.81398788799582
 31
0.0
  0
LINE
  5
267
330
1F
100
AcDbEntity
  8
0
100
AcDbLine
 10
136.5440784318716
 20
-14.85837318707087
 30
0.0
 11
136.5440784318716
 21
-17.32058407297177
 31
0.0
  0
LINE
  5
268
330
1F
100
AcDbEntity
  8
0
100
AcDbLine
 10
143.4556201298335
 20
-14.85837318707087
 30
0.0
 11
136.5440784318716
 21
-14.85837318707087
 31
0.0
  0
LINE
  5
269
330
1F
100
AcDbEntity
  8
0
100
AcDbLine
 10
147.4371721106061
 20
-52.47155380537328
 30
0.0
 11
143.4556201298335
 21
-14.85837318707087
 31
0.0
  0
LINE
  5
26A
330
1F
100
AcDbEntity
  8
0
100
AcDbLine
 10
146.230169556371
 20
-52.47155380537328
 30
0.0
 11
147.4371721106061
 21
-52.47155380537328
 31
0.0
  0
LINE
  5
26B
330
1F
100
AcDbEntity
  8
0
100
AcDbLine
 10
146.4842919711346
 20
-54.82041689513971
 30
0.0
 11
146.230169556371
 21
-52.47155380537328
 31
0.0
  0
LINE
  5
26C
330
1F
100
AcDbEntity
  8
0
100
AcDbLine
 10
146.4842919711346
 20
-54.82041689513971
 30
0.0
 11
98.25728607353159
 21
-54.82041689513976
 31
0.0
  0
LINE
  5
26D
330
1F
100
AcDbEntity
  8
0
100
AcDbLine
 10
98.51903216073813
 20
-52.47155380537333
 30
0.0
 11
98.25728607353159
 21
-54.82041689513976
 31
0.0
  0
LINE
  5
26E
330
1F
100
AcDbEntity
  8
0
100
AcDbLine
 10
98.51903216073813
 20
-52.47155380537333
 30
0.0
 11
97.27402456348327
 21
-52.47155380537333
 31
0.0
  0
LINE
  5
26F
330
1F
100
AcDbEntity
  8
0
100
AcDbLine
 10
101.4654496221982
 20
-14.85837318707094
 30
0.0
 11
97.27402456348327
 21
-52.47155380537333
 31
0.0
  0
LINE
  5
270
330
1F
100
AcDbEntity
  8
0
100
AcDbLine
 10
108.1671102894768
 20
-14.85837318707087
 30
0.0
 11
101.4654496221982
 21
-14.85837318707094
 31
0.0
  0
LINE
  5
271
330
1F
100
AcDbEntity
  8
0
100
AcDbLine
 10
108.1671102894768
 20
-17.32058407297173
 30
0.0
 11
108.1671102894768
 21
-14.85837318707087
 31
0.0
  0
LINE
  5
272
330
1F
100
AcDbEntity
  8
0
100
AcDbLine
 10
112.9671102894768
 20
-17.32058407297172
 30
0.0
 11
108.1671102894768
 21
-17.32058407297173
 31
0.0
  0
LINE
  5
273
330
1F
100
AcDbEntity
  8
0
100
AcDbLine
 10
112.9671102894768
 20
-14.8583731870709
 30
0.0
 11
112.9671102894768
 21
-17.32058407297172
 31
0.0
  0
LINE
  5
274
330
1F
100
AcDbEntity
  8
0
100
AcDbLine
 10
131.7440784318715
 20
-14.85837318707088
 30
0.0
 11
112.9671102894768
 21
-14.8583731870709
 31
0.0
  0
LINE
  5
275
330
1F
100
AcDbEntity
  8
0
100
AcDbLine
 10
131.7440784318715
 20
-17.32058407297178
 30
0.0
 11
131.7440784318715
 21
-14.85837318707088
 31
0.0
  0
LINE
  5
276
330
1F
100
AcDbEntity
  8
0
100
AcDbLine
 10
136.5440784318716
 20
-17.32058407297177
 30
0.0
 11
131.7440784318715
 21
-17.32058407297178
 31
0.0
  0
LINE
  5
277
330
1F
100
AcDbEntity
  8
0
100
AcDbLine
 10
-93.63633540718462
 20
-5.076743614802368
 30
0.0
 11
-94.83633540718546
 21
-5.076743614802382
 31
0.0
  0
LINE
  5
278
330
1F
100
AcDbEntity
  8
0
100
AcDbLine
 10
-94.83633540718546
 20
-5.076743614802382
 30
0.0
 11
-94.83633540718449
 21
-27.26198361480237
 31
0.0
  0
LINE
  5
279
330
1F
100
AcDbEntity
  8
0
100
AcDbLine
 10
-68.05618381592234
 20
-1.681832023540295
 30
0.0
 11
-68.05618381592234
 21
-0.4818320235402922
 31
0.0
  0
LINE
  5
27A
330
1F
100
AcDbEntity
  8
0
100
AcDbLine
 10
-93.63633540718467
 20
-1.681832023540402
 30
0.0
 11
-93.63633540718462
 21
-5.076743614802368
 31
0.0
  0
LINE
  5
27B
330
1F
100
AcDbEntity
  8
0
100
AcDbLine
 10
-90.41648699844632
 20
-1.68183202354038
 30
0.0
 11
-90.41648699844632
 21
-0.4818320235403846
 31
0.0
  0
LINE
  5
27C
330
1F
100
AcDbEntity
  8
0
100
AcDbLine
 10
-64.83633540718444
 20
-1.681832023540281
 30
0.0
 11
-68.05618381592234
 21
-1.681832023540295
 31
0.0
  0
LINE
  5
27D
330
1F
100
AcDbEntity
  8
0
100
AcDbLine
 10
-90.41648699844632
 20
-1.68183202354038
 30
0.0
 11
-93.63633540718467
 21
-1.681832023540402
 31
0.0
  0
LINE
  5
27E
330
1F
100
AcDbEntity
  8
0
100
AcDbLine
 10
-68.05618381592234
 20
-0.4818320235402922
 30
0.0
 11
-90.41648699844632
 21
-0.4818320235403846
 31
0.0
  0
LINE
  5
27F
330
1F
100
AcDbEntity
  8
0
100
AcDbLine
 10
-64.83633540718444
 20
-5.076743614802247
 30
0.0
 11
-64.83633540718444
 21
-1.681832023540281
 31
0.0
  0
LINE
  5
280
330
1F
100
AcDbEntity
  8
0
100
AcDbLine
 10
-64.83633540718444
 20
-5.076743614802247
 30
0.0
 11
-63.63633540718445
 21
-5.076743614802226
 31
0.0
  0
LINE
  5
281
330
1F
100
AcDbEntity
  8
0
100
AcDbLine
 10
-93.63633540718439
 20
-27.26198361480235
 30
0.0
 11
-94.83633540718449
 21
-27.26198361480237
 31
0.0
  0
LINE
  5
282
330
1F
100
AcDbEntity
  8
0
100
AcDbLine
 10
-63.63633540718439
 20
-27.2619836148022
 30
0.0
 11
-63.63633540718445
 21
-5.076743614802226
 31
0.0
  0
LINE
  5
283
330
1F
100
AcDbEntity
  8
0
100
AcDbLine
 10
-93.63633540718439
 20
-27.26198361480235
 30
0.0
 11
-93.63633540718433
 21
-30.48183202354036
 31
0.0
  0
LINE
  5
284
330
1F
100
AcDbEntity
  8
0
100
AcDbLine
 10
-93.63633540718433
 20
-30.48183202354036
 30
0.0
 11
-90.41648699844632
 21
-30.48183202354034
 31
0.0
  0
LINE
  5
285
330
1F
100
AcDbEntity
  8
0
100
AcDbLine
 10
-90.41648699844632
 20
-30.48183202354034
 30
0.0
 11
-90.41648699844632
 21
-31.68183202354013
 31
0.0
  0
LINE
  5
286
330
1F
100
AcDbEntity
  8
0
100
AcDbLine
 10
-68.05618381592234
 20
-31.68183202353916
 30
0.0
 11
-90.41648699844632
 21
-31.68183202354013
 31
0.0
  0
LINE
  5
287
330
1F
100
AcDbEntity
  8
0
100
AcDbLine
 10
-68.0561838159224
 20
-30.48183202354023
 30
0.0
 11
-68.05618381592234
 21
-31.68183202353916
 31
0.0
  0
LINE
  5
288
330
1F
100
AcDbEntity
  8
0
100
AcDbLine
 10
-68.0561838159224
 20
-30.48183202354023
 30
0.0
 11
-64.83633540718438
 21
-30.48183202354021
 31
0.0
  0
LINE
  5
289
330
1F
100
AcDbEntity
  8
0
100
AcDbLine
 10
-64.83633540718438
 20
-30.48183202354021
 30
0.0
 11
-64.83633540718444
 21
-27.26198361480223
 31
0.0
  0
LINE
  5
28A
330
1F
100
AcDbEntity
  8
0
100
AcDbLine
 10
-64.83633540718444
 20
-27.26198361480223
 30
0.0
 11
-63.63633540718439
 21
-27.2619836148022
 31
0.0
  0
ENDSEC
  0
SECTION
  2
OBJECTS
  0
DICTIONARY
  5
C
330
0
100
AcDbDictionary
  3
ACAD_GROUP
350
D
  3
ACAD_LAYOUT
350
1A
  3
ACAD_MLEADERSTYLE
350
2AE
  3
ACAD_MLINESTYLE
350
17
  3
ACAD_PLOTSETTINGS
350
19
  3
ACAD_SCALELIST
350
3B
  3
ACAD_TABLESTYLE
350
2AD
  3
ACAD_VISUALSTYLE
350
2A
  3
ACDBHEADERROUNDTRIPXREC
350
28B
  3
ACDBVARIABLEDICTIONARY
350
2AB
  0
DICTIONARY
  5
D
102
{ACAD_REACTORS
330
C
102
}
330
C
100
AcDbDictionary
  0
DICTIONARY
  5
1A
102
{ACAD_REACTORS
330
C
102
}
330
C
100
AcDbDictionary
  0
DICTIONARY
  5
2AE
102
{ACAD_REACTORS
330
C
102
}
330
C
100
AcDbDictionary
  0
DICTIONARY
  5
17
102
{ACAD_REACTORS
330
C
102
}
330
C
100
AcDbDictionary
  3
STANDARD
350
18
  0
DICTIONARY
  5
19
102
{ACAD_REACTORS
330
C
102
}
330
C
100
AcDbDictionary
  0
DICTIONARY
  5
3B
102
{ACAD_REACTORS
330
C
102
}
330
C
100
AcDbDictionary
  3
A0
350
3C
  3
A1
350
3D
  3
A2
350
3E
  3
A3
350
3F
  3
A4
350
40
  3
A5
350
41
  3
A6
350
42
  3
A7
350
43
  3
A8
350
44
  3
A9
350
45
  3
B0
350
46
  3
B1
350
47
  3
B2
350
48
  3
B3
350
49
  3
B4
350
4A
  3
B5
350
4B
  3
B6
350
4C
  3
B7
350
4D
  3
B8
350
4E
  3
B9
350
4F
  3
C0
350
50
  3
C1
350
51
  3
C2
350
52
  3
C3
350
53
  3
C4
350
54
  3
C5
350
55
  3
C6
350
56
  3
C7
350
57
  3
C8
350
58
  3
C9
350
59
  3
D0
350
5A
  3
D1
350
5B
  3
D2
350
5C
  0
DICTIONARY
  5
2AD
102
{ACAD_REACTORS
330
C
102
}
330
C
100
AcDbDictionary
  0
DICTIONARY
  5
2A
102
{ACAD_REACTORS
330
C
102
}
330
C
100
AcDbDictionary
  3
2DWIREFRAME
350
2F
  3
3D_HIDDEN
350
31
  3
3DWIREFRAME
350
30
  3
BASIC
350
32
  3
BRIGHTEN
350
36
  3
COLORCHANGE
350
3A
  3
CONCEPTUAL
350
34
  3
DIM
350
35
  3
FACEPATTERN
350
39
  3
FLAT
350
2B
  3
FLATWITHEDGES
350
2C
  3
GOURAUD
350
2D
  3
GOURAUDWITHEDGES
350
2E
  3
LINEPATTERN
350
38
  3
REALISTIC
350
33
  3
THICKEN
350
37
  0
DICTIONARY
  5
28B
102
{ACAD_REACTORS
330
C
102
}
330
C
100
AcDbDictionary
  3
CEPSNTYPE
350
294
  3
DIMSTYLEDATA
350
2AA
  3
FINGERPRINTGUID
350
295
  3
HYPERLINKBASE
350
28E
  3
INSUNITS
350
293
  3
LAYOUTDICT
350
290
  3
LWETCUNION
350
292
  3
PLOTSETDICT
350
291
  3
PSVPSCALE
350
297
  3
PUCSBASE
350
29A
  3
PUCSORGBACK
350
2A0
  3
PUCSORGBOTTOM
350
29C
  3
PUCSORGFRONT
350
29F
  3
PUCSORGLEFT
350
29D
  3
PUCSORGRIGHT
350
29E
  3
PUCSORGTOP
350
29B
  3
PUCSORTHOREF
350
298
  3
PUCSORTHOVIEW
350
299
  3
STYLESHEET
350
28F
  3
TSTACKALIGN
350
28C
  3
TSTACKSIZE
350
28D
  3
UCSBASE
350
2A3
  3
UCSORGBACK
350
2A9
  3
UCSORGBOTTOM
350
2A5
  3
UCSORGFRONT
350
2A8
  3
UCSORGLEFT
350
2A6
  3
UCSORGRIGHT
350
2A7
  3
UCSORGTOP
350
2A4
  3
UCSORTHOREF
350
2A1
  3
UCSORTHOVIEW
350
2A2
  3
VERSIONGUID
350
296
  0
DICTIONARY
  5
2AB
102
{ACAD_REACTORS
330
C
102
}
330
C
100
AcDbDictionary
  3
CANNOSCALE
350
2AC
  0
MLINESTYLE
  5
18
102
{ACAD_REACTORS
330
17
102
}
330
17
100
AcDbMlineStyle
  2
Standard
 70
     0
  3

 62
   256
 51
90.0
 52
90.0
 71
     2
 49
0.5
 62
   256
  6
BYLAYER
 49
-0.5
 62
   256
  6
BYLAYER
  0
SCALE
  5
3C
102
{ACAD_REACTORS
330
3B
102
}
330
3B
100
AcDbScale
 70
     0
300
1:1
140
1.0
141
1.0
290
     1
  0
SCALE
  5
3D
102
{ACAD_REACTORS
330
3B
102
}
330
3B
100
AcDbScale
 70
     0
300
1:2
140
1.0
141
2.0
290
     0
  0
SCALE
  5
3E
102
{ACAD_REACTORS
330
3B
102
}
330
3B
100
AcDbScale
 70
     0
300
1:4
140
1.0
141
4.0
290
     0
  0
SCALE
  5
3F
102
{ACAD_REACTORS
330
3B
102
}
330
3B
100
AcDbScale
 70
     0
300
1:5
140
1.0
141
5.0
290
     0
  0
SCALE
  5
40
102
{ACAD_REACTORS
330
3B
102
}
330
3B
100
AcDbScale
 70
     0
300
1:8
140
1.0
141
8.0
290
     0
  0
SCALE
  5
41
102
{ACAD_REACTORS
330
3B
102
}
330
3B
100
AcDbScale
 70
     0
300
1:10
140
1.0
141
10.0
290
     0
  0
SCALE
  5
42
102
{ACAD_REACTORS
330
3B
102
}
330
3B
100
AcDbScale
 70
     0
300
1:16
140
1.0
141
16.0
290
     0
  0
SCALE
  5
43
102
{ACAD_REACTORS
330
3B
102
}
330
3B
100
AcDbScale
 70
     0
300
1:20
140
1.0
141
20.0
290
     0
  0
SCALE
  5
44
102
{ACAD_REACTORS
330
3B
102
}
330
3B
100
AcDbScale
 70
     0
300
1:30
140
1.0
141
30.0
290
     0
  0
SCALE
  5
45
102
{ACAD_REACTORS
330
3B
102
}
330
3B
100
AcDbScale
 70
     0
300
1:40
140
1.0
141
40.0
290
     0
  0
SCALE
  5
46
102
{ACAD_REACTORS
330
3B
102
}
330
3B
100
AcDbScale
 70
     0
300
1:50
140
1.0
141
50.0
290
     0
  0
SCALE
  5
47
102
{ACAD_REACTORS
330
3B
102
}
330
3B
100
AcDbScale
 70
     0
300
1:100
140
1.0
141
100.0
290
     0
  0
SCALE
  5
48
102
{ACAD_REACTORS
330
3B
102
}
330
3B
100
AcDbScale
 70
     0
300
2:1
140
2.0
141
1.0
290
     0
  0
SCALE
  5
49
102
{ACAD_REACTORS
330
3B
102
}
330
3B
100
AcDbScale
 70
     0
300
4:1
140
4.0
141
1.0
290
     0
  0
SCALE
  5
4A
102
{ACAD_REACTORS
330
3B
102
}
330
3B
100
AcDbScale
 70
     0
300
8:1
140
8.0
141
1.0
290
     0
  0
SCALE
  5
4B
102
{ACAD_REACTORS
330
3B
102
}
330
3B
100
AcDbScale
 70
     0
300
10:1
140
10.0
141
1.0
290
     0
  0
SCALE
  5
4C
102
{ACAD_REACTORS
330
3B
102
}
330
3B
100
AcDbScale
 70
     0
300
100:1
140
100.0
141
1.0
290
     0
  0
SCALE
  5
4D
102
{ACAD_REACTORS
330
3B
102
}
330
3B
100
AcDbScale
 70
     0
300
1/128" = 1'-0"
140
0.0078125
141
12.0
290
     0
  0
SCALE
  5
4E
102
{ACAD_REACTORS
330
3B
102
}
330
3B
100
AcDbScale
 70
     0
300
1/64" = 1'-0"
140
0.015625
141
12.0
290
     0
  0
SCALE
  5
4F
102
{ACAD_REACTORS
330
3B
102
}
330
3B
100
AcDbScale
 70
     0
300
1/32" = 1'-0"
140
0.03125
141
12.0
290
     0
  0
SCALE
  5
50
102
{ACAD_REACTORS
330
3B
102
}
330
3B
100
AcDbScale
 70
     0
300
1/16" = 1'-0"
140
0.0625
141
12.0
290
     0
  0
SCALE
  5
51
102
{ACAD_REACTORS
330
3B
102
}
330
3B
100
AcDbScale
 70
     0
300
3/32" = 1'-0"
140
0.09375
141
12.0
290
     0
  0
SCALE
  5
52
102
{ACAD_REACTORS
330
3B
102
}
330
3B
100
AcDbScale
 70
     0
300
1/8" = 1'-0"
140
0.125
141
12.0
290
     0
  0
SCALE
  5
53
102
{ACAD_REACTORS
330
3B
102
}
330
3B
100
AcDbScale
 70
     0
300
3/16" = 1'-0"
140
0.1875
141
12.0
290
     0
  0
SCALE
  5
54
102
{ACAD_REACTORS
330
3B
102
}
330
3B
100
AcDbScale
 70
     0
300
1/4" = 1'-0"
140
0.25
141
12.0
290
     0
  0
SCALE
  5
55
102
{ACAD_REACTORS
330
3B
102
}
330
3B
100
AcDbScale
 70
     0
300
3/8" = 1'-0"
140
0.375
141
12.0
290
     0
  0
SCALE
  5
56
102
{ACAD_REACTORS
330
3B
102
}
330
3B
100
AcDbScale
 70
     0
300
1/2" = 1'-0"
140
0.5
141
12.0
290
     0
  0
SCALE
  5
57
102
{ACAD_REACTORS
330
3B
102
}
330
3B
100
AcDbScale
 70
     0
300
3/4" = 1'-0"
140
0.75
141
12.0
290
     0
  0
SCALE
  5
58
102
{ACAD_REACTORS
330
3B
102
}
330
3B
100
AcDbScale
 70
     0
300
1" = 1'-0"
140
1.0
141
12.0
290
     0
  0
SCALE
  5
59
102
{ACAD_REACTORS
330
3B
102
}
330
3B
100
AcDbScale
 70
     0
300
1-1/2" = 1'-0"
140
1.5
141
12.0
290
     0
  0
SCALE
  5
5A
102
{ACAD_REACTORS
330
3B
102
}
330
3B
100
AcDbScale
 70
     0
300
3" = 1'-0"
140
3.0
141
12.0
290
     0
  0
SCALE
  5
5B
102
{ACAD_REACTORS
330
3B
102
}
330
3B
100
AcDbScale
 70
     0
300
6" = 1'-0"
140
6.0
141
12.0
290
     0
  0
SCALE
  5
5C
102
{ACAD_REACTORS
330
3B
102
}
330
3B
100
AcDbScale
 70
     0
300
1'-0" = 1'-0"
140
12.0
141
12.0
290
     0
  0
VISUALSTYLE
  5
2F
102
{ACAD_REACTORS
330
2A
102
}
330
2A
100
AcDbVisualStyle
  2
2dWireframe
 70
     4
 71
     0
 72
     2
 73
     0
 90
        0
 40
-0.6
 41
-30.0
 62
     5
 63
     7
 74
     1
 91
        4
 64
     7
 65
   257
 75
     1
175
     1
 42
1.0
 92
        0
 66
   257
 43
1.0
 76
     1
 77
     6
 78
     2
 67
     7
 79
     5
170
     0
171
     0
290
     0
174
     0
 93
        1
 44
0.0
173
     0
291
     0
 45
0.0
1001
ACAD
1000
AcDbSavedByObjectVersion
1070
     0
  0
VISUALSTYLE
  5
31
102
{ACAD_REACTORS
330
2A
102
}
330
2A
100
AcDbVisualStyle
  2
3D Hidden
 70
     6
 71
     1
 72
     2
 73
     2
 90
        0
 40
-0.6
 41
-30.0
 62
     5
 63
     7
 74
     2
 91
        2
 64
     7
 65
   257
 75
     2
175
     1
 42
40.0
 92
        0
 66
   257
 43
1.0
 76
     1
 77
     6
 78
     2
 67
     7
 79
     3
170
     0
171
     0
290
     0
174
     0
 93
        1
 44
0.0
173
     0
291
     0
 45
0.0
1001
ACAD
1000
AcDbSavedByObjectVersion
1070
     0
  0
VISUALSTYLE
  5
30
102
{ACAD_REACTORS
330
2A
102
}
330
2A
100
AcDbVisualStyle
  2
3dWireframe
 70
     5
 71
     0
 72
     2
 73
     0
 90
        0
 40
-0.6
 41
-30.0
 62
     5
 63
     7
 74
     1
 91
        4
 64
     7
 65
   257
 75
     1
175
     1
 42
1.0
 92
        0
 66
   257
 43
1.0
 76
     1
 77
     6
 78
     2
 67
     7
 79
     5
170
     0
171
     0
290
     0
174
     0
 93
        1
 44
0.0
173
     0
291
     0
 45
0.0
1001
ACAD
1000
AcDbSavedByObjectVersion
1070
     0
  0
VISUALSTYLE
  5
32
102
{ACAD_REACTORS
330
2A
102
}
330
2A
100
AcDbVisualStyle
  2
Basic
 70
     7
 71
     1
 72
     0
 73
     1
 90
        0
 40
-0.6
 41
-30.0
 62
     5
 63
     7
 74
     0
 91
        4
 64
     7
 65
   257
 75
     1
175
     1
 42
1.0
 92
        8
 66
     7
 43
1.0
 76
     1
 77
     6
 78
     2
 67
     7
 79
     5
170
     0
171
     0
290
     0
174
     0
 93
        1
 44
0.0
173
     0
291
     1
 45
0.0
1001
ACAD
1000
AcDbSavedByObjectVersion
1070
     0
  0
VISUALSTYLE
  5
36
102
{ACAD_REACTORS
330
2A
102
}
330
2A
100
AcDbVisualStyle
  2
Brighten
 70
    12
 71
     2
 72
     2
 73
     0
 90
        0
 40
-0.6
 41
-30.0
 62
     5
 63
     7
 74
     1
 91
        4
 64
     7
 65
   257
 75
     1
175
     1
 42
1.0
 92
        8
 66
     7
 43
1.0
 76
     1
 77
     6
 78
     2
 67
     7
 79
     5
170
     0
171
     0
290
     0
174
     0
 93
        1
 44
50.0
173
     0
291
     1
 45
0.0
1001
ACAD
1000
AcDbSavedByObjectVersion
1070
     0
  0
VISUALSTYLE
  5
3A
102
{ACAD_REACTORS
330
2A
102
}
330
2A
100
AcDbVisualStyle
  2
ColorChange
 70
    16
 71
     2
 72
     2
 73
     3
 90
        0
 40
-0.6
 41
-30.0
 62
     5
 63
     8
 74
     1
 91
        4
 64
     7
 65
   257
 75
     1
175
     1
 42
1.0
 92
        8
 66
     8
 43
1.0
 76
     1
 77
     6
 78
     2
 67
     7
 79
     5
170
     0
171
     0
290
     0
174
     0
 93
        1
 44
0.0
173
     0
291
     1
 45
0.0
1001
ACAD
1000
AcDbSavedByObjectVersion
1070
     0
  0
VISUALSTYLE
  5
34
102
{ACAD_REACTORS
330
2A
102
}
330
2A
100
AcDbVisualStyle
  2
Conceptual
 70
     9
 71
     3
 72
     2
 73
     0
 90
        0
 40
-0.6
 41
-30.0
 62
     5
 63
     7
 74
     2
 91
        2
 64
     7
 65
   257
 75
     1
175
     1
 42
40.0
 92
        8
 66
     7
 43
1.0
 76
     1
 77
     6
 78
     2
 67
     7
 79
     3
170
     0
171
     0
290
     0
174
     0
 93
        1
 44
0.0
173
     0
291
     0
 45
0.0
1001
ACAD
1000
AcDbSavedByObjectVersion
1070
     0
  0
VISUALSTYLE
  5
35
102
{ACAD_REACTORS
330
2A
102
}
330
2A
100
AcDbVisualStyle
  2
Dim
 70
    11
 71
     2
 72
     2
 73
     0
 90
        0
 40
-0.6
 41
-30.0
 62
     5
 63
     7
 74
     1
 91
        4
 64
     7
 65
   257
 75
     1
175
     1
 42
1.0
 92
        8
 66
     7
 43
1.0
 76
     1
 77
     6
 78
     2
 67
     7
 79
     5
170
     0
171
     0
290
     0
174
     0
 93
        1
 44
-50.0
173
     0
291
     1
 45
0.0
1001
ACAD
1000
AcDbSavedByObjectVersion
1070
     0
  0
VISUALSTYLE
  5
39
102
{ACAD_REACTORS
330
2A
102
}
330
2A
100
AcDbVisualStyle
  2
Facepattern
 70
    15
 71
     2
 72
     2
 73
     0
 90
        0
 40
-0.6
 41
-30.0
 62
     5
 63
     7
 74
     1
 91
        4
 64
     7
 65
   257
 75
     1
175
     1
 42
1.0
 92
        8
 66
     7
 43
1.0
 76
     1
 77
     6
 78
     2
 67
     7
 79
     5
170
     0
171
     0
290
     0
174
     0
 93
        1
 44
0.0
173
     0
291
     1
 45
0.0
1001
ACAD
1000
AcDbSavedByObjectVersion
1070
     0
  0
VISUALSTYLE
  5
2B
102
{ACAD_REACTORS
330
2A
102
}
330
2A
100
AcDbVisualStyle
  2
Flat
 70
     0
 71
     2
 72
     1
 73
     1
 90
        2
 40
-0.6
 41
30.0
 62
     5
 63
     7
 74
     0
 91
        4
 64
     7
 65
   257
 75
     1
175
     1
 42
1.0
 92
        8
 66
     7
 43
1.0
 76
     1
 77
     6
 78
     2
 67
     7
 79
     5
170
     0
171
     0
290
     0
174
     0
 93
       13
 44
0.0
173
     0
291
     1
 45
0.0
1001
ACAD
1000
AcDbSavedByObjectVersion
1070
     0
  0
VISUALSTYLE
  5
2C
102
{ACAD_REACTORS
330
2A
102
}
330
2A
100
AcDbVisualStyle
  2
FlatWithEdges
 70
     1
 71
     2
 72
     1
 73
     1
 90
        2
 40
-0.6
 41
30.0
 62
     5
 63
     7
 74
     1
 91
        4
 64
     7
 65
   257
 75
     1
175
     1
 42
1.0
 92
        0
 66
   257
 43
1.0
 76
     1
 77
     6
 78
     2
 67
     7
 79
     5
170
     0
171
     0
290
     0
174
     0
 93
       13
 44
0.0
173
     0
291
     1
 45
0.0
1001
ACAD
1000
AcDbSavedByObjectVersion
1070
     0
  0
VISUALSTYLE
  5
2D
102
{ACAD_REACTORS
330
2A
102
}
330
2A
100
AcDbVisualStyle
  2
Gouraud
 70
     2
 71
     2
 72
     2
 73
     1
 90
        2
 40
-0.6
 41
30.0
 62
     5
 63
     7
 74
     0
 91
        4
 64
     7
 65
   257
 75
     1
175
     1
 42
1.0
 92
        0
 66
     7
 43
1.0
 76
     1
 77
     6
 78
     2
 67
     7
 79
     5
170
     0
171
     0
290
     0
174
     0
 93
       13
 44
0.0
173
     0
291
     1
 45
0.0
1001
ACAD
1000
AcDbSavedByObjectVersion
1070
     0
  0
VISUALSTYLE
  5
2E
102
{ACAD_REACTORS
330
2A
102
}
330
2A
100
AcDbVisualStyle
  2
GouraudWithEdges
 70
     3
 71
     2
 72
     2
 73
     1
 90
        2
 40
-0.6
 41
30.0
 62
     5
 63
     7
 74
     1
 91
        4
 64
     7
 65
   257
 75
     1
175
     1
 42
1.0
 92
        0
 66
   257
 43
1.0
 76
     1
 77
     6
 78
     2
 67
     7
 79
     5
170
     0
171
     0
290
     0
174
     0
 93
       13
 44
0.0
173
     0
291
     1
 45
0.0
1001
ACAD
1000
AcDbSavedByObjectVersion
1070
     0
  0
VISUALSTYLE
  5
38
102
{ACAD_REACTORS
330
2A
102
}
330
2A
100
AcDbVisualStyle
  2
Linepattern
 70
    14
 71
     2
 72
     2
 73
     0
 90
        0
 40
-0.6
 41
-30.0
 62
     5
 63
     7
 74
     1
 91
        4
 64
     7
 65
   257
 75
     7
175
     7
 42
1.0
 92
        8
 66
     7
 43
1.0
 76
     1
 77
     6
 78
     2
 67
     7
 79
     5
170
     0
171
     0
290
     0
174
     0
 93
        1
 44
0.0
173
     0
291
     1
 45
0.0
1001
ACAD
1000
AcDbSavedByObjectVersion
1070
     0
  0
VISUALSTYLE
  5
33
102
{ACAD_REACTORS
330
2A
102
}
330
2A
100
AcDbVisualStyle
  2
Realistic
 70
     8
 71
     2
 72
     2
 73
     0
 90
        0
 40
-0.6
 41
-30.0
 62
     5
 63
     7
 74
     1
 91
        0
 64
     7
 65
   257
 75
     1
175
     1
 42
1.0
 92
        8
 66
     8
 43
1.0
 76
     1
 77
     6
 78
     2
 67
     7
 79
     5
170
     0
171
     0
290
     0
174
     0
 93
       13
 44
0.0
173
     0
291
     0
 45
0.0
1001
ACAD
1000
AcDbSavedByObjectVersion
1070
     0
  0
VISUALSTYLE
  5
37
102
{ACAD_REACTORS
330
2A
102
}
330
2A
100
AcDbVisualStyle
  2
Thicken
 70
    13
 71
     2
 72
     2
 73
     0
 90
        0
 40
-0.6
 41
-30.0
 62
     5
 63
     7
 74
     1
 91
        4
 64
     7
 65
   257
 75
     1
175
     1
 42
1.0
 92
       12
 66
     7
 43
1.0
 76
     1
 77
     6
 78
     2
 67
     7
 79
     5
170
     0
171
     0
290
     0
174
     0
 93
        1
 44
0.0
173
     0
291
     1
 45
0.0
1001
ACAD
1000
AcDbSavedByObjectVersion
1070
     0
  0
XRECORD
  5
294
102
{ACAD_REACTORS
330
28B
102
}
330
28B
100
AcDbXrecord
 90
        0
  0
XRECORD
  5
2AA
102
{ACAD_REACTORS
330
28B
102
}
330
28B
100
AcDbXrecord
1000
DSTYLE
1002
{
1070
   340
340
11
1002
}
  0
XRECORD
  5
295
102
{ACAD_REACTORS
330
28B
102
}
330
28B
100
AcDbXrecord
  1
{37737B6F-9BBC-4058-A175-F1BDB45B4415}
  0
XRECORD
  5
28E
102
{ACAD_REACTORS
330
28B
102
}
330
28B
100
AcDbXrecord
  1

  0
XRECORD
  5
293
102
{ACAD_REACTORS
330
28B
102
}
330
28B
100
AcDbXrecord
 90
        1
  0
XRECORD
  5
290
102
{ACAD_REACTORS
330
28B
102
}
330
28B
100
AcDbXrecord
340
1A
  0
XRECORD
  5
292
102
{ACAD_REACTORS
330
28B
102
}
330
28B
100
AcDbXrecord
 90
    10781
  0
XRECORD
  5
291
102
{ACAD_REACTORS
330
28B
102
}
330
28B
100
AcDbXrecord
340
19
  0
XRECORD
  5
297
102
{ACAD_REACTORS
330
28B
102
}
330
28B
100
AcDbXrecord
 40
0.0
  0
XRECORD
  5
29A
102
{ACAD_REACTORS
330
28B
102
}
330
28B
100
AcDbXrecord
340
0
  0
XRECORD
  5
2A0
102
{ACAD_REACTORS
330
28B
102
}
330
28B
100
AcDbXrecord
 10
0.0
 20
0.0
 30
0.0
  0
XRECORD
  5
29C
102
{ACAD_REACTORS
330
28B
102
}
330
28B
100
AcDbXrecord
 10
0.0
 20
0.0
 30
0.0
  0
XRECORD
  5
29F
102
{ACAD_REACTORS
330
28B
102
}
330
28B
100
AcDbXrecord
 10
0.0
 20
0.0
 30
0.0
  0
XRECORD
  5
29D
102
{ACAD_REACTORS
330
28B
102
}
330
28B
100
AcDbXrecord
 10
0.0
 20
0.0
 30
0.0
  0
XRECORD
  5
29E
102
{ACAD_REACTORS
330
28B
102
}
330
28B
100
AcDbXrecord
 10
0.0
 20
0.0
 30
0.0
  0
XRECORD
  5
29B
102
{ACAD_REACTORS
330
28B
102
}
330
28B
100
AcDbXrecord
 10
0.0
 20
0.0
 30
0.0
  0
XRECORD
  5
298
102
{ACAD_REACTORS
330
28B
102
}
330
28B
100
AcDbXrecord
340
0
  0
XRECORD
  5
299
102
{ACAD_REACTORS
330
28B
102
}
330
28B
100
AcDbXrecord
 70
     0
  0
XRECORD
  5
28F
102
{ACAD_REACTORS
330
28B
102
}
330
28B
100
AcDbXrecord
  1

  0
XRECORD
  5
28C
102
{ACAD_REACTORS
330
28B
102
}
330
28B
100
AcDbXrecord
 90
        1
  0
XRECORD
  5
28D
102
{ACAD_REACTORS
330
28B
102
}
330
28B
100
AcDbXrecord
 90
       70
  0
XRECORD
  5
2A3
102
{ACAD_REACTORS
330
28B
102
}
330
28B
100
AcDbXrecord
340
0
  0
XRECORD
  5
2A9
102
{ACAD_REACTORS
330
28B
102
}
330
28B
100
AcDbXrecord
 10
0.0
 20
0.0
 30
0.0
  0
XRECORD
  5
2A5
102
{ACAD_REACTORS
330
28B
102
}
330
28B
100
AcDbXrecord
 10
0.0
 20
0.0
 30
0.0
  0
XRECORD
  5
2A8
102
{ACAD_REACTORS
330
28B
102
}
330
28B
100
AcDbXrecord
 10
0.0
 20
0.0
 30
0.0
  0
XRECORD
  5
2A6
102
{ACAD_REACTORS
330
28B
102
}
330
28B
100
AcDbXrecord
 10
0.0
 20
0.0
 30
0.0
  0
XRECORD
  5
2A7
102
{ACAD_REACTORS
330
28B
102
}
330
28B
100
AcDbXrecord
 10
0.0
 20
0.0
 30
0.0
  0
XRECORD
  5
2A4
102
{ACAD_REACTORS
330
28B
102
}
330
28B
100
AcDbXrecord
 10
0.0
 20
0.0
 30
0.0
  0
XRECORD
  5
2A1
102
{ACAD_REACTORS
330
28B
102
}
330
28B
100
AcDbXrecord
340
0
  0
XRECORD
  5
2A2
102
{ACAD_REACTORS
330
28B
102
}
330
28B
100
AcDbXrecord
 70
     0
  0
XRECORD
  5
296
102
{ACAD_REACTORS
330
28B
102
}
330
28B
100
AcDbXrecord
  1
{FAEB1C32-E019-11D5-929B-00C0DF256EC4}
  0
DICTIONARYVAR
  5
2AC
102
{ACAD_REACTORS
330
2AB
102
}
330
2AB
100
DictionaryVariables
280
     0
  1
1:1
  0
ENDSEC
  0
EOF
