  0
SECTION
  2
HEADER
  9
$ACADVER
  1
AC1014
  9
$HANDSEED
  5
FFFF
  9
$MEASUREMENT
 70
     1
  0
ENDSEC
  0
SECTION
  2
TABLES
  0
TABLE
  2
VPORT
  5
8
330
0
100
AcDbSymbolTable
 70
     4
  0
VPORT
  5
2E
330
8
100
AcDbSymbolTableRecord
100
AcDbViewportTableRecord
  2
*ACTIVE
 70
     0
 10
0.0
 20
0.0
 11
1.0
 21
1.0
 12
210.0
 22
148.5
 13
0.0
 23
0.0
 14
10.0
 24
10.0
 15
10.0
 25
10.0
 16
0.0
 26
0.0
 36
1.0
 17
0.0
 27
0.0
 37
0.0
 40
341.0
 41
1.24
 42
50.0
 43
0.0
 44
0.0
 50
0.0
 51
0.0
 71
     0
 72
   100
 73
     1
 74
     3
 75
     0
 76
     0
 77
     0
 78
     0
  0
ENDTAB
  0
TABLE
  2
LTYPE
  5
5
330
0
100
AcDbSymbolTable
 70
     1
  0
LTYPE
  5
14
330
5
100
AcDbSymbolTableRecord
100
AcDbLinetypeTableRecord
  2
BYBLOCK
 70
     0
  3

 72
    65
 73
     0
 40
0.0
  0
LTYPE
  5
15
330
5
100
AcDbSymbolTableRecord
100
AcDbLinetypeTableRecord
  2
BYLAYER
 70
     0
  3

 72
    65
 73
     0
 40
0.0
  0
LTYPE
  5
16
330
5
100
AcDbSymbolTableRecord
100
AcDbLinetypeTableRecord
  2
CONTINUOUS
 70
     0
  3
Solid line
 72
    65
 73
     0
 40
0.0
  0
ENDTAB
  0
TABLE
  2
LAYER
  5
2
100
AcDbSymbolTable
 70
2
  0
LAYER
  5
50
100
AcDbSymbolTableRecord
100
AcDbLayerTableRecord
  2
0
 70
0
  6
CONTINUOUS
  0
LAYER
  5
51
100
AcDbSymbolTableRecord
100
AcDbLayerTableRecord
  2
Layer_1
 70
0
  6
CONTINUOUS
  0
ENDTAB
  0
TABLE
  2
STYLE
  5
3
330
0
100
AcDbSymbolTable
 70
     1
  0
STYLE
  5
11
330
3
100
AcDbSymbolTableRecord
100
AcDbTextStyleTableRecord
  2
STANDARD
 70
     0
 40
0.0
 41
1.0
 50
0.0
 71
     0
 42
2.5
  3
txt
  4

  0
ENDTAB
  0
TABLE
  2
VIEW
  5
6
330
0
100
AcDbSymbolTable
 70
     0
  0
ENDTAB
  0
TABLE
  2
UCS
  5
7
330
0
100
AcDbSymbolTable
 70
     0
  0
ENDTAB
  0
TABLE
  2
APPID
  5
9
330
0
100
AcDbSymbolTable
 70
     2
  0
APPID
  5
12
330
9
100
AcDbSymbolTableRecord
100
AcDbRegAppTableRecord
  2
ACAD
 70
     0
  0
ENDTAB
  0
TABLE
  2
DIMSTYLE
  5
A
330
0
100
AcDbSymbolTable
 70
     1
  0
DIMSTYLE
105
27
330
A
100
AcDbSymbolTableRecord
100
AcDbDimStyleTableRecord
  2
ISO-25
 70
     0
  3

  4

  5

  6

  7

 40
1.0
 41
2.5
 42
0.625
 43
3.75
 44
1.25
 45
0.0
 46
0.0
 47
0.0
 48
0.0
140
2.5
141
2.5
142
0.0
143
0.03937007874016
144
1.0
145
0.0
146
1.0
147
0.625
 71
     0
 72
     0
 73
     0
 74
     0
 75
     0
 76
     0
 77
     1
 78
     8
170
     0
171
     3
172
     1
173
     0
174
     0
175
     0
176
     0
177
     0
178
     0
270
     2
271
     2
272
     2
273
     2
274
     3
340
11
275
     0
280
     0
281
     0
282
     0
283
     0
284
     8
285
     0
286
     0
287
     3
288
     0
  0
ENDTAB
  0
TABLE
  2
BLOCK_RECORD
  5
1
330
0
100
AcDbSymbolTable
 70
     1
  0
BLOCK_RECORD
  5
1F
330
1
100
AcDbSymbolTableRecord
100
AcDbBlockTableRecord
  2
*MODEL_SPACE
  0
BLOCK_RECORD
  5
1B
330
1
100
AcDbSymbolTableRecord
100
AcDbBlockTableRecord
  2
*PAPER_SPACE
  0
ENDTAB
  0
ENDSEC
  0
SECTION
  2
BLOCKS
  0
BLOCK
  5
20
330
1F
100
AcDbEntity
  8
0
100
AcDbBlockBegin
  2
*MODEL_SPACE
 70
     0
 10
0.0
 20
0.0
 30
0.0
  3
*MODEL_SPACE
  1

  0
ENDBLK
  5
21
330
1F
100
AcDbEntity
  8
0
100
AcDbBlockEnd
  0
BLOCK
  5
1C
330
1B
100
AcDbEntity
 67
     1
  8
0
100
AcDbBlockBegin
  2
*PAPER_SPACE
  1

  0
ENDBLK
  5
1D
330
1B
100
AcDbEntity
 67
     1
  8
0
100
AcDbBlockEnd
  0
ENDSEC
  0
SECTION
  2
ENTITIES
  0
LWPOLYLINE
  5
100
100
AcDbEntity
  8
Layer_1
 62
5
100
AcDbPolyline
 90
77
 70
1
 10
131.435156
 20
756.655864
 30
0.0
 10
139.939100
 20
756.655864
 30
0.0
 10
139.939100
 20
765.159808
 30
0.0
 10
148.443044
 20
765.159808
 30
0.0
 10
148.443044
 20
756.655864
 30
0.0
 10
156.946988
 20
756.655864
 30
0.0
 10
156.946988
 20
765.159808
 30
0.0
 10
165.450932
 20
765.159808
 30
0.0
 10
165.450932
 20
756.655864
 30
0.0
 10
173.954876
 20
756.655864
 30
0.0
 10
173.954876
 20
765.159808
 30
0.0
 10
182.458816
 20
765.159808
 30
0.0
 10
182.458816
 20
756.655864
 30
0.0
 10
195.923400
 20
756.655864
 30
0.0
 10
195.923400
 20
765.159808
 30
0.0
 10
209.387976
 20
765.159808
 30
0.0
 10
209.387976
 20
754.529877
 30
0.0
 10
200.884032
 20
754.529877
 30
0.0
 10
200.884032
 20
743.899948
 30
0.0
 10
209.387976
 20
743.899948
 30
0.0
 10
209.387976
 20
735.396004
 30
0.0
 10
200.884032
 20
735.396004
 30
0.0
 10
200.884032
 20
726.892060
 30
0.0
 10
209.387976
 20
726.892060
 30
0.0
 10
209.387976
 20
718.388116
 30
0.0
 10
200.884032
 20
718.388116
 30
0.0
 10
200.884032
 20
709.884172
 30
0.0
 10
209.387976
 20
709.884172
 30
0.0
 10
209.387976
 20
701.380228
 30
0.0
 10
200.884032
 20
701.380228
 30
0.0
 10
200.884032
 20
690.750297
 30
0.0
 10
209.387976
 20
690.750297
 30
0.0
 10
209.387976
 20
680.120368
 30
0.0
 10
195.923400
 20
680.120368
 30
0.0
 10
195.923400
 20
688.624312
 30
0.0
 10
182.458816
 20
688.624312
 30
0.0
 10
182.458816
 20
680.120368
 30
0.0
 10
173.954876
 20
680.120368
 30
0.0
 10
173.954876
 20
688.624312
 30
0.0
 10
165.450932
 20
688.624312
 30
0.0
 10
165.450932
 20
680.120368
 30
0.0
 10
156.946988
 20
680.120368
 30
0.0
 10
156.946988
 20
688.624312
 30
0.0
 10
148.443044
 20
688.624312
 30
0.0
 10
148.443044
 20
680.120368
 30
0.0
 10
139.939100
 20
680.120368
 30
0.0
 10
139.939100
 20
688.624312
 30
0.0
 10
131.435156
 20
688.624312
 30
0.0
 10
131.435156
 20
680.120368
 30
0.0
 10
122.931212
 20
680.120368
 30
0.0
 10
122.931212
 20
688.624312
 30
0.0
 10
109.466634
 20
688.624312
 30
0.0
 10
109.466634
 20
680.120368
 30
0.0
 10
96.002056
 20
680.120368
 30
0.0
 10
96.002056
 20
690.750297
 30
0.0
 10
104.506000
 20
690.750297
 30
0.0
 10
104.506000
 20
701.380228
 30
0.0
 10
96.002056
 20
701.380228
 30
0.0
 10
96.002056
 20
709.884172
 30
0.0
 10
104.506000
 20
709.884172
 30
0.0
 10
104.506000
 20
718.388116
 30
0.0
 10
96.002056
 20
718.388116
 30
0.0
 10
96.002056
 20
726.892060
 30
0.0
 10
104.506000
 20
726.892060
 30
0.0
 10
104.506000
 20
735.396004
 30
0.0
 10
96.002056
 20
735.396004
 30
0.0
 10
96.002056
 20
743.899948
 30
0.0
 10
104.506000
 20
743.899948
 30
0.0
 10
104.506000
 20
754.529877
 30
0.0
 10
96.002056
 20
754.529877
 30
0.0
 10
96.002056
 20
765.159808
 30
0.0
 10
109.466634
 20
765.159808
 30
0.0
 10
109.466634
 20
756.655864
 30
0.0
 10
122.931212
 20
756.655864
 30
0.0
 10
122.931212
 20
765.159808
 30
0.0
 10
131.435156
 20
765.159808
 30
0.0
 10
131.435156
 20
756.655864
 30
0.0
  0
LWPOLYLINE
  5
101
100
AcDbEntity
  8
Layer_1
 62
5
100
AcDbPolyline
 90
61
 70
1
 10
309.309224
 20
756.655864
 30
0.0
 10
309.309224
 20
765.159808
 30
0.0
 10
322.773800
 20
765.159808
 30
0.0
 10
322.773800
 20
754.529877
 30
0.0
 10
314.269856
 20
754.529877
 30
0.0
 10
314.269856
 20
743.899948
 30
0.0
 10
322.773800
 20
743.899948
 30
0.0
 10
322.773800
 20
735.396004
 30
0.0
 10
314.269856
 20
735.396004
 30
0.0
 10
314.269856
 20
726.892060
 30
0.0
 10
322.773800
 20
726.892060
 30
0.0
 10
322.773800
 20
718.388116
 30
0.0
 10
314.269856
 20
718.388116
 30
0.0
 10
314.269856
 20
709.884172
 30
0.0
 10
322.773800
 20
709.884172
 30
0.0
 10
322.773800
 20
701.380228
 30
0.0
 10
314.269856
 20
701.380228
 30
0.0
 10
314.269856
 20
690.750297
 30
0.0
 10
322.773800
 20
690.750297
 30
0.0
 10
322.773800
 20
680.120368
 30
0.0
 10
309.309224
 20
680.120368
 30
0.0
 10
309.309224
 20
688.624312
 30
0.0
 10
295.844640
 20
688.624312
 30
0.0
 10
295.844640
 20
680.120368
 30
0.0
 10
287.340700
 20
680.120368
 30
0.0
 10
287.340700
 20
688.624312
 30
0.0
 10
278.836756
 20
688.624312
 30
0.0
 10
278.836756
 20
680.120368
 30
0.0
 10
270.332812
 20
680.120368
 30
0.0
 10
270.332812
 20
688.624312
 30
0.0
 10
261.828868
 20
688.624312
 30
0.0
 10
261.828868
 20
680.120368
 30
0.0
 10
253.324924
 20
680.120368
 30
0.0
 10
253.324924
 20
688.624312
 30
0.0
 10
244.820980
 20
688.624312
 30
0.0
 10
244.820980
 20
680.120368
 30
0.0
 10
236.317036
 20
680.120368
 30
0.0
 10
236.317036
 20
688.624312
 30
0.0
 10
222.852458
 20
688.624312
 30
0.0
 10
222.852458
 20
680.120368
 30
0.0
 10
209.387880
 20
680.120368
 30
0.0
 10
209.387880
 20
690.750297
 30
0.0
 10
217.891824
 20
690.750297
 30
0.0
 10
217.891824
 20
701.380228
 30
0.0
 10
209.387880
 20
701.380228
 30
0.0
 10
209.387880
 20
709.884172
 30
0.0
 10
217.891824
 20
709.884172
 30
0.0
 10
217.891824
 20
718.388116
 30
0.0
 10
209.387880
 20
718.388116
 30
0.0
 10
209.387880
 20
726.892060
 30
0.0
 10
217.891824
 20
726.892060
 30
0.0
 10
217.891824
 20
735.396004
 30
0.0
 10
209.387880
 20
735.396004
 30
0.0
 10
209.387880
 20
743.899948
 30
0.0
 10
217.891824
 20
743.899948
 30
0.0
 10
217.891824
 20
754.529877
 30
0.0
 10
209.387880
 20
754.529877
 30
0.0
 10
209.387880
 20
765.159808
 30
0.0
 10
222.852458
 20
765.159808
 30
0.0
 10
222.852458
 20
756.655864
 30
0.0
 10
309.309224
 20
756.655864
 30
0.0
  0
LWPOLYLINE
  5
102
100
AcDbEntity
  8
Layer_1
 62
5
100
AcDbPolyline
 90
57
 70
1
 10
427.655680
 20
765.159808
 30
0.0
 10
427.655680
 20
754.529877
 30
0.0
 10
436.159624
 20
754.529877
 30
0.0
 10
436.159624
 20
743.899948
 30
0.0
 10
427.655680
 20
743.899948
 30
0.0
 10
427.655680
 20
735.396004
 30
0.0
 10
436.159624
 20
735.396004
 30
0.0
 10
436.159624
 20
726.892060
 30
0.0
 10
427.655680
 20
726.892060
 30
0.0
 10
427.655680
 20
718.388116
 30
0.0
 10
436.159624
 20
718.388116
 30
0.0
 10
436.159624
 20
709.884172
 30
0.0
 10
427.655680
 20
709.884172
 30
0.0
 10
427.655680
 20
701.380228
 30
0.0
 10
436.159624
 20
701.380228
 30
0.0
 10
436.159624
 20
690.750297
 30
0.0
 10
427.655680
 20
690.750297
 30
0.0
 10
427.655680
 20
680.120368
 30
0.0
 10
422.695048
 20
680.120368
 30
0.0
 10
422.695048
 20
688.624312
 30
0.0
 10
409.230464
 20
688.624312
 30
0.0
 10
409.230464
 20
680.120368
 30
0.0
 10
400.726524
 20
680.120368
 30
0.0
 10
400.726524
 20
688.624312
 30
0.0
 10
392.222580
 20
688.624312
 30
0.0
 10
392.222580
 20
680.120368
 30
0.0
 10
383.718636
 20
680.120368
 30
0.0
 10
383.718636
 20
688.624312
 30
0.0
 10
375.214692
 20
688.624312
 30
0.0
 10
375.214692
 20
680.120368
 30
0.0
 10
366.710748
 20
680.120368
 30
0.0
 10
366.710748
 20
688.624312
 30
0.0
 10
358.206804
 20
688.624312
 30
0.0
 10
358.206804
 20
680.120368
 30
0.0
 10
349.702860
 20
680.120368
 30
0.0
 10
349.702860
 20
688.624312
 30
0.0
 10
336.238282
 20
688.624312
 30
0.0
 10
336.238282
 20
680.120368
 30
0.0
 10
331.277648
 20
680.120368
 30
0.0
 10
331.277648
 20
690.750297
 30
0.0
 10
322.773704
 20
690.750297
 30
0.0
 10
322.773704
 20
701.380228
 30
0.0
 10
331.277648
 20
701.380228
 30
0.0
 10
331.277648
 20
709.884172
 30
0.0
 10
322.773704
 20
709.884172
 30
0.0
 10
322.773704
 20
718.388116
 30
0.0
 10
331.277648
 20
718.388116
 30
0.0
 10
331.277648
 20
726.892060
 30
0.0
 10
322.773704
 20
726.892060
 30
0.0
 10
322.773704
 20
735.396004
 30
0.0
 10
331.277648
 20
735.396004
 30
0.0
 10
331.277648
 20
743.899948
 30
0.0
 10
322.773704
 20
743.899948
 30
0.0
 10
322.773704
 20
754.529877
 30
0.0
 10
331.277648
 20
754.529877
 30
0.0
 10
331.277648
 20
765.159808
 30
0.0
 10
427.655680
 20
765.159808
 30
0.0
  0
LWPOLYLINE
  5
103
100
AcDbEntity
  8
Layer_1
 62
5
100
AcDbPolyline
 90
57
 70
1
 10
427.655680
 20
680.120444
 30
0.0
 10
427.655680
 20
669.490513
 30
0.0
 10
436.159624
 20
669.490513
 30
0.0
 10
436.159624
 20
658.860584
 30
0.0
 10
427.655680
 20
658.860584
 30
0.0
 10
427.655680
 20
650.356640
 30
0.0
 10
436.159624
 20
650.356640
 30
0.0
 10
436.159624
 20
641.852696
 30
0.0
 10
427.655680
 20
641.852696
 30
0.0
 10
427.655680
 20
633.348752
 30
0.0
 10
436.159624
 20
633.348752
 30
0.0
 10
436.159624
 20
624.844808
 30
0.0
 10
427.655680
 20
624.844808
 30
0.0
 10
427.655680
 20
616.340864
 30
0.0
 10
436.159624
 20
616.340864
 30
0.0
 10
436.159624
 20
605.710933
 30
0.0
 10
427.655680
 20
605.710933
 30
0.0
 10
427.655680
 20
595.081004
 30
0.0
 10
422.695048
 20
595.081004
 30
0.0
 10
422.695048
 20
603.584948
 30
0.0
 10
409.230464
 20
603.584948
 30
0.0
 10
409.230464
 20
595.081004
 30
0.0
 10
400.726524
 20
595.081004
 30
0.0
 10
400.726524
 20
603.584948
 30
0.0
 10
392.222580
 20
603.584948
 30
0.0
 10
392.222580
 20
595.081004
 30
0.0
 10
383.718636
 20
595.081004
 30
0.0
 10
383.718636
 20
603.584948
 30
0.0
 10
375.214692
 20
603.584948
 30
0.0
 10
375.214692
 20
595.081004
 30
0.0
 10
366.710748
 20
595.081004
 30
0.0
 10
366.710748
 20
603.584948
 30
0.0
 10
358.206804
 20
603.584948
 30
0.0
 10
358.206804
 20
595.081004
 30
0.0
 10
349.702860
 20
595.081004
 30
0.0
 10
349.702860
 20
603.584948
 30
0.0
 10
336.238282
 20
603.584948
 30
0.0
 10
336.238282
 20
595.081004
 30
0.0
 10
331.277648
 20
595.081004
 30
0.0
 10
331.277648
 20
605.710933
 30
0.0
 10
322.773704
 20
605.710933
 30
0.0
 10
322.773704
 20
616.340864
 30
0.0
 10
331.277648
 20
616.340864
 30
0.0
 10
331.277648
 20
624.844808
 30
0.0
 10
322.773704
 20
624.844808
 30
0.0
 10
322.773704
 20
633.348752
 30
0.0
 10
331.277648
 20
633.348752
 30
0.0
 10
331.277648
 20
641.852696
 30
0.0
 10
322.773704
 20
641.852696
 30
0.0
 10
322.773704
 20
650.356640
 30
0.0
 10
331.277648
 20
650.356640
 30
0.0
 10
331.277648
 20
658.860584
 30
0.0
 10
322.773704
 20
658.860584
 30
0.0
 10
322.773704
 20
669.490513
 30
0.0
 10
331.277648
 20
669.490513
 30
0.0
 10
331.277648
 20
680.120444
 30
0.0
 10
427.655680
 20
680.120444
 30
0.0
  0
SPLINE
  5
104
100
AcDbEntity
  8
Layer_1
 62
3
100
AcDbSpline
 70
0
 71
3
 72
10
 73
6
 74
4
 40
0.000000
 40
0.000000
 40
0.000000
 40
0.000000
 40
20.742028
 40
40.898430
 40
78.502901
 40
78.502901
 40
78.502901
 40
78.502901
 10
266.556504
 20
641.679836
 30
0.0
 10
258.994428
 20
646.887380
 30
0.0
 10
244.083782
 20
657.155439
 30
0.0
 10
241.615059
 20
619.175988
 30
0.0
 10
257.683304
 20
607.884205
 30
0.0
 10
268.144328
 20
600.532836
 30
0.0
 11
266.556504
 21
641.679836
 31
0.0
 11
247.374642
 21
649.572104
 31
0.0
 11
244.341667
 21
629.645197
 31
0.0
 11
268.144328
 21
600.532836
 31
0.0
  0
LWPOLYLINE
  5
105
100
AcDbEntity
  8
Layer_1
 62
5
100
AcDbPolyline
 90
85
 70
1
 10
131.435156
 20
680.120444
 30
0.0
 10
139.939100
 20
680.120444
 30
0.0
 10
139.939100
 20
671.616500
 30
0.0
 10
148.443044
 20
671.616500
 30
0.0
 10
148.443044
 20
680.120444
 30
0.0
 10
156.946988
 20
680.120444
 30
0.0
 10
156.946988
 20
671.616500
 30
0.0
 10
165.450932
 20
671.616500
 30
0.0
 10
165.450932
 20
680.120444
 30
0.0
 10
173.954876
 20
680.120444
 30
0.0
 10
173.954876
 20
671.616500
 30
0.0
 10
182.458816
 20
671.616500
 30
0.0
 10
182.458816
 20
680.120444
 30
0.0
 10
195.923400
 20
680.120444
 30
0.0
 10
195.923400
 20
671.616500
 30
0.0
 10
200.884032
 20
671.616500
 30
0.0
 10
200.884032
 20
666.655865
 30
0.0
 10
209.387976
 20
666.655865
 30
0.0
 10
209.387976
 20
653.191288
 30
0.0
 10
200.884032
 20
653.191288
 30
0.0
 10
200.884032
 20
644.687344
 30
0.0
 10
209.387976
 20
644.687344
 30
0.0
 10
209.387976
 20
636.183400
 30
0.0
 10
200.884032
 20
636.183400
 30
0.0
 10
200.884032
 20
627.679456
 30
0.0
 10
209.387976
 20
627.679456
 30
0.0
 10
209.387976
 20
619.175512
 30
0.0
 10
200.884032
 20
619.175512
 30
0.0
 10
200.884032
 20
610.671568
 30
0.0
 10
209.387976
 20
610.671568
 30
0.0
 10
209.387976
 20
602.167624
 30
0.0
 10
200.884032
 20
602.167624
 30
0.0
 10
200.884032
 20
593.663684
 30
0.0
 10
209.387976
 20
593.663684
 30
0.0
 10
209.387976
 20
580.199100
 30
0.0
 10
200.884032
 20
580.199100
 30
0.0
 10
200.884032
 20
575.238468
 30
0.0
 10
195.923400
 20
575.238468
 30
0.0
 10
195.923400
 20
566.734524
 30
0.0
 10
182.458816
 20
566.734524
 30
0.0
 10
182.458816
 20
575.238468
 30
0.0
 10
173.954876
 20
575.238468
 30
0.0
 10
173.954876
 20
566.734524
 30
0.0
 10
165.450932
 20
566.734524
 30
0.0
 10
165.450932
 20
575.238468
 30
0.0
 10
156.946988
 20
575.238468
 30
0.0
 10
156.946988
 20
566.734524
 30
0.0
 10
148.443044
 20
566.734524
 30
0.0
 10
148.443044
 20
575.238468
 30
0.0
 10
139.939100
 20
575.238468
 30
0.0
 10
139.939100
 20
566.734524
 30
0.0
 10
131.435156
 20
566.734524
 30
0.0
 10
131.435156
 20
575.238468
 30
0.0
 10
122.931212
 20
575.238468
 30
0.0
 10
122.931212
 20
566.734524
 30
0.0
 10
109.466634
 20
566.734524
 30
0.0
 10
109.466634
 20
575.238468
 30
0.0
 10
104.506000
 20
575.238468
 30
0.0
 10
104.506000
 20
580.199100
 30
0.0
 10
96.002056
 20
580.199100
 30
0.0
 10
96.002056
 20
593.663684
 30
0.0
 10
104.506000
 20
593.663684
 30
0.0
 10
104.506000
 20
602.167624
 30
0.0
 10
96.002056
 20
602.167624
 30
0.0
 10
96.002056
 20
610.671568
 30
0.0
 10
104.506000
 20
610.671568
 30
0.0
 10
104.506000
 20
619.175512
 30
0.0
 10
96.002056
 20
619.175512
 30
0.0
 10
96.002056
 20
627.679456
 30
0.0
 10
104.506000
 20
627.679456
 30
0.0
 10
104.506000
 20
636.183400
 30
0.0
 10
96.002056
 20
636.183400
 30
0.0
 10
96.002056
 20
644.687344
 30
0.0
 10
104.506000
 20
644.687344
 30
0.0
 10
104.506000
 20
653.191288
 30
0.0
 10
96.002056
 20
653.191288
 30
0.0
 10
96.002056
 20
666.655865
 30
0.0
 10
104.506000
 20
666.655865
 30
0.0
 10
104.506000
 20
671.616500
 30
0.0
 10
109.466634
 20
671.616500
 30
0.0
 10
109.466634
 20
680.120444
 30
0.0
 10
122.931212
 20
680.120444
 30
0.0
 10
122.931212
 20
671.616500
 30
0.0
 10
131.435156
 20
671.616500
 30
0.0
 10
131.435156
 20
680.120444
 30
0.0
  0
LWPOLYLINE
  5
106
100
AcDbEntity
  8
Layer_1
 62
3
100
AcDbPolyline
 90
2
 70
1
 10
266.556504
 20
641.679836
 30
0.0
 10
266.556504
 20
641.679836
 30
0.0
  0
SPLINE
  5
107
100
AcDbEntity
  8
Layer_1
 62
3
100
AcDbSpline
 70
0
 71
3
 72
10
 73
6
 74
4
 40
0.000000
 40
0.000000
 40
0.000000
 40
0.000000
 40
35.604949
 40
59.921075
 40
90.315855
 40
90.315855
 40
90.315855
 40
90.315855
 10
268.144328
 20
600.532836
 30
0.0
 10
277.645182
 20
607.009096
 30
0.0
 10
293.634571
 20
617.908269
 30
0.0
 10
301.665703
 20
660.710839
 30
0.0
 10
279.095459
 20
648.476598
 30
0.0
 10
266.556504
 20
641.679836
 30
0.0
 11
268.144328
 21
600.532836
 31
0.0
 11
292.882789
 21
626.139885
 31
0.0
 11
295.705782
 21
650.291587
 31
0.0
 11
266.556504
 21
641.679836
 31
0.0
  0
SPLINE
  5
108
100
AcDbEntity
  8
Layer_1
 62
3
100
AcDbSpline
 70
0
 71
3
 72
10
 73
6
 74
4
 40
0.000000
 40
0.000000
 40
0.000000
 40
0.000000
 40
18.382449
 40
35.542994
 40
68.739375
 40
68.739375
 40
68.739375
 40
68.739375
 10
266.280112
 20
638.557124
 30
0.0
 10
259.599254
 20
643.376199
 30
0.0
 10
246.681623
 20
652.694019
 30
0.0
 10
244.852945
 20
619.474207
 30
0.0
 10
259.032898
 20
609.826617
 30
0.0
 10
268.380632
 20
603.466716
 30
0.0
 11
266.280112
 21
638.557124
 31
0.0
 11
249.439884
 21
645.927411
 31
0.0
 11
247.081836
 21
628.929649
 31
0.0
 11
268.380632
 21
603.466716
 31
0.0
  0
LWPOLYLINE
  5
109
100
AcDbEntity
  8
Layer_1
 62
5
100
AcDbPolyline
 90
29
 70
1
 10
253.324924
 20
671.616500
 30
0.0
 10
261.828868
 20
671.616500
 30
0.0
 10
261.828868
 20
680.120444
 30
0.0
 10
270.332812
 20
680.120444
 30
0.0
 10
270.332812
 20
671.616500
 30
0.0
 10
278.836756
 20
671.616500
 30
0.0
 10
278.836756
 20
680.120444
 30
0.0
 10
287.340700
 20
680.120444
 30
0.0
 10
287.340700
 20
671.616500
 30
0.0
 10
295.844640
 20
671.616500
 30
0.0
 10
295.844640
 20
680.120444
 30
0.0
 10
309.309224
 20
680.120444
 30
0.0
 10
309.309224
 20
671.616500
 30
0.0
 10
314.269856
 20
671.616500
 30
0.0
 10
314.269856
 20
575.238468
 30
0.0
 10
309.309224
 20
575.238468
 30
0.0
 10
309.309224
 20
566.734524
 30
0.0
 10
222.852458
 20
566.734524
 30
0.0
 10
222.852458
 20
575.238468
 30
0.0
 10
217.891824
 20
575.238468
 30
0.0
 10
217.891824
 20
671.616500
 30
0.0
 10
222.852458
 20
671.616500
 30
0.0
 10
222.852458
 20
680.120444
 30
0.0
 10
236.317036
 20
680.120444
 30
0.0
 10
236.317036
 20
671.616500
 30
0.0
 10
244.820980
 20
671.616500
 30
0.0
 10
244.820980
 20
680.120444
 30
0.0
 10
253.324924
 20
680.120444
 30
0.0
 10
253.324924
 20
671.616500
 30
0.0
  0
SPLINE
  5
10a
100
AcDbEntity
  8
Layer_1
 62
3
100
AcDbSpline
 70
0
 71
3
 72
10
 73
6
 74
4
 40
0.000000
 40
0.000000
 40
0.000000
 40
0.000000
 40
31.202546
 40
52.062216
 40
79.308530
 40
79.308530
 40
79.308530
 40
79.308530
 10
268.380632
 20
603.466716
 30
0.0
 10
276.822814
 20
609.100976
 30
0.0
 10
290.908802
 20
618.501878
 30
0.0
 10
297.285393
 20
655.935742
 30
0.0
 10
277.491179
 20
644.840984
 30
0.0
 10
266.280112
 20
638.557124
 30
0.0
 11
268.380632
 21
603.466716
 31
0.0
 11
290.151087
 21
625.819482
 31
0.0
 11
292.322825
 21
646.565792
 31
0.0
 11
266.280112
 21
638.557124
 31
0.0
  0
LWPOLYLINE
  5
10b
100
AcDbEntity
  8
Layer_1
 62
3
100
AcDbPolyline
 90
2
 70
1
 10
266.280112
 20
638.557124
 30
0.0
 10
266.280112
 20
638.557124
 30
0.0
  0
SPLINE
  5
10c
100
AcDbEntity
  8
Layer_1
 62
7
100
AcDbSpline
 70
0
 71
3
 72
13
 73
9
 74
7
 40
0.000000
 40
0.000000
 40
0.000000
 40
0.000000
 40
4.887691
 40
9.863915
 40
15.222086
 40
20.580263
 40
25.556490
 40
30.444180
 40
30.444180
 40
30.444180
 40
30.444180
 10
276.117379
 20
756.535456
 30
0.0
 10
275.820096
 20
754.887603
 30
0.0
 10
275.220145
 20
751.562049
 30
0.0
 10
271.047870
 20
748.084103
 30
0.0
 10
265.801849
 20
746.836072
 30
0.0
 10
260.555828
 20
748.084103
 30
0.0
 10
256.383549
 20
751.562048
 30
0.0
 10
255.783598
 20
754.887603
 30
0.0
 10
255.486314
 20
756.535456
 30
0.0
 11
276.117379
 21
756.535456
 31
0.0
 11
274.709007
 21
751.855070
 31
0.0
 11
271.008296
 21
748.528278
 31
0.0
 11
265.801851
 21
747.262208
 31
0.0
 11
260.595400
 21
748.528278
 31
0.0
 11
256.894687
 21
751.855070
 31
0.0
 11
255.486314
 21
756.535456
 31
0.0
  0
LWPOLYLINE
  5
10d
100
AcDbEntity
  8
Layer_1
 62
7
100
AcDbPolyline
 90
3
 70
1
 10
255.486314
 20
756.535456
 30
0.0
 10
255.486314
 20
756.535456
 30
0.0
 10
276.117379
 20
756.535456
 30
0.0
  0
ENDSEC
  0
SECTION
  2
OBJECTS
  0
DICTIONARY
  5
C
330
0
100
AcDbDictionary
  3
ACAD_GROUP
350
D
  3
ACAD_MLINESTYLE
350
17
  0
DICTIONARY
  5
D
330
C
100
AcDbDictionary
  0
DICTIONARY
  5
1A
330
C
100
AcDbDictionary
  0
DICTIONARY
  5
17
330
C
100
AcDbDictionary
  3
STANDARD
350
18
  0
DICTIONARY
  5
19
330
C
100
AcDbDictionary
  0
ENDSEC
  0
EOF
