  0
SECTION
  2
HEADER
  9
$ACADVER
  1
AC1009
  9
$DWGCODEPAGE
  3
ansi_1252
  9
$INSBASE
 10
0.0
 20
0.0
 30
0.0
  9
$EXTMIN
 10
-21.1456500718554
 20
-49.3795353918193
 30
0.0
  9
$EXTMAX
 10
68.13805117868284
 20
49.3795353918193
 30
0.0
  9
$LIMMIN
 10
0.0
 20
0.0
  9
$LIMMAX
 10
12.0
 20
9.0
  9
$ORTHOMODE
 70
     0
  9
$REGENMODE
 70
     1
  9
$FILLMODE
 70
     1
  9
$QTEXTMODE
 70
     0
  9
$MIRRTEXT
 70
     1
  9
$DRAGMODE
 70
     2
  9
$LTSCALE
 40
1.0
  9
$OSMODE
 70
    37
  9
$ATTMODE
 70
     1
  9
$TEXTSIZE
 40
0.2
  9
$TRACEWID
 40
0.05
  9
$TEXTSTYLE
  7
STANDARD
  9
$CLAYER
  8
0
  9
$CELTYPE
  6
BYLAYER
  9
$CECOLOR
 62
   256
  9
$DIMSCALE
 40
1.0
  9
$DIMASZ
 40
0.18
  9
$DIMEXO
 40
0.0625
  9
$DIMDLI
 40
0.38
  9
$DIMRND
 40
0.0
  9
$DIMDLE
 40
0.0
  9
$DIMEXE
 40
0.18
  9
$DIMTP
 40
0.0
  9
$DIMTM
 40
0.0
  9
$DIMTXT
 40
0.18
  9
$DIMCEN
 40
0.09
  9
$DIMTSZ
 40
0.0
  9
$DIMTOL
 70
     0
  9
$DIMLIM
 70
     0
  9
$DIMTIH
 70
     1
  9
$DIMTOH
 70
     1
  9
$DIMSE1
 70
     0
  9
$DIMSE2
 70
     0
  9
$DIMTAD
 70
     0
  9
$DIMZIN
 70
     0
  9
$DIMBLK
  1

  9
$DIMASO
 70
     1
  9
$DIMSHO
 70
     1
  9
$DIMPOST
  1

  9
$DIMAPOST
  1

  9
$DIMALT
 70
     0
  9
$DIMALTD
 70
     2
  9
$DIMALTF
 40
25.4
  9
$DIMLFAC
 40
1.0
  9
$DIMTOFL
 70
     0
  9
$DIMTVP
 40
0.0
  9
$DIMTIX
 70
     0
  9
$DIMSOXD
 70
     0
  9
$DIMSAH
 70
     0
  9
$DIMBLK1
  1

  9
$DIMBLK2
  1

  9
$DIMSTYLE
  2
STANDARD
  9
$DIMCLRD
 70
     0
  9
$DIMCLRE
 70
     0
  9
$DIMCLRT
 70
     0
  9
$DIMTFAC
 40
1.0
  9
$DIMGAP
 40
0.09
  9
$LUNITS
 70
     2
  9
$LUPREC
 70
     4
  9
$SKETCHINC
 40
0.1
  9
$FILLETRAD
 40
0.5
  9
$AUNITS
 70
     0
  9
$AUPREC
 70
     0
  9
$MENU
  1
.
  9
$ELEVATION
 40
0.0
  9
$PELEVATION
 40
0.0
  9
$THICKNESS
 40
0.0
  9
$LIMCHECK
 70
     0
  9
$CHAMFERA
 40
0.0
  9
$CHAMFERB
 40
0.0
  9
$SKPOLY
 70
     0
  9
$TDCREATE
 40
2454910.5
  9
$TDUPDATE
 40
2457068.8373025
  9
$TDINDWG
 40
0.0000000116
  9
$TDUSRTIMER
 40
0.0000000116
  9
$USRTIMER
 70
     1
  9
$ANGBASE
 50
0.0
  9
$ANGDIR
 70
     0
  9
$PDMODE
 70
     0
  9
$PDSIZE
 40
0.0
  9
$PLINEWID
 40
0.0
  9
$COORDS
 70
     1
  9
$SPLFRAME
 70
     0
  9
$SPLINETYPE
 70
     6
  9
$SPLINESEGS
 70
     8
  9
$ATTDIA
 70
     0
  9
$ATTREQ
 70
     1
  9
$HANDLING
 70
     1
  9
$HANDSEED
  5
18D
  9
$SURFTAB1
 70
     6
  9
$SURFTAB2
 70
     6
  9
$SURFTYPE
 70
     6
  9
$SURFU
 70
     6
  9
$SURFV
 70
     6
  9
$UCSNAME
  2

  9
$UCSORG
 10
0.0
 20
0.0
 30
0.0
  9
$UCSXDIR
 10
1.0
 20
0.0
 30
0.0
  9
$UCSYDIR
 10
0.0
 20
1.0
 30
0.0
  9
$PUCSNAME
  2

  9
$PUCSORG
 10
0.0
 20
0.0
 30
0.0
  9
$PUCSXDIR
 10
1.0
 20
0.0
 30
0.0
  9
$PUCSYDIR
 10
0.0
 20
1.0
 30
0.0
  9
$USERI1
 70
     0
  9
$USERI2
 70
     0
  9
$USERI3
 70
     0
  9
$USERI4
 70
     0
  9
$USERI5
 70
     0
  9
$USERR1
 40
0.0
  9
$USERR2
 40
0.0
  9
$USERR3
 40
0.0
  9
$USERR4
 40
0.0
  9
$USERR5
 40
0.0
  9
$WORLDVIEW
 70
     1
  9
$SHADEDGE
 70
     3
  9
$SHADEDIF
 70
    70
  9
$TILEMODE
 70
     1
  9
$MAXACTVP
 70
    64
  9
$PLIMCHECK
 70
     0
  9
$PEXTMIN
 10
1.000000000000000E+20
 20
1.000000000000000E+20
 30
1.000000000000000E+20
  9
$PEXTMAX
 10
-1.000000000000000E+20
 20
-1.000000000000000E+20
 30
-1.000000000000000E+20
  9
$PLIMMIN
 10
0.0
 20
0.0
  9
$PLIMMAX
 10
12.0
 20
9.0
  9
$UNITMODE
 70
     0
  9
$VISRETAIN
 70
     1
  9
$PLINEGEN
 70
     0
  9
$PSLTSCALE
 70
     1
  0
ENDSEC
  0
SECTION
  2
TABLES
  0
TABLE
  2
VPORT
 70
     1
  0
VPORT
  2
*ACTIVE
 70
     0
 10
0.0
 20
0.0
 11
1.0
 21
1.0
 12
10.42990654205607
 22
4.5
 13
0.0
 23
0.0
 14
0.5
 24
0.5
 15
0.5
 25
0.5
 16
0.0
 26
0.0
 36
1.0
 17
0.0
 27
0.0
 37
0.0
 40
9.0
 41
1.972972972850329
 42
50.0
 43
0.0
 44
0.0
 50
0.0
 51
0.0
 71
     0
 72
   100
 73
     1
 74
     3
 75
     0
 76
     0
 77
     0
 78
     0
  0
ENDTAB
  0
TABLE
  2
LTYPE
 70
     2
  0
LTYPE
  2
CONTINUOUS
 70
     0
  3
Solid line
 72
    65
 73
     0
 40
0.0
  0
LTYPE
  2
CONTINUOUS2
 70
     0
  3
Solid Line
 72
    65
 73
     0
 40
0.0
  0
ENDTAB
  0
TABLE
  2
LAYER
 70
     2
  0
LAYER
  2
0
 70
     0
 62
     7
  6
CONTINUOUS
  0
LAYER
  2
LAYER_1
 70
     0
 62
    18
  6
CONTINUOUS
  0
ENDTAB
  0
TABLE
  2
STYLE
 70
     1
  0
STYLE
  2
STANDARD
 70
     0
 40
0.0
 41
1.0
 50
0.0
 71
     0
 42
0.2
  3
txt
  4

  0
ENDTAB
  0
TABLE
  2
VIEW
 70
     0
  0
ENDTAB
  0
TABLE
  2
UCS
 70
     0
  0
ENDTAB
  0
TABLE
  2
APPID
 70
     1
  0
APPID
  2
ACAD
 70
     0
  0
ENDTAB
  0
TABLE
  2
DIMSTYLE
 70
     1
  0
DIMSTYLE
  2
STANDARD
 70
     0
  3

  4

  5

  6

  7

 40
1.0
 41
0.18
 42
0.0625
 43
0.38
 44
0.18
 45
0.0
 46
0.0
 47
0.0
 48
0.0
140
0.18
141
0.09
142
0.0
143
25.4
144
1.0
145
0.0
146
1.0
147
0.09
 71
     0
 72
     0
 73
     1
 74
     1
 75
     0
 76
     0
 77
     0
 78
     0
170
     0
171
     2
172
     0
173
     0
174
     0
175
     0
176
     0
177
     0
178
     0
  0
ENDTAB
  0
ENDSEC
  0
SECTION
  2
BLOCKS
  0
BLOCK
  8
0
  2
$MODEL_SPACE
 70
     0
 10
0.0
 20
0.0
 30
0.0
  3
$MODEL_SPACE
  1

  0
ENDBLK
  5
21
  8
0
  0
BLOCK
 67
     1
  8
0
  2
$PAPER_SPACE
 70
     0
 10
0.0
 20
0.0
 30
0.0
  3
$PAPER_SPACE
  1

  0
ENDBLK
  5
1D
 67
     1
  8
0
  0
ENDSEC
  0
SECTION
  2
ENTITIES
  0
POLYLINE
  5
6C
  8
LAYER_1
 66
     1
 10
0.0
 20
0.0
 30
0.0
 70
     1
  0
VERTEX
  5
8D
  8
LAYER_1
 10
0.0062831850200951
 20
10.16688159185903
 30
0.0
 42
-0.4142135623730951
  0
VERTEX
  5
8E
  8
LAYER_1
 10
11.99999835506597
 20
-1.839399948227034
 30
0.0
 42
-0.4142135623730951
  0
VERTEX
  5
8F
  8
LAYER_1
 10
-0.0062831850201093
 20
-13.83311511827292
 30
0.0
 42
-0.4142135623730951
  0
VERTEX
  5
90
  8
LAYER_1
 10
-11.99999835506596
 20
-1.826833578186847
 30
0.0
 42
-0.4142135623730951
  0
SEQEND
  5
173
  8
LAYER_1
  0
POLYLINE
  5
6D
  8
LAYER_1
 66
     1
 10
0.0
 20
0.0
 30
0.0
 70
     1
  0
VERTEX
  5
91
  8
LAYER_1
 10
3.731621930952272
 20
21.44432888817445
 30
0.0
  0
VERTEX
  5
92
  8
LAYER_1
 10
3.734510940476937
 20
21.44872334495273
 30
0.0
  0
VERTEX
  5
93
  8
LAYER_1
 10
4.779025837496974
 20
20.40311406137087
 30
0.0
  0
VERTEX
  5
94
  8
LAYER_1
 10
5.168138145964164
 20
20.79181910558734
 30
0.0
  0
VERTEX
  5
95
  8
LAYER_1
 10
4.123623248944128
 20
21.8374283891692
 30
0.0
 42
-0.3615798467573219
  0
VERTEX
  5
96
  8
LAYER_1
 10
6.032175956349377
 20
21.66019541821911
 30
0.0
 42
-0.4142135623730951
  0
VERTEX
  5
97
  8
LAYER_1
 10
6.031065235665579
 20
19.53887536544547
 30
0.0
 42
-0.0474841812128853
  0
VERTEX
  5
98
  8
LAYER_1
 10
5.811627480568589
 20
19.3582246221552
 30
0.0
  0
VERTEX
  5
99
  8
LAYER_1
 10
12.54024200644247
 20
12.60988134517992
 30
0.0
  0
VERTEX
  5
9A
  8
LAYER_1
 10
12.54172458815707
 20
12.61213649221541
 30
0.0
  0
VERTEX
  5
9B
  8
LAYER_1
 10
13.5862394851771
 20
11.56652720863354
 30
0.0
  0
VERTEX
  5
9C
  8
LAYER_1
 10
13.97535179364429
 20
11.95523225285002
 30
0.0
  0
VERTEX
  5
9D
  8
LAYER_1
 10
12.93083689662427
 20
13.00084153643187
 30
0.0
 42
-0.3615798467573219
  0
VERTEX
  5
9E
  8
LAYER_1
 10
14.83938960402951
 20
12.8236085654818
 30
0.0
 42
-0.4142135623730951
  0
VERTEX
  5
9F
  8
LAYER_1
 10
14.83827888334572
 20
10.70228851270814
 30
0.0
 42
-0.0457775530627987
  0
VERTEX
  5
A0
  8
LAYER_1
 10
14.62095184821656
 20
10.52307072197084
 30
0.0
  0
VERTEX
  5
A1
  8
LAYER_1
 10
19.37311139125306
 20
5.756977526997787
 30
0.0
  0
VERTEX
  5
A2
  8
LAYER_1
 10
19.37122219952401
 20
2.148887431220475
 30
0.0
  0
VERTEX
  5
A3
  8
LAYER_1
 10
19.3714222211987
 20
2.148928774458472
 30
0.0
  0
VERTEX
  5
A4
  8
LAYER_1
 10
19.3706483730396
 20
0.6709877928328822
 30
0.0
  0
VERTEX
  5
A5
  8
LAYER_1
 10
19.92064829764679
 20
0.670699813519466
 30
0.0
  0
VERTEX
  5
A6
  8
LAYER_1
 10
19.92142214580589
 20
2.148640795145042
 30
0.0
 42
-0.3615798467573219
  0
VERTEX
  5
A7
  8
LAYER_1
 10
21.1456500718554
 20
0.6737675978782462
 30
0.0
 42
-0.4142135623730951
  0
VERTEX
  5
A8
  8
LAYER_1
 10
19.64486487934467
 20
-0.8254467983775058
 30
0.0
 42
-0.0457775530627719
  0
VERTEX
  5
A9
  8
LAYER_1
 10
19.36967842913792
 20
-0.7994965546986021
 30
0.0
  0
VERTEX
  5
AA
  8
LAYER_1
 10
19.36467721512808
 20
-10.35111085530654
 30
0.0
  0
VERTEX
  5
AB
  8
LAYER_1
 10
19.36487723680274
 20
-10.35106951206854
 30
0.0
  0
VERTEX
  5
AC
  8
LAYER_1
 10
19.36410338864366
 20
-11.82901049369415
 30
0.0
  0
VERTEX
  5
AD
  8
LAYER_1
 10
19.91410331325085
 20
-11.82929847300757
 30
0.0
  0
VERTEX
  5
AE
  8
LAYER_1
 10
19.91487716140996
 20
-10.35135749138199
 30
0.0
 42
-0.3615798467573219
  0
VERTEX
  5
AF
  8
LAYER_1
 10
21.1391050874595
 20
-11.82623068864882
 30
0.0
 42
-0.4142135623730951
  0
VERTEX
  5
B0
  8
LAYER_1
 10
19.63831989494872
 20
-13.32544508490454
 30
0.0
 42
-0.0457775530628267
  0
VERTEX
  5
B1
  8
LAYER_1
 10
19.36313344474198
 20
-13.29949484122563
 30
0.0
  0
VERTEX
  5
B2
  8
LAYER_1
 10
19.36128059099299
 20
-16.83818451354928
 30
0.0
  0
VERTEX
  5
B3
  8
LAYER_1
 10
-19.37328290708773
 20
-16.81790314167496
 30
0.0
  0
VERTEX
  5
B4
  8
LAYER_1
 10
-19.37143007409487
 20
-13.27925311061041
 30
0.0
 42
-0.0457775530629031
  0
VERTEX
  5
B5
  8
LAYER_1
 10
-19.64643567559968
 20
-13.30487563310843
 30
0.0
 42
-0.4142135623730951
  0
VERTEX
  5
B6
  8
LAYER_1
 10
-21.1456500718554
 20
-11.80409044059767
 30
0.0
 42
-0.3615798467573405
  0
VERTEX
  5
B7
  8
LAYER_1
 10
-19.91987833374564
 20
-10.33050006027243
 30
0.0
  0
VERTEX
  5
B8
  8
LAYER_1
 10
-19.92065218190476
 20
-11.80844104189802
 30
0.0
  0
VERTEX
  5
B9
  8
LAYER_1
 10
-19.37066010940966
 20
-11.80872901710008
 30
0.0
  0
VERTEX
  5
BA
  8
LAYER_1
 10
-19.36488508969893
 20
-0.7792548240833419
 30
0.0
 42
-0.0457775530627911
  0
VERTEX
  5
BB
  8
LAYER_1
 10
-19.63989069120375
 20
-0.8048773465813603
 30
0.0
 42
-0.4142135623730951
  0
VERTEX
  5
BC
  8
LAYER_1
 10
-21.13910508745948
 20
0.6959078459293693
 30
0.0
 42
-0.3615798467573405
  0
VERTEX
  5
BD
  8
LAYER_1
 10
-19.9133333493497
 20
2.169498226254639
 30
0.0
  0
VERTEX
  5
BE
  8
LAYER_1
 10
-19.91410719750882
 20
0.6915572446290454
 30
0.0
  0
VERTEX
  5
BF
  8
LAYER_1
 10
-19.36411512501372
 20
0.6912692694269893
 30
0.0
  0
VERTEX
  5
C0
  8
LAYER_1
 10
-19.36145210682767
 20
5.777258898872162
 30
0.0
  0
VERTEX
  5
C1
  8
LAYER_1
 10
-14.62046568142983
 20
10.5227333403358
 30
0.0
 42
-0.047282307460283
  0
VERTEX
  5
C2
  8
LAYER_1
 10
-14.83880954561003
 20
10.70281979278407
 30
0.0
 42
-0.4142135623730951
  0
VERTEX
  5
C3
  8
LAYER_1
 10
-14.83880954561003
 20
12.82414013634372
 30
0.0
 42
-0.3615798467573219
  0
VERTEX
  5
C4
  8
LAYER_1
 10
-12.9301643008627
 20
13.00037376718399
 30
0.0
  0
VERTEX
  5
C5
  8
LAYER_1
 10
-13.97522653441853
 20
11.95531153362817
 30
0.0
  0
VERTEX
  5
C6
  8
LAYER_1
 10
-13.58631780476593
 20
11.56640280397557
 30
0.0
  0
VERTEX
  5
C7
  8
LAYER_1
 10
-12.54125557121012
 20
12.61146503753139
 30
0.0
  0
VERTEX
  5
C8
  8
LAYER_1
 10
-12.53826270866381
 20
12.60690741353442
 30
0.0
  0
VERTEX
  5
C9
  8
LAYER_1
 10
-5.786609607372696
 20
19.36495191207295
 30
0.0
 42
-0.0457775530627254
  0
VERTEX
  5
CA
  8
LAYER_1
 10
-5.999974780778174
 20
19.54165455761592
 30
0.0
 42
-0.4142135623730951
  0
VERTEX
  5
CB
  8
LAYER_1
 10
-5.999974780778174
 20
21.66297490117556
 30
0.0
 42
-0.3615798467573219
  0
VERTEX
  5
CC
  8
LAYER_1
 10
-4.091329536030869
 20
21.83920853201583
 30
0.0
  0
VERTEX
  5
CD
  8
LAYER_1
 10
-5.13639176958668
 20
20.79414629846001
 30
0.0
  0
VERTEX
  5
CE
  8
LAYER_1
 10
-4.747483039934082
 20
20.40523756880741
 30
0.0
  0
VERTEX
  5
CF
  8
LAYER_1
 10
-4.562187382310086
 20
20.59053322643141
 30
0.0
  0
VERTEX
  5
D0
  8
LAYER_1
 10
0.0148975183673912
 20
25.17195098713539
 30
0.0
  0
SEQEND
  5
174
  8
LAYER_1
  0
POLYLINE
  5
6E
  8
LAYER_1
 66
     1
 10
0.0
 20
0.0
 30
0.0
 70
     1
  0
VERTEX
  5
D1
  8
LAYER_1
 10
-19.79106967831457
 20
-19.37953539181931
 30
0.0
  0
VERTEX
  5
D2
  8
LAYER_1
 10
-19.79106967831457
 20
-46.3795353918193
 30
0.0
 42
0.4142135623730946
  0
VERTEX
  5
D3
  8
LAYER_1
 10
-16.79106967831457
 20
-49.3795353918193
 30
0.0
  0
VERTEX
  5
D4
  8
LAYER_1
 10
15.20893032168543
 20
-49.3795353918193
 30
0.0
 42
0.4142135623730946
  0
VERTEX
  5
D5
  8
LAYER_1
 10
18.20893032168543
 20
-46.3795353918193
 30
0.0
  0
VERTEX
  5
D6
  8
LAYER_1
 10
18.20893032168543
 20
-19.37953539181931
 30
0.0
  0
SEQEND
  5
175
  8
LAYER_1
  0
POLYLINE
  5
6F
  8
LAYER_1
 66
     1
 10
0.0
 20
0.0
 30
0.0
 70
     1
  0
VERTEX
  5
D7
  8
LAYER_1
 10
-17.76294920655643
 20
-38.52172669026506
 30
0.0
  0
VERTEX
  5
D8
  8
LAYER_1
 10
-18.30614920655643
 20
-38.52172669026506
 30
0.0
  0
VERTEX
  5
D9
  8
LAYER_1
 10
-18.30614920655643
 20
-41.67172669026505
 30
0.0
  0
VERTEX
  5
DA
  8
LAYER_1
 10
-17.76294920655643
 20
-41.67172669026505
 30
0.0
  0
SEQEND
  5
176
  8
LAYER_1
  0
POLYLINE
  5
70
  8
LAYER_1
 66
     1
 10
0.0
 20
0.0
 30
0.0
 70
     1
  0
VERTEX
  5
DB
  8
LAYER_1
 10
-17.76973975448325
 20
-26.01032951065502
 30
0.0
  0
VERTEX
  5
DC
  8
LAYER_1
 10
-18.31293975448322
 20
-26.01032951065501
 30
0.0
  0
VERTEX
  5
DD
  8
LAYER_1
 10
-18.31293975448322
 20
-29.16032951065501
 30
0.0
  0
VERTEX
  5
DE
  8
LAYER_1
 10
-17.76973975448323
 20
-29.16032951065501
 30
0.0
  0
SEQEND
  5
177
  8
LAYER_1
  0
POLYLINE
  5
71
  8
LAYER_1
 66
     1
 10
0.0
 20
0.0
 30
0.0
 70
     1
  0
VERTEX
  5
DF
  8
LAYER_1
 10
16.7308003978541
 20
-38.52172669026506
 30
0.0
  0
VERTEX
  5
E0
  8
LAYER_1
 10
16.1876003978541
 20
-38.52172669026506
 30
0.0
  0
VERTEX
  5
E1
  8
LAYER_1
 10
16.1876003978541
 20
-41.67172669026505
 30
0.0
  0
VERTEX
  5
E2
  8
LAYER_1
 10
16.7308003978541
 20
-41.67172669026505
 30
0.0
  0
SEQEND
  5
178
  8
LAYER_1
  0
POLYLINE
  5
72
  8
LAYER_1
 66
     1
 10
0.0
 20
0.0
 30
0.0
 70
     1
  0
VERTEX
  5
E3
  8
LAYER_1
 10
16.72400984992728
 20
-26.01032951065502
 30
0.0
  0
VERTEX
  5
E4
  8
LAYER_1
 10
16.18080984992729
 20
-26.01032951065501
 30
0.0
  0
VERTEX
  5
E5
  8
LAYER_1
 10
16.18080984992729
 20
-29.16032951065501
 30
0.0
  0
VERTEX
  5
E6
  8
LAYER_1
 10
16.72400984992728
 20
-29.16032951065501
 30
0.0
  0
SEQEND
  5
179
  8
LAYER_1
  0
POLYLINE
  5
73
  8
LAYER_1
 66
     1
 10
0.0
 20
0.0
 30
0.0
 70
     1
  0
VERTEX
  5
E7
  8
LAYER_1
 10
-6.253630743870303
 20
44.3795353918193
 30
0.0
 42
0.4142135623730951
  0
VERTEX
  5
E8
  8
LAYER_1
 10
-12.2536307438703
 20
38.3795353918193
 30
0.0
 42
0.4142135623730951
  0
VERTEX
  5
E9
  8
LAYER_1
 10
-6.253630743870303
 20
32.3795353918193
 30
0.0
 42
0.4142135623730951
  0
VERTEX
  5
EA
  8
LAYER_1
 10
-0.2536307438703034
 20
38.3795353918193
 30
0.0
 42
0.4142135623730951
  0
SEQEND
  5
17A
  8
LAYER_1
  0
POLYLINE
  5
74
  8
LAYER_1
 66
     1
 10
0.0
 20
0.0
 30
0.0
 70
     1
  0
VERTEX
  5
EB
  8
LAYER_1
 10
-19.2536307438703
 20
27.37953539181931
 30
0.0
  0
VERTEX
  5
EC
  8
LAYER_1
 10
18.7463692561297
 20
27.37953539181931
 30
0.0
  0
VERTEX
  5
ED
  8
LAYER_1
 10
18.7463692561297
 20
49.3795353918193
 30
0.0
  0
VERTEX
  5
EE
  8
LAYER_1
 10
-19.2536307438703
 20
49.3795353918193
 30
0.0
  0
SEQEND
  5
17B
  8
LAYER_1
  0
POLYLINE
  5
75
  8
LAYER_1
 66
     1
 10
0.0
 20
0.0
 30
0.0
 70
     1
  0
VERTEX
  5
EF
  8
LAYER_1
 10
-17.77031748637555
 20
41.81754003005545
 30
0.0
  0
VERTEX
  5
F0
  8
LAYER_1
 10
-17.23801748637555
 20
41.81754003005545
 30
0.0
  0
VERTEX
  5
F1
  8
LAYER_1
 10
-17.23801748637555
 20
44.96754003005546
 30
0.0
  0
VERTEX
  5
F2
  8
LAYER_1
 10
-17.77031748637555
 20
44.96754003005546
 30
0.0
  0
SEQEND
  5
17C
  8
LAYER_1
  0
POLYLINE
  5
76
  8
LAYER_1
 66
     1
 10
0.0
 20
0.0
 30
0.0
 70
     1
  0
VERTEX
  5
F3
  8
LAYER_1
 10
-17.75263621724906
 20
29.31394225576985
 30
0.0
  0
VERTEX
  5
F4
  8
LAYER_1
 10
-17.22033621724906
 20
29.31394225576985
 30
0.0
  0
VERTEX
  5
F5
  8
LAYER_1
 10
-17.22033621724906
 20
32.46394225576985
 30
0.0
  0
VERTEX
  5
F6
  8
LAYER_1
 10
-17.75263621724906
 20
32.46394225576985
 30
0.0
  0
SEQEND
  5
17D
  8
LAYER_1
  0
POLYLINE
  5
77
  8
LAYER_1
 66
     1
 10
0.0
 20
0.0
 30
0.0
 70
     1
  0
VERTEX
  5
F7
  8
LAYER_1
 10
16.71307862156644
 20
41.81753427896211
 30
0.0
  0
VERTEX
  5
F8
  8
LAYER_1
 10
17.24537862156645
 20
41.81753427896211
 30
0.0
  0
VERTEX
  5
F9
  8
LAYER_1
 10
17.24537862156645
 20
44.96753427896211
 30
0.0
  0
VERTEX
  5
FA
  8
LAYER_1
 10
16.71307862156644
 20
44.96753427896211
 30
0.0
  0
SEQEND
  5
17E
  8
LAYER_1
  0
POLYLINE
  5
78
  8
LAYER_1
 66
     1
 10
0.0
 20
0.0
 30
0.0
 70
     1
  0
VERTEX
  5
FB
  8
LAYER_1
 10
16.73075989069295
 20
29.3139365046765
 30
0.0
  0
VERTEX
  5
FC
  8
LAYER_1
 10
17.26305989069294
 20
29.3139365046765
 30
0.0
  0
VERTEX
  5
FD
  8
LAYER_1
 10
17.26305989069294
 20
32.4639365046765
 30
0.0
  0
VERTEX
  5
FE
  8
LAYER_1
 10
16.73075989069295
 20
32.4639365046765
 30
0.0
  0
SEQEND
  5
17F
  8
LAYER_1
  0
POLYLINE
  5
79
  8
LAYER_1
 66
     1
 10
0.0
 20
0.0
 30
0.0
 70
     1
  0
VERTEX
  5
FF
  8
LAYER_1
 10
46.99868429184755
 20
10.16688159185903
 30
0.0
 42
-0.4142135623730951
  0
VERTEX
  5
100
  8
LAYER_1
 10
58.99239946189342
 20
-1.839399948227034
 30
0.0
 42
-0.4142135623730951
  0
VERTEX
  5
101
  8
LAYER_1
 10
46.98611792180734
 20
-13.83311511827292
 30
0.0
 42
-0.4142135623730951
  0
VERTEX
  5
102
  8
LAYER_1
 10
34.9924027517615
 20
-1.826833578186847
 30
0.0
 42
-0.4142135623730951
  0
SEQEND
  5
180
  8
LAYER_1
  0
POLYLINE
  5
7A
  8
LAYER_1
 66
     1
 10
0.0
 20
0.0
 30
0.0
 70
     1
  0
VERTEX
  5
103
  8
LAYER_1
 10
50.72402303777972
 20
21.44432888817445
 30
0.0
  0
VERTEX
  5
104
  8
LAYER_1
 10
50.72691204730439
 20
21.44872334495273
 30
0.0
  0
VERTEX
  5
105
  8
LAYER_1
 10
51.77142694432442
 20
20.40311406137087
 30
0.0
  0
VERTEX
  5
106
  8
LAYER_1
 10
52.16053925279162
 20
20.79181910558734
 30
0.0
  0
VERTEX
  5
107
  8
LAYER_1
 10
51.11602435577158
 20
21.8374283891692
 30
0.0
 42
-0.3615798467573219
  0
VERTEX
  5
108
  8
LAYER_1
 10
53.02457706317683
 20
21.66019541821911
 30
0.0
 42
-0.4142135623730951
  0
VERTEX
  5
109
  8
LAYER_1
 10
53.02346634249303
 20
19.53887536544547
 30
0.0
 42
-0.0474841812128853
  0
VERTEX
  5
10A
  8
LAYER_1
 10
52.80402858739604
 20
19.3582246221552
 30
0.0
  0
VERTEX
  5
10B
  8
LAYER_1
 10
59.53264311326992
 20
12.60988134517992
 30
0.0
  0
VERTEX
  5
10C
  8
LAYER_1
 10
59.53412569498452
 20
12.61213649221541
 30
0.0
  0
VERTEX
  5
10D
  8
LAYER_1
 10
60.57864059200455
 20
11.56652720863354
 30
0.0
  0
VERTEX
  5
10E
  8
LAYER_1
 10
60.96775290047174
 20
11.95523225285002
 30
0.0
  0
VERTEX
  5
10F
  8
LAYER_1
 10
59.92323800345172
 20
13.00084153643187
 30
0.0
 42
-0.3615798467573219
  0
VERTEX
  5
110
  8
LAYER_1
 10
61.83179071085696
 20
12.8236085654818
 30
0.0
 42
-0.4142135623730951
  0
VERTEX
  5
111
  8
LAYER_1
 10
61.83067999017317
 20
10.70228851270814
 30
0.0
 42
-0.0457775530627987
  0
VERTEX
  5
112
  8
LAYER_1
 10
61.61335295504401
 20
10.52307072197084
 30
0.0
  0
VERTEX
  5
113
  8
LAYER_1
 10
66.3655124980805
 20
5.756977526997787
 30
0.0
  0
VERTEX
  5
114
  8
LAYER_1
 10
66.36362330635146
 20
2.148887431220475
 30
0.0
  0
VERTEX
  5
115
  8
LAYER_1
 10
66.36382332802614
 20
2.148928774458472
 30
0.0
  0
VERTEX
  5
116
  8
LAYER_1
 10
66.36304947986704
 20
0.6709877928328822
 30
0.0
  0
VERTEX
  5
117
  8
LAYER_1
 10
66.91304940447424
 20
0.670699813519466
 30
0.0
  0
VERTEX
  5
118
  8
LAYER_1
 10
66.91382325263334
 20
2.148640795145042
 30
0.0
 42
-0.3615798467573219
  0
VERTEX
  5
119
  8
LAYER_1
 10
68.13805117868284
 20
0.6737675978782462
 30
0.0
 42
-0.4142135623730951
  0
VERTEX
  5
11A
  8
LAYER_1
 10
66.63726598617211
 20
-0.8254467983775058
 30
0.0
 42
-0.0457775530627719
  0
VERTEX
  5
11B
  8
LAYER_1
 10
66.36207953596536
 20
-0.7994965546986021
 30
0.0
  0
VERTEX
  5
11C
  8
LAYER_1
 10
66.35707832195553
 20
-10.35111085530654
 30
0.0
  0
VERTEX
  5
11D
  8
LAYER_1
 10
66.35727834363018
 20
-10.35106951206854
 30
0.0
  0
VERTEX
  5
11E
  8
LAYER_1
 10
66.35650449547111
 20
-11.82901049369415
 30
0.0
  0
VERTEX
  5
11F
  8
LAYER_1
 10
66.9065044200783
 20
-11.82929847300757
 30
0.0
  0
VERTEX
  5
120
  8
LAYER_1
 10
66.9072782682374
 20
-10.35135749138199
 30
0.0
 42
-0.3615798467573219
  0
VERTEX
  5
121
  8
LAYER_1
 10
68.13150619428694
 20
-11.82623068864882
 30
0.0
 42
-0.4142135623730951
  0
VERTEX
  5
122
  8
LAYER_1
 10
66.63072100177618
 20
-13.32544508490454
 30
0.0
 42
-0.0457775530628267
  0
VERTEX
  5
123
  8
LAYER_1
 10
66.35553455156943
 20
-13.29949484122563
 30
0.0
  0
VERTEX
  5
124
  8
LAYER_1
 10
66.35368169782043
 20
-16.83818451354928
 30
0.0
  0
VERTEX
  5
125
  8
LAYER_1
 10
27.61911819973972
 20
-16.81790314167496
 30
0.0
  0
VERTEX
  5
126
  8
LAYER_1
 10
27.62097103273258
 20
-13.27925311061041
 30
0.0
 42
-0.0457775530629031
  0
VERTEX
  5
127
  8
LAYER_1
 10
27.34596543122777
 20
-13.30487563310843
 30
0.0
 42
-0.4142135623730951
  0
VERTEX
  5
128
  8
LAYER_1
 10
25.84675103497205
 20
-11.80409044059767
 30
0.0
 42
-0.3615798467573405
  0
VERTEX
  5
129
  8
LAYER_1
 10
27.07252277308181
 20
-10.33050006027243
 30
0.0
  0
VERTEX
  5
12A
  8
LAYER_1
 10
27.07174892492269
 20
-11.80844104189802
 30
0.0
  0
VERTEX
  5
12B
  8
LAYER_1
 10
27.6217409974178
 20
-11.80872901710008
 30
0.0
  0
VERTEX
  5
12C
  8
LAYER_1
 10
27.62751601712852
 20
-0.7792548240833419
 30
0.0
 42
-0.0457775530627911
  0
VERTEX
  5
12D
  8
LAYER_1
 10
27.3525104156237
 20
-0.8048773465813603
 30
0.0
 42
-0.4142135623730951
  0
VERTEX
  5
12E
  8
LAYER_1
 10
25.85329601936797
 20
0.6959078459293693
 30
0.0
 42
-0.3615798467573405
  0
VERTEX
  5
12F
  8
LAYER_1
 10
27.07906775747775
 20
2.169498226254639
 30
0.0
  0
VERTEX
  5
130
  8
LAYER_1
 10
27.07829390931863
 20
0.6915572446290454
 30
0.0
  0
VERTEX
  5
131
  8
LAYER_1
 10
27.62828598181373
 20
0.6912692694269893
 30
0.0
  0
VERTEX
  5
132
  8
LAYER_1
 10
27.63094899999978
 20
5.777258898872162
 30
0.0
  0
VERTEX
  5
133
  8
LAYER_1
 10
32.37193542539762
 20
10.5227333403358
 30
0.0
 42
-0.047282307460283
  0
VERTEX
  5
134
  8
LAYER_1
 10
32.15359156121743
 20
10.70281979278407
 30
0.0
 42
-0.4142135623730951
  0
VERTEX
  5
135
  8
LAYER_1
 10
32.15359156121743
 20
12.82414013634372
 30
0.0
 42
-0.3615798467573219
  0
VERTEX
  5
136
  8
LAYER_1
 10
34.06223680596475
 20
13.00037376718399
 30
0.0
  0
VERTEX
  5
137
  8
LAYER_1
 10
33.01717457240892
 20
11.95531153362817
 30
0.0
  0
VERTEX
  5
138
  8
LAYER_1
 10
33.40608330206152
 20
11.56640280397557
 30
0.0
  0
VERTEX
  5
139
  8
LAYER_1
 10
34.45114553561734
 20
12.61146503753139
 30
0.0
  0
VERTEX
  5
13A
  8
LAYER_1
 10
34.45413839816364
 20
12.60690741353442
 30
0.0
  0
VERTEX
  5
13B
  8
LAYER_1
 10
41.20579149945475
 20
19.36495191207295
 30
0.0
 42
-0.0457775530627254
  0
VERTEX
  5
13C
  8
LAYER_1
 10
40.99242632604928
 20
19.54165455761592
 30
0.0
 42
-0.4142135623730951
  0
VERTEX
  5
13D
  8
LAYER_1
 10
40.99242632604928
 20
21.66297490117556
 30
0.0
 42
-0.3615798467573219
  0
VERTEX
  5
13E
  8
LAYER_1
 10
42.90107157079658
 20
21.83920853201583
 30
0.0
  0
VERTEX
  5
13F
  8
LAYER_1
 10
41.85600933724077
 20
20.79414629846001
 30
0.0
  0
VERTEX
  5
140
  8
LAYER_1
 10
42.24491806689337
 20
20.40523756880741
 30
0.0
  0
VERTEX
  5
141
  8
LAYER_1
 10
42.43021372451737
 20
20.59053322643141
 30
0.0
  0
VERTEX
  5
142
  8
LAYER_1
 10
47.00729862519484
 20
25.17195098713539
 30
0.0
  0
SEQEND
  5
181
  8
LAYER_1
  0
POLYLINE
  5
7B
  8
LAYER_1
 66
     1
 10
0.0
 20
0.0
 30
0.0
 70
     1
  0
VERTEX
  5
143
  8
LAYER_1
 10
27.20133142851288
 20
-19.37953539181931
 30
0.0
  0
VERTEX
  5
144
  8
LAYER_1
 10
27.20133142851288
 20
-46.3795353918193
 30
0.0
 42
0.4142135623730946
  0
VERTEX
  5
145
  8
LAYER_1
 10
30.20133142851288
 20
-49.3795353918193
 30
0.0
  0
VERTEX
  5
146
  8
LAYER_1
 10
62.20133142851288
 20
-49.3795353918193
 30
0.0
 42
0.4142135623730946
  0
VERTEX
  5
147
  8
LAYER_1
 10
65.20133142851287
 20
-46.3795353918193
 30
0.0
  0
VERTEX
  5
148
  8
LAYER_1
 10
65.20133142851287
 20
-19.37953539181931
 30
0.0
  0
SEQEND
  5
182
  8
LAYER_1
  0
POLYLINE
  5
7C
  8
LAYER_1
 66
     1
 10
0.0
 20
0.0
 30
0.0
 70
     1
  0
VERTEX
  5
149
  8
LAYER_1
 10
29.22945190027102
 20
-38.52172669026506
 30
0.0
  0
VERTEX
  5
14A
  8
LAYER_1
 10
28.68625190027102
 20
-38.52172669026506
 30
0.0
  0
VERTEX
  5
14B
  8
LAYER_1
 10
28.68625190027102
 20
-41.67172669026505
 30
0.0
  0
VERTEX
  5
14C
  8
LAYER_1
 10
29.22945190027102
 20
-41.67172669026505
 30
0.0
  0
SEQEND
  5
183
  8
LAYER_1
  0
POLYLINE
  5
7D
  8
LAYER_1
 66
     1
 10
0.0
 20
0.0
 30
0.0
 70
     1
  0
VERTEX
  5
14D
  8
LAYER_1
 10
29.2226613523442
 20
-26.01032951065502
 30
0.0
  0
VERTEX
  5
14E
  8
LAYER_1
 10
28.67946135234423
 20
-26.01032951065501
 30
0.0
  0
VERTEX
  5
14F
  8
LAYER_1
 10
28.67946135234423
 20
-29.16032951065501
 30
0.0
  0
VERTEX
  5
150
  8
LAYER_1
 10
29.22266135234423
 20
-29.16032951065501
 30
0.0
  0
SEQEND
  5
184
  8
LAYER_1
  0
POLYLINE
  5
7E
  8
LAYER_1
 66
     1
 10
0.0
 20
0.0
 30
0.0
 70
     1
  0
VERTEX
  5
151
  8
LAYER_1
 10
63.72320150468155
 20
-38.52172669026506
 30
0.0
  0
VERTEX
  5
152
  8
LAYER_1
 10
63.18000150468155
 20
-38.52172669026506
 30
0.0
  0
VERTEX
  5
153
  8
LAYER_1
 10
63.18000150468155
 20
-41.67172669026505
 30
0.0
  0
VERTEX
  5
154
  8
LAYER_1
 10
63.72320150468155
 20
-41.67172669026505
 30
0.0
  0
SEQEND
  5
185
  8
LAYER_1
  0
POLYLINE
  5
7F
  8
LAYER_1
 66
     1
 10
0.0
 20
0.0
 30
0.0
 70
     1
  0
VERTEX
  5
155
  8
LAYER_1
 10
63.71641095675474
 20
-26.01032951065502
 30
0.0
  0
VERTEX
  5
156
  8
LAYER_1
 10
63.17321095675474
 20
-26.01032951065501
 30
0.0
  0
VERTEX
  5
157
  8
LAYER_1
 10
63.17321095675474
 20
-29.16032951065501
 30
0.0
  0
VERTEX
  5
158
  8
LAYER_1
 10
63.71641095675474
 20
-29.16032951065501
 30
0.0
  0
SEQEND
  5
186
  8
LAYER_1
  0
POLYLINE
  5
80
  8
LAYER_1
 66
     1
 10
0.0
 20
0.0
 30
0.0
 70
     1
  0
VERTEX
  5
159
  8
LAYER_1
 10
40.73877036295715
 20
44.3795353918193
 30
0.0
 42
0.4142135623730951
  0
VERTEX
  5
15A
  8
LAYER_1
 10
34.73877036295715
 20
38.3795353918193
 30
0.0
 42
0.4142135623730951
  0
VERTEX
  5
15B
  8
LAYER_1
 10
40.73877036295715
 20
32.3795353918193
 30
0.0
 42
0.4142135623730951
  0
VERTEX
  5
15C
  8
LAYER_1
 10
46.73877036295715
 20
38.3795353918193
 30
0.0
 42
0.4142135623730951
  0
SEQEND
  5
187
  8
LAYER_1
  0
POLYLINE
  5
81
  8
LAYER_1
 66
     1
 10
0.0
 20
0.0
 30
0.0
 70
     1
  0
VERTEX
  5
15D
  8
LAYER_1
 10
27.73877036295715
 20
27.37953539181931
 30
0.0
  0
VERTEX
  5
15E
  8
LAYER_1
 10
65.73877036295715
 20
27.37953539181931
 30
0.0
  0
VERTEX
  5
15F
  8
LAYER_1
 10
65.73877036295715
 20
49.3795353918193
 30
0.0
  0
VERTEX
  5
160
  8
LAYER_1
 10
27.73877036295715
 20
49.3795353918193
 30
0.0
  0
SEQEND
  5
188
  8
LAYER_1
  0
POLYLINE
  5
82
  8
LAYER_1
 66
     1
 10
0.0
 20
0.0
 30
0.0
 70
     1
  0
VERTEX
  5
161
  8
LAYER_1
 10
29.2220836204519
 20
41.81754003005545
 30
0.0
  0
VERTEX
  5
162
  8
LAYER_1
 10
29.7543836204519
 20
41.81754003005545
 30
0.0
  0
VERTEX
  5
163
  8
LAYER_1
 10
29.7543836204519
 20
44.96754003005546
 30
0.0
  0
VERTEX
  5
164
  8
LAYER_1
 10
29.2220836204519
 20
44.96754003005546
 30
0.0
  0
SEQEND
  5
189
  8
LAYER_1
  0
POLYLINE
  5
83
  8
LAYER_1
 66
     1
 10
0.0
 20
0.0
 30
0.0
 70
     1
  0
VERTEX
  5
165
  8
LAYER_1
 10
29.23976488957839
 20
29.31394225576985
 30
0.0
  0
VERTEX
  5
166
  8
LAYER_1
 10
29.7720648895784
 20
29.31394225576985
 30
0.0
  0
VERTEX
  5
167
  8
LAYER_1
 10
29.7720648895784
 20
32.46394225576985
 30
0.0
  0
VERTEX
  5
168
  8
LAYER_1
 10
29.23976488957839
 20
32.46394225576985
 30
0.0
  0
SEQEND
  5
18A
  8
LAYER_1
  0
POLYLINE
  5
84
  8
LAYER_1
 66
     1
 10
0.0
 20
0.0
 30
0.0
 70
     1
  0
VERTEX
  5
169
  8
LAYER_1
 10
63.70547972839389
 20
41.81753427896211
 30
0.0
  0
VERTEX
  5
16A
  8
LAYER_1
 10
64.23777972839389
 20
41.81753427896211
 30
0.0
  0
VERTEX
  5
16B
  8
LAYER_1
 10
64.23777972839389
 20
44.96753427896211
 30
0.0
  0
VERTEX
  5
16C
  8
LAYER_1
 10
63.70547972839389
 20
44.96753427896211
 30
0.0
  0
SEQEND
  5
18B
  8
LAYER_1
  0
POLYLINE
  5
85
  8
LAYER_1
 66
     1
 10
0.0
 20
0.0
 30
0.0
 70
     1
  0
VERTEX
  5
16D
  8
LAYER_1
 10
63.7231609975204
 20
29.3139365046765
 30
0.0
  0
VERTEX
  5
16E
  8
LAYER_1
 10
64.2554609975204
 20
29.3139365046765
 30
0.0
  0
VERTEX
  5
16F
  8
LAYER_1
 10
64.2554609975204
 20
32.4639365046765
 30
0.0
  0
VERTEX
  5
170
  8
LAYER_1
 10
63.7231609975204
 20
32.4639365046765
 30
0.0
  0
SEQEND
  5
18C
  8
LAYER_1
  0
ENDSEC
  0
EOF
