  0
SECTION
  2
HEADER
  9
$ACADVER
  1
AC1009
  9
$DWGCODEPAGE
  3
ansi_1252
  9
$INSBASE
 10
0.0
 20
0.0
 30
0.0
  9
$EXTMIN
 10
-16.9706245819397
 20
-21.375819875129
 30
0.0
  9
$EXTMAX
 10
16.9706245819397
 20
21.375819875129
 30
0.0
  9
$LIMMIN
 10
0.0
 20
0.0
  9
$LIMMAX
 10
12.0
 20
9.0
  9
$ORTHOMODE
 70
     0
  9
$REGENMODE
 70
     1
  9
$FILLMODE
 70
     1
  9
$QTEXTMODE
 70
     0
  9
$MIRRTEXT
 70
     1
  9
$DRAGMODE
 70
     2
  9
$LTSCALE
 40
1.0
  9
$OSMODE
 70
    37
  9
$ATTMODE
 70
     1
  9
$TEXTSIZE
 40
0.2
  9
$TRACEWID
 40
0.05
  9
$TEXTSTYLE
  7
STANDARD
  9
$CLAYER
  8
0
  9
$CELTYPE
  6
BYLAYER
  9
$CECOLOR
 62
   256
  9
$DIMSCALE
 40
1.0
  9
$DIMASZ
 40
0.18
  9
$DIMEXO
 40
0.0625
  9
$DIMDLI
 40
0.38
  9
$DIMRND
 40
0.0
  9
$DIMDLE
 40
0.0
  9
$DIMEXE
 40
0.18
  9
$DIMTP
 40
0.0
  9
$DIMTM
 40
0.0
  9
$DIMTXT
 40
0.18
  9
$DIMCEN
 40
0.09
  9
$DIMTSZ
 40
0.0
  9
$DIMTOL
 70
     0
  9
$DIMLIM
 70
     0
  9
$DIMTIH
 70
     1
  9
$DIMTOH
 70
     1
  9
$DIMSE1
 70
     0
  9
$DIMSE2
 70
     0
  9
$DIMTAD
 70
     0
  9
$DIMZIN
 70
     0
  9
$DIMBLK
  1

  9
$DIMASO
 70
     1
  9
$DIMSHO
 70
     1
  9
$DIMPOST
  1

  9
$DIMAPOST
  1

  9
$DIMALT
 70
     0
  9
$DIMALTD
 70
     2
  9
$DIMALTF
 40
25.4
  9
$DIMLFAC
 40
1.0
  9
$DIMTOFL
 70
     0
  9
$DIMTVP
 40
0.0
  9
$DIMTIX
 70
     0
  9
$DIMSOXD
 70
     0
  9
$DIMSAH
 70
     0
  9
$DIMBLK1
  1

  9
$DIMBLK2
  1

  9
$DIMSTYLE
  2
STANDARD
  9
$DIMCLRD
 70
     0
  9
$DIMCLRE
 70
     0
  9
$DIMCLRT
 70
     0
  9
$DIMTFAC
 40
1.0
  9
$DIMGAP
 40
0.09
  9
$LUNITS
 70
     2
  9
$LUPREC
 70
     4
  9
$SKETCHINC
 40
0.1
  9
$FILLETRAD
 40
0.5
  9
$AUNITS
 70
     0
  9
$AUPREC
 70
     0
  9
$MENU
  1
.
  9
$ELEVATION
 40
0.0
  9
$PELEVATION
 40
0.0
  9
$THICKNESS
 40
0.0
  9
$LIMCHECK
 70
     0
  9
$CHAMFERA
 40
0.0
  9
$CHAMFERB
 40
0.0
  9
$SKPOLY
 70
     0
  9
$TDCREATE
 40
2454910.5
  9
$TDUPDATE
 40
2457068.828179641
  9
$TDINDWG
 40
0.0000000116
  9
$TDUSRTIMER
 40
0.0000000116
  9
$USRTIMER
 70
     1
  9
$ANGBASE
 50
0.0
  9
$ANGDIR
 70
     0
  9
$PDMODE
 70
     0
  9
$PDSIZE
 40
0.0
  9
$PLINEWID
 40
0.0
  9
$COORDS
 70
     1
  9
$SPLFRAME
 70
     0
  9
$SPLINETYPE
 70
     6
  9
$SPLINESEGS
 70
     8
  9
$ATTDIA
 70
     0
  9
$ATTREQ
 70
     1
  9
$HANDLING
 70
     1
  9
$HANDSEED
  5
193
  9
$SURFTAB1
 70
     6
  9
$SURFTAB2
 70
     6
  9
$SURFTYPE
 70
     6
  9
$SURFU
 70
     6
  9
$SURFV
 70
     6
  9
$UCSNAME
  2

  9
$UCSORG
 10
0.0
 20
0.0
 30
0.0
  9
$UCSXDIR
 10
1.0
 20
0.0
 30
0.0
  9
$UCSYDIR
 10
0.0
 20
1.0
 30
0.0
  9
$PUCSNAME
  2

  9
$PUCSORG
 10
0.0
 20
0.0
 30
0.0
  9
$PUCSXDIR
 10
1.0
 20
0.0
 30
0.0
  9
$PUCSYDIR
 10
0.0
 20
1.0
 30
0.0
  9
$USERI1
 70
     0
  9
$USERI2
 70
     0
  9
$USERI3
 70
     0
  9
$USERI4
 70
     0
  9
$USERI5
 70
     0
  9
$USERR1
 40
0.0
  9
$USERR2
 40
0.0
  9
$USERR3
 40
0.0
  9
$USERR4
 40
0.0
  9
$USERR5
 40
0.0
  9
$WORLDVIEW
 70
     1
  9
$SHADEDGE
 70
     3
  9
$SHADEDIF
 70
    70
  9
$TILEMODE
 70
     1
  9
$MAXACTVP
 70
    64
  9
$PLIMCHECK
 70
     0
  9
$PEXTMIN
 10
1.000000000000000E+20
 20
1.000000000000000E+20
 30
1.000000000000000E+20
  9
$PEXTMAX
 10
-1.000000000000000E+20
 20
-1.000000000000000E+20
 30
-1.000000000000000E+20
  9
$PLIMMIN
 10
0.0
 20
0.0
  9
$PLIMMAX
 10
12.0
 20
9.0
  9
$UNITMODE
 70
     0
  9
$VISRETAIN
 70
     1
  9
$PLINEGEN
 70
     0
  9
$PSLTSCALE
 70
     1
  0
ENDSEC
  0
SECTION
  2
TABLES
  0
TABLE
  2
VPORT
 70
     1
  0
VPORT
  2
*ACTIVE
 70
     0
 10
0.0
 20
0.0
 11
1.0
 21
1.0
 12
10.42990654205607
 22
4.5
 13
0.0
 23
0.0
 14
0.5
 24
0.5
 15
0.5
 25
0.5
 16
0.0
 26
0.0
 36
1.0
 17
0.0
 27
0.0
 37
0.0
 40
9.0
 41
1.972972972850329
 42
50.0
 43
0.0
 44
0.0
 50
0.0
 51
0.0
 71
     0
 72
   100
 73
     1
 74
     3
 75
     0
 76
     0
 77
     0
 78
     0
  0
ENDTAB
  0
TABLE
  2
LTYPE
 70
     2
  0
LTYPE
  2
CONTINUOUS
 70
     0
  3
Solid line
 72
    65
 73
     0
 40
0.0
  0
LTYPE
  2
CONTINUOUS2
 70
     0
  3
Solid Line
 72
    65
 73
     0
 40
0.0
  0
ENDTAB
  0
TABLE
  2
LAYER
 70
     2
  0
LAYER
  2
0
 70
     0
 62
     7
  6
CONTINUOUS
  0
LAYER
  2
LAYER_1
 70
     0
 62
    18
  6
CONTINUOUS
  0
ENDTAB
  0
TABLE
  2
STYLE
 70
     1
  0
STYLE
  2
STANDARD
 70
     0
 40
0.0
 41
1.0
 50
0.0
 71
     0
 42
0.2
  3
txt
  4

  0
ENDTAB
  0
TABLE
  2
VIEW
 70
     0
  0
ENDTAB
  0
TABLE
  2
UCS
 70
     0
  0
ENDTAB
  0
TABLE
  2
APPID
 70
     1
  0
APPID
  2
ACAD
 70
     0
  0
ENDTAB
  0
TABLE
  2
DIMSTYLE
 70
     1
  0
DIMSTYLE
  2
STANDARD
 70
     0
  3

  4

  5

  6

  7

 40
1.0
 41
0.18
 42
0.0625
 43
0.38
 44
0.18
 45
0.0
 46
0.0
 47
0.0
 48
0.0
140
0.18
141
0.09
142
0.0
143
25.4
144
1.0
145
0.0
146
1.0
147
0.09
 71
     0
 72
     0
 73
     1
 74
     1
 75
     0
 76
     0
 77
     0
 78
     0
170
     0
171
     2
172
     0
173
     0
174
     0
175
     0
176
     0
177
     0
178
     0
  0
ENDTAB
  0
ENDSEC
  0
SECTION
  2
BLOCKS
  0
BLOCK
  8
0
  2
$MODEL_SPACE
 70
     0
 10
0.0
 20
0.0
 30
0.0
  3
$MODEL_SPACE
  1

  0
ENDBLK
  5
21
  8
0
  0
BLOCK
 67
     1
  8
0
  2
$PAPER_SPACE
 70
     0
 10
0.0
 20
0.0
 30
0.0
  3
$PAPER_SPACE
  1

  0
ENDBLK
  5
1D
 67
     1
  8
0
  0
ENDSEC
  0
SECTION
  2
ENTITIES
  0
POLYLINE
  5
6C
  8
LAYER_1
 66
     1
 10
0.0
 20
0.0
 30
0.0
 70
     1
  0
VERTEX
  5
8D
  8
LAYER_1
 10
8.509861310911603
 20
4.800562093494486
 30
0.0
 42
-0.4142135623730951
  0
VERTEX
  5
8E
  8
LAYER_1
 10
3.712380931149553
 20
9.603069015312775
 30
0.0
 42
-0.4142135623730951
  0
VERTEX
  5
8F
  8
LAYER_1
 10
8.514887852967846
 20
14.40054939507484
 30
0.0
 42
-0.4142135623730951
  0
VERTEX
  5
90
  8
LAYER_1
 10
13.31236823272987
 20
9.59804247325655
 30
0.0
 42
-0.4142135623730951
  0
SEQEND
  5
179
  8
LAYER_1
  0
POLYLINE
  5
6D
  8
LAYER_1
 66
     1
 10
0.0
 20
0.0
 30
0.0
 70
     1
  0
VERTEX
  5
91
  8
LAYER_1
 10
7.019727579354196
 20
0.2895885235204219
 30
0.0
  0
VERTEX
  5
92
  8
LAYER_1
 10
7.018571976914487
 20
0.28783074289327
 30
0.0
  0
VERTEX
  5
93
  8
LAYER_1
 10
6.60076651348831
 20
0.7060739604251598
 30
0.0
  0
VERTEX
  5
94
  8
LAYER_1
 10
6.445121774645614
 20
0.5505921270896152
 30
0.0
  0
VERTEX
  5
95
  8
LAYER_1
 10
6.862927238071833
 20
0.1323489095577237
 30
0.0
 42
-0.3615798467573219
  0
VERTEX
  5
96
  8
LAYER_1
 10
6.09950706027854
 20
0.203242013881523
 30
0.0
 42
-0.4142135623730951
  0
VERTEX
  5
97
  8
LAYER_1
 10
6.099951348025272
 20
1.051769028913048
 30
0.0
 42
-0.0474841812128853
  0
VERTEX
  5
98
  8
LAYER_1
 10
6.187726345991379
 20
1.124029240551975
 30
0.0
  0
VERTEX
  5
99
  8
LAYER_1
 10
3.496283726820167
 20
3.823363350807014
 30
0.0
  0
VERTEX
  5
9A
  8
LAYER_1
 10
3.495690694837464
 20
3.822461293062364
 30
0.0
  0
VERTEX
  5
9B
  8
LAYER_1
 10
3.077885231411258
 20
4.240704510594258
 30
0.0
  0
VERTEX
  5
9C
  8
LAYER_1
 10
2.922240492568577
 20
4.085222677258711
 30
0.0
  0
VERTEX
  5
9D
  8
LAYER_1
 10
3.340045955994782
 20
3.666979459726825
 30
0.0
 42
-0.3615798467573219
  0
VERTEX
  5
9E
  8
LAYER_1
 10
2.576625778201517
 20
3.737872564050617
 30
0.0
 42
-0.4142135623730951
  0
VERTEX
  5
9F
  8
LAYER_1
 10
2.577070065948206
 20
4.586399579082149
 30
0.0
 42
-0.0457775530627987
  0
VERTEX
  5
A0
  8
LAYER_1
 10
2.664000776928248
 20
4.658086610379495
 30
0.0
  0
VERTEX
  5
A1
  8
LAYER_1
 10
0.7631392135191533
 20
6.564521627954889
 30
0.0
  0
VERTEX
  5
A2
  8
LAYER_1
 10
0.7638948893148125
 20
8.007755955057828
 30
0.0
  0
VERTEX
  5
A3
  8
LAYER_1
 10
0.7638148807397869
 20
8.007739417782238
 30
0.0
  0
VERTEX
  5
A4
  8
LAYER_1
 10
0.764124419636417
 20
8.598915109489775
 30
0.0
  0
VERTEX
  5
A5
  8
LAYER_1
 10
0.5441247106418672
 20
8.599030301078562
 30
0.0
  0
VERTEX
  5
A6
  8
LAYER_1
 10
0.5438151717452371
 20
8.00785460937103
 30
0.0
 42
-0.3615798467573219
  0
VERTEX
  5
A7
  8
LAYER_1
 10
0.0541245819397034
 20
8.597803188790007
 30
0.0
 42
-0.4142135623730951
  0
VERTEX
  5
A8
  8
LAYER_1
 10
0.6544379471669828
 20
9.197488236260272
 30
0.0
 42
-0.0457775530627719
  0
VERTEX
  5
A9
  8
LAYER_1
 10
0.764512396737075
 20
9.187108151096124
 30
0.0
  0
VERTEX
  5
AA
  8
LAYER_1
 10
0.7665128799690848
 20
13.00774934129758
 30
0.0
  0
VERTEX
  5
AB
  8
LAYER_1
 10
0.7664328713940876
 20
13.00773280402199
 30
0.0
  0
VERTEX
  5
AC
  8
LAYER_1
 10
0.7667424102907177
 20
13.59890849572953
 30
0.0
  0
VERTEX
  5
AD
  8
LAYER_1
 10
0.5467427012961537
 20
13.59902368731832
 30
0.0
  0
VERTEX
  5
AE
  8
LAYER_1
 10
0.5464331623995236
 20
13.00784799561079
 30
0.0
 42
-0.3615798467573219
  0
VERTEX
  5
AF
  8
LAYER_1
 10
0.0567425725939898
 20
13.59779657502978
 30
0.0
 42
-0.4142135623730951
  0
VERTEX
  5
B0
  8
LAYER_1
 10
0.6570559378212835
 20
14.19748162250003
 30
0.0
 42
-0.0457775530628267
  0
VERTEX
  5
B1
  8
LAYER_1
 10
0.7671303873913757
 20
14.18710153733588
 30
0.0
  0
VERTEX
  5
B2
  8
LAYER_1
 10
0.7678715280122219
 20
15.60257572797187
 30
0.0
  0
VERTEX
  5
B3
  8
LAYER_1
 10
16.26167855661279
 20
15.59446318884099
 30
0.0
  0
VERTEX
  5
B4
  8
LAYER_1
 10
16.26093742429437
 20
14.17900485468983
 30
0.0
 42
-0.0457775530629031
  0
VERTEX
  5
B5
  8
LAYER_1
 10
16.37093953446946
 20
14.18925385153705
 30
0.0
 42
-0.4142135623730951
  0
VERTEX
  5
B6
  8
LAYER_1
 10
16.9706245819397
 20
13.58894048630976
 30
0.0
 42
-0.3615798467573405
  0
VERTEX
  5
B7
  8
LAYER_1
 10
16.48031646804226
 20
12.99950503305901
 30
0.0
  0
VERTEX
  5
B8
  8
LAYER_1
 10
16.48062600693889
 20
13.59068072476655
 30
0.0
  0
VERTEX
  5
B9
  8
LAYER_1
 10
16.26062943878546
 20
13.59079591471079
 30
0.0
  0
VERTEX
  5
BA
  8
LAYER_1
 10
16.25831943364008
 20
9.179011468450058
 30
0.0
 42
-0.0457775530627911
  0
VERTEX
  5
BB
  8
LAYER_1
 10
16.36832154381517
 20
9.189260465297279
 30
0.0
 42
-0.4142135623730951
  0
VERTEX
  5
BC
  8
LAYER_1
 10
16.96800659128543
 20
8.588947100070005
 30
0.0
 42
-0.3615798467573405
  0
VERTEX
  5
BD
  8
LAYER_1
 10
16.47769847738797
 20
7.999511646819238
 30
0.0
  0
VERTEX
  5
BE
  8
LAYER_1
 10
16.4780080162846
 20
8.590687338526775
 30
0.0
  0
VERTEX
  5
BF
  8
LAYER_1
 10
16.25801144813117
 20
8.590802528471022
 30
0.0
  0
VERTEX
  5
C0
  8
LAYER_1
 10
16.25694624211974
 20
6.556409088823978
 30
0.0
  0
VERTEX
  5
C1
  8
LAYER_1
 10
14.36055392046704
 20
4.658221562873502
 30
0.0
 42
-0.047282307460283
  0
VERTEX
  5
C2
  8
LAYER_1
 10
14.44789136258522
 20
4.586187067303745
 30
0.0
 42
-0.4142135623730951
  0
VERTEX
  5
C3
  8
LAYER_1
 10
14.44789136258522
 20
3.737659935957955
 30
0.0
 42
-0.3615798467573219
  0
VERTEX
  5
C4
  8
LAYER_1
 10
13.68443416989901
 20
3.667166567204125
 30
0.0
  0
VERTEX
  5
C5
  8
LAYER_1
 10
14.10245856767993
 20
4.085190964985053
 30
0.0
  0
VERTEX
  5
C6
  8
LAYER_1
 10
13.94689526026653
 20
4.240754272398446
 30
0.0
  0
VERTEX
  5
C7
  8
LAYER_1
 10
13.52887086248562
 20
3.822729874617522
 30
0.0
  0
VERTEX
  5
C8
  8
LAYER_1
 10
13.52767371888652
 20
3.824552922054766
 30
0.0
  0
VERTEX
  5
C9
  8
LAYER_1
 10
10.8270156804749
 20
1.121338327775423
 30
0.0
 42
-0.0457775530627254
  0
VERTEX
  5
CA
  8
LAYER_1
 10
10.91236164864445
 20
1.050657353362956
 30
0.0
 42
-0.4142135623730951
  0
VERTEX
  5
CB
  8
LAYER_1
 10
10.91236164864445
 20
0.2021302220171695
 30
0.0
 42
-0.3615798467573219
  0
VERTEX
  5
CC
  8
LAYER_1
 10
10.14890445595822
 20
0.1316368532633394
 30
0.0
  0
VERTEX
  5
CD
  8
LAYER_1
 10
10.56692885373914
 20
0.5496612510442649
 30
0.0
  0
VERTEX
  5
CE
  8
LAYER_1
 10
10.41136554632574
 20
0.7052245584576564
 30
0.0
  0
VERTEX
  5
CF
  8
LAYER_1
 10
10.33724737115628
 20
0.6311063832881825
 30
0.0
  0
VERTEX
  5
D0
  8
LAYER_1
 10
8.506415581658189
 20
-1.201458548165556
 30
0.0
  0
SEQEND
  5
17A
  8
LAYER_1
  0
POLYLINE
  5
6E
  8
LAYER_1
 66
     1
 10
0.0
 20
0.0
 30
0.0
 70
     1
  0
VERTEX
  5
D1
  8
LAYER_1
 10
-4.342294171670076
 20
13.4722834757112
 30
0.0
  0
VERTEX
  5
D2
  8
LAYER_1
 10
-5.153418532848534
 20
15.11580094377339
 30
0.0
  0
VERTEX
  5
D3
  8
LAYER_1
 10
-5.964542894026991
 20
13.4722834757112
 30
0.0
  0
VERTEX
  5
D4
  8
LAYER_1
 10
-7.778272103828115
 20
13.20873319466999
 30
0.0
  0
VERTEX
  5
D5
  8
LAYER_1
 10
-6.465845318338324
 20
11.92943325726217
 30
0.0
  0
VERTEX
  5
D6
  8
LAYER_1
 10
-6.775667255205448
 20
10.12303275777193
 30
0.0
  0
VERTEX
  5
D7
  8
LAYER_1
 10
-5.153418532848534
 20
10.97589938271047
 30
0.0
  0
VERTEX
  5
D8
  8
LAYER_1
 10
-3.531169810491626
 20
10.12303275777193
 30
0.0
  0
VERTEX
  5
D9
  8
LAYER_1
 10
-3.84099174735875
 20
11.92943325726217
 30
0.0
  0
VERTEX
  5
DA
  8
LAYER_1
 10
-2.528564961868959
 20
13.20873319466999
 30
0.0
  0
SEQEND
  5
17B
  8
LAYER_1
  0
POLYLINE
  5
6F
  8
LAYER_1
 66
     1
 10
0.0
 20
0.0
 30
0.0
 70
     1
  0
VERTEX
  5
DB
  8
LAYER_1
 10
-7.019727579354196
 20
19.88477280344303
 30
0.0
  0
VERTEX
  5
DC
  8
LAYER_1
 10
-7.018571976914487
 20
19.88653058407018
 30
0.0
  0
VERTEX
  5
DD
  8
LAYER_1
 10
-6.60076651348831
 20
19.46828736653828
 30
0.0
  0
VERTEX
  5
DE
  8
LAYER_1
 10
-6.445121774645614
 20
19.62376919987383
 30
0.0
  0
VERTEX
  5
DF
  8
LAYER_1
 10
-6.862927238071833
 20
20.04201241740572
 30
0.0
 42
-0.3615798467573219
  0
VERTEX
  5
E0
  8
LAYER_1
 10
-6.09950706027854
 20
19.97111931308192
 30
0.0
 42
-0.4142135623730951
  0
VERTEX
  5
E1
  8
LAYER_1
 10
-6.099951348025272
 20
19.1225922980504
 30
0.0
 42
-0.0474841812128853
  0
VERTEX
  5
E2
  8
LAYER_1
 10
-6.187726345991379
 20
19.05033208641147
 30
0.0
  0
VERTEX
  5
E3
  8
LAYER_1
 10
-3.496283726820167
 20
16.35099797615644
 30
0.0
  0
VERTEX
  5
E4
  8
LAYER_1
 10
-3.495690694837464
 20
16.35190003390108
 30
0.0
  0
VERTEX
  5
E5
  8
LAYER_1
 10
-3.077885231411258
 20
15.93365681636919
 30
0.0
  0
VERTEX
  5
E6
  8
LAYER_1
 10
-2.922240492568577
 20
16.08913864970474
 30
0.0
  0
VERTEX
  5
E7
  8
LAYER_1
 10
-3.340045955994782
 20
16.50738186723662
 30
0.0
 42
-0.3615798467573219
  0
VERTEX
  5
E8
  8
LAYER_1
 10
-2.576625778201517
 20
16.43648876291283
 30
0.0
 42
-0.4142135623730951
  0
VERTEX
  5
E9
  8
LAYER_1
 10
-2.577070065948206
 20
15.5879617478813
 30
0.0
 42
-0.0457775530627987
  0
VERTEX
  5
EA
  8
LAYER_1
 10
-2.664000776928248
 20
15.51627471658395
 30
0.0
  0
VERTEX
  5
EB
  8
LAYER_1
 10
-0.7631392135191533
 20
13.60983969900856
 30
0.0
  0
VERTEX
  5
EC
  8
LAYER_1
 10
-0.7638948893148125
 20
12.16660537190562
 30
0.0
  0
VERTEX
  5
ED
  8
LAYER_1
 10
-0.7638148807397869
 20
12.16662190918121
 30
0.0
  0
VERTEX
  5
EE
  8
LAYER_1
 10
-0.764124419636417
 20
11.57544621747367
 30
0.0
  0
VERTEX
  5
EF
  8
LAYER_1
 10
-0.5441247106418672
 20
11.57533102588489
 30
0.0
  0
VERTEX
  5
F0
  8
LAYER_1
 10
-0.5438151717452371
 20
12.16650671759242
 30
0.0
 42
-0.3615798467573219
  0
VERTEX
  5
F1
  8
LAYER_1
 10
-0.0541245819397034
 20
11.57655813817344
 30
0.0
 42
-0.4142135623730951
  0
VERTEX
  5
F2
  8
LAYER_1
 10
-0.6544379471669828
 20
10.97687309070318
 30
0.0
 42
-0.0457775530627719
  0
VERTEX
  5
F3
  8
LAYER_1
 10
-0.764512396737075
 20
10.98725317586732
 30
0.0
  0
VERTEX
  5
F4
  8
LAYER_1
 10
-0.7665128799690848
 20
7.166611985665869
 30
0.0
  0
VERTEX
  5
F5
  8
LAYER_1
 10
-0.7664328713940876
 20
7.166628522941458
 30
0.0
  0
VERTEX
  5
F6
  8
LAYER_1
 10
-0.7667424102907177
 20
6.575452831233918
 30
0.0
  0
VERTEX
  5
F7
  8
LAYER_1
 10
-0.5467427012961537
 20
6.57533763964513
 30
0.0
  0
VERTEX
  5
F8
  8
LAYER_1
 10
-0.5464331623995236
 20
7.166513331352662
 30
0.0
 42
-0.3615798467573219
  0
VERTEX
  5
F9
  8
LAYER_1
 10
-0.0567425725939898
 20
6.576564751933669
 30
0.0
 42
-0.4142135623730951
  0
VERTEX
  5
FA
  8
LAYER_1
 10
-0.6570559378212835
 20
5.976879704463419
 30
0.0
 42
-0.0457775530628267
  0
VERTEX
  5
FB
  8
LAYER_1
 10
-0.7671303873913757
 20
5.987259789627565
 30
0.0
  0
VERTEX
  5
FC
  8
LAYER_1
 10
-0.7678715280122219
 20
4.571785598991573
 30
0.0
  0
VERTEX
  5
FD
  8
LAYER_1
 10
-16.26167855661278
 20
4.579898138122457
 30
0.0
  0
VERTEX
  5
FE
  8
LAYER_1
 10
-16.26093742429437
 20
5.995356472273614
 30
0.0
 42
-0.0457775530629031
  0
VERTEX
  5
FF
  8
LAYER_1
 10
-16.37093953446946
 20
5.985107475426394
 30
0.0
 42
-0.4142135623730951
  0
VERTEX
  5
100
  8
LAYER_1
 10
-16.9706245819397
 20
6.585420840653682
 30
0.0
 42
-0.3615798467573405
  0
VERTEX
  5
101
  8
LAYER_1
 10
-16.48031646804226
 20
7.174856293904434
 30
0.0
  0
VERTEX
  5
102
  8
LAYER_1
 10
-16.48062600693889
 20
6.583680602196897
 30
0.0
  0
VERTEX
  5
103
  8
LAYER_1
 10
-16.26062943878546
 20
6.583565412252652
 30
0.0
  0
VERTEX
  5
104
  8
LAYER_1
 10
-16.25831943364008
 20
10.99534985851339
 30
0.0
 42
-0.0457775530627911
  0
VERTEX
  5
105
  8
LAYER_1
 10
-16.36832154381517
 20
10.98510086166617
 30
0.0
 42
-0.4142135623730951
  0
VERTEX
  5
106
  8
LAYER_1
 10
-16.96800659128543
 20
11.58541422689344
 30
0.0
 42
-0.3615798467573405
  0
VERTEX
  5
107
  8
LAYER_1
 10
-16.47769847738797
 20
12.17484968014421
 30
0.0
  0
VERTEX
  5
108
  8
LAYER_1
 10
-16.4780080162846
 20
11.58367398843667
 30
0.0
  0
VERTEX
  5
109
  8
LAYER_1
 10
-16.25801144813117
 20
11.58355879849242
 30
0.0
  0
VERTEX
  5
10A
  8
LAYER_1
 10
-16.25694624211974
 20
13.61795223813947
 30
0.0
  0
VERTEX
  5
10B
  8
LAYER_1
 10
-14.36055392046704
 20
15.51613976408994
 30
0.0
 42
-0.047282307460283
  0
VERTEX
  5
10C
  8
LAYER_1
 10
-14.44789136258522
 20
15.5881742596597
 30
0.0
 42
-0.4142135623730951
  0
VERTEX
  5
10D
  8
LAYER_1
 10
-14.44789136258522
 20
16.43670139100549
 30
0.0
 42
-0.3615798467573219
  0
VERTEX
  5
10E
  8
LAYER_1
 10
-13.68443416989901
 20
16.50719475975932
 30
0.0
  0
VERTEX
  5
10F
  8
LAYER_1
 10
-14.10245856767993
 20
16.08917036197839
 30
0.0
  0
VERTEX
  5
110
  8
LAYER_1
 10
-13.94689526026653
 20
15.933607054565
 30
0.0
  0
VERTEX
  5
111
  8
LAYER_1
 10
-13.52887086248562
 20
16.35163145234592
 30
0.0
  0
VERTEX
  5
112
  8
LAYER_1
 10
-13.52767371888652
 20
16.34980840490868
 30
0.0
  0
VERTEX
  5
113
  8
LAYER_1
 10
-10.8270156804749
 20
19.05302299918802
 30
0.0
 42
-0.0457775530627254
  0
VERTEX
  5
114
  8
LAYER_1
 10
-10.91236164864445
 20
19.12370397360049
 30
0.0
 42
-0.4142135623730951
  0
VERTEX
  5
115
  8
LAYER_1
 10
-10.91236164864445
 20
19.97223110494627
 30
0.0
 42
-0.3615798467573219
  0
VERTEX
  5
116
  8
LAYER_1
 10
-10.14890445595822
 20
20.0427244737001
 30
0.0
  0
VERTEX
  5
117
  8
LAYER_1
 10
-10.56692885373914
 20
19.62470007591918
 30
0.0
  0
VERTEX
  5
118
  8
LAYER_1
 10
-10.41136554632574
 20
19.46913676850579
 30
0.0
  0
VERTEX
  5
119
  8
LAYER_1
 10
-10.33724737115628
 20
19.54325494367527
 30
0.0
  0
VERTEX
  5
11A
  8
LAYER_1
 10
-8.506415581658189
 20
21.375819875129
 30
0.0
  0
SEQEND
  5
17C
  8
LAYER_1
  0
POLYLINE
  5
70
  8
LAYER_1
 66
     1
 10
0.0
 20
0.0
 30
0.0
 70
     1
  0
VERTEX
  5
11B
  8
LAYER_1
 10
6.147748622301243
 20
-4.355121728561632
 30
0.0
 42
0.4142135623730951
  0
VERTEX
  5
11C
  8
LAYER_1
 10
3.747751467919734
 20
-6.755118882943134
 30
0.0
 42
0.4142135623730951
  0
VERTEX
  5
11D
  8
LAYER_1
 10
6.147748622301243
 20
-9.155116037324643
 30
0.0
 42
0.4142135623730951
  0
VERTEX
  5
11E
  8
LAYER_1
 10
8.547745776682724
 20
-6.755118882943134
 30
0.0
 42
0.4142135623730951
  0
SEQEND
  5
17D
  8
LAYER_1
  0
POLYLINE
  5
71
  8
LAYER_1
 66
     1
 10
0.0
 20
0.0
 30
0.0
 70
     1
  0
VERTEX
  5
11F
  8
LAYER_1
 10
0.9477547878079875
 20
-11.15511366597589
 30
0.0
  0
VERTEX
  5
120
  8
LAYER_1
 10
16.1477367655575
 20
-11.15511366597589
 30
0.0
  0
VERTEX
  5
121
  8
LAYER_1
 10
16.1477367655575
 20
-2.355124099910381
 30
0.0
  0
VERTEX
  5
122
  8
LAYER_1
 10
0.9477547878079875
 20
-2.355124099910381
 30
0.0
  0
SEQEND
  5
17E
  8
LAYER_1
  0
POLYLINE
  5
72
  8
LAYER_1
 66
     1
 10
0.0
 20
0.0
 30
0.0
 70
     1
  0
VERTEX
  5
123
  8
LAYER_1
 10
1.541075641145021
 20
-5.34991913890286
 30
0.0
  0
VERTEX
  5
124
  8
LAYER_1
 10
1.754002881031731
 20
-5.34991913890286
 30
0.0
  0
VERTEX
  5
125
  8
LAYER_1
 10
1.754002881031731
 20
-4.149919671427409
 30
0.0
  0
VERTEX
  5
126
  8
LAYER_1
 10
1.541075641145021
 20
-4.149919671427409
 30
0.0
  0
SEQEND
  5
17F
  8
LAYER_1
  0
POLYLINE
  5
73
  8
LAYER_1
 66
     1
 10
0.0
 20
0.0
 30
0.0
 70
     1
  0
VERTEX
  5
127
  8
LAYER_1
 10
1.548148140409928
 20
-10.35135231853891
 30
0.0
  0
VERTEX
  5
128
  8
LAYER_1
 10
1.761075380296653
 20
-10.35135231853891
 30
0.0
  0
VERTEX
  5
129
  8
LAYER_1
 10
1.761075380296653
 20
-9.15135285106346
 30
0.0
  0
VERTEX
  5
12A
  8
LAYER_1
 10
1.548148140409928
 20
-9.15135285106346
 30
0.0
  0
SEQEND
  5
180
  8
LAYER_1
  0
POLYLINE
  5
74
  8
LAYER_1
 66
     1
 10
0.0
 20
0.0
 30
0.0
 70
     1
  0
VERTEX
  5
12B
  8
LAYER_1
 10
15.33444590710693
 20
-5.349902026862834
 30
0.0
  0
VERTEX
  5
12C
  8
LAYER_1
 10
15.54737314699364
 20
-5.349902026862834
 30
0.0
  0
VERTEX
  5
12D
  8
LAYER_1
 10
15.54737314699364
 20
-4.149902559387384
 30
0.0
  0
VERTEX
  5
12E
  8
LAYER_1
 10
15.33444590710693
 20
-4.149902559387384
 30
0.0
  0
SEQEND
  5
181
  8
LAYER_1
  0
POLYLINE
  5
75
  8
LAYER_1
 66
     1
 10
0.0
 20
0.0
 30
0.0
 70
     1
  0
VERTEX
  5
12F
  8
LAYER_1
 10
15.34151840637183
 20
-10.35133520649889
 30
0.0
  0
VERTEX
  5
130
  8
LAYER_1
 10
15.55444564625856
 20
-10.35133520649889
 30
0.0
  0
VERTEX
  5
131
  8
LAYER_1
 10
15.55444564625856
 20
-9.151335739023436
 30
0.0
  0
VERTEX
  5
132
  8
LAYER_1
 10
15.34151840637183
 20
-9.151335739023436
 30
0.0
  0
SEQEND
  5
182
  8
LAYER_1
  0
POLYLINE
  5
76
  8
LAYER_1
 66
     1
 10
0.0
 20
0.0
 30
0.0
 70
     1
  0
VERTEX
  5
133
  8
LAYER_1
 10
11.02759033909098
 20
-19.15619045204036
 30
0.0
 42
0.4142135623730951
  0
VERTEX
  5
134
  8
LAYER_1
 10
13.42758749347249
 20
-16.75619329765886
 30
0.0
 42
0.4142135623730951
  0
VERTEX
  5
135
  8
LAYER_1
 10
11.02759033909098
 20
-14.35619614327735
 30
0.0
 42
0.4142135623730951
  0
VERTEX
  5
136
  8
LAYER_1
 10
8.627593184709504
 20
-16.75619329765886
 30
0.0
 42
0.4142135623730951
  0
SEQEND
  5
183
  8
LAYER_1
  0
POLYLINE
  5
77
  8
LAYER_1
 66
     1
 10
0.0
 20
0.0
 30
0.0
 70
     1
  0
VERTEX
  5
137
  8
LAYER_1
 10
16.22758417358424
 20
-12.3561985146261
 30
0.0
  0
VERTEX
  5
138
  8
LAYER_1
 10
1.027602195834724
 20
-12.3561985146261
 30
0.0
  0
VERTEX
  5
139
  8
LAYER_1
 10
1.027602195834724
 20
-21.15618808069161
 30
0.0
  0
VERTEX
  5
13A
  8
LAYER_1
 10
16.22758417358424
 20
-21.15618808069161
 30
0.0
  0
SEQEND
  5
184
  8
LAYER_1
  0
POLYLINE
  5
78
  8
LAYER_1
 66
     1
 10
0.0
 20
0.0
 30
0.0
 70
     1
  0
VERTEX
  5
13B
  8
LAYER_1
 10
15.63426332024721
 20
-18.16139304169913
 30
0.0
  0
VERTEX
  5
13C
  8
LAYER_1
 10
15.4213360803605
 20
-18.16139304169913
 30
0.0
  0
VERTEX
  5
13D
  8
LAYER_1
 10
15.4213360803605
 20
-19.36139250917458
 30
0.0
  0
VERTEX
  5
13E
  8
LAYER_1
 10
15.63426332024721
 20
-19.36139250917458
 30
0.0
  0
SEQEND
  5
185
  8
LAYER_1
  0
POLYLINE
  5
79
  8
LAYER_1
 66
     1
 10
0.0
 20
0.0
 30
0.0
 70
     1
  0
VERTEX
  5
13F
  8
LAYER_1
 10
15.6271908209823
 20
-13.15995986206307
 30
0.0
  0
VERTEX
  5
140
  8
LAYER_1
 10
15.41426358109558
 20
-13.15995986206307
 30
0.0
  0
VERTEX
  5
141
  8
LAYER_1
 10
15.41426358109558
 20
-14.35995932953853
 30
0.0
  0
VERTEX
  5
142
  8
LAYER_1
 10
15.6271908209823
 20
-14.35995932953853
 30
0.0
  0
SEQEND
  5
186
  8
LAYER_1
  0
POLYLINE
  5
7A
  8
LAYER_1
 66
     1
 10
0.0
 20
0.0
 30
0.0
 70
     1
  0
VERTEX
  5
143
  8
LAYER_1
 10
1.840893054285296
 20
-18.16141015373916
 30
0.0
  0
VERTEX
  5
144
  8
LAYER_1
 10
1.627965814398586
 20
-18.16141015373916
 30
0.0
  0
VERTEX
  5
145
  8
LAYER_1
 10
1.627965814398586
 20
-19.36140962121461
 30
0.0
  0
VERTEX
  5
146
  8
LAYER_1
 10
1.840893054285296
 20
-19.36140962121461
 30
0.0
  0
SEQEND
  5
187
  8
LAYER_1
  0
POLYLINE
  5
7B
  8
LAYER_1
 66
     1
 10
0.0
 20
0.0
 30
0.0
 70
     1
  0
VERTEX
  5
147
  8
LAYER_1
 10
1.833820555020402
 20
-13.1599769741031
 30
0.0
  0
VERTEX
  5
148
  8
LAYER_1
 10
1.620893315133664
 20
-13.1599769741031
 30
0.0
  0
VERTEX
  5
149
  8
LAYER_1
 10
1.620893315133664
 20
-14.35997644157855
 30
0.0
  0
VERTEX
  5
14A
  8
LAYER_1
 10
1.833820555020402
 20
-14.35997644157855
 30
0.0
  0
SEQEND
  5
188
  8
LAYER_1
  0
POLYLINE
  5
7C
  8
LAYER_1
 66
     1
 10
0.0
 20
0.0
 30
0.0
 70
     1
  0
VERTEX
  5
14B
  8
LAYER_1
 10
-0.9123835930649591
 20
-8.54792927932808
 30
0.0
  0
VERTEX
  5
14C
  8
LAYER_1
 10
-0.9123835930649591
 20
2.252057915388683
 30
0.0
 42
0.4142135623730946
  0
VERTEX
  5
14D
  8
LAYER_1
 10
-2.1123821702557
 20
3.452056492579437
 30
0.0
  0
VERTEX
  5
14E
  8
LAYER_1
 10
-14.91236699362372
 20
3.452056492579441
 30
0.0
 42
0.4142135623730946
  0
VERTEX
  5
14F
  8
LAYER_1
 10
-16.11236557081446
 20
2.252057915388686
 30
0.0
  0
VERTEX
  5
150
  8
LAYER_1
 10
-16.11236557081446
 20
-8.547929279328079
 30
0.0
  0
SEQEND
  5
189
  8
LAYER_1
  0
POLYLINE
  5
7D
  8
LAYER_1
 66
     1
 10
0.0
 20
0.0
 30
0.0
 70
     1
  0
VERTEX
  5
151
  8
LAYER_1
 10
-1.723632710304415
 20
-0.861062438159605
 30
0.0
  0
VERTEX
  5
152
  8
LAYER_1
 10
-1.506349187102956
 20
-0.861062438159605
 30
0.0
  0
VERTEX
  5
153
  8
LAYER_1
 10
-1.506349187102956
 20
0.338937267185786
 30
0.0
  0
VERTEX
  5
154
  8
LAYER_1
 10
-1.723632710304415
 20
0.338937267185786
 30
0.0
  0
SEQEND
  5
18A
  8
LAYER_1
  0
POLYLINE
  5
7E
  8
LAYER_1
 66
     1
 10
0.0
 20
0.0
 30
0.0
 70
     1
  0
VERTEX
  5
155
  8
LAYER_1
 10
-1.720916494354242
 20
-5.865615376226414
 30
0.0
  0
VERTEX
  5
156
  8
LAYER_1
 10
-1.503632971152783
 20
-5.865615376226417
 30
0.0
  0
VERTEX
  5
157
  8
LAYER_1
 10
-1.503632971152783
 20
-4.665615670881023
 30
0.0
  0
VERTEX
  5
158
  8
LAYER_1
 10
-1.720916494354256
 20
-4.665615670881023
 30
0.0
  0
SEQEND
  5
18B
  8
LAYER_1
  0
POLYLINE
  5
7F
  8
LAYER_1
 66
     1
 10
0.0
 20
0.0
 30
0.0
 70
     1
  0
VERTEX
  5
159
  8
LAYER_1
 10
-15.52111619272665
 20
-0.8610624381596015
 30
0.0
  0
VERTEX
  5
15A
  8
LAYER_1
 10
-15.30383266952518
 20
-0.8610624381596015
 30
0.0
  0
VERTEX
  5
15B
  8
LAYER_1
 10
-15.30383266952518
 20
0.3389372671857895
 30
0.0
  0
VERTEX
  5
15C
  8
LAYER_1
 10
-15.52111619272665
 20
0.3389372671857895
 30
0.0
  0
SEQEND
  5
18C
  8
LAYER_1
  0
POLYLINE
  5
80
  8
LAYER_1
 66
     1
 10
0.0
 20
0.0
 30
0.0
 70
     1
  0
VERTEX
  5
15D
  8
LAYER_1
 10
-15.51839997677646
 20
-5.865615376226412
 30
0.0
  0
VERTEX
  5
15E
  8
LAYER_1
 10
-15.30111645357502
 20
-5.865615376226415
 30
0.0
  0
VERTEX
  5
15F
  8
LAYER_1
 10
-15.30111645357502
 20
-4.665615670881021
 30
0.0
  0
VERTEX
  5
160
  8
LAYER_1
 10
-15.51839997677646
 20
-4.665615670881021
 30
0.0
  0
SEQEND
  5
18D
  8
LAYER_1
  0
POLYLINE
  5
81
  8
LAYER_1
 66
     1
 10
0.0
 20
0.0
 30
0.0
 70
     1
  0
VERTEX
  5
161
  8
LAYER_1
 10
-16.17437200929567
 20
-9.37583410322148
 30
0.0
  0
VERTEX
  5
162
  8
LAYER_1
 10
-16.17437200929567
 20
-20.17582129793825
 30
0.0
 42
0.4142135623730946
  0
VERTEX
  5
163
  8
LAYER_1
 10
-14.97437343210493
 20
-21.375819875129
 30
0.0
  0
VERTEX
  5
164
  8
LAYER_1
 10
-2.174388608736905
 20
-21.375819875129
 30
0.0
 42
0.4142135623730946
  0
VERTEX
  5
165
  8
LAYER_1
 10
-0.9743900315461644
 20
-20.17582129793825
 30
0.0
  0
VERTEX
  5
166
  8
LAYER_1
 10
-0.9743900315461644
 20
-9.37583410322148
 30
0.0
  0
SEQEND
  5
18E
  8
LAYER_1
  0
POLYLINE
  5
82
  8
LAYER_1
 66
     1
 10
0.0
 20
0.0
 30
0.0
 70
     1
  0
VERTEX
  5
167
  8
LAYER_1
 10
-15.36312289205621
 20
-17.06270094438996
 30
0.0
  0
VERTEX
  5
168
  8
LAYER_1
 10
-15.58040641525767
 20
-17.06270094438996
 30
0.0
  0
VERTEX
  5
169
  8
LAYER_1
 10
-15.58040641525767
 20
-18.26270064973535
 30
0.0
  0
VERTEX
  5
16A
  8
LAYER_1
 10
-15.36312289205621
 20
-18.26270064973535
 30
0.0
  0
SEQEND
  5
18F
  8
LAYER_1
  0
POLYLINE
  5
83
  8
LAYER_1
 66
     1
 10
0.0
 20
0.0
 30
0.0
 70
     1
  0
VERTEX
  5
16B
  8
LAYER_1
 10
-15.36583910800638
 20
-12.05814800632315
 30
0.0
  0
VERTEX
  5
16C
  8
LAYER_1
 10
-15.58312263120784
 20
-12.05814800632314
 30
0.0
  0
VERTEX
  5
16D
  8
LAYER_1
 10
-15.58312263120784
 20
-13.25814771166854
 30
0.0
  0
VERTEX
  5
16E
  8
LAYER_1
 10
-15.36583910800637
 20
-13.25814771166854
 30
0.0
  0
SEQEND
  5
190
  8
LAYER_1
  0
POLYLINE
  5
84
  8
LAYER_1
 66
     1
 10
0.0
 20
0.0
 30
0.0
 70
     1
  0
VERTEX
  5
16F
  8
LAYER_1
 10
-1.565639409633974
 20
-17.06270094438996
 30
0.0
  0
VERTEX
  5
170
  8
LAYER_1
 10
-1.782922932835447
 20
-17.06270094438996
 30
0.0
  0
VERTEX
  5
171
  8
LAYER_1
 10
-1.782922932835447
 20
-18.26270064973535
 30
0.0
  0
VERTEX
  5
172
  8
LAYER_1
 10
-1.565639409633974
 20
-18.26270064973535
 30
0.0
  0
SEQEND
  5
191
  8
LAYER_1
  0
POLYLINE
  5
85
  8
LAYER_1
 66
     1
 10
0.0
 20
0.0
 30
0.0
 70
     1
  0
VERTEX
  5
173
  8
LAYER_1
 10
-1.568355625584161
 20
-12.05814800632315
 30
0.0
  0
VERTEX
  5
174
  8
LAYER_1
 10
-1.785639148785606
 20
-12.05814800632314
 30
0.0
  0
VERTEX
  5
175
  8
LAYER_1
 10
-1.785639148785606
 20
-13.25814771166854
 30
0.0
  0
VERTEX
  5
176
  8
LAYER_1
 10
-1.568355625584161
 20
-13.25814771166854
 30
0.0
  0
SEQEND
  5
192
  8
LAYER_1
  0
ENDSEC
  0
EOF
