  0
SECTION
  2
HEADER
  9
$ACADVER
  1
AC1009
  9
$EXTMIN
 10
0.00000000
 20
0.00000000
 30
0.0
  9
$EXTMAX
 10
11.23393752
 20
7.89870212
 30
0.0
  0
ENDSEC
  0
SECTION
  2
ENTITIES
  0
POLYLINE
  8
0
 66
   1
 70
    0
  0
VERTEX
  8
0
 10
0.87507252
 20
1.71875000
  0
VERTEX
  8
0
 10
0.62507252
 20
1.71875000
  0
VERTEX
  8
0
 10
0.62507252
 20
2.28125000
  0
VERTEX
  8
0
 10
2.37507252
 20
2.28125000
  0
VERTEX
  8
0
 10
2.37507252
 20
1.71875000
  0
VERTEX
  8
0
 10
0.87507252
 20
1.71875000
  0
VERTEX
  8
0
 10
0.87507252
 20
2.28076960
  0
SEQEND
  0
POLYLINE
  8
0
 66
   1
 70
    0
  0
VERTEX
  8
0
 10
7.16263482
 20
2.55889044
  0
VERTEX
  8
0
 10
7.41263482
 20
2.55889044
 42
0.41421356
  0
VERTEX
  8
0
 10
7.43263482
 20
2.57889044
  0
VERTEX
  8
0
 10
7.43263482
 20
2.66389044
 42
0.41421356
  0
VERTEX
  8
0
 10
7.41263482
 20
2.68389044
  0
VERTEX
  8
0
 10
7.20263482
 20
2.68389044
 42
-0.41421356
  0
VERTEX
  8
0
 10
7.18263482
 20
2.70389044
  0
VERTEX
  8
0
 10
7.18263482
 20
2.78889044
 42
-0.41421356
  0
VERTEX
  8
0
 10
7.20263482
 20
2.80889044
  0
VERTEX
  8
0
 10
8.03763482
 20
2.80889044
 42
-0.41421356
  0
VERTEX
  8
0
 10
8.05763481
 20
2.78889044
  0
VERTEX
  8
0
 10
8.05763481
 20
2.26639044
 42
-0.41421356
  0
VERTEX
  8
0
 10
8.03763482
 20
2.24639044
  0
VERTEX
  8
0
 10
6.20263482
 20
2.24639044
 42
-0.41421356
  0
VERTEX
  8
0
 10
6.18263482
 20
2.26639044
  0
VERTEX
  8
0
 10
6.18263482
 20
2.78889044
 42
-0.41421356
  0
VERTEX
  8
0
 10
6.20263482
 20
2.80889044
  0
VERTEX
  8
0
 10
6.66263482
 20
2.80889044
 42
-0.41421356
  0
VERTEX
  8
0
 10
6.68263482
 20
2.78889044
  0
VERTEX
  8
0
 10
6.68263482
 20
2.57889044
 42
0.41421356
  0
VERTEX
  8
0
 10
6.70263482
 20
2.55889044
  0
VERTEX
  8
0
 10
7.16263482
 20
2.55889044
 42
0.41421356
  0
VERTEX
  8
0
 10
7.18263482
 20
2.57889044
  0
VERTEX
  8
0
 10
7.18263482
 20
2.66389044
 42
0.41421356
  0
VERTEX
  8
0
 10
7.16263482
 20
2.68389044
  0
VERTEX
  8
0
 10
6.95263482
 20
2.68389044
 42
-0.41421356
  0
VERTEX
  8
0
 10
6.93263482
 20
2.70389044
  0
VERTEX
  8
0
 10
6.93263482
 20
2.78889044
 42
-0.41421356
  0
VERTEX
  8
0
 10
6.95263482
 20
2.80889044
  0
VERTEX
  8
0
 10
7.78763482
 20
2.80889044
 42
0.41421356
  0
VERTEX
  8
0
 10
7.80763482
 20
2.82889044
  0
VERTEX
  8
0
 10
7.80763482
 20
3.66389044
 42
0.41421356
  0
VERTEX
  8
0
 10
7.78763482
 20
3.68389044
  0
VERTEX
  8
0
 10
6.20263482
 20
3.68389044
 42
0.41421356
  0
VERTEX
  8
0
 10
6.18263482
 20
3.66389044
  0
VERTEX
  8
0
 10
6.18263482
 20
2.82889044
 42
0.41421356
  0
VERTEX
  8
0
 10
6.20263482
 20
2.80889044
  0
SEQEND
  0
POLYLINE
  8
0
 66
   1
 70
    0
  0
VERTEX
  8
0
 10
5.08290116
 20
3.89730047
  0
VERTEX
  8
0
 10
5.08431028
 20
2.10189835
 42
-0.02801652
  0
VERTEX
  8
0
 10
4.08437599
 20
2.01747949
  0
SEQEND
  0
POLYLINE
  8
0
 66
   1
 70
    0
  0
VERTEX
  8
0
 10
5.14119061
 20
2.10189835
 42
0.06523951
  0
VERTEX
  8
0
 10
5.65554122
 20
2.24282387
 42
0.07082951
  0
VERTEX
  8
0
 10
5.84804622
 20
2.36389931
 42
0.07126187
  0
VERTEX
  8
0
 10
5.96050209
 20
2.49288852
 42
0.07138168
  0
VERTEX
  8
0
 10
6.03786552
 20
2.66366189
 42
0.06810247
  0
VERTEX
  8
0
 10
6.07790339
 20
2.95386018
 42
0.00704480
  0
VERTEX
  8
0
 10
6.07798595
 20
3.00033504
 42
0.06923660
  0
VERTEX
  8
0
 10
6.04273358
 20
3.32134892
 42
0.07066465
  0
VERTEX
  8
0
 10
5.96887096
 20
3.49585388
 42
0.07227745
  0
VERTEX
  8
0
 10
5.85977107
 20
3.62730747
 42
0.07069764
  0
VERTEX
  8
0
 10
5.67984113
 20
3.74629164
 42
0.06586831
  0
VERTEX
  8
0
 10
5.22789861
 20
3.88190062
 42
0.00554760
  0
VERTEX
  8
0
 10
5.13978160
 20
3.89730050
 42
0.02801652
  0
VERTEX
  8
0
 10
4.13971632
 20
3.98014991
  0
VERTEX
  8
0
 10
4.14125666
 20
2.01747960
 42
-0.00249778
  0
VERTEX
  8
0
 10
3.64127110
 20
1.99842266
 42
-0.06720557
  0
VERTEX
  8
0
 10
3.30729121
 20
2.34708012
 42
-0.06937699
  0
VERTEX
  8
0
 10
3.16119827
 20
2.63433058
 42
-0.04841219
  0
VERTEX
  8
0
 10
3.07798663
 20
2.99798099
 42
-0.06770533
  0
VERTEX
  8
0
 10
3.19463273
 20
3.44907266
 42
-0.06927453
  0
VERTEX
  8
0
 10
3.36485215
 20
3.72708130
 42
-0.04821298
  0
VERTEX
  8
0
 10
3.63970183
 20
3.99842204
 42
-0.00249778
  0
VERTEX
  8
0
 10
4.13971632
 20
3.98014991
  0
SEQEND
  0
POLYLINE
  8
0
 66
   1
 70
    0
  0
VERTEX
  8
0
 10
0.28125000
 20
4.17995212
  0
VERTEX
  8
0
 10
0.28125000
 20
4.30495212
  0
VERTEX
  8
0
 10
0.21875000
 20
4.30495212
  0
VERTEX
  8
0
 10
0.21875000
 20
7.67995212
  0
VERTEX
  8
0
 10
0.28125000
 20
7.67995212
  0
VERTEX
  8
0
 10
0.28125000
 20
7.80495212
  0
SEQEND
  0
POLYLINE
  8
0
 66
   1
 70
    0
  0
VERTEX
  8
0
 10
0.53125000
 20
4.17995212
  0
VERTEX
  8
0
 10
0.28125000
 20
4.17995212
  0
VERTEX
  8
0
 10
0.09375000
 20
4.17995212
  0
VERTEX
  8
0
 10
0.09375000
 20
7.80495212
  0
VERTEX
  8
0
 10
0.28125000
 20
7.80495212
  0
VERTEX
  8
0
 10
0.53125000
 20
7.80495212
  0
SEQEND
  0
POLYLINE
  8
0
 66
   1
 70
    0
  0
VERTEX
  8
0
 10
0.78125000
 20
4.17995212
  0
VERTEX
  8
0
 10
1.03125000
 20
4.17995212
  0
VERTEX
  8
0
 10
1.28125000
 20
4.17995212
  0
SEQEND
  0
POLYLINE
  8
0
 66
   1
 70
    0
  0
VERTEX
  8
0
 10
1.53125000
 20
4.17995212
  0
VERTEX
  8
0
 10
1.78125000
 20
4.17995212
  0
SEQEND
  0
POLYLINE
  8
0
 66
   1
 70
    0
  0
VERTEX
  8
0
 10
2.03125000
 20
4.17995212
  0
VERTEX
  8
0
 10
1.78125000
 20
4.17995212
  0
VERTEX
  8
0
 10
1.78125000
 20
4.30495212
  0
VERTEX
  8
0
 10
1.53125000
 20
4.30495212
  0
VERTEX
  8
0
 10
1.53125000
 20
4.17995212
  0
VERTEX
  8
0
 10
1.28125000
 20
4.17995212
  0
VERTEX
  8
0
 10
1.28125000
 20
4.30495212
  0
VERTEX
  8
0
 10
1.03125000
 20
4.30495212
  0
VERTEX
  8
0
 10
1.03125000
 20
4.17995212
  0
SEQEND
  0
POLYLINE
  8
0
 66
   1
 70
    0
  0
VERTEX
  8
0
 10
2.28125000
 20
4.17995212
  0
VERTEX
  8
0
 10
2.53125000
 20
4.17995212
  0
VERTEX
  8
0
 10
2.53125000
 20
4.30495212
  0
VERTEX
  8
0
 10
2.59375000
 20
4.30495212
  0
VERTEX
  8
0
 10
2.59375000
 20
7.67995212
  0
VERTEX
  8
0
 10
2.53125000
 20
7.67995212
  0
VERTEX
  8
0
 10
2.53125000
 20
7.80495212
  0
SEQEND
  0
POLYLINE
  8
0
 66
   1
 70
    0
  0
VERTEX
  8
0
 10
2.53125000
 20
4.17995212
  0
VERTEX
  8
0
 10
2.71875000
 20
4.17995212
  0
VERTEX
  8
0
 10
2.71875000
 20
7.80495212
  0
VERTEX
  8
0
 10
2.53125000
 20
7.80495212
  0
VERTEX
  8
0
 10
2.28125000
 20
7.80495212
  0
VERTEX
  8
0
 10
2.28125000
 20
7.67995212
  0
VERTEX
  8
0
 10
2.03125000
 20
7.67995212
  0
VERTEX
  8
0
 10
2.03125000
 20
7.80495212
  0
VERTEX
  8
0
 10
1.78125000
 20
7.80495212
  0
VERTEX
  8
0
 10
1.78125000
 20
7.67995212
  0
VERTEX
  8
0
 10
1.53125000
 20
7.67995212
  0
VERTEX
  8
0
 10
1.53125000
 20
7.80495212
  0
SEQEND
  0
POLYLINE
  8
0
 66
   1
 70
    0
  0
VERTEX
  8
0
 10
2.28125000
 20
7.80495212
  0
VERTEX
  8
0
 10
2.03125000
 20
7.80495212
  0
SEQEND
  0
POLYLINE
  8
0
 66
   1
 70
    0
  0
VERTEX
  8
0
 10
1.03125000
 20
7.80495212
  0
VERTEX
  8
0
 10
1.28125000
 20
7.80495212
  0
VERTEX
  8
0
 10
1.53125000
 20
7.80495212
  0
VERTEX
  8
0
 10
1.78125000
 20
7.80495212
  0
SEQEND
  0
POLYLINE
  8
0
 66
   1
 70
    0
  0
VERTEX
  8
0
 10
1.28125000
 20
7.80495212
  0
VERTEX
  8
0
 10
1.28125000
 20
7.67995212
  0
VERTEX
  8
0
 10
1.03125000
 20
7.67995212
  0
VERTEX
  8
0
 10
1.03125000
 20
7.80495212
  0
VERTEX
  8
0
 10
0.78125000
 20
7.80495212
  0
VERTEX
  8
0
 10
0.53125000
 20
7.80495212
  0
VERTEX
  8
0
 10
0.53125000
 20
7.67995212
  0
VERTEX
  8
0
 10
0.78125000
 20
7.67995212
  0
VERTEX
  8
0
 10
0.78125000
 20
7.80495212
  0
SEQEND
  0
POLYLINE
  8
0
 66
   1
 70
    0
  0
VERTEX
  8
0
 10
3.14977150
 20
4.17995212
  0
VERTEX
  8
0
 10
3.14977150
 20
4.30495212
  0
VERTEX
  8
0
 10
3.08727150
 20
4.30495212
  0
VERTEX
  8
0
 10
3.08727150
 20
7.67995212
  0
VERTEX
  8
0
 10
3.14977150
 20
7.67995212
  0
VERTEX
  8
0
 10
3.14977150
 20
7.80495212
  0
SEQEND
  0
POLYLINE
  8
0
 66
   1
 70
    0
  0
VERTEX
  8
0
 10
3.39977150
 20
4.17995212
  0
VERTEX
  8
0
 10
3.14977150
 20
4.17995212
  0
VERTEX
  8
0
 10
2.96227150
 20
4.17995212
  0
VERTEX
  8
0
 10
2.96227150
 20
7.80495212
  0
VERTEX
  8
0
 10
3.14977150
 20
7.80495212
  0
VERTEX
  8
0
 10
3.39977150
 20
7.80495212
  0
SEQEND
  0
POLYLINE
  8
0
 66
   1
 70
    0
  0
VERTEX
  8
0
 10
3.64977150
 20
4.17995212
  0
VERTEX
  8
0
 10
3.89977150
 20
4.17995212
  0
VERTEX
  8
0
 10
4.14977150
 20
4.17995212
  0
SEQEND
  0
POLYLINE
  8
0
 66
   1
 70
    0
  0
VERTEX
  8
0
 10
4.39977150
 20
4.17995212
  0
VERTEX
  8
0
 10
4.64977150
 20
4.17995212
  0
SEQEND
  0
POLYLINE
  8
0
 66
   1
 70
    0
  0
VERTEX
  8
0
 10
4.89977150
 20
4.17995212
  0
VERTEX
  8
0
 10
4.64977150
 20
4.17995212
  0
VERTEX
  8
0
 10
4.64977150
 20
4.30495212
  0
VERTEX
  8
0
 10
4.39977150
 20
4.30495212
  0
VERTEX
  8
0
 10
4.39977150
 20
4.17995212
  0
VERTEX
  8
0
 10
4.14977150
 20
4.17995212
  0
VERTEX
  8
0
 10
4.14977150
 20
4.30495212
  0
VERTEX
  8
0
 10
3.89977150
 20
4.30495212
  0
VERTEX
  8
0
 10
3.89977150
 20
4.17995212
  0
SEQEND
  0
POLYLINE
  8
0
 66
   1
 70
    0
  0
VERTEX
  8
0
 10
5.14977150
 20
4.17995212
  0
VERTEX
  8
0
 10
5.39977150
 20
4.17995212
  0
VERTEX
  8
0
 10
5.39977150
 20
4.30495212
  0
VERTEX
  8
0
 10
5.46227150
 20
4.30495212
  0
VERTEX
  8
0
 10
5.46227150
 20
7.67995212
  0
VERTEX
  8
0
 10
5.39977150
 20
7.67995212
  0
VERTEX
  8
0
 10
5.39977150
 20
7.80495212
  0
SEQEND
  0
POLYLINE
  8
0
 66
   1
 70
    0
  0
VERTEX
  8
0
 10
5.39977150
 20
4.17995212
  0
VERTEX
  8
0
 10
5.58727150
 20
4.17995212
  0
VERTEX
  8
0
 10
5.58727150
 20
7.80495212
  0
VERTEX
  8
0
 10
5.39977150
 20
7.80495212
  0
VERTEX
  8
0
 10
5.14977150
 20
7.80495212
  0
VERTEX
  8
0
 10
5.14977150
 20
7.67995212
  0
VERTEX
  8
0
 10
4.89977150
 20
7.67995212
  0
VERTEX
  8
0
 10
4.89977150
 20
7.80495212
  0
VERTEX
  8
0
 10
4.64977150
 20
7.80495212
  0
VERTEX
  8
0
 10
4.64977150
 20
7.67995212
  0
VERTEX
  8
0
 10
4.39977150
 20
7.67995212
  0
VERTEX
  8
0
 10
4.39977150
 20
7.80495212
  0
SEQEND
  0
POLYLINE
  8
0
 66
   1
 70
    0
  0
VERTEX
  8
0
 10
5.14977150
 20
7.80495212
  0
VERTEX
  8
0
 10
4.89977150
 20
7.80495212
  0
SEQEND
  0
POLYLINE
  8
0
 66
   1
 70
    0
  0
VERTEX
  8
0
 10
3.89977150
 20
7.80495212
  0
VERTEX
  8
0
 10
4.14977150
 20
7.80495212
  0
VERTEX
  8
0
 10
4.39977150
 20
7.80495212
  0
VERTEX
  8
0
 10
4.64977150
 20
7.80495212
  0
SEQEND
  0
POLYLINE
  8
0
 66
   1
 70
    0
  0
VERTEX
  8
0
 10
4.14977150
 20
7.80495212
  0
VERTEX
  8
0
 10
4.14977150
 20
7.67995212
  0
VERTEX
  8
0
 10
3.89977150
 20
7.67995212
  0
VERTEX
  8
0
 10
3.89977150
 20
7.80495212
  0
VERTEX
  8
0
 10
3.64977150
 20
7.80495212
  0
VERTEX
  8
0
 10
3.39977150
 20
7.80495212
  0
VERTEX
  8
0
 10
3.39977150
 20
7.67995212
  0
VERTEX
  8
0
 10
3.64977150
 20
7.67995212
  0
VERTEX
  8
0
 10
3.64977150
 20
7.80495212
  0
SEQEND
  0
POLYLINE
  8
0
 66
   1
 70
    0
  0
VERTEX
  8
0
 10
3.84533927
 20
1.76475893
  0
VERTEX
  8
0
 10
3.84531504
 20
1.73386817
  0
VERTEX
  8
0
 10
3.84473313
 20
0.99209565
  0
VERTEX
  8
0
 10
3.84415219
 20
0.25171245
  0
VERTEX
  8
0
 10
3.84412816
 20
0.22108306
  0
SEQEND
  0
POLYLINE
  8
0
 66
   1
 70
    0
  0
VERTEX
  8
0
 10
5.09406027
 20
0.13413376
 42
0.00256246
  0
VERTEX
  8
0
 10
5.40067618
 20
0.12049398
 42
0.04769925
  0
VERTEX
  8
0
 10
5.44560487
 20
0.12471355
 42
0.07077445
  0
VERTEX
  8
0
 10
5.47850004
 20
0.13644215
 42
0.06397078
  0
VERTEX
  8
0
 10
5.55633720
 20
0.19999868
  0
VERTEX
  8
0
 10
5.57602718
 20
0.21858235
 42
0.06728286
  0
VERTEX
  8
0
 10
5.77081735
 20
0.49066109
 42
0.06874939
  0
VERTEX
  8
0
 10
5.86708181
 20
0.76716799
 42
0.03387345
  0
VERTEX
  8
0
 10
5.89658773
 20
0.99048583
 42
0.03387500
  0
VERTEX
  8
0
 10
5.86743336
 20
1.21552631
 42
0.06875193
  0
VERTEX
  8
0
 10
5.77160292
 20
1.49217085
 42
0.06728388
  0
VERTEX
  8
0
 10
5.57723997
 20
1.76454207
  0
VERTEX
  8
0
 10
5.55757932
 20
1.78315567
 42
0.06397018
  0
VERTEX
  8
0
 10
5.47984199
 20
1.84683126
 42
0.07077186
  0
VERTEX
  8
0
 10
5.44696527
 20
1.85861092
 42
0.04769704
  0
VERTEX
  8
0
 10
5.40205137
 20
1.86290082
 42
0.00256234
  0
VERTEX
  8
0
 10
5.09540632
 20
1.84974271
 42
0.07026760
  0
VERTEX
  8
0
 10
5.08342177
 20
1.89322353
 42
0.07297266
  0
VERTEX
  8
0
 10
5.06510330
 20
1.92240384
 42
0.07239211
  0
VERTEX
  8
0
 10
5.04018305
 20
1.94403931
 42
0.06876250
  0
VERTEX
  8
0
 10
5.00416240
 20
1.96046600
 42
0.06723899
  0
VERTEX
  8
0
 10
4.93324658
 20
1.97069059
 42
0.00631249
  0
VERTEX
  8
0
 10
4.91753366
 20
1.97094630
  0
VERTEX
  8
0
 10
4.91339542
 20
1.97095757
 42
0.01580785
  0
VERTEX
  8
0
 10
4.00327281
 20
1.91286128
 42
0.05596073
  0
VERTEX
  8
0
 10
3.91522570
 20
1.88878971
 42
0.06894916
  0
VERTEX
  8
0
 10
3.88439393
 20
1.87032646
 42
0.07085637
  0
VERTEX
  8
0
 10
3.86700221
 20
1.85134444
 42
0.07138925
  0
VERTEX
  8
0
 10
3.85431385
 20
1.82501943
 42
0.06885288
  0
VERTEX
  8
0
 10
3.84533941
 20
1.76475903
  0
VERTEX
  8
0
 10
3.83591692
 20
1.76292855
 42
0.06684257
  0
VERTEX
  8
0
 10
3.50115310
 20
1.65705679
 42
0.06997678
  0
VERTEX
  8
0
 10
3.35212698
 20
1.55614284
 42
0.06926537
  0
VERTEX
  8
0
 10
3.25963523
 20
1.44417768
 42
0.06917162
  0
VERTEX
  8
0
 10
3.19289993
 20
1.28969300
 42
0.06906588
  0
VERTEX
  8
0
 10
3.15743953
 20
0.99263503
 42
0.06755694
  0
VERTEX
  8
0
 10
3.19275036
 20
0.68742035
 42
0.07101650
  0
VERTEX
  8
0
 10
3.25926064
 20
0.53228102
 42
0.07208748
  0
VERTEX
  8
0
 10
3.35150651
 20
0.42233932
 42
0.06865514
  0
VERTEX
  8
0
 10
3.49371475
 20
0.32832682
 42
0.06513443
  0
VERTEX
  8
0
 10
3.84412845
 20
0.22108313
 42
0.06884977
  0
VERTEX
  8
0
 10
3.85300813
 20
0.16080584
 42
0.07138715
  0
VERTEX
  8
0
 10
3.86565515
 20
0.13445971
 42
0.07085607
  0
VERTEX
  8
0
 10
3.88301707
 20
0.11544952
 42
0.06895069
  0
VERTEX
  8
0
 10
3.91381983
 20
0.09693704
 42
0.05596301
  0
VERTEX
  8
0
 10
4.00182905
 20
0.07272619
 42
0.01580859
  0
VERTEX
  8
0
 10
4.91185937
 20
0.01319910
  0
VERTEX
  8
0
 10
4.91599762
 20
0.01320374
 42
0.00631278
  0
VERTEX
  8
0
 10
4.93171093
 20
0.01343480
 42
0.06724204
  0
VERTEX
  8
0
 10
5.00264270
 20
0.02354857
 42
0.06876463
  0
VERTEX
  8
0
 10
5.03868909
 20
0.03991949
 42
0.07239259
  0
VERTEX
  8
0
 10
5.06364326
 20
0.06151685
 42
0.07297117
  0
VERTEX
  8
0
 10
5.08200750
 20
0.09066975
 42
0.07026476
  0
VERTEX
  8
0
 10
5.09406027
 20
0.13413376
  0
VERTEX
  8
0
 10
5.09408288
 20
0.16295299
  0
VERTEX
  8
0
 10
5.09473272
 20
0.99111504
  0
VERTEX
  8
0
 10
5.09538370
 20
1.82090552
  0
VERTEX
  8
0
 10
5.09540632
 20
1.84974271
  0
SEQEND
  0
POLYLINE
  8
0
 66
   1
 70
    1
  0
VERTEX
  8
0
 10
9.04643752
 20
2.89880103
  0
VERTEX
  8
0
 10
8.92143752
 20
2.89880103
  0
VERTEX
  8
0
 10
8.92143752
 20
2.77380103
  0
VERTEX
  8
0
 10
8.85893752
 20
2.77380103
  0
VERTEX
  8
0
 10
8.85893752
 20
2.89880103
  0
VERTEX
  8
0
 10
8.85893752
 20
5.27380103
  0
VERTEX
  8
0
 10
8.85893752
 20
5.39880103
  0
VERTEX
  8
0
 10
8.92143752
 20
5.39880103
  0
VERTEX
  8
0
 10
8.92143752
 20
5.27380103
  0
VERTEX
  8
0
 10
9.04643752
 20
5.27380103
  0
VERTEX
  8
0
 10
9.17143752
 20
5.27380103
  0
VERTEX
  8
0
 10
9.17143752
 20
5.39880103
  0
VERTEX
  8
0
 10
9.42143752
 20
5.39880103
  0
VERTEX
  8
0
 10
9.42143752
 20
5.27380103
  0
VERTEX
  8
0
 10
9.67143752
 20
5.27380103
  0
VERTEX
  8
0
 10
9.67143752
 20
5.39880103
  0
VERTEX
  8
0
 10
9.92143752
 20
5.39880103
  0
VERTEX
  8
0
 10
9.92143752
 20
5.27380103
  0
VERTEX
  8
0
 10
10.17143752
 20
5.27380103
  0
VERTEX
  8
0
 10
10.17143752
 20
5.39880103
  0
VERTEX
  8
0
 10
10.42143752
 20
5.39880103
  0
VERTEX
  8
0
 10
10.42143752
 20
5.27380103
  0
VERTEX
  8
0
 10
10.67143752
 20
5.27380103
  0
VERTEX
  8
0
 10
10.67143752
 20
5.39880103
  0
VERTEX
  8
0
 10
10.92143752
 20
5.39880103
  0
VERTEX
  8
0
 10
10.92143752
 20
5.27380103
  0
VERTEX
  8
0
 10
11.04643752
 20
5.27380103
  0
VERTEX
  8
0
 10
11.17143752
 20
5.27380103
  0
VERTEX
  8
0
 10
11.17143752
 20
5.39880103
  0
VERTEX
  8
0
 10
11.23393752
 20
5.39880103
  0
VERTEX
  8
0
 10
11.23393752
 20
5.27380103
  0
VERTEX
  8
0
 10
11.23393752
 20
2.89880103
  0
VERTEX
  8
0
 10
11.23393752
 20
2.77380103
  0
VERTEX
  8
0
 10
11.17143752
 20
2.77380103
  0
VERTEX
  8
0
 10
11.17143752
 20
2.89880103
  0
VERTEX
  8
0
 10
11.04643752
 20
2.89880103
  0
VERTEX
  8
0
 10
10.92143752
 20
2.89880103
  0
VERTEX
  8
0
 10
10.92143752
 20
2.77380103
  0
VERTEX
  8
0
 10
10.67143752
 20
2.77380103
  0
VERTEX
  8
0
 10
10.67143752
 20
2.89880103
  0
VERTEX
  8
0
 10
10.42143752
 20
2.89880103
  0
VERTEX
  8
0
 10
10.42143752
 20
2.77380103
  0
VERTEX
  8
0
 10
10.17143752
 20
2.77380103
  0
VERTEX
  8
0
 10
10.17143752
 20
2.89880103
  0
VERTEX
  8
0
 10
9.92143752
 20
2.89880103
  0
VERTEX
  8
0
 10
9.92143752
 20
2.77380103
  0
VERTEX
  8
0
 10
9.67143752
 20
2.77380103
  0
VERTEX
  8
0
 10
9.67143752
 20
2.89880103
  0
VERTEX
  8
0
 10
9.42143752
 20
2.89880103
  0
VERTEX
  8
0
 10
9.42143752
 20
2.77380103
  0
VERTEX
  8
0
 10
9.17143752
 20
2.77380103
  0
VERTEX
  8
0
 10
9.17143752
 20
2.89880103
  0
VERTEX
  8
0
 10
9.04643752
 20
2.89880103
  0
SEQEND
  0
POLYLINE
  8
0
 66
   1
 70
    1
  0
VERTEX
  8
0
 10
9.04643752
 20
0.17156840
  0
VERTEX
  8
0
 10
8.92143752
 20
0.17156840
  0
VERTEX
  8
0
 10
8.92143752
 20
0.04656840
  0
VERTEX
  8
0
 10
8.85893752
 20
0.04656840
  0
VERTEX
  8
0
 10
8.85893752
 20
0.17156840
  0
VERTEX
  8
0
 10
8.85893752
 20
2.54656840
  0
VERTEX
  8
0
 10
8.85893752
 20
2.67156840
  0
VERTEX
  8
0
 10
8.92143752
 20
2.67156840
  0
VERTEX
  8
0
 10
8.92143752
 20
2.54656840
  0
VERTEX
  8
0
 10
9.04643752
 20
2.54656840
  0
VERTEX
  8
0
 10
9.17143752
 20
2.54656840
  0
VERTEX
  8
0
 10
9.17143752
 20
2.67156840
  0
VERTEX
  8
0
 10
9.42143752
 20
2.67156840
  0
VERTEX
  8
0
 10
9.42143752
 20
2.54656840
  0
VERTEX
  8
0
 10
9.67143752
 20
2.54656840
  0
VERTEX
  8
0
 10
9.67143752
 20
2.67156840
  0
VERTEX
  8
0
 10
9.92143752
 20
2.67156840
  0
VERTEX
  8
0
 10
9.92143752
 20
2.54656840
  0
VERTEX
  8
0
 10
10.17143752
 20
2.54656840
  0
VERTEX
  8
0
 10
10.17143752
 20
2.67156840
  0
VERTEX
  8
0
 10
10.42143752
 20
2.67156840
  0
VERTEX
  8
0
 10
10.42143752
 20
2.54656840
  0
VERTEX
  8
0
 10
10.67143752
 20
2.54656840
  0
VERTEX
  8
0
 10
10.67143752
 20
2.67156840
  0
VERTEX
  8
0
 10
10.92143752
 20
2.67156840
  0
VERTEX
  8
0
 10
10.92143752
 20
2.54656840
  0
VERTEX
  8
0
 10
11.04643752
 20
2.54656840
  0
VERTEX
  8
0
 10
11.17143752
 20
2.54656840
  0
VERTEX
  8
0
 10
11.17143752
 20
2.67156840
  0
VERTEX
  8
0
 10
11.23393752
 20
2.67156840
  0
VERTEX
  8
0
 10
11.23393752
 20
2.54656840
  0
VERTEX
  8
0
 10
11.23393752
 20
0.17156840
  0
VERTEX
  8
0
 10
11.23393752
 20
0.04656840
  0
VERTEX
  8
0
 10
11.17143752
 20
0.04656840
  0
VERTEX
  8
0
 10
11.17143752
 20
0.17156840
  0
VERTEX
  8
0
 10
11.04643752
 20
0.17156840
  0
VERTEX
  8
0
 10
10.92143752
 20
0.17156840
  0
VERTEX
  8
0
 10
10.92143752
 20
0.04656840
  0
VERTEX
  8
0
 10
10.67143752
 20
0.04656840
  0
VERTEX
  8
0
 10
10.67143752
 20
0.17156840
  0
VERTEX
  8
0
 10
10.42143752
 20
0.17156840
  0
VERTEX
  8
0
 10
10.42143752
 20
0.04656840
  0
VERTEX
  8
0
 10
10.17143752
 20
0.04656840
  0
VERTEX
  8
0
 10
10.17143752
 20
0.17156840
  0
VERTEX
  8
0
 10
9.92143752
 20
0.17156840
  0
VERTEX
  8
0
 10
9.92143752
 20
0.04656840
  0
VERTEX
  8
0
 10
9.67143752
 20
0.04656840
  0
VERTEX
  8
0
 10
9.67143752
 20
0.17156840
  0
VERTEX
  8
0
 10
9.42143752
 20
0.17156840
  0
VERTEX
  8
0
 10
9.42143752
 20
0.04656840
  0
VERTEX
  8
0
 10
9.17143752
 20
0.04656840
  0
VERTEX
  8
0
 10
9.17143752
 20
0.17156840
  0
VERTEX
  8
0
 10
9.04643752
 20
0.17156840
  0
SEQEND
  0
POLYLINE
  8
0
 66
   1
 70
    1
  0
VERTEX
  8
0
 10
5.93263156
 20
0.23897676
 42
0.37848705
  0
VERTEX
  8
0
 10
6.11267922
 20
0.05889044
  0
VERTEX
  8
0
 10
7.87711653
 20
0.05889044
  0
VERTEX
  8
0
 10
7.87713066
 20
0.05889044
 42
0.37942868
  0
VERTEX
  8
0
 10
8.05763155
 20
0.23919422
  0
VERTEX
  8
0
 10
8.05763155
 20
0.72639044
 42
0.41421356
  0
VERTEX
  8
0
 10
8.03763156
 20
0.74639044
  0
VERTEX
  8
0
 10
7.95263156
 20
0.74639044
 42
-0.41421356
  0
VERTEX
  8
0
 10
7.93263155
 20
0.76639044
  0
VERTEX
  8
0
 10
7.93263155
 20
0.97639044
 42
0.41421356
  0
VERTEX
  8
0
 10
7.91263156
 20
0.99639044
  0
VERTEX
  8
0
 10
7.51513156
 20
0.99639044
 42
0.41421356
  0
VERTEX
  8
0
 10
7.49513155
 20
0.97639044
  0
VERTEX
  8
0
 10
7.49513155
 20
0.89139044
 42
-0.41421356
  0
VERTEX
  8
0
 10
7.47513156
 20
0.87139044
  0
VERTEX
  8
0
 10
7.32763156
 20
0.87139044
 42
0.41421356
  0
VERTEX
  8
0
 10
7.30763155
 20
0.85139044
  0
VERTEX
  8
0
 10
7.30763155
 20
0.51639044
 42
-0.41421356
  0
VERTEX
  8
0
 10
7.28763156
 20
0.49639044
  0
VERTEX
  8
0
 10
6.32763156
 20
0.49639044
 42
-0.41421356
  0
VERTEX
  8
0
 10
6.30763156
 20
0.51639044
  0
VERTEX
  8
0
 10
6.30763156
 20
0.85139044
 42
-0.41421356
  0
VERTEX
  8
0
 10
6.32763156
 20
0.87139044
  0
VERTEX
  8
0
 10
6.53763156
 20
0.87139044
 42
0.41421356
  0
VERTEX
  8
0
 10
6.55763156
 20
0.89139044
  0
VERTEX
  8
0
 10
6.55763156
 20
0.97639044
 42
0.41421356
  0
VERTEX
  8
0
 10
6.53763156
 20
0.99639044
  0
VERTEX
  8
0
 10
6.07763156
 20
0.99639044
 42
-0.41421356
  0
VERTEX
  8
0
 10
6.05763156
 20
1.01639044
  0
VERTEX
  8
0
 10
6.05763156
 20
1.53889044
 42
-0.41421356
  0
VERTEX
  8
0
 10
6.07763156
 20
1.55889044
 42
-0.41421356
  0
VERTEX
  8
0
 10
6.05763156
 20
1.57889044
  0
VERTEX
  8
0
 10
6.05763156
 20
1.66389044
 42
0.41421356
  0
VERTEX
  8
0
 10
6.03763156
 20
1.68389044
  0
VERTEX
  8
0
 10
5.95263156
 20
1.68389044
 42
-0.41421356
  0
VERTEX
  8
0
 10
5.93263156
 20
1.70389044
  0
VERTEX
  8
0
 10
5.93263156
 20
2.22639044
 42
-0.41421356
  0
VERTEX
  8
0
 10
5.95263156
 20
2.24639044
  0
VERTEX
  8
0
 10
7.78763156
 20
2.24639044
  0
VERTEX
  8
0
 10
8.03763156
 20
2.24639044
 42
-0.41421356
  0
VERTEX
  8
0
 10
8.05763155
 20
2.22639044
  0
VERTEX
  8
0
 10
8.05763155
 20
1.70389044
 42
-0.41421356
  0
VERTEX
  8
0
 10
8.03763156
 20
1.68389044
  0
VERTEX
  8
0
 10
7.95263156
 20
1.68389044
 42
0.41421356
  0
VERTEX
  8
0
 10
7.93263155
 20
1.66389044
  0
VERTEX
  8
0
 10
7.93263155
 20
1.57889044
 42
-0.41421356
  0
VERTEX
  8
0
 10
7.91263156
 20
1.55889044
  0
VERTEX
  8
0
 10
6.95263156
 20
1.55889044
 42
-0.41421356
  0
VERTEX
  8
0
 10
6.93263156
 20
1.57889044
  0
VERTEX
  8
0
 10
6.93263156
 20
1.66389044
 42
-0.41421356
  0
VERTEX
  8
0
 10
6.95263156
 20
1.68389044
  0
VERTEX
  8
0
 10
7.03763156
 20
1.68389044
 42
0.41421356
  0
VERTEX
  8
0
 10
7.05763156
 20
1.70389044
  0
VERTEX
  8
0
 10
7.05763156
 20
1.78889044
 42
-0.41421356
  0
VERTEX
  8
0
 10
7.07763156
 20
1.80889044
  0
VERTEX
  8
0
 10
7.16263156
 20
1.80889044
 42
0.41421356
  0
VERTEX
  8
0
 10
7.18263156
 20
1.82889044
  0
VERTEX
  8
0
 10
7.18263156
 20
1.91389044
 42
0.41421356
  0
VERTEX
  8
0
 10
7.16263156
 20
1.93389044
  0
VERTEX
  8
0
 10
6.70263156
 20
1.92505879
 42
0.41421356
  0
VERTEX
  8
0
 10
6.68263156
 20
1.90505879
  0
VERTEX
  8
0
 10
6.68263156
 20
1.82889044
 42
-0.41421356
  0
VERTEX
  8
0
 10
6.66263156
 20
1.80889044
  0
VERTEX
  8
0
 10
6.57763156
 20
1.80889044
 42
0.41421356
  0
VERTEX
  8
0
 10
6.55763156
 20
1.78889044
  0
VERTEX
  8
0
 10
6.55763156
 20
1.70389044
 42
-0.41421356
  0
VERTEX
  8
0
 10
6.53763156
 20
1.68389044
  0
VERTEX
  8
0
 10
6.45263156
 20
1.68389044
 42
0.41421356
  0
VERTEX
  8
0
 10
6.43263156
 20
1.66389044
 42
-0.41421356
  0
VERTEX
  8
0
 10
6.45263156
 20
1.68389044
  0
VERTEX
  8
0
 10
6.53763156
 20
1.68389044
 42
0.41421356
  0
VERTEX
  8
0
 10
6.55763156
 20
1.70389044
  0
VERTEX
  8
0
 10
6.55763156
 20
1.78889044
 42
-0.41421356
  0
VERTEX
  8
0
 10
6.57763156
 20
1.80889044
  0
VERTEX
  8
0
 10
6.66263156
 20
1.80889044
 42
0.41421356
  0
VERTEX
  8
0
 10
6.68263156
 20
1.82889044
  0
VERTEX
  8
0
 10
6.68263156
 20
1.90505879
 42
-0.41421356
  0
VERTEX
  8
0
 10
6.70263156
 20
1.92505879
  0
VERTEX
  8
0
 10
7.03763156
 20
1.92505879
 42
-0.41421356
  0
VERTEX
  8
0
 10
7.05763156
 20
1.90505879
  0
VERTEX
  8
0
 10
7.05763156
 20
1.82889044
 42
-0.41421356
  0
VERTEX
  8
0
 10
7.03763156
 20
1.80889044
  0
VERTEX
  8
0
 10
6.95263156
 20
1.80889044
 42
0.41421356
  0
VERTEX
  8
0
 10
6.93263156
 20
1.78889044
  0
VERTEX
  8
0
 10
6.93263156
 20
1.70389044
 42
-0.41421356
  0
VERTEX
  8
0
 10
6.91263156
 20
1.68389044
  0
VERTEX
  8
0
 10
6.82763156
 20
1.68389044
 42
0.41421356
  0
VERTEX
  8
0
 10
6.80763156
 20
1.66389044
  0
VERTEX
  8
0
 10
6.80763156
 20
1.57889044
 42
0.41421356
  0
VERTEX
  8
0
 10
6.82763156
 20
1.55889044
  0
VERTEX
  8
0
 10
8.03763156
 20
1.55889044
 42
-0.41421356
  0
VERTEX
  8
0
 10
8.05763155
 20
1.53889044
  0
VERTEX
  8
0
 10
8.05763155
 20
1.01639044
 42
-0.41421356
  0
VERTEX
  8
0
 10
8.03763156
 20
0.99639044
  0
VERTEX
  8
0
 10
7.91263156
 20
0.99639044
  0
VERTEX
  8
0
 10
7.51513156
 20
0.99639044
  0
VERTEX
  8
0
 10
6.95263156
 20
0.99639044
 42
0.41421356
  0
VERTEX
  8
0
 10
6.93263156
 20
0.97639044
  0
VERTEX
  8
0
 10
6.93263156
 20
0.51639044
 42
-0.41421356
  0
VERTEX
  8
0
 10
6.91263156
 20
0.49639044
  0
VERTEX
  8
0
 10
6.45263156
 20
0.49639044
 42
-0.41421356
  0
VERTEX
  8
0
 10
6.43263156
 20
0.51639044
  0
VERTEX
  8
0
 10
6.43263156
 20
0.60139044
 42
-0.41421356
  0
VERTEX
  8
0
 10
6.45263156
 20
0.62139044
  0
VERTEX
  8
0
 10
6.66263156
 20
0.62139044
 42
0.41421356
  0
VERTEX
  8
0
 10
6.68263156
 20
0.64139044
  0
VERTEX
  8
0
 10
6.68263156
 20
0.97639044
 42
0.41421356
  0
VERTEX
  8
0
 10
6.66263156
 20
0.99639044
  0
VERTEX
  8
0
 10
6.53763156
 20
0.99639044
  0
VERTEX
  8
0
 10
6.07763156
 20
0.99639044
 42
0.41421356
  0
VERTEX
  8
0
 10
6.05763156
 20
0.97639044
  0
VERTEX
  8
0
 10
6.05763156
 20
0.76639044
 42
-0.41421356
  0
VERTEX
  8
0
 10
6.03763156
 20
0.74639044
  0
VERTEX
  8
0
 10
5.95263156
 20
0.74639044
 42
0.41421356
  0
VERTEX
  8
0
 10
5.93263156
 20
0.72639044
  0
VERTEX
  8
0
 10
5.93263156
 20
0.23897676
  0
SEQEND
  0
POLYLINE
  8
0
 66
   1
 70
    1
  0
VERTEX
  8
0
 10
10.93802058
 20
7.08250573
 42
-0.41421356
  0
VERTEX
  8
0
 10
11.02802058
 20
6.99250573
  0
VERTEX
  8
0
 10
11.02802058
 20
6.98500573
 42
0.41421356
  0
VERTEX
  8
0
 10
11.11802058
 20
6.89500573
  0
VERTEX
  8
0
 10
11.15302058
 20
6.89500573
  0
VERTEX
  8
0
 10
11.15302058
 20
7.08250573
  0
VERTEX
  8
0
 10
11.15302058
 20
7.20750573
  0
VERTEX
  8
0
 10
9.90302058
 20
7.20750573
  0
VERTEX
  8
0
 10
9.90302058
 20
7.08250573
  0
VERTEX
  8
0
 10
10.93802058
 20
7.08250573
  0
SEQEND
  0
POLYLINE
  8
0
 66
   1
 70
    1
  0
VERTEX
  8
0
 10
9.67052058
 20
7.03364023
  0
VERTEX
  8
0
 10
9.67052058
 20
7.22114023
  0
VERTEX
  8
0
 10
9.70552058
 20
7.22114023
 42
-0.41421356
  0
VERTEX
  8
0
 10
9.79552058
 20
7.13114023
  0
VERTEX
  8
0
 10
9.79552058
 20
7.12364023
 42
0.41421356
  0
VERTEX
  8
0
 10
9.88552058
 20
7.03364023
  0
VERTEX
  8
0
 10
10.92052058
 20
7.03364023
  0
VERTEX
  8
0
 10
10.92052058
 20
6.90864023
  0
VERTEX
  8
0
 10
9.67052058
 20
6.90864023
  0
VERTEX
  8
0
 10
9.67052058
 20
7.03364023
  0
SEQEND
  0
POLYLINE
  8
0
 66
   1
 70
    1
  0
VERTEX
  8
0
 10
10.93480395
 20
6.65450295
  0
VERTEX
  8
0
 10
9.89980394
 20
6.65450295
  0
VERTEX
  8
0
 10
9.89980394
 20
6.52950295
  0
VERTEX
  8
0
 10
11.14980395
 20
6.52950295
  0
VERTEX
  8
0
 10
11.14980395
 20
6.65450295
  0
VERTEX
  8
0
 10
11.14980395
 20
6.84200295
  0
VERTEX
  8
0
 10
11.11480395
 20
6.84200295
 42
0.41421356
  0
VERTEX
  8
0
 10
11.02480395
 20
6.75200295
  0
VERTEX
  8
0
 10
11.02480395
 20
6.74450295
 42
-0.41421356
  0
VERTEX
  8
0
 10
10.93480395
 20
6.65450295
  0
SEQEND
  0
POLYLINE
  8
0
 66
   1
 70
    1
  0
VERTEX
  8
0
 10
8.20072230
 20
0.18954618
  0
VERTEX
  8
0
 10
8.19322230
 20
0.18954618
 42
0.41421356
  0
VERTEX
  8
0
 10
8.10322230
 20
0.09954618
  0
VERTEX
  8
0
 10
8.10322230
 20
0.06454618
  0
VERTEX
  8
0
 10
8.29072230
 20
0.06454618
  0
VERTEX
  8
0
 10
8.41572230
 20
0.06454618
  0
VERTEX
  8
0
 10
8.41572230
 20
0.18954618
  0
VERTEX
  8
0
 10
8.41572230
 20
3.31454618
  0
VERTEX
  8
0
 10
8.41572230
 20
3.43954618
  0
VERTEX
  8
0
 10
8.29072230
 20
3.43954618
  0
VERTEX
  8
0
 10
8.10322230
 20
3.43954618
  0
VERTEX
  8
0
 10
8.10322230
 20
3.40454618
 42
0.41421356
  0
VERTEX
  8
0
 10
8.19322230
 20
3.31454618
  0
VERTEX
  8
0
 10
8.20072230
 20
3.31454618
 42
-0.41421356
  0
VERTEX
  8
0
 10
8.29072230
 20
3.22454618
  0
VERTEX
  8
0
 10
8.29072230
 20
2.61878488
 42
-0.41421356
  0
VERTEX
  8
0
 10
8.27072230
 20
2.59878488
  0
VERTEX
  8
0
 10
8.18572230
 20
2.59878488
 42
0.41421356
  0
VERTEX
  8
0
 10
8.16572230
 20
2.57878488
  0
VERTEX
  8
0
 10
8.16572230
 20
2.18590544
 42
0.41421356
  0
VERTEX
  8
0
 10
8.18572230
 20
2.16590544
  0
VERTEX
  8
0
 10
8.27072230
 20
2.16590544
 42
-0.41421356
  0
VERTEX
  8
0
 10
8.29072230
 20
2.14590544
  0
VERTEX
  8
0
 10
8.29072230
 20
1.58454618
 42
-0.41421356
  0
VERTEX
  8
0
 10
8.27072230
 20
1.56454618
  0
VERTEX
  8
0
 10
8.18572230
 20
1.56454618
 42
0.41421356
  0
VERTEX
  8
0
 10
8.16572230
 20
1.54454618
  0
VERTEX
  8
0
 10
8.16572230
 20
0.89704618
 42
0.41421356
  0
VERTEX
  8
0
 10
8.18572230
 20
0.87704618
  0
VERTEX
  8
0
 10
8.27072230
 20
0.87704618
 42
-0.41421356
  0
VERTEX
  8
0
 10
8.29072230
 20
0.85704618
  0
VERTEX
  8
0
 10
8.29072230
 20
0.27954618
 42
-0.41421356
  0
VERTEX
  8
0
 10
8.20072230
 20
0.18954618
  0
SEQEND
  0
POLYLINE
  8
0
 66
   1
 70
    1
  0
VERTEX
  8
0
 10
6.43263156
 20
1.57889044
  0
VERTEX
  8
0
 10
6.43263156
 20
1.66389044
  0
VERTEX
  8
0
 10
6.43263156
 20
1.57889044
  0
SEQEND
  0
POLYLINE
  8
0
 66
   1
 70
    1
  0
VERTEX
  8
0
 10
6.07763156
 20
1.55889044
  0
VERTEX
  8
0
 10
6.41263156
 20
1.55889044
 42
0.41421356
  0
VERTEX
  8
0
 10
6.43263156
 20
1.57889044
 42
-0.41421356
  0
VERTEX
  8
0
 10
6.41263156
 20
1.55889044
  0
VERTEX
  8
0
 10
6.07763156
 20
1.55889044
  0
SEQEND
  0
POLYLINE
  8
0
 66
   1
 70
    1
  0
VERTEX
  8
0
 10
9.66730394
 20
6.82836845
  0
VERTEX
  8
0
 10
10.91730395
 20
6.82836845
  0
VERTEX
  8
0
 10
10.91730395
 20
6.70336845
  0
VERTEX
  8
0
 10
9.88230394
 20
6.70336845
 42
0.41421356
  0
VERTEX
  8
0
 10
9.79230394
 20
6.61336845
  0
VERTEX
  8
0
 10
9.79230394
 20
6.60586845
 42
-0.41421356
  0
VERTEX
  8
0
 10
9.70230395
 20
6.51586845
  0
VERTEX
  8
0
 10
9.66730394
 20
6.51586845
  0
VERTEX
  8
0
 10
9.66730394
 20
6.70336845
  0
VERTEX
  8
0
 10
9.66730394
 20
6.82836845
  0
SEQEND
  0
POLYLINE
  8
0
 66
   1
 70
    1
  0
VERTEX
  8
0
 10
9.55514889
 20
7.29900257
  0
VERTEX
  8
0
 10
9.55514889
 20
7.82150257
 42
-0.41421356
  0
VERTEX
  8
0
 10
9.57514889
 20
7.84150257
  0
VERTEX
  8
0
 10
11.03514889
 20
7.84150257
 42
-0.41421356
  0
VERTEX
  8
0
 10
11.05514889
 20
7.82150257
  0
VERTEX
  8
0
 10
11.05514889
 20
7.29900257
 42
-0.41421356
  0
VERTEX
  8
0
 10
11.03514889
 20
7.27900257
  0
VERTEX
  8
0
 10
9.57514889
 20
7.27900257
 42
-0.41421356
  0
VERTEX
  8
0
 10
9.55514889
 20
7.29900257
  0
SEQEND
  0
POLYLINE
  8
0
 66
   1
 70
    1
  0
VERTEX
  8
0
 10
10.65918496
 20
5.54295464
  0
VERTEX
  8
0
 10
10.65918496
 20
6.30295464
  0
VERTEX
  8
0
 10
11.15973601
 20
6.30295464
  0
VERTEX
  8
0
 10
11.15922420
 20
6.17295464
  0
VERTEX
  8
0
 10
11.22172420
 20
6.17295464
  0
VERTEX
  8
0
 10
11.22172420
 20
5.67295464
  0
VERTEX
  8
0
 10
11.15922420
 20
5.67295464
  0
VERTEX
  8
0
 10
11.15973601
 20
5.54295464
  0
VERTEX
  8
0
 10
10.65918496
 20
5.54295464
  0
SEQEND
  0
POLYLINE
  8
0
 66
   1
 70
    1
  0
VERTEX
  8
0
 10
1.12507252
 20
0.59375000
  0
VERTEX
  8
0
 10
1.12507252
 20
1.59375000
  0
VERTEX
  8
0
 10
1.87507252
 20
1.59375000
  0
VERTEX
  8
0
 10
1.87507252
 20
0.59375000
  0
VERTEX
  8
0
 10
1.75007252
 20
0.59375000
  0
VERTEX
  8
0
 10
1.75007252
 20
0.53186516
  0
VERTEX
  8
0
 10
1.25007252
 20
0.53186516
  0
VERTEX
  8
0
 10
1.25007252
 20
0.59375000
  0
VERTEX
  8
0
 10
1.12507252
 20
0.59375000
  0
SEQEND
  0
POLYLINE
  8
0
 66
   1
 70
    1
  0
VERTEX
  8
0
 10
0.87507252
 20
2.41341857
  0
VERTEX
  8
0
 10
2.12507252
 20
2.41341857
  0
VERTEX
  8
0
 10
2.12507252
 20
3.21875000
  0
VERTEX
  8
0
 10
1.87507252
 20
3.21875000
  0
VERTEX
  8
0
 10
1.87507252
 20
3.28125000
  0
VERTEX
  8
0
 10
1.12507252
 20
3.28125000
  0
VERTEX
  8
0
 10
1.12507252
 20
3.21875000
  0
VERTEX
  8
0
 10
0.87507252
 20
3.21875000
  0
VERTEX
  8
0
 10
0.87507252
 20
2.41341857
  0
SEQEND
  0
POLYLINE
  8
0
 66
   1
 70
    1
  0
VERTEX
  8
0
 10
1.02763159
 20
2.08875000
 42
-0.41421356
  0
VERTEX
  8
0
 10
1.08513159
 20
2.03125000
 42
-0.41421356
  0
VERTEX
  8
0
 10
1.02763159
 20
1.97375000
 42
-0.41421356
  0
VERTEX
  8
0
 10
0.97013159
 20
2.03125000
 42
-0.41421356
  0
VERTEX
  8
0
 10
1.02763159
 20
2.08875000
  0
SEQEND
  0
POLYLINE
  8
0
 66
   1
 70
    1
  0
VERTEX
  8
0
 10
1.97251348
 20
2.08875000
 42
-0.41421356
  0
VERTEX
  8
0
 10
2.03001347
 20
2.03125000
 42
-0.41421356
  0
VERTEX
  8
0
 10
1.97251348
 20
1.97375000
 42
-0.41421356
  0
VERTEX
  8
0
 10
1.91501347
 20
2.03125000
 42
-0.41421356
  0
VERTEX
  8
0
 10
1.97251348
 20
2.08875000
  0
SEQEND
  0
POLYLINE
  8
0
 66
   1
 70
    1
  0
VERTEX
  8
0
 10
0.00007252
 20
4.00000000
  0
VERTEX
  8
0
 10
0.00007252
 20
0.00000000
  0
VERTEX
  8
0
 10
3.00007252
 20
0.00000000
  0
VERTEX
  8
0
 10
3.00007252
 20
4.00000000
  0
VERTEX
  8
0
 10
0.00007252
 20
4.00000000
  0
SEQEND
  0
POLYLINE
  8
0
 66
   1
 70
    1
  0
VERTEX
  8
0
 10
6.99513156
 20
0.42889044
 42
-0.41421356
  0
VERTEX
  8
0
 10
7.05263156
 20
0.37139044
 42
-0.41421356
  0
VERTEX
  8
0
 10
6.99513156
 20
0.31389044
 42
-0.41421356
  0
VERTEX
  8
0
 10
6.93763156
 20
0.37139044
 42
-0.41421356
  0
VERTEX
  8
0
 10
6.99513156
 20
0.42889044
  0
SEQEND
  0
POLYLINE
  8
0
 66
   1
 70
    1
  0
VERTEX
  8
0
 10
7.34257251
 20
1.30389044
 42
-0.41421356
  0
VERTEX
  8
0
 10
7.40007251
 20
1.24639044
 42
-0.41421356
  0
VERTEX
  8
0
 10
7.34257251
 20
1.18889044
 42
-0.41421356
  0
VERTEX
  8
0
 10
7.28507250
 20
1.24639044
 42
-0.41421356
  0
VERTEX
  8
0
 10
7.34257251
 20
1.30389044
  0
SEQEND
  0
POLYLINE
  8
0
 66
   1
 70
    1
  0
VERTEX
  8
0
 10
6.39769062
 20
1.30389044
 42
-0.41421356
  0
VERTEX
  8
0
 10
6.45519062
 20
1.24639044
 42
-0.41421356
  0
VERTEX
  8
0
 10
6.39769062
 20
1.18889044
 42
-0.41421356
  0
VERTEX
  8
0
 10
6.34019062
 20
1.24639044
 42
-0.41421356
  0
VERTEX
  8
0
 10
6.39769062
 20
1.30389044
  0
SEQEND
  0
POLYLINE
  8
0
 66
   1
 70
    1
  0
VERTEX
  8
0
 10
7.34201671
 20
3.30389044
 42
-0.41421356
  0
VERTEX
  8
0
 10
7.39951671
 20
3.24639044
 42
-0.41421356
  0
VERTEX
  8
0
 10
7.34201671
 20
3.18889044
 42
-0.41421356
  0
VERTEX
  8
0
 10
7.28451671
 20
3.24639044
 42
-0.41421356
  0
VERTEX
  8
0
 10
7.34201671
 20
3.30389044
  0
SEQEND
  0
POLYLINE
  8
0
 66
   1
 70
    1
  0
VERTEX
  8
0
 10
6.39713482
 20
3.30389044
 42
-0.41421356
  0
VERTEX
  8
0
 10
6.45463482
 20
3.24639044
 42
-0.41421356
  0
VERTEX
  8
0
 10
6.39713482
 20
3.18889044
 42
-0.41421356
  0
VERTEX
  8
0
 10
6.33963482
 20
3.24639044
 42
-0.41421356
  0
VERTEX
  8
0
 10
6.39713482
 20
3.30389044
  0
SEQEND
  0
POLYLINE
  8
0
 66
   1
 70
    1
  0
VERTEX
  8
0
 10
7.12013482
 20
2.43135107
 42
-0.41421356
  0
VERTEX
  8
0
 10
7.17763482
 20
2.37385107
 42
-0.41421356
  0
VERTEX
  8
0
 10
7.12013482
 20
2.31635107
 42
-0.41421356
  0
VERTEX
  8
0
 10
7.06263482
 20
2.37385107
 42
-0.41421356
  0
VERTEX
  8
0
 10
7.12013482
 20
2.43135107
  0
SEQEND
  0
POLYLINE
  8
0
 66
   1
 70
    1
  0
VERTEX
  8
0
 10
9.83270795
 20
7.51528210
 42
-0.41421356
  0
VERTEX
  8
0
 10
9.89020794
 20
7.45778210
 42
-0.41421356
  0
VERTEX
  8
0
 10
9.83270795
 20
7.40028210
 42
-0.41421356
  0
VERTEX
  8
0
 10
9.77520795
 20
7.45778210
 42
-0.41421356
  0
VERTEX
  8
0
 10
9.83270795
 20
7.51528210
  0
SEQEND
  0
POLYLINE
  8
0
 66
   1
 70
    1
  0
VERTEX
  8
0
 10
10.77758984
 20
7.51528210
 42
-0.41421356
  0
VERTEX
  8
0
 10
10.83508984
 20
7.45778210
 42
-0.41421356
  0
VERTEX
  8
0
 10
10.77758984
 20
7.40028210
 42
-0.41421356
  0
VERTEX
  8
0
 10
10.72008984
 20
7.45778210
 42
-0.41421356
  0
VERTEX
  8
0
 10
10.77758984
 20
7.51528210
  0
SEQEND
  0
POLYLINE
  8
0
 66
   1
 70
    1
  0
VERTEX
  8
0
 10
6.52269062
 20
1.92016997
 42
-0.41421356
  0
VERTEX
  8
0
 10
6.58019062
 20
1.86266997
 42
-0.41421356
  0
VERTEX
  8
0
 10
6.52269062
 20
1.80516997
 42
-0.41421356
  0
VERTEX
  8
0
 10
6.46519062
 20
1.86266997
 42
-0.41421356
  0
VERTEX
  8
0
 10
6.52269062
 20
1.92016997
  0
SEQEND
  0
POLYLINE
  8
0
 66
   1
 70
    1
  0
VERTEX
  8
0
 10
7.46757251
 20
1.92016997
 42
-0.41421356
  0
VERTEX
  8
0
 10
7.52507251
 20
1.86266997
 42
-0.41421356
  0
VERTEX
  8
0
 10
7.46757251
 20
1.80516997
 42
-0.41421356
  0
VERTEX
  8
0
 10
7.41007250
 20
1.86266997
 42
-0.41421356
  0
VERTEX
  8
0
 10
7.46757251
 20
1.92016997
  0
SEQEND
  0
POLYLINE
  8
0
 66
   1
 70
    1
  0
VERTEX
  8
0
 10
9.15611796
 20
6.81233960
 42
-0.41421356
  0
VERTEX
  8
0
 10
9.21361795
 20
6.75483960
 42
-0.41421356
  0
VERTEX
  8
0
 10
9.15611796
 20
6.69733960
 42
-0.41421356
  0
VERTEX
  8
0
 10
9.09861796
 20
6.75483960
 42
-0.41421356
  0
VERTEX
  8
0
 10
9.15611796
 20
6.81233960
  0
SEQEND
  0
POLYLINE
  8
0
 66
   1
 70
    1
  0
VERTEX
  8
0
 10
9.15611792
 20
7.75722148
 42
-0.41421356
  0
VERTEX
  8
0
 10
9.21361793
 20
7.69972148
 42
-0.41421356
  0
VERTEX
  8
0
 10
9.15611792
 20
7.64222148
 42
-0.41421356
  0
VERTEX
  8
0
 10
9.09861793
 20
7.69972148
 42
-0.41421356
  0
VERTEX
  8
0
 10
9.15611792
 20
7.75722148
  0
SEQEND
  0
POLYLINE
  8
0
 66
   1
 70
    1
  0
VERTEX
  8
0
 10
5.78949518
 20
7.88464968
  0
VERTEX
  8
0
 10
5.78949518
 20
3.88464968
  0
VERTEX
  8
0
 10
8.78949518
 20
3.88464968
  0
VERTEX
  8
0
 10
8.78949518
 20
7.88464968
  0
VERTEX
  8
0
 10
5.78949518
 20
7.88464968
  0
SEQEND
  0
POLYLINE
  8
0
 66
   1
 70
    1
  0
VERTEX
  8
0
 10
11.09672420
 20
5.98045464
 42
-0.41421356
  0
VERTEX
  8
0
 10
11.15422420
 20
5.92295464
 42
-0.41421356
  0
VERTEX
  8
0
 10
11.09672420
 20
5.86545464
 42
-0.41421356
  0
VERTEX
  8
0
 10
11.03922420
 20
5.92295464
 42
-0.41421356
  0
VERTEX
  8
0
 10
11.09672420
 20
5.98045464
  0
SEQEND
  0
POLYLINE
  8
0
 66
   1
 70
    1
  0
VERTEX
  8
0
 10
3.89957757
 20
2.58118468
 42
-0.41421356
  0
VERTEX
  8
0
 10
3.95457757
 20
2.52618468
 42
-0.41421356
  0
VERTEX
  8
0
 10
3.89957757
 20
2.47118468
 42
-0.41421356
  0
VERTEX
  8
0
 10
3.84457757
 20
2.52618468
 42
-0.41421356
  0
VERTEX
  8
0
 10
3.89957757
 20
2.58118468
  0
SEQEND
  0
POLYLINE
  8
0
 66
   1
 70
    1
  0
VERTEX
  8
0
 10
3.89883626
 20
3.52606627
 42
-0.41421356
  0
VERTEX
  8
0
 10
3.95383626
 20
3.47106627
 42
-0.41421356
  0
VERTEX
  8
0
 10
3.89883626
 20
3.41606627
 42
-0.41421356
  0
VERTEX
  8
0
 10
3.84383626
 20
3.47106627
 42
-0.41421356
  0
VERTEX
  8
0
 10
3.89883626
 20
3.52606627
  0
SEQEND
  0
POLYLINE
  8
0
 66
   1
 70
    1
  0
VERTEX
  8
0
 10
4.51511592
 20
3.52654986
 42
-0.41421356
  0
VERTEX
  8
0
 10
4.57011592
 20
3.47154986
 42
-0.41421356
  0
VERTEX
  8
0
 10
4.51511592
 20
3.41654986
 42
-0.41421356
  0
VERTEX
  8
0
 10
4.46011592
 20
3.47154986
 42
-0.41421356
  0
VERTEX
  8
0
 10
4.51511592
 20
3.52654986
  0
SEQEND
  0
POLYLINE
  8
0
 66
   1
 70
    1
  0
VERTEX
  8
0
 10
4.51585723
 20
2.58166828
 42
-0.41421356
  0
VERTEX
  8
0
 10
4.57085723
 20
2.52666828
 42
-0.41421356
  0
VERTEX
  8
0
 10
4.51585723
 20
2.47166828
 42
-0.41421356
  0
VERTEX
  8
0
 10
4.46085723
 20
2.52666828
 42
-0.41421356
  0
VERTEX
  8
0
 10
4.51585723
 20
2.58166828
  0
SEQEND
  0
POLYLINE
  8
0
 66
   1
 70
    1
  0
VERTEX
  8
0
 10
5.39048622
 20
3.05479557
 42
-0.41421356
  0
VERTEX
  8
0
 10
5.44548622
 20
2.99979557
 42
-0.41421356
  0
VERTEX
  8
0
 10
5.39048622
 20
2.94479557
 42
-0.41421356
  0
VERTEX
  8
0
 10
5.33548622
 20
2.99979557
 42
-0.41421356
  0
VERTEX
  8
0
 10
5.39048622
 20
3.05479557
  0
SEQEND
  0
POLYLINE
  8
0
 66
   1
 70
    1
  0
VERTEX
  8
0
 10
2.03125000
 20
4.17995212
  0
VERTEX
  8
0
 10
2.03125000
 20
4.30495212
  0
VERTEX
  8
0
 10
2.28125000
 20
4.30495212
  0
VERTEX
  8
0
 10
2.28125000
 20
4.17995212
  0
VERTEX
  8
0
 10
2.03125000
 20
4.17995212
  0
SEQEND
  0
POLYLINE
  8
0
 66
   1
 70
    1
  0
VERTEX
  8
0
 10
0.53125000
 20
4.17995212
  0
VERTEX
  8
0
 10
0.78125000
 20
4.17995212
  0
VERTEX
  8
0
 10
0.78125000
 20
4.30495212
  0
VERTEX
  8
0
 10
0.53125000
 20
4.30495212
  0
VERTEX
  8
0
 10
0.53125000
 20
4.17995212
  0
SEQEND
  0
POLYLINE
  8
0
 66
   1
 70
    1
  0
VERTEX
  8
0
 10
0.00000000
 20
7.89870212
  0
VERTEX
  8
0
 10
0.00000000
 20
4.08620212
  0
VERTEX
  8
0
 10
2.81250000
 20
4.08620212
  0
VERTEX
  8
0
 10
2.81250000
 20
7.89870212
  0
VERTEX
  8
0
 10
0.00000000
 20
7.89870212
  0
SEQEND
  0
POLYLINE
  8
0
 66
   1
 70
    1
  0
VERTEX
  8
0
 10
9.12202823
 20
5.77669480
 42
0.41421356
  0
VERTEX
  8
0
 10
9.33802822
 20
5.99269480
  0
VERTEX
  8
0
 10
9.33802822
 20
6.01069480
 42
-0.41421356
  0
VERTEX
  8
0
 10
9.55402823
 20
6.22669480
  0
VERTEX
  8
0
 10
9.63802823
 20
6.22669480
  0
VERTEX
  8
0
 10
9.63802823
 20
5.77669480
  0
VERTEX
  8
0
 10
9.63802823
 20
5.47669480
  0
VERTEX
  8
0
 10
9.33802822
 20
5.47669480
  0
VERTEX
  8
0
 10
8.88802823
 20
5.47669480
  0
VERTEX
  8
0
 10
8.88802823
 20
5.56069480
 42
-0.41421356
  0
VERTEX
  8
0
 10
9.10402822
 20
5.77669480
  0
VERTEX
  8
0
 10
9.12202823
 20
5.77669480
  0
SEQEND
  0
POLYLINE
  8
0
 66
   1
 70
    1
  0
VERTEX
  8
0
 10
9.40411681
 20
6.24817744
 42
0.41421356
  0
VERTEX
  8
0
 10
9.18811682
 20
6.03217744
  0
VERTEX
  8
0
 10
9.18811682
 20
6.01417744
 42
-0.41421356
  0
VERTEX
  8
0
 10
8.97211681
 20
5.79817744
  0
VERTEX
  8
0
 10
8.88811681
 20
5.79817744
  0
VERTEX
  8
0
 10
8.88811681
 20
6.24817744
  0
VERTEX
  8
0
 10
8.88811681
 20
6.54817744
  0
VERTEX
  8
0
 10
9.18811682
 20
6.54817744
  0
VERTEX
  8
0
 10
9.63811681
 20
6.54817744
  0
VERTEX
  8
0
 10
9.63811681
 20
6.46417744
 42
-0.41421356
  0
VERTEX
  8
0
 10
9.42211682
 20
6.24817744
  0
VERTEX
  8
0
 10
9.40411681
 20
6.24817744
  0
SEQEND
  0
POLYLINE
  8
0
 66
   1
 70
    1
  0
VERTEX
  8
0
 10
10.21309640
 20
6.17752420
 42
0.41421356
  0
VERTEX
  8
0
 10
9.99709641
 20
5.96152420
  0
VERTEX
  8
0
 10
9.99709641
 20
5.94352420
 42
-0.41421356
  0
VERTEX
  8
0
 10
9.78109640
 20
5.72752420
  0
VERTEX
  8
0
 10
9.69709640
 20
5.72752420
  0
VERTEX
  8
0
 10
9.69709640
 20
6.17752420
  0
VERTEX
  8
0
 10
9.69709640
 20
6.47752420
  0
VERTEX
  8
0
 10
9.99709641
 20
6.47752420
  0
VERTEX
  8
0
 10
10.44709640
 20
6.47752420
  0
VERTEX
  8
0
 10
10.44709640
 20
6.39352420
 42
-0.41421356
  0
VERTEX
  8
0
 10
10.23109641
 20
6.17752420
  0
VERTEX
  8
0
 10
10.21309640
 20
6.17752420
  0
SEQEND
  0
POLYLINE
  8
0
 66
   1
 70
    1
  0
VERTEX
  8
0
 10
10.07584696
 20
5.77669480
 42
0.41421356
  0
VERTEX
  8
0
 10
10.29184695
 20
5.99269480
  0
VERTEX
  8
0
 10
10.29184695
 20
6.01069480
 42
-0.41421356
  0
VERTEX
  8
0
 10
10.50784696
 20
6.22669480
  0
VERTEX
  8
0
 10
10.59184696
 20
6.22669480
  0
VERTEX
  8
0
 10
10.59184696
 20
5.77669480
  0
VERTEX
  8
0
 10
10.59184696
 20
5.47669480
  0
VERTEX
  8
0
 10
10.29184695
 20
5.47669480
  0
VERTEX
  8
0
 10
9.84184696
 20
5.47669480
  0
VERTEX
  8
0
 10
9.84184696
 20
5.56069480
 42
-0.41421356
  0
VERTEX
  8
0
 10
10.05784695
 20
5.77669480
  0
VERTEX
  8
0
 10
10.07584696
 20
5.77669480
  0
SEQEND
  0
POLYLINE
  8
0
 66
   1
 70
    1
  0
VERTEX
  8
0
 10
4.89977150
 20
4.17995212
  0
VERTEX
  8
0
 10
4.89977150
 20
4.30495212
  0
VERTEX
  8
0
 10
5.14977150
 20
4.30495212
  0
VERTEX
  8
0
 10
5.14977150
 20
4.17995212
  0
VERTEX
  8
0
 10
4.89977150
 20
4.17995212
  0
SEQEND
  0
POLYLINE
  8
0
 66
   1
 70
    1
  0
VERTEX
  8
0
 10
3.39977150
 20
4.17995212
  0
VERTEX
  8
0
 10
3.64977150
 20
4.17995212
  0
VERTEX
  8
0
 10
3.64977150
 20
4.30495212
  0
VERTEX
  8
0
 10
3.39977150
 20
4.30495212
  0
VERTEX
  8
0
 10
3.39977150
 20
4.17995212
  0
SEQEND
  0
POLYLINE
  8
0
 66
   1
 70
    1
  0
VERTEX
  8
0
 10
2.86852150
 20
7.89870212
  0
VERTEX
  8
0
 10
2.86852150
 20
4.08620212
  0
VERTEX
  8
0
 10
5.68102150
 20
4.08620212
  0
VERTEX
  8
0
 10
5.68102150
 20
7.89870212
  0
VERTEX
  8
0
 10
2.86852150
 20
7.89870212
  0
SEQEND
  0
POLYLINE
  8
0
 66
   1
 70
    1
  0
VERTEX
  8
0
 10
8.92907207
 20
6.59728039
  0
VERTEX
  8
0
 10
9.36657206
 20
6.59728039
  0
VERTEX
  8
0
 10
9.36657206
 20
6.85228039
  0
VERTEX
  8
0
 10
9.42907206
 20
6.85228039
  0
VERTEX
  8
0
 10
9.42907206
 20
7.60228039
  0
VERTEX
  8
0
 10
9.36657206
 20
7.60228039
  0
VERTEX
  8
0
 10
9.36657206
 20
7.85728039
  0
VERTEX
  8
0
 10
8.92907207
 20
7.85728039
  0
VERTEX
  8
0
 10
8.92907207
 20
6.59728039
  0
SEQEND
  0
POLYLINE
  8
0
 66
   1
 70
    1
  0
VERTEX
  8
0
 10
8.68873327
 20
0.18740023
  0
VERTEX
  8
0
 10
8.69623351
 20
0.18740023
  0
VERTEX
  8
0
 10
8.70543580
 20
0.18693557
  0
VERTEX
  8
0
 10
8.71437225
 20
0.18557175
  0
VERTEX
  8
0
 10
8.72299765
 20
0.18335401
  0
VERTEX
  8
0
 10
8.73126674
 20
0.18032758
  0
VERTEX
  8
0
 10
8.73913428
 20
0.17653771
  0
VERTEX
  8
0
 10
8.74655504
 20
0.17202964
  0
VERTEX
  8
0
 10
8.75348377
 20
0.16684860
  0
VERTEX
  8
0
 10
8.75987523
 20
0.16103984
  0
VERTEX
  8
0
 10
8.76568419
 20
0.15464858
  0
VERTEX
  8
0
 10
8.77086540
 20
0.14772008
  0
VERTEX
  8
0
 10
8.77537362
 20
0.14029957
  0
VERTEX
  8
0
 10
8.77916362
 20
0.13243229
  0
VERTEX
  8
0
 10
8.78219014
 20
0.12416347
  0
VERTEX
  8
0
 10
8.78440796
 20
0.11553837
  0
VERTEX
  8
0
 10
8.78577182
 20
0.10660220
  0
VERTEX
  8
0
 10
8.78623650
 20
0.09740023
  0
VERTEX
  8
0
 10
8.78623650
 20
0.06240023
  0
VERTEX
  8
0
 10
8.59873028
 20
0.06240023
  0
VERTEX
  8
0
 10
8.47372614
 20
0.06240023
  0
VERTEX
  8
0
 10
8.47372614
 20
0.18740023
  0
VERTEX
  8
0
 10
8.47372614
 20
3.31240023
  0
VERTEX
  8
0
 10
8.47372614
 20
3.43740023
  0
VERTEX
  8
0
 10
8.59873028
 20
3.43740023
  0
VERTEX
  8
0
 10
8.78623650
 20
3.43740023
  0
VERTEX
  8
0
 10
8.78623650
 20
3.40240023
  0
VERTEX
  8
0
 10
8.78577182
 20
3.39319825
  0
VERTEX
  8
0
 10
8.78440796
 20
3.38426209
  0
VERTEX
  8
0
 10
8.78219014
 20
3.37563698
  0
VERTEX
  8
0
 10
8.77916362
 20
3.36736817
  0
VERTEX
  8
0
 10
8.77537362
 20
3.35950088
  0
VERTEX
  8
0
 10
8.77086540
 20
3.35208037
  0
VERTEX
  8
0
 10
8.76568419
 20
3.34515187
  0
VERTEX
  8
0
 10
8.75987523
 20
3.33876062
  0
VERTEX
  8
0
 10
8.75348377
 20
3.33295185
  0
VERTEX
  8
0
 10
8.74655504
 20
3.32777081
  0
VERTEX
  8
0
 10
8.73913428
 20
3.32326274
  0
VERTEX
  8
0
 10
8.73126674
 20
3.31947287
  0
VERTEX
  8
0
 10
8.72299765
 20
3.31644645
  0
VERTEX
  8
0
 10
8.71437225
 20
3.31422871
  0
VERTEX
  8
0
 10
8.70543580
 20
3.31286489
  0
VERTEX
  8
0
 10
8.69623351
 20
3.31240023
  0
VERTEX
  8
0
 10
8.68873327
 20
3.31240023
  0
VERTEX
  8
0
 10
8.67953098
 20
3.31193557
  0
VERTEX
  8
0
 10
8.67059453
 20
3.31057175
  0
VERTEX
  8
0
 10
8.66196913
 20
3.30835401
  0
VERTEX
  8
0
 10
8.65370004
 20
3.30532758
  0
VERTEX
  8
0
 10
8.64583250
 20
3.30153771
  0
VERTEX
  8
0
 10
8.63841174
 20
3.29702964
  0
VERTEX
  8
0
 10
8.63148301
 20
3.29184860
  0
VERTEX
  8
0
 10
8.62509155
 20
3.28603984
  0
VERTEX
  8
0
 10
8.61928259
 20
3.27964858
  0
VERTEX
  8
0
 10
8.61410138
 20
3.27272008
  0
VERTEX
  8
0
 10
8.60959316
 20
3.26529957
  0
VERTEX
  8
0
 10
8.60580316
 20
3.25743229
  0
VERTEX
  8
0
 10
8.60277664
 20
3.24916347
  0
VERTEX
  8
0
 10
8.60055882
 20
3.24053837
  0
VERTEX
  8
0
 10
8.59919496
 20
3.23160220
  0
VERTEX
  8
0
 10
8.59873028
 20
3.22240023
  0
VERTEX
  8
0
 10
8.59873028
 20
2.61663893
  0
VERTEX
  8
0
 10
8.59913663
 20
2.61260823
  0
VERTEX
  8
0
 10
8.60030203
 20
2.60885403
  0
VERTEX
  8
0
 10
8.60458834
 20
2.60249680
  0
VERTEX
  8
0
 10
8.61094579
 20
2.59821063
  0
VERTEX
  8
0
 10
8.61470011
 20
2.59704526
  0
VERTEX
  8
0
 10
8.61873095
 20
2.59663893
  0
VERTEX
  8
0
 10
8.70373376
 20
2.59663893
  0
VERTEX
  8
0
 10
8.70776459
 20
2.59623260
  0
VERTEX
  8
0
 10
8.71151892
 20
2.59506723
  0
VERTEX
  8
0
 10
8.71787637
 20
2.59078107
  0
VERTEX
  8
0
 10
8.72216267
 20
2.58442383
  0
VERTEX
  8
0
 10
8.72332808
 20
2.58066963
  0
VERTEX
  8
0
 10
8.72373443
 20
2.57663893
  0
VERTEX
  8
0
 10
8.72373443
 20
2.18375949
  0
VERTEX
  8
0
 10
8.72332808
 20
2.17972879
  0
VERTEX
  8
0
 10
8.72216267
 20
2.17597458
  0
VERTEX
  8
0
 10
8.71787637
 20
2.16961735
  0
VERTEX
  8
0
 10
8.71151892
 20
2.16533119
  0
VERTEX
  8
0
 10
8.70776459
 20
2.16416582
  0
VERTEX
  8
0
 10
8.70373376
 20
2.16375949
  0
VERTEX
  8
0
 10
8.61873095
 20
2.16375949
  0
VERTEX
  8
0
 10
8.61470011
 20
2.16335316
  0
VERTEX
  8
0
 10
8.61094579
 20
2.16218779
  0
VERTEX
  8
0
 10
8.60458834
 20
2.15790162
  0
VERTEX
  8
0
 10
8.60030203
 20
2.15154439
  0
VERTEX
  8
0
 10
8.59913663
 20
2.14779019
  0
VERTEX
  8
0
 10
8.59873028
 20
2.14375949
  0
VERTEX
  8
0
 10
8.59873028
 20
1.58240023
  0
VERTEX
  8
0
 10
8.59913663
 20
1.57836953
  0
VERTEX
  8
0
 10
8.60030203
 20
1.57461532
  0
VERTEX
  8
0
 10
8.60458834
 20
1.56825809
  0
VERTEX
  8
0
 10
8.61094579
 20
1.56397193
  0
VERTEX
  8
0
 10
8.61470011
 20
1.56280656
  0
VERTEX
  8
0
 10
8.61873095
 20
1.56240023
  0
VERTEX
  8
0
 10
8.70373376
 20
1.56240023
  0
VERTEX
  8
0
 10
8.70776459
 20
1.56199390
  0
VERTEX
  8
0
 10
8.71151892
 20
1.56082853
  0
VERTEX
  8
0
 10
8.71787637
 20
1.55654236
  0
VERTEX
  8
0
 10
8.72216267
 20
1.55018513
  0
VERTEX
  8
0
 10
8.72332808
 20
1.54643093
  0
VERTEX
  8
0
 10
8.72373443
 20
1.54240023
  0
VERTEX
  8
0
 10
8.72373443
 20
0.89490023
  0
VERTEX
  8
0
 10
8.72332808
 20
0.89086953
  0
VERTEX
  8
0
 10
8.72216267
 20
0.88711532
  0
VERTEX
  8
0
 10
8.71787637
 20
0.88075809
  0
VERTEX
  8
0
 10
8.71151892
 20
0.87647193
  0
VERTEX
  8
0
 10
8.70776459
 20
0.87530656
  0
VERTEX
  8
0
 10
8.70373376
 20
0.87490023
  0
VERTEX
  8
0
 10
8.61873095
 20
0.87490023
  0
VERTEX
  8
0
 10
8.61470011
 20
0.87449390
  0
VERTEX
  8
0
 10
8.61094579
 20
0.87332853
  0
VERTEX
  8
0
 10
8.60458834
 20
0.86904236
  0
VERTEX
  8
0
 10
8.60030203
 20
0.86268513
  0
VERTEX
  8
0
 10
8.59913663
 20
0.85893093
  0
VERTEX
  8
0
 10
8.59873028
 20
0.85490023
  0
VERTEX
  8
0
 10
8.59873028
 20
0.27740023
  0
VERTEX
  8
0
 10
8.59919496
 20
0.26819825
  0
VERTEX
  8
0
 10
8.60055882
 20
0.25926209
  0
VERTEX
  8
0
 10
8.60277664
 20
0.25063698
  0
VERTEX
  8
0
 10
8.60580316
 20
0.24236817
  0
VERTEX
  8
0
 10
8.60959316
 20
0.23450088
  0
VERTEX
  8
0
 10
8.61410138
 20
0.22708037
  0
VERTEX
  8
0
 10
8.61928259
 20
0.22015187
  0
VERTEX
  8
0
 10
8.62509155
 20
0.21376062
  0
VERTEX
  8
0
 10
8.63148301
 20
0.20795185
  0
VERTEX
  8
0
 10
8.63841174
 20
0.20277081
  0
VERTEX
  8
0
 10
8.64583250
 20
0.19826274
  0
VERTEX
  8
0
 10
8.65370004
 20
0.19447287
  0
VERTEX
  8
0
 10
8.66196913
 20
0.19144645
  0
VERTEX
  8
0
 10
8.67059453
 20
0.18922871
  0
VERTEX
  8
0
 10
8.67953098
 20
0.18786489
  0
VERTEX
  8
0
 10
8.68873327
 20
0.18740023
  0
SEQEND
  0
ENDSEC
  0
EOF
