<?xml version="1.0" encoding="UTF-8" standalone="no"?>
<svg
   xmlns:dc="http://purl.org/dc/elements/1.1/"
   xmlns:cc="http://creativecommons.org/ns#"
   xmlns:rdf="http://www.w3.org/1999/02/22-rdf-syntax-ns#"
   xmlns:svg="http://www.w3.org/2000/svg"
   xmlns="http://www.w3.org/2000/svg"
   xmlns:sodipodi="http://sodipodi.sourceforge.net/DTD/sodipodi-0.dtd"
   xmlns:inkscape="http://www.inkscape.org/namespaces/inkscape"
   version="1.1"
   width="595.27557"
   height="878.74017"
   id="svg314"
   viewBox="0 0 595.27557 878.74017"
   sodipodi:docname="Spices box file cdr and dxf free vector download for Laser cut.svg"
   inkscape:version="0.92.4 (5da689c313, 2019-01-14)">
  <metadata
     id="metadata320">
    <rdf:RDF>
      <cc:Work
         rdf:about="">
        <dc:format>image/svg+xml</dc:format>
        <dc:type
           rdf:resource="http://purl.org/dc/dcmitype/StillImage" />
        <dc:title></dc:title>
      </cc:Work>
    </rdf:RDF>
  </metadata>
  <defs
     id="defs318" />
  <sodipodi:namedview
     pagecolor="#ffffff"
     bordercolor="#666666"
     borderopacity="1"
     objecttolerance="10"
     gridtolerance="10"
     guidetolerance="10"
     inkscape:pageopacity="0"
     inkscape:pageshadow="2"
     inkscape:window-width="640"
     inkscape:window-height="480"
     id="namedview316"
     showgrid="false"
     inkscape:zoom="0.77383511"
     inkscape:cx="297.63779"
     inkscape:cy="439.37009"
     inkscape:window-x="0"
     inkscape:window-y="0"
     inkscape:window-maximized="1"
     inkscape:current-layer="svg314" />
  <path
     d="m 439.8381,740.7723 v 73.1338 h -7.3701 v -73.1338 z"
     style="fill:none;stroke:#e63315;stroke-width:0.56690001;stroke-linecap:butt;stroke-linejoin:miter;stroke-dasharray:none"
     id="path10"
     inkscape:connector-curvature="0" />
  <path
     d="m 453.4376,827.5056 h 73.1338 v 7.3701 h -73.1338 z"
     style="fill:none;stroke:#e63315;stroke-width:0.56690001;stroke-linecap:butt;stroke-linejoin:miter;stroke-dasharray:none"
     id="path12"
     inkscape:connector-curvature="0" />
  <path
     d="m 526.5714,727.1728 h -73.1338 v -7.3701 h 73.1338 z"
     style="fill:none;stroke:#e63315;stroke-width:0.56690001;stroke-linecap:butt;stroke-linejoin:miter;stroke-dasharray:none"
     id="path14"
     inkscape:connector-curvature="0" />
  <path
     d="m 575.0439,762.8825 h -7.937 v -22.1102 h 7.937 c 0,-26.504 -21.9685,-48.4725 -48.4725,-48.4725 v 7.9371 h -22.1102 v -7.9371 h -28.9134 v 7.9371 h -22.1102 v -7.9371 c -26.504,0 -48.4725,21.9685 -48.4725,48.4725 h 7.937 v 22.1102 h -7.937 v 28.9134 h 7.937 v 22.1102 h -7.937 c 0,26.504 21.9685,48.4725 48.4725,48.4725 v -7.937 h 22.1102 v 7.937 h 28.9134 v -7.937 h 22.1102 v 7.937 c 26.504,0 48.4725,-21.9685 48.4725,-48.4725 h -7.937 v -22.1102 h 7.937 z"
     style="fill:none;stroke:#1b1918;stroke-width:0.56690001;stroke-linecap:butt;stroke-linejoin:miter;stroke-dasharray:none"
     id="path16"
     inkscape:connector-curvature="0" />
  <path
     d="m 540.1709,813.9061 v -73.1338 h 7.3701 v 73.1338 z"
     style="fill:none;stroke:#e63315;stroke-width:0.56690001;stroke-linecap:butt;stroke-linejoin:miter;stroke-dasharray:none"
     id="path18"
     inkscape:connector-curvature="0" />
  <path
     d="m 244.7994,730.2719 v 13.0326 h -7.37 v -20.4027 h 20.4026 v 7.3701 z"
     style="fill:none;stroke:#e63315;stroke-width:0.56690001;stroke-linecap:butt;stroke-linejoin:miter;stroke-dasharray:none"
     id="path20"
     inkscape:connector-curvature="0" />
  <path
     d="m 332.0997,730.2719 v -7.3701 h 20.4027 v 20.4027 h -7.3701 v -13.0326 z"
     style="fill:none;stroke:#e63315;stroke-width:0.56690001;stroke-linecap:butt;stroke-linejoin:miter;stroke-dasharray:none"
     id="path22"
     inkscape:connector-curvature="0" />
  <path
     d="m 345.1323,817.5722 h 7.3701 v 20.4026 h -20.4027 v -7.37 h 13.0326 z"
     style="fill:none;stroke:#e63315;stroke-width:0.56690001;stroke-linecap:butt;stroke-linejoin:miter;stroke-dasharray:none"
     id="path24"
     inkscape:connector-curvature="0" />
  <path
     d="m 244.7994,817.5722 v 13.0326 h 13.0326 v 7.37 h -20.4026 v -20.4026 z"
     style="fill:none;stroke:#e63315;stroke-width:0.56690001;stroke-linecap:butt;stroke-linejoin:miter;stroke-dasharray:none"
     id="path26"
     inkscape:connector-curvature="0" />
  <path
     d="m 258.3989,857.5407 h 73.1339 v 7.937 c 26.5039,0 48.4724,-21.9685 48.4724,-48.4724 h -7.937 v -73.1339 h 7.937 c 0,-26.5039 -21.9685,-48.4724 -48.4724,-48.4724 v 7.937 h -73.1339 v -7.937 c -26.5039,0 -48.4724,21.9685 -48.4724,48.4724 h 7.937 v 73.1339 h -7.937 c 0,26.5039 21.9685,48.4724 48.4724,48.4724 z"
     style="fill:none;stroke:#1b1918;stroke-width:0.56690001;stroke-linecap:butt;stroke-linejoin:miter;stroke-dasharray:none"
     id="path28"
     inkscape:connector-curvature="0" />
  <path
     d="m 294.9659,722.3131 c 32.1018,0 58.1252,26.0234 58.1252,58.1252 0,32.1018 -26.0234,58.1253 -58.1252,58.1253 -32.1018,0 -58.1253,-26.0235 -58.1253,-58.1253 0,-32.1018 26.0235,-58.1252 58.1253,-58.1252 z"
     style="fill:none;stroke:#e63315;stroke-width:0.56690001;stroke-linecap:butt;stroke-linejoin:miter;stroke-dasharray:none"
     id="path30"
     inkscape:connector-curvature="0" />
  <path
     d="m 283.0046,610.8295 c -0.0925,19.6073 15.9188,35.7705 35.5261,35.863 l 73.7,0.3479 c 19.6073,0.0925 35.7705,-15.9188 35.8631,-35.5262 l 0.3478,-73.6999 c 0.0925,-19.6073 -15.9188,-35.7705 -35.5261,-35.8631 l -73.7,-0.3478 c -19.6073,-0.0926 -35.7705,15.9188 -35.8631,35.5261 z"
     style="fill:none;stroke:#1b1918;stroke-width:0.56690001;stroke-linecap:butt;stroke-linejoin:miter;stroke-dasharray:none"
     id="path32"
     inkscape:connector-curvature="0" />
  <path
     d="m 159.9063,817.2108 h 7.3701 v 20.4026 h -20.4026 v -7.3701 h 13.0325 z"
     style="fill:none;stroke:#e63315;stroke-width:0.56690001;stroke-linecap:butt;stroke-linejoin:miter;stroke-dasharray:none"
     id="path34"
     inkscape:connector-curvature="0" />
  <path
     d="m 59.5735,817.2108 v 13.0325 H 72.606 v 7.3701 H 52.2034 v -20.4026 z"
     style="fill:none;stroke:#e63315;stroke-width:0.56690001;stroke-linecap:butt;stroke-linejoin:miter;stroke-dasharray:none"
     id="path36"
     inkscape:connector-curvature="0" />
  <path
     d="M 52.2034,722.5404 H 72.606 v 7.3701 H 59.5735 v 13.0326 h -7.3701 z"
     style="fill:none;stroke:#e63315;stroke-width:0.56690001;stroke-linecap:butt;stroke-linejoin:miter;stroke-dasharray:none"
     id="path38"
     inkscape:connector-curvature="0" />
  <path
     d="m 186.8423,816.9273 v -73.7008 c 0,-22.123 -18.129,-40.2519 -40.252,-40.2519 H 72.8895 c -22.123,0 -40.252,18.1289 -40.252,40.2519 v 73.7008 c 0,22.123 18.129,40.252 40.252,40.252 h 73.7008 c 22.123,0 40.252,-18.129 40.252,-40.252 z"
     style="fill:none;stroke:#1b1918;stroke-width:0.56690001;stroke-linecap:butt;stroke-linejoin:miter;stroke-dasharray:none"
     id="path40"
     inkscape:connector-curvature="0" />
  <path
     d="m 159.9063,742.9431 v -13.0326 h -13.0325 v -7.3701 h 20.4026 v 20.4027 z"
     style="fill:none;stroke:#e63315;stroke-width:0.56690001;stroke-linecap:butt;stroke-linejoin:miter;stroke-dasharray:none"
     id="path42"
     inkscape:connector-curvature="0" />
  <path
     d="m 80.1797,720.9811 c 8.8939,-4.4575 18.9343,-6.9665 29.5602,-6.9665 10.6257,0 20.6663,2.509 29.5603,6.9665 l -3.5516,7.0999 c 11.2184,5.6222 20.365,14.7688 25.9872,25.9872 l 7.0999,-3.5515 c 4.4575,8.8939 6.9665,18.9343 6.9665,29.5602 0,10.626 -2.509,20.6666 -6.9665,29.5603 l -7.0999,-3.5516 c -5.6222,11.2184 -14.7688,20.365 -25.9872,25.9872 l 3.5516,7.1 c -8.894,4.4574 -18.9346,6.9664 -29.5603,6.9664 -10.6259,0 -20.6665,-2.509 -29.5602,-6.9664 l 3.5515,-7.1 C 72.5128,826.4506 63.3662,817.304 57.744,806.0856 l -7.0999,3.5516 c -4.4575,-8.894 -6.9665,-18.9346 -6.9665,-29.5603 0,-10.6257 2.509,-20.6663 6.9665,-29.5602 l 7.0999,3.5515 c 5.6222,-11.2184 14.7688,-20.365 25.9872,-25.9872 z"
     style="fill:none;stroke:#e63315;stroke-width:0.56690001;stroke-linecap:butt;stroke-linejoin:miter;stroke-dasharray:none"
     id="path44"
     inkscape:connector-curvature="0" />
  <path
     d="m 543.0433,526.4844 v -7.3701 h 20.4026 v 20.4027 h -7.3701 v -13.0326 z"
     style="fill:none;stroke:#e63315;stroke-width:0.56690001;stroke-linecap:butt;stroke-linejoin:miter;stroke-dasharray:none"
     id="path46"
     inkscape:connector-curvature="0" />
  <path
     d="m 556.0758,613.7847 h 7.3701 v 20.4026 h -20.4026 v -7.37 h 13.0325 z"
     style="fill:none;stroke:#e63315;stroke-width:0.56690001;stroke-linecap:butt;stroke-linejoin:miter;stroke-dasharray:none"
     id="path48"
     inkscape:connector-curvature="0" />
  <path
     d="m 455.743,613.7847 v 13.0326 h 13.0326 v 7.37 h -20.4027 v -20.4026 z"
     style="fill:none;stroke:#e63315;stroke-width:0.56690001;stroke-linecap:butt;stroke-linejoin:miter;stroke-dasharray:none"
     id="path50"
     inkscape:connector-curvature="0" />
  <path
     d="m 448.3729,519.1143 h 20.4027 v 7.3701 H 455.743 v 13.0326 h -7.3701 z"
     style="fill:none;stroke:#e63315;stroke-width:0.56690001;stroke-linecap:butt;stroke-linejoin:miter;stroke-dasharray:none"
     id="path52"
     inkscape:connector-curvature="0" />
  <path
     d="m 476.3492,517.555 c 8.8939,-4.4575 18.9343,-6.9664 29.5602,-6.9664 v 7.937 c 22.7523,0 42.4517,13.0725 51.9959,32.1165 l 7.1,-3.5515 c 4.4574,8.894 6.9664,18.9343 6.9664,29.5602 h -7.937 c 0,22.7523 -13.0726,42.4517 -32.1166,51.9959 l 3.5516,7.1 c -8.894,4.4575 -18.9346,6.9664 -29.5603,6.9664 v -7.937 c -22.7523,0 -42.4516,-13.0725 -51.9959,-32.1165 l -7.0999,3.5515 c -4.4575,-8.894 -6.9665,-18.9346 -6.9665,-29.5603 h 7.9371 c 0,-22.7522 13.0725,-42.4516 32.1165,-51.9959 z"
     style="fill:none;stroke:#e63315;stroke-width:0.56690001;stroke-linecap:butt;stroke-linejoin:miter;stroke-dasharray:none"
     id="path54"
     inkscape:connector-curvature="0" />
  <path
     d="m 469.059,504.1054 c -19.6075,0 -35.695,16.0875 -35.695,35.695 v 73.7008 c 0,19.6076 16.0875,35.695 35.695,35.695 h 73.7008 c 19.6075,0 35.695,-16.0874 35.695,-35.695 v -73.7008 c 0,-19.6075 -16.0875,-35.695 -35.695,-35.695 z"
     style="fill:none;stroke:#1b1918;stroke-width:0.56690001;stroke-linecap:butt;stroke-linejoin:miter;stroke-dasharray:none"
     id="path56"
     inkscape:connector-curvature="0" />
  <path
     d="m 148.674,584.1185 -7.9369,-0.0375 c 0.0501,-10.6258 2.6064,-20.6542 7.1058,-29.5271 l 7.0831,3.585 c 9.634,-18.9987 29.3949,-31.9781 52.1469,-31.8707 l 0.0375,-7.937 c 10.6258,0.0502 20.6542,2.6065 29.527,7.1059 l -3.585,7.0831 c 18.9988,9.634 31.9782,29.3949 31.8708,52.1469 l 7.9369,0.0375 c -0.0501,10.6255 -2.6064,20.6542 -7.1058,29.527 l -7.0831,-3.585 c -9.634,18.9987 -29.3949,31.9782 -52.1469,31.8708 l -0.0375,7.9369 c -10.6255,-0.0501 -20.6542,-2.6064 -29.527,-7.1059 l 3.585,-7.083 C 161.546,626.6313 148.5666,606.8705 148.674,584.1185 Z"
     style="fill:none;stroke:#1b1918;stroke-width:0.56690001;stroke-linecap:butt;stroke-linejoin:miter;stroke-dasharray:none"
     id="path58"
     inkscape:connector-curvature="0" />
  <path
     d="m 212.4054,545.39 2.7592,-11.4518 7.165,1.7264 -2.7575,11.4456 c 15.428,5.4085 26.7344,20.2019 26.6529,37.4687 -0.008,1.7444 -0.1963,3.7371 -0.4236,5.4204 l 11.4518,2.7592 -1.7264,7.1653 -11.4456,-2.7575 c -5.4085,15.428 -20.2019,26.7343 -37.4687,26.6528 -1.7444,-0.008 -3.7371,-0.1965 -5.4204,-0.4238 l -2.7592,11.4518 -7.165,-1.7264 2.7574,-11.4456 c -15.428,-5.4085 -26.7346,-20.2016 -26.6531,-37.4684 0.008,-1.7444 0.1965,-3.7372 0.4239,-5.4205 l -11.4518,-2.7591 1.7264,-7.1653 11.4456,2.7574 c 5.4085,-15.428 20.2016,-26.7343 37.4684,-26.6528 1.7444,0.008 3.7374,0.1962 5.4207,0.4236 z"
     style="fill:none;stroke:#e63315;stroke-width:0.56690001;stroke-linecap:butt;stroke-linejoin:miter;stroke-dasharray:none"
     id="path60"
     inkscape:connector-curvature="0" />
  <path
     d="m 67.2787,648.1067 c 32.1014,0.1515 58.2474,-25.7488 58.3989,-57.8503 C 125.8291,558.155 99.9288,532.009 67.8273,531.8575 35.7259,531.706 9.5799,557.6063 9.4284,589.7078 c -0.1515,32.1014 25.7488,58.2474 57.8503,58.3989 z"
     style="fill:none;stroke:#1b1918;stroke-width:0.56690001;stroke-linecap:butt;stroke-linejoin:miter;stroke-dasharray:none"
     id="path62"
     inkscape:connector-curvature="0" />
  <path
     d="m 73.7608,551.0414 2.7678,-11.4887 7.4408,1.7927 -2.8086,11.6571 c 14.9901,5.6397 25.8986,20.2116 25.8186,37.1657 -0.008,1.7036 -0.1905,3.6569 -0.4077,5.3026 l 12.3213,2.9685 -1.7264,7.1653 -12.2916,-2.9616 c -5.3762,15.4868 -20.1991,26.8471 -37.5081,26.7655 -1.4411,-0.007 -3.1395,-0.1574 -4.5394,-0.3146 l -2.7548,11.434 -7.4408,-1.7926 2.7112,-11.2533 c -15.866,-5.1615 -27.2994,-20.1077 -27.2165,-37.686 0.0085,-1.7849 0.202,-3.8176 0.4398,-5.5386 l -10.5823,-2.5495 1.7264,-7.1653 10.5995,2.5539 c 5.4403,-15.3698 20.204,-26.6221 37.4291,-26.5408 2.0483,0.01 4.0595,0.1754 6.0217,0.4857 z"
     style="fill:none;stroke:#e63315;stroke-width:0.56690001;stroke-linecap:butt;stroke-linejoin:miter;stroke-dasharray:none"
     id="path64"
     inkscape:connector-curvature="0" />
  <path
     d="m 405.6592,583.459 -1.7263,7.165 -27.0067,-6.5067 1.7263,-7.1651 z"
     style="fill:none;stroke:#e63315;stroke-width:0.56690001;stroke-linecap:butt;stroke-linejoin:miter;stroke-dasharray:none"
     id="path66"
     inkscape:connector-curvature="0" />
  <path
     d="m 364.8606,524.386 7.165,1.7263 -6.5067,27.0067 -7.1651,-1.7263 z"
     style="fill:none;stroke:#e63315;stroke-width:0.56690001;stroke-linecap:butt;stroke-linejoin:miter;stroke-dasharray:none"
     id="path68"
     inkscape:connector-curvature="0" />
  <path
     d="m 305.7876,565.1846 1.7263,-7.165 27.0067,6.5067 -1.7263,7.1651 z"
     style="fill:none;stroke:#e63315;stroke-width:0.56690001;stroke-linecap:butt;stroke-linejoin:miter;stroke-dasharray:none"
     id="path70"
     inkscape:connector-curvature="0" />
  <path
     d="m 346.5862,624.2576 -7.165,-1.7263 6.5067,-27.0067 7.1651,1.7263 z"
     style="fill:none;stroke:#e63315;stroke-width:0.56690001;stroke-linecap:butt;stroke-linejoin:miter;stroke-dasharray:none"
     id="path72"
     inkscape:connector-curvature="0" />
  <path
     d="m 257.7104,659.4823 c 4.4532,0 11.5424,-2.0041 16.4347,-4.6891 6.8474,-3.7579 11.9118,-1.614 11.9118,4.6891 v 23.811 h -11.7278 c -0.7555,-8.9195 -7.8599,-15.874 -16.6187,-15.874 z"
     style="fill:none;stroke:#1b1918;stroke-width:0.56690001;stroke-linecap:butt;stroke-linejoin:miter;stroke-dasharray:none"
     id="path74"
     inkscape:connector-curvature="0" />
  <path
     d="m 293.6336,659.3318 c 4.4532,0 11.5424,-2.0041 16.4347,-4.6891 6.8474,-3.7579 11.9117,-1.614 11.9117,4.6891 v 23.811 h -11.7277 c -0.7555,-8.9195 -7.86,-15.874 -16.6187,-15.874 z"
     style="fill:none;stroke:#1b1918;stroke-width:0.56690001;stroke-linecap:butt;stroke-linejoin:miter;stroke-dasharray:none"
     id="path76"
     inkscape:connector-curvature="0" />
  <path
     d="m 329.5568,659.1813 c 4.4532,0 11.5423,-2.0041 16.4347,-4.6891 6.8473,-3.7579 11.9117,-1.6141 11.9117,4.6891 v 23.811 h -11.7278 c -0.7554,-8.9195 -7.8599,-15.874 -16.6186,-15.874 z"
     style="fill:none;stroke:#1b1918;stroke-width:0.56690001;stroke-linecap:butt;stroke-linejoin:miter;stroke-dasharray:none"
     id="path78"
     inkscape:connector-curvature="0" />
  <path
     d="m 365.4799,659.0307 c 4.4533,0 11.5424,-2.0041 16.4347,-4.689 6.8474,-3.7579 11.9118,-1.6141 11.9118,4.689 v 23.8111 h -11.7278 c -0.7554,-8.9195 -7.8599,-15.8741 -16.6187,-15.8741 z"
     style="fill:none;stroke:#1b1918;stroke-width:0.56690001;stroke-linecap:butt;stroke-linejoin:miter;stroke-dasharray:none"
     id="path80"
     inkscape:connector-curvature="0" />
  <path
     d="M 540.1157,231.8947 V 177.186 m 0,-7.37 v -43.3701"
     style="fill:none;stroke:#e63315;stroke-width:0.56690001;stroke-linecap:butt;stroke-linejoin:miter;stroke-dasharray:none"
     id="path82"
     inkscape:connector-curvature="0" />
  <path
     d="m 540.1157,20.9971 v 54.7086 m 0,7.3701 v 43.3701"
     style="fill:none;stroke:#e63315;stroke-width:0.56690001;stroke-linecap:butt;stroke-linejoin:miter;stroke-dasharray:none"
     id="path84"
     inkscape:connector-curvature="0" />
  <path
     d="M 476.9201,231.8947 V 177.186 m 0,-7.37 v -43.3701"
     style="fill:none;stroke:#e63315;stroke-width:0.56690001;stroke-linecap:butt;stroke-linejoin:miter;stroke-dasharray:none"
     id="path86"
     inkscape:connector-curvature="0" />
  <path
     d="m 476.9201,20.9971 v 54.7086 m 0,7.3701 v 43.3701"
     style="fill:none;stroke:#e63315;stroke-width:0.56690001;stroke-linecap:butt;stroke-linejoin:miter;stroke-dasharray:none"
     id="path88"
     inkscape:connector-curvature="0" />
  <path
     d="M 483.2396,220.5561 V 130.1309"
     style="fill:none;stroke:#e63315;stroke-width:0.56690001;stroke-linecap:butt;stroke-linejoin:miter;stroke-dasharray:none"
     id="path90"
     inkscape:connector-curvature="0" />
  <path
     d="m 483.2396,32.3357 v 90.4252"
     style="fill:none;stroke:#e63315;stroke-width:0.56690001;stroke-linecap:butt;stroke-linejoin:miter;stroke-dasharray:none"
     id="path92"
     inkscape:connector-curvature="0" />
  <path
     d="M 489.5589,231.8947 V 177.186 m 0,-7.37 v -43.3701"
     style="fill:none;stroke:#e63315;stroke-width:0.56690001;stroke-linecap:butt;stroke-linejoin:miter;stroke-dasharray:none"
     id="path94"
     inkscape:connector-curvature="0" />
  <path
     d="m 489.5589,20.9971 v 54.7086 m 0,7.3701 v 43.3701"
     style="fill:none;stroke:#e63315;stroke-width:0.56690001;stroke-linecap:butt;stroke-linejoin:miter;stroke-dasharray:none"
     id="path96"
     inkscape:connector-curvature="0" />
  <path
     d="M 495.8785,220.5561 V 130.1309"
     style="fill:none;stroke:#e63315;stroke-width:0.56690001;stroke-linecap:butt;stroke-linejoin:miter;stroke-dasharray:none"
     id="path98"
     inkscape:connector-curvature="0" />
  <path
     d="m 495.8785,32.3357 v 90.4252"
     style="fill:none;stroke:#e63315;stroke-width:0.56690001;stroke-linecap:butt;stroke-linejoin:miter;stroke-dasharray:none"
     id="path100"
     inkscape:connector-curvature="0" />
  <path
     d="M 502.198,231.8947 V 177.186 m 0,-7.37 v -43.3701"
     style="fill:none;stroke:#e63315;stroke-width:0.56690001;stroke-linecap:butt;stroke-linejoin:miter;stroke-dasharray:none"
     id="path102"
     inkscape:connector-curvature="0" />
  <path
     d="m 502.198,20.9971 v 54.7086 m 0,7.3701 v 43.3701"
     style="fill:none;stroke:#e63315;stroke-width:0.56690001;stroke-linecap:butt;stroke-linejoin:miter;stroke-dasharray:none"
     id="path104"
     inkscape:connector-curvature="0" />
  <path
     d="M 508.5173,220.5561 V 130.1309"
     style="fill:none;stroke:#e63315;stroke-width:0.56690001;stroke-linecap:butt;stroke-linejoin:miter;stroke-dasharray:none"
     id="path106"
     inkscape:connector-curvature="0" />
  <path
     d="m 508.5173,32.3357 v 90.4252"
     style="fill:none;stroke:#e63315;stroke-width:0.56690001;stroke-linecap:butt;stroke-linejoin:miter;stroke-dasharray:none"
     id="path108"
     inkscape:connector-curvature="0" />
  <path
     d="M 514.8371,231.8947 V 177.186 m 0,-7.37 v -43.3701"
     style="fill:none;stroke:#e63315;stroke-width:0.56690001;stroke-linecap:butt;stroke-linejoin:miter;stroke-dasharray:none"
     id="path110"
     inkscape:connector-curvature="0" />
  <path
     d="m 514.8371,20.9971 v 54.7086 m 0,7.3701 v 43.3701"
     style="fill:none;stroke:#e63315;stroke-width:0.56690001;stroke-linecap:butt;stroke-linejoin:miter;stroke-dasharray:none"
     id="path112"
     inkscape:connector-curvature="0" />
  <path
     d="M 521.1567,220.5561 V 130.1309"
     style="fill:none;stroke:#e63315;stroke-width:0.56690001;stroke-linecap:butt;stroke-linejoin:miter;stroke-dasharray:none"
     id="path114"
     inkscape:connector-curvature="0" />
  <path
     d="m 521.1567,32.3357 v 90.4252"
     style="fill:none;stroke:#e63315;stroke-width:0.56690001;stroke-linecap:butt;stroke-linejoin:miter;stroke-dasharray:none"
     id="path116"
     inkscape:connector-curvature="0" />
  <path
     d="M 527.476,231.8947 V 177.186 m 0,-7.37 v -43.3701"
     style="fill:none;stroke:#e63315;stroke-width:0.56690001;stroke-linecap:butt;stroke-linejoin:miter;stroke-dasharray:none"
     id="path118"
     inkscape:connector-curvature="0" />
  <path
     d="m 527.476,20.9971 v 54.7086 m 0,7.3701 v 43.3701"
     style="fill:none;stroke:#e63315;stroke-width:0.56690001;stroke-linecap:butt;stroke-linejoin:miter;stroke-dasharray:none"
     id="path120"
     inkscape:connector-curvature="0" />
  <path
     d="M 533.7955,220.5561 V 130.1309"
     style="fill:none;stroke:#e63315;stroke-width:0.56690001;stroke-linecap:butt;stroke-linejoin:miter;stroke-dasharray:none"
     id="path122"
     inkscape:connector-curvature="0" />
  <path
     d="m 533.7955,32.3357 v 90.4252"
     style="fill:none;stroke:#e63315;stroke-width:0.56690001;stroke-linecap:butt;stroke-linejoin:miter;stroke-dasharray:none"
     id="path124"
     inkscape:connector-curvature="0" />
  <path
     d="M 403.2193,231.8947 V 177.186 m 0,-7.37 v -43.3701"
     style="fill:none;stroke:#e63315;stroke-width:0.56690001;stroke-linecap:butt;stroke-linejoin:miter;stroke-dasharray:none"
     id="path126"
     inkscape:connector-curvature="0" />
  <path
     d="m 403.2193,20.9971 v 54.7086 m 0,7.3701 v 43.3701"
     style="fill:none;stroke:#e63315;stroke-width:0.56690001;stroke-linecap:butt;stroke-linejoin:miter;stroke-dasharray:none"
     id="path128"
     inkscape:connector-curvature="0" />
  <path
     d="M 340.0237,231.8947 V 177.186 m 0,-7.37 v -43.3701"
     style="fill:none;stroke:#e63315;stroke-width:0.56690001;stroke-linecap:butt;stroke-linejoin:miter;stroke-dasharray:none"
     id="path130"
     inkscape:connector-curvature="0" />
  <path
     d="m 340.0237,20.9971 v 54.7086 m 0,7.3701 v 43.3701"
     style="fill:none;stroke:#e63315;stroke-width:0.56690001;stroke-linecap:butt;stroke-linejoin:miter;stroke-dasharray:none"
     id="path132"
     inkscape:connector-curvature="0" />
  <path
     d="M 346.3432,220.5561 V 130.1309"
     style="fill:none;stroke:#e63315;stroke-width:0.56690001;stroke-linecap:butt;stroke-linejoin:miter;stroke-dasharray:none"
     id="path134"
     inkscape:connector-curvature="0" />
  <path
     d="m 346.3432,32.3357 v 90.4252"
     style="fill:none;stroke:#e63315;stroke-width:0.56690001;stroke-linecap:butt;stroke-linejoin:miter;stroke-dasharray:none"
     id="path136"
     inkscape:connector-curvature="0" />
  <path
     d="M 352.6625,231.8947 V 177.186 m 0,-7.37 v -43.3701"
     style="fill:none;stroke:#e63315;stroke-width:0.56690001;stroke-linecap:butt;stroke-linejoin:miter;stroke-dasharray:none"
     id="path138"
     inkscape:connector-curvature="0" />
  <path
     d="m 352.6625,20.9971 v 54.7086 m 0,7.3701 v 43.3701"
     style="fill:none;stroke:#e63315;stroke-width:0.56690001;stroke-linecap:butt;stroke-linejoin:miter;stroke-dasharray:none"
     id="path140"
     inkscape:connector-curvature="0" />
  <path
     d="M 358.9821,220.5561 V 130.1309"
     style="fill:none;stroke:#e63315;stroke-width:0.56690001;stroke-linecap:butt;stroke-linejoin:miter;stroke-dasharray:none"
     id="path142"
     inkscape:connector-curvature="0" />
  <path
     d="m 358.9821,32.3357 v 90.4252"
     style="fill:none;stroke:#e63315;stroke-width:0.56690001;stroke-linecap:butt;stroke-linejoin:miter;stroke-dasharray:none"
     id="path144"
     inkscape:connector-curvature="0" />
  <path
     d="M 365.3016,231.8947 V 177.186 m 0,-7.37 v -43.3701"
     style="fill:none;stroke:#e63315;stroke-width:0.56690001;stroke-linecap:butt;stroke-linejoin:miter;stroke-dasharray:none"
     id="path146"
     inkscape:connector-curvature="0" />
  <path
     d="m 365.3016,20.9971 v 54.7086 m 0,7.3701 v 43.3701"
     style="fill:none;stroke:#e63315;stroke-width:0.56690001;stroke-linecap:butt;stroke-linejoin:miter;stroke-dasharray:none"
     id="path148"
     inkscape:connector-curvature="0" />
  <path
     d="M 371.6209,220.5561 V 130.1309"
     style="fill:none;stroke:#e63315;stroke-width:0.56690001;stroke-linecap:butt;stroke-linejoin:miter;stroke-dasharray:none"
     id="path150"
     inkscape:connector-curvature="0" />
  <path
     d="m 371.6209,32.3357 v 90.4252"
     style="fill:none;stroke:#e63315;stroke-width:0.56690001;stroke-linecap:butt;stroke-linejoin:miter;stroke-dasharray:none"
     id="path152"
     inkscape:connector-curvature="0" />
  <path
     d="M 377.9408,231.8947 V 177.186 m 0,-7.37 v -43.3701"
     style="fill:none;stroke:#e63315;stroke-width:0.56690001;stroke-linecap:butt;stroke-linejoin:miter;stroke-dasharray:none"
     id="path154"
     inkscape:connector-curvature="0" />
  <path
     d="m 377.9408,20.9971 v 54.7086 m 0,7.3701 v 43.3701"
     style="fill:none;stroke:#e63315;stroke-width:0.56690001;stroke-linecap:butt;stroke-linejoin:miter;stroke-dasharray:none"
     id="path156"
     inkscape:connector-curvature="0" />
  <path
     d="M 384.2603,220.5561 V 130.1309"
     style="fill:none;stroke:#e63315;stroke-width:0.56690001;stroke-linecap:butt;stroke-linejoin:miter;stroke-dasharray:none"
     id="path158"
     inkscape:connector-curvature="0" />
  <path
     d="m 384.2603,32.3357 v 90.4252"
     style="fill:none;stroke:#e63315;stroke-width:0.56690001;stroke-linecap:butt;stroke-linejoin:miter;stroke-dasharray:none"
     id="path160"
     inkscape:connector-curvature="0" />
  <path
     d="M 390.5796,231.8947 V 177.186 m 0,-7.37 v -43.3701"
     style="fill:none;stroke:#e63315;stroke-width:0.56690001;stroke-linecap:butt;stroke-linejoin:miter;stroke-dasharray:none"
     id="path162"
     inkscape:connector-curvature="0" />
  <path
     d="m 390.5796,20.9971 v 54.7086 m 0,7.3701 v 43.3701"
     style="fill:none;stroke:#e63315;stroke-width:0.56690001;stroke-linecap:butt;stroke-linejoin:miter;stroke-dasharray:none"
     id="path164"
     inkscape:connector-curvature="0" />
  <path
     d="M 396.8991,220.5561 V 130.1309"
     style="fill:none;stroke:#e63315;stroke-width:0.56690001;stroke-linecap:butt;stroke-linejoin:miter;stroke-dasharray:none"
     id="path166"
     inkscape:connector-curvature="0" />
  <path
     d="m 396.8991,32.3357 v 90.4252"
     style="fill:none;stroke:#e63315;stroke-width:0.56690001;stroke-linecap:butt;stroke-linejoin:miter;stroke-dasharray:none"
     id="path168"
     inkscape:connector-curvature="0" />
  <path
     d="M 266.3229,231.8947 V 177.186 m 0,-7.37 v -43.3701"
     style="fill:none;stroke:#e63315;stroke-width:0.56690001;stroke-linecap:butt;stroke-linejoin:miter;stroke-dasharray:none"
     id="path170"
     inkscape:connector-curvature="0" />
  <path
     d="m 266.3229,20.9971 v 54.7086 m 0,7.3701 v 43.3701"
     style="fill:none;stroke:#e63315;stroke-width:0.56690001;stroke-linecap:butt;stroke-linejoin:miter;stroke-dasharray:none"
     id="path172"
     inkscape:connector-curvature="0" />
  <path
     d="M 203.1273,231.8947 V 177.186 m 0,-7.37 v -43.3701"
     style="fill:none;stroke:#e63315;stroke-width:0.56690001;stroke-linecap:butt;stroke-linejoin:miter;stroke-dasharray:none"
     id="path174"
     inkscape:connector-curvature="0" />
  <path
     d="m 203.1273,20.9971 v 54.7086 m 0,7.3701 v 43.3701"
     style="fill:none;stroke:#e63315;stroke-width:0.56690001;stroke-linecap:butt;stroke-linejoin:miter;stroke-dasharray:none"
     id="path176"
     inkscape:connector-curvature="0" />
  <path
     d="M 209.4469,220.5561 V 130.1309"
     style="fill:none;stroke:#e63315;stroke-width:0.56690001;stroke-linecap:butt;stroke-linejoin:miter;stroke-dasharray:none"
     id="path178"
     inkscape:connector-curvature="0" />
  <path
     d="m 209.4469,32.3357 v 90.4252"
     style="fill:none;stroke:#e63315;stroke-width:0.56690001;stroke-linecap:butt;stroke-linejoin:miter;stroke-dasharray:none"
     id="path180"
     inkscape:connector-curvature="0" />
  <path
     d="M 215.7661,231.8947 V 177.186 m 0,-7.37 v -43.3701"
     style="fill:none;stroke:#e63315;stroke-width:0.56690001;stroke-linecap:butt;stroke-linejoin:miter;stroke-dasharray:none"
     id="path182"
     inkscape:connector-curvature="0" />
  <path
     d="m 215.7661,20.9971 v 54.7086 m 0,7.3701 v 43.3701"
     style="fill:none;stroke:#e63315;stroke-width:0.56690001;stroke-linecap:butt;stroke-linejoin:miter;stroke-dasharray:none"
     id="path184"
     inkscape:connector-curvature="0" />
  <path
     d="M 222.0857,220.5561 V 130.1309"
     style="fill:none;stroke:#e63315;stroke-width:0.56690001;stroke-linecap:butt;stroke-linejoin:miter;stroke-dasharray:none"
     id="path186"
     inkscape:connector-curvature="0" />
  <path
     d="m 222.0857,32.3357 v 90.4252"
     style="fill:none;stroke:#e63315;stroke-width:0.56690001;stroke-linecap:butt;stroke-linejoin:miter;stroke-dasharray:none"
     id="path188"
     inkscape:connector-curvature="0" />
  <path
     d="M 228.4053,231.8947 V 177.186 m 0,-7.37 v -43.3701"
     style="fill:none;stroke:#e63315;stroke-width:0.56690001;stroke-linecap:butt;stroke-linejoin:miter;stroke-dasharray:none"
     id="path190"
     inkscape:connector-curvature="0" />
  <path
     d="m 228.4053,20.9971 v 54.7086 m 0,7.3701 v 43.3701"
     style="fill:none;stroke:#e63315;stroke-width:0.56690001;stroke-linecap:butt;stroke-linejoin:miter;stroke-dasharray:none"
     id="path192"
     inkscape:connector-curvature="0" />
  <path
     d="M 234.7245,220.5561 V 130.1309"
     style="fill:none;stroke:#e63315;stroke-width:0.56690001;stroke-linecap:butt;stroke-linejoin:miter;stroke-dasharray:none"
     id="path194"
     inkscape:connector-curvature="0" />
  <path
     d="m 234.7245,32.3357 v 90.4252"
     style="fill:none;stroke:#e63315;stroke-width:0.56690001;stroke-linecap:butt;stroke-linejoin:miter;stroke-dasharray:none"
     id="path196"
     inkscape:connector-curvature="0" />
  <path
     d="M 241.0444,231.8947 V 177.186 m 0,-7.37 v -43.3701"
     style="fill:none;stroke:#e63315;stroke-width:0.56690001;stroke-linecap:butt;stroke-linejoin:miter;stroke-dasharray:none"
     id="path198"
     inkscape:connector-curvature="0" />
  <path
     d="m 241.0444,20.9971 v 54.7086 m 0,7.3701 v 43.3701"
     style="fill:none;stroke:#e63315;stroke-width:0.56690001;stroke-linecap:butt;stroke-linejoin:miter;stroke-dasharray:none"
     id="path200"
     inkscape:connector-curvature="0" />
  <path
     d="M 247.3639,220.5561 V 130.1309"
     style="fill:none;stroke:#e63315;stroke-width:0.56690001;stroke-linecap:butt;stroke-linejoin:miter;stroke-dasharray:none"
     id="path202"
     inkscape:connector-curvature="0" />
  <path
     d="m 247.3639,32.3357 v 90.4252"
     style="fill:none;stroke:#e63315;stroke-width:0.56690001;stroke-linecap:butt;stroke-linejoin:miter;stroke-dasharray:none"
     id="path204"
     inkscape:connector-curvature="0" />
  <path
     d="M 253.6832,231.8947 V 177.186 m 0,-7.37 v -43.3701"
     style="fill:none;stroke:#e63315;stroke-width:0.56690001;stroke-linecap:butt;stroke-linejoin:miter;stroke-dasharray:none"
     id="path206"
     inkscape:connector-curvature="0" />
  <path
     d="m 253.6832,20.9971 v 54.7086 m 0,7.3701 v 43.3701"
     style="fill:none;stroke:#e63315;stroke-width:0.56690001;stroke-linecap:butt;stroke-linejoin:miter;stroke-dasharray:none"
     id="path208"
     inkscape:connector-curvature="0" />
  <path
     d="M 260.0028,220.5561 V 130.1309"
     style="fill:none;stroke:#e63315;stroke-width:0.56690001;stroke-linecap:butt;stroke-linejoin:miter;stroke-dasharray:none"
     id="path210"
     inkscape:connector-curvature="0" />
  <path
     d="m 260.0028,32.3357 v 90.4252"
     style="fill:none;stroke:#e63315;stroke-width:0.56690001;stroke-linecap:butt;stroke-linejoin:miter;stroke-dasharray:none"
     id="path212"
     inkscape:connector-curvature="0" />
  <path
     d="M 129.4265,231.8947 V 177.186 m 0,-7.37 v -43.3701"
     style="fill:none;stroke:#e63315;stroke-width:0.56690001;stroke-linecap:butt;stroke-linejoin:miter;stroke-dasharray:none"
     id="path214"
     inkscape:connector-curvature="0" />
  <path
     d="m 129.4265,20.9971 v 54.7086 m 0,7.3701 v 43.3701"
     style="fill:none;stroke:#e63315;stroke-width:0.56690001;stroke-linecap:butt;stroke-linejoin:miter;stroke-dasharray:none"
     id="path216"
     inkscape:connector-curvature="0" />
  <path
     d="M 66.2309,231.8947 V 177.186 m 0,-7.37 v -43.3701"
     style="fill:none;stroke:#e63315;stroke-width:0.56690001;stroke-linecap:butt;stroke-linejoin:miter;stroke-dasharray:none"
     id="path218"
     inkscape:connector-curvature="0" />
  <path
     d="m 66.2309,20.9971 v 54.7086 m 0,7.3701 v 43.3701"
     style="fill:none;stroke:#e63315;stroke-width:0.56690001;stroke-linecap:butt;stroke-linejoin:miter;stroke-dasharray:none"
     id="path220"
     inkscape:connector-curvature="0" />
  <path
     d="M 72.5505,220.5561 V 130.1309"
     style="fill:none;stroke:#e63315;stroke-width:0.56690001;stroke-linecap:butt;stroke-linejoin:miter;stroke-dasharray:none"
     id="path222"
     inkscape:connector-curvature="0" />
  <path
     d="m 72.5505,32.3357 v 90.4252"
     style="fill:none;stroke:#e63315;stroke-width:0.56690001;stroke-linecap:butt;stroke-linejoin:miter;stroke-dasharray:none"
     id="path224"
     inkscape:connector-curvature="0" />
  <path
     d="M 78.8698,231.8947 V 177.186 m 0,-7.37 v -43.3701"
     style="fill:none;stroke:#e63315;stroke-width:0.56690001;stroke-linecap:butt;stroke-linejoin:miter;stroke-dasharray:none"
     id="path226"
     inkscape:connector-curvature="0" />
  <path
     d="m 78.8698,20.9971 v 54.7086 m 0,7.3701 v 43.3701"
     style="fill:none;stroke:#e63315;stroke-width:0.56690001;stroke-linecap:butt;stroke-linejoin:miter;stroke-dasharray:none"
     id="path228"
     inkscape:connector-curvature="0" />
  <path
     d="M 85.1893,220.5561 V 130.1309"
     style="fill:none;stroke:#e63315;stroke-width:0.56690001;stroke-linecap:butt;stroke-linejoin:miter;stroke-dasharray:none"
     id="path230"
     inkscape:connector-curvature="0" />
  <path
     d="m 85.1893,32.3357 v 90.4252"
     style="fill:none;stroke:#e63315;stroke-width:0.56690001;stroke-linecap:butt;stroke-linejoin:miter;stroke-dasharray:none"
     id="path232"
     inkscape:connector-curvature="0" />
  <path
     d="M 91.5089,231.8947 V 177.186 m 0,-7.37 v -43.3701"
     style="fill:none;stroke:#e63315;stroke-width:0.56690001;stroke-linecap:butt;stroke-linejoin:miter;stroke-dasharray:none"
     id="path234"
     inkscape:connector-curvature="0" />
  <path
     d="m 91.5089,20.9971 v 54.7086 m 0,7.3701 v 43.3701"
     style="fill:none;stroke:#e63315;stroke-width:0.56690001;stroke-linecap:butt;stroke-linejoin:miter;stroke-dasharray:none"
     id="path236"
     inkscape:connector-curvature="0" />
  <path
     d="M 97.8282,220.5561 V 130.1309"
     style="fill:none;stroke:#e63315;stroke-width:0.56690001;stroke-linecap:butt;stroke-linejoin:miter;stroke-dasharray:none"
     id="path238"
     inkscape:connector-curvature="0" />
  <path
     d="m 97.8282,32.3357 v 90.4252"
     style="fill:none;stroke:#e63315;stroke-width:0.56690001;stroke-linecap:butt;stroke-linejoin:miter;stroke-dasharray:none"
     id="path240"
     inkscape:connector-curvature="0" />
  <path
     d="M 104.148,231.8947 V 177.186 m 0,-7.37 v -43.3701"
     style="fill:none;stroke:#e63315;stroke-width:0.56690001;stroke-linecap:butt;stroke-linejoin:miter;stroke-dasharray:none"
     id="path242"
     inkscape:connector-curvature="0" />
  <path
     d="m 104.148,20.9971 v 54.7086 m 0,7.3701 v 43.3701"
     style="fill:none;stroke:#e63315;stroke-width:0.56690001;stroke-linecap:butt;stroke-linejoin:miter;stroke-dasharray:none"
     id="path244"
     inkscape:connector-curvature="0" />
  <path
     d="M 110.4676,220.5561 V 130.1309"
     style="fill:none;stroke:#e63315;stroke-width:0.56690001;stroke-linecap:butt;stroke-linejoin:miter;stroke-dasharray:none"
     id="path246"
     inkscape:connector-curvature="0" />
  <path
     d="m 110.4676,32.3357 v 90.4252"
     style="fill:none;stroke:#e63315;stroke-width:0.56690001;stroke-linecap:butt;stroke-linejoin:miter;stroke-dasharray:none"
     id="path248"
     inkscape:connector-curvature="0" />
  <path
     d="M 116.7868,231.8947 V 177.186 m 0,-7.37 v -43.3701"
     style="fill:none;stroke:#e63315;stroke-width:0.56690001;stroke-linecap:butt;stroke-linejoin:miter;stroke-dasharray:none"
     id="path250"
     inkscape:connector-curvature="0" />
  <path
     d="m 116.7868,20.9971 v 54.7086 m 0,7.3701 v 43.3701"
     style="fill:none;stroke:#e63315;stroke-width:0.56690001;stroke-linecap:butt;stroke-linejoin:miter;stroke-dasharray:none"
     id="path252"
     inkscape:connector-curvature="0" />
  <path
     d="M 123.1064,220.5561 V 130.1309"
     style="fill:none;stroke:#e63315;stroke-width:0.56690001;stroke-linecap:butt;stroke-linejoin:miter;stroke-dasharray:none"
     id="path254"
     inkscape:connector-curvature="0" />
  <path
     d="m 123.1064,32.3357 v 90.4252"
     style="fill:none;stroke:#e63315;stroke-width:0.56690001;stroke-linecap:butt;stroke-linejoin:miter;stroke-dasharray:none"
     id="path256"
     inkscape:connector-curvature="0" />
  <path
     d="m 563.0763,239.8317 v -7.937 H 576.966 V 13.0601 h -36.8503 v 7.937 c -21.0651,0 -42.1305,0 -63.1956,0 v -7.937 h -73.7008 v 7.937 c -21.0651,0 -42.1305,0 -63.1956,0 v -7.937 h -73.7008 v 7.937 c -21.0651,0 -42.1305,0 -63.1956,0 v -7.937 h -73.7008 v 7.937 c -21.0651,0 -42.1305,0 -63.1956,0 v -7.937 H 29.3805 v 218.8346 h 13.8898 v 7.937 h 22.9606 v -7.937 c 21.0651,0 42.1305,0 63.1956,0 v 7.937 h 22.9606 v -7.937 h 27.7796 v 7.937 h 22.9606 v -7.937 c 21.0651,0 42.1305,0 63.1956,0 v 7.937 h 22.9606 v -7.937 h 27.7796 v 7.937 h 22.9606 v -7.937 c 21.0651,0 42.1305,0 63.1956,0 v 7.937 h 22.9606 v -7.937 h 27.7795 v 7.937 h 22.9607 v -7.937 c 21.0651,0 42.1305,0 63.1956,0 v 7.937 z"
     style="fill:none;stroke:#1b1918;stroke-width:0.56690001;stroke-linecap:butt;stroke-linejoin:miter;stroke-dasharray:none"
     id="path258"
     inkscape:connector-curvature="0" />
  <path
     d="m 313.3066,491.5712 v -7.937 h 20.6861 v -20.6929 h -7.937 v -27.7795 h 7.937 v -28.9134 h -7.937 v -27.7795 h 7.937 v -28.9134 h -7.937 v -27.7796 h 7.937 v -28.9133 h -7.937 V 265.083 h 7.937 v -16.1575 h -21.253 v 23.8111 h -73.1339 v -23.8111 h -21.253 v 16.1575 h 7.937 v 27.7796 h -7.937 v 28.9133 h 7.937 v 27.7796 h -7.937 v 28.9134 h 7.937 v 27.7795 h -7.937 v 28.9134 h 7.937 v 27.7795 h -7.937 v 20.6929 h 20.6861 v 7.937 z"
     style="fill:none;stroke:#1b1918;stroke-width:0.56690001;stroke-linecap:butt;stroke-linejoin:miter;stroke-dasharray:none"
     id="path260"
     inkscape:connector-curvature="0" />
  <path
     d="m 116.3358,491.5712 h 74.2678 v -7.937 h 12.7491 v -20.126 h 7.937 v -28.9134 h -7.937 v -27.7795 h 7.937 v -28.9134 h -7.937 v -27.7795 h 7.937 V 321.209 h -7.937 v -27.7795 h 7.937 v -28.9134 h -7.937 v -15.5906 h -13.3161 v 23.8111 h -73.1338 v -23.8111 h -13.3161 v 15.5906 h -7.937 v 28.9134 h 7.937 v 27.7795 h -7.937 v 28.9134 h 7.937 v 27.7795 h -7.937 v 28.9134 h 7.937 v 27.7795 h -7.937 v 28.9134 h 7.937 v 20.126 h 12.7491 z"
     style="fill:none;stroke:#1b1918;stroke-width:0.56690001;stroke-linecap:butt;stroke-linejoin:miter;stroke-dasharray:none"
     id="path262"
     inkscape:connector-curvature="0" />
  <path
     d="m 440.3887,145.0608 c -1.5396,-2.5497 -2.5436,-4.1914 -1.4809,-6.9724 -0.7591,1.7434 -3.3006,4.1381 -5.3167,4.6279 -0.5767,-3.0327 -0.2963,-4.9835 0.6677,-6.1855 -0.0671,-0.6291 -0.9766,-5.0779 4.996,-5.7665 -3.9574,2.8964 0.357,4.0858 3.3273,2.8431 3.4268,-1.4361 4.9751,-5.4584 -0.0678,-4.3159 1.588,-1.572 3.1306,-1.8988 4.3595,-1.7226 0.2962,-0.9389 0.7863,-1.6578 1.8852,-2.2463 -1.1401,0.5452 -3.4588,0.6419 -4.6846,0.0104 1.0303,-1.7742 2.0201,-2.632 3.0275,-2.8162 0.1715,-0.2464 0.9743,-1.6572 2.6207,-1.624 -1.0024,-16.7745 -4.4859,-31.7767 -17.6579,-43.6493 -3.6632,-1.1761 -9.0247,-7.5197 -9.7239,-11.141 1.9923,3.1014 9.7107,6.3444 10.1816,10.9635 6.6871,5.3569 11.372,12.41 14.5829,20.1542 -3.0876,-18.7019 -8.9075,-38.5491 -16.573,-56.4638 -2.2293,0.2231 -4.5632,-0.2302 -6.5307,-1.134 -0.8661,1.9672 -2.4437,3.8028 -4.4295,4.7234 -4.3495,-1.7218 -9.2613,-11.4154 -0.8667,-12.0953 -1.6967,4.6246 0.9229,6.0274 1.4319,4.3277 -1.3972,-2.0153 -1.5766,-4.3879 0.8899,-6.7923 -3.2306,-0.7976 -4.5717,-2.2154 -3.7928,-2.8219 0.9533,-0.7424 1.2372,1.201 3.9343,2.6866 0.1132,-0.1061 0.2315,-0.2123 0.3551,-0.3183 -2.031,-3.825 -4.7775,-4.1516 -3.7846,-5.4604 0.8135,-1.0722 2.8041,0.8188 3.8959,5.3658 0.1035,-0.0866 0.2105,-0.1734 0.3214,-0.2601 3.2001,8.5542 8.7646,3.7899 0.4285,-0.3944 0.1298,-0.1421 0.2585,-0.2771 0.3859,-0.4059 -1.8938,-1.8023 -2.2658,-3.2867 -1.4546,-3.4355 0.9736,-0.1783 0.5602,1.2098 1.6799,3.2132 2.7567,-2.6528 4.988,-2.3019 6.7968,-0.7394 2.5087,-0.0376 1.5919,-3.6024 -3.5925,-2.0958 1.0325,-8.1457 10.5405,-2.4555 11.959,2.0025 -1.1756,2.137 -3.4498,3.6912 -5.7126,4.3161 1.0955,3.0507 1.2824,6.6865 0.2583,8.8623 -0.3651,0.121 -0.7379,0.2191 -1.1163,0.2963 3.097,7.2578 5.8762,14.7236 8.2995,22.3263 0.6081,-6.3408 2.2593,-12.7133 4.6829,-18.6144 -0.1569,-1.3288 0.0548,-2.9395 0.5641,-4.3579 -1.4909,-0.4117 -2.9893,-1.4357 -3.7638,-2.8437 0.9345,-2.9372 7.1256,-6.5467 7.8519,-1.3545 -3.416,-0.9926 -3.9925,1.3912 -2.3395,1.4159 1.1917,-1.0295 2.6619,-1.2606 4.4781,0.4872 0.7377,-1.32 0.4655,-2.2345 1.1068,-2.117 0.5345,0.098 0.2895,1.0761 -0.9584,2.2635 0.0841,0.0849 0.1688,0.1738 0.2543,0.2674 -5.4922,2.757 -1.826,5.896 0.2824,0.2599 0.0731,0.0571 0.1436,0.1143 0.2117,0.1714 0.7193,-2.9959 2.0309,-4.2419 2.5669,-3.5353 0.6543,0.8623 -1.1554,1.0774 -2.4936,3.5975 0.0814,0.07 0.1594,0.1399 0.234,0.2098 1.7771,-0.9787 1.9641,-2.2593 2.5922,-1.7701 0.5132,0.3995 -0.3704,1.3337 -2.4989,1.8593 1.625,1.5842 1.5068,3.1474 0.5863,4.4751 0.3354,1.1199 2.2679,0.1956 1.1499,-2.8513 5.562,0.1203 2.0882,6.8347 -0.7775,7.9692 -1.3083,-0.6066 -2.3479,-1.816 -2.9185,-3.1121 -1.6928,0.7776 -3.7971,1.0487 -5.6222,0.4829 -3.083,8.7936 -4.8959,16.5585 -2.6722,25.5024 1.9753,7.9449 4.0329,15.8813 5.4242,23.9192 1.3742,-0.219 3.1812,-0.8831 4.6624,-0.8747 0.4298,0.529 1.523,0.898 2.0381,0.7559 -1.43,1.2803 -4.5592,1.515 -6.5696,0.8779 0.8097,4.7709 1.4687,9.5651 1.9679,14.3786 0.744,-5.3762 2.3265,-10.5975 4.9885,-15.4449 -0.2554,-4.3202 6.4214,-8.3815 7.8457,-11.5026 -0.1634,3.4063 -4.2328,9.9154 -7.4324,11.4818 -4.2102,8.4876 -5.0138,16.9113 -4.5619,26.1714 0.4121,0.1428 0.8622,0.3688 1.3527,0.7039 -2.6012,-0.2141 -1.9618,2.0883 0.4339,2.876 2.3463,0.7703 4.8746,-0.5761 1.8443,-2.1972 1.5596,-0.1036 2.4935,0.4638 3.0213,1.1314 -0.2931,-0.6106 -0.5257,-1.2662 -0.6371,-1.9282 -0.4544,-0.0773 -0.4499,-0.5977 -0.2444,-0.8548 -1.0191,-0.9297 -1.4172,-3.284 -0.9687,-4.4269 0.0984,-0.2508 0.4933,-0.0876 0.4393,0.1451 -0.043,0.1847 -0.2426,0.3053 -0.2819,0.0646 -0.3149,1.3406 -0.0231,3.3826 0.9431,4.1067 0.0127,-0.007 0.0258,-0.0118 0.0391,-0.0165 -0.6349,-0.7269 -0.8824,-2.2627 -0.6151,-3.0515 0.0796,-0.2349 0.3955,-0.1235 0.3476,0.0981 -0.0286,0.1328 -0.1739,0.2187 -0.2021,0.0462 -0.2193,0.9332 0.0269,2.1261 0.6171,2.8963 0.1504,0.0269 0.3224,0.1702 0.49,0.5015 0.7678,1.5291 1.7177,3.2674 2.1113,5.2915 -0.4412,-0.4203 -1.0399,-1.1351 -1.5657,-2.0022 0.1329,0.3927 0.1511,0.7322 0.103,0.892 0.9918,1.0237 1.215,2.4162 0.9733,4.3036 -1.566,-0.2664 -3.1375,-1.3693 -3.9416,-1.9481 0.5121,1.6028 0.5869,2.2783 -0.9717,4.2092 0.2509,0.3215 0.4992,0.6683 0.7463,1.0401 -2.043,1.2403 -4.9166,1.5346 -6.4014,1.6687 2.3712,1.4459 3.0446,2.1401 3.0637,6.9165 -2.0696,-0.3963 -4.476,-1.0893 -5.9416,-2.1451 2.6812,6.3013 4.483,13.1744 5.0678,19.9927 2.2446,-6.1914 4.7202,-12.2679 7.4038,-18.1904 -1.0521,0.6291 -2.5702,1.0535 -3.895,1.3071 0.0136,-3.4033 0.4934,-3.8981 2.183,-4.9283 -1.058,-0.0956 -3.1055,-0.3053 -4.5612,-1.189 1.129,-1.6988 2.2878,-2.6704 3.8102,-2.8036 0.2453,-0.5482 2.5219,-2.2183 4.9455,0.1812 -3.5934,-0.8142 -2.4902,2.052 -0.0484,3.0752 2.1165,0.8855 5.1907,0.038 2.3709,-2.0258 4.2557,0.4906 3.6076,3.6606 3.5599,4.1089 0.6869,0.8564 0.8865,2.2465 0.4756,4.4073 -1.4365,-0.3489 -3.2474,-2.0552 -3.7884,-3.2975 0.7573,1.9816 0.0419,3.1513 -1.0551,4.9681 -1.1277,-1.1811 -2.2891,-2.683 -2.835,-3.8887 -5.5139,11.8562 -10.3723,26.9807 -14.1719,41.5758 0.8791,0.1139 1.6595,0.1542 2.225,-0.0221 -0.5322,0.602 -1.468,1.0685 -2.5721,1.3661 -4.3315,16.8872 -7.2228,32.9021 -8.0452,42.1093 -0.0148,0.1595 -0.2571,0.1453 -0.2533,-0.0146 0.3122,-11.1081 4.893,-30.6018 0.4877,-42.8993 -4.0579,-1.3506 -9.8871,-9.0552 -10.4469,-13.2564 2.023,3.5944 10.3532,7.7743 10.6925,12.9503 1.9469,5.0055 2.82,10.1965 2.8659,15.4172 0.8723,-4.6894 1.8893,-9.3614 3.0428,-14.0012 -1.9962,0.2133 -4.1494,-0.0776 -5.4107,-1.0279 0.6395,0.1195 1.928,-0.4408 2.3951,-1.1266 1.072,-0.097 2.3087,0.0845 3.4914,0.2731 1.4503,-5.643 2.8371,-10.0627 4.6325,-15.4357 2.7558,-8.2475 -0.2659,-19.6979 -3.665,-27.5648 -0.7394,1.7132 -2.4121,3.8877 -4.0356,5.5884 z m 19.78,-36.2593 c 0.7908,0.3892 0.3514,2.9117 0.3514,2.912 10e-5,0 0.5272,0.1255 0.5021,0.6778 -0.0251,0.5523 -0.2511,1.2298 -0.2511,1.23 2.1696,0.9657 0.1191,3.6873 1.2678,5.1714 1.2221,1.5788 1.2381,1.7875 -0.2396,2.8887 1.156,-0.47 1.669,-0.9314 1.6077,0.5001 -0.0524,1.2255 1.0298,1.6247 0.9428,3.057 -0.1085,1.7883 -0.3263,4.6497 -0.5411,4.6497 -0.7173,0 -2.7707,-2.8927 -4.4135,-4.997 -0.4706,-1.1402 -0.9251,-2.3002 -1.5427,-3.3631 0.4493,-3.7913 2.0158,-12.8744 2.3162,-12.7266 z m 9.6294,1.8818 c 1.8445,-0.0596 0.929,1.5316 0.0252,2.8874 -0.9039,1.3559 -1.6827,2.8128 -2.1092,3.7664 1.302,1.0862 -1.0859,1.2701 -1.9584,1.5567 1.6558,-0.13 2.8173,0.0685 1.4562,2.4606 0,2e-4 0.0503,1.0044 -0.3012,2.1594 -0.3516,1.1549 -0.8033,0.9039 -0.8035,0.9039 0,1e-4 0.2767,0.7884 -0.3013,1.5065 -1.0363,1.2873 -0.5071,2.7686 -1.7576,4.0927 0.5744,-1.8142 0.6571,-4.3394 0.5326,-5.3033 -0.1096,-0.848 -0.3359,-0.952 -0.7638,-1.8386 -0.5033,-1.043 0.4587,-1.7582 -1.3534,-3.9269 -0.7878,-0.9427 -0.5602,-1.7389 0.0971,-2.5661 1.7428,-2.1922 5.6234,-5.6467 7.2373,-5.6987 z M 454.5883,94.5934 c -2.4212,-2.4828 0.6223,-9.3903 0.0333,-12.2298 1.2303,1.5308 1.7076,5.1945 1.3387,8.4341 -0.8219,1.2 -1.4144,2.5336 -1.372,3.7957 z m 0.7188,0.9691 c 0.1237,0.6044 0.6071,1.3768 1.3287,1.7616 0.6889,2.028 0.5291,5.1153 1.2373,6.366 -1.7411,-1.0315 -3.3519,-5.6956 -2.566,-8.1276 z m -0.9143,-0.6204 c -3.206,0.1392 -3.8854,-6.01 -5.6953,-7.4865 1.6255,0.2332 3.5044,1.9818 4.656,4.0939 -0.1188,0.9528 0.193,2.6274 1.0393,3.3926 z m 1.11,0.5332 c 0.853,3.3414 6.7325,2.3026 8.5853,3.716 -0.676,-1.5463 -2.8784,-3.0249 -5.11,-3.6611 -1.0334,0.5069 -2.6458,0.629 -3.4753,-0.0549 z m -0.1113,-0.2675 c 2.8819,2.0939 8.1497,-3.3154 10.8926,-3.5792 -1.7335,-0.8045 -5.1905,-0.1131 -7.9408,1.2681 -1.0087,1.11 -1.9986,1.9369 -2.9518,2.3111 z m -17.947,87.4749 c 2.6824,-3.2613 -1.7204,-11.3294 -1.2977,-14.8351 -1.3355,1.9837 -1.538,6.4782 -0.7573,10.371 1.1206,1.3714 1.9766,2.9283 2.055,4.4641 z m -0.7726,1.2497 c -0.0878,0.746 -0.5951,1.733 -1.4311,2.274 -0.6272,2.5314 -0.1159,6.2609 -0.8467,7.8511 2.0065,-1.4306 3.4814,-7.2552 2.2778,-10.1251 z m 1.0457,-0.8467 c 3.9042,-0.1609 4.0962,-7.6914 6.1405,-9.669 -1.9482,0.4501 -4.0482,2.7649 -5.2283,5.4458 0.2421,1.1438 0.0358,3.2078 -0.9122,4.2232 z m -1.2921,0.761 c -0.6914,4.1419 -7.9319,3.486 -10.0346,5.3914 0.6611,-1.9457 3.1813,-3.9662 5.8236,-4.9675 1.306,0.5089 3.2748,0.4912 4.211,-0.4239 z m 0.1076,-0.3358 c -3.2813,2.8367 -10.229,-3.185 -13.5841,-3.223 2.0207,-1.1544 6.2859,-0.6709 9.765,0.7222 1.3381,1.2431 2.6242,2.1446 3.8191,2.5008 z M 432.7995,76.661 c 2.2085,-3.0279 -2.1092,-9.9489 -1.9161,-13.0764 -1.0815,1.8269 -1.0275,5.8187 -0.1347,9.2279 1.0633,1.1565 1.9019,2.4919 2.0508,3.8485 z m -0.6199,1.2639 c -0.0391,0.6651 -0.4372,1.5661 -1.1504,2.0886 -0.4245,2.2746 0.2211,5.553 -0.3441,6.9994 1.7036,-1.3709 2.7095,-6.608 1.4945,-9.088 z m 0.7646,-0.5832 c 0.5726,0.0725 1.6857,-0.4901 2.0638,-1.1224 2.1271,-0.3179 5.0692,0.5718 6.4429,0.0536 -1.3748,1.751 -6.2973,2.5398 -8.5067,1.0688 z m 0.1181,-0.2214 c 3.4508,-0.344 3.2314,-7.0257 4.9405,-8.8835 -1.7029,0.4992 -3.4432,2.6592 -4.3504,5.0954 0.2736,1.0007 0.1975,2.8394 -0.5901,3.7881 z m -1.1053,0.7411 c -0.3981,3.7055 -6.8474,3.4986 -8.6116,5.2953 0.4853,-1.7585 2.6135,-3.6785 4.903,-4.7018 1.183,0.3826 2.9269,0.2654 3.7086,-0.5935 z m 0.078,-0.3028 c -2.7604,2.6825 -9.2269,-2.2934 -12.2017,-2.1538 1.7306,-1.1268 5.5344,-0.919 8.6889,0.135 1.2498,1.0325 2.4359,1.7649 3.5128,2.0188 z m 17.42,51.4787 c 0.8737,0.0764 1.6618,0.3502 2.3967,0.8095 -0.2761,-0.6101 -0.4452,-1.2 -0.4302,-1.7085 -0.286,0.1953 -1.4571,0.7745 -1.9665,0.899 z"
     style="fill:#1675b7;fill-rule:evenodd"
     id="path264"
     inkscape:connector-curvature="0" />
  <path
     d="m 165.9567,145.0608 c 1.5396,-2.5497 2.5437,-4.1914 1.4809,-6.9724 0.7591,1.7434 3.3007,4.1381 5.3167,4.6279 0.5767,-3.0327 0.2964,-4.9835 -0.6676,-6.1855 0.0671,-0.6291 0.9766,-5.0779 -4.996,-5.7665 3.9574,2.8964 -0.3571,4.0858 -3.3274,2.8431 -3.4268,-1.4361 -4.9751,-5.4584 0.0678,-4.3159 -1.588,-1.572 -3.1306,-1.8988 -4.3595,-1.7226 -0.2962,-0.9389 -0.7863,-1.6578 -1.8851,-2.2463 1.14,0.5452 3.4588,0.6419 4.6845,0.0104 -1.0303,-1.7742 -2.0201,-2.632 -3.0275,-2.8162 -0.1714,-0.2464 -0.9743,-1.6572 -2.6206,-1.624 1.0024,-16.7745 4.4859,-31.7767 17.6579,-43.6493 3.6632,-1.1761 9.0246,-7.5197 9.7239,-11.141 -1.9923,3.1014 -9.7108,6.3444 -10.1817,10.9635 -6.687,5.3569 -11.372,12.41 -14.5829,20.1542 3.0876,-18.7019 8.9075,-38.5491 16.5731,-56.4638 2.2292,0.2231 4.5632,-0.2302 6.5307,-1.134 0.866,1.9672 2.4436,3.8028 4.4294,4.7234 4.3496,-1.7218 9.2613,-11.4154 0.8668,-12.0953 1.6966,4.6246 -0.9229,6.0274 -1.4319,4.3277 1.3972,-2.0153 1.5766,-4.3879 -0.89,-6.7923 3.2307,-0.7976 4.5717,-2.2154 3.7929,-2.8219 -0.9533,-0.7424 -1.2372,1.201 -3.9343,2.6866 -0.1133,-0.1061 -0.2316,-0.2123 -0.3551,-0.3183 2.031,-3.825 4.7775,-4.1516 3.7846,-5.4604 -0.8135,-1.0722 -2.8042,0.8188 -3.896,5.3658 -0.1034,-0.0866 -0.2104,-0.1734 -0.3214,-0.2601 -3.2,8.5542 -8.7645,3.7899 -0.4284,-0.3944 -0.1298,-0.1421 -0.2585,-0.2771 -0.386,-0.4059 1.8938,-1.8023 2.2659,-3.2867 1.4547,-3.4355 -0.9736,-0.1783 -0.5603,1.2098 -1.68,3.2132 -2.7567,-2.6528 -4.9879,-2.3019 -6.7967,-0.7394 -2.5088,-0.0376 -1.592,-3.6024 3.5925,-2.0958 -1.0325,-8.1457 -10.5405,-2.4555 -11.959,2.0025 1.1756,2.137 3.4497,3.6912 5.7126,4.3161 -1.0956,3.0507 -1.2825,6.6865 -0.2584,8.8623 0.3651,0.121 0.7379,0.2191 1.1163,0.2963 -3.0969,7.2578 -5.8761,14.7236 -8.2994,22.3263 -0.6082,-6.3408 -2.2594,-12.7133 -4.683,-18.6144 0.1569,-1.3288 -0.0548,-2.9395 -0.564,-4.3579 1.4909,-0.4117 2.9892,-1.4357 3.7638,-2.8437 -0.9346,-2.9372 -7.1257,-6.5467 -7.8519,-1.3545 3.4159,-0.9926 3.9925,1.3912 2.3395,1.4159 -1.1918,-1.0295 -2.6619,-1.2606 -4.4782,0.4872 -0.7376,-1.32 -0.4654,-2.2345 -1.1068,-2.117 -0.5345,0.098 -0.2894,1.0761 0.9585,2.2635 -0.0841,0.0849 -0.1689,0.1738 -0.2543,0.2674 5.4922,2.757 1.826,5.896 -0.2824,0.2599 -0.0731,0.0571 -0.1436,0.1143 -0.2117,0.1714 -0.7194,-2.9959 -2.031,-4.2419 -2.567,-3.5353 -0.6542,0.8623 1.1554,1.0774 2.4936,3.5975 -0.0814,0.07 -0.1593,0.1399 -0.2339,0.2098 -1.7771,-0.9787 -1.9641,-2.2593 -2.5922,-1.7701 -0.5132,0.3995 0.3704,1.3337 2.4988,1.8593 -1.625,1.5842 -1.5067,3.1474 -0.5863,4.4751 -0.3353,1.1199 -2.2678,0.1956 -1.1499,-2.8513 -5.5619,0.1203 -2.0882,6.8347 0.7775,7.9692 1.3084,-0.6066 2.3479,-1.816 2.9185,-3.1121 1.6929,0.7776 3.7972,1.0487 5.6223,0.4829 3.083,8.7936 4.8958,16.5585 2.6722,25.5024 -1.9754,7.9449 -4.0329,15.8813 -5.4243,23.9192 -1.3741,-0.219 -3.1812,-0.8831 -4.6623,-0.8747 -0.4298,0.529 -1.5231,0.898 -2.0382,0.7559 1.43,1.2803 4.5593,1.515 6.5696,0.8779 -0.8096,4.7709 -1.4686,9.5651 -1.9679,14.3786 -0.744,-5.3762 -2.3264,-10.5975 -4.9885,-15.4449 0.2554,-4.3202 -6.4213,-8.3815 -7.8456,-11.5026 0.1634,3.4063 4.2328,9.9154 7.4324,11.4818 4.2101,8.4876 5.0137,16.9113 4.5618,26.1714 -0.412,0.1428 -0.8621,0.3688 -1.3527,0.7039 2.6013,-0.2141 1.9618,2.0883 -0.4338,2.876 -2.3463,0.7703 -4.8746,-0.5761 -1.8444,-2.1972 -1.5595,-0.1036 -2.4934,0.4638 -3.0213,1.1314 0.2931,-0.6106 0.5257,-1.2662 0.6372,-1.9282 0.4543,-0.0773 0.4498,-0.5977 0.2444,-0.8548 1.0191,-0.9297 1.4171,-3.284 0.9686,-4.4269 -0.0983,-0.2508 -0.4933,-0.0876 -0.4393,0.1451 0.043,0.1847 0.2426,0.3053 0.282,0.0646 0.3149,1.3406 0.023,3.3826 -0.9431,4.1067 -0.0128,-0.007 -0.0258,-0.0118 -0.0391,-0.0165 0.6348,-0.7269 0.8824,-2.2627 0.615,-3.0515 -0.0796,-0.2349 -0.3954,-0.1235 -0.3476,0.0981 0.0287,0.1328 0.1739,0.2187 0.2021,0.0462 0.2193,0.9332 -0.0268,2.1261 -0.6171,2.8963 -0.1504,0.0269 -0.3223,0.1702 -0.49,0.5015 -0.7677,1.5291 -1.7176,3.2674 -2.1112,5.2915 0.4412,-0.4203 1.0398,-1.1351 1.5656,-2.0022 -0.1329,0.3927 -0.1511,0.7322 -0.1029,0.892 -0.9918,1.0237 -1.2151,2.4162 -0.9734,4.3036 1.5661,-0.2664 3.1375,-1.3693 3.9416,-1.9481 -0.5121,1.6028 -0.5868,2.2783 0.9718,4.2092 -0.2509,0.3215 -0.4993,0.6683 -0.7464,1.0401 2.0431,1.2403 4.9167,1.5346 6.4015,1.6687 -2.3713,1.4459 -3.0446,2.1401 -3.0638,6.9165 2.0696,-0.3963 4.476,-1.0893 5.9417,-2.1451 -2.6813,6.3013 -4.483,13.1744 -5.0679,19.9927 -2.2445,-6.1914 -4.7202,-12.2679 -7.4038,-18.1904 1.0522,0.6291 2.5702,1.0535 3.895,1.3071 -0.0136,-3.4033 -0.4934,-3.8981 -2.183,-4.9283 1.058,-0.0956 3.1055,-0.3053 4.5613,-1.189 -1.1291,-1.6988 -2.2878,-2.6704 -3.8102,-2.8036 -0.2454,-0.5482 -2.5219,-2.2183 -4.9455,0.1812 3.5933,-0.8142 2.4902,2.052 0.0484,3.0752 -2.1165,0.8855 -5.1907,0.038 -2.371,-2.0258 -4.2557,0.4906 -3.6076,3.6606 -3.5598,4.1089 -0.6869,0.8564 -0.8866,2.2465 -0.4756,4.4073 1.4365,-0.3489 3.2473,-2.0552 3.7883,-3.2975 -0.7573,1.9816 -0.0419,3.1513 1.0552,4.9681 1.1277,-1.1811 2.289,-2.683 2.8349,-3.8887 5.5139,11.8562 10.3724,26.9807 14.172,41.5758 -0.8791,0.1139 -1.6595,0.1542 -2.2251,-0.0221 0.5322,0.602 1.468,1.0685 2.5721,1.3661 4.3316,16.8872 7.2228,32.9021 8.0452,42.1093 0.0148,0.1595 0.2572,0.1453 0.2534,-0.0146 -0.3122,-11.1081 -4.8931,-30.6018 -0.4877,-42.8993 4.0578,-1.3506 9.887,-9.0552 10.4469,-13.2564 -2.0231,3.5944 -10.3532,7.7743 -10.6926,12.9503 -1.9468,5.0055 -2.82,10.1965 -2.8658,15.4172 -0.8723,-4.6894 -1.8894,-9.3614 -3.0429,-14.0012 1.9963,0.2133 4.1494,-0.0776 5.4107,-1.0279 -0.6394,0.1195 -1.928,-0.4408 -2.3951,-1.1266 -1.0719,-0.097 -2.3087,0.0845 -3.4913,0.2731 -1.4504,-5.643 -2.8371,-10.0627 -4.6325,-15.4357 -2.7559,-8.2475 0.2658,-19.6979 3.6649,-27.5648 0.7395,1.7132 2.4121,3.8877 4.0356,5.5884 z m -19.7799,-36.2593 c -0.7909,0.3892 -0.3514,2.9117 -0.3514,2.912 -2e-4,0 -0.5272,0.1255 -0.5021,0.6778 0.0251,0.5523 0.251,1.2298 0.251,1.23 -2.1696,0.9657 -0.1191,3.6873 -1.2678,5.1714 -1.2221,1.5788 -1.2381,1.7875 0.2397,2.8887 -1.1561,-0.47 -1.669,-0.9314 -1.6077,0.5001 0.0523,1.2255 -1.0298,1.6247 -0.9429,3.057 0.1085,1.7883 0.3263,4.6497 0.5412,4.6497 0.7173,0 2.7706,-2.8927 4.4134,-4.997 0.4706,-1.1402 0.9251,-2.3002 1.5427,-3.3631 -0.4493,-3.7913 -2.0157,-12.8744 -2.3161,-12.7266 z m -9.6294,1.8818 c -1.8445,-0.0596 -0.9291,1.5316 -0.0253,2.8874 0.904,1.3559 1.6827,2.8128 2.1092,3.7664 -1.3019,1.0862 1.086,1.2701 1.9584,1.5567 -1.6558,-0.13 -2.8173,0.0685 -1.4561,2.4606 0,2e-4 -0.0504,1.0044 0.3012,2.1594 0.3515,1.1549 0.8033,0.9039 0.8034,0.9039 0,1e-4 -0.2767,0.7884 0.3014,1.5065 1.0363,1.2873 0.5071,2.7686 1.7575,4.0927 -0.5744,-1.8142 -0.6571,-4.3394 -0.5326,-5.3033 0.1096,-0.848 0.336,-0.952 0.7638,-1.8386 0.5033,-1.043 -0.4586,-1.7582 1.3534,-3.9269 0.7879,-0.9427 0.5603,-1.7389 -0.0971,-2.5661 -1.7427,-2.1922 -5.6233,-5.6467 -7.2372,-5.6987 z m 15.2097,-16.0899 c 2.4213,-2.4828 -0.6222,-9.3903 -0.0332,-12.2298 -1.2304,1.5308 -1.7076,5.1945 -1.3388,8.4341 0.8219,1.2 1.4145,2.5336 1.372,3.7957 z m -0.7188,0.9691 c -0.1237,0.6044 -0.607,1.3768 -1.3287,1.7616 -0.6888,2.028 -0.5291,5.1153 -1.2373,6.366 1.7411,-1.0315 3.3519,-5.6956 2.566,-8.1276 z m 0.9144,-0.6204 c 3.206,0.1392 3.8853,-6.01 5.6952,-7.4865 -1.6254,0.2332 -3.5044,1.9818 -4.6559,4.0939 0.1188,0.9528 -0.193,2.6274 -1.0393,3.3926 z m -1.1101,0.5332 c -0.8529,3.3414 -6.7325,2.3026 -8.5852,3.716 0.6759,-1.5463 2.8783,-3.0249 5.11,-3.6611 1.0333,0.5069 2.6457,0.629 3.4752,-0.0549 z m 0.1114,-0.2675 c -2.8819,2.0939 -8.1498,-3.3154 -10.8926,-3.5792 1.7335,-0.8045 5.1904,-0.1131 7.9407,1.2681 1.0088,1.11 1.9987,1.9369 2.9519,2.3111 z m 17.947,87.4749 c -2.6825,-3.2613 1.7204,-11.3294 1.2976,-14.8351 1.3355,1.9837 1.538,6.4782 0.7574,10.371 -1.1207,1.3714 -1.9766,2.9283 -2.055,4.4641 z m 0.7725,1.2497 c 0.0879,0.746 0.5951,1.733 1.4311,2.274 0.6273,2.5314 0.116,6.2609 0.8467,7.8511 -2.0064,-1.4306 -3.4813,-7.2552 -2.2778,-10.1251 z m -1.0456,-0.8467 c -3.9042,-0.1609 -4.0963,-7.6914 -6.1405,-9.669 1.9482,0.4501 4.0482,2.7649 5.2282,5.4458 -0.242,1.1438 -0.0358,3.2078 0.9123,4.2232 z m 1.292,0.761 c 0.6914,4.1419 7.932,3.486 10.0347,5.3914 -0.6612,-1.9457 -3.1813,-3.9662 -5.8237,-4.9675 -1.3059,0.5089 -3.2748,0.4912 -4.211,-0.4239 z m -0.1075,-0.3358 c 3.2813,2.8367 10.229,-3.185 13.584,-3.223 -2.0206,-1.1544 -6.2858,-0.6709 -9.765,0.7222 -1.3381,1.2431 -2.6242,2.1446 -3.819,2.5008 z M 173.546,76.661 c -2.2085,-3.0279 2.1092,-9.9489 1.9161,-13.0764 1.0814,1.8269 1.0274,5.8187 0.1346,9.2279 -1.0633,1.1565 -1.9018,2.4919 -2.0507,3.8485 z m 0.6199,1.2639 c 0.0391,0.6651 0.4371,1.5661 1.1504,2.0886 0.4245,2.2746 -0.2211,5.553 0.344,6.9994 -1.7035,-1.3709 -2.7095,-6.608 -1.4944,-9.088 z m -0.7646,-0.5832 c -0.5726,0.0725 -1.6857,-0.4901 -2.0638,-1.1224 -2.1271,-0.3179 -5.0692,0.5718 -6.443,0.0536 1.3749,1.751 6.2973,2.5398 8.5068,1.0688 z m -0.1182,-0.2214 c -3.4508,-0.344 -3.2313,-7.0257 -4.9405,-8.8835 1.7029,0.4992 3.4432,2.6592 4.3504,5.0954 -0.2735,1.0007 -0.1974,2.8394 0.5901,3.7881 z m 1.1054,0.7411 c 0.398,3.7055 6.8473,3.4986 8.6115,5.2953 -0.4853,-1.7585 -2.6135,-3.6785 -4.9029,-4.7018 -1.1831,0.3826 -2.9269,0.2654 -3.7086,-0.5935 z m -0.078,-0.3028 c 2.7603,2.6825 9.2268,-2.2934 12.2016,-2.1538 -1.7306,-1.1268 -5.5344,-0.919 -8.6888,0.135 -1.2498,1.0325 -2.436,1.7649 -3.5128,2.0188 z m -17.42,51.4787 c -0.8737,0.0764 -1.6618,0.3502 -2.3968,0.8095 0.2762,-0.6101 0.4453,-1.2 0.4302,-1.7085 0.2861,0.1953 1.4572,0.7745 1.9666,0.899 z"
     style="fill:#1675b7;fill-rule:evenodd"
     id="path266"
     inkscape:connector-curvature="0" />
  <path
     d="m 324.8437,508.461 62.3791,0.2944 c 9.4945,0.0448 18.1076,3.9695 24.3352,10.2561 6.2276,6.2867 10.0708,14.9364 10.026,24.431 l -0.2944,62.3791 c -0.0448,9.4945 -3.9695,18.1076 -10.2562,24.3352 -6.2866,6.2276 -14.9364,10.0708 -24.4309,10.026 l -62.3791,-0.2944 c -9.4945,-0.0448 -18.1076,-3.9695 -24.3352,-10.2562 -6.2276,-6.2866 -10.0708,-14.9364 -10.026,-24.4309 l 0.2944,-62.3791 c 0.0448,-9.4945 3.9695,-18.1076 10.2562,-24.3352 6.2866,-6.2276 14.9364,-10.0709 24.4309,-10.026 z m 62.372,1.7944 -62.3791,-0.2944 c -9.081,-0.0428 -17.3546,3.6335 -23.3687,9.5911 -6.0141,5.9576 -9.7684,14.1962 -9.8113,23.2772 l -0.2944,62.3791 c -0.0428,9.0809 3.6336,17.3546 9.5912,23.3687 5.9576,6.0141 14.1961,9.7684 23.2771,9.8112 l 62.3791,0.2944 c 9.0809,0.0429 17.3546,-3.6335 23.3687,-9.5911 6.0141,-5.9576 9.7684,-14.1961 9.8112,-23.2771 l 0.2944,-62.3791 c 0.0429,-9.081 -3.6335,-17.3546 -9.5911,-23.3687 -5.9576,-6.0141 -14.1961,-9.7684 -23.2771,-9.8113 z"
     style="fill:#1675b7;fill-rule:evenodd"
     id="path268"
     inkscape:connector-curvature="0" />
  <path
     d="m 404.9066,553.5876 c 1.0173,0.1229 1.891,0.0264 3.0725,-0.1703 2.4654,-0.4104 5.1159,-1.5505 7.2673,-3.5682 2.1516,-2.0179 3.8064,-4.9182 4.2814,-8.8512 0.2307,-1.9104 0.3616,-4.2059 -0.2185,-6.48 l 0.6986,-0.1157 c 0.4136,2.4846 0.4615,4.7057 0.2231,6.6795 -0.4971,4.1171 -2.2367,7.1598 -4.4994,9.2822 -2.263,2.1224 -5.0478,3.321 -7.6367,3.752 -1.2489,0.2078 -2.3461,0.2427 -3.4274,0.1122 0,0 -1.7722,-0.261 -2.9996,-0.5773 0,0 -0.226,0.1599 -0.3531,0.5493 -0.1303,0.3898 0.8959,0.7275 1.0512,2.2156 0.1541,1.4877 -0.9854,2.392 -1.8964,2.4877 -0.9134,0.0948 -1.7387,-0.2646 -2.0129,-0.954 -0.2772,-0.6889 -0.6317,-2.1217 -2.0932,-1.7321 -1.4638,0.3923 -1.2995,1.6741 -1.186,2.0723 0.1084,0.3993 -0.0757,0.6234 -0.3773,0.6546 -0.3051,0.0314 -0.5515,-0.0117 -0.3861,-1.0883 0.3713,-2.4724 3.5218,-3.92 5.8665,-3.7537 0.7144,0.0517 0.6,-0.78 0.6007,-0.78 -0.1787,-0.0847 -1.2145,-0.7971 -2.1566,-1.3486 -1.8253,-1.0642 -3.1854,-1.2075 -4.5539,-1.0652 -0.3037,0.0313 -0.6573,-0.0689 -0.7088,0.4155 -0.0426,0.3949 1.5344,0.3189 1.7656,2.5167 0.1229,1.1841 -0.8652,2.4253 -3.4833,2.3435 -1.269,-0.0381 -2.2291,0.951 -2.0293,2.8429 0.1967,1.8951 1.6471,2.0518 2.4729,1.761 0.8245,-0.2903 0.7972,0.7717 -0.1145,0.8666 -1.173,0.1218 -3.0369,-0.2656 -3.3456,-3.2425 -0.5908,-5.6877 3.9302,-9.5511 8.2236,-7.725 -1.9854,-1.59 -4.1562,-4.003 -4.8309,-12.2818 -0.2486,-3.0516 -2.0775,-4.8439 -4.4765,-4.5949 -2.401,0.2492 -2.5909,2.3884 -1.8874,2.8964 -0.2087,-0.6961 0.3371,-1.3675 0.9801,-1.4345 0.6415,-0.0666 1.5239,0.2174 1.6179,1.0964 0.0906,0.8789 -0.3503,1.5745 -1.4322,1.687 -1.0818,0.1119 -2.0268,-0.7469 -2.1285,-1.7273 -0.121,-1.173 0.7043,-2.7737 2.6654,-2.9769 3.1787,-0.3308 4.1387,1.3472 5.1098,3.7766 1.4151,-6.1297 0.1498,-7.4337 -0.5129,-8.5614 -0.1991,1.0461 -1.0289,1.9527 -2.2121,2.0755 -1.6912,0.1755 -2.3302,-1.0223 -1.9363,-3.1831 0.3775,-2.0857 -1.5411,-3.0192 -3.8785,-2.7763 -4.0257,0.4178 -4.9918,4.2553 -3.0449,5.2378 -0.4635,-0.8403 0.4624,-1.7909 1.2084,-1.8682 0.7434,-0.0762 1.3501,0.5091 1.45,1.456 0.0972,0.9469 -0.5169,1.626 -1.6317,1.7419 -1.5889,0.1652 -2.334,-1.5525 -2.469,-2.8711 -0.2093,-2.0293 1.9693,-5.3832 5.7086,-5.7716 3.6693,-0.3805 7.9696,2.1978 8.7544,9.7563 0.5894,-2.7272 1.4777,-4.5117 1.1274,-7.9112 -0.4207,-4.0605 -3.9217,-11.0783 -10.582,-11.0526 4.1881,0.3339 5.3983,2.6174 5.5466,4.0379 0.1508,1.4542 -0.1699,3.1452 -2.2148,3.3577 -2.587,0.2687 -3.1975,-2.1293 -3.8794,-3.2887 -0.6844,-1.159 -1.4668,-2.2572 -4.5603,-1.9367 -4.3926,0.4565 -5.9102,5.9983 -3.3381,6.8585 -1.2605,-2.4287 3.1371,-3.3496 3.397,-0.8648 0.089,0.8624 -0.526,1.8488 -1.794,1.9809 -1.8093,0.1874 -3.3276,-0.9365 -3.5168,-2.7626 -0.3414,-3.2804 2.7885,-7.5198 8.338,-8.0957 8.4914,-0.8819 13.3897,6.0444 13.334,14.0149 0.7452,-1.3763 1.8778,-1.9722 3.1306,-2.1023 1.2513,-0.1297 2.4781,0.8363 2.5998,1.9859 0.1189,1.1501 -0.3732,2.0214 -1.5222,2.1409 -1.1489,0.1194 -1.6962,-0.6792 -1.7547,-1.2712 -0.0898,-0.8625 0.768,-1.9764 1.9213,-1.7371 -1.065,-1.3767 -3.3322,0.0386 -4.1805,1.7156 -0.8504,1.6779 -0.989,3.3336 -2.0474,7.4426 1.2788,-1.5178 3.9074,-4.8162 8.3229,-5.2741 4.4141,-0.4586 7.4056,1.6922 9.1044,5.2078 1.6982,3.5162 3.1929,3.6168 3.7533,3.5589 0.5573,-0.0574 0.9454,-0.2523 1.3067,-0.7518 -2.079,0.6689 -2.8756,-2.8286 -0.5239,-3.0726 1.1665,-0.1213 1.7174,0.7447 1.8276,1.81 0.2266,2.1741 -2.6592,3.7532 -5.9191,1.7425 0.3909,0.8143 0.3072,2.3266 -1.1781,2.4807 -1.4891,0.1551 -2.0947,-1.0468 -2.1562,-4.6303 -0.0642,-3.5821 -2.8646,-5.8553 -6.4493,-5.4833 3.3074,0.5795 5.2482,3.7968 5.4269,5.5207 0.1789,1.7257 -0.6267,2.8683 -1.7743,2.9884 -1.1498,0.1194 -1.8395,-0.5954 -1.9269,-1.4412 -0.0873,-0.8448 0.3456,-1.2667 0.2895,-1.808 -0.1742,-1.6794 -1.9882,-3.5539 -4.9848,-3.2422 -3.0704,0.3187 -6.0135,3.5188 -6.2376,7.4158 0.2252,-2.3934 2.6336,-5.0595 5.4946,-5.3565 1.3518,-0.1406 1.9617,0.1386 2.0616,1.0856 0.0967,0.9472 -0.5407,1.3888 -1.5568,1.8023 1.1374,0.0872 1.1995,1.3794 1.1402,1.7612 -0.0627,0.3829 -0.6335,0.8181 -0.4502,-0.055 0.1818,-0.8742 -1.0641,-1.3251 -2.2787,-1.1999 -2.4115,0.2509 -4.0616,2.0513 -3.7325,5.2077 0.2317,2.2317 0.6173,2.9782 1.9266,4.7223 -0.7013,-2.445 0.6783,-7.9667 6.0883,-8.5277 2.333,-0.2424 6.1036,0.8701 6.4196,3.8792 0.1473,1.4204 -0.344,2.3259 -0.9202,3.0009 -0.58,0.6765 -0.6178,-0.004 -0.1204,-0.5002 1.2325,-1.233 0.3688,-4.619 -2.0259,-4.3703 -0.9467,0.099 -2.0657,0.864 -2.1905,1.9367 -0.1294,1.0732 -0.4288,2.4717 -2.2206,2.6572 -1.2855,0.134 -2.2985,-1.0602 -2.4003,-2.0405 -0.101,-0.9806 0.0622,-2.0234 1.0051,-2.8385 -1.1254,0.3549 -3.4321,2.2018 -3.0774,5.5831 0.3362,3.2509 2.8315,4.7842 4.4839,5.6526 0.4332,0.2293 0.6642,0.1705 0.7478,-0.0427 0.0794,-0.213 0.0763,-0.5547 -0.42,-0.7429 -1.3282,-0.5002 -3.32,-2.8682 -2.8903,-4.7929 0.1165,-0.5257 0.6433,-0.3743 0.5356,0.2173 -0.3722,2.0133 1.5739,2.5682 2.2805,1.8836 0.5894,-0.5742 1.5345,-1.0142 2.3471,-1.0992 0.7546,-0.0782 1.9535,0.4016 2.1044,1.8332 0.1615,1.5667 -0.8643,2.2086 -2.6566,2.3951 -0.3732,0.0391 -0.5831,0.3338 -0.6922,0.9264 0,0 1.2318,0.3505 3.0132,0.7123 z m -28.4493,69.9178 c -0.1228,1.0173 -0.0263,1.891 0.1704,3.0725 0.4104,2.4654 1.5505,5.1159 3.5682,7.2673 2.0179,2.1516 4.9182,3.8064 8.8511,4.2813 1.9104,0.2307 4.206,0.3617 6.4801,-0.2184 l 0.1157,0.6986 c -2.4847,0.4136 -4.7057,0.4615 -6.6795,0.2231 -4.1171,-0.4971 -7.1599,-2.2367 -9.2822,-4.4994 -2.1224,-2.263 -3.321,-5.0479 -3.752,-7.6368 -0.2079,-1.2489 -0.2428,-2.346 -0.1122,-3.4273 0,0 0.261,-1.7722 0.5773,-2.9996 0,0 -0.1599,-0.2261 -0.5493,-0.3531 -0.3898,-0.1303 -0.7276,0.8959 -2.2156,1.0512 -1.4878,0.1541 -2.392,-0.9854 -2.4877,-1.8964 -0.0949,-0.9135 0.2646,-1.7387 0.954,-2.0129 0.6889,-0.2773 2.1217,-0.6317 1.7321,-2.0932 -0.3923,-1.4638 -1.6742,-1.2995 -2.0723,-1.186 -0.3993,0.1084 -0.6235,-0.0758 -0.6546,-0.3773 -0.0314,-0.3051 0.0117,-0.5515 1.0882,-0.3861 2.4724,0.3712 3.9201,3.5218 3.7538,5.8665 -0.0518,0.7144 0.78,0.6 0.78,0.6006 0.0846,-0.1786 0.797,-1.2144 1.3486,-2.1565 1.0642,-1.8253 1.2075,-3.1854 1.0651,-4.5539 -0.0312,-0.3037 0.069,-0.6574 -0.4154,-0.7088 -0.395,-0.0426 -0.3189,1.5344 -2.5167,1.7655 -1.1842,0.123 -2.4253,-0.8651 -2.3435,-3.4832 0.038,-1.269 -0.951,-2.2291 -2.8429,-2.0294 -1.8951,0.1968 -2.0518,1.6472 -1.761,2.473 0.2903,0.8245 -0.7717,0.7971 -0.8666,-0.1146 -0.1218,-1.1729 0.2656,-3.0368 3.2425,-3.3455 5.6876,-0.5908 9.5511,3.9302 7.7249,8.2236 1.5901,-1.9855 4.0031,-4.1562 12.2819,-4.8309 3.0516,-0.2486 4.8439,-2.0775 4.5949,-4.4766 -0.2492,-2.4009 -2.3885,-2.5908 -2.8964,-1.8873 0.6961,-0.2088 1.3675,0.3371 1.4344,0.9801 0.0667,0.6415 -0.2173,1.5239 -1.0963,1.6178 -0.879,0.0907 -1.5745,-0.3502 -1.6871,-1.4321 -0.1119,-1.0818 0.747,-2.0268 1.7274,-2.1285 1.173,-0.121 2.7737,0.7043 2.9768,2.6654 0.3308,3.1786 -1.3472,4.1387 -3.7766,5.1098 6.1298,1.4151 7.4338,0.1498 8.5614,-0.5129 -1.0461,-0.1991 -1.9526,-1.0289 -2.0754,-2.2121 -0.1755,-1.6912 1.0222,-2.3302 3.183,-1.9363 2.0857,0.3775 3.0193,-1.5411 2.7763,-3.8785 -0.4177,-4.0257 -4.2552,-4.9918 -5.2377,-3.0449 0.8403,-0.4635 1.7908,0.4624 1.8681,1.2084 0.0763,0.7434 -0.5091,1.35 -1.4559,1.45 -0.947,0.0972 -1.626,-0.5169 -1.7419,-1.6317 -0.1653,-1.5889 1.5525,-2.334 2.8711,-2.469 2.0292,-0.2093 5.3832,1.9693 5.7716,5.7086 0.3805,3.6693 -2.1978,7.9696 -9.7564,8.7544 2.7272,0.5893 4.5118,1.4777 7.9113,1.1274 4.0604,-0.4207 11.0783,-3.9217 11.0526,-10.5821 -0.3339,4.1881 -2.6174,5.3983 -4.0379,5.5467 -1.4542,0.1508 -3.1452,-0.1699 -3.3578,-2.2148 -0.2687,-2.5871 2.1294,-3.1975 3.2887,-3.8794 1.1591,-0.6844 2.2573,-1.4668 1.9368,-4.5603 -0.4565,-4.3926 -5.9984,-5.9102 -6.8585,-3.3381 2.4286,-1.2605 3.3496,3.1371 0.8648,3.3969 -0.8625,0.0891 -1.8488,-0.5259 -1.9809,-1.7939 -0.1874,-1.8093 0.9365,-3.3276 2.7626,-3.5168 3.2804,-0.3414 7.5198,2.7885 8.0956,8.338 0.8819,8.4914 -6.0444,13.3897 -14.0148,13.334 1.3763,0.7452 1.9722,1.8777 2.1023,3.1306 0.1297,1.2513 -0.8364,2.4781 -1.986,2.5998 -1.1501,0.1188 -2.0213,-0.3733 -2.1408,-1.5222 -0.1194,-1.1489 0.6792,-1.6962 1.2712,-1.7547 0.8625,-0.0899 1.9763,0.7679 1.737,1.9213 1.3768,-1.065 -0.0385,-3.3322 -1.7155,-4.1805 -1.6779,-0.8504 -3.3337,-0.989 -7.4426,-2.0474 1.5178,1.2788 4.8162,3.9074 5.2741,8.3229 0.4585,4.4141 -1.6922,7.4056 -5.2079,9.1044 -3.5161,1.6982 -3.6168,3.1929 -3.5588,3.7533 0.0574,0.5573 0.2523,0.9454 0.7517,1.3067 -0.6689,-2.079 2.8287,-2.8756 3.0727,-0.5239 0.1213,1.1664 -0.7447,1.7174 -1.81,1.8276 -2.1742,0.2266 -3.7532,-2.6592 -1.7425,-5.9191 -0.8144,0.3909 -2.3266,0.3072 -2.4807,-1.1781 -0.1551,-1.4891 1.0467,-2.0947 4.6302,-2.1562 3.5822,-0.0642 5.8554,-2.8646 5.4834,-6.4493 -0.5795,3.3074 -3.7969,5.2482 -5.5208,5.4269 -1.7256,0.1789 -2.8683,-0.6268 -2.9883,-1.7743 -0.1195,-1.1499 0.5953,-1.8395 1.4412,-1.927 0.8448,-0.0872 1.2667,0.3456 1.808,0.2896 1.6794,-0.1742 3.5538,-1.9882 3.2422,-4.9848 -0.3187,-3.0705 -3.5188,-6.0135 -7.4158,-6.2376 2.3933,0.2252 5.0594,2.6336 5.3565,5.4946 0.1406,1.3518 -0.1386,1.9616 -1.0856,2.0616 -0.9472,0.0967 -1.3888,-0.5407 -1.8023,-1.5568 -0.0872,1.1373 -1.3794,1.1995 -1.7613,1.1402 -0.3828,-0.0627 -0.818,-0.6336 0.0551,-0.4502 0.8742,0.1818 1.3251,-1.0641 1.1999,-2.2787 -0.251,-2.4116 -2.0513,-4.0616 -5.2077,-3.7325 -2.2317,0.2317 -2.9782,0.6172 -4.7223,1.9266 2.445,-0.7013 7.9667,0.6783 8.5277,6.0882 0.2424,2.3331 -0.8701,6.1037 -3.8792,6.4197 -1.4204,0.1473 -2.3259,-0.344 -3.0009,-0.9202 -0.6765,-0.58 0.004,-0.6178 0.5002,-0.1204 1.233,1.2325 4.619,0.3688 4.3702,-2.0259 -0.099,-0.9467 -0.8639,-2.0657 -1.9366,-2.1905 -1.0732,-0.1294 -2.4717,-0.4289 -2.6572,-2.2206 -0.134,-1.2856 1.0601,-2.2985 2.0405,-2.4003 0.9806,-0.101 2.0234,0.0622 2.8385,1.005 -0.355,-1.1253 -2.2018,-3.4321 -5.5831,-3.0773 -3.251,0.3362 -4.7842,2.8315 -5.6526,4.4839 -0.2294,0.4331 -0.1705,0.6642 0.0427,0.7478 0.213,0.0794 0.5547,0.0763 0.7429,-0.42 0.5002,-1.3282 2.8682,-3.32 4.7929,-2.8904 0.5256,0.1166 0.3743,0.6434 -0.2174,0.5357 -2.0132,-0.3722 -2.5681,1.5739 -1.8835,2.2805 0.5742,0.5894 1.0142,1.5344 1.0992,2.3471 0.0782,0.7546 -0.4016,1.9535 -1.8332,2.1044 -1.5668,0.1614 -2.2086,-0.8643 -2.3951,-2.6566 -0.0392,-0.3732 -0.3338,-0.5831 -0.9264,-0.6922 0,0 -0.3505,1.2318 -0.7124,3.0132 z m -69.9177,-28.4493 c -1.0173,-0.1229 -1.891,-0.0263 -3.0726,0.1703 -2.4653,0.4105 -5.1158,1.5506 -7.2673,3.5683 -2.1515,2.0179 -3.8063,4.9182 -4.2813,8.8511 -0.2307,1.9104 -0.3616,4.206 0.2185,6.4801 l -0.6986,0.1157 c -0.4137,-2.4847 -0.4615,-4.7057 -0.2231,-6.6795 0.4971,-4.1171 2.2366,-7.1599 4.4994,-9.2823 2.263,-2.1223 5.0478,-3.3209 7.6367,-3.7519 1.2489,-0.2079 2.3461,-0.2428 3.4274,-0.1122 0,0 1.7722,0.261 2.9996,0.5773 0,0 0.226,-0.1599 0.353,-0.5493 0.1304,-0.3898 -0.8958,-0.7276 -1.0511,-2.2156 -0.1541,-1.4878 0.9854,-2.392 1.8964,-2.4877 0.9134,-0.0949 1.7387,0.2646 2.0129,0.954 0.2772,0.6888 0.6317,2.1216 2.0932,1.7321 1.4638,-0.3924 1.2995,-1.6742 1.186,-2.0724 -0.1084,-0.3992 0.0757,-0.6234 0.3773,-0.6545 0.3051,-0.0314 0.5515,0.0117 0.3861,1.0882 -0.3713,2.4724 -3.5218,3.92 -5.8665,3.7538 -0.7144,-0.0518 -0.6,0.78 -0.6007,0.78 0.1787,0.0846 1.2144,0.797 2.1566,1.3486 1.8252,1.0642 3.1853,1.2074 4.5539,1.0651 0.3037,-0.0312 0.6573,0.0689 0.7088,-0.4155 0.0426,-0.3949 -1.5344,-0.3188 -1.7656,-2.5166 -0.1229,-1.1842 0.8652,-2.4253 3.4833,-2.3435 1.2689,0.038 2.2291,-0.951 2.0293,-2.8429 -0.1968,-1.8952 -1.6471,-2.0519 -2.4729,-1.761 -0.8246,0.2903 -0.7972,-0.7718 0.1145,-0.8666 1.1729,-0.1218 3.0369,0.2656 3.3456,3.2425 0.5907,5.6876 -3.9303,9.5511 -8.2236,7.7249 1.9854,1.5901 4.1561,4.003 4.8309,12.2819 0.2486,3.0516 2.0775,4.8438 4.4765,4.5949 2.401,-0.2492 2.5909,-2.3885 1.8874,-2.8964 0.2087,0.696 -0.3371,1.3675 -0.9801,1.4344 -0.6415,0.0667 -1.5239,-0.2173 -1.6179,-1.0963 -0.0906,-0.879 0.3503,-1.5745 1.4322,-1.6871 1.0818,-0.1119 2.0268,0.747 2.1285,1.7273 0.1209,1.1731 -0.7043,2.7738 -2.6654,2.9769 -3.1787,0.3308 -4.1387,-1.3472 -5.1098,-3.7766 -1.4152,6.1298 -0.1498,7.4338 0.5129,8.5614 0.1991,-1.0461 1.0289,-1.9526 2.2121,-2.0754 1.6912,-0.1755 2.3302,1.0222 1.9363,3.183 -0.3775,2.0857 1.5411,3.0193 3.8785,2.7763 4.0257,-0.4178 4.9918,-4.2552 3.0449,-5.2377 0.4635,0.8402 -0.4624,1.7908 -1.2084,1.8681 -0.7434,0.0763 -1.3501,-0.5091 -1.45,-1.4559 -0.0973,-0.947 0.5168,-1.626 1.6317,-1.7419 1.5889,-0.1653 2.334,1.5524 2.469,2.8711 0.2093,2.0292 -1.9693,5.3832 -5.7086,5.7716 -3.6693,0.3805 -7.9696,-2.1979 -8.7545,-9.7564 -0.5893,2.7272 -1.4776,4.5118 -1.1273,7.9113 0.4207,4.0604 3.9217,11.0782 10.582,11.0526 -4.1881,-0.3339 -5.3983,-2.6174 -5.5466,-4.0379 -0.1508,-1.4542 0.1699,-3.1452 2.2148,-3.3578 2.587,-0.2687 3.1975,2.1294 3.8794,3.2887 0.6844,1.1591 1.4667,2.2573 4.5603,1.9368 4.3926,-0.4565 5.9102,-5.9984 3.3381,-6.8585 1.2605,2.4286 -3.1372,3.3495 -3.397,0.8648 -0.089,-0.8625 0.526,-1.8488 1.7939,-1.9809 1.8094,-0.1874 3.3277,0.9365 3.5169,2.7625 0.3414,3.2805 -2.7886,7.5199 -8.338,8.0957 -8.4914,0.8819 -13.3897,-6.0444 -13.334,-14.0148 -0.7452,1.3762 -1.8778,1.9721 -3.1306,2.1023 -1.2513,0.1297 -2.4781,-0.8364 -2.5999,-1.986 -0.1188,-1.1501 0.3733,-2.0214 1.5222,-2.1408 1.1489,-0.1194 1.6963,0.6792 1.7548,1.2712 0.0898,0.8625 -0.768,1.9763 -1.9213,1.737 1.065,1.3768 3.3322,-0.0385 4.1804,-1.7155 0.8505,-1.6779 0.9891,-3.3337 2.0475,-7.4426 -1.2789,1.5178 -3.9074,4.8161 -8.323,5.274 -4.414,0.4586 -7.4055,-1.6922 -9.1043,-5.2078 -1.6982,-3.5162 -3.1929,-3.6168 -3.7533,-3.5588 -0.5573,0.0574 -0.9454,0.2523 -1.3067,0.7517 2.079,-0.6689 2.8756,2.8287 0.5239,3.0727 -1.1665,0.1212 -1.7174,-0.7448 -1.8276,-1.81 -0.2266,-2.1742 2.6592,-3.7532 5.919,-1.7426 -0.3908,-0.8143 -0.3071,-2.3265 1.1782,-2.4806 1.4891,-0.1551 2.0947,1.0467 2.1562,4.6302 0.0642,3.5822 2.8645,5.8554 6.4492,5.4833 -3.3073,-0.5794 -5.2481,-3.7968 -5.4268,-5.5207 -0.1789,-1.7256 0.6267,-2.8683 1.7743,-2.9883 1.1498,-0.1195 1.8395,0.5953 1.9269,1.4412 0.0873,0.8447 -0.3456,1.2666 -0.2896,1.808 0.1743,1.6793 1.9883,3.5538 4.9849,3.2421 3.0704,-0.3187 6.0135,-3.5187 6.2376,-7.4157 -0.2252,2.3933 -2.6336,5.0594 -5.4946,5.3564 -1.3518,0.1407 -1.9617,-0.1385 -2.0616,-1.0855 -0.0967,-0.9472 0.5406,-1.3888 1.5568,-1.8023 -1.1374,-0.0873 -1.1995,-1.3794 -1.1402,-1.7613 0.0627,-0.3829 0.6335,-0.818 0.4502,0.0551 -0.1818,0.8742 1.0641,1.325 2.2787,1.1998 2.4115,-0.2509 4.0616,-2.0512 3.7324,-5.2077 -0.2316,-2.2317 -0.6172,-2.9781 -1.9266,-4.7222 0.7014,2.445 -0.6782,7.9667 -6.0882,8.5276 -2.333,0.2425 -6.1036,-0.8701 -6.4196,-3.8791 -0.1473,-1.4205 0.344,-2.3259 0.9201,-3.001 0.5801,-0.6765 0.6179,0.004 0.1205,0.5003 -1.2325,1.233 -0.3688,4.6189 2.0259,4.3702 0.9467,-0.099 2.0657,-0.8639 2.1904,-1.9366 0.1295,-1.0733 0.4289,-2.4718 2.2207,-2.6572 1.2855,-0.134 2.2985,1.0601 2.4003,2.0405 0.101,0.9806 -0.0622,2.0233 -1.0051,2.8385 1.1254,-0.355 3.4321,-2.2018 3.0774,-5.5831 -0.3362,-3.251 -2.8316,-4.7842 -4.4839,-5.6526 -0.4332,-0.2294 -0.6642,-0.1706 -0.7478,0.0427 -0.0794,0.213 -0.0763,0.5546 0.42,0.7429 1.3281,0.5001 3.32,2.8681 2.8903,4.7929 -0.1165,0.5256 -0.6433,0.3742 -0.5356,-0.2174 0.3722,-2.0132 -1.5739,-2.5681 -2.2805,-1.8835 -0.5894,0.5742 -1.5345,1.0142 -2.3471,1.0992 -0.7547,0.0782 -1.9535,-0.4017 -2.1044,-1.8332 -0.1615,-1.5668 0.8643,-2.2086 2.6566,-2.3952 0.3732,-0.0391 0.5831,-0.3338 0.6922,-0.9263 0,0 -1.2318,-0.3505 -3.0132,-0.7124 z m 28.4492,-69.9177 c 0.1229,-1.0174 0.0264,-1.891 -0.1703,-3.0726 -0.4104,-2.4653 -1.5505,-5.1159 -3.5682,-7.2673 -2.0179,-2.1515 -4.9182,-3.8064 -8.8512,-4.2813 -1.9104,-0.2307 -4.2059,-0.3616 -6.48,0.2185 l -0.1157,-0.6986 c 2.4847,-0.4137 4.7057,-0.4615 6.6795,-0.2231 4.1171,0.4971 7.1599,2.2366 9.2822,4.4994 2.1224,2.263 3.321,5.0478 3.752,7.6367 0.2079,1.2489 0.2428,2.3461 0.1122,3.4273 0,0 -0.261,1.7723 -0.5773,2.9997 0,0 0.1599,0.226 0.5493,0.353 0.3898,0.1304 0.7276,-0.8959 2.2156,-1.0511 1.4877,-0.1541 2.392,0.9854 2.4877,1.8964 0.0949,0.9134 -0.2646,1.7387 -0.954,2.0129 -0.6889,0.2772 -2.1217,0.6317 -1.7321,2.0932 0.3923,1.4638 1.6741,1.2995 2.0723,1.186 0.3993,-0.1084 0.6234,0.0757 0.6546,0.3773 0.0314,0.305 -0.0117,0.5514 -1.0883,0.3861 -2.4723,-0.3713 -3.92,-3.5219 -3.7537,-5.8665 0.0517,-0.7144 -0.78,-0.6 -0.78,-0.6007 -0.0846,0.1787 -0.7971,1.2144 -1.3486,2.1566 -1.0642,1.8252 -1.2075,3.1853 -1.0652,4.5539 0.0313,0.3037 -0.0689,0.6573 0.4155,0.7088 0.3949,0.0426 0.3189,-1.5344 2.5167,-1.7656 1.1842,-0.1229 2.4253,0.8652 2.3435,3.4833 -0.038,1.2689 0.951,2.2291 2.8429,2.0293 1.8951,-0.1968 2.0518,-1.6471 1.761,-2.4729 -0.2903,-0.8246 0.7717,-0.7972 0.8666,0.1145 0.1218,1.1729 -0.2656,3.0369 -3.2425,3.3456 -5.6877,0.5907 -9.5511,-3.9303 -7.7249,-8.2237 -1.5901,1.9855 -4.0031,4.1562 -12.2819,4.831 -3.0516,0.2485 -4.8439,2.0775 -4.5949,4.4765 0.2492,2.4009 2.3884,2.5909 2.8964,1.8874 -0.6961,0.2087 -1.3675,-0.3371 -1.4344,-0.9801 -0.0667,-0.6415 0.2173,-1.5239 1.0963,-1.6179 0.879,-0.0906 1.5745,0.3503 1.6871,1.4321 0.1119,1.0819 -0.747,2.0269 -1.7274,2.1285 -1.173,0.121 -2.7737,-0.7042 -2.9769,-2.6653 -0.3307,-3.1787 1.3472,-4.1387 3.7766,-5.1098 -6.1297,-1.4152 -7.4337,-0.1498 -8.5613,0.5129 1.046,0.1991 1.9526,1.0288 2.0754,2.2121 0.1755,1.6912 -1.0222,2.3302 -3.183,1.9363 -2.0857,-0.3775 -3.0193,1.5411 -2.7764,3.8785 0.4178,4.0257 4.2553,4.9918 5.2378,3.0448 -0.8403,0.4636 -1.7908,-0.4624 -1.8681,-1.2083 -0.0763,-0.7434 0.5091,-1.3501 1.4559,-1.45 0.947,-0.0973 1.626,0.5168 1.7419,1.6317 0.1652,1.5888 -1.5525,2.334 -2.8711,2.469 -2.0292,0.2093 -5.3832,-1.9693 -5.7716,-5.7086 -0.3805,-3.6693 2.1978,-7.9696 9.7564,-8.7545 -2.7273,-0.5893 -4.5118,-1.4776 -7.9113,-1.1273 -4.0604,0.4207 -11.0783,3.9217 -11.0526,10.582 0.3339,-4.1881 2.6174,-5.3983 4.0379,-5.5467 1.4542,-0.1507 3.1452,0.17 3.3577,2.2149 0.2688,2.587 -2.1293,3.1975 -3.2887,3.8794 -1.159,0.6844 -2.2572,1.4667 -1.9367,4.5602 0.4565,4.3927 5.9983,5.9103 6.8585,3.3382 -2.4287,1.2604 -3.3496,-3.1372 -0.8648,-3.397 0.8625,-0.0891 1.8488,0.526 1.9809,1.7939 0.1874,1.8093 -0.9365,3.3277 -2.7626,3.5169 -3.2804,0.3414 -7.5198,-2.7886 -8.0957,-8.338 -0.8818,-8.4914 6.0445,-13.3897 14.0149,-13.334 -1.3763,-0.7453 -1.9722,-1.8778 -2.1023,-3.1306 -0.1297,-1.2514 0.8364,-2.4781 1.986,-2.5999 1.1501,-0.1188 2.0213,0.3733 2.1408,1.5222 0.1194,1.1489 -0.6792,1.6963 -1.2712,1.7547 -0.8625,0.0899 -1.9764,-0.7679 -1.737,-1.9213 -1.3768,1.0651 0.0385,3.3323 1.7155,4.1805 1.6779,0.8504 3.3337,0.9891 7.4426,2.0474 -1.5178,-1.2788 -4.8162,-3.9073 -5.2741,-8.3229 -0.4585,-4.414 1.6922,-7.4055 5.2079,-9.1044 3.5161,-1.6981 3.6167,-3.1928 3.5588,-3.7532 -0.0574,-0.5573 -0.2523,-0.9454 -0.7518,-1.3067 0.6689,2.079 -2.8286,2.8756 -3.0726,0.5239 -0.1213,-1.1665 0.7447,-1.7174 1.81,-1.8276 2.1742,-0.2266 3.7532,2.6592 1.7425,5.919 0.8143,-0.3908 2.3266,-0.3072 2.4807,1.1782 0.1551,1.4891 -1.0467,2.0947 -4.6303,2.1562 -3.5821,0.0642 -5.8553,2.8645 -5.4833,6.4492 0.5795,-3.3073 3.7968,-5.2481 5.5207,-5.4268 1.7257,-0.179 2.8683,0.6267 2.9884,1.7743 0.1195,1.1498 -0.5953,1.8395 -1.4412,1.9269 -0.8448,0.0873 -1.2667,-0.3456 -1.808,-0.2896 -1.6794,0.1742 -3.5539,1.9883 -3.2422,4.9849 0.3187,3.0704 3.5188,6.0135 7.4158,6.2376 -2.3933,-0.2252 -5.0594,-2.6336 -5.3565,-5.4947 -0.1406,-1.3517 0.1386,-1.9616 1.0856,-2.0615 0.9472,-0.0967 1.3888,0.5406 1.8023,1.5568 0.0872,-1.1374 1.3794,-1.1995 1.7612,-1.1402 0.3829,0.0627 0.8181,0.6335 -0.055,0.4502 -0.8742,-0.1818 -1.3251,1.0641 -1.1999,2.2787 0.2509,2.4115 2.0513,4.0616 5.2077,3.7324 2.2317,-0.2316 2.9782,-0.6172 4.7223,-1.9266 -2.445,0.7014 -7.9667,-0.6782 -8.5277,-6.0882 -0.2424,-2.3331 0.8701,-6.1036 3.8792,-6.4197 1.4204,-0.1473 2.3259,0.3441 3.0009,0.9202 0.6765,0.5801 -0.004,0.6179 -0.5002,0.1204 -1.233,-1.2324 -4.619,-0.3688 -4.3703,2.026 0.099,0.9467 0.864,2.0657 1.9367,2.1904 1.0732,0.1295 2.4717,0.4289 2.6572,2.2207 0.134,1.2855 -1.0601,2.2985 -2.0405,2.4003 -0.9806,0.101 -2.0234,-0.0623 -2.8385,-1.0051 0.355,1.1254 2.2018,3.4321 5.5831,3.0773 3.251,-0.3362 4.7842,-2.8315 5.6526,-4.4838 0.2293,-0.4332 0.1705,-0.6643 -0.0427,-0.7478 -0.213,-0.0794 -0.5547,-0.0764 -0.7429,0.42 -0.5002,1.3281 -2.8682,3.32 -4.7929,2.8903 -0.5257,-0.1165 -0.3743,-0.6433 0.2174,-0.5356 2.0132,0.3722 2.5681,-1.574 1.8835,-2.2806 -0.5742,-0.5893 -1.0142,-1.5344 -1.0992,-2.347 -0.0782,-0.7547 0.4016,-1.9536 1.8332,-2.1044 1.5667,-0.1615 2.2086,0.8643 2.3951,2.6566 0.0392,0.3732 0.3338,0.5831 0.9264,0.6922 0,0 0.3505,-1.2318 0.7123,-3.0132 z"
     style="fill:#1675b7;fill-rule:evenodd"
     id="path270"
     inkscape:connector-curvature="0" />
  <path
     d="m 355.7365,571.4873 a 2.8346,2.8346 0 0 1 2.8212,2.848 2.8346,2.8346 0 1 1 -2.8212,-2.848 z"
     style="fill:none;stroke:#e63315;stroke-width:0.56690001;stroke-linecap:butt;stroke-linejoin:miter;stroke-dasharray:none"
     id="path272"
     inkscape:connector-curvature="0" />
  <path
     d="m 366.5321,571.5382 a 2.8346,2.8346 0 0 1 2.8212,2.848 2.8346,2.8346 0 1 1 -2.8212,-2.848 z"
     style="fill:none;stroke:#e63315;stroke-width:0.56690001;stroke-linecap:butt;stroke-linejoin:miter;stroke-dasharray:none"
     id="path274"
     inkscape:connector-curvature="0" />
  <path
     d="m 361.3979,564.7104 a 2.8346,2.8346 0 0 1 4.0087,0.0189 2.8346,2.8346 0 1 1 -4.0087,-0.0189 z"
     style="fill:none;stroke:#e63315;stroke-width:0.56690001;stroke-linecap:butt;stroke-linejoin:miter;stroke-dasharray:none"
     id="path276"
     inkscape:connector-curvature="0" />
  <path
     d="m 352.9394,563.5129 a 2.8346,2.8346 0 0 1 2.848,-2.8213 2.8346,2.8346 0 1 1 -2.848,2.8213 z"
     style="fill:none;stroke:#e63315;stroke-width:0.56690001;stroke-linecap:butt;stroke-linejoin:miter;stroke-dasharray:none"
     id="path278"
     inkscape:connector-curvature="0" />
  <path
     d="m 346.1116,568.6471 a 2.8346,2.8346 0 0 1 0.0189,-4.0087 2.8346,2.8346 0 1 1 -0.0189,4.0087 z"
     style="fill:none;stroke:#e63315;stroke-width:0.56690001;stroke-linecap:butt;stroke-linejoin:miter;stroke-dasharray:none"
     id="path280"
     inkscape:connector-curvature="0" />
  <path
     d="m 344.9141,577.1055 a 2.8346,2.8346 0 0 1 -2.8212,-2.848 2.8346,2.8346 0 1 1 2.8212,2.848 z"
     style="fill:none;stroke:#e63315;stroke-width:0.56690001;stroke-linecap:butt;stroke-linejoin:miter;stroke-dasharray:none"
     id="path282"
     inkscape:connector-curvature="0" />
  <path
     d="m 350.0483,583.9333 a 2.8346,2.8346 0 0 1 -4.0087,-0.0189 2.8346,2.8346 0 1 1 4.0087,0.0189 z"
     style="fill:none;stroke:#e63315;stroke-width:0.56690001;stroke-linecap:butt;stroke-linejoin:miter;stroke-dasharray:none"
     id="path284"
     inkscape:connector-curvature="0" />
  <path
     d="m 358.5068,585.1309 a 2.8346,2.8346 0 0 1 -2.848,2.8212 2.8346,2.8346 0 1 1 2.848,-2.8212 z"
     style="fill:none;stroke:#e63315;stroke-width:0.56690001;stroke-linecap:butt;stroke-linejoin:miter;stroke-dasharray:none"
     id="path286"
     inkscape:connector-curvature="0" />
  <path
     d="m 365.3346,579.9967 a 2.8346,2.8346 0 0 1 -0.019,4.0087 2.8346,2.8346 0 1 1 0.019,-4.0087 z"
     style="fill:none;stroke:#e63315;stroke-width:0.56690001;stroke-linecap:butt;stroke-linejoin:miter;stroke-dasharray:none"
     id="path288"
     inkscape:connector-curvature="0" />
  <path
     d="m 370.9869,556.3903 a 2.8346,2.8346 0 0 1 2.8212,2.848 2.8346,2.8346 0 1 1 -2.8212,-2.848 z"
     style="fill:none;stroke:#e63315;stroke-width:0.56690001;stroke-linecap:butt;stroke-linejoin:miter;stroke-dasharray:none"
     id="path290"
     inkscape:connector-curvature="0" />
  <path
     d="m 337.7915,559.0581 a 2.8346,2.8346 0 0 1 2.848,-2.8212 2.8346,2.8346 0 1 1 -2.848,2.8212 z"
     style="fill:none;stroke:#e63315;stroke-width:0.56690001;stroke-linecap:butt;stroke-linejoin:miter;stroke-dasharray:none"
     id="path292"
     inkscape:connector-curvature="0" />
  <path
     d="m 340.4593,592.2534 a 2.8346,2.8346 0 0 1 -2.8212,-2.848 2.8346,2.8346 0 1 1 2.8212,2.848 z"
     style="fill:none;stroke:#e63315;stroke-width:0.56690001;stroke-linecap:butt;stroke-linejoin:miter;stroke-dasharray:none"
     id="path294"
     inkscape:connector-curvature="0" />
  <path
     d="m 373.6547,589.5856 a 2.8346,2.8346 0 0 1 -2.848,2.8213 2.8346,2.8346 0 1 1 2.848,-2.8213 z"
     style="fill:none;stroke:#e63315;stroke-width:0.56690001;stroke-linecap:butt;stroke-linejoin:miter;stroke-dasharray:none"
     id="path296"
     inkscape:connector-curvature="0" />
  <path
     d="m 378.0008,566.6912 a 2.8346,2.8346 0 0 1 0.9727,3.8889 2.8346,2.8346 0 1 1 -0.9727,-3.8889 z"
     style="fill:none;stroke:#e63315;stroke-width:0.56690001;stroke-linecap:butt;stroke-linejoin:miter;stroke-dasharray:none"
     id="path298"
     inkscape:connector-curvature="0" />
  <path
     d="m 348.0924,552.0442 a 2.8346,2.8346 0 0 1 3.889,-0.9727 2.8346,2.8346 0 1 1 -3.889,0.9727 z"
     style="fill:none;stroke:#e63315;stroke-width:0.56690001;stroke-linecap:butt;stroke-linejoin:miter;stroke-dasharray:none"
     id="path300"
     inkscape:connector-curvature="0" />
  <path
     d="m 333.4454,581.9526 a 2.8346,2.8346 0 0 1 -0.9727,-3.889 2.8346,2.8346 0 1 1 0.9727,3.889 z"
     style="fill:none;stroke:#e63315;stroke-width:0.56690001;stroke-linecap:butt;stroke-linejoin:miter;stroke-dasharray:none"
     id="path302"
     inkscape:connector-curvature="0" />
  <path
     d="m 363.3538,596.5996 a 2.8346,2.8346 0 0 1 -3.889,0.9727 2.8346,2.8346 0 1 1 3.889,-0.9727 z"
     style="fill:none;stroke:#e63315;stroke-width:0.56690001;stroke-linecap:butt;stroke-linejoin:miter;stroke-dasharray:none"
     id="path304"
     inkscape:connector-curvature="0" />
  <path
     d="m 561.3386,491.5712 v -7.937 h 20.6862 v -20.6929 h -7.9371 v -27.7795 h 7.9371 v -28.9134 h -7.9371 v -27.7795 h 7.9371 v -28.9134 h -7.9371 v -27.7796 h 7.9371 v -28.9133 h -7.9371 V 265.083 h 7.9371 v -16.1575 h -21.2531 v 23.8111 h -73.1338 v -23.8111 h -21.2531 v 16.1575 h 7.937 v 27.7796 h -7.937 v 28.9133 h 7.937 v 27.7796 h -7.937 v 28.9134 h 7.937 v 27.7795 h -7.937 v 28.9134 h 7.937 v 27.7795 h -7.937 v 20.6929 h 20.6861 v 7.937 z"
     style="fill:none;stroke:#1b1918;stroke-width:0.56690001;stroke-linecap:butt;stroke-linejoin:miter;stroke-dasharray:none"
     id="path306"
     inkscape:connector-curvature="0" />
  <path
     d="m 364.3679,491.5712 h 74.2677 v -7.937 h 12.7491 v -20.126 h 7.937 v -28.9134 h -7.937 v -27.7795 h 7.937 v -28.9134 h -7.937 v -27.7795 h 7.937 V 321.209 h -7.937 v -27.7795 h 7.937 v -28.9134 h -7.937 v -15.5906 h -13.316 v 23.8111 h -73.1339 v -23.8111 h -13.316 v 15.5906 h -7.937 v 28.9134 h 7.937 v 27.7795 h -7.937 v 28.9134 h 7.937 v 27.7795 h -7.937 v 28.9134 h 7.937 v 27.7795 h -7.937 v 28.9134 h 7.937 v 20.126 h 12.7491 z"
     style="fill:none;stroke:#1b1918;stroke-width:0.56690001;stroke-linecap:butt;stroke-linejoin:miter;stroke-dasharray:none"
     id="path308"
     inkscape:connector-curvature="0" />
  <text
     x="421.56"
     y="960.03918"
     id="text312">
    <tspan
       font-size="24.0000"
       id="tspan310"
       style="font-size:24px;font-family:Arial;fill:#1b1918">Download from www.ameede.com - www.ameede.net</tspan>
  </text>
</svg>
