  0
SECTION
  2
HEADER
  9
$ACADVER
  1
AC1014
  9
$HANDSEED
  5
FFFF
  9
$MEASUREMENT
 70
     1
  0
ENDSEC
  0
SECTION
  2
TABLES
  0
TABLE
  2
VPORT
  5
8
330
0
100
AcDbSymbolTable
 70
     4
  0
VPORT
  5
2E
330
8
100
AcDbSymbolTableRecord
100
AcDbViewportTableRecord
  2
*ACTIVE
 70
     0
 10
0.0
 20
0.0
 11
1.0
 21
1.0
 12
210.0
 22
148.5
 13
0.0
 23
0.0
 14
10.0
 24
10.0
 15
10.0
 25
10.0
 16
0.0
 26
0.0
 36
1.0
 17
0.0
 27
0.0
 37
0.0
 40
341.0
 41
1.24
 42
50.0
 43
0.0
 44
0.0
 50
0.0
 51
0.0
 71
     0
 72
   100
 73
     1
 74
     3
 75
     0
 76
     0
 77
     0
 78
     0
  0
ENDTAB
  0
TABLE
  2
LTYPE
  5
5
330
0
100
AcDbSymbolTable
 70
     1
  0
LTYPE
  5
14
330
5
100
AcDbSymbolTableRecord
100
AcDbLinetypeTableRecord
  2
BYBLOCK
 70
     0
  3

 72
    65
 73
     0
 40
0.0
  0
LTYPE
  5
15
330
5
100
AcDbSymbolTableRecord
100
AcDbLinetypeTableRecord
  2
BYLAYER
 70
     0
  3

 72
    65
 73
     0
 40
0.0
  0
LTYPE
  5
16
330
5
100
AcDbSymbolTableRecord
100
AcDbLinetypeTableRecord
  2
CONTINUOUS
 70
     0
  3
Solid line
 72
    65
 73
     0
 40
0.0
  0
ENDTAB
  0
TABLE
  2
LAYER
  5
2
100
AcDbSymbolTable
 70
2
  0
LAYER
  5
50
100
AcDbSymbolTableRecord
100
AcDbLayerTableRecord
  2
0
 70
0
  6
CONTINUOUS
  0
LAYER
  5
51
100
AcDbSymbolTableRecord
100
AcDbLayerTableRecord
  2
H0108_Printing
 70
0
  6
CONTINUOUS
  0
ENDTAB
  0
TABLE
  2
STYLE
  5
3
330
0
100
AcDbSymbolTable
 70
     1
  0
STYLE
  5
11
330
3
100
AcDbSymbolTableRecord
100
AcDbTextStyleTableRecord
  2
STANDARD
 70
     0
 40
0.0
 41
1.0
 50
0.0
 71
     0
 42
2.5
  3
txt
  4

  0
ENDTAB
  0
TABLE
  2
VIEW
  5
6
330
0
100
AcDbSymbolTable
 70
     0
  0
ENDTAB
  0
TABLE
  2
UCS
  5
7
330
0
100
AcDbSymbolTable
 70
     0
  0
ENDTAB
  0
TABLE
  2
APPID
  5
9
330
0
100
AcDbSymbolTable
 70
     2
  0
APPID
  5
12
330
9
100
AcDbSymbolTableRecord
100
AcDbRegAppTableRecord
  2
ACAD
 70
     0
  0
ENDTAB
  0
TABLE
  2
DIMSTYLE
  5
A
330
0
100
AcDbSymbolTable
 70
     1
  0
DIMSTYLE
105
27
330
A
100
AcDbSymbolTableRecord
100
AcDbDimStyleTableRecord
  2
ISO-25
 70
     0
  3

  4

  5

  6

  7

 40
1.0
 41
2.5
 42
0.625
 43
3.75
 44
1.25
 45
0.0
 46
0.0
 47
0.0
 48
0.0
140
2.5
141
2.5
142
0.0
143
0.03937007874016
144
1.0
145
0.0
146
1.0
147
0.625
 71
     0
 72
     0
 73
     0
 74
     0
 75
     0
 76
     0
 77
     1
 78
     8
170
     0
171
     3
172
     1
173
     0
174
     0
175
     0
176
     0
177
     0
178
     0
270
     2
271
     2
272
     2
273
     2
274
     3
340
11
275
     0
280
     0
281
     0
282
     0
283
     0
284
     8
285
     0
286
     0
287
     3
288
     0
  0
ENDTAB
  0
TABLE
  2
BLOCK_RECORD
  5
1
330
0
100
AcDbSymbolTable
 70
     1
  0
BLOCK_RECORD
  5
1F
330
1
100
AcDbSymbolTableRecord
100
AcDbBlockTableRecord
  2
*MODEL_SPACE
  0
BLOCK_RECORD
  5
1B
330
1
100
AcDbSymbolTableRecord
100
AcDbBlockTableRecord
  2
*PAPER_SPACE
  0
ENDTAB
  0
ENDSEC
  0
SECTION
  2
BLOCKS
  0
BLOCK
  5
20
330
1F
100
AcDbEntity
  8
0
100
AcDbBlockBegin
  2
*MODEL_SPACE
 70
     0
 10
0.0
 20
0.0
 30
0.0
  3
*MODEL_SPACE
  1

  0
ENDBLK
  5
21
330
1F
100
AcDbEntity
  8
0
100
AcDbBlockEnd
  0
BLOCK
  5
1C
330
1B
100
AcDbEntity
 67
     1
  8
0
100
AcDbBlockBegin
  2
*PAPER_SPACE
  1

  0
ENDBLK
  5
1D
330
1B
100
AcDbEntity
 67
     1
  8
0
100
AcDbBlockEnd
  0
ENDSEC
  0
SECTION
  2
ENTITIES
  0
SPLINE
  5
100
100
AcDbEntity
  8
H0108_Printing
 62
1
100
AcDbSpline
 70
8
 71
3
 72
8
 73
4
 74
0
 40
0
 40
0
 40
0
 40
0
 40
1
 40
1
 40
1
 40
1
 10
503.347487
 20
1428.728564
 30
0.0
 10
492.299488
 20
1418.793565
 30
0.0
 10
469.732488
 20
1423.559564
 30
0.0
 10
438.078489
 20
1439.791564
 30
0.0
  0
SPLINE
  5
101
100
AcDbEntity
  8
H0108_Printing
 62
1
100
AcDbSpline
 70
8
 71
3
 72
8
 73
4
 74
0
 40
0
 40
0
 40
0
 40
0
 40
1
 40
1
 40
1
 40
1
 10
450.130489
 20
1461.112563
 30
0.0
 10
470.068488
 20
1443.033564
 30
0.0
 10
484.892488
 20
1446.733564
 30
0.0
 10
492.306488
 20
1454.465564
 30
0.0
  0
SPLINE
  5
102
100
AcDbEntity
  8
H0108_Printing
 62
1
100
AcDbSpline
 70
8
 71
3
 72
8
 73
4
 74
0
 40
0
 40
0
 40
0
 40
0
 40
1
 40
1
 40
1
 40
1
 10
492.306488
 20
1454.465564
 30
0.0
 10
499.720488
 20
1462.194563
 30
0.0
 10
495.935488
 20
1468.913563
 30
0.0
 10
480.956488
 20
1474.618563
 30
0.0
  0
SPLINE
  5
103
100
AcDbEntity
  8
H0108_Printing
 62
1
100
AcDbSpline
 70
8
 71
3
 72
8
 73
4
 74
0
 40
0
 40
0
 40
0
 40
0
 40
1
 40
1
 40
1
 40
1
 10
480.956488
 20
1474.618563
 30
0.0
 10
465.977488
 20
1480.323563
 30
0.0
 10
456.275489
 20
1490.733563
 30
0.0
 10
451.857489
 20
1505.849562
 30
0.0
  0
SPLINE
  5
104
100
AcDbEntity
  8
H0108_Printing
 62
1
100
AcDbSpline
 70
8
 71
3
 72
8
 73
4
 74
0
 40
0
 40
0
 40
0
 40
0
 40
1
 40
1
 40
1
 40
1
 10
451.857489
 20
1505.849562
 30
0.0
 10
447.437489
 20
1520.964562
 30
0.0
 10
448.420489
 20
1533.386562
 30
0.0
 10
459.985489
 20
1542.493561
 30
0.0
  0
SPLINE
  5
105
100
AcDbEntity
  8
H0108_Printing
 62
1
100
AcDbSpline
 70
8
 71
3
 72
8
 73
4
 74
0
 40
0
 40
0
 40
0
 40
0
 40
1
 40
1
 40
1
 40
1
 10
459.985489
 20
1542.493561
 30
0.0
 10
471.551488
 20
1551.599561
 30
0.0
 10
479.544488
 20
1556.515561
 30
0.0
 10
507.852487
 20
1547.843561
 30
0.0
  0
LWPOLYLINE
  5
106
100
AcDbEntity
  8
H0108_Printing
 62
1
100
AcDbPolyline
 90
2
 70
0
 10
438.078489
 20
1439.791564
 30
0.0
 10
450.130489
 20
1461.112563
 30
0.0
  0
SPLINE
  5
107
100
AcDbEntity
  8
H0108_Printing
 62
1
100
AcDbSpline
 70
8
 71
3
 72
8
 73
4
 74
0
 40
0
 40
0
 40
0
 40
0
 40
1
 40
1
 40
1
 40
1
 10
512.503487
 20
1513.887562
 30
0.0
 10
498.536488
 20
1522.651562
 30
0.0
 10
483.449488
 20
1529.484562
 30
0.0
 10
477.404488
 20
1525.034562
 30
0.0
  0
SPLINE
  5
108
100
AcDbEntity
  8
H0108_Printing
 62
1
100
AcDbSpline
 70
8
 71
3
 72
8
 73
4
 74
0
 40
0
 40
0
 40
0
 40
0
 40
1
 40
1
 40
1
 40
1
 10
477.404488
 20
1525.034562
 30
0.0
 10
471.356488
 20
1520.583562
 30
0.0
 10
471.758488
 20
1515.322562
 30
0.0
 10
478.612488
 20
1509.249562
 30
0.0
  0
SPLINE
  5
109
100
AcDbEntity
  8
H0108_Printing
 62
1
100
AcDbSpline
 70
8
 71
3
 72
8
 73
4
 74
0
 40
0
 40
0
 40
0
 40
0
 40
1
 40
1
 40
1
 40
1
 10
478.612488
 20
1509.249562
 30
0.0
 10
485.462488
 20
1503.174562
 30
0.0
 10
498.232488
 20
1493.587563
 30
0.0
 10
506.762487
 20
1489.839563
 30
0.0
  0
SPLINE
  5
10a
100
AcDbEntity
  8
H0108_Printing
 62
1
100
AcDbSpline
 70
8
 71
3
 72
8
 73
4
 74
0
 40
0
 40
0
 40
0
 40
0
 40
1
 40
1
 40
1
 40
1
 10
506.762487
 20
1489.839563
 30
0.0
 10
515.293487
 20
1486.090563
 30
0.0
 10
520.631487
 20
1476.102563
 30
0.0
 10
520.347487
 20
1463.114563
 30
0.0
  0
SPLINE
  5
10b
100
AcDbEntity
  8
H0108_Printing
 62
1
100
AcDbSpline
 70
8
 71
3
 72
8
 73
4
 74
0
 40
0
 40
0
 40
0
 40
0
 40
1
 40
1
 40
1
 40
1
 10
520.347487
 20
1463.114563
 30
0.0
 10
520.062487
 20
1450.125564
 30
0.0
 10
514.396487
 20
1438.663564
 30
0.0
 10
503.347487
 20
1428.728564
 30
0.0
  0
LWPOLYLINE
  5
10c
100
AcDbEntity
  8
H0108_Printing
 62
1
100
AcDbPolyline
 90
2
 70
0
 10
507.852487
 20
1547.843561
 30
0.0
 10
512.503487
 20
1513.887562
 30
0.0
  0
SPLINE
  5
10d
100
AcDbEntity
  8
H0108_Printing
 62
1
100
AcDbSpline
 70
8
 71
3
 72
8
 73
4
 74
0
 40
0
 40
0
 40
0
 40
0
 40
1
 40
1
 40
1
 40
1
 10
427.770489
 20
1458.558564
 30
0.0
 10
419.920490
 20
1442.970564
 30
0.0
 10
406.393490
 20
1437.986564
 30
0.0
 10
387.190490
 20
1443.602564
 30
0.0
  0
SPLINE
  5
10e
100
AcDbEntity
  8
H0108_Printing
 62
1
100
AcDbSpline
 70
8
 71
3
 72
8
 73
4
 74
0
 40
0
 40
0
 40
0
 40
0
 40
1
 40
1
 40
1
 40
1
 10
387.190490
 20
1443.602564
 30
0.0
 10
367.986491
 20
1449.219564
 30
0.0
 10
359.885491
 20
1460.490563
 30
0.0
 10
355.810491
 20
1491.949563
 30
0.0
  0
LWPOLYLINE
  5
10f
100
AcDbEntity
  8
H0108_Printing
 62
1
100
AcDbPolyline
 90
1
 70
1
 10
503.347487
 20
1428.728564
 30
0.0
  0
SPLINE
  5
110
100
AcDbEntity
  8
H0108_Printing
 62
1
100
AcDbSpline
 70
8
 71
3
 72
8
 73
4
 74
0
 40
0
 40
0
 40
0
 40
0
 40
1
 40
1
 40
1
 40
1
 10
381.617490
 20
1485.208563
 30
0.0
 10
382.490490
 20
1465.342563
 30
0.0
 10
402.444490
 20
1465.618563
 30
0.0
 10
407.198490
 20
1476.572563
 30
0.0
  0
SPLINE
  5
111
100
AcDbEntity
  8
H0108_Printing
 62
1
100
AcDbSpline
 70
8
 71
3
 72
8
 73
4
 74
0
 40
0
 40
0
 40
0
 40
0
 40
1
 40
1
 40
1
 40
1
 10
407.198490
 20
1476.572563
 30
0.0
 10
411.952490
 20
1487.525563
 30
0.0
 10
406.774490
 20
1512.001562
 30
0.0
 10
404.815490
 20
1554.063561
 30
0.0
  0
LWPOLYLINE
  5
112
100
AcDbEntity
  8
H0108_Printing
 62
1
100
AcDbPolyline
 90
4
 70
0
 10
355.810491
 20
1491.949563
 30
0.0
 10
359.871491
 20
1551.567561
 30
0.0
 10
384.546490
 20
1557.882561
 30
0.0
 10
381.617490
 20
1485.208563
 30
0.0
  0
SPLINE
  5
113
100
AcDbEntity
  8
H0108_Printing
 62
1
100
AcDbSpline
 70
8
 71
3
 72
8
 73
4
 74
0
 40
0
 40
0
 40
0
 40
0
 40
1
 40
1
 40
1
 40
1
 10
434.191489
 20
1554.919561
 30
0.0
 10
434.943489
 20
1501.272562
 30
0.0
 10
435.616489
 20
1474.147563
 30
0.0
 10
427.770489
 20
1458.558564
 30
0.0
  0
LWPOLYLINE
  5
114
100
AcDbEntity
  8
H0108_Printing
 62
1
100
AcDbPolyline
 90
2
 70
0
 10
404.815490
 20
1554.063561
 30
0.0
 10
434.191489
 20
1554.919561
 30
0.0
  0
SPLINE
  5
115
100
AcDbEntity
  8
H0108_Printing
 62
1
100
AcDbSpline
 70
8
 71
3
 72
8
 73
4
 74
0
 40
0
 40
0
 40
0
 40
0
 40
1
 40
1
 40
1
 40
1
 10
376.780491
 20
1255.827569
 30
0.0
 10
405.501490
 20
1133.755572
 30
0.0
 10
399.165490
 20
1077.154573
 30
0.0
 10
381.848490
 20
1045.475574
 30
0.0
  0
SPLINE
  5
116
100
AcDbEntity
  8
H0108_Printing
 62
1
100
AcDbSpline
 70
8
 71
3
 72
8
 73
4
 74
0
 40
0
 40
0
 40
0
 40
0
 40
1
 40
1
 40
1
 40
1
 10
381.848490
 20
1045.475574
 30
0.0
 10
364.532491
 20
1013.795575
 30
0.0
 10
301.178492
 20
1011.683575
 30
0.0
 10
264.855493
 20
1024.777574
 30
0.0
  0
SPLINE
  5
117
100
AcDbEntity
  8
H0108_Printing
 62
1
100
AcDbSpline
 70
8
 71
3
 72
8
 73
4
 74
0
 40
0
 40
0
 40
0
 40
0
 40
1
 40
1
 40
1
 40
1
 10
264.855493
 20
1024.777574
 30
0.0
 10
228.532494
 20
1037.872574
 30
0.0
 10
218.818495
 20
1096.162573
 30
0.0
 10
224.309494
 20
1137.557572
 30
0.0
  0
SPLINE
  5
118
100
AcDbEntity
  8
H0108_Printing
 62
1
100
AcDbSpline
 70
8
 71
3
 72
8
 73
4
 74
0
 40
0
 40
0
 40
0
 40
0
 40
1
 40
1
 40
1
 40
1
 10
224.309494
 20
1137.557572
 30
0.0
 10
229.799494
 20
1178.952571
 30
0.0
 10
251.762494
 20
1322.566567
 30
0.0
 10
266.544493
 20
1374.943566
 30
0.0
  0
SPLINE
  5
119
100
AcDbEntity
  8
H0108_Printing
 62
1
100
AcDbSpline
 70
8
 71
3
 72
8
 73
4
 74
0
 40
0
 40
0
 40
0
 40
0
 40
1
 40
1
 40
1
 40
1
 10
266.544493
 20
1374.943566
 30
0.0
 10
281.327493
 20
1427.320564
 30
0.0
 10
283.016493
 20
1442.526564
 30
0.0
 10
288.507493
 20
1430.699564
 30
0.0
  0
SPLINE
  5
11a
100
AcDbEntity
  8
H0108_Printing
 62
1
100
AcDbSpline
 70
8
 71
3
 72
8
 73
4
 74
0
 40
0
 40
0
 40
0
 40
0
 40
1
 40
1
 40
1
 40
1
 10
288.507493
 20
1430.699564
 30
0.0
 10
293.998493
 20
1418.872565
 30
0.0
 10
315.960492
 20
1376.210566
 30
0.0
 10
315.960492
 20
1376.210566
 30
0.0
  0
SPLINE
  5
11b
100
AcDbEntity
  8
H0108_Printing
 62
1
100
AcDbSpline
 70
8
 71
3
 72
8
 73
4
 74
0
 40
0
 40
0
 40
0
 40
0
 40
1
 40
1
 40
1
 40
1
 10
315.960492
 20
1376.210566
 30
0.0
 10
315.960492
 20
1376.210566
 30
0.0
 10
293.575493
 20
1369.452566
 30
0.0
 10
269.923493
 20
1298.912568
 30
0.0
  0
SPLINE
  5
11c
100
AcDbEntity
  8
H0108_Printing
 62
1
100
AcDbSpline
 70
8
 71
3
 72
8
 73
4
 74
0
 40
0
 40
0
 40
0
 40
0
 40
1
 40
1
 40
1
 40
1
 10
269.923493
 20
1298.912568
 30
0.0
 10
246.271494
 20
1228.372569
 30
0.0
 10
245.004494
 20
1177.684571
 30
0.0
 10
249.228494
 20
1119.816572
 30
0.0
  0
SPLINE
  5
11d
100
AcDbEntity
  8
H0108_Printing
 62
1
100
AcDbSpline
 70
8
 71
3
 72
8
 73
4
 74
0
 40
0
 40
0
 40
0
 40
0
 40
1
 40
1
 40
1
 40
1
 10
249.228494
 20
1119.816572
 30
0.0
 10
253.451494
 20
1061.948573
 30
0.0
 10
287.454493
 20
1048.009574
 30
0.0
 10
309.732492
 20
1048.009574
 30
0.0
  0
SPLINE
  5
11e
100
AcDbEntity
  8
H0108_Printing
 62
1
100
AcDbSpline
 70
8
 71
3
 72
8
 73
4
 74
0
 40
0
 40
0
 40
0
 40
0
 40
1
 40
1
 40
1
 40
1
 10
309.732492
 20
1048.009574
 30
0.0
 10
332.010492
 20
1048.009574
 30
0.0
 10
360.730491
 20
1069.129573
 30
0.0
 10
369.600491
 20
1127.419572
 30
0.0
  0
SPLINE
  5
11f
100
AcDbEntity
  8
H0108_Printing
 62
1
100
AcDbSpline
 70
8
 71
3
 72
8
 73
4
 74
0
 40
0
 40
0
 40
0
 40
0
 40
1
 40
1
 40
1
 40
1
 10
369.600491
 20
1127.419572
 30
0.0
 10
378.470491
 20
1185.710570
 30
0.0
 10
361.575491
 20
1270.611568
 30
0.0
 10
327.364492
 20
1377.477566
 30
0.0
  0
SPLINE
  5
120
100
AcDbEntity
  8
H0108_Printing
 62
1
100
AcDbSpline
 70
8
 71
3
 72
8
 73
4
 74
0
 40
0
 40
0
 40
0
 40
0
 40
1
 40
1
 40
1
 40
1
 10
327.364492
 20
1377.477566
 30
0.0
 10
293.153493
 20
1484.343563
 30
0.0
 10
269.501493
 20
1553.194561
 30
0.0
 10
265.277493
 20
1598.812560
 30
0.0
  0
SPLINE
  5
121
100
AcDbEntity
  8
H0108_Printing
 62
1
100
AcDbSpline
 70
8
 71
3
 72
8
 73
4
 74
0
 40
0
 40
0
 40
0
 40
0
 40
1
 40
1
 40
1
 40
1
 10
265.277493
 20
1598.812560
 30
0.0
 10
261.054493
 20
1644.431559
 30
0.0
 10
284.360493
 20
1662.379558
 30
0.0
 10
302.944492
 20
1662.379558
 30
0.0
  0
SPLINE
  5
122
100
AcDbEntity
  8
H0108_Printing
 62
1
100
AcDbSpline
 70
8
 71
3
 72
8
 73
4
 74
0
 40
0
 40
0
 40
0
 40
0
 40
1
 40
1
 40
1
 40
1
 10
302.944492
 20
1662.379558
 30
0.0
 10
321.528492
 20
1662.379558
 30
0.0
 10
345.525491
 20
1656.681559
 30
0.0
 10
345.525491
 20
1614.441560
 30
0.0
  0
SPLINE
  5
123
100
AcDbEntity
  8
H0108_Printing
 62
1
100
AcDbSpline
 70
8
 71
3
 72
8
 73
4
 74
0
 40
0
 40
0
 40
0
 40
0
 40
1
 40
1
 40
1
 40
1
 10
345.525491
 20
1614.441560
 30
0.0
 10
345.525491
 20
1572.202561
 30
0.0
 10
345.948491
 20
1531.229562
 30
0.0
 10
342.147491
 20
1516.868562
 30
0.0
  0
SPLINE
  5
124
100
AcDbEntity
  8
H0108_Printing
 62
1
100
AcDbSpline
 70
8
 71
3
 72
8
 73
4
 74
0
 40
0
 40
0
 40
0
 40
0
 40
1
 40
1
 40
1
 40
1
 10
342.147491
 20
1516.868562
 30
0.0
 10
338.345492
 20
1502.506562
 30
0.0
 10
334.967492
 20
1495.748563
 30
0.0
 10
334.967492
 20
1495.748563
 30
0.0
  0
SPLINE
  5
125
100
AcDbEntity
  8
H0108_Printing
 62
1
100
AcDbSpline
 70
8
 71
3
 72
8
 73
4
 74
0
 40
0
 40
0
 40
0
 40
0
 40
1
 40
1
 40
1
 40
1
 10
334.967492
 20
1495.748563
 30
0.0
 10
334.967492
 20
1495.748563
 30
0.0
 10
319.339492
 20
1524.049562
 30
0.0
 10
313.849492
 20
1535.031562
 30
0.0
  0
SPLINE
  5
126
100
AcDbEntity
  8
H0108_Printing
 62
1
100
AcDbSpline
 70
8
 71
3
 72
8
 73
4
 74
0
 40
0
 40
0
 40
0
 40
0
 40
1
 40
1
 40
1
 40
1
 10
313.849492
 20
1535.031562
 30
0.0
 10
308.358492
 20
1546.013561
 30
0.0
 10
315.960492
 20
1554.883561
 30
0.0
 10
322.296492
 20
1566.288561
 30
0.0
  0
SPLINE
  5
127
100
AcDbEntity
  8
H0108_Printing
 62
1
100
AcDbSpline
 70
8
 71
3
 72
8
 73
4
 74
0
 40
0
 40
0
 40
0
 40
0
 40
1
 40
1
 40
1
 40
1
 10
322.296492
 20
1566.288561
 30
0.0
 10
328.631492
 20
1577.693561
 30
0.0
 10
336.878492
 20
1624.326559
 30
0.0
 10
305.624492
 20
1624.326559
 30
0.0
  0
SPLINE
  5
128
100
AcDbEntity
  8
H0108_Printing
 62
1
100
AcDbSpline
 70
8
 71
3
 72
8
 73
4
 74
0
 40
0
 40
0
 40
0
 40
0
 40
1
 40
1
 40
1
 40
1
 10
305.624492
 20
1624.326559
 30
0.0
 10
274.369493
 20
1624.326559
 30
0.0
 10
279.215493
 20
1594.589560
 30
0.0
 10
289.352493
 20
1558.263561
 30
0.0
  0
SPLINE
  5
129
100
AcDbEntity
  8
H0108_Printing
 62
1
100
AcDbSpline
 70
8
 71
3
 72
8
 73
4
 74
0
 40
0
 40
0
 40
0
 40
0
 40
1
 40
1
 40
1
 40
1
 10
289.352493
 20
1558.263561
 30
0.0
 10
299.488493
 20
1521.936562
 30
0.0
 10
348.060491
 20
1377.900566
 30
0.0
 10
376.780491
 20
1255.827569
 30
0.0
  0
LWPOLYLINE
  5
12a
100
AcDbEntity
  8
H0108_Printing
 62
1
100
AcDbPolyline
 90
1
 70
1
 10
427.770489
 20
1458.558564
 30
0.0
  0
LWPOLYLINE
  5
12b
100
AcDbEntity
  8
H0108_Printing
 62
1
100
AcDbPolyline
 90
1
 70
1
 10
376.780491
 20
1255.827569
 30
0.0
  0
SPLINE
  5
12c
100
AcDbEntity
  8
H0108_Printing
 62
1
100
AcDbSpline
 70
8
 71
3
 72
8
 73
4
 74
0
 40
0
 40
0
 40
0
 40
0
 40
1
 40
1
 40
1
 40
1
 10
168.874496
 20
1449.273564
 30
0.0
 10
164.935496
 20
1434.479564
 30
0.0
 10
156.342496
 20
1424.236564
 30
0.0
 10
143.095496
 20
1418.540565
 30
0.0
  0
SPLINE
  5
12d
100
AcDbEntity
  8
H0108_Printing
 62
1
100
AcDbSpline
 70
8
 71
3
 72
8
 73
4
 74
0
 40
0
 40
0
 40
0
 40
0
 40
1
 40
1
 40
1
 40
1
 10
143.095496
 20
1418.540565
 30
0.0
 10
129.848497
 20
1412.845565
 30
0.0
 10
113.976497
 20
1418.137565
 30
0.0
 10
95.478498
 20
1434.417564
 30
0.0
  0
LWPOLYLINE
  5
12e
100
AcDbEntity
  8
H0108_Printing
 62
1
100
AcDbPolyline
 90
12
 70
1
 10
187.168495
 20
1432.525564
 30
0.0
 10
188.681495
 20
1553.330561
 30
0.0
 10
245.143494
 20
1550.926561
 30
0.0
 10
261.627493
 20
1525.654562
 30
0.0
 10
215.617495
 20
1523.558562
 30
0.0
 10
216.635495
 20
1507.261562
 30
0.0
 10
252.051494
 20
1504.829562
 30
0.0
 10
256.454494
 20
1484.819563
 30
0.0
 10
218.138495
 20
1483.203563
 30
0.0
 10
219.108495
 20
1467.682563
 30
0.0
 10
254.152494
 20
1469.872563
 30
0.0
 10
265.557493
 20
1449.740564
 30
0.0
  0
SPLINE
  5
12f
100
AcDbEntity
  8
H0108_Printing
 62
1
100
AcDbSpline
 70
8
 71
3
 72
8
 73
4
 74
0
 40
0
 40
0
 40
0
 40
0
 40
1
 40
1
 40
1
 40
1
 10
109.842497
 20
1461.241563
 30
0.0
 10
118.416497
 20
1448.327564
 30
0.0
 10
125.989497
 20
1443.710564
 30
0.0
 10
132.560497
 20
1447.391564
 30
0.0
  0
SPLINE
  5
130
100
AcDbEntity
  8
H0108_Printing
 62
1
100
AcDbSpline
 70
8
 71
3
 72
8
 73
4
 74
0
 40
0
 40
0
 40
0
 40
0
 40
1
 40
1
 40
1
 40
1
 10
132.560497
 20
1447.391564
 30
0.0
 10
139.132497
 20
1451.071564
 30
0.0
 10
142.593496
 20
1459.876564
 30
0.0
 10
142.942496
 20
1473.807563
 30
0.0
  0
SPLINE
  5
131
100
AcDbEntity
  8
H0108_Printing
 62
1
100
AcDbSpline
 70
8
 71
3
 72
8
 73
4
 74
0
 40
0
 40
0
 40
0
 40
0
 40
1
 40
1
 40
1
 40
1
 10
142.942496
 20
1473.807563
 30
0.0
 10
143.264496
 20
1486.663563
 30
0.0
 10
138.280497
 20
1506.634562
 30
0.0
 10
127.997497
 20
1533.707562
 30
0.0
  0
LWPOLYLINE
  5
132
100
AcDbEntity
  8
H0108_Printing
 62
1
100
AcDbPolyline
 90
2
 70
0
 10
95.478498
 20
1434.417564
 30
0.0
 10
109.842497
 20
1461.241563
 30
0.0
  0
SPLINE
  5
133
100
AcDbEntity
  8
H0108_Printing
 62
1
100
AcDbSpline
 70
8
 71
3
 72
8
 73
4
 74
0
 40
0
 40
0
 40
0
 40
0
 40
1
 40
1
 40
1
 40
1
 10
125.322497
 20
1540.614561
 30
0.0
 10
125.319497
 20
1540.622561
 30
0.0
 10
125.316497
 20
1540.629561
 30
0.0
 10
125.313497
 20
1540.637561
 30
0.0
  0
LWPOLYLINE
  5
134
100
AcDbEntity
  8
H0108_Printing
 62
1
100
AcDbPolyline
 90
4
 70
0
 10
127.997497
 20
1533.707562
 30
0.0
 10
115.213497
 20
1528.593562
 30
0.0
 10
109.364497
 20
1533.792562
 30
0.0
 10
125.322497
 20
1540.614561
 30
0.0
  0
SPLINE
  5
135
100
AcDbEntity
  8
H0108_Printing
 62
1
100
AcDbSpline
 70
8
 71
3
 72
8
 73
4
 74
0
 40
0
 40
0
 40
0
 40
0
 40
1
 40
1
 40
1
 40
1
 10
155.157496
 20
1552.841561
 30
0.0
 10
168.240496
 20
1498.589563
 30
0.0
 10
172.813496
 20
1464.066563
 30
0.0
 10
168.874496
 20
1449.273564
 30
0.0
  0
LWPOLYLINE
  5
136
100
AcDbEntity
  8
H0108_Printing
 62
1
100
AcDbPolyline
 90
4
 70
0
 10
125.313497
 20
1540.637561
 30
0.0
 10
126.728497
 20
1541.215561
 30
0.0
 10
126.728497
 20
1541.215561
 30
0.0
 10
155.157496
 20
1552.841561
 30
0.0
  0
SPLINE
  5
137
100
AcDbEntity
  8
H0108_Printing
 62
1
100
AcDbSpline
 70
8
 71
3
 72
8
 73
4
 74
0
 40
0
 40
0
 40
0
 40
0
 40
1
 40
1
 40
1
 40
1
 10
298.428493
 20
1694.842558
 30
0.0
 10
305.177492
 20
1694.842558
 30
0.0
 10
310.647492
 20
1689.371558
 30
0.0
 10
310.647492
 20
1682.622558
 30
0.0
  0
SPLINE
  5
138
100
AcDbEntity
  8
H0108_Printing
 62
1
100
AcDbSpline
 70
8
 71
3
 72
8
 73
4
 74
0
 40
0
 40
0
 40
0
 40
0
 40
1
 40
1
 40
1
 40
1
 10
310.647492
 20
1682.622558
 30
0.0
 10
310.647492
 20
1675.873558
 30
0.0
 10
305.177492
 20
1670.401558
 30
0.0
 10
298.428493
 20
1670.401558
 30
0.0
  0
SPLINE
  5
139
100
AcDbEntity
  8
H0108_Printing
 62
1
100
AcDbSpline
 70
8
 71
3
 72
8
 73
4
 74
0
 40
0
 40
0
 40
0
 40
0
 40
1
 40
1
 40
1
 40
1
 10
298.428493
 20
1670.401558
 30
0.0
 10
291.679493
 20
1670.401558
 30
0.0
 10
286.208493
 20
1675.873558
 30
0.0
 10
286.208493
 20
1682.622558
 30
0.0
  0
SPLINE
  5
13a
100
AcDbEntity
  8
H0108_Printing
 62
1
100
AcDbSpline
 70
8
 71
3
 72
8
 73
4
 74
0
 40
0
 40
0
 40
0
 40
0
 40
1
 40
1
 40
1
 40
1
 10
286.208493
 20
1682.622558
 30
0.0
 10
286.208493
 20
1689.371558
 30
0.0
 10
291.679493
 20
1694.842558
 30
0.0
 10
298.428493
 20
1694.842558
 30
0.0
  0
LWPOLYLINE
  5
13b
100
AcDbEntity
  8
H0108_Printing
 62
1
100
AcDbPolyline
 90
1
 70
1
 10
168.874496
 20
1449.273564
 30
0.0
  0
SPLINE
  5
13c
100
AcDbEntity
  8
H0108_Printing
 62
1
100
AcDbSpline
 70
8
 71
3
 72
8
 73
4
 74
0
 40
0
 40
0
 40
0
 40
0
 40
1
 40
1
 40
1
 40
1
 10
587.045485
 20
1535.896562
 30
0.0
 10
587.045485
 20
1535.896562
 30
0.0
 10
595.984485
 20
1546.717561
 30
0.0
 10
591.479485
 20
1544.746561
 30
0.0
  0
SPLINE
  5
13d
100
AcDbEntity
  8
H0108_Printing
 62
1
100
AcDbSpline
 70
8
 71
3
 72
8
 73
4
 74
0
 40
0
 40
0
 40
0
 40
0
 40
1
 40
1
 40
1
 40
1
 10
591.479485
 20
1544.746561
 30
0.0
 10
586.974485
 20
1542.775561
 30
0.0
 10
585.285485
 20
1537.988562
 30
0.0
 10
576.556486
 20
1539.677562
 30
0.0
  0
SPLINE
  5
13e
100
AcDbEntity
  8
H0108_Printing
 62
1
100
AcDbSpline
 70
8
 71
3
 72
8
 73
4
 74
0
 40
0
 40
0
 40
0
 40
0
 40
1
 40
1
 40
1
 40
1
 10
576.556486
 20
1539.677562
 30
0.0
 10
567.827486
 20
1541.367561
 30
0.0
 10
558.254486
 20
1546.436561
 30
0.0
 10
565.856486
 20
1547.280561
 30
0.0
  0
SPLINE
  5
13f
100
AcDbEntity
  8
H0108_Printing
 62
1
100
AcDbSpline
 70
8
 71
3
 72
8
 73
4
 74
0
 40
0
 40
0
 40
0
 40
0
 40
1
 40
1
 40
1
 40
1
 10
565.856486
 20
1547.280561
 30
0.0
 10
573.459486
 20
1548.125561
 30
0.0
 10
570.924486
 20
1553.194561
 30
0.0
 10
570.924486
 20
1553.194561
 30
0.0
  0
LWPOLYLINE
  5
140
100
AcDbEntity
  8
H0108_Printing
 62
1
100
AcDbPolyline
 90
1
 70
1
 10
298.428493
 20
1694.842558
 30
0.0
  0
SPLINE
  5
141
100
AcDbEntity
  8
H0108_Printing
 62
1
100
AcDbSpline
 70
8
 71
3
 72
8
 73
4
 74
0
 40
0
 40
0
 40
0
 40
0
 40
1
 40
1
 40
1
 40
1
 10
538.825487
 20
1553.194561
 30
0.0
 10
531.504487
 20
1553.194561
 30
0.0
 10
539.388487
 20
1567.274561
 30
0.0
 10
516.862487
 20
1567.274561
 30
0.0
  0
LWPOLYLINE
  5
142
100
AcDbEntity
  8
H0108_Printing
 62
1
100
AcDbPolyline
 90
2
 70
0
 10
570.924486
 20
1553.194561
 30
0.0
 10
538.825487
 20
1553.194561
 30
0.0
  0
SPLINE
  5
143
100
AcDbEntity
  8
H0108_Printing
 62
1
100
AcDbSpline
 70
8
 71
3
 72
8
 73
4
 74
0
 40
0
 40
0
 40
0
 40
0
 40
1
 40
1
 40
1
 40
1
 10
397.476490
 20
1567.274561
 30
0.0
 10
386.213490
 20
1567.274561
 30
0.0
 10
394.519490
 20
1571.779561
 30
0.0
 10
387.339490
 20
1576.003561
 30
0.0
  0
SPLINE
  5
144
100
AcDbEntity
  8
H0108_Printing
 62
1
100
AcDbSpline
 70
8
 71
3
 72
8
 73
4
 74
0
 40
0
 40
0
 40
0
 40
0
 40
1
 40
1
 40
1
 40
1
 10
387.339490
 20
1576.003561
 30
0.0
 10
380.159490
 20
1580.227560
 30
0.0
 10
376.780491
 20
1581.072560
 30
0.0
 10
376.780491
 20
1581.072560
 30
0.0
  0
SPLINE
  5
145
100
AcDbEntity
  8
H0108_Printing
 62
1
100
AcDbSpline
 70
8
 71
3
 72
8
 73
4
 74
0
 40
0
 40
0
 40
0
 40
0
 40
1
 40
1
 40
1
 40
1
 10
376.780491
 20
1581.072560
 30
0.0
 10
376.780491
 20
1581.072560
 30
0.0
 10
379.314491
 20
1589.097560
 30
0.0
 10
373.824491
 20
1597.968560
 30
0.0
  0
SPLINE
  5
146
100
AcDbEntity
  8
H0108_Printing
 62
1
100
AcDbSpline
 70
8
 71
3
 72
8
 73
4
 74
0
 40
0
 40
0
 40
0
 40
0
 40
1
 40
1
 40
1
 40
1
 10
373.824491
 20
1597.968560
 30
0.0
 10
368.333491
 20
1606.838560
 30
0.0
 10
358.619491
 20
1609.372560
 30
0.0
 10
358.619491
 20
1622.889559
 30
0.0
  0
SPLINE
  5
147
100
AcDbEntity
  8
H0108_Printing
 62
1
100
AcDbSpline
 70
8
 71
3
 72
8
 73
4
 74
0
 40
0
 40
0
 40
0
 40
0
 40
1
 40
1
 40
1
 40
1
 10
358.619491
 20
1622.889559
 30
0.0
 10
358.619491
 20
1636.406559
 30
0.0
 10
354.817491
 20
1675.266558
 30
0.0
 10
353.128491
 20
1687.515558
 30
0.0
  0
SPLINE
  5
148
100
AcDbEntity
  8
H0108_Printing
 62
1
100
AcDbSpline
 70
8
 71
3
 72
8
 73
4
 74
0
 40
0
 40
0
 40
0
 40
0
 40
1
 40
1
 40
1
 40
1
 10
353.128491
 20
1687.515558
 30
0.0
 10
351.439491
 20
1699.765558
 30
0.0
 10
341.724491
 20
1700.610557
 30
0.0
 10
329.476492
 20
1700.610557
 30
0.0
  0
LWPOLYLINE
  5
149
100
AcDbEntity
  8
H0108_Printing
 62
1
100
AcDbPolyline
 90
2
 70
0
 10
516.862487
 20
1567.274561
 30
0.0
 10
397.476490
 20
1567.274561
 30
0.0
  0
SPLINE
  5
14a
100
AcDbEntity
  8
H0108_Printing
 62
1
100
AcDbSpline
 70
8
 71
3
 72
8
 73
4
 74
0
 40
0
 40
0
 40
0
 40
0
 40
1
 40
1
 40
1
 40
1
 10
275.836493
 20
1700.610557
 30
0.0
 10
266.122493
 20
1700.610557
 30
0.0
 10
254.296494
 20
1703.567557
 30
0.0
 10
254.296494
 20
1665.973558
 30
0.0
  0
SPLINE
  5
14b
100
AcDbEntity
  8
H0108_Printing
 62
1
100
AcDbSpline
 70
8
 71
3
 72
8
 73
4
 74
0
 40
0
 40
0
 40
0
 40
0
 40
1
 40
1
 40
1
 40
1
 10
254.296494
 20
1665.973558
 30
0.0
 10
254.296494
 20
1628.380559
 30
0.0
 10
247.116494
 20
1638.940559
 30
0.0
 10
245.426494
 20
1616.553560
 30
0.0
  0
SPLINE
  5
14c
100
AcDbEntity
  8
H0108_Printing
 62
1
100
AcDbSpline
 70
8
 71
3
 72
8
 73
4
 74
0
 40
0
 40
0
 40
0
 40
0
 40
1
 40
1
 40
1
 40
1
 10
245.426494
 20
1616.553560
 30
0.0
 10
243.737494
 20
1594.166560
 30
0.0
 10
250.072494
 20
1580.650560
 30
0.0
 10
240.358494
 20
1579.382561
 30
0.0
  0
SPLINE
  5
14d
100
AcDbEntity
  8
H0108_Printing
 62
1
100
AcDbSpline
 70
8
 71
3
 72
8
 73
4
 74
0
 40
0
 40
0
 40
0
 40
0
 40
1
 40
1
 40
1
 40
1
 10
240.358494
 20
1579.382561
 30
0.0
 10
230.644494
 20
1578.115561
 30
0.0
 10
231.911494
 20
1565.021561
 30
0.0
 10
231.911494
 20
1565.021561
 30
0.0
  0
SPLINE
  5
14e
100
AcDbEntity
  8
H0108_Printing
 62
1
100
AcDbSpline
 70
8
 71
3
 72
8
 73
4
 74
0
 40
0
 40
0
 40
0
 40
0
 40
1
 40
1
 40
1
 40
1
 10
231.911494
 20
1565.021561
 30
0.0
 10
231.911494
 20
1565.021561
 30
0.0
 10
101.402497
 20
1561.642561
 30
0.0
 10
91.265498
 20
1562.064561
 30
0.0
  0
SPLINE
  5
14f
100
AcDbEntity
  8
H0108_Printing
 62
1
100
AcDbSpline
 70
8
 71
3
 72
8
 73
4
 74
0
 40
0
 40
0
 40
0
 40
0
 40
1
 40
1
 40
1
 40
1
 10
91.265498
 20
1562.064561
 30
0.0
 10
81.129498
 20
1562.486561
 30
0.0
 10
71.837498
 20
1544.323561
 30
0.0
 10
71.837498
 20
1544.323561
 30
0.0
  0
LWPOLYLINE
  5
150
100
AcDbEntity
  8
H0108_Printing
 62
1
100
AcDbPolyline
 90
2
 70
0
 10
329.476492
 20
1700.610557
 30
0.0
 10
275.836493
 20
1700.610557
 30
0.0
  0
SPLINE
  5
151
100
AcDbEntity
  8
H0108_Printing
 62
1
100
AcDbSpline
 70
8
 71
3
 72
8
 73
4
 74
0
 40
0
 40
0
 40
0
 40
0
 40
1
 40
1
 40
1
 40
1
 10
36.359499
 20
1544.323561
 30
0.0
 10
29.601499
 20
1544.323561
 30
0.0
 10
44.384499
 20
1535.031562
 30
0.0
 10
44.384499
 20
1532.496562
 30
0.0
  0
SPLINE
  5
152
100
AcDbEntity
  8
H0108_Printing
 62
1
100
AcDbSpline
 70
8
 71
3
 72
8
 73
4
 74
0
 40
0
 40
0
 40
0
 40
0
 40
1
 40
1
 40
1
 40
1
 10
44.384499
 20
1532.496562
 30
0.0
 10
44.384499
 20
1529.962562
 30
0.0
 10
35.514499
 20
1530.807562
 30
0.0
 10
26.222499
 20
1532.496562
 30
0.0
  0
SPLINE
  5
153
100
AcDbEntity
  8
H0108_Printing
 62
1
100
AcDbSpline
 70
8
 71
3
 72
8
 73
4
 74
0
 40
0
 40
0
 40
0
 40
0
 40
1
 40
1
 40
1
 40
1
 10
26.222499
 20
1532.496562
 30
0.0
 10
16.930500
 20
1534.186562
 30
0.0
 10
10.876500
 20
1534.608562
 30
0.0
 10
7.779500
 20
1534.045562
 30
0.0
  0
SPLINE
  5
154
100
AcDbEntity
  8
H0108_Printing
 62
1
100
AcDbSpline
 70
8
 71
3
 72
8
 73
4
 74
0
 40
0
 40
0
 40
0
 40
0
 40
1
 40
1
 40
1
 40
1
 10
7.779500
 20
1534.045562
 30
0.0
 10
4.682500
 20
1533.482562
 30
0.0
 10
12.947500
 20
1528.359562
 30
0.0
 10
12.947500
 20
1528.359562
 30
0.0
  0
SPLINE
  5
155
100
AcDbEntity
  8
H0108_Printing
 62
1
100
AcDbSpline
 70
8
 71
3
 72
8
 73
4
 74
0
 40
0
 40
0
 40
0
 40
0
 40
1
 40
1
 40
1
 40
1
 10
12.947500
 20
1528.359562
 30
0.0
 10
12.947500
 20
1528.359562
 30
0.0
 10
3.274500
 20
1528.695562
 30
0.0
 10
1.303500
 20
1529.258562
 30
0.0
  0
SPLINE
  5
156
100
AcDbEntity
  8
H0108_Printing
 62
1
100
AcDbSpline
 70
8
 71
3
 72
8
 73
4
 74
0
 40
0
 40
0
 40
0
 40
0
 40
1
 40
1
 40
1
 40
1
 10
1.303500
 20
1529.258562
 30
0.0
 10
-0.667500
 20
1529.821562
 30
0.0
 10
-0.386500
 20
1526.160562
 30
0.0
 10
3.837500
 20
1524.471562
 30
0.0
  0
SPLINE
  5
157
100
AcDbEntity
  8
H0108_Printing
 62
1
100
AcDbSpline
 70
8
 71
3
 72
8
 73
4
 74
0
 40
0
 40
0
 40
0
 40
0
 40
1
 40
1
 40
1
 40
1
 10
3.837500
 20
1524.471562
 30
0.0
 10
8.061500
 20
1522.781562
 30
0.0
 10
11.158500
 20
1521.655562
 30
0.0
 10
14.537500
 20
1520.529562
 30
0.0
  0
SPLINE
  5
158
100
AcDbEntity
  8
H0108_Printing
 62
1
100
AcDbSpline
 70
8
 71
3
 72
8
 73
4
 74
0
 40
0
 40
0
 40
0
 40
0
 40
1
 40
1
 40
1
 40
1
 10
14.537500
 20
1520.529562
 30
0.0
 10
17.916500
 20
1519.402562
 30
0.0
 10
10.032500
 20
1520.247562
 30
0.0
 10
6.371500
 20
1520.529562
 30
0.0
  0
SPLINE
  5
159
100
AcDbEntity
  8
H0108_Printing
 62
1
100
AcDbSpline
 70
8
 71
3
 72
8
 73
4
 74
0
 40
0
 40
0
 40
0
 40
0
 40
1
 40
1
 40
1
 40
1
 10
6.371500
 20
1520.529562
 30
0.0
 10
2.711500
 20
1520.810562
 30
0.0
 10
3.837500
 20
1517.994562
 30
0.0
 10
9.187500
 20
1517.149562
 30
0.0
  0
SPLINE
  5
15a
100
AcDbEntity
  8
H0108_Printing
 62
1
100
AcDbSpline
 70
8
 71
3
 72
8
 73
4
 74
0
 40
0
 40
0
 40
0
 40
0
 40
1
 40
1
 40
1
 40
1
 10
9.187500
 20
1517.149562
 30
0.0
 10
14.537500
 20
1516.305562
 30
0.0
 10
21.013499
 20
1515.460562
 30
0.0
 10
21.013499
 20
1515.460562
 30
0.0
  0
SPLINE
  5
15b
100
AcDbEntity
  8
H0108_Printing
 62
1
100
AcDbSpline
 70
8
 71
3
 72
8
 73
4
 74
0
 40
0
 40
0
 40
0
 40
0
 40
1
 40
1
 40
1
 40
1
 10
21.013499
 20
1515.460562
 30
0.0
 10
21.013499
 20
1515.460562
 30
0.0
 10
23.401499
 20
1514.230562
 30
0.0
 10
18.333500
 20
1514.230562
 30
0.0
  0
SPLINE
  5
15c
100
AcDbEntity
  8
H0108_Printing
 62
1
100
AcDbSpline
 70
8
 71
3
 72
8
 73
4
 74
0
 40
0
 40
0
 40
0
 40
0
 40
1
 40
1
 40
1
 40
1
 10
18.333500
 20
1514.230562
 30
0.0
 10
13.265500
 20
1514.230562
 30
0.0
 10
10.382500
 20
1512.126562
 30
0.0
 10
20.518499
 20
1510.718562
 30
0.0
  0
SPLINE
  5
15d
100
AcDbEntity
  8
H0108_Printing
 62
1
100
AcDbSpline
 70
8
 71
3
 72
8
 73
4
 74
0
 40
0
 40
0
 40
0
 40
0
 40
1
 40
1
 40
1
 40
1
 10
20.518499
 20
1510.718562
 30
0.0
 10
30.655499
 20
1509.310562
 30
0.0
 10
27.208499
 20
1504.196562
 30
0.0
 10
40.441499
 20
1505.886562
 30
0.0
  0
SPLINE
  5
15e
100
AcDbEntity
  8
H0108_Printing
 62
1
100
AcDbSpline
 70
8
 71
3
 72
8
 73
4
 74
0
 40
0
 40
0
 40
0
 40
0
 40
1
 40
1
 40
1
 40
1
 10
40.441499
 20
1505.886562
 30
0.0
 10
53.675499
 20
1507.575562
 30
0.0
 10
53.112499
 20
1514.052562
 30
0.0
 10
59.870499
 20
1514.333562
 30
0.0
  0
SPLINE
  5
15f
100
AcDbEntity
  8
H0108_Printing
 62
1
100
AcDbSpline
 70
8
 71
3
 72
8
 73
4
 74
0
 40
0
 40
0
 40
0
 40
0
 40
1
 40
1
 40
1
 40
1
 10
59.870499
 20
1514.333562
 30
0.0
 10
66.628498
 20
1514.615562
 30
0.0
 10
69.162498
 20
1514.333562
 30
0.0
 10
69.162498
 20
1514.333562
 30
0.0
  0
SPLINE
  5
160
100
AcDbEntity
  8
H0108_Printing
 62
1
100
AcDbSpline
 70
8
 71
3
 72
8
 73
4
 74
0
 40
0
 40
0
 40
0
 40
0
 40
1
 40
1
 40
1
 40
1
 10
69.162498
 20
1514.333562
 30
0.0
 10
69.162498
 20
1514.333562
 30
0.0
 10
77.750498
 20
1446.750564
 30
0.0
 10
84.085498
 20
1424.363564
 30
0.0
  0
SPLINE
  5
161
100
AcDbEntity
  8
H0108_Printing
 62
1
100
AcDbSpline
 70
8
 71
3
 72
8
 73
4
 74
0
 40
0
 40
0
 40
0
 40
0
 40
1
 40
1
 40
1
 40
1
 10
84.085498
 20
1424.363564
 30
0.0
 10
90.421498
 20
1401.976565
 30
0.0
 10
92.532498
 20
1398.175565
 30
0.0
 10
110.694497
 20
1399.864565
 30
0.0
  0
SPLINE
  5
162
100
AcDbEntity
  8
H0108_Printing
 62
1
100
AcDbSpline
 70
8
 71
3
 72
8
 73
4
 74
0
 40
0
 40
0
 40
0
 40
0
 40
1
 40
1
 40
1
 40
1
 10
110.694497
 20
1399.864565
 30
0.0
 10
128.855497
 20
1401.554565
 30
0.0
 10
185.451495
 20
1411.269565
 30
0.0
 10
217.128495
 20
1423.096564
 30
0.0
  0
SPLINE
  5
163
100
AcDbEntity
  8
H0108_Printing
 62
1
100
AcDbSpline
 70
8
 71
3
 72
8
 73
4
 74
0
 40
0
 40
0
 40
0
 40
0
 40
1
 40
1
 40
1
 40
1
 10
217.128495
 20
1423.096564
 30
0.0
 10
248.805494
 20
1434.923564
 30
0.0
 10
252.607494
 20
1434.923564
 30
0.0
 10
249.228494
 20
1418.872565
 30
0.0
  0
SPLINE
  5
164
100
AcDbEntity
  8
H0108_Printing
 62
1
100
AcDbSpline
 70
8
 71
3
 72
8
 73
4
 74
0
 40
0
 40
0
 40
0
 40
0
 40
1
 40
1
 40
1
 40
1
 10
249.228494
 20
1418.872565
 30
0.0
 10
245.849494
 20
1402.821565
 30
0.0
 10
200.234495
 20
1045.052574
 30
0.0
 10
198.122495
 20
1021.398574
 30
0.0
  0
SPLINE
  5
165
100
AcDbEntity
  8
H0108_Printing
 62
1
100
AcDbSpline
 70
8
 71
3
 72
8
 73
4
 74
0
 40
0
 40
0
 40
0
 40
0
 40
1
 40
1
 40
1
 40
1
 10
198.122495
 20
1021.398574
 30
0.0
 10
196.010495
 20
997.744575
 30
0.0
 10
194.743495
 20
992.253575
 30
0.0
 10
219.662495
 20
992.253575
 30
0.0
  0
LWPOLYLINE
  5
166
100
AcDbEntity
  8
H0108_Printing
 62
1
100
AcDbPolyline
 90
2
 70
0
 10
71.837498
 20
1544.323561
 30
0.0
 10
36.359499
 20
1544.323561
 30
0.0
  0
SPLINE
  5
167
100
AcDbEntity
  8
H0108_Printing
 62
1
100
AcDbSpline
 70
8
 71
3
 72
8
 73
4
 74
0
 40
0
 40
0
 40
0
 40
0
 40
1
 40
1
 40
1
 40
1
 10
408.457490
 20
992.253575
 30
0.0
 10
422.395489
 20
992.253575
 30
0.0
 10
429.997489
 20
993.943575
 30
0.0
 10
428.308489
 20
1014.640575
 30
0.0
  0
SPLINE
  5
168
100
AcDbEntity
  8
H0108_Printing
 62
1
100
AcDbSpline
 70
8
 71
3
 72
8
 73
4
 74
0
 40
0
 40
0
 40
0
 40
0
 40
1
 40
1
 40
1
 40
1
 10
428.308489
 20
1014.640575
 30
0.0
 10
426.618489
 20
1035.337574
 30
0.0
 10
405.501490
 20
1219.924570
 30
0.0
 10
384.805490
 20
1320.032567
 30
0.0
  0
SPLINE
  5
169
100
AcDbEntity
  8
H0108_Printing
 62
1
100
AcDbSpline
 70
8
 71
3
 72
8
 73
4
 74
0
 40
0
 40
0
 40
0
 40
0
 40
1
 40
1
 40
1
 40
1
 10
384.805490
 20
1320.032567
 30
0.0
 10
364.109491
 20
1420.139564
 30
0.0
 10
357.774491
 20
1437.880564
 30
0.0
 10
371.712491
 20
1434.078564
 30
0.0
  0
SPLINE
  5
16a
100
AcDbEntity
  8
H0108_Printing
 62
1
100
AcDbSpline
 70
8
 71
3
 72
8
 73
4
 74
0
 40
0
 40
0
 40
0
 40
0
 40
1
 40
1
 40
1
 40
1
 10
371.712491
 20
1434.078564
 30
0.0
 10
385.650490
 20
1430.277564
 30
0.0
 10
470.966488
 20
1411.691565
 30
0.0
 10
492.929488
 20
1408.312565
 30
0.0
  0
SPLINE
  5
16b
100
AcDbEntity
  8
H0108_Printing
 62
1
100
AcDbSpline
 70
8
 71
3
 72
8
 73
4
 74
0
 40
0
 40
0
 40
0
 40
0
 40
1
 40
1
 40
1
 40
1
 10
492.929488
 20
1408.312565
 30
0.0
 10
514.891487
 20
1404.933565
 30
0.0
 10
519.537487
 20
1406.200565
 30
0.0
 10
526.718487
 20
1423.096564
 30
0.0
  0
SPLINE
  5
16c
100
AcDbEntity
  8
H0108_Printing
 62
1
100
AcDbSpline
 70
8
 71
3
 72
8
 73
4
 74
0
 40
0
 40
0
 40
0
 40
0
 40
1
 40
1
 40
1
 40
1
 10
526.718487
 20
1423.096564
 30
0.0
 10
533.898487
 20
1439.992564
 30
0.0
 10
539.388487
 20
1486.878563
 30
0.0
 10
539.811487
 20
1504.618562
 30
0.0
  0
SPLINE
  5
16d
100
AcDbEntity
  8
H0108_Printing
 62
1
100
AcDbSpline
 70
8
 71
3
 72
8
 73
4
 74
0
 40
0
 40
0
 40
0
 40
0
 40
1
 40
1
 40
1
 40
1
 10
539.811487
 20
1504.618562
 30
0.0
 10
540.233486
 20
1522.359562
 30
0.0
 10
544.034486
 20
1522.359562
 30
0.0
 10
552.904486
 20
1519.825562
 30
0.0
  0
SPLINE
  5
16e
100
AcDbEntity
  8
H0108_Printing
 62
1
100
AcDbSpline
 70
8
 71
3
 72
8
 73
4
 74
0
 40
0
 40
0
 40
0
 40
0
 40
1
 40
1
 40
1
 40
1
 10
552.904486
 20
1519.825562
 30
0.0
 10
561.773486
 20
1517.290562
 30
0.0
 10
566.496486
 20
1516.279562
 30
0.0
 10
578.972486
 20
1518.647562
 30
0.0
  0
SPLINE
  5
16f
100
AcDbEntity
  8
H0108_Printing
 62
1
100
AcDbSpline
 70
8
 71
3
 72
8
 73
4
 74
0
 40
0
 40
0
 40
0
 40
0
 40
1
 40
1
 40
1
 40
1
 10
578.972486
 20
1518.647562
 30
0.0
 10
591.541485
 20
1521.033562
 30
0.0
 10
574.866486
 20
1521.936562
 30
0.0
 10
574.866486
 20
1521.936562
 30
0.0
  0
SPLINE
  5
170
100
AcDbEntity
  8
H0108_Printing
 62
1
100
AcDbSpline
 70
8
 71
3
 72
8
 73
4
 74
0
 40
0
 40
0
 40
0
 40
0
 40
1
 40
1
 40
1
 40
1
 10
574.866486
 20
1521.936562
 30
0.0
 10
574.866486
 20
1521.936562
 30
0.0
 10
586.275485
 20
1523.459562
 30
0.0
 10
589.706485
 20
1525.987562
 30
0.0
  0
SPLINE
  5
171
100
AcDbEntity
  8
H0108_Printing
 62
1
100
AcDbSpline
 70
8
 71
3
 72
8
 73
4
 74
0
 40
0
 40
0
 40
0
 40
0
 40
1
 40
1
 40
1
 40
1
 10
589.706485
 20
1525.987562
 30
0.0
 10
594.108485
 20
1529.231562
 30
0.0
 10
586.129485
 20
1526.160562
 30
0.0
 10
586.129485
 20
1526.160562
 30
0.0
  0
SPLINE
  5
172
100
AcDbEntity
  8
H0108_Printing
 62
1
100
AcDbSpline
 70
8
 71
3
 72
8
 73
4
 74
0
 40
0
 40
0
 40
0
 40
0
 40
1
 40
1
 40
1
 40
1
 10
586.129485
 20
1526.160562
 30
0.0
 10
586.129485
 20
1526.160562
 30
0.0
 10
589.763485
 20
1532.033562
 30
0.0
 10
595.394485
 20
1536.539562
 30
0.0
  0
SPLINE
  5
173
100
AcDbEntity
  8
H0108_Printing
 62
1
100
AcDbSpline
 70
8
 71
3
 72
8
 73
4
 74
0
 40
0
 40
0
 40
0
 40
0
 40
1
 40
1
 40
1
 40
1
 10
595.394485
 20
1536.539562
 30
0.0
 10
601.026485
 20
1541.044561
 30
0.0
 10
587.045485
 20
1535.896562
 30
0.0
 10
587.045485
 20
1535.896562
 30
0.0
  0
LWPOLYLINE
  5
174
100
AcDbEntity
  8
H0108_Printing
 62
1
100
AcDbPolyline
 90
2
 70
0
 10
219.662495
 20
992.253575
 30
0.0
 10
408.457490
 20
992.253575
 30
0.0
  0
SPLINE
  5
175
100
AcDbEntity
  8
H0108_Printing
 62
1
100
AcDbSpline
 70
8
 71
3
 72
8
 73
4
 74
0
 40
0
 40
0
 40
0
 40
0
 40
1
 40
1
 40
1
 40
1
 10
709.668382
 20
998.075775
 30
0.0
 10
702.919382
 20
998.075775
 30
0.0
 10
697.448383
 20
1003.546775
 30
0.0
 10
697.448383
 20
1010.295775
 30
0.0
  0
SPLINE
  5
176
100
AcDbEntity
  8
H0108_Printing
 62
1
100
AcDbSpline
 70
8
 71
3
 72
8
 73
4
 74
0
 40
0
 40
0
 40
0
 40
0
 40
1
 40
1
 40
1
 40
1
 10
697.448383
 20
1010.295775
 30
0.0
 10
697.448383
 20
1017.044775
 30
0.0
 10
702.919382
 20
1022.516774
 30
0.0
 10
709.668382
 20
1022.516774
 30
0.0
  0
SPLINE
  5
177
100
AcDbEntity
  8
H0108_Printing
 62
1
100
AcDbSpline
 70
8
 71
3
 72
8
 73
4
 74
0
 40
0
 40
0
 40
0
 40
0
 40
1
 40
1
 40
1
 40
1
 10
709.668382
 20
1022.516774
 30
0.0
 10
716.417382
 20
1022.516774
 30
0.0
 10
721.888382
 20
1017.044775
 30
0.0
 10
721.888382
 20
1010.295775
 30
0.0
  0
SPLINE
  5
178
100
AcDbEntity
  8
H0108_Printing
 62
1
100
AcDbSpline
 70
8
 71
3
 72
8
 73
4
 74
0
 40
0
 40
0
 40
0
 40
0
 40
1
 40
1
 40
1
 40
1
 10
721.888382
 20
1010.295775
 30
0.0
 10
721.888382
 20
1003.546775
 30
0.0
 10
716.417382
 20
998.075775
 30
0.0
 10
709.668382
 20
998.075775
 30
0.0
  0
LWPOLYLINE
  5
179
100
AcDbEntity
  8
H0108_Printing
 62
1
100
AcDbPolyline
 90
1
 70
1
 10
587.045485
 20
1535.896562
 30
0.0
  0
SPLINE
  5
17a
100
AcDbEntity
  8
H0108_Printing
 62
1
100
AcDbSpline
 70
8
 71
3
 72
8
 73
4
 74
0
 40
0
 40
0
 40
0
 40
0
 40
1
 40
1
 40
1
 40
1
 10
421.050389
 20
1157.021771
 30
0.0
 10
421.050389
 20
1157.021771
 30
0.0
 10
412.111390
 20
1146.200771
 30
0.0
 10
416.617390
 20
1148.171771
 30
0.0
  0
SPLINE
  5
17b
100
AcDbEntity
  8
H0108_Printing
 62
1
100
AcDbSpline
 70
8
 71
3
 72
8
 73
4
 74
0
 40
0
 40
0
 40
0
 40
0
 40
1
 40
1
 40
1
 40
1
 10
416.617390
 20
1148.171771
 30
0.0
 10
421.122389
 20
1150.142771
 30
0.0
 10
422.811389
 20
1154.930771
 30
0.0
 10
431.540389
 20
1153.240771
 30
0.0
  0
SPLINE
  5
17c
100
AcDbEntity
  8
H0108_Printing
 62
1
100
AcDbSpline
 70
8
 71
3
 72
8
 73
4
 74
0
 40
0
 40
0
 40
0
 40
0
 40
1
 40
1
 40
1
 40
1
 10
431.540389
 20
1153.240771
 30
0.0
 10
440.269389
 20
1151.550771
 30
0.0
 10
449.842389
 20
1146.482771
 30
0.0
 10
442.240389
 20
1145.637771
 30
0.0
  0
SPLINE
  5
17d
100
AcDbEntity
  8
H0108_Printing
 62
1
100
AcDbSpline
 70
8
 71
3
 72
8
 73
4
 74
0
 40
0
 40
0
 40
0
 40
0
 40
1
 40
1
 40
1
 40
1
 10
442.240389
 20
1145.637771
 30
0.0
 10
434.637389
 20
1144.792771
 30
0.0
 10
437.172389
 20
1139.723772
 30
0.0
 10
437.172389
 20
1139.723772
 30
0.0
  0
LWPOLYLINE
  5
17e
100
AcDbEntity
  8
H0108_Printing
 62
1
100
AcDbPolyline
 90
1
 70
1
 10
709.668382
 20
998.075775
 30
0.0
  0
SPLINE
  5
17f
100
AcDbEntity
  8
H0108_Printing
 62
1
100
AcDbSpline
 70
8
 71
3
 72
8
 73
4
 74
0
 40
0
 40
0
 40
0
 40
0
 40
1
 40
1
 40
1
 40
1
 10
469.271388
 20
1139.723772
 30
0.0
 10
476.591388
 20
1139.723772
 30
0.0
 10
468.707388
 20
1125.643772
 30
0.0
 10
491.233388
 20
1125.643772
 30
0.0
  0
LWPOLYLINE
  5
180
100
AcDbEntity
  8
H0108_Printing
 62
1
100
AcDbPolyline
 90
2
 70
0
 10
437.172389
 20
1139.723772
 30
0.0
 10
469.271388
 20
1139.723772
 30
0.0
  0
SPLINE
  5
181
100
AcDbEntity
  8
H0108_Printing
 62
1
100
AcDbSpline
 70
8
 71
3
 72
8
 73
4
 74
0
 40
0
 40
0
 40
0
 40
0
 40
1
 40
1
 40
1
 40
1
 10
610.620385
 20
1125.643772
 30
0.0
 10
621.883384
 20
1125.643772
 30
0.0
 10
613.577385
 20
1121.138772
 30
0.0
 10
620.757384
 20
1116.914772
 30
0.0
  0
SPLINE
  5
182
100
AcDbEntity
  8
H0108_Printing
 62
1
100
AcDbSpline
 70
8
 71
3
 72
8
 73
4
 74
0
 40
0
 40
0
 40
0
 40
0
 40
1
 40
1
 40
1
 40
1
 10
620.757384
 20
1116.914772
 30
0.0
 10
627.937384
 20
1112.690772
 30
0.0
 10
631.316384
 20
1111.845772
 30
0.0
 10
631.316384
 20
1111.845772
 30
0.0
  0
SPLINE
  5
183
100
AcDbEntity
  8
H0108_Printing
 62
1
100
AcDbSpline
 70
8
 71
3
 72
8
 73
4
 74
0
 40
0
 40
0
 40
0
 40
0
 40
1
 40
1
 40
1
 40
1
 10
631.316384
 20
1111.845772
 30
0.0
 10
631.316384
 20
1111.845772
 30
0.0
 10
628.782384
 20
1103.820772
 30
0.0
 10
634.272384
 20
1094.950773
 30
0.0
  0
SPLINE
  5
184
100
AcDbEntity
  8
H0108_Printing
 62
1
100
AcDbSpline
 70
8
 71
3
 72
8
 73
4
 74
0
 40
0
 40
0
 40
0
 40
0
 40
1
 40
1
 40
1
 40
1
 10
634.272384
 20
1094.950773
 30
0.0
 10
639.763384
 20
1086.079773
 30
0.0
 10
649.477384
 20
1083.545773
 30
0.0
 10
649.477384
 20
1070.028773
 30
0.0
  0
SPLINE
  5
185
100
AcDbEntity
  8
H0108_Printing
 62
1
100
AcDbSpline
 70
8
 71
3
 72
8
 73
4
 74
0
 40
0
 40
0
 40
0
 40
0
 40
1
 40
1
 40
1
 40
1
 10
649.477384
 20
1070.028773
 30
0.0
 10
649.477384
 20
1056.512774
 30
0.0
 10
653.278384
 20
1017.651775
 30
0.0
 10
654.968384
 20
1005.402775
 30
0.0
  0
SPLINE
  5
186
100
AcDbEntity
  8
H0108_Printing
 62
1
100
AcDbSpline
 70
8
 71
3
 72
8
 73
4
 74
0
 40
0
 40
0
 40
0
 40
0
 40
1
 40
1
 40
1
 40
1
 10
654.968384
 20
1005.402775
 30
0.0
 10
656.657384
 20
993.152775
 30
0.0
 10
666.372383
 20
992.307775
 30
0.0
 10
678.620383
 20
992.307775
 30
0.0
  0
LWPOLYLINE
  5
187
100
AcDbEntity
  8
H0108_Printing
 62
1
100
AcDbPolyline
 90
2
 70
0
 10
491.233388
 20
1125.643772
 30
0.0
 10
610.620385
 20
1125.643772
 30
0.0
  0
SPLINE
  5
188
100
AcDbEntity
  8
H0108_Printing
 62
1
100
AcDbSpline
 70
8
 71
3
 72
8
 73
4
 74
0
 40
0
 40
0
 40
0
 40
0
 40
1
 40
1
 40
1
 40
1
 10
732.259382
 20
992.307775
 30
0.0
 10
741.974381
 20
992.307775
 30
0.0
 10
753.800381
 20
989.351775
 30
0.0
 10
753.800381
 20
1026.944774
 30
0.0
  0
SPLINE
  5
189
100
AcDbEntity
  8
H0108_Printing
 62
1
100
AcDbSpline
 70
8
 71
3
 72
8
 73
4
 74
0
 40
0
 40
0
 40
0
 40
0
 40
1
 40
1
 40
1
 40
1
 10
753.800381
 20
1026.944774
 30
0.0
 10
753.800381
 20
1064.537773
 30
0.0
 10
760.980381
 20
1053.977774
 30
0.0
 10
762.669381
 20
1076.364773
 30
0.0
  0
SPLINE
  5
18a
100
AcDbEntity
  8
H0108_Printing
 62
1
100
AcDbSpline
 70
8
 71
3
 72
8
 73
4
 74
0
 40
0
 40
0
 40
0
 40
0
 40
1
 40
1
 40
1
 40
1
 10
762.669381
 20
1076.364773
 30
0.0
 10
764.359381
 20
1098.751773
 30
0.0
 10
758.023381
 20
1112.268772
 30
0.0
 10
767.738381
 20
1113.535772
 30
0.0
  0
SPLINE
  5
18b
100
AcDbEntity
  8
H0108_Printing
 62
1
100
AcDbSpline
 70
8
 71
3
 72
8
 73
4
 74
0
 40
0
 40
0
 40
0
 40
0
 40
1
 40
1
 40
1
 40
1
 10
767.738381
 20
1113.535772
 30
0.0
 10
777.452381
 20
1114.802772
 30
0.0
 10
776.185381
 20
1127.896772
 30
0.0
 10
776.185381
 20
1127.896772
 30
0.0
  0
SPLINE
  5
18c
100
AcDbEntity
  8
H0108_Printing
 62
1
100
AcDbSpline
 70
8
 71
3
 72
8
 73
4
 74
0
 40
0
 40
0
 40
0
 40
0
 40
1
 40
1
 40
1
 40
1
 10
776.185381
 20
1127.896772
 30
0.0
 10
776.185381
 20
1127.896772
 30
0.0
 10
906.694377
 20
1131.275772
 30
0.0
 10
916.830377
 20
1130.853772
 30
0.0
  0
SPLINE
  5
18d
100
AcDbEntity
  8
H0108_Printing
 62
1
100
AcDbSpline
 70
8
 71
3
 72
8
 73
4
 74
0
 40
0
 40
0
 40
0
 40
0
 40
1
 40
1
 40
1
 40
1
 10
916.830377
 20
1130.853772
 30
0.0
 10
926.967377
 20
1130.431772
 30
0.0
 10
936.259377
 20
1148.594771
 30
0.0
 10
936.259377
 20
1148.594771
 30
0.0
  0
LWPOLYLINE
  5
18e
100
AcDbEntity
  8
H0108_Printing
 62
1
100
AcDbPolyline
 90
2
 70
0
 10
678.620383
 20
992.307775
 30
0.0
 10
732.259382
 20
992.307775
 30
0.0
  0
SPLINE
  5
18f
100
AcDbEntity
  8
H0108_Printing
 62
1
100
AcDbSpline
 70
8
 71
3
 72
8
 73
4
 74
0
 40
0
 40
0
 40
0
 40
0
 40
1
 40
1
 40
1
 40
1
 10
971.737376
 20
1148.594771
 30
0.0
 10
978.495376
 20
1148.594771
 30
0.0
 10
963.712376
 20
1157.886771
 30
0.0
 10
963.712376
 20
1160.421771
 30
0.0
  0
SPLINE
  5
190
100
AcDbEntity
  8
H0108_Printing
 62
1
100
AcDbSpline
 70
8
 71
3
 72
8
 73
4
 74
0
 40
0
 40
0
 40
0
 40
0
 40
1
 40
1
 40
1
 40
1
 10
963.712376
 20
1160.421771
 30
0.0
 10
963.712376
 20
1162.955771
 30
0.0
 10
972.582376
 20
1162.110771
 30
0.0
 10
981.874375
 20
1160.421771
 30
0.0
  0
SPLINE
  5
191
100
AcDbEntity
  8
H0108_Printing
 62
1
100
AcDbSpline
 70
8
 71
3
 72
8
 73
4
 74
0
 40
0
 40
0
 40
0
 40
0
 40
1
 40
1
 40
1
 40
1
 10
981.874375
 20
1160.421771
 30
0.0
 10
991.166375
 20
1158.731771
 30
0.0
 10
997.220375
 20
1158.309771
 30
0.0
 10
1000.317375
 20
1158.872771
 30
0.0
  0
SPLINE
  5
192
100
AcDbEntity
  8
H0108_Printing
 62
1
100
AcDbSpline
 70
8
 71
3
 72
8
 73
4
 74
0
 40
0
 40
0
 40
0
 40
0
 40
1
 40
1
 40
1
 40
1
 10
1000.317375
 20
1158.872771
 30
0.0
 10
1003.414375
 20
1159.435771
 30
0.0
 10
995.148375
 20
1164.558771
 30
0.0
 10
995.148375
 20
1164.558771
 30
0.0
  0
SPLINE
  5
193
100
AcDbEntity
  8
H0108_Printing
 62
1
100
AcDbSpline
 70
8
 71
3
 72
8
 73
4
 74
0
 40
0
 40
0
 40
0
 40
0
 40
1
 40
1
 40
1
 40
1
 10
995.148375
 20
1164.558771
 30
0.0
 10
995.148375
 20
1164.558771
 30
0.0
 10
1004.822375
 20
1164.222771
 30
0.0
 10
1006.793375
 20
1163.659771
 30
0.0
  0
SPLINE
  5
194
100
AcDbEntity
  8
H0108_Printing
 62
1
100
AcDbSpline
 70
8
 71
3
 72
8
 73
4
 74
0
 40
0
 40
0
 40
0
 40
0
 40
1
 40
1
 40
1
 40
1
 10
1006.793375
 20
1163.659771
 30
0.0
 10
1008.764375
 20
1163.096771
 30
0.0
 10
1008.482375
 20
1166.757771
 30
0.0
 10
1004.259375
 20
1168.446771
 30
0.0
  0
SPLINE
  5
195
100
AcDbEntity
  8
H0108_Printing
 62
1
100
AcDbSpline
 70
8
 71
3
 72
8
 73
4
 74
0
 40
0
 40
0
 40
0
 40
0
 40
1
 40
1
 40
1
 40
1
 10
1004.259375
 20
1168.446771
 30
0.0
 10
1000.035375
 20
1170.136771
 30
0.0
 10
996.938375
 20
1171.262771
 30
0.0
 10
993.559375
 20
1172.389771
 30
0.0
  0
SPLINE
  5
196
100
AcDbEntity
  8
H0108_Printing
 62
1
100
AcDbSpline
 70
8
 71
3
 72
8
 73
4
 74
0
 40
0
 40
0
 40
0
 40
0
 40
1
 40
1
 40
1
 40
1
 10
993.559375
 20
1172.389771
 30
0.0
 10
990.180375
 20
1173.515771
 30
0.0
 10
998.064375
 20
1172.670771
 30
0.0
 10
1001.725375
 20
1172.389771
 30
0.0
  0
SPLINE
  5
197
100
AcDbEntity
  8
H0108_Printing
 62
1
100
AcDbSpline
 70
8
 71
3
 72
8
 73
4
 74
0
 40
0
 40
0
 40
0
 40
0
 40
1
 40
1
 40
1
 40
1
 10
1001.725375
 20
1172.389771
 30
0.0
 10
1005.385375
 20
1172.107771
 30
0.0
 10
1004.259375
 20
1174.923771
 30
0.0
 10
998.909375
 20
1175.768771
 30
0.0
  0
SPLINE
  5
198
100
AcDbEntity
  8
H0108_Printing
 62
1
100
AcDbSpline
 70
8
 71
3
 72
8
 73
4
 74
0
 40
0
 40
0
 40
0
 40
0
 40
1
 40
1
 40
1
 40
1
 10
998.909375
 20
1175.768771
 30
0.0
 10
993.559375
 20
1176.612771
 30
0.0
 10
987.083375
 20
1177.457771
 30
0.0
 10
987.083375
 20
1177.457771
 30
0.0
  0
SPLINE
  5
199
100
AcDbEntity
  8
H0108_Printing
 62
1
100
AcDbSpline
 70
8
 71
3
 72
8
 73
4
 74
0
 40
0
 40
0
 40
0
 40
0
 40
1
 40
1
 40
1
 40
1
 10
987.083375
 20
1177.457771
 30
0.0
 10
987.083375
 20
1177.457771
 30
0.0
 10
984.695375
 20
1178.687771
 30
0.0
 10
989.763375
 20
1178.687771
 30
0.0
  0
SPLINE
  5
19a
100
AcDbEntity
  8
H0108_Printing
 62
1
100
AcDbSpline
 70
8
 71
3
 72
8
 73
4
 74
0
 40
0
 40
0
 40
0
 40
0
 40
1
 40
1
 40
1
 40
1
 10
989.763375
 20
1178.687771
 30
0.0
 10
994.831375
 20
1178.687771
 30
0.0
 10
997.714375
 20
1180.791770
 30
0.0
 10
987.577375
 20
1182.199770
 30
0.0
  0
SPLINE
  5
19b
100
AcDbEntity
  8
H0108_Printing
 62
1
100
AcDbSpline
 70
8
 71
3
 72
8
 73
4
 74
0
 40
0
 40
0
 40
0
 40
0
 40
1
 40
1
 40
1
 40
1
 10
987.577375
 20
1182.199770
 30
0.0
 10
977.441376
 20
1183.607770
 30
0.0
 10
980.888375
 20
1188.721770
 30
0.0
 10
967.654376
 20
1187.032770
 30
0.0
  0
SPLINE
  5
19c
100
AcDbEntity
  8
H0108_Printing
 62
1
100
AcDbSpline
 70
8
 71
3
 72
8
 73
4
 74
0
 40
0
 40
0
 40
0
 40
0
 40
1
 40
1
 40
1
 40
1
 10
967.654376
 20
1187.032770
 30
0.0
 10
954.420376
 20
1185.342770
 30
0.0
 10
954.984376
 20
1178.865771
 30
0.0
 10
948.226376
 20
1178.584771
 30
0.0
  0
SPLINE
  5
19d
100
AcDbEntity
  8
H0108_Printing
 62
1
100
AcDbSpline
 70
8
 71
3
 72
8
 73
4
 74
0
 40
0
 40
0
 40
0
 40
0
 40
1
 40
1
 40
1
 40
1
 10
948.226376
 20
1178.584771
 30
0.0
 10
941.468376
 20
1178.302771
 30
0.0
 10
938.934377
 20
1178.584771
 30
0.0
 10
938.934377
 20
1178.584771
 30
0.0
  0
SPLINE
  5
19e
100
AcDbEntity
  8
H0108_Printing
 62
1
100
AcDbSpline
 70
8
 71
3
 72
8
 73
4
 74
0
 40
0
 40
0
 40
0
 40
0
 40
1
 40
1
 40
1
 40
1
 10
938.934377
 20
1178.584771
 30
0.0
 10
938.934377
 20
1178.584771
 30
0.0
 10
930.346377
 20
1246.167769
 30
0.0
 10
924.010377
 20
1268.554768
 30
0.0
  0
SPLINE
  5
19f
100
AcDbEntity
  8
H0108_Printing
 62
1
100
AcDbSpline
 70
8
 71
3
 72
8
 73
4
 74
0
 40
0
 40
0
 40
0
 40
0
 40
1
 40
1
 40
1
 40
1
 10
924.010377
 20
1268.554768
 30
0.0
 10
917.675377
 20
1290.941768
 30
0.0
 10
915.563377
 20
1294.742768
 30
0.0
 10
897.402378
 20
1293.053768
 30
0.0
  0
SPLINE
  5
1a0
100
AcDbEntity
  8
H0108_Printing
 62
1
100
AcDbSpline
 70
8
 71
3
 72
8
 73
4
 74
0
 40
0
 40
0
 40
0
 40
0
 40
1
 40
1
 40
1
 40
1
 10
897.402378
 20
1293.053768
 30
0.0
 10
879.240378
 20
1291.363768
 30
0.0
 10
822.644379
 20
1281.648768
 30
0.0
 10
790.967380
 20
1269.821768
 30
0.0
  0
SPLINE
  5
1a1
100
AcDbEntity
  8
H0108_Printing
 62
1
100
AcDbSpline
 70
8
 71
3
 72
8
 73
4
 74
0
 40
0
 40
0
 40
0
 40
0
 40
1
 40
1
 40
1
 40
1
 10
790.967380
 20
1269.821768
 30
0.0
 10
759.290381
 20
1257.994769
 30
0.0
 10
755.489381
 20
1257.994769
 30
0.0
 10
758.868381
 20
1274.045768
 30
0.0
  0
SPLINE
  5
1a2
100
AcDbEntity
  8
H0108_Printing
 62
1
100
AcDbSpline
 70
8
 71
3
 72
8
 73
4
 74
0
 40
0
 40
0
 40
0
 40
0
 40
1
 40
1
 40
1
 40
1
 10
758.868381
 20
1274.045768
 30
0.0
 10
762.247381
 20
1290.096768
 30
0.0
 10
807.862380
 20
1647.865759
 30
0.0
 10
809.973380
 20
1671.519758
 30
0.0
  0
SPLINE
  5
1a3
100
AcDbEntity
  8
H0108_Printing
 62
1
100
AcDbSpline
 70
8
 71
3
 72
8
 73
4
 74
0
 40
0
 40
0
 40
0
 40
0
 40
1
 40
1
 40
1
 40
1
 10
809.973380
 20
1671.519758
 30
0.0
 10
812.085380
 20
1695.173758
 30
0.0
 10
813.352380
 20
1700.664757
 30
0.0
 10
788.433380
 20
1700.664757
 30
0.0
  0
LWPOLYLINE
  5
1a4
100
AcDbEntity
  8
H0108_Printing
 62
1
100
AcDbPolyline
 90
2
 70
0
 10
936.259377
 20
1148.594771
 30
0.0
 10
971.737376
 20
1148.594771
 30
0.0
  0
SPLINE
  5
1a5
100
AcDbEntity
  8
H0108_Printing
 62
1
100
AcDbSpline
 70
8
 71
3
 72
8
 73
4
 74
0
 40
0
 40
0
 40
0
 40
0
 40
1
 40
1
 40
1
 40
1
 10
599.639385
 20
1700.664757
 30
0.0
 10
585.701385
 20
1700.664757
 30
0.0
 10
578.099386
 20
1698.975758
 30
0.0
 10
579.788386
 20
1678.277758
 30
0.0
  0
SPLINE
  5
1a6
100
AcDbEntity
  8
H0108_Printing
 62
1
100
AcDbSpline
 70
8
 71
3
 72
8
 73
4
 74
0
 40
0
 40
0
 40
0
 40
0
 40
1
 40
1
 40
1
 40
1
 10
579.788386
 20
1678.277758
 30
0.0
 10
581.477385
 20
1657.580759
 30
0.0
 10
602.595385
 20
1472.993763
 30
0.0
 10
623.291384
 20
1372.886766
 30
0.0
  0
SPLINE
  5
1a7
100
AcDbEntity
  8
H0108_Printing
 62
1
100
AcDbSpline
 70
8
 71
3
 72
8
 73
4
 74
0
 40
0
 40
0
 40
0
 40
0
 40
1
 40
1
 40
1
 40
1
 10
623.291384
 20
1372.886766
 30
0.0
 10
643.986384
 20
1272.778768
 30
0.0
 10
650.322384
 20
1255.037769
 30
0.0
 10
636.384384
 20
1258.839769
 30
0.0
  0
SPLINE
  5
1a8
100
AcDbEntity
  8
H0108_Printing
 62
1
100
AcDbSpline
 70
8
 71
3
 72
8
 73
4
 74
0
 40
0
 40
0
 40
0
 40
0
 40
1
 40
1
 40
1
 40
1
 10
636.384384
 20
1258.839769
 30
0.0
 10
622.446384
 20
1262.640768
 30
0.0
 10
537.130387
 20
1281.226768
 30
0.0
 10
515.167387
 20
1284.605768
 30
0.0
  0
SPLINE
  5
1a9
100
AcDbEntity
  8
H0108_Printing
 62
1
100
AcDbSpline
 70
8
 71
3
 72
8
 73
4
 74
0
 40
0
 40
0
 40
0
 40
0
 40
1
 40
1
 40
1
 40
1
 10
515.167387
 20
1284.605768
 30
0.0
 10
493.204388
 20
1287.984768
 30
0.0
 10
488.558388
 20
1286.717768
 30
0.0
 10
481.378388
 20
1269.821768
 30
0.0
  0
SPLINE
  5
1aa
100
AcDbEntity
  8
H0108_Printing
 62
1
100
AcDbSpline
 70
8
 71
3
 72
8
 73
4
 74
0
 40
0
 40
0
 40
0
 40
0
 40
1
 40
1
 40
1
 40
1
 10
481.378388
 20
1269.821768
 30
0.0
 10
474.198388
 20
1252.925769
 30
0.0
 10
468.707388
 20
1206.039770
 30
0.0
 10
468.285388
 20
1188.299770
 30
0.0
  0
SPLINE
  5
1ab
100
AcDbEntity
  8
H0108_Printing
 62
1
100
AcDbSpline
 70
8
 71
3
 72
8
 73
4
 74
0
 40
0
 40
0
 40
0
 40
0
 40
1
 40
1
 40
1
 40
1
 10
468.285388
 20
1188.299770
 30
0.0
 10
467.863388
 20
1170.558771
 30
0.0
 10
464.061388
 20
1170.558771
 30
0.0
 10
455.192389
 20
1173.093771
 30
0.0
  0
SPLINE
  5
1ac
100
AcDbEntity
  8
H0108_Printing
 62
1
100
AcDbSpline
 70
8
 71
3
 72
8
 73
4
 74
0
 40
0
 40
0
 40
0
 40
0
 40
1
 40
1
 40
1
 40
1
 10
455.192389
 20
1173.093771
 30
0.0
 10
446.323389
 20
1175.627771
 30
0.0
 10
441.600389
 20
1176.638771
 30
0.0
 10
429.124389
 20
1174.270771
 30
0.0
  0
SPLINE
  5
1ad
100
AcDbEntity
  8
H0108_Printing
 62
1
100
AcDbSpline
 70
8
 71
3
 72
8
 73
4
 74
0
 40
0
 40
0
 40
0
 40
0
 40
1
 40
1
 40
1
 40
1
 10
429.124389
 20
1174.270771
 30
0.0
 10
416.555390
 20
1171.885771
 30
0.0
 10
433.229389
 20
1170.981771
 30
0.0
 10
433.229389
 20
1170.981771
 30
0.0
  0
SPLINE
  5
1ae
100
AcDbEntity
  8
H0108_Printing
 62
1
100
AcDbSpline
 70
8
 71
3
 72
8
 73
4
 74
0
 40
0
 40
0
 40
0
 40
0
 40
1
 40
1
 40
1
 40
1
 10
433.229389
 20
1170.981771
 30
0.0
 10
433.229389
 20
1170.981771
 30
0.0
 10
421.820389
 20
1169.458771
 30
0.0
 10
418.390390
 20
1166.930771
 30
0.0
  0
SPLINE
  5
1af
100
AcDbEntity
  8
H0108_Printing
 62
1
100
AcDbSpline
 70
8
 71
3
 72
8
 73
4
 74
0
 40
0
 40
0
 40
0
 40
0
 40
1
 40
1
 40
1
 40
1
 10
418.390390
 20
1166.930771
 30
0.0
 10
413.988390
 20
1163.686771
 30
0.0
 10
421.967389
 20
1166.757771
 30
0.0
 10
421.967389
 20
1166.757771
 30
0.0
  0
SPLINE
  5
1b0
100
AcDbEntity
  8
H0108_Printing
 62
1
100
AcDbSpline
 70
8
 71
3
 72
8
 73
4
 74
0
 40
0
 40
0
 40
0
 40
0
 40
1
 40
1
 40
1
 40
1
 10
421.967389
 20
1166.757771
 30
0.0
 10
421.967389
 20
1166.757771
 30
0.0
 10
418.333390
 20
1160.884771
 30
0.0
 10
412.702390
 20
1156.378771
 30
0.0
  0
SPLINE
  5
1b1
100
AcDbEntity
  8
H0108_Printing
 62
1
100
AcDbSpline
 70
8
 71
3
 72
8
 73
4
 74
0
 40
0
 40
0
 40
0
 40
0
 40
1
 40
1
 40
1
 40
1
 10
412.702390
 20
1156.378771
 30
0.0
 10
407.070390
 20
1151.873771
 30
0.0
 10
421.050389
 20
1157.021771
 30
0.0
 10
421.050389
 20
1157.021771
 30
0.0
  0
LWPOLYLINE
  5
1b2
100
AcDbEntity
  8
H0108_Printing
 62
1
100
AcDbPolyline
 90
2
 70
0
 10
788.433380
 20
1700.664757
 30
0.0
 10
599.639385
 20
1700.664757
 30
0.0
  0
LWPOLYLINE
  5
1b3
100
AcDbEntity
  8
H0108_Printing
 62
1
100
AcDbPolyline
 90
1
 70
1
 10
421.050389
 20
1157.021771
 30
0.0
  0
ENDSEC
  0
SECTION
  2
OBJECTS
  0
DICTIONARY
  5
C
330
0
100
AcDbDictionary
  3
ACAD_GROUP
350
D
  3
ACAD_MLINESTYLE
350
17
  0
DICTIONARY
  5
D
330
C
100
AcDbDictionary
  0
DICTIONARY
  5
1A
330
C
100
AcDbDictionary
  0
DICTIONARY
  5
17
330
C
100
AcDbDictionary
  3
STANDARD
350
18
  0
DICTIONARY
  5
19
330
C
100
AcDbDictionary
  0
ENDSEC
  0
EOF
