<?xml version="1.0" encoding="utf-8"?>
<!-- Generator: Adobe Illustrator 16.0.0, SVG Export Plug-In . SVG Version: 6.00 Build 0)  -->
<!DOCTYPE svg PUBLIC "-//W3C//DTD SVG 1.1//EN" "http://www.w3.org/Graphics/SVG/1.1/DTD/svg11.dtd">
<svg version="1.1" id="Layer_1" xmlns="http://www.w3.org/2000/svg" xmlns:xlink="http://www.w3.org/1999/xlink" x="0px" y="0px"
	 width="1007.546px" height="498.076px" viewBox="0 0 1007.546 498.076" enable-background="new 0 0 1007.546 498.076"
	 xml:space="preserve">
<polygon id="Bottom" fill="none" stroke="#FF0000" stroke-width="0.0028" stroke-linecap="round" stroke-linejoin="round" stroke-miterlimit="10" points="
	101.719,165.37 180.265,165.37 180.265,174.37 258.81,174.37 258.81,165.37 337.355,165.37 337.355,174.37 415.901,174.37 
	415.901,165.37 494.446,165.37 494.446,174.37 572.991,174.37 572.991,165.37 651.536,165.37 651.536,174.37 730.083,174.37 
	730.083,165.37 808.627,165.37 808.627,174.37 887.172,174.37 887.172,198.37 896.171,198.37 896.171,222.37 887.172,222.37 
	887.172,246.37 808.627,246.37 808.627,255.37 730.083,255.37 730.083,246.37 651.536,246.37 651.536,255.37 572.991,255.37 
	572.991,246.37 494.446,246.37 494.446,255.37 415.901,255.37 415.901,246.37 337.355,246.37 337.355,255.37 258.81,255.37 
	258.81,246.37 180.265,246.37 180.265,255.37 101.719,255.37 101.719,246.37 23.174,246.37 23.174,222.37 14.174,222.37 
	14.174,198.37 23.174,198.37 23.174,174.37 101.719,174.37 "/>
<g id="Lid">
	
		<path fill="none" stroke="#0000FF" stroke-width="0.0028" stroke-linecap="round" stroke-linejoin="round" stroke-miterlimit="10" d="
		M23.175,404.77h-9v-9h881.998v9h-9v10.864h9v59.271H495.522c-1.658,0-3,1.344-3,3v3c0,1.656-1.344,3-3,3h-68.694
		c-1.657,0-3-1.344-3-3v-3c0-1.656-1.343-3-3-3H14.175v-59.271h9V404.77z"/>
	
		<rect x="426.828" y="465.906" fill="none" stroke="#FF0000" stroke-width="0.0028" stroke-linecap="round" stroke-linejoin="round" stroke-miterlimit="10" width="56.694" height="9"/>
	<g>
		<g>
			<g>
				<g>
					<path d="M564.786,435.127c0,7.506-6.849,17.673-18.308,21.695c-8.294,2.91-24.556,4.438-42.748-16.277
						c-8.672,9.118-18.482,13.941-29.209,14.352c-21.427,0.822-38.463-16.347-39.176-17.077l-2.543-2.602l2.665-2.474
						c0.8-0.743,19.844-18.175,41.809-16.556c10.003,0.738,18.921,5.285,26.56,13.532c18.77-20.476,35.101-18.751,43.377-15.743
						C557.23,417.619,564.786,426.712,564.786,435.127z M508.458,435.178c15.718,18.305,29.008,17.294,35.674,14.954
						c8.113-2.847,13.564-10.058,13.564-15.005c0-4.712-4.935-11.589-12.905-14.485C538.119,418.216,524.725,417.04,508.458,435.178
						z M443.309,435.455c5.322,4.42,17.376,12.896,30.98,12.356c9.003-0.356,17.349-4.634,24.841-12.727
						c-6.511-7.233-14.028-11.208-22.376-11.825C462.491,422.208,449.105,430.998,443.309,435.455z"/>
				</g>
				<g>
					<path d="M537.364,431.05c-10.961-8.459-24.452-15.833-37.815-15.368c-11.2,0.392-20.844,6.239-28.664,17.38l-1.601,2.281
						l1.601,2.279c7.82,11.143,17.464,16.99,28.664,17.381c13.363,0.466,26.854-6.908,37.815-15.367
						c11.561,9.578,27.452,28.819,27.604,29.015v-9.682c-0.619-0.784-11.535-14.339-22.339-23.626
						c10.804-9.287,21.72-22.906,22.339-23.691v-9.627C564.816,402.22,548.924,421.47,537.364,431.05z M499.708,447.916
						c-8.662-0.305-16.254-4.54-22.611-12.572c6.357-8.033,13.949-12.268,22.611-12.572c11.017-0.389,22.432,5.443,32.157,12.572
						C522.139,442.47,510.724,448.304,499.708,447.916z"/>
				</g>
			</g>
			<g>
				<g>
					<path d="M477.355,435.466l-2.663,2.476c-0.802,0.742-19.845,18.173-41.809,16.554c-10.002-0.736-18.921-5.284-26.562-13.531
						c-18.768,20.477-35.099,18.75-43.377,15.743c-10.017-3.642-17.571-12.733-17.571-21.149c0-7.506,6.847-17.673,18.306-21.694
						c8.294-2.912,24.558-4.438,42.748,16.276c8.672-9.117,18.484-13.94,29.211-14.353c21.427-0.821,38.461,16.347,39.177,17.077
						L477.355,435.466z M411.027,435.601c6.513,7.234,14.028,11.209,22.378,11.824c14.264,1.052,27.648-7.736,33.445-12.193
						c-5.325-4.422-17.377-12.898-30.981-12.357C426.867,423.232,418.519,427.509,411.027,435.601z M352.463,435.558
						c0,4.711,4.934,11.59,12.904,14.485c6.671,2.427,20.064,3.604,36.332-14.535c-15.716-18.306-29.008-17.296-35.672-14.956
						C357.915,423.4,352.463,430.611,352.463,435.558z"/>
				</g>
				<g>
					<path d="M372.972,439.636c10.963,8.459,24.451,15.833,37.815,15.367c11.2-0.391,20.844-6.238,28.662-17.381l1.603-2.279
						l-1.603-2.281c-7.818-11.141-17.462-16.988-28.662-17.38c-13.364-0.465-26.853,6.909-37.815,15.368
						c-11.559-9.58-27.443-28.83-27.599-29.025v9.627c0.618,0.785,11.53,14.404,22.334,23.691
						c-10.804,9.287-21.716,22.842-22.334,23.626v9.682C345.529,468.456,361.414,449.214,372.972,439.636z M410.628,422.771
						c8.662,0.305,16.254,4.539,22.613,12.572c-6.359,8.032-13.951,12.268-22.613,12.572c-11.017,0.389-22.434-5.445-32.159-12.572
						C388.195,428.214,399.612,422.382,410.628,422.771z"/>
				</g>
			</g>
		</g>
		<g>
			<g>
				<g>
					<path d="M784.196,435.127c0,7.506-6.848,17.673-18.308,21.695c-8.293,2.91-24.556,4.438-42.748-16.277
						c-8.671,9.118-18.481,13.941-29.208,14.352c-21.427,0.822-38.464-16.347-39.177-17.077l-2.542-2.602l2.665-2.474
						c0.799-0.743,19.843-18.175,41.809-16.556c10.002,0.738,18.921,5.285,26.559,13.532c18.77-20.476,35.101-18.751,43.377-15.743
						C776.64,417.619,784.196,426.712,784.196,435.127z M727.869,435.178c15.717,18.305,29.007,17.294,35.673,14.954
						c8.114-2.847,13.564-10.058,13.564-15.005c0-4.712-4.935-11.589-12.904-14.485C757.53,418.216,744.136,417.04,727.869,435.178z
						 M662.719,435.455c5.322,4.42,17.376,12.896,30.98,12.356c9.003-0.356,17.349-4.634,24.842-12.727
						c-6.511-7.233-14.028-11.208-22.376-11.825C681.901,422.208,668.515,430.998,662.719,435.455z"/>
				</g>
				<g>
					<path d="M756.774,431.05c-10.96-8.459-24.452-15.833-37.814-15.368c-11.201,0.392-20.845,6.239-28.665,17.38l-1.601,2.281
						l1.601,2.279c7.82,11.143,17.464,16.99,28.665,17.381c13.362,0.466,26.854-6.908,37.814-15.367
						c11.562,9.578,27.453,28.819,27.604,29.015v-9.682c-0.619-0.784-11.536-14.339-22.34-23.626
						c10.804-9.287,21.721-22.906,22.34-23.691v-9.627C784.227,402.22,768.335,421.47,756.774,431.05z M719.119,447.916
						c-8.662-0.305-16.255-4.54-22.612-12.572c6.357-8.033,13.95-12.268,22.612-12.572c11.016-0.389,22.431,5.443,32.157,12.572
						C741.549,442.47,730.134,448.304,719.119,447.916z"/>
				</g>
			</g>
			<g>
				<g>
					<path d="M696.765,435.466l-2.663,2.476c-0.801,0.742-19.845,18.173-41.809,16.554c-10.002-0.736-18.921-5.284-26.561-13.531
						c-18.768,20.477-35.1,18.75-43.377,15.743c-10.018-3.642-17.571-12.733-17.571-21.149c0-7.506,6.847-17.673,18.306-21.694
						c8.294-2.912,24.558-4.438,42.748,16.276c8.671-9.117,18.483-13.94,29.21-14.353c21.428-0.821,38.462,16.347,39.177,17.077
						L696.765,435.466z M630.438,435.601c6.513,7.234,14.028,11.209,22.377,11.824c14.265,1.052,27.648-7.736,33.446-12.193
						c-5.326-4.422-17.378-12.898-30.982-12.357C646.278,423.232,637.93,427.509,630.438,435.601z M571.875,435.558
						c0,4.711,4.933,11.59,12.903,14.485c6.671,2.427,20.065,3.604,36.332-14.535c-15.716-18.306-29.007-17.296-35.671-14.956
						C577.325,423.4,571.875,430.611,571.875,435.558z"/>
				</g>
				<g>
					<path d="M592.382,439.636c10.963,8.459,24.451,15.833,37.815,15.367c11.2-0.391,20.844-6.238,28.662-17.381l1.604-2.279
						l-1.604-2.281c-7.818-11.141-17.462-16.988-28.662-17.38c-13.364-0.465-26.853,6.909-37.815,15.368
						c-11.559-9.58-27.443-28.83-27.598-29.025v9.627c0.617,0.785,11.53,14.404,22.334,23.691
						c-10.804,9.287-21.717,22.842-22.334,23.626v9.682C564.939,468.456,580.824,449.214,592.382,439.636z M630.039,422.771
						c8.662,0.305,16.254,4.539,22.613,12.572c-6.359,8.032-13.951,12.268-22.613,12.572c-11.016,0.389-22.434-5.445-32.159-12.572
						C607.605,428.214,619.023,422.382,630.039,422.771z"/>
				</g>
			</g>
		</g>
		<g>
			<g>
				<g>
					<path d="M345.192,435.127c0,7.506-6.849,17.673-18.308,21.695c-8.295,2.91-24.557,4.438-42.748-16.277
						c-8.672,9.118-18.482,13.941-29.209,14.352c-21.427,0.822-38.463-16.347-39.176-17.077l-2.543-2.602l2.665-2.474
						c0.8-0.743,19.843-18.175,41.809-16.556c10.002,0.738,18.921,5.285,26.56,13.532c18.77-20.476,35.1-18.751,43.377-15.743
						C337.636,417.619,345.192,426.712,345.192,435.127z M288.864,435.178c15.718,18.305,29.007,17.294,35.673,14.954
						c8.114-2.847,13.565-10.058,13.565-15.005c0-4.712-4.936-11.589-12.905-14.485C318.525,418.216,305.131,417.04,288.864,435.178
						z M223.714,435.455c5.322,4.42,17.377,12.896,30.98,12.356c9.004-0.356,17.35-4.634,24.842-12.727
						c-6.512-7.233-14.028-11.208-22.376-11.825C242.896,422.208,229.511,430.998,223.714,435.455z"/>
				</g>
				<g>
					<path d="M317.769,431.05c-10.961-8.459-24.451-15.833-37.814-15.368c-11.201,0.392-20.844,6.239-28.664,17.38l-1.602,2.281
						l1.602,2.279c7.82,11.143,17.463,16.99,28.664,17.381c13.363,0.466,26.854-6.908,37.814-15.367
						c11.561,9.578,27.453,28.819,27.604,29.015v-9.682c-0.619-0.784-11.536-14.339-22.339-23.626
						c10.803-9.287,21.72-22.906,22.339-23.691v-9.627C345.222,402.22,329.33,421.47,317.769,431.05z M280.114,447.916
						c-8.662-0.305-16.255-4.54-22.612-12.572c6.357-8.033,13.95-12.268,22.612-12.572c11.017-0.389,22.431,5.443,32.157,12.572
						C302.544,442.47,291.13,448.304,280.114,447.916z"/>
				</g>
			</g>
			<g>
				<g>
					<path d="M257.761,435.466l-2.664,2.476c-0.801,0.742-19.844,18.173-41.809,16.554c-10.002-0.736-18.92-5.284-26.561-13.531
						c-18.768,20.477-35.1,18.75-43.377,15.743c-10.018-3.642-17.571-12.733-17.571-21.149c0-7.506,6.847-17.673,18.306-21.694
						c8.294-2.912,24.558-4.438,42.748,16.276c8.672-9.117,18.484-13.94,29.211-14.353c21.426-0.821,38.461,16.347,39.176,17.077
						L257.761,435.466z M191.433,435.601c6.513,7.234,14.027,11.209,22.377,11.824c14.265,1.052,27.648-7.736,33.446-12.193
						c-5.326-4.422-17.378-12.898-30.981-12.357C207.273,423.232,198.925,427.509,191.433,435.601z M132.87,435.558
						c0,4.711,4.933,11.59,12.903,14.485c6.672,2.427,20.064,3.604,36.332-14.535c-15.716-18.306-29.007-17.296-35.671-14.956
						C138.32,423.4,132.87,430.611,132.87,435.558z"/>
				</g>
				<g>
					<path d="M153.378,439.636c10.963,8.459,24.451,15.833,37.814,15.367c11.201-0.391,20.844-6.238,28.662-17.381l1.604-2.279
						l-1.604-2.281c-7.818-11.141-17.461-16.988-28.662-17.38c-13.363-0.465-26.852,6.909-37.814,15.368
						c-11.559-9.58-27.444-28.83-27.599-29.025v9.627c0.618,0.785,11.53,14.404,22.333,23.691
						c-10.803,9.287-21.715,22.842-22.333,23.626v9.682C125.934,468.456,141.82,449.214,153.378,439.636z M191.035,422.771
						c8.662,0.305,16.254,4.539,22.613,12.572c-6.359,8.032-13.951,12.268-22.613,12.572c-11.017,0.389-22.434-5.445-32.16-12.572
						C168.601,428.214,180.018,422.382,191.035,422.771z"/>
				</g>
			</g>
		</g>
		<g>
			<path d="M811.793,439.636c10.963,8.459,24.452,15.832,37.815,15.367c11.2-0.392,20.844-6.239,28.662-17.381l1.603-2.279
				l-1.603-2.281c-7.818-11.141-17.462-16.988-28.662-17.379c-13.363-0.467-26.853,6.907-37.815,15.368
				c-11.559-9.581-27.443-28.831-27.599-29.026v9.626c0.617,0.786,11.53,14.405,22.334,23.692
				c-10.804,9.287-21.717,22.842-22.334,23.627v9.682C784.35,468.457,800.235,449.214,811.793,439.636z M849.45,422.771
				c8.661,0.305,16.254,4.539,22.613,12.572c-6.359,8.031-13.952,12.267-22.613,12.572c-11.017,0.389-22.434-5.445-32.159-12.572
				C827.016,428.215,838.433,422.381,849.45,422.771z"/>
		</g>
		<g>
			<path d="M98.175,431.058c-10.961-8.459-24.453-15.832-37.815-15.367c-11.2,0.391-20.844,6.238-28.664,17.379l-1.601,2.281
				l1.601,2.279c7.82,11.143,17.464,16.99,28.664,17.381c13.362,0.467,26.854-6.909,37.815-15.367
				c11.561,9.578,27.453,28.818,27.604,29.015v-9.683c-0.619-0.783-11.536-14.338-22.341-23.625
				c10.805-9.287,21.722-22.906,22.341-23.691v-9.627C125.628,402.228,109.736,421.478,98.175,431.058z M60.519,447.923
				c-8.662-0.305-16.254-4.539-22.611-12.572c6.357-8.033,13.949-12.268,22.611-12.572c11.016-0.389,22.432,5.443,32.157,12.572
				C82.951,442.479,71.535,448.311,60.519,447.923z"/>
		</g>
	</g>
</g>
<g id="Right_Side">
	
		<path fill="none" stroke="#0000FF" stroke-width="0.0028" stroke-linecap="round" stroke-linejoin="round" stroke-miterlimit="10" d="
		M962.647,29.534c0-8.485,6.877-15.364,15.363-15.364c8.484,0,15.363,6.879,15.363,15.364v40.5h-9v36h9v45h-33v-9h-24v9h-33v-45h9
		v-36h-9v-36h59.273V29.534z"/>
	
		<path fill="none" stroke="#FF0000" stroke-width="0.0028" stroke-linecap="round" stroke-linejoin="round" stroke-miterlimit="10" d="
		M984.374,29.534c0-3.515-2.85-6.364-6.363-6.364c-3.516,0-6.363,2.85-6.363,6.364s2.848,6.364,6.363,6.364
		C981.524,35.898,984.374,33.049,984.374,29.534L984.374,29.534z"/>
</g>
<g id="Left_Side">
	
		<path fill="none" stroke="#0000FF" stroke-width="0.0028" stroke-linecap="round" stroke-linejoin="round" stroke-miterlimit="10" d="
		M934.1,173.599c0-8.485-6.877-15.364-15.363-15.364c-8.484,0-15.363,6.879-15.363,15.364v40.5h9v36h-9v45h33v-9h24v9h33v-45h-9v-36
		h9v-36H934.1V173.599z"/>
	
		<path fill="none" stroke="#FF0000" stroke-width="0.0028" stroke-linecap="round" stroke-linejoin="round" stroke-miterlimit="10" d="
		M912.374,173.599c0-3.515,2.85-6.364,6.363-6.364c3.516,0,6.363,2.85,6.363,6.364s-2.848,6.364-6.363,6.364
		C915.223,179.962,912.374,177.113,912.374,173.599L912.374,173.599z"/>
</g>
<polygon id="Back" fill="none" stroke="#FF0000" stroke-width="0.0028" stroke-linecap="round" stroke-linejoin="round" stroke-miterlimit="10" points="
	896.173,307.57 896.173,343.57 887.173,343.57 887.173,388.57 808.628,388.57 808.628,379.57 730.083,379.57 730.083,388.57 
	651.537,388.57 651.537,379.57 572.992,379.57 572.992,388.57 494.447,388.57 494.447,379.57 415.901,379.57 415.901,388.57 
	337.355,388.57 337.355,379.57 258.81,379.57 258.81,388.57 180.265,388.57 180.265,379.57 101.719,379.57 101.719,388.57 
	23.173,388.57 23.173,343.57 14.173,343.57 14.173,307.57 23.173,307.57 23.173,262.57 887.173,262.57 887.173,307.57 "/>
<path id="Front" fill="none" stroke="#FF0000" stroke-width="0.0028" stroke-linecap="round" stroke-linejoin="round" stroke-miterlimit="10" d="
	M426.827,18.67c0-2.485,2.015-4.5,4.5-4.5h47.693c2.484,0,4.5,2.015,4.5,4.5v22.5h403.652v36h9v36h-9v45h-78.545v-9h-78.545v9
	h-78.547v-9h-78.545v9h-78.545v-9H415.9v9h-78.546v-9h-78.545v9h-78.545v-9h-78.545v9H23.173v-45h-9v-36h9v-36h403.654V18.67z"/>
</svg>
