  0
SECTION
  2
HEADER
  9
$ACADVER
  1
AC1021
  9
$ACADMAINTVER
 70
    25
  9
$DWGCODEPAGE
  3
ANSI_1250
  9
$INSBASE
 10
0.0
 20
0.0
 30
0.0
  9
$EXTMIN
 10
-172.8529
 20
-83.0113
 30
0.0
  9
$EXTMAX
 10
172.6636
 20
82.7772
 30
0.0
  9
$LIMMIN
 10
0.0
 20
0.0
  9
$LIMMAX
 10
12.0
 20
9.0
  9
$ORTHOMODE
 70
     0
  9
$REGENMODE
 70
     1
  9
$FILLMODE
 70
     1
  9
$QTEXTMODE
 70
     0
  9
$MIRRTEXT
 70
     1
  9
$LTSCALE
 40
1.0
  9
$ATTMODE
 70
     1
  9
$TEXTSIZE
 40
0.2
  9
$TRACEWID
 40
0.05
  9
$TEXTSTYLE
  7
Standard
  9
$CLAYER
  8
0
  9
$CELTYPE
  6
ByLayer
  9
$CECOLOR
 62
   256
  9
$CELTSCALE
 40
1.0
  9
$DISPSILH
 70
     0
  9
$DIMSCALE
 40
1.0
  9
$DIMASZ
 40
0.18
  9
$DIMEXO
 40
0.0625
  9
$DIMDLI
 40
0.38
  9
$DIMRND
 40
0.0
  9
$DIMDLE
 40
0.0
  9
$DIMEXE
 40
0.18
  9
$DIMTP
 40
0.0
  9
$DIMTM
 40
0.0
  9
$DIMTXT
 40
0.18
  9
$DIMCEN
 40
0.09
  9
$DIMTSZ
 40
0.0
  9
$DIMTOL
 70
     0
  9
$DIMLIM
 70
     0
  9
$DIMTIH
 70
     1
  9
$DIMTOH
 70
     1
  9
$DIMSE1
 70
     0
  9
$DIMSE2
 70
     0
  9
$DIMTAD
 70
     0
  9
$DIMZIN
 70
     0
  9
$DIMBLK
  1

  9
$DIMASO
 70
     1
  9
$DIMSHO
 70
     1
  9
$DIMPOST
  1

  9
$DIMAPOST
  1

  9
$DIMALT
 70
     0
  9
$DIMALTD
 70
     2
  9
$DIMALTF
 40
25.4
  9
$DIMLFAC
 40
1.0
  9
$DIMTOFL
 70
     0
  9
$DIMTVP
 40
0.0
  9
$DIMTIX
 70
     0
  9
$DIMSOXD
 70
     0
  9
$DIMSAH
 70
     0
  9
$DIMBLK1
  1

  9
$DIMBLK2
  1

  9
$DIMSTYLE
  2
Standard
  9
$DIMCLRD
 70
     0
  9
$DIMCLRE
 70
     0
  9
$DIMCLRT
 70
     0
  9
$DIMTFAC
 40
1.0
  9
$DIMGAP
 40
0.09
  9
$DIMJUST
 70
     0
  9
$DIMSD1
 70
     0
  9
$DIMSD2
 70
     0
  9
$DIMTOLJ
 70
     1
  9
$DIMTZIN
 70
     0
  9
$DIMALTZ
 70
     0
  9
$DIMALTTZ
 70
     0
  9
$DIMUPT
 70
     0
  9
$DIMDEC
 70
     4
  9
$DIMTDEC
 70
     4
  9
$DIMALTU
 70
     2
  9
$DIMALTTD
 70
     2
  9
$DIMTXSTY
  7
Standard
  9
$DIMAUNIT
 70
     0
  9
$DIMADEC
 70
     0
  9
$DIMALTRND
 40
0.0
  9
$DIMAZIN
 70
     0
  9
$DIMDSEP
 70
    46
  9
$DIMATFIT
 70
     3
  9
$DIMFRAC
 70
     0
  9
$DIMLDRBLK
  1

  9
$DIMLUNIT
 70
     2
  9
$DIMLWD
 70
    -2
  9
$DIMLWE
 70
    -2
  9
$DIMTMOVE
 70
     0
  9
$DIMFXL
 40
1.0
  9
$DIMFXLON
 70
     0
  9
$DIMJOGANG
 40
0.7853981633974483
  9
$DIMTFILL
 70
     0
  9
$DIMTFILLCLR
 70
     0
  9
$DIMARCSYM
 70
     0
  9
$DIMLTYPE
  6

  9
$DIMLTEX1
  6

  9
$DIMLTEX2
  6

  9
$LUNITS
 70
     2
  9
$LUPREC
 70
     4
  9
$SKETCHINC
 40
0.1
  9
$FILLETRAD
 40
0.5
  9
$AUNITS
 70
     0
  9
$AUPREC
 70
     0
  9
$MENU
  1
.
  9
$ELEVATION
 40
0.0
  9
$PELEVATION
 40
0.0
  9
$THICKNESS
 40
0.0
  9
$LIMCHECK
 70
     0
  9
$CHAMFERA
 40
0.5
  9
$CHAMFERB
 40
0.5
  9
$CHAMFERC
 40
1.0
  9
$CHAMFERD
 40
0.0
  9
$SKPOLY
 70
     0
  9
$TDCREATE
 40
2457429.711355417
  9
$TDUCREATE
 40
2457429.66968875
  9
$TDUPDATE
 40
2457429.711355428
  9
$TDUUPDATE
 40
2457429.669688762
  9
$TDINDWG
 40
0.0000000116
  9
$TDUSRTIMER
 40
0.0000000116
  9
$USRTIMER
 70
     1
  9
$ANGBASE
 50
0.0
  9
$ANGDIR
 70
     0
  9
$PDMODE
 70
     0
  9
$PDSIZE
 40
0.0
  9
$PLINEWID
 40
0.0
  9
$SPLFRAME
 70
     0
  9
$SPLINETYPE
 70
     6
  9
$SPLINESEGS
 70
     8
  9
$HANDSEED
  5
9B
  9
$SURFTAB1
 70
     6
  9
$SURFTAB2
 70
     6
  9
$SURFTYPE
 70
     6
  9
$SURFU
 70
     6
  9
$SURFV
 70
     6
  9
$UCSBASE
  2

  9
$UCSNAME
  2

  9
$UCSORG
 10
0.0
 20
0.0
 30
0.0
  9
$UCSXDIR
 10
1.0
 20
0.0
 30
0.0
  9
$UCSYDIR
 10
0.0
 20
1.0
 30
0.0
  9
$UCSORTHOREF
  2

  9
$UCSORTHOVIEW
 70
     0
  9
$UCSORGTOP
 10
0.0
 20
0.0
 30
0.0
  9
$UCSORGBOTTOM
 10
0.0
 20
0.0
 30
0.0
  9
$UCSORGLEFT
 10
0.0
 20
0.0
 30
0.0
  9
$UCSORGRIGHT
 10
0.0
 20
0.0
 30
0.0
  9
$UCSORGFRONT
 10
0.0
 20
0.0
 30
0.0
  9
$UCSORGBACK
 10
0.0
 20
0.0
 30
0.0
  9
$PUCSBASE
  2

  9
$PUCSNAME
  2

  9
$PUCSORG
 10
0.0
 20
0.0
 30
0.0
  9
$PUCSXDIR
 10
1.0
 20
0.0
 30
0.0
  9
$PUCSYDIR
 10
0.0
 20
1.0
 30
0.0
  9
$PUCSORTHOREF
  2

  9
$PUCSORTHOVIEW
 70
     0
  9
$PUCSORGTOP
 10
0.0
 20
0.0
 30
0.0
  9
$PUCSORGBOTTOM
 10
0.0
 20
0.0
 30
0.0
  9
$PUCSORGLEFT
 10
0.0
 20
0.0
 30
0.0
  9
$PUCSORGRIGHT
 10
0.0
 20
0.0
 30
0.0
  9
$PUCSORGFRONT
 10
0.0
 20
0.0
 30
0.0
  9
$PUCSORGBACK
 10
0.0
 20
0.0
 30
0.0
  9
$USERI1
 70
     0
  9
$USERI2
 70
     0
  9
$USERI3
 70
     0
  9
$USERI4
 70
     0
  9
$USERI5
 70
     0
  9
$USERR1
 40
0.0
  9
$USERR2
 40
0.0
  9
$USERR3
 40
0.0
  9
$USERR4
 40
0.0
  9
$USERR5
 40
0.0
  9
$WORLDVIEW
 70
     1
  9
$SHADEDGE
 70
     3
  9
$SHADEDIF
 70
    70
  9
$TILEMODE
 70
     1
  9
$MAXACTVP
 70
    64
  9
$PINSBASE
 10
0.0
 20
0.0
 30
0.0
  9
$PLIMCHECK
 70
     0
  9
$PEXTMIN
 10
1.000000000000000E+20
 20
1.000000000000000E+20
 30
1.000000000000000E+20
  9
$PEXTMAX
 10
-1.000000000000000E+20
 20
-1.000000000000000E+20
 30
-1.000000000000000E+20
  9
$PLIMMIN
 10
0.0
 20
0.0
  9
$PLIMMAX
 10
12.0
 20
9.0
  9
$UNITMODE
 70
     0
  9
$VISRETAIN
 70
     1
  9
$PLINEGEN
 70
     0
  9
$PSLTSCALE
 70
     1
  9
$TREEDEPTH
 70
  3020
  9
$CMLSTYLE
  2
Standard
  9
$CMLJUST
 70
     0
  9
$CMLSCALE
 40
1.0
  9
$PROXYGRAPHICS
 70
     1
  9
$MEASUREMENT
 70
     0
  9
$CELWEIGHT
370
    -1
  9
$ENDCAPS
280
     0
  9
$JOINSTYLE
280
     0
  9
$LWDISPLAY
290
     0
  9
$INSUNITS
 70
     4
  9
$HYPERLINKBASE
  1

  9
$STYLESHEET
  1

  9
$XEDIT
290
     1
  9
$CEPSNTYPE
380
     0
  9
$PSTYLEMODE
290
     1
  9
$FINGERPRINTGUID
  2
{0A3F88A2-8745-43E5-A122-B8FC57A295F9}
  9
$VERSIONGUID
  2
{FAEB1C32-E019-11D5-929B-00C0DF256EC4}
  9
$EXTNAMES
290
     1
  9
$PSVPSCALE
 40
0.0
  9
$OLESTARTUP
290
     0
  9
$SORTENTS
280
   127
  9
$INDEXCTL
280
     0
  9
$HIDETEXT
280
     1
  9
$XCLIPFRAME
290
     0
  9
$HALOGAP
280
     0
  9
$OBSCOLOR
 70
   257
  9
$OBSLTYPE
280
     0
  9
$INTERSECTIONDISPLAY
280
     0
  9
$INTERSECTIONCOLOR
 70
   257
  9
$DIMASSOC
280
     2
  9
$PROJECTNAME
  1

  9
$CAMERADISPLAY
290
     0
  9
$LENSLENGTH
 40
50.0
  9
$CAMERAHEIGHT
 40
0.0
  9
$STEPSPERSEC
 40
2.0
  9
$STEPSIZE
 40
6.0
  9
$3DDWFPREC
 40
2.0
  9
$PSOLWIDTH
 40
0.25
  9
$PSOLHEIGHT
 40
4.0
  9
$LOFTANG1
 40
1.570796326794897
  9
$LOFTANG2
 40
1.570796326794897
  9
$LOFTMAG1
 40
0.0
  9
$LOFTMAG2
 40
0.0
  9
$LOFTPARAM
 70
     7
  9
$LOFTNORMALS
280
     1
  9
$LATITUDE
 40
37.795
  9
$LONGITUDE
 40
-122.394
  9
$NORTHDIRECTION
 40
0.0
  9
$TIMEZONE
 70
 -8000
  9
$LIGHTGLYPHDISPLAY
280
     1
  9
$TILEMODELIGHTSYNCH
280
     1
  9
$SOLIDHIST
280
     1
  9
$SHOWHIST
280
     1
  9
$DWFFRAME
280
     2
  9
$DGNFRAME
280
     2
  9
$REALWORLDSCALE
290
     1
  9
$INTERFERECOLOR
 62
   256
  9
$CSHADOW
280
     0
  9
$SHADOWPLANELOCATION
 40
0.0
  0
ENDSEC
  0
SECTION
  2
CLASSES
  0
CLASS
  1
ACDBDICTIONARYWDFLT
  2
AcDbDictionaryWithDefault
  3
ObjectDBX Classes
 90
        0
 91
        4
280
     0
281
     0
  0
CLASS
  1
VISUALSTYLE
  2
AcDbVisualStyle
  3
ObjectDBX Classes
 90
     4095
 91
        4
280
     0
281
     0
  0
CLASS
  1
MATERIAL
  2
AcDbMaterial
  3
ObjectDBX Classes
 90
     1153
 91
        4
280
     0
281
     0
  0
ENDSEC
  0
SECTION
  2
TABLES
  0
TABLE
  2
VPORT
  5
8
330
0
100
AcDbSymbolTable
 70
     1
  0
VPORT
  5
29
330
8
100
AcDbSymbolTableRecord
100
AcDbViewportTableRecord
  2
*Active
 70
     0
 10
0.0
 20
0.0
 11
1.0
 21
1.0
 12
10.42990654205607
 22
4.5
 13
0.0
 23
0.0
 14
0.5
 24
0.5
 15
0.5
 25
0.5
 16
0.0
 26
0.0
 36
1.0
 17
0.0
 27
0.0
 37
0.0
 40
9.0
 41
1.972972972850329
 42
50.0
 43
0.0
 44
0.0
 50
0.0
 51
0.0
 71
     0
 72
   100
 73
     1
 74
     3
 75
     0
 76
     0
 77
     0
 78
     0
281
     0
 65
     1
110
0.0
120
0.0
130
0.0
111
1.0
121
0.0
131
0.0
112
0.0
122
1.0
132
0.0
 79
     0
146
0.0
 60
     3
 61
     5
292
     1
282
     1
141
0.0
142
0.0
 63
   250
  0
ENDTAB
  0
TABLE
  2
LTYPE
  5
5
330
0
100
AcDbSymbolTable
 70
     1
  0
LTYPE
  5
14
330
5
100
AcDbSymbolTableRecord
100
AcDbLinetypeTableRecord
  2
ByBlock
 70
     0
  3

 72
    65
 73
     0
 40
0.0
  0
LTYPE
  5
15
330
5
100
AcDbSymbolTableRecord
100
AcDbLinetypeTableRecord
  2
ByLayer
 70
     0
  3

 72
    65
 73
     0
 40
0.0
  0
LTYPE
  5
16
330
5
100
AcDbSymbolTableRecord
100
AcDbLinetypeTableRecord
  2
Continuous
 70
     0
  3
Solid line
 72
    65
 73
     0
 40
0.0
  0
ENDTAB
  0
TABLE
  2
LAYER
  5
2
330
0
100
AcDbSymbolTable
 70
     2
  0
LAYER
  5
10
330
2
100
AcDbSymbolTableRecord
100
AcDbLayerTableRecord
  2
0
 70
     0
 62
     7
  6
Continuous
370
    -3
390
F
347
3E
  0
LAYER
  5
40
330
2
100
AcDbSymbolTableRecord
100
AcDbLayerTableRecord
  2
#Layer 1
 70
     0
 62
     7
  6
Continuous
370
    -3
390
F
347
3E
  0
ENDTAB
  0
TABLE
  2
STYLE
  5
3
330
0
100
AcDbSymbolTable
 70
     1
  0
STYLE
  5
11
330
3
100
AcDbSymbolTableRecord
100
AcDbTextStyleTableRecord
  2
Standard
 70
     0
 40
0.0
 41
1.0
 50
0.0
 71
     0
 42
0.2
  3
txt
  4

  0
ENDTAB
  0
TABLE
  2
VIEW
  5
6
330
0
100
AcDbSymbolTable
 70
     0
  0
ENDTAB
  0
TABLE
  2
UCS
  5
7
330
0
100
AcDbSymbolTable
 70
     0
  0
ENDTAB
  0
TABLE
  2
APPID
  5
9
330
0
100
AcDbSymbolTable
 70
     2
  0
APPID
  5
12
330
9
100
AcDbSymbolTableRecord
100
AcDbRegAppTableRecord
  2
ACAD
 70
     0
  0
APPID
  5
3F
330
9
100
AcDbSymbolTableRecord
100
AcDbRegAppTableRecord
  2
ODA
 70
     0
  0
ENDTAB
  0
TABLE
  2
DIMSTYLE
  5
A
330
0
100
AcDbSymbolTable
 70
     1
100
AcDbDimStyleTable
  0
DIMSTYLE
105
27
330
A
100
AcDbSymbolTableRecord
100
AcDbDimStyleTableRecord
  2
Standard
 70
     0
178
     0
340
11
  0
ENDTAB
  0
TABLE
  2
BLOCK_RECORD
  5
1
330
0
100
AcDbSymbolTable
 70
     1
  0
BLOCK_RECORD
  5
1F
330
1
100
AcDbSymbolTableRecord
100
AcDbBlockTableRecord
  2
*Model_Space
340
22
 70
     0
280
     1
281
     0
  0
BLOCK_RECORD
  5
1B
330
1
100
AcDbSymbolTableRecord
100
AcDbBlockTableRecord
  2
*Paper_Space
340
1E
 70
     0
280
     1
281
     0
  0
BLOCK_RECORD
  5
23
330
1
100
AcDbSymbolTableRecord
100
AcDbBlockTableRecord
  2
*Paper_Space0
340
26
 70
     0
280
     1
281
     0
  0
ENDTAB
  0
ENDSEC
  0
SECTION
  2
BLOCKS
  0
BLOCK
  5
20
330
1F
100
AcDbEntity
  8
0
100
AcDbBlockBegin
  2
*Model_Space
 70
     0
 10
0.0
 20
0.0
 30
0.0
  3
*Model_Space
  1

  0
ENDBLK
  5
21
330
1F
100
AcDbEntity
  8
0
100
AcDbBlockEnd
  0
BLOCK
  5
1C
330
1B
100
AcDbEntity
 67
     1
  8
0
100
AcDbBlockBegin
  2
*Paper_Space
 70
     0
 10
0.0
 20
0.0
 30
0.0
  3
*Paper_Space
  1

  0
ENDBLK
  5
1D
330
1B
100
AcDbEntity
 67
     1
  8
0
100
AcDbBlockEnd
  0
BLOCK
  5
24
330
23
100
AcDbEntity
  8
0
100
AcDbBlockBegin
  2
*Paper_Space0
 70
     0
 10
0.0
 20
0.0
 30
0.0
  3
*Paper_Space0
  1

  0
ENDBLK
  5
25
330
23
100
AcDbEntity
  8
0
100
AcDbBlockEnd
  0
ENDSEC
  0
SECTION
  2
ENTITIES
  0
SPLINE
  5
41
330
1F
100
AcDbEntity
  8
#Layer 1
 62
     1
370
     9
100
AcDbSpline
210
0.0
220
0.0
230
1.0
 70
    11
 71
     3
 72
   212
 73
   208
 74
     0
 42
0.0000000001
 43
0.0000000001
 40
0.0
 40
0.0
 40
0.0
 40
0.0
 40
0.0188679245283019
 40
0.0188679245283019
 40
0.0188679245283019
 40
0.0188679245283019
 40
0.0377358490566038
 40
0.0377358490566038
 40
0.0377358490566038
 40
0.0377358490566038
 40
0.0566037735849057
 40
0.0566037735849057
 40
0.0566037735849057
 40
0.0566037735849057
 40
0.0754716981132075
 40
0.0754716981132075
 40
0.0754716981132075
 40
0.0754716981132075
 40
0.0943396226415094
 40
0.0943396226415094
 40
0.0943396226415094
 40
0.0943396226415094
 40
0.1132075471698113
 40
0.1132075471698113
 40
0.1132075471698113
 40
0.1132075471698113
 40
0.1320754716981132
 40
0.1320754716981132
 40
0.1320754716981132
 40
0.1320754716981132
 40
0.1509433962264151
 40
0.1509433962264151
 40
0.1509433962264151
 40
0.1509433962264151
 40
0.169811320754717
 40
0.169811320754717
 40
0.169811320754717
 40
0.169811320754717
 40
0.1886792452830189
 40
0.1886792452830189
 40
0.1886792452830189
 40
0.1886792452830189
 40
0.2075471698113208
 40
0.2075471698113208
 40
0.2075471698113208
 40
0.2075471698113208
 40
0.2264150943396226
 40
0.2264150943396226
 40
0.2264150943396226
 40
0.2264150943396226
 40
0.2452830188679245
 40
0.2452830188679245
 40
0.2452830188679245
 40
0.2452830188679245
 40
0.2641509433962264
 40
0.2641509433962264
 40
0.2641509433962264
 40
0.2641509433962264
 40
0.2830188679245283
 40
0.2830188679245283
 40
0.2830188679245283
 40
0.2830188679245283
 40
0.3018867924528302
 40
0.3018867924528302
 40
0.3018867924528302
 40
0.3018867924528302
 40
0.3207547169811321
 40
0.3207547169811321
 40
0.3207547169811321
 40
0.3207547169811321
 40
0.3396226415094339
 40
0.3396226415094339
 40
0.3396226415094339
 40
0.3396226415094339
 40
0.3584905660377358
 40
0.3584905660377358
 40
0.3584905660377358
 40
0.3584905660377358
 40
0.3773584905660378
 40
0.3773584905660378
 40
0.3773584905660378
 40
0.3773584905660378
 40
0.3962264150943396
 40
0.3962264150943396
 40
0.3962264150943396
 40
0.3962264150943396
 40
0.4150943396226415
 40
0.4150943396226415
 40
0.4150943396226415
 40
0.4150943396226415
 40
0.4339622641509434
 40
0.4339622641509434
 40
0.4339622641509434
 40
0.4339622641509434
 40
0.4528301886792453
 40
0.4528301886792453
 40
0.4528301886792453
 40
0.4528301886792453
 40
0.4716981132075472
 40
0.4716981132075472
 40
0.4716981132075472
 40
0.4716981132075472
 40
0.4905660377358491
 40
0.4905660377358491
 40
0.4905660377358491
 40
0.4905660377358491
 40
0.5094339622641509
 40
0.5094339622641509
 40
0.5094339622641509
 40
0.5094339622641509
 40
0.5283018867924528
 40
0.5283018867924528
 40
0.5283018867924528
 40
0.5283018867924528
 40
0.5471698113207547
 40
0.5471698113207547
 40
0.5471698113207547
 40
0.5471698113207547
 40
0.5660377358490566
 40
0.5660377358490566
 40
0.5660377358490566
 40
0.5660377358490566
 40
0.5849056603773585
 40
0.5849056603773585
 40
0.5849056603773585
 40
0.5849056603773585
 40
0.6037735849056604
 40
0.6037735849056604
 40
0.6037735849056604
 40
0.6037735849056604
 40
0.6226415094339622
 40
0.6226415094339622
 40
0.6226415094339622
 40
0.6226415094339622
 40
0.6415094339622641
 40
0.6415094339622641
 40
0.6415094339622641
 40
0.6415094339622641
 40
0.660377358490566
 40
0.660377358490566
 40
0.660377358490566
 40
0.660377358490566
 40
0.6792452830188679
 40
0.6792452830188679
 40
0.6792452830188679
 40
0.6792452830188679
 40
0.6981132075471698
 40
0.6981132075471698
 40
0.6981132075471698
 40
0.6981132075471698
 40
0.7169811320754716
 40
0.7169811320754716
 40
0.7169811320754716
 40
0.7169811320754716
 40
0.7358490566037735
 40
0.7358490566037735
 40
0.7358490566037735
 40
0.7358490566037735
 40
0.7547169811320755
 40
0.7547169811320755
 40
0.7547169811320755
 40
0.7547169811320755
 40
0.7735849056603774
 40
0.7735849056603774
 40
0.7735849056603774
 40
0.7735849056603774
 40
0.7924528301886793
 40
0.7924528301886793
 40
0.7924528301886793
 40
0.7924528301886793
 40
0.8113207547169812
 40
0.8113207547169812
 40
0.8113207547169812
 40
0.8113207547169812
 40
0.8301886792452831
 40
0.8301886792452831
 40
0.8301886792452831
 40
0.8301886792452831
 40
0.8490566037735849
 40
0.8490566037735849
 40
0.8490566037735849
 40
0.8490566037735849
 40
0.8679245283018868
 40
0.8679245283018868
 40
0.8679245283018868
 40
0.8679245283018868
 40
0.8867924528301887
 40
0.8867924528301887
 40
0.8867924528301887
 40
0.8867924528301887
 40
0.9056603773584906
 40
0.9056603773584906
 40
0.9056603773584906
 40
0.9056603773584906
 40
0.9245283018867925
 40
0.9245283018867925
 40
0.9245283018867925
 40
0.9245283018867925
 40
0.9433962264150944
 40
0.9433962264150944
 40
0.9433962264150944
 40
0.9433962264150944
 40
0.9622641509433962
 40
0.9622641509433962
 40
0.9622641509433962
 40
0.9622641509433962
 40
1.0
 40
1.0
 40
1.0
 40
1.0
 10
-141.9304
 20
29.3991
 30
0.0
 10
-141.9304
 20
29.3991
 30
0.0
 10
-114.2211
 20
29.3991
 30
0.0
 10
-114.2211
 20
29.3991
 30
0.0
 10
-114.2211
 20
29.3991
 30
0.0
 10
-114.2211
 20
29.3991
 30
0.0
 10
-114.2211
 20
26.2241
 30
0.0
 10
-114.2211
 20
26.2241
 30
0.0
 10
-114.2211
 20
26.2241
 30
0.0
 10
-114.2211
 20
26.2241
 30
0.0
 10
-86.5122
 20
26.2241
 30
0.0
 10
-86.5122
 20
26.2241
 30
0.0
 10
-86.5122
 20
26.2241
 30
0.0
 10
-86.5122
 20
26.2241
 30
0.0
 10
-86.5122
 20
29.3991
 30
0.0
 10
-86.5122
 20
29.3991
 30
0.0
 10
-86.5122
 20
29.3991
 30
0.0
 10
-86.5122
 20
29.3991
 30
0.0
 10
-58.8033
 20
29.3991
 30
0.0
 10
-58.8033
 20
29.3991
 30
0.0
 10
-58.8033
 20
29.3991
 30
0.0
 10
-58.8033
 20
29.3991
 30
0.0
 10
-58.8033
 20
26.2241
 30
0.0
 10
-58.8033
 20
26.2241
 30
0.0
 10
-58.8033
 20
26.2241
 30
0.0
 10
-58.8033
 20
26.2241
 30
0.0
 10
-31.094
 20
26.2241
 30
0.0
 10
-31.094
 20
26.2241
 30
0.0
 10
-31.094
 20
26.2241
 30
0.0
 10
-31.094
 20
26.2241
 30
0.0
 10
-31.094
 20
29.3991
 30
0.0
 10
-31.094
 20
29.3991
 30
0.0
 10
-31.094
 20
29.3991
 30
0.0
 10
-31.094
 20
29.3991
 30
0.0
 10
-3.3851
 20
29.3991
 30
0.0
 10
-3.3851
 20
29.3991
 30
0.0
 10
-3.3851
 20
29.3991
 30
0.0
 10
-3.3851
 20
29.3991
 30
0.0
 10
-3.3851
 20
26.2241
 30
0.0
 10
-3.3851
 20
26.2241
 30
0.0
 10
-3.3851
 20
26.2241
 30
0.0
 10
-3.3851
 20
26.2241
 30
0.0
 10
24.3237
 20
26.2241
 30
0.0
 10
24.3237
 20
26.2241
 30
0.0
 10
24.3237
 20
26.2241
 30
0.0
 10
24.3237
 20
26.2241
 30
0.0
 10
24.3237
 20
29.3991
 30
0.0
 10
24.3237
 20
29.3991
 30
0.0
 10
24.3237
 20
29.3991
 30
0.0
 10
24.3237
 20
29.3991
 30
0.0
 10
52.0326
 20
29.3991
 30
0.0
 10
52.0326
 20
29.3991
 30
0.0
 10
52.0326
 20
29.3991
 30
0.0
 10
52.0326
 20
29.3991
 30
0.0
 10
52.0326
 20
26.2241
 30
0.0
 10
52.0326
 20
26.2241
 30
0.0
 10
52.0326
 20
26.2241
 30
0.0
 10
52.0326
 20
26.2241
 30
0.0
 10
79.7422
 20
26.2241
 30
0.0
 10
79.7422
 20
26.2241
 30
0.0
 10
79.7422
 20
26.2241
 30
0.0
 10
79.7422
 20
26.2241
 30
0.0
 10
79.7422
 20
29.3991
 30
0.0
 10
79.7422
 20
29.3991
 30
0.0
 10
79.7422
 20
29.3991
 30
0.0
 10
79.7422
 20
29.3991
 30
0.0
 10
107.4511
 20
29.3991
 30
0.0
 10
107.4511
 20
29.3991
 30
0.0
 10
107.4511
 20
29.3991
 30
0.0
 10
107.4511
 20
29.3991
 30
0.0
 10
107.4511
 20
26.2241
 30
0.0
 10
107.4511
 20
26.2241
 30
0.0
 10
107.4511
 20
26.2241
 30
0.0
 10
107.4511
 20
26.2241
 30
0.0
 10
135.1601
 20
26.2241
 30
0.0
 10
135.1601
 20
26.2241
 30
0.0
 10
135.1601
 20
26.2241
 30
0.0
 10
135.1601
 20
26.2241
 30
0.0
 10
135.1601
 20
17.7574
 30
0.0
 10
135.1601
 20
17.7574
 30
0.0
 10
135.1601
 20
17.7574
 30
0.0
 10
135.1601
 20
17.7574
 30
0.0
 10
138.3347
 20
17.7574
 30
0.0
 10
138.3347
 20
17.7574
 30
0.0
 10
138.3347
 20
17.7574
 30
0.0
 10
138.3347
 20
17.7574
 30
0.0
 10
138.3347
 20
9.2907
 30
0.0
 10
138.3347
 20
9.2907
 30
0.0
 10
138.3347
 20
9.2907
 30
0.0
 10
138.3347
 20
9.2907
 30
0.0
 10
135.1601
 20
9.2907
 30
0.0
 10
135.1601
 20
9.2907
 30
0.0
 10
135.1601
 20
9.2907
 30
0.0
 10
135.1601
 20
9.2907
 30
0.0
 10
135.1601
 20
0.8241
 30
0.0
 10
135.1601
 20
0.8241
 30
0.0
 10
135.1601
 20
0.8241
 30
0.0
 10
135.1601
 20
0.8241
 30
0.0
 10
107.4511
 20
0.8241
 30
0.0
 10
107.4511
 20
0.8241
 30
0.0
 10
107.4511
 20
0.8241
 30
0.0
 10
107.4511
 20
0.8241
 30
0.0
 10
107.4511
 20
-2.3509
 30
0.0
 10
107.4511
 20
-2.3509
 30
0.0
 10
107.4511
 20
-2.3509
 30
0.0
 10
107.4511
 20
-2.3509
 30
0.0
 10
79.7422
 20
-2.3509
 30
0.0
 10
79.7422
 20
-2.3509
 30
0.0
 10
79.7422
 20
-2.3509
 30
0.0
 10
79.7422
 20
-2.3509
 30
0.0
 10
79.7422
 20
0.8241
 30
0.0
 10
79.7422
 20
0.8241
 30
0.0
 10
79.7422
 20
0.8241
 30
0.0
 10
79.7422
 20
0.8241
 30
0.0
 10
52.0326
 20
0.8241
 30
0.0
 10
52.0326
 20
0.8241
 30
0.0
 10
52.0326
 20
0.8241
 30
0.0
 10
52.0326
 20
0.8241
 30
0.0
 10
52.0326
 20
-2.3509
 30
0.0
 10
52.0326
 20
-2.3509
 30
0.0
 10
52.0326
 20
-2.3509
 30
0.0
 10
52.0326
 20
-2.3509
 30
0.0
 10
24.3237
 20
-2.3509
 30
0.0
 10
24.3237
 20
-2.3509
 30
0.0
 10
24.3237
 20
-2.3509
 30
0.0
 10
24.3237
 20
-2.3509
 30
0.0
 10
24.3237
 20
0.8241
 30
0.0
 10
24.3237
 20
0.8241
 30
0.0
 10
24.3237
 20
0.8241
 30
0.0
 10
24.3237
 20
0.8241
 30
0.0
 10
-3.3851
 20
0.8241
 30
0.0
 10
-3.3851
 20
0.8241
 30
0.0
 10
-3.3851
 20
0.8241
 30
0.0
 10
-3.3851
 20
0.8241
 30
0.0
 10
-3.3851
 20
-2.3509
 30
0.0
 10
-3.3851
 20
-2.3509
 30
0.0
 10
-3.3851
 20
-2.3509
 30
0.0
 10
-3.3851
 20
-2.3509
 30
0.0
 10
-31.094
 20
-2.3509
 30
0.0
 10
-31.094
 20
-2.3509
 30
0.0
 10
-31.094
 20
-2.3509
 30
0.0
 10
-31.094
 20
-2.3509
 30
0.0
 10
-31.094
 20
0.8241
 30
0.0
 10
-31.094
 20
0.8241
 30
0.0
 10
-31.094
 20
0.8241
 30
0.0
 10
-31.094
 20
0.8241
 30
0.0
 10
-58.8033
 20
0.8241
 30
0.0
 10
-58.8033
 20
0.8241
 30
0.0
 10
-58.8033
 20
0.8241
 30
0.0
 10
-58.8033
 20
0.8241
 30
0.0
 10
-58.8033
 20
-2.3509
 30
0.0
 10
-58.8033
 20
-2.3509
 30
0.0
 10
-58.8033
 20
-2.3509
 30
0.0
 10
-58.8033
 20
-2.3509
 30
0.0
 10
-86.5122
 20
-2.3509
 30
0.0
 10
-86.5122
 20
-2.3509
 30
0.0
 10
-86.5122
 20
-2.3509
 30
0.0
 10
-86.5122
 20
-2.3509
 30
0.0
 10
-86.5122
 20
0.8241
 30
0.0
 10
-86.5122
 20
0.8241
 30
0.0
 10
-86.5122
 20
0.8241
 30
0.0
 10
-86.5122
 20
0.8241
 30
0.0
 10
-114.2211
 20
0.8241
 30
0.0
 10
-114.2211
 20
0.8241
 30
0.0
 10
-114.2211
 20
0.8241
 30
0.0
 10
-114.2211
 20
0.8241
 30
0.0
 10
-114.2211
 20
-2.3509
 30
0.0
 10
-114.2211
 20
-2.3509
 30
0.0
 10
-114.2211
 20
-2.3509
 30
0.0
 10
-114.2211
 20
-2.3509
 30
0.0
 10
-141.9304
 20
-2.3509
 30
0.0
 10
-141.9304
 20
-2.3509
 30
0.0
 10
-141.9304
 20
-2.3509
 30
0.0
 10
-141.9304
 20
-2.3509
 30
0.0
 10
-141.9304
 20
0.8241
 30
0.0
 10
-141.9304
 20
0.8241
 30
0.0
 10
-141.9304
 20
0.8241
 30
0.0
 10
-141.9304
 20
0.8241
 30
0.0
 10
-169.6394
 20
0.8241
 30
0.0
 10
-169.6394
 20
0.8241
 30
0.0
 10
-169.6394
 20
0.8241
 30
0.0
 10
-169.6394
 20
0.8241
 30
0.0
 10
-169.6394
 20
9.2907
 30
0.0
 10
-169.6394
 20
9.2907
 30
0.0
 10
-169.6394
 20
9.2907
 30
0.0
 10
-169.6394
 20
9.2907
 30
0.0
 10
-172.8143
 20
9.2907
 30
0.0
 10
-172.8143
 20
9.2907
 30
0.0
 10
-172.8143
 20
9.2907
 30
0.0
 10
-172.8143
 20
9.2907
 30
0.0
 10
-172.8143
 20
17.7574
 30
0.0
 10
-172.8143
 20
17.7574
 30
0.0
 10
-172.8143
 20
17.7574
 30
0.0
 10
-172.8143
 20
17.7574
 30
0.0
 10
-169.6394
 20
17.7574
 30
0.0
 10
-169.6394
 20
17.7574
 30
0.0
 10
-169.6394
 20
17.7574
 30
0.0
 10
-169.6394
 20
17.7574
 30
0.0
 10
-169.6394
 20
26.2241
 30
0.0
 10
-169.6394
 20
26.2241
 30
0.0
 10
-169.6394
 20
26.2241
 30
0.0
 10
-169.6394
 20
26.2241
 30
0.0
 10
-141.9304
 20
26.2241
 30
0.0
 10
-141.9304
 20
26.2241
 30
0.0
 10
-141.9304
 20
26.2241
 30
0.0
 10
-141.9304
 20
26.2241
 30
0.0
 10
-141.9304
 20
29.3991
 30
0.0
 10
-141.9304
 20
29.3991
 30
0.0
  0
SPLINE
  5
42
330
1F
100
AcDbEntity
  8
#Layer 1
 62
     5
370
     9
100
AcDbSpline
210
0.0
220
0.0
230
1.0
 70
     8
 71
     3
 72
    40
 73
    36
 74
     0
 42
0.0000000001
 43
0.0000000001
 40
0.0
 40
0.0
 40
0.0
 40
0.0
 40
0.1
 40
0.1
 40
0.1
 40
0.1
 40
0.2
 40
0.2
 40
0.2
 40
0.2
 40
0.3
 40
0.3
 40
0.3
 40
0.3
 40
0.4
 40
0.4
 40
0.4
 40
0.4
 40
0.5
 40
0.5
 40
0.5
 40
0.5
 40
0.6
 40
0.6
 40
0.6
 40
0.6
 40
0.7
 40
0.7
 40
0.7
 40
0.7
 40
0.8
 40
0.8
 40
0.8
 40
0.8
 40
1.0
 40
1.0
 40
1.0
 40
1.0
 10
-169.6389
 20
-55.0559
 30
0.0
 10
-169.6389
 20
-55.0559
 30
0.0
 10
-172.8139
 20
-55.0559
 30
0.0
 10
-172.8139
 20
-55.0559
 30
0.0
 10
-172.8139
 20
-55.0559
 30
0.0
 10
-172.8139
 20
-55.0559
 30
0.0
 10
-172.8139
 20
-51.8809
 30
0.0
 10
-172.8139
 20
-51.8809
 30
0.0
 10
-172.8139
 20
-51.8809
 30
0.0
 10
-172.8139
 20
-51.8809
 30
0.0
 10
138.3354
 20
-51.8809
 30
0.0
 10
138.3354
 20
-51.8809
 30
0.0
 10
138.3354
 20
-51.8809
 30
0.0
 10
138.3354
 20
-51.8809
 30
0.0
 10
138.3354
 20
-55.0559
 30
0.0
 10
138.3354
 20
-55.0559
 30
0.0
 10
138.3354
 20
-55.0559
 30
0.0
 10
138.3354
 20
-55.0559
 30
0.0
 10
135.1604
 20
-55.0559
 30
0.0
 10
135.1604
 20
-55.0559
 30
0.0
 10
135.1604
 20
-55.0559
 30
0.0
 10
135.1604
 20
-55.0559
 30
0.0
 10
135.1604
 20
-58.8886
 30
0.0
 10
135.1604
 20
-58.8886
 30
0.0
 10
135.1604
 20
-58.8886
 30
0.0
 10
135.1604
 20
-58.8886
 30
0.0
 10
138.3354
 20
-58.8886
 30
0.0
 10
138.3354
 20
-58.8886
 30
0.0
 10
138.3354
 20
-58.8886
 30
0.0
 10
138.3354
 20
-58.8886
 30
0.0
 10
138.3354
 20
-79.7982
 30
0.0
 10
138.3354
 20
-79.7982
 30
0.0
 10
138.3354
 20
-79.7982
 30
0.0
 10
138.3354
 20
-79.7982
 30
0.0
 10
-3.0055
 20
-79.7982
 30
0.0
 10
-3.0055
 20
-79.7982
 30
0.0
  0
SPLINE
  5
43
330
1F
100
AcDbEntity
  8
#Layer 1
 62
     5
370
     9
100
AcDbSpline
210
0.0
220
0.0
230
1.0
 70
     8
 71
     3
 72
     8
 73
     4
 74
     0
 42
0.0000000001
 43
0.0000000001
 40
0.0
 40
0.0
 40
0.0
 40
0.0
 40
1.0
 40
1.0
 40
1.0
 40
1.0
 10
-3.0055
 20
-79.7982
 30
0.0
 10
-3.5905
 20
-79.7982
 30
0.0
 10
-4.0638
 20
-80.2723
 30
0.0
 10
-4.0638
 20
-80.8566
 30
0.0
  0
SPLINE
  5
44
330
1F
100
AcDbEntity
  8
#Layer 1
 62
     5
370
     9
100
AcDbSpline
210
0.0
220
0.0
230
1.0
 70
    24
 71
     3
 72
     8
 73
     4
 74
     0
 42
0.0000000001
 43
0.0000000001
 40
0.0
 40
0.0
 40
0.0
 40
0.0
 40
1.0
 40
1.0
 40
1.0
 40
1.0
 10
-4.0638
 20
-80.8566
 30
0.0
 10
-4.0638
 20
-80.8566
 30
0.0
 10
-4.0638
 20
-81.9149
 30
0.0
 10
-4.0638
 20
-81.9149
 30
0.0
  0
SPLINE
  5
45
330
1F
100
AcDbEntity
  8
#Layer 1
 62
     5
370
     9
100
AcDbSpline
210
0.0
220
0.0
230
1.0
 70
     8
 71
     3
 72
     8
 73
     4
 74
     0
 42
0.0000000001
 43
0.0000000001
 40
0.0
 40
0.0
 40
0.0
 40
0.0
 40
1.0
 40
1.0
 40
1.0
 40
1.0
 10
-4.0638
 20
-81.9149
 30
0.0
 10
-4.0638
 20
-82.4992
 30
0.0
 10
-4.5379
 20
-82.9732
 30
0.0
 10
-5.1222
 20
-82.9732
 30
0.0
  0
SPLINE
  5
46
330
1F
100
AcDbEntity
  8
#Layer 1
 62
     5
370
     9
100
AcDbSpline
210
0.0
220
0.0
230
1.0
 70
    24
 71
     3
 72
     8
 73
     4
 74
     0
 42
0.0000000001
 43
0.0000000001
 40
0.0
 40
0.0
 40
0.0
 40
0.0
 40
1.0
 40
1.0
 40
1.0
 40
1.0
 10
-5.1222
 20
-82.9732
 30
0.0
 10
-5.1222
 20
-82.9732
 30
0.0
 10
-29.356
 20
-82.9732
 30
0.0
 10
-29.356
 20
-82.9732
 30
0.0
  0
SPLINE
  5
47
330
1F
100
AcDbEntity
  8
#Layer 1
 62
     5
370
     9
100
AcDbSpline
210
0.0
220
0.0
230
1.0
 70
     8
 71
     3
 72
     8
 73
     4
 74
     0
 42
0.0000000001
 43
0.0000000001
 40
0.0
 40
0.0
 40
0.0
 40
0.0
 40
1.0
 40
1.0
 40
1.0
 40
1.0
 10
-29.356
 20
-82.9732
 30
0.0
 10
-29.9406
 20
-82.9732
 30
0.0
 10
-30.4143
 20
-82.4992
 30
0.0
 10
-30.4143
 20
-81.9149
 30
0.0
  0
SPLINE
  5
48
330
1F
100
AcDbEntity
  8
#Layer 1
 62
     5
370
     9
100
AcDbSpline
210
0.0
220
0.0
230
1.0
 70
    24
 71
     3
 72
     8
 73
     4
 74
     0
 42
0.0000000001
 43
0.0000000001
 40
0.0
 40
0.0
 40
0.0
 40
0.0
 40
1.0
 40
1.0
 40
1.0
 40
1.0
 10
-30.4143
 20
-81.9149
 30
0.0
 10
-30.4143
 20
-81.9149
 30
0.0
 10
-30.4143
 20
-80.8566
 30
0.0
 10
-30.4143
 20
-80.8566
 30
0.0
  0
SPLINE
  5
49
330
1F
100
AcDbEntity
  8
#Layer 1
 62
     5
370
     9
100
AcDbSpline
210
0.0
220
0.0
230
1.0
 70
     8
 71
     3
 72
     8
 73
     4
 74
     0
 42
0.0000000001
 43
0.0000000001
 40
0.0
 40
0.0
 40
0.0
 40
0.0
 40
1.0
 40
1.0
 40
1.0
 40
1.0
 10
-30.4143
 20
-80.8566
 30
0.0
 10
-30.4143
 20
-80.2723
 30
0.0
 10
-30.888
 20
-79.7982
 30
0.0
 10
-31.4727
 20
-79.7982
 30
0.0
  0
SPLINE
  5
4A
330
1F
100
AcDbEntity
  8
#Layer 1
 62
     5
370
     9
100
AcDbSpline
210
0.0
220
0.0
230
1.0
 70
     8
 71
     3
 72
    20
 73
    16
 74
     0
 42
0.0000000001
 43
0.0000000001
 40
0.0
 40
0.0
 40
0.0
 40
0.0
 40
0.2
 40
0.2
 40
0.2
 40
0.2
 40
0.4
 40
0.4
 40
0.4
 40
0.4
 40
0.6
 40
0.6
 40
0.6
 40
0.6
 40
1.0
 40
1.0
 40
1.0
 40
1.0
 10
-31.4727
 20
-79.7982
 30
0.0
 10
-31.4727
 20
-79.7982
 30
0.0
 10
-172.8139
 20
-79.7982
 30
0.0
 10
-172.8139
 20
-79.7982
 30
0.0
 10
-172.8139
 20
-79.7982
 30
0.0
 10
-172.8139
 20
-79.7982
 30
0.0
 10
-172.8139
 20
-58.8886
 30
0.0
 10
-172.8139
 20
-58.8886
 30
0.0
 10
-172.8139
 20
-58.8886
 30
0.0
 10
-172.8139
 20
-58.8886
 30
0.0
 10
-169.6389
 20
-58.8886
 30
0.0
 10
-169.6389
 20
-58.8886
 30
0.0
 10
-169.6389
 20
-58.8886
 30
0.0
 10
-169.6389
 20
-58.8886
 30
0.0
 10
-169.6389
 20
-55.0559
 30
0.0
 10
-169.6389
 20
-55.0559
 30
0.0
  0
SPLINE
  5
4B
330
1F
100
AcDbEntity
  8
#Layer 1
 62
     1
370
     9
100
AcDbSpline
210
0.0
220
0.0
230
1.0
 70
    11
 71
     3
 72
    20
 73
    16
 74
     0
 42
0.0000000001
 43
0.0000000001
 40
0.0
 40
0.0
 40
0.0
 40
0.0
 40
0.2
 40
0.2
 40
0.2
 40
0.2
 40
0.4
 40
0.4
 40
0.4
 40
0.4
 40
0.6
 40
0.6
 40
0.6
 40
0.6
 40
1.0
 40
1.0
 40
1.0
 40
1.0
 10
-7.2388
 20
-79.7982
 30
0.0
 10
-7.2388
 20
-79.7982
 30
0.0
 10
-7.2388
 20
-76.6232
 30
0.0
 10
-7.2388
 20
-76.6232
 30
0.0
 10
-7.2388
 20
-76.6232
 30
0.0
 10
-7.2388
 20
-76.6232
 30
0.0
 10
-27.2393
 20
-76.6232
 30
0.0
 10
-27.2393
 20
-76.6232
 30
0.0
 10
-27.2393
 20
-76.6232
 30
0.0
 10
-27.2393
 20
-76.6232
 30
0.0
 10
-27.2393
 20
-79.7982
 30
0.0
 10
-27.2393
 20
-79.7982
 30
0.0
 10
-27.2393
 20
-79.7982
 30
0.0
 10
-27.2393
 20
-79.7982
 30
0.0
 10
-7.2388
 20
-79.7982
 30
0.0
 10
-7.2388
 20
-79.7982
 30
0.0
  0
SPLINE
  5
4C
330
1F
100
AcDbEntity
  8
#Layer 1
100
AcDbSpline
210
0.0
220
0.0
230
1.0
 70
    11
 71
     3
 72
    44
 73
    40
 74
     0
 42
0.0000000001
 43
0.0000000001
 40
0.0
 40
0.0
 40
0.0
 40
0.0
 40
0.0909090909090909
 40
0.0909090909090909
 40
0.0909090909090909
 40
0.0909090909090909
 40
0.1818181818181818
 40
0.1818181818181818
 40
0.1818181818181818
 40
0.1818181818181818
 40
0.2727272727272727
 40
0.2727272727272727
 40
0.2727272727272727
 40
0.2727272727272727
 40
0.3636363636363636
 40
0.3636363636363636
 40
0.3636363636363636
 40
0.3636363636363636
 40
0.4545454545454545
 40
0.4545454545454545
 40
0.4545454545454545
 40
0.4545454545454545
 40
0.5454545454545454
 40
0.5454545454545454
 40
0.5454545454545454
 40
0.5454545454545454
 40
0.6363636363636364
 40
0.6363636363636364
 40
0.6363636363636364
 40
0.6363636363636364
 40
0.7272727272727273
 40
0.7272727272727273
 40
0.7272727272727273
 40
0.7272727272727273
 40
0.8181818181818182
 40
0.8181818181818182
 40
0.8181818181818182
 40
0.8181818181818182
 40
1.0
 40
1.0
 40
1.0
 40
1.0
 10
21.4292
 20
-65.7653
 30
0.0
 10
21.4292
 20
-68.4132
 30
0.0
 10
19.0131
 20
-71.9999
 30
0.0
 10
14.9707
 20
-73.4189
 30
0.0
 10
14.9707
 20
-73.4189
 30
0.0
 10
12.0448
 20
-74.4456
 30
0.0
 10
6.308
 20
-74.9844
 30
0.0
 10
-0.1099
 20
-67.6767
 30
0.0
 10
-0.1099
 20
-67.6767
 30
0.0
 10
-3.1691
 20
-70.8933
 30
0.0
 10
-6.6301
 20
-72.5949
 30
0.0
 10
-10.4142
 20
-72.7396
 30
0.0
 10
-10.4142
 20
-72.7396
 30
0.0
 10
-17.9731
 20
-73.0297
 30
0.0
 10
-23.983
 20
-66.9728
 30
0.0
 10
-24.2345
 20
-66.7151
 30
0.0
 10
-24.2345
 20
-66.7151
 30
0.0
 10
-24.2345
 20
-66.7151
 30
0.0
 10
-25.1316
 20
-65.7974
 30
0.0
 10
-25.1316
 20
-65.7974
 30
0.0
 10
-25.1316
 20
-65.7974
 30
0.0
 10
-25.1316
 20
-65.7974
 30
0.0
 10
-24.1915
 20
-64.9247
 30
0.0
 10
-24.1915
 20
-64.9247
 30
0.0
 10
-24.1915
 20
-64.9247
 30
0.0
 10
-23.9093
 20
-64.6625
 30
0.0
 10
-17.191
 20
-58.5131
 30
0.0
 10
-9.4423
 20
-59.0842
 30
0.0
 10
-9.4423
 20
-59.0842
 30
0.0
 10
-5.9135
 20
-59.3447
 30
0.0
 10
-2.7674
 20
-60.9487
 30
0.0
 10
-0.0727
 20
-63.8581
 30
0.0
 10
-0.0727
 20
-63.8581
 30
0.0
 10
6.5488
 20
-56.6348
 30
0.0
 10
12.31
 20
-57.2432
 30
0.0
 10
15.2297
 20
-58.3043
 30
0.0
 10
15.2297
 20
-58.3043
 30
0.0
 10
18.7637
 20
-59.5886
 30
0.0
 10
21.4292
 20
-62.7967
 30
0.0
 10
21.4292
 20
-65.7653
 30
0.0
  0
SPLINE
  5
4D
330
1F
100
AcDbEntity
  8
#Layer 1
100
AcDbSpline
210
0.0
220
0.0
230
1.0
 70
    11
 71
     3
 72
    24
 73
    20
 74
     0
 42
0.0000000001
 43
0.0000000001
 40
0.0
 40
0.0
 40
0.0
 40
0.0
 40
0.1666666666666667
 40
0.1666666666666667
 40
0.1666666666666667
 40
0.1666666666666667
 40
0.3333333333333333
 40
0.3333333333333333
 40
0.3333333333333333
 40
0.3333333333333333
 40
0.5
 40
0.5
 40
0.5
 40
0.5
 40
0.6666666666666666
 40
0.6666666666666666
 40
0.6666666666666666
 40
0.6666666666666666
 40
1.0
 40
1.0
 40
1.0
 40
1.0
 10
1.5579
 20
-65.7832
 30
0.0
 10
1.5579
 20
-65.7832
 30
0.0
 10
1.5579
 20
-65.7832
 30
0.0
 10
1.5579
 20
-65.7832
 30
0.0
 10
1.5579
 20
-65.7832
 30
0.0
 10
7.1028
 20
-72.2407
 30
0.0
 10
11.7912
 20
-71.8842
 30
0.0
 10
14.1428
 20
-71.0587
 30
0.0
 10
14.1428
 20
-71.0587
 30
0.0
 10
17.005
 20
-70.0545
 30
0.0
 10
18.928
 20
-67.5106
 30
0.0
 10
18.928
 20
-65.7653
 30
0.0
 10
18.928
 20
-65.7653
 30
0.0
 10
18.928
 20
-64.1031
 30
0.0
 10
17.1872
 20
-61.677
 30
0.0
 10
14.3753
 20
-60.6552
 30
0.0
 10
14.3753
 20
-60.6552
 30
0.0
 10
12.0216
 20
-59.7995
 30
0.0
 10
7.2967
 20
-59.3843
 30
0.0
 10
1.5579
 20
-65.7832
 30
0.0
  0
SPLINE
  5
4E
330
1F
100
AcDbEntity
  8
#Layer 1
100
AcDbSpline
210
0.0
220
0.0
230
1.0
 70
    11
 71
     3
 72
    24
 73
    20
 74
     0
 42
0.0000000001
 43
0.0000000001
 40
0.0
 40
0.0
 40
0.0
 40
0.0
 40
0.1666666666666667
 40
0.1666666666666667
 40
0.1666666666666667
 40
0.1666666666666667
 40
0.3333333333333333
 40
0.3333333333333333
 40
0.3333333333333333
 40
0.3333333333333333
 40
0.5
 40
0.5
 40
0.5
 40
0.5
 40
0.6666666666666666
 40
0.6666666666666666
 40
0.6666666666666666
 40
0.6666666666666666
 40
1.0
 40
1.0
 40
1.0
 40
1.0
 10
-21.425
 20
-65.8807
 30
0.0
 10
-21.425
 20
-65.8807
 30
0.0
 10
-21.425
 20
-65.8807
 30
0.0
 10
-21.425
 20
-65.8807
 30
0.0
 10
-21.425
 20
-65.8807
 30
0.0
 10
-19.5475
 20
-67.44
 30
0.0
 10
-15.2952
 20
-70.4303
 30
0.0
 10
-10.4958
 20
-70.2398
 30
0.0
 10
-10.4958
 20
-70.2398
 30
0.0
 10
-7.3198
 20
-70.1141
 30
0.0
 10
-4.3756
 20
-68.6051
 30
0.0
 10
-1.7325
 20
-65.7502
 30
0.0
 10
-1.7325
 20
-65.7502
 30
0.0
 10
-4.0294
 20
-63.1984
 30
0.0
 10
-6.6814
 20
-61.7962
 30
0.0
 10
-9.6263
 20
-61.5785
 30
0.0
 10
-9.6263
 20
-61.5785
 30
0.0
 10
-14.6582
 20
-61.2078
 30
0.0
 10
-19.3804
 20
-64.3084
 30
0.0
 10
-21.425
 20
-65.8807
 30
0.0
  0
SPLINE
  5
4F
330
1F
100
AcDbEntity
  8
#Layer 1
100
AcDbSpline
210
0.0
220
0.0
230
1.0
 70
    11
 71
     3
 72
    52
 73
    48
 74
     0
 42
0.0000000001
 43
0.0000000001
 40
0.0
 40
0.0
 40
0.0
 40
0.0
 40
0.0769230769230769
 40
0.0769230769230769
 40
0.0769230769230769
 40
0.0769230769230769
 40
0.1538461538461539
 40
0.1538461538461539
 40
0.1538461538461539
 40
0.1538461538461539
 40
0.2307692307692308
 40
0.2307692307692308
 40
0.2307692307692308
 40
0.2307692307692308
 40
0.3076923076923077
 40
0.3076923076923077
 40
0.3076923076923077
 40
0.3076923076923077
 40
0.3846153846153846
 40
0.3846153846153846
 40
0.3846153846153846
 40
0.3846153846153846
 40
0.4615384615384616
 40
0.4615384615384616
 40
0.4615384615384616
 40
0.4615384615384616
 40
0.5384615384615384
 40
0.5384615384615384
 40
0.5384615384615384
 40
0.5384615384615384
 40
0.6153846153846154
 40
0.6153846153846154
 40
0.6153846153846154
 40
0.6153846153846154
 40
0.6923076923076923
 40
0.6923076923076923
 40
0.6923076923076923
 40
0.6923076923076923
 40
0.7692307692307693
 40
0.7692307692307693
 40
0.7692307692307693
 40
0.7692307692307693
 40
0.8461538461538461
 40
0.8461538461538461
 40
0.8461538461538461
 40
0.8461538461538461
 40
1.0
 40
1.0
 40
1.0
 40
1.0
 10
11.7554
 20
-64.327
 30
0.0
 10
7.8886
 20
-61.3429
 30
0.0
 10
3.1292
 20
-58.7415
 30
0.0
 10
-1.5851
 20
-58.9055
 30
0.0
 10
-1.5851
 20
-58.9055
 30
0.0
 10
-5.5363
 20
-59.0436
 30
0.0
 10
-8.9383
 20
-61.1065
 30
0.0
 10
-11.6971
 20
-65.0367
 30
0.0
 10
-11.6971
 20
-65.0367
 30
0.0
 10
-11.6971
 20
-65.0367
 30
0.0
 10
-12.2618
 20
-65.8415
 30
0.0
 10
-12.2618
 20
-65.8415
 30
0.0
 10
-12.2618
 20
-65.8415
 30
0.0
 10
-12.2618
 20
-65.8415
 30
0.0
 10
-11.6971
 20
-66.6455
 30
0.0
 10
-11.6971
 20
-66.6455
 30
0.0
 10
-11.6971
 20
-66.6455
 30
0.0
 10
-8.9383
 20
-70.5764
 30
0.0
 10
-5.5363
 20
-72.6393
 30
0.0
 10
-1.5851
 20
-72.7771
 30
0.0
 10
-1.5851
 20
-72.7771
 30
0.0
 10
3.1292
 20
-72.9415
 30
0.0
 10
7.8886
 20
-70.3401
 30
0.0
 10
11.7554
 20
-67.3559
 30
0.0
 10
11.7554
 20
-67.3559
 30
0.0
 10
15.8337
 20
-70.7349
 30
0.0
 10
21.4399
 20
-77.5227
 30
0.0
 10
21.4933
 20
-77.5916
 30
0.0
 10
21.4933
 20
-77.5916
 30
0.0
 10
21.4933
 20
-77.5916
 30
0.0
 10
21.4933
 20
-74.1762
 30
0.0
 10
21.4933
 20
-74.1762
 30
0.0
 10
21.4933
 20
-74.1762
 30
0.0
 10
21.2748
 20
-73.8995
 30
0.0
 10
17.4239
 20
-69.1177
 30
0.0
 10
13.6126
 20
-65.8415
 30
0.0
 10
13.6126
 20
-65.8415
 30
0.0
 10
17.4239
 20
-62.5652
 30
0.0
 10
21.2748
 20
-57.7607
 30
0.0
 10
21.4933
 20
-57.4837
 30
0.0
 10
21.4933
 20
-57.4837
 30
0.0
 10
21.4933
 20
-57.4837
 30
0.0
 10
21.4933
 20
-54.0875
 30
0.0
 10
21.4933
 20
-54.0875
 30
0.0
 10
21.4933
 20
-54.0875
 30
0.0
 10
21.4399
 20
-54.1564
 30
0.0
 10
15.8337
 20
-60.9474
 30
0.0
 10
11.7554
 20
-64.327
 30
0.0
  0
SPLINE
  5
50
330
1F
100
AcDbEntity
  8
#Layer 1
100
AcDbSpline
210
0.0
220
0.0
230
1.0
 70
    11
 71
     3
 72
    24
 73
    20
 74
     0
 42
0.0000000001
 43
0.0000000001
 40
0.0
 40
0.0
 40
0.0
 40
0.0
 40
0.1666666666666667
 40
0.1666666666666667
 40
0.1666666666666667
 40
0.1666666666666667
 40
0.3333333333333333
 40
0.3333333333333333
 40
0.3333333333333333
 40
0.3333333333333333
 40
0.5
 40
0.5
 40
0.5
 40
0.5
 40
0.6666666666666666
 40
0.6666666666666666
 40
0.6666666666666666
 40
0.6666666666666666
 40
1.0
 40
1.0
 40
1.0
 40
1.0
 10
-1.5289
 20
-70.2767
 30
0.0
 10
-1.5289
 20
-70.2767
 30
0.0
 10
-1.5289
 20
-70.2767
 30
0.0
 10
-1.5289
 20
-70.2767
 30
0.0
 10
-1.5289
 20
-70.2767
 30
0.0
 10
-4.5847
 20
-70.1692
 30
0.0
 10
-7.263
 20
-68.675
 30
0.0
 10
-9.5057
 20
-65.8415
 30
0.0
 10
-9.5057
 20
-65.8415
 30
0.0
 10
-7.263
 20
-63.0075
 30
0.0
 10
-4.5847
 20
-61.5137
 30
0.0
 10
-1.5289
 20
-61.4062
 30
0.0
 10
-1.5289
 20
-61.4062
 30
0.0
 10
2.3575
 20
-61.2691
 30
0.0
 10
6.3845
 20
-63.3265
 30
0.0
 10
9.8154
 20
-65.8415
 30
0.0
 10
9.8154
 20
-65.8415
 30
0.0
 10
6.3845
 20
-68.3557
 30
0.0
 10
2.3575
 20
-70.4138
 30
0.0
 10
-1.5289
 20
-70.2767
 30
0.0
  0
SPLINE
  5
51
330
1F
100
AcDbEntity
  8
#Layer 1
100
AcDbSpline
210
0.0
220
0.0
230
1.0
 70
    11
 71
     3
 72
    44
 73
    40
 74
     0
 42
0.0000000001
 43
0.0000000001
 40
0.0
 40
0.0
 40
0.0
 40
0.0
 40
0.0909090909090909
 40
0.0909090909090909
 40
0.0909090909090909
 40
0.0909090909090909
 40
0.1818181818181818
 40
0.1818181818181818
 40
0.1818181818181818
 40
0.1818181818181818
 40
0.2727272727272727
 40
0.2727272727272727
 40
0.2727272727272727
 40
0.2727272727272727
 40
0.3636363636363636
 40
0.3636363636363636
 40
0.3636363636363636
 40
0.3636363636363636
 40
0.4545454545454545
 40
0.4545454545454545
 40
0.4545454545454545
 40
0.4545454545454545
 40
0.5454545454545454
 40
0.5454545454545454
 40
0.5454545454545454
 40
0.5454545454545454
 40
0.6363636363636364
 40
0.6363636363636364
 40
0.6363636363636364
 40
0.6363636363636364
 40
0.7272727272727273
 40
0.7272727272727273
 40
0.7272727272727273
 40
0.7272727272727273
 40
0.8181818181818182
 40
0.8181818181818182
 40
0.8181818181818182
 40
0.8181818181818182
 40
1.0
 40
1.0
 40
1.0
 40
1.0
 10
-9.4144
 20
-65.8849
 30
0.0
 10
-9.4144
 20
-65.8849
 30
0.0
 10
-10.3539
 20
-66.7582
 30
0.0
 10
-10.3539
 20
-66.7582
 30
0.0
 10
-10.3539
 20
-66.7582
 30
0.0
 10
-10.6367
 20
-67.02
 30
0.0
 10
-17.3547
 20
-73.1692
 30
0.0
 10
-25.103
 20
-72.598
 30
0.0
 10
-25.103
 20
-72.598
 30
0.0
 10
-28.6315
 20
-72.3382
 30
0.0
 10
-31.7779
 20
-70.7338
 30
0.0
 10
-34.4733
 20
-67.8245
 30
0.0
 10
-34.4733
 20
-67.8245
 30
0.0
 10
-41.0941
 20
-75.0481
 30
0.0
 10
-46.8554
 20
-74.439
 30
0.0
 10
-49.7758
 20
-73.3783
 30
0.0
 10
-49.7758
 20
-73.3783
 30
0.0
 10
-53.3094
 20
-72.0936
 30
0.0
 10
-55.9745
 20
-68.8862
 30
0.0
 10
-55.9745
 20
-65.9173
 30
0.0
 10
-55.9745
 20
-65.9173
 30
0.0
 10
-55.9745
 20
-63.2694
 30
0.0
 10
-53.5592
 20
-59.6827
 30
0.0
 10
-49.5167
 20
-58.264
 30
0.0
 10
-49.5167
 20
-58.264
 30
0.0
 10
-46.5908
 20
-57.2366
 30
0.0
 10
-40.8533
 20
-56.6985
 30
0.0
 10
-34.4362
 20
-64.0059
 30
0.0
 10
-34.4362
 20
-64.0059
 30
0.0
 10
-31.3769
 20
-60.7896
 30
0.0
 10
-27.9153
 20
-59.0881
 30
0.0
 10
-24.1312
 20
-58.9426
 30
0.0
 10
-24.1312
 20
-58.9426
 30
0.0
 10
-16.5723
 20
-58.6529
 30
0.0
 10
-10.563
 20
-64.7094
 30
0.0
 10
-10.3105
 20
-64.9671
 30
0.0
 10
-10.3105
 20
-64.9671
 30
0.0
 10
-10.3105
 20
-64.9671
 30
0.0
 10
-9.4144
 20
-65.8849
 30
0.0
 10
-9.4144
 20
-65.8849
 30
0.0
  0
SPLINE
  5
52
330
1F
100
AcDbEntity
  8
#Layer 1
100
AcDbSpline
210
0.0
220
0.0
230
1.0
 70
    11
 71
     3
 72
    24
 73
    20
 74
     0
 42
0.0000000001
 43
0.0000000001
 40
0.0
 40
0.0
 40
0.0
 40
0.0
 40
0.1666666666666667
 40
0.1666666666666667
 40
0.1666666666666667
 40
0.1666666666666667
 40
0.3333333333333333
 40
0.3333333333333333
 40
0.3333333333333333
 40
0.3333333333333333
 40
0.5
 40
0.5
 40
0.5
 40
0.5
 40
0.6666666666666666
 40
0.6666666666666666
 40
0.6666666666666666
 40
0.6666666666666666
 40
1.0
 40
1.0
 40
1.0
 40
1.0
 10
-32.8135
 20
-65.9324
 30
0.0
 10
-32.8135
 20
-65.9324
 30
0.0
 10
-32.8135
 20
-65.9324
 30
0.0
 10
-32.8135
 20
-65.9324
 30
0.0
 10
-32.8135
 20
-65.9324
 30
0.0
 10
-30.516
 20
-68.4845
 30
0.0
 10
-27.8646
 20
-69.8867
 30
0.0
 10
-24.9191
 20
-70.1037
 30
0.0
 10
-24.9191
 20
-70.1037
 30
0.0
 10
-19.8871
 20
-70.4748
 30
0.0
 10
-15.1653
 20
-67.3745
 30
0.0
 10
-13.1203
 20
-65.8022
 30
0.0
 10
-13.1203
 20
-65.8022
 30
0.0
 10
-14.9989
 20
-64.2422
 30
0.0
 10
-19.2505
 20
-61.2519
 30
0.0
 10
-24.0499
 20
-61.4428
 30
0.0
 10
-24.0499
 20
-61.4428
 30
0.0
 10
-27.2256
 20
-61.5689
 30
0.0
 10
-30.1704
 20
-63.0778
 30
0.0
 10
-32.8135
 20
-65.9324
 30
0.0
  0
SPLINE
  5
53
330
1F
100
AcDbEntity
  8
#Layer 1
100
AcDbSpline
210
0.0
220
0.0
230
1.0
 70
    11
 71
     3
 72
    24
 73
    20
 74
     0
 42
0.0000000001
 43
0.0000000001
 40
0.0
 40
0.0
 40
0.0
 40
0.0
 40
0.1666666666666667
 40
0.1666666666666667
 40
0.1666666666666667
 40
0.1666666666666667
 40
0.3333333333333333
 40
0.3333333333333333
 40
0.3333333333333333
 40
0.3333333333333333
 40
0.5
 40
0.5
 40
0.5
 40
0.5
 40
0.6666666666666666
 40
0.6666666666666666
 40
0.6666666666666666
 40
0.6666666666666666
 40
1.0
 40
1.0
 40
1.0
 40
1.0
 10
-53.4734
 20
-65.9173
 30
0.0
 10
-53.4734
 20
-65.9173
 30
0.0
 10
-53.4734
 20
-65.9173
 30
0.0
 10
-53.4734
 20
-65.9173
 30
0.0
 10
-53.4734
 20
-65.9173
 30
0.0
 10
-53.4734
 20
-67.5792
 30
0.0
 10
-51.7329
 20
-70.0059
 30
0.0
 10
-48.921
 20
-71.0274
 30
0.0
 10
-48.921
 20
-71.0274
 30
0.0
 10
-46.5677
 20
-71.8835
 30
0.0
 10
-41.8428
 20
-72.2986
 30
0.0
 10
-36.1039
 20
-65.8997
 30
0.0
 10
-36.1039
 20
-65.8997
 30
0.0
 10
-41.6481
 20
-59.4419
 30
0.0
 10
-46.3372
 20
-59.7981
 30
0.0
 10
-48.6882
 20
-60.6235
 30
0.0
 10
-48.6882
 20
-60.6235
 30
0.0
 10
-51.5504
 20
-61.6281
 30
0.0
 10
-53.4734
 20
-64.172
 30
0.0
 10
-53.4734
 20
-65.9173
 30
0.0
  0
SPLINE
  5
54
330
1F
100
AcDbEntity
  8
#Layer 1
100
AcDbSpline
210
0.0
220
0.0
230
1.0
 70
    11
 71
     3
 72
    52
 73
    48
 74
     0
 42
0.0000000001
 43
0.0000000001
 40
0.0
 40
0.0
 40
0.0
 40
0.0
 40
0.0769230769230769
 40
0.0769230769230769
 40
0.0769230769230769
 40
0.0769230769230769
 40
0.1538461538461539
 40
0.1538461538461539
 40
0.1538461538461539
 40
0.1538461538461539
 40
0.2307692307692308
 40
0.2307692307692308
 40
0.2307692307692308
 40
0.2307692307692308
 40
0.3076923076923077
 40
0.3076923076923077
 40
0.3076923076923077
 40
0.3076923076923077
 40
0.3846153846153846
 40
0.3846153846153846
 40
0.3846153846153846
 40
0.3846153846153846
 40
0.4615384615384616
 40
0.4615384615384616
 40
0.4615384615384616
 40
0.4615384615384616
 40
0.5384615384615384
 40
0.5384615384615384
 40
0.5384615384615384
 40
0.5384615384615384
 40
0.6153846153846154
 40
0.6153846153846154
 40
0.6153846153846154
 40
0.6153846153846154
 40
0.6923076923076923
 40
0.6923076923076923
 40
0.6923076923076923
 40
0.6923076923076923
 40
0.7692307692307693
 40
0.7692307692307693
 40
0.7692307692307693
 40
0.7692307692307693
 40
0.8461538461538461
 40
0.8461538461538461
 40
0.8461538461538461
 40
0.8461538461538461
 40
1.0
 40
1.0
 40
1.0
 40
1.0
 10
-46.2383
 20
-67.3559
 30
0.0
 10
-42.3709
 20
-70.3401
 30
0.0
 10
-37.6125
 20
-72.9415
 30
0.0
 10
-32.8979
 20
-72.7771
 30
0.0
 10
-32.8979
 20
-72.7771
 30
0.0
 10
-28.9467
 20
-72.6393
 30
0.0
 10
-25.5447
 20
-70.5764
 30
0.0
 10
-22.7866
 20
-66.6455
 30
0.0
 10
-22.7866
 20
-66.6455
 30
0.0
 10
-22.7866
 20
-66.6455
 30
0.0
 10
-22.2212
 20
-65.8415
 30
0.0
 10
-22.2212
 20
-65.8415
 30
0.0
 10
-22.2212
 20
-65.8415
 30
0.0
 10
-22.2212
 20
-65.8415
 30
0.0
 10
-22.7866
 20
-65.0367
 30
0.0
 10
-22.7866
 20
-65.0367
 30
0.0
 10
-22.7866
 20
-65.0367
 30
0.0
 10
-25.5447
 20
-61.1065
 30
0.0
 10
-28.9467
 20
-59.0436
 30
0.0
 10
-32.8979
 20
-58.9055
 30
0.0
 10
-32.8979
 20
-58.9055
 30
0.0
 10
-37.6125
 20
-58.7415
 30
0.0
 10
-42.3709
 20
-61.3429
 30
0.0
 10
-46.2383
 20
-64.327
 30
0.0
 10
-46.2383
 20
-64.327
 30
0.0
 10
-50.316
 20
-60.9474
 30
0.0
 10
-55.9198
 20
-54.1564
 30
0.0
 10
-55.9745
 20
-54.0875
 30
0.0
 10
-55.9745
 20
-54.0875
 30
0.0
 10
-55.9745
 20
-54.0875
 30
0.0
 10
-55.9745
 20
-57.4837
 30
0.0
 10
-55.9745
 20
-57.4837
 30
0.0
 10
-55.9745
 20
-57.4837
 30
0.0
 10
-55.7565
 20
-57.7607
 30
0.0
 10
-51.9069
 20
-62.5652
 30
0.0
 10
-48.0956
 20
-65.8415
 30
0.0
 10
-48.0956
 20
-65.8415
 30
0.0
 10
-51.9069
 20
-69.1177
 30
0.0
 10
-55.7565
 20
-73.8995
 30
0.0
 10
-55.9745
 20
-74.1762
 30
0.0
 10
-55.9745
 20
-74.1762
 30
0.0
 10
-55.9745
 20
-74.1762
 30
0.0
 10
-55.9745
 20
-77.5916
 30
0.0
 10
-55.9745
 20
-77.5916
 30
0.0
 10
-55.9745
 20
-77.5916
 30
0.0
 10
-55.9198
 20
-77.5227
 30
0.0
 10
-50.316
 20
-70.7349
 30
0.0
 10
-46.2383
 20
-67.3559
 30
0.0
  0
SPLINE
  5
55
330
1F
100
AcDbEntity
  8
#Layer 1
100
AcDbSpline
210
0.0
220
0.0
230
1.0
 70
    11
 71
     3
 72
    24
 73
    20
 74
     0
 42
0.0000000001
 43
0.0000000001
 40
0.0
 40
0.0
 40
0.0
 40
0.0
 40
0.1666666666666667
 40
0.1666666666666667
 40
0.1666666666666667
 40
0.1666666666666667
 40
0.3333333333333333
 40
0.3333333333333333
 40
0.3333333333333333
 40
0.3333333333333333
 40
0.5
 40
0.5
 40
0.5
 40
0.5
 40
0.6666666666666666
 40
0.6666666666666666
 40
0.6666666666666666
 40
0.6666666666666666
 40
1.0
 40
1.0
 40
1.0
 40
1.0
 10
-32.9541
 20
-61.4062
 30
0.0
 10
-32.9541
 20
-61.4062
 30
0.0
 10
-32.9541
 20
-61.4062
 30
0.0
 10
-32.9541
 20
-61.4062
 30
0.0
 10
-32.9541
 20
-61.4062
 30
0.0
 10
-29.8983
 20
-61.5137
 30
0.0
 10
-27.2201
 20
-63.0075
 30
0.0
 10
-24.9766
 20
-65.8415
 30
0.0
 10
-24.9766
 20
-65.8415
 30
0.0
 10
-27.2201
 20
-68.675
 30
0.0
 10
-29.8983
 20
-70.1692
 30
0.0
 10
-32.9541
 20
-70.2767
 30
0.0
 10
-32.9541
 20
-70.2767
 30
0.0
 10
-36.8405
 20
-70.4138
 30
0.0
 10
-40.8681
 20
-68.3557
 30
0.0
 10
-44.2991
 20
-65.8415
 30
0.0
 10
-44.2991
 20
-65.8415
 30
0.0
 10
-40.8681
 20
-63.3265
 30
0.0
 10
-36.8405
 20
-61.2691
 30
0.0
 10
-32.9541
 20
-61.4062
 30
0.0
  0
SPLINE
  5
56
330
1F
100
AcDbEntity
  8
#Layer 1
100
AcDbSpline
210
0.0
220
0.0
230
1.0
 70
    11
 71
     3
 72
    44
 73
    40
 74
     0
 42
0.0000000001
 43
0.0000000001
 40
0.0
 40
0.0
 40
0.0
 40
0.0
 40
0.0909090909090909
 40
0.0909090909090909
 40
0.0909090909090909
 40
0.0909090909090909
 40
0.1818181818181818
 40
0.1818181818181818
 40
0.1818181818181818
 40
0.1818181818181818
 40
0.2727272727272727
 40
0.2727272727272727
 40
0.2727272727272727
 40
0.2727272727272727
 40
0.3636363636363636
 40
0.3636363636363636
 40
0.3636363636363636
 40
0.3636363636363636
 40
0.4545454545454545
 40
0.4545454545454545
 40
0.4545454545454545
 40
0.4545454545454545
 40
0.5454545454545454
 40
0.5454545454545454
 40
0.5454545454545454
 40
0.5454545454545454
 40
0.6363636363636364
 40
0.6363636363636364
 40
0.6363636363636364
 40
0.6363636363636364
 40
0.7272727272727273
 40
0.7272727272727273
 40
0.7272727272727273
 40
0.7272727272727273
 40
0.8181818181818182
 40
0.8181818181818182
 40
0.8181818181818182
 40
0.8181818181818182
 40
1.0
 40
1.0
 40
1.0
 40
1.0
 10
98.8322
 20
-65.7653
 30
0.0
 10
98.8322
 20
-68.4132
 30
0.0
 10
96.4165
 20
-71.9999
 30
0.0
 10
92.3737
 20
-73.4189
 30
0.0
 10
92.3737
 20
-73.4189
 30
0.0
 10
89.4481
 20
-74.4456
 30
0.0
 10
83.711
 20
-74.9844
 30
0.0
 10
77.2931
 20
-67.6767
 30
0.0
 10
77.2931
 20
-67.6767
 30
0.0
 10
74.2342
 20
-70.8933
 30
0.0
 10
70.7733
 20
-72.5949
 30
0.0
 10
66.9892
 20
-72.7396
 30
0.0
 10
66.9892
 20
-72.7396
 30
0.0
 10
59.4303
 20
-73.0297
 30
0.0
 10
53.42
 20
-66.9728
 30
0.0
 10
53.1685
 20
-66.7151
 30
0.0
 10
53.1685
 20
-66.7151
 30
0.0
 10
53.1685
 20
-66.7151
 30
0.0
 10
52.2718
 20
-65.7974
 30
0.0
 10
52.2718
 20
-65.7974
 30
0.0
 10
52.2718
 20
-65.7974
 30
0.0
 10
52.2718
 20
-65.7974
 30
0.0
 10
53.2119
 20
-64.9247
 30
0.0
 10
53.2119
 20
-64.9247
 30
0.0
 10
53.2119
 20
-64.9247
 30
0.0
 10
53.4937
 20
-64.6625
 30
0.0
 10
60.212
 20
-58.5131
 30
0.0
 10
67.9611
 20
-59.0842
 30
0.0
 10
67.9611
 20
-59.0842
 30
0.0
 10
71.4895
 20
-59.3447
 30
0.0
 10
74.6359
 20
-60.9487
 30
0.0
 10
77.3303
 20
-63.8581
 30
0.0
 10
77.3303
 20
-63.8581
 30
0.0
 10
83.9518
 20
-56.6348
 30
0.0
 10
89.713
 20
-57.2432
 30
0.0
 10
92.6328
 20
-58.3043
 30
0.0
 10
92.6328
 20
-58.3043
 30
0.0
 10
96.1667
 20
-59.5886
 30
0.0
 10
98.8322
 20
-62.7967
 30
0.0
 10
98.8322
 20
-65.7653
 30
0.0
  0
SPLINE
  5
57
330
1F
100
AcDbEntity
  8
#Layer 1
100
AcDbSpline
210
0.0
220
0.0
230
1.0
 70
    11
 71
     3
 72
    24
 73
    20
 74
     0
 42
0.0000000001
 43
0.0000000001
 40
0.0
 40
0.0
 40
0.0
 40
0.0
 40
0.1666666666666667
 40
0.1666666666666667
 40
0.1666666666666667
 40
0.1666666666666667
 40
0.3333333333333333
 40
0.3333333333333333
 40
0.3333333333333333
 40
0.3333333333333333
 40
0.5
 40
0.5
 40
0.5
 40
0.5
 40
0.6666666666666666
 40
0.6666666666666666
 40
0.6666666666666666
 40
0.6666666666666666
 40
1.0
 40
1.0
 40
1.0
 40
1.0
 10
78.9612
 20
-65.7832
 30
0.0
 10
78.9612
 20
-65.7832
 30
0.0
 10
78.9612
 20
-65.7832
 30
0.0
 10
78.9612
 20
-65.7832
 30
0.0
 10
78.9612
 20
-65.7832
 30
0.0
 10
84.5058
 20
-72.2407
 30
0.0
 10
89.1942
 20
-71.8842
 30
0.0
 10
91.5458
 20
-71.0587
 30
0.0
 10
91.5458
 20
-71.0587
 30
0.0
 10
94.4084
 20
-70.0545
 30
0.0
 10
96.3311
 20
-67.5106
 30
0.0
 10
96.3311
 20
-65.7653
 30
0.0
 10
96.3311
 20
-65.7653
 30
0.0
 10
96.3311
 20
-64.1031
 30
0.0
 10
94.5903
 20
-61.677
 30
0.0
 10
91.7787
 20
-60.6552
 30
0.0
 10
91.7787
 20
-60.6552
 30
0.0
 10
89.425
 20
-59.7995
 30
0.0
 10
84.7001
 20
-59.3843
 30
0.0
 10
78.9612
 20
-65.7832
 30
0.0
  0
SPLINE
  5
58
330
1F
100
AcDbEntity
  8
#Layer 1
100
AcDbSpline
210
0.0
220
0.0
230
1.0
 70
    11
 71
     3
 72
    24
 73
    20
 74
     0
 42
0.0000000001
 43
0.0000000001
 40
0.0
 40
0.0
 40
0.0
 40
0.0
 40
0.1666666666666667
 40
0.1666666666666667
 40
0.1666666666666667
 40
0.1666666666666667
 40
0.3333333333333333
 40
0.3333333333333333
 40
0.3333333333333333
 40
0.3333333333333333
 40
0.5
 40
0.5
 40
0.5
 40
0.5
 40
0.6666666666666666
 40
0.6666666666666666
 40
0.6666666666666666
 40
0.6666666666666666
 40
1.0
 40
1.0
 40
1.0
 40
1.0
 10
55.978
 20
-65.8807
 30
0.0
 10
55.978
 20
-65.8807
 30
0.0
 10
55.978
 20
-65.8807
 30
0.0
 10
55.978
 20
-65.8807
 30
0.0
 10
55.978
 20
-65.8807
 30
0.0
 10
57.8556
 20
-67.44
 30
0.0
 10
62.1078
 20
-70.4303
 30
0.0
 10
66.9072
 20
-70.2398
 30
0.0
 10
66.9072
 20
-70.2398
 30
0.0
 10
70.0832
 20
-70.1141
 30
0.0
 10
73.0274
 20
-68.6051
 30
0.0
 10
75.6708
 20
-65.7502
 30
0.0
 10
75.6708
 20
-65.7502
 30
0.0
 10
73.374
 20
-63.1984
 30
0.0
 10
70.722
 20
-61.7962
 30
0.0
 10
67.7771
 20
-61.5785
 30
0.0
 10
67.7771
 20
-61.5785
 30
0.0
 10
62.7448
 20
-61.2078
 30
0.0
 10
58.0226
 20
-64.3084
 30
0.0
 10
55.978
 20
-65.8807
 30
0.0
  0
SPLINE
  5
59
330
1F
100
AcDbEntity
  8
#Layer 1
100
AcDbSpline
210
0.0
220
0.0
230
1.0
 70
    11
 71
     3
 72
    52
 73
    48
 74
     0
 42
0.0000000001
 43
0.0000000001
 40
0.0
 40
0.0
 40
0.0
 40
0.0
 40
0.0769230769230769
 40
0.0769230769230769
 40
0.0769230769230769
 40
0.0769230769230769
 40
0.1538461538461539
 40
0.1538461538461539
 40
0.1538461538461539
 40
0.1538461538461539
 40
0.2307692307692308
 40
0.2307692307692308
 40
0.2307692307692308
 40
0.2307692307692308
 40
0.3076923076923077
 40
0.3076923076923077
 40
0.3076923076923077
 40
0.3076923076923077
 40
0.3846153846153846
 40
0.3846153846153846
 40
0.3846153846153846
 40
0.3846153846153846
 40
0.4615384615384616
 40
0.4615384615384616
 40
0.4615384615384616
 40
0.4615384615384616
 40
0.5384615384615384
 40
0.5384615384615384
 40
0.5384615384615384
 40
0.5384615384615384
 40
0.6153846153846154
 40
0.6153846153846154
 40
0.6153846153846154
 40
0.6153846153846154
 40
0.6923076923076923
 40
0.6923076923076923
 40
0.6923076923076923
 40
0.6923076923076923
 40
0.7692307692307693
 40
0.7692307692307693
 40
0.7692307692307693
 40
0.7692307692307693
 40
0.8461538461538461
 40
0.8461538461538461
 40
0.8461538461538461
 40
0.8461538461538461
 40
1.0
 40
1.0
 40
1.0
 40
1.0
 10
89.1584
 20
-64.327
 30
0.0
 10
85.292
 20
-61.3429
 30
0.0
 10
80.5322
 20
-58.7415
 30
0.0
 10
75.8183
 20
-58.9055
 30
0.0
 10
75.8183
 20
-58.9055
 30
0.0
 10
71.8668
 20
-59.0436
 30
0.0
 10
68.4647
 20
-61.1065
 30
0.0
 10
65.7059
 20
-65.0367
 30
0.0
 10
65.7059
 20
-65.0367
 30
0.0
 10
65.7059
 20
-65.0367
 30
0.0
 10
65.1412
 20
-65.8415
 30
0.0
 10
65.1412
 20
-65.8415
 30
0.0
 10
65.1412
 20
-65.8415
 30
0.0
 10
65.1412
 20
-65.8415
 30
0.0
 10
65.7059
 20
-66.6455
 30
0.0
 10
65.7059
 20
-66.6455
 30
0.0
 10
65.7059
 20
-66.6455
 30
0.0
 10
68.4647
 20
-70.5764
 30
0.0
 10
71.8668
 20
-72.6393
 30
0.0
 10
75.8183
 20
-72.7771
 30
0.0
 10
75.8183
 20
-72.7771
 30
0.0
 10
80.5322
 20
-72.9415
 30
0.0
 10
85.292
 20
-70.3401
 30
0.0
 10
89.1584
 20
-67.3559
 30
0.0
 10
89.1584
 20
-67.3559
 30
0.0
 10
93.237
 20
-70.7349
 30
0.0
 10
98.8432
 20
-77.5227
 30
0.0
 10
98.8966
 20
-77.5916
 30
0.0
 10
98.8966
 20
-77.5916
 30
0.0
 10
98.8966
 20
-77.5916
 30
0.0
 10
98.8966
 20
-74.1762
 30
0.0
 10
98.8966
 20
-74.1762
 30
0.0
 10
98.8966
 20
-74.1762
 30
0.0
 10
98.6782
 20
-73.8995
 30
0.0
 10
94.8269
 20
-69.1177
 30
0.0
 10
91.0156
 20
-65.8415
 30
0.0
 10
91.0156
 20
-65.8415
 30
0.0
 10
94.8269
 20
-62.5652
 30
0.0
 10
98.6782
 20
-57.7607
 30
0.0
 10
98.8966
 20
-57.4837
 30
0.0
 10
98.8966
 20
-57.4837
 30
0.0
 10
98.8966
 20
-57.4837
 30
0.0
 10
98.8966
 20
-54.0875
 30
0.0
 10
98.8966
 20
-54.0875
 30
0.0
 10
98.8966
 20
-54.0875
 30
0.0
 10
98.8432
 20
-54.1564
 30
0.0
 10
93.237
 20
-60.9474
 30
0.0
 10
89.1584
 20
-64.327
 30
0.0
  0
SPLINE
  5
5A
330
1F
100
AcDbEntity
  8
#Layer 1
100
AcDbSpline
210
0.0
220
0.0
230
1.0
 70
    11
 71
     3
 72
    24
 73
    20
 74
     0
 42
0.0000000001
 43
0.0000000001
 40
0.0
 40
0.0
 40
0.0
 40
0.0
 40
0.1666666666666667
 40
0.1666666666666667
 40
0.1666666666666667
 40
0.1666666666666667
 40
0.3333333333333333
 40
0.3333333333333333
 40
0.3333333333333333
 40
0.3333333333333333
 40
0.5
 40
0.5
 40
0.5
 40
0.5
 40
0.6666666666666666
 40
0.6666666666666666
 40
0.6666666666666666
 40
0.6666666666666666
 40
1.0
 40
1.0
 40
1.0
 40
1.0
 10
75.8744
 20
-70.2767
 30
0.0
 10
75.8744
 20
-70.2767
 30
0.0
 10
75.8744
 20
-70.2767
 30
0.0
 10
75.8744
 20
-70.2767
 30
0.0
 10
75.8744
 20
-70.2767
 30
0.0
 10
72.8186
 20
-70.1692
 30
0.0
 10
70.1401
 20
-68.675
 30
0.0
 10
67.8973
 20
-65.8415
 30
0.0
 10
67.8973
 20
-65.8415
 30
0.0
 10
70.1401
 20
-63.0075
 30
0.0
 10
72.8186
 20
-61.5137
 30
0.0
 10
75.8744
 20
-61.4062
 30
0.0
 10
75.8744
 20
-61.4062
 30
0.0
 10
79.7605
 20
-61.2691
 30
0.0
 10
83.7875
 20
-63.3265
 30
0.0
 10
87.2188
 20
-65.8415
 30
0.0
 10
87.2188
 20
-65.8415
 30
0.0
 10
83.7875
 20
-68.3557
 30
0.0
 10
79.7605
 20
-70.4138
 30
0.0
 10
75.8744
 20
-70.2767
 30
0.0
  0
SPLINE
  5
5B
330
1F
100
AcDbEntity
  8
#Layer 1
100
AcDbSpline
210
0.0
220
0.0
230
1.0
 70
    11
 71
     3
 72
    44
 73
    40
 74
     0
 42
0.0000000001
 43
0.0000000001
 40
0.0
 40
0.0
 40
0.0
 40
0.0
 40
0.0909090909090909
 40
0.0909090909090909
 40
0.0909090909090909
 40
0.0909090909090909
 40
0.1818181818181818
 40
0.1818181818181818
 40
0.1818181818181818
 40
0.1818181818181818
 40
0.2727272727272727
 40
0.2727272727272727
 40
0.2727272727272727
 40
0.2727272727272727
 40
0.3636363636363636
 40
0.3636363636363636
 40
0.3636363636363636
 40
0.3636363636363636
 40
0.4545454545454545
 40
0.4545454545454545
 40
0.4545454545454545
 40
0.4545454545454545
 40
0.5454545454545454
 40
0.5454545454545454
 40
0.5454545454545454
 40
0.5454545454545454
 40
0.6363636363636364
 40
0.6363636363636364
 40
0.6363636363636364
 40
0.6363636363636364
 40
0.7272727272727273
 40
0.7272727272727273
 40
0.7272727272727273
 40
0.7272727272727273
 40
0.8181818181818182
 40
0.8181818181818182
 40
0.8181818181818182
 40
0.8181818181818182
 40
1.0
 40
1.0
 40
1.0
 40
1.0
 10
67.9886
 20
-65.8849
 30
0.0
 10
67.9886
 20
-65.8849
 30
0.0
 10
67.0491
 20
-66.7582
 30
0.0
 10
67.0491
 20
-66.7582
 30
0.0
 10
67.0491
 20
-66.7582
 30
0.0
 10
66.7667
 20
-67.02
 30
0.0
 10
60.0484
 20
-73.1692
 30
0.0
 10
52.3
 20
-72.598
 30
0.0
 10
52.3
 20
-72.598
 30
0.0
 10
48.7715
 20
-72.3382
 30
0.0
 10
45.6251
 20
-70.7338
 30
0.0
 10
42.93
 20
-67.8245
 30
0.0
 10
42.93
 20
-67.8245
 30
0.0
 10
36.3092
 20
-75.0481
 30
0.0
 10
30.5477
 20
-74.439
 30
0.0
 10
27.6276
 20
-73.3783
 30
0.0
 10
27.6276
 20
-73.3783
 30
0.0
 10
24.0936
 20
-72.0936
 30
0.0
 10
21.4289
 20
-68.8862
 30
0.0
 10
21.4289
 20
-65.9173
 30
0.0
 10
21.4289
 20
-65.9173
 30
0.0
 10
21.4289
 20
-63.2694
 30
0.0
 10
23.8442
 20
-59.6827
 30
0.0
 10
27.8867
 20
-58.264
 30
0.0
 10
27.8867
 20
-58.264
 30
0.0
 10
30.8126
 20
-57.2366
 30
0.0
 10
36.55
 20
-56.6985
 30
0.0
 10
42.9672
 20
-64.0059
 30
0.0
 10
42.9672
 20
-64.0059
 30
0.0
 10
46.0261
 20
-60.7896
 30
0.0
 10
49.4878
 20
-59.0881
 30
0.0
 10
53.2718
 20
-58.9426
 30
0.0
 10
53.2718
 20
-58.9426
 30
0.0
 10
60.8311
 20
-58.6529
 30
0.0
 10
66.8404
 20
-64.7094
 30
0.0
 10
67.0925
 20
-64.9671
 30
0.0
 10
67.0925
 20
-64.9671
 30
0.0
 10
67.0925
 20
-64.9671
 30
0.0
 10
67.9886
 20
-65.8849
 30
0.0
 10
67.9886
 20
-65.8849
 30
0.0
  0
SPLINE
  5
5C
330
1F
100
AcDbEntity
  8
#Layer 1
100
AcDbSpline
210
0.0
220
0.0
230
1.0
 70
    11
 71
     3
 72
    24
 73
    20
 74
     0
 42
0.0000000001
 43
0.0000000001
 40
0.0
 40
0.0
 40
0.0
 40
0.0
 40
0.1666666666666667
 40
0.1666666666666667
 40
0.1666666666666667
 40
0.1666666666666667
 40
0.3333333333333333
 40
0.3333333333333333
 40
0.3333333333333333
 40
0.3333333333333333
 40
0.5
 40
0.5
 40
0.5
 40
0.5
 40
0.6666666666666666
 40
0.6666666666666666
 40
0.6666666666666666
 40
0.6666666666666666
 40
1.0
 40
1.0
 40
1.0
 40
1.0
 10
44.5899
 20
-65.9324
 30
0.0
 10
44.5899
 20
-65.9324
 30
0.0
 10
44.5899
 20
-65.9324
 30
0.0
 10
44.5899
 20
-65.9324
 30
0.0
 10
44.5899
 20
-65.9324
 30
0.0
 10
46.8874
 20
-68.4845
 30
0.0
 10
49.5387
 20
-69.8867
 30
0.0
 10
52.4839
 20
-70.1037
 30
0.0
 10
52.4839
 20
-70.1037
 30
0.0
 10
57.5162
 20
-70.4748
 30
0.0
 10
62.2377
 20
-67.3745
 30
0.0
 10
64.2831
 20
-65.8022
 30
0.0
 10
64.2831
 20
-65.8022
 30
0.0
 10
62.4041
 20
-64.2422
 30
0.0
 10
58.1525
 20
-61.2519
 30
0.0
 10
53.3532
 20
-61.4428
 30
0.0
 10
53.3532
 20
-61.4428
 30
0.0
 10
50.1778
 20
-61.5689
 30
0.0
 10
47.233
 20
-63.0778
 30
0.0
 10
44.5899
 20
-65.9324
 30
0.0
  0
SPLINE
  5
5D
330
1F
100
AcDbEntity
  8
#Layer 1
100
AcDbSpline
210
0.0
220
0.0
230
1.0
 70
    11
 71
     3
 72
    24
 73
    20
 74
     0
 42
0.0000000001
 43
0.0000000001
 40
0.0
 40
0.0
 40
0.0
 40
0.0
 40
0.1666666666666667
 40
0.1666666666666667
 40
0.1666666666666667
 40
0.1666666666666667
 40
0.3333333333333333
 40
0.3333333333333333
 40
0.3333333333333333
 40
0.3333333333333333
 40
0.5
 40
0.5
 40
0.5
 40
0.5
 40
0.6666666666666666
 40
0.6666666666666666
 40
0.6666666666666666
 40
0.6666666666666666
 40
1.0
 40
1.0
 40
1.0
 40
1.0
 10
23.93
 20
-65.9173
 30
0.0
 10
23.93
 20
-65.9173
 30
0.0
 10
23.93
 20
-65.9173
 30
0.0
 10
23.93
 20
-65.9173
 30
0.0
 10
23.93
 20
-65.9173
 30
0.0
 10
23.93
 20
-67.5792
 30
0.0
 10
25.6701
 20
-70.0059
 30
0.0
 10
28.482
 20
-71.0274
 30
0.0
 10
28.482
 20
-71.0274
 30
0.0
 10
30.8353
 20
-71.8835
 30
0.0
 10
35.5606
 20
-72.2986
 30
0.0
 10
41.2991
 20
-65.8997
 30
0.0
 10
41.2991
 20
-65.8997
 30
0.0
 10
35.7549
 20
-59.4419
 30
0.0
 10
31.0661
 20
-59.7981
 30
0.0
 10
28.7152
 20
-60.6235
 30
0.0
 10
28.7152
 20
-60.6235
 30
0.0
 10
25.8527
 20
-61.6281
 30
0.0
 10
23.93
 20
-64.172
 30
0.0
 10
23.93
 20
-65.9173
 30
0.0
  0
SPLINE
  5
5E
330
1F
100
AcDbEntity
  8
#Layer 1
100
AcDbSpline
210
0.0
220
0.0
230
1.0
 70
    11
 71
     3
 72
    52
 73
    48
 74
     0
 42
0.0000000001
 43
0.0000000001
 40
0.0
 40
0.0
 40
0.0
 40
0.0
 40
0.0769230769230769
 40
0.0769230769230769
 40
0.0769230769230769
 40
0.0769230769230769
 40
0.1538461538461539
 40
0.1538461538461539
 40
0.1538461538461539
 40
0.1538461538461539
 40
0.2307692307692308
 40
0.2307692307692308
 40
0.2307692307692308
 40
0.2307692307692308
 40
0.3076923076923077
 40
0.3076923076923077
 40
0.3076923076923077
 40
0.3076923076923077
 40
0.3846153846153846
 40
0.3846153846153846
 40
0.3846153846153846
 40
0.3846153846153846
 40
0.4615384615384616
 40
0.4615384615384616
 40
0.4615384615384616
 40
0.4615384615384616
 40
0.5384615384615384
 40
0.5384615384615384
 40
0.5384615384615384
 40
0.5384615384615384
 40
0.6153846153846154
 40
0.6153846153846154
 40
0.6153846153846154
 40
0.6153846153846154
 40
0.6923076923076923
 40
0.6923076923076923
 40
0.6923076923076923
 40
0.6923076923076923
 40
0.7692307692307693
 40
0.7692307692307693
 40
0.7692307692307693
 40
0.7692307692307693
 40
0.8461538461538461
 40
0.8461538461538461
 40
0.8461538461538461
 40
0.8461538461538461
 40
1.0
 40
1.0
 40
1.0
 40
1.0
 10
31.1647
 20
-67.3559
 30
0.0
 10
35.0321
 20
-70.3401
 30
0.0
 10
39.7905
 20
-72.9415
 30
0.0
 10
44.5051
 20
-72.7771
 30
0.0
 10
44.5051
 20
-72.7771
 30
0.0
 10
48.4563
 20
-72.6393
 30
0.0
 10
51.8583
 20
-70.5764
 30
0.0
 10
54.6165
 20
-66.6455
 30
0.0
 10
54.6165
 20
-66.6455
 30
0.0
 10
54.6165
 20
-66.6455
 30
0.0
 10
55.1822
 20
-65.8415
 30
0.0
 10
55.1822
 20
-65.8415
 30
0.0
 10
55.1822
 20
-65.8415
 30
0.0
 10
55.1822
 20
-65.8415
 30
0.0
 10
54.6165
 20
-65.0367
 30
0.0
 10
54.6165
 20
-65.0367
 30
0.0
 10
54.6165
 20
-65.0367
 30
0.0
 10
51.8583
 20
-61.1065
 30
0.0
 10
48.4563
 20
-59.0436
 30
0.0
 10
44.5051
 20
-58.9055
 30
0.0
 10
44.5051
 20
-58.9055
 30
0.0
 10
39.7905
 20
-58.7415
 30
0.0
 10
35.0321
 20
-61.3429
 30
0.0
 10
31.1647
 20
-64.327
 30
0.0
 10
31.1647
 20
-64.327
 30
0.0
 10
27.0871
 20
-60.9474
 30
0.0
 10
21.4833
 20
-54.1564
 30
0.0
 10
21.4289
 20
-54.0875
 30
0.0
 10
21.4289
 20
-54.0875
 30
0.0
 10
21.4289
 20
-54.0875
 30
0.0
 10
21.4289
 20
-57.4837
 30
0.0
 10
21.4289
 20
-57.4837
 30
0.0
 10
21.4289
 20
-57.4837
 30
0.0
 10
21.6466
 20
-57.7607
 30
0.0
 10
25.4964
 20
-62.5652
 30
0.0
 10
29.3078
 20
-65.8415
 30
0.0
 10
29.3078
 20
-65.8415
 30
0.0
 10
25.4964
 20
-69.1177
 30
0.0
 10
21.6466
 20
-73.8995
 30
0.0
 10
21.4289
 20
-74.1762
 30
0.0
 10
21.4289
 20
-74.1762
 30
0.0
 10
21.4289
 20
-74.1762
 30
0.0
 10
21.4289
 20
-77.5916
 30
0.0
 10
21.4289
 20
-77.5916
 30
0.0
 10
21.4289
 20
-77.5916
 30
0.0
 10
21.4833
 20
-77.5227
 30
0.0
 10
27.0871
 20
-70.7349
 30
0.0
 10
31.1647
 20
-67.3559
 30
0.0
  0
SPLINE
  5
5F
330
1F
100
AcDbEntity
  8
#Layer 1
100
AcDbSpline
210
0.0
220
0.0
230
1.0
 70
    11
 71
     3
 72
    24
 73
    20
 74
     0
 42
0.0000000001
 43
0.0000000001
 40
0.0
 40
0.0
 40
0.0
 40
0.0
 40
0.1666666666666667
 40
0.1666666666666667
 40
0.1666666666666667
 40
0.1666666666666667
 40
0.3333333333333333
 40
0.3333333333333333
 40
0.3333333333333333
 40
0.3333333333333333
 40
0.5
 40
0.5
 40
0.5
 40
0.5
 40
0.6666666666666666
 40
0.6666666666666666
 40
0.6666666666666666
 40
0.6666666666666666
 40
1.0
 40
1.0
 40
1.0
 40
1.0
 10
44.449
 20
-61.4062
 30
0.0
 10
44.449
 20
-61.4062
 30
0.0
 10
44.449
 20
-61.4062
 30
0.0
 10
44.449
 20
-61.4062
 30
0.0
 10
44.449
 20
-61.4062
 30
0.0
 10
47.5048
 20
-61.5137
 30
0.0
 10
50.183
 20
-63.0075
 30
0.0
 10
52.4264
 20
-65.8415
 30
0.0
 10
52.4264
 20
-65.8415
 30
0.0
 10
50.183
 20
-68.675
 30
0.0
 10
47.5048
 20
-70.1692
 30
0.0
 10
44.449
 20
-70.2767
 30
0.0
 10
44.449
 20
-70.2767
 30
0.0
 10
40.5629
 20
-70.4138
 30
0.0
 10
36.5349
 20
-68.3557
 30
0.0
 10
33.1039
 20
-65.8415
 30
0.0
 10
33.1039
 20
-65.8415
 30
0.0
 10
36.5349
 20
-63.3265
 30
0.0
 10
40.5629
 20
-61.2691
 30
0.0
 10
44.449
 20
-61.4062
 30
0.0
  0
SPLINE
  5
60
330
1F
100
AcDbEntity
  8
#Layer 1
100
AcDbSpline
210
0.0
220
0.0
230
1.0
 70
    11
 71
     3
 72
    44
 73
    40
 74
     0
 42
0.0000000001
 43
0.0000000001
 40
0.0
 40
0.0
 40
0.0
 40
0.0
 40
0.0909090909090909
 40
0.0909090909090909
 40
0.0909090909090909
 40
0.0909090909090909
 40
0.1818181818181818
 40
0.1818181818181818
 40
0.1818181818181818
 40
0.1818181818181818
 40
0.2727272727272727
 40
0.2727272727272727
 40
0.2727272727272727
 40
0.2727272727272727
 40
0.3636363636363636
 40
0.3636363636363636
 40
0.3636363636363636
 40
0.3636363636363636
 40
0.4545454545454545
 40
0.4545454545454545
 40
0.4545454545454545
 40
0.4545454545454545
 40
0.5454545454545454
 40
0.5454545454545454
 40
0.5454545454545454
 40
0.5454545454545454
 40
0.6363636363636364
 40
0.6363636363636364
 40
0.6363636363636364
 40
0.6363636363636364
 40
0.7272727272727273
 40
0.7272727272727273
 40
0.7272727272727273
 40
0.7272727272727273
 40
0.8181818181818182
 40
0.8181818181818182
 40
0.8181818181818182
 40
0.8181818181818182
 40
1.0
 40
1.0
 40
1.0
 40
1.0
 10
-56.0386
 20
-65.7653
 30
0.0
 10
-56.0386
 20
-68.4132
 30
0.0
 10
-58.4546
 20
-71.9999
 30
0.0
 10
-62.4971
 20
-73.4189
 30
0.0
 10
-62.4971
 20
-73.4189
 30
0.0
 10
-65.4234
 20
-74.4456
 30
0.0
 10
-71.1602
 20
-74.9844
 30
0.0
 10
-77.5777
 20
-67.6767
 30
0.0
 10
-77.5777
 20
-67.6767
 30
0.0
 10
-80.6369
 20
-70.8933
 30
0.0
 10
-84.0979
 20
-72.5949
 30
0.0
 10
-87.882
 20
-72.7396
 30
0.0
 10
-87.882
 20
-72.7396
 30
0.0
 10
-95.4409
 20
-73.0297
 30
0.0
 10
-101.4508
 20
-66.9728
 30
0.0
 10
-101.7023
 20
-66.7151
 30
0.0
 10
-101.7023
 20
-66.7151
 30
0.0
 10
-101.7023
 20
-66.7151
 30
0.0
 10
-102.5994
 20
-65.7974
 30
0.0
 10
-102.5994
 20
-65.7974
 30
0.0
 10
-102.5994
 20
-65.7974
 30
0.0
 10
-102.5994
 20
-65.7974
 30
0.0
 10
-101.6593
 20
-64.9247
 30
0.0
 10
-101.6593
 20
-64.9247
 30
0.0
 10
-101.6593
 20
-64.9247
 30
0.0
 10
-101.3771
 20
-64.6625
 30
0.0
 10
-94.6592
 20
-58.5131
 30
0.0
 10
-86.9101
 20
-59.0842
 30
0.0
 10
-86.9101
 20
-59.0842
 30
0.0
 10
-83.3816
 20
-59.3447
 30
0.0
 10
-80.2352
 20
-60.9487
 30
0.0
 10
-77.5405
 20
-63.8581
 30
0.0
 10
-77.5405
 20
-63.8581
 30
0.0
 10
-70.919
 20
-56.6348
 30
0.0
 10
-65.1581
 20
-57.2432
 30
0.0
 10
-62.2381
 20
-58.3043
 30
0.0
 10
-62.2381
 20
-58.3043
 30
0.0
 10
-58.7041
 20
-59.5886
 30
0.0
 10
-56.0386
 20
-62.7967
 30
0.0
 10
-56.0386
 20
-65.7653
 30
0.0
  0
SPLINE
  5
61
330
1F
100
AcDbEntity
  8
#Layer 1
100
AcDbSpline
210
0.0
220
0.0
230
1.0
 70
    11
 71
     3
 72
    24
 73
    20
 74
     0
 42
0.0000000001
 43
0.0000000001
 40
0.0
 40
0.0
 40
0.0
 40
0.0
 40
0.1666666666666667
 40
0.1666666666666667
 40
0.1666666666666667
 40
0.1666666666666667
 40
0.3333333333333333
 40
0.3333333333333333
 40
0.3333333333333333
 40
0.3333333333333333
 40
0.5
 40
0.5
 40
0.5
 40
0.5
 40
0.6666666666666666
 40
0.6666666666666666
 40
0.6666666666666666
 40
0.6666666666666666
 40
1.0
 40
1.0
 40
1.0
 40
1.0
 10
-75.9099
 20
-65.7832
 30
0.0
 10
-75.9099
 20
-65.7832
 30
0.0
 10
-75.9099
 20
-65.7832
 30
0.0
 10
-75.9099
 20
-65.7832
 30
0.0
 10
-75.9099
 20
-65.7832
 30
0.0
 10
-70.365
 20
-72.2407
 30
0.0
 10
-65.677
 20
-71.8842
 30
0.0
 10
-63.3253
 20
-71.0587
 30
0.0
 10
-63.3253
 20
-71.0587
 30
0.0
 10
-60.4628
 20
-70.0545
 30
0.0
 10
-58.5398
 20
-67.5106
 30
0.0
 10
-58.5398
 20
-65.7653
 30
0.0
 10
-58.5398
 20
-65.7653
 30
0.0
 10
-58.5398
 20
-64.1031
 30
0.0
 10
-60.2809
 20
-61.677
 30
0.0
 10
-63.0924
 20
-60.6552
 30
0.0
 10
-63.0924
 20
-60.6552
 30
0.0
 10
-65.4461
 20
-59.7995
 30
0.0
 10
-70.1711
 20
-59.3843
 30
0.0
 10
-75.9099
 20
-65.7832
 30
0.0
  0
SPLINE
  5
62
330
1F
100
AcDbEntity
  8
#Layer 1
100
AcDbSpline
210
0.0
220
0.0
230
1.0
 70
    11
 71
     3
 72
    24
 73
    20
 74
     0
 42
0.0000000001
 43
0.0000000001
 40
0.0
 40
0.0
 40
0.0
 40
0.0
 40
0.1666666666666667
 40
0.1666666666666667
 40
0.1666666666666667
 40
0.1666666666666667
 40
0.3333333333333333
 40
0.3333333333333333
 40
0.3333333333333333
 40
0.3333333333333333
 40
0.5
 40
0.5
 40
0.5
 40
0.5
 40
0.6666666666666666
 40
0.6666666666666666
 40
0.6666666666666666
 40
0.6666666666666666
 40
1.0
 40
1.0
 40
1.0
 40
1.0
 10
-98.8932
 20
-65.8807
 30
0.0
 10
-98.8932
 20
-65.8807
 30
0.0
 10
-98.8932
 20
-65.8807
 30
0.0
 10
-98.8932
 20
-65.8807
 30
0.0
 10
-98.8932
 20
-65.8807
 30
0.0
 10
-97.0156
 20
-67.44
 30
0.0
 10
-92.763
 20
-70.4303
 30
0.0
 10
-87.964
 20
-70.2398
 30
0.0
 10
-87.964
 20
-70.2398
 30
0.0
 10
-84.7876
 20
-70.1141
 30
0.0
 10
-81.8434
 20
-68.6051
 30
0.0
 10
-79.2003
 20
-65.7502
 30
0.0
 10
-79.2003
 20
-65.7502
 30
0.0
 10
-81.4975
 20
-63.1984
 30
0.0
 10
-84.1492
 20
-61.7962
 30
0.0
 10
-87.0941
 20
-61.5785
 30
0.0
 10
-87.0941
 20
-61.5785
 30
0.0
 10
-92.1263
 20
-61.2078
 30
0.0
 10
-96.8482
 20
-64.3084
 30
0.0
 10
-98.8932
 20
-65.8807
 30
0.0
  0
SPLINE
  5
63
330
1F
100
AcDbEntity
  8
#Layer 1
100
AcDbSpline
210
0.0
220
0.0
230
1.0
 70
    11
 71
     3
 72
    52
 73
    48
 74
     0
 42
0.0000000001
 43
0.0000000001
 40
0.0
 40
0.0
 40
0.0
 40
0.0
 40
0.0769230769230769
 40
0.0769230769230769
 40
0.0769230769230769
 40
0.0769230769230769
 40
0.1538461538461539
 40
0.1538461538461539
 40
0.1538461538461539
 40
0.1538461538461539
 40
0.2307692307692308
 40
0.2307692307692308
 40
0.2307692307692308
 40
0.2307692307692308
 40
0.3076923076923077
 40
0.3076923076923077
 40
0.3076923076923077
 40
0.3076923076923077
 40
0.3846153846153846
 40
0.3846153846153846
 40
0.3846153846153846
 40
0.3846153846153846
 40
0.4615384615384616
 40
0.4615384615384616
 40
0.4615384615384616
 40
0.4615384615384616
 40
0.5384615384615384
 40
0.5384615384615384
 40
0.5384615384615384
 40
0.5384615384615384
 40
0.6153846153846154
 40
0.6153846153846154
 40
0.6153846153846154
 40
0.6153846153846154
 40
0.6923076923076923
 40
0.6923076923076923
 40
0.6923076923076923
 40
0.6923076923076923
 40
0.7692307692307693
 40
0.7692307692307693
 40
0.7692307692307693
 40
0.7692307692307693
 40
0.8461538461538461
 40
0.8461538461538461
 40
0.8461538461538461
 40
0.8461538461538461
 40
1.0
 40
1.0
 40
1.0
 40
1.0
 10
-65.7128
 20
-64.327
 30
0.0
 10
-69.5796
 20
-61.3429
 30
0.0
 10
-74.3386
 20
-58.7415
 30
0.0
 10
-79.0529
 20
-58.9055
 30
0.0
 10
-79.0529
 20
-58.9055
 30
0.0
 10
-83.0044
 20
-59.0436
 30
0.0
 10
-86.4061
 20
-61.1065
 30
0.0
 10
-89.1649
 20
-65.0367
 30
0.0
 10
-89.1649
 20
-65.0367
 30
0.0
 10
-89.1649
 20
-65.0367
 30
0.0
 10
-89.7299
 20
-65.8415
 30
0.0
 10
-89.7299
 20
-65.8415
 30
0.0
 10
-89.7299
 20
-65.8415
 30
0.0
 10
-89.7299
 20
-65.8415
 30
0.0
 10
-89.1649
 20
-66.6455
 30
0.0
 10
-89.1649
 20
-66.6455
 30
0.0
 10
-89.1649
 20
-66.6455
 30
0.0
 10
-86.4061
 20
-70.5764
 30
0.0
 10
-83.0044
 20
-72.6393
 30
0.0
 10
-79.0529
 20
-72.7771
 30
0.0
 10
-79.0529
 20
-72.7771
 30
0.0
 10
-74.3386
 20
-72.9415
 30
0.0
 10
-69.5796
 20
-70.3401
 30
0.0
 10
-65.7128
 20
-67.3559
 30
0.0
 10
-65.7128
 20
-67.3559
 30
0.0
 10
-61.6345
 20
-70.7349
 30
0.0
 10
-56.0279
 20
-77.5227
 30
0.0
 10
-55.9745
 20
-77.5916
 30
0.0
 10
-55.9745
 20
-77.5916
 30
0.0
 10
-55.9745
 20
-77.5916
 30
0.0
 10
-55.9745
 20
-74.1762
 30
0.0
 10
-55.9745
 20
-74.1762
 30
0.0
 10
-55.9745
 20
-74.1762
 30
0.0
 10
-56.1929
 20
-73.8995
 30
0.0
 10
-60.0442
 20
-69.1177
 30
0.0
 10
-63.8552
 20
-65.8415
 30
0.0
 10
-63.8552
 20
-65.8415
 30
0.0
 10
-60.0442
 20
-62.5652
 30
0.0
 10
-56.1929
 20
-57.7607
 30
0.0
 10
-55.9745
 20
-57.4837
 30
0.0
 10
-55.9745
 20
-57.4837
 30
0.0
 10
-55.9745
 20
-57.4837
 30
0.0
 10
-55.9745
 20
-54.0875
 30
0.0
 10
-55.9745
 20
-54.0875
 30
0.0
 10
-55.9745
 20
-54.0875
 30
0.0
 10
-56.0279
 20
-54.1564
 30
0.0
 10
-61.6345
 20
-60.9474
 30
0.0
 10
-65.7128
 20
-64.327
 30
0.0
  0
SPLINE
  5
64
330
1F
100
AcDbEntity
  8
#Layer 1
100
AcDbSpline
210
0.0
220
0.0
230
1.0
 70
    11
 71
     3
 72
    24
 73
    20
 74
     0
 42
0.0000000001
 43
0.0000000001
 40
0.0
 40
0.0
 40
0.0
 40
0.0
 40
0.1666666666666667
 40
0.1666666666666667
 40
0.1666666666666667
 40
0.1666666666666667
 40
0.3333333333333333
 40
0.3333333333333333
 40
0.3333333333333333
 40
0.3333333333333333
 40
0.5
 40
0.5
 40
0.5
 40
0.5
 40
0.6666666666666666
 40
0.6666666666666666
 40
0.6666666666666666
 40
0.6666666666666666
 40
1.0
 40
1.0
 40
1.0
 40
1.0
 10
-78.9967
 20
-70.2767
 30
0.0
 10
-78.9967
 20
-70.2767
 30
0.0
 10
-78.9967
 20
-70.2767
 30
0.0
 10
-78.9967
 20
-70.2767
 30
0.0
 10
-78.9967
 20
-70.2767
 30
0.0
 10
-82.0525
 20
-70.1692
 30
0.0
 10
-84.7311
 20
-68.675
 30
0.0
 10
-86.9738
 20
-65.8415
 30
0.0
 10
-86.9738
 20
-65.8415
 30
0.0
 10
-84.7311
 20
-63.0075
 30
0.0
 10
-82.0525
 20
-61.5137
 30
0.0
 10
-78.9967
 20
-61.4062
 30
0.0
 10
-78.9967
 20
-61.4062
 30
0.0
 10
-75.1103
 20
-61.2691
 30
0.0
 10
-71.0837
 20
-63.3265
 30
0.0
 10
-67.6524
 20
-65.8415
 30
0.0
 10
-67.6524
 20
-65.8415
 30
0.0
 10
-71.0837
 20
-68.3557
 30
0.0
 10
-75.1103
 20
-70.4138
 30
0.0
 10
-78.9967
 20
-70.2767
 30
0.0
  0
SPLINE
  5
65
330
1F
100
AcDbEntity
  8
#Layer 1
100
AcDbSpline
210
0.0
220
0.0
230
1.0
 70
    11
 71
     3
 72
    44
 73
    40
 74
     0
 42
0.0000000001
 43
0.0000000001
 40
0.0
 40
0.0
 40
0.0
 40
0.0
 40
0.0909090909090909
 40
0.0909090909090909
 40
0.0909090909090909
 40
0.0909090909090909
 40
0.1818181818181818
 40
0.1818181818181818
 40
0.1818181818181818
 40
0.1818181818181818
 40
0.2727272727272727
 40
0.2727272727272727
 40
0.2727272727272727
 40
0.2727272727272727
 40
0.3636363636363636
 40
0.3636363636363636
 40
0.3636363636363636
 40
0.3636363636363636
 40
0.4545454545454545
 40
0.4545454545454545
 40
0.4545454545454545
 40
0.4545454545454545
 40
0.5454545454545454
 40
0.5454545454545454
 40
0.5454545454545454
 40
0.5454545454545454
 40
0.6363636363636364
 40
0.6363636363636364
 40
0.6363636363636364
 40
0.6363636363636364
 40
0.7272727272727273
 40
0.7272727272727273
 40
0.7272727272727273
 40
0.7272727272727273
 40
0.8181818181818182
 40
0.8181818181818182
 40
0.8181818181818182
 40
0.8181818181818182
 40
1.0
 40
1.0
 40
1.0
 40
1.0
 10
-86.8822
 20
-65.8849
 30
0.0
 10
-86.8822
 20
-65.8849
 30
0.0
 10
-87.822
 20
-66.7582
 30
0.0
 10
-87.822
 20
-66.7582
 30
0.0
 10
-87.822
 20
-66.7582
 30
0.0
 10
-88.1045
 20
-67.02
 30
0.0
 10
-94.8225
 20
-73.1692
 30
0.0
 10
-102.5712
 20
-72.598
 30
0.0
 10
-102.5712
 20
-72.598
 30
0.0
 10
-106.0996
 20
-72.3382
 30
0.0
 10
-109.2457
 20
-70.7338
 30
0.0
 10
-111.9412
 20
-67.8245
 30
0.0
 10
-111.9412
 20
-67.8245
 30
0.0
 10
-118.5619
 20
-75.0481
 30
0.0
 10
-124.3235
 20
-74.439
 30
0.0
 10
-127.2436
 20
-73.3783
 30
0.0
 10
-127.2436
 20
-73.3783
 30
0.0
 10
-130.7775
 20
-72.0936
 30
0.0
 10
-133.4423
 20
-68.8862
 30
0.0
 10
-133.4423
 20
-65.9173
 30
0.0
 10
-133.4423
 20
-65.9173
 30
0.0
 10
-133.4423
 20
-63.2694
 30
0.0
 10
-131.027
 20
-59.6827
 30
0.0
 10
-126.9845
 20
-58.264
 30
0.0
 10
-126.9845
 20
-58.264
 30
0.0
 10
-124.0586
 20
-57.2366
 30
0.0
 10
-118.3211
 20
-56.6985
 30
0.0
 10
-111.9039
 20
-64.0059
 30
0.0
 10
-111.9039
 20
-64.0059
 30
0.0
 10
-108.8447
 20
-60.7896
 30
0.0
 10
-105.383
 20
-59.0881
 30
0.0
 10
-101.599
 20
-58.9426
 30
0.0
 10
-101.599
 20
-58.9426
 30
0.0
 10
-94.0404
 20
-58.6529
 30
0.0
 10
-88.0308
 20
-64.7094
 30
0.0
 10
-87.7786
 20
-64.9671
 30
0.0
 10
-87.7786
 20
-64.9671
 30
0.0
 10
-87.7786
 20
-64.9671
 30
0.0
 10
-86.8822
 20
-65.8849
 30
0.0
 10
-86.8822
 20
-65.8849
 30
0.0
  0
SPLINE
  5
66
330
1F
100
AcDbEntity
  8
#Layer 1
100
AcDbSpline
210
0.0
220
0.0
230
1.0
 70
    11
 71
     3
 72
    24
 73
    20
 74
     0
 42
0.0000000001
 43
0.0000000001
 40
0.0
 40
0.0
 40
0.0
 40
0.0
 40
0.1666666666666667
 40
0.1666666666666667
 40
0.1666666666666667
 40
0.1666666666666667
 40
0.3333333333333333
 40
0.3333333333333333
 40
0.3333333333333333
 40
0.3333333333333333
 40
0.5
 40
0.5
 40
0.5
 40
0.5
 40
0.6666666666666666
 40
0.6666666666666666
 40
0.6666666666666666
 40
0.6666666666666666
 40
1.0
 40
1.0
 40
1.0
 40
1.0
 10
-110.2813
 20
-65.9324
 30
0.0
 10
-110.2813
 20
-65.9324
 30
0.0
 10
-110.2813
 20
-65.9324
 30
0.0
 10
-110.2813
 20
-65.9324
 30
0.0
 10
-110.2813
 20
-65.9324
 30
0.0
 10
-107.9838
 20
-68.4845
 30
0.0
 10
-105.3328
 20
-69.8867
 30
0.0
 10
-102.3872
 20
-70.1037
 30
0.0
 10
-102.3872
 20
-70.1037
 30
0.0
 10
-97.355
 20
-70.4748
 30
0.0
 10
-92.6334
 20
-67.3745
 30
0.0
 10
-90.5881
 20
-65.8022
 30
0.0
 10
-90.5881
 20
-65.8022
 30
0.0
 10
-92.467
 20
-64.2422
 30
0.0
 10
-96.7186
 20
-61.2519
 30
0.0
 10
-101.5177
 20
-61.4428
 30
0.0
 10
-101.5177
 20
-61.4428
 30
0.0
 10
-104.6934
 20
-61.5689
 30
0.0
 10
-107.6382
 20
-63.0778
 30
0.0
 10
-110.2813
 20
-65.9324
 30
0.0
  0
SPLINE
  5
67
330
1F
100
AcDbEntity
  8
#Layer 1
100
AcDbSpline
210
0.0
220
0.0
230
1.0
 70
    11
 71
     3
 72
    24
 73
    20
 74
     0
 42
0.0000000001
 43
0.0000000001
 40
0.0
 40
0.0
 40
0.0
 40
0.0
 40
0.1666666666666667
 40
0.1666666666666667
 40
0.1666666666666667
 40
0.1666666666666667
 40
0.3333333333333333
 40
0.3333333333333333
 40
0.3333333333333333
 40
0.3333333333333333
 40
0.5
 40
0.5
 40
0.5
 40
0.5
 40
0.6666666666666666
 40
0.6666666666666666
 40
0.6666666666666666
 40
0.6666666666666666
 40
1.0
 40
1.0
 40
1.0
 40
1.0
 10
-130.9412
 20
-65.9173
 30
0.0
 10
-130.9412
 20
-65.9173
 30
0.0
 10
-130.9412
 20
-65.9173
 30
0.0
 10
-130.9412
 20
-65.9173
 30
0.0
 10
-130.9412
 20
-65.9173
 30
0.0
 10
-130.9412
 20
-67.5792
 30
0.0
 10
-129.2011
 20
-70.0059
 30
0.0
 10
-126.3892
 20
-71.0274
 30
0.0
 10
-126.3892
 20
-71.0274
 30
0.0
 10
-124.0355
 20
-71.8835
 30
0.0
 10
-119.3109
 20
-72.2986
 30
0.0
 10
-113.572
 20
-65.8997
 30
0.0
 10
-113.572
 20
-65.8997
 30
0.0
 10
-119.1162
 20
-59.4419
 30
0.0
 10
-123.805
 20
-59.7981
 30
0.0
 10
-126.1559
 20
-60.6235
 30
0.0
 10
-126.1559
 20
-60.6235
 30
0.0
 10
-129.0185
 20
-61.6281
 30
0.0
 10
-130.9412
 20
-64.172
 30
0.0
 10
-130.9412
 20
-65.9173
 30
0.0
  0
SPLINE
  5
68
330
1F
100
AcDbEntity
  8
#Layer 1
100
AcDbSpline
210
0.0
220
0.0
230
1.0
 70
    11
 71
     3
 72
    52
 73
    48
 74
     0
 42
0.0000000001
 43
0.0000000001
 40
0.0
 40
0.0
 40
0.0
 40
0.0
 40
0.0769230769230769
 40
0.0769230769230769
 40
0.0769230769230769
 40
0.0769230769230769
 40
0.1538461538461539
 40
0.1538461538461539
 40
0.1538461538461539
 40
0.1538461538461539
 40
0.2307692307692308
 40
0.2307692307692308
 40
0.2307692307692308
 40
0.2307692307692308
 40
0.3076923076923077
 40
0.3076923076923077
 40
0.3076923076923077
 40
0.3076923076923077
 40
0.3846153846153846
 40
0.3846153846153846
 40
0.3846153846153846
 40
0.3846153846153846
 40
0.4615384615384616
 40
0.4615384615384616
 40
0.4615384615384616
 40
0.4615384615384616
 40
0.5384615384615384
 40
0.5384615384615384
 40
0.5384615384615384
 40
0.5384615384615384
 40
0.6153846153846154
 40
0.6153846153846154
 40
0.6153846153846154
 40
0.6153846153846154
 40
0.6923076923076923
 40
0.6923076923076923
 40
0.6923076923076923
 40
0.6923076923076923
 40
0.7692307692307693
 40
0.7692307692307693
 40
0.7692307692307693
 40
0.7692307692307693
 40
0.8461538461538461
 40
0.8461538461538461
 40
0.8461538461538461
 40
0.8461538461538461
 40
1.0
 40
1.0
 40
1.0
 40
1.0
 10
-123.7061
 20
-67.3559
 30
0.0
 10
-119.8387
 20
-70.3401
 30
0.0
 10
-115.0803
 20
-72.9415
 30
0.0
 10
-110.366
 20
-72.7771
 30
0.0
 10
-110.366
 20
-72.7771
 30
0.0
 10
-106.4145
 20
-72.6393
 30
0.0
 10
-103.0128
 20
-70.5764
 30
0.0
 10
-100.2547
 20
-66.6455
 30
0.0
 10
-100.2547
 20
-66.6455
 30
0.0
 10
-100.2547
 20
-66.6455
 30
0.0
 10
-99.689
 20
-65.8415
 30
0.0
 10
-99.689
 20
-65.8415
 30
0.0
 10
-99.689
 20
-65.8415
 30
0.0
 10
-99.689
 20
-65.8415
 30
0.0
 10
-100.2547
 20
-65.0367
 30
0.0
 10
-100.2547
 20
-65.0367
 30
0.0
 10
-100.2547
 20
-65.0367
 30
0.0
 10
-103.0128
 20
-61.1065
 30
0.0
 10
-106.4145
 20
-59.0436
 30
0.0
 10
-110.366
 20
-58.9055
 30
0.0
 10
-110.366
 20
-58.9055
 30
0.0
 10
-115.0803
 20
-58.7415
 30
0.0
 10
-119.8387
 20
-61.3429
 30
0.0
 10
-123.7061
 20
-64.327
 30
0.0
 10
-123.7061
 20
-64.327
 30
0.0
 10
-127.7838
 20
-60.9474
 30
0.0
 10
-133.3879
 20
-54.1564
 30
0.0
 10
-133.4423
 20
-54.0875
 30
0.0
 10
-133.4423
 20
-54.0875
 30
0.0
 10
-133.4423
 20
-54.0875
 30
0.0
 10
-133.4423
 20
-57.4837
 30
0.0
 10
-133.4423
 20
-57.4837
 30
0.0
 10
-133.4423
 20
-57.4837
 30
0.0
 10
-133.2243
 20
-57.7607
 30
0.0
 10
-129.3747
 20
-62.5652
 30
0.0
 10
-125.5637
 20
-65.8415
 30
0.0
 10
-125.5637
 20
-65.8415
 30
0.0
 10
-129.3747
 20
-69.1177
 30
0.0
 10
-133.2243
 20
-73.8995
 30
0.0
 10
-133.4423
 20
-74.1762
 30
0.0
 10
-133.4423
 20
-74.1762
 30
0.0
 10
-133.4423
 20
-74.1762
 30
0.0
 10
-133.4423
 20
-77.5916
 30
0.0
 10
-133.4423
 20
-77.5916
 30
0.0
 10
-133.4423
 20
-77.5916
 30
0.0
 10
-133.3879
 20
-77.5227
 30
0.0
 10
-127.7838
 20
-70.7349
 30
0.0
 10
-123.7061
 20
-67.3559
 30
0.0
  0
SPLINE
  5
69
330
1F
100
AcDbEntity
  8
#Layer 1
100
AcDbSpline
210
0.0
220
0.0
230
1.0
 70
    11
 71
     3
 72
    24
 73
    20
 74
     0
 42
0.0000000001
 43
0.0000000001
 40
0.0
 40
0.0
 40
0.0
 40
0.0
 40
0.1666666666666667
 40
0.1666666666666667
 40
0.1666666666666667
 40
0.1666666666666667
 40
0.3333333333333333
 40
0.3333333333333333
 40
0.3333333333333333
 40
0.3333333333333333
 40
0.5
 40
0.5
 40
0.5
 40
0.5
 40
0.6666666666666666
 40
0.6666666666666666
 40
0.6666666666666666
 40
0.6666666666666666
 40
1.0
 40
1.0
 40
1.0
 40
1.0
 10
-110.4218
 20
-61.4062
 30
0.0
 10
-110.4218
 20
-61.4062
 30
0.0
 10
-110.4218
 20
-61.4062
 30
0.0
 10
-110.4218
 20
-61.4062
 30
0.0
 10
-110.4218
 20
-61.4062
 30
0.0
 10
-107.366
 20
-61.5137
 30
0.0
 10
-104.6878
 20
-63.0075
 30
0.0
 10
-102.4444
 20
-65.8415
 30
0.0
 10
-102.4444
 20
-65.8415
 30
0.0
 10
-104.6878
 20
-68.675
 30
0.0
 10
-107.366
 20
-70.1692
 30
0.0
 10
-110.4218
 20
-70.2767
 30
0.0
 10
-110.4218
 20
-70.2767
 30
0.0
 10
-114.3083
 20
-70.4138
 30
0.0
 10
-118.3359
 20
-68.3557
 30
0.0
 10
-121.7672
 20
-65.8415
 30
0.0
 10
-121.7672
 20
-65.8415
 30
0.0
 10
-118.3359
 20
-63.3265
 30
0.0
 10
-114.3083
 20
-61.2691
 30
0.0
 10
-110.4218
 20
-61.4062
 30
0.0
  0
SPLINE
  5
6A
330
1F
100
AcDbEntity
  8
#Layer 1
100
AcDbSpline
210
0.0
220
0.0
230
1.0
 70
    11
 71
     3
 72
    52
 73
    48
 74
     0
 42
0.0000000001
 43
0.0000000001
 40
0.0
 40
0.0
 40
0.0
 40
0.0
 40
0.0769230769230769
 40
0.0769230769230769
 40
0.0769230769230769
 40
0.0769230769230769
 40
0.1538461538461539
 40
0.1538461538461539
 40
0.1538461538461539
 40
0.1538461538461539
 40
0.2307692307692308
 40
0.2307692307692308
 40
0.2307692307692308
 40
0.2307692307692308
 40
0.3076923076923077
 40
0.3076923076923077
 40
0.3076923076923077
 40
0.3076923076923077
 40
0.3846153846153846
 40
0.3846153846153846
 40
0.3846153846153846
 40
0.3846153846153846
 40
0.4615384615384616
 40
0.4615384615384616
 40
0.4615384615384616
 40
0.4615384615384616
 40
0.5384615384615384
 40
0.5384615384615384
 40
0.5384615384615384
 40
0.5384615384615384
 40
0.6153846153846154
 40
0.6153846153846154
 40
0.6153846153846154
 40
0.6153846153846154
 40
0.6923076923076923
 40
0.6923076923076923
 40
0.6923076923076923
 40
0.6923076923076923
 40
0.7692307692307693
 40
0.7692307692307693
 40
0.7692307692307693
 40
0.7692307692307693
 40
0.8461538461538461
 40
0.8461538461538461
 40
0.8461538461538461
 40
0.8461538461538461
 40
1.0
 40
1.0
 40
1.0
 40
1.0
 10
108.5681
 20
-67.3559
 30
0.0
 10
112.4355
 20
-70.3401
 30
0.0
 10
117.1942
 20
-72.9411
 30
0.0
 10
121.9085
 20
-72.7771
 30
0.0
 10
121.9085
 20
-72.7771
 30
0.0
 10
125.8597
 20
-72.639
 30
0.0
 10
129.2617
 20
-70.5761
 30
0.0
 10
132.0199
 20
-66.6455
 30
0.0
 10
132.0199
 20
-66.6455
 30
0.0
 10
132.0199
 20
-66.6455
 30
0.0
 10
132.5852
 20
-65.8415
 30
0.0
 10
132.5852
 20
-65.8415
 30
0.0
 10
132.5852
 20
-65.8415
 30
0.0
 10
132.5852
 20
-65.8415
 30
0.0
 10
132.0199
 20
-65.0367
 30
0.0
 10
132.0199
 20
-65.0367
 30
0.0
 10
132.0199
 20
-65.0367
 30
0.0
 10
129.2617
 20
-61.1065
 30
0.0
 10
125.8597
 20
-59.0436
 30
0.0
 10
121.9085
 20
-58.9058
 30
0.0
 10
121.9085
 20
-58.9058
 30
0.0
 10
117.1942
 20
-58.7411
 30
0.0
 10
112.4355
 20
-61.3425
 30
0.0
 10
108.5681
 20
-64.3273
 30
0.0
 10
108.5681
 20
-64.3273
 30
0.0
 10
104.4904
 20
-60.9474
 30
0.0
 10
98.8866
 20
-54.1564
 30
0.0
 10
98.8319
 20
-54.0875
 30
0.0
 10
98.8319
 20
-54.0875
 30
0.0
 10
98.8319
 20
-54.0875
 30
0.0
 10
98.8319
 20
-57.4833
 30
0.0
 10
98.8319
 20
-57.4833
 30
0.0
 10
98.8319
 20
-57.4833
 30
0.0
 10
99.0496
 20
-57.7607
 30
0.0
 10
102.8995
 20
-62.5652
 30
0.0
 10
106.7108
 20
-65.8415
 30
0.0
 10
106.7108
 20
-65.8415
 30
0.0
 10
102.8995
 20
-69.1177
 30
0.0
 10
99.0496
 20
-73.8995
 30
0.0
 10
98.8319
 20
-74.1765
 30
0.0
 10
98.8319
 20
-74.1765
 30
0.0
 10
98.8319
 20
-74.1765
 30
0.0
 10
98.8319
 20
-77.592
 30
0.0
 10
98.8319
 20
-77.592
 30
0.0
 10
98.8319
 20
-77.592
 30
0.0
 10
98.8866
 20
-77.5231
 30
0.0
 10
104.4904
 20
-70.7349
 30
0.0
 10
108.5681
 20
-67.3559
 30
0.0
  0
SPLINE
  5
6B
330
1F
100
AcDbEntity
  8
#Layer 1
100
AcDbSpline
210
0.0
220
0.0
230
1.0
 70
    11
 71
     3
 72
    24
 73
    20
 74
     0
 42
0.0000000001
 43
0.0000000001
 40
0.0
 40
0.0
 40
0.0
 40
0.0
 40
0.1666666666666667
 40
0.1666666666666667
 40
0.1666666666666667
 40
0.1666666666666667
 40
0.3333333333333333
 40
0.3333333333333333
 40
0.3333333333333333
 40
0.3333333333333333
 40
0.5
 40
0.5
 40
0.5
 40
0.5
 40
0.6666666666666666
 40
0.6666666666666666
 40
0.6666666666666666
 40
0.6666666666666666
 40
1.0
 40
1.0
 40
1.0
 40
1.0
 10
121.8523
 20
-61.4062
 30
0.0
 10
121.8523
 20
-61.4062
 30
0.0
 10
121.8523
 20
-61.4062
 30
0.0
 10
121.8523
 20
-61.4062
 30
0.0
 10
121.8523
 20
-61.4062
 30
0.0
 10
124.9078
 20
-61.5137
 30
0.0
 10
127.5864
 20
-63.0075
 30
0.0
 10
129.8298
 20
-65.8415
 30
0.0
 10
129.8298
 20
-65.8415
 30
0.0
 10
127.5864
 20
-68.6747
 30
0.0
 10
124.9078
 20
-70.1688
 30
0.0
 10
121.8523
 20
-70.2767
 30
0.0
 10
121.8523
 20
-70.2767
 30
0.0
 10
117.9659
 20
-70.4138
 30
0.0
 10
113.9383
 20
-68.3557
 30
0.0
 10
110.5073
 20
-65.8415
 30
0.0
 10
110.5073
 20
-65.8415
 30
0.0
 10
113.9383
 20
-63.3269
 30
0.0
 10
117.9659
 20
-61.2688
 30
0.0
 10
121.8523
 20
-61.4062
 30
0.0
  0
SPLINE
  5
6C
330
1F
100
AcDbEntity
  8
#Layer 1
100
AcDbSpline
210
0.0
220
0.0
230
1.0
 70
    11
 71
     3
 72
    52
 73
    48
 74
     0
 42
0.0000000001
 43
0.0000000001
 40
0.0
 40
0.0
 40
0.0
 40
0.0
 40
0.0769230769230769
 40
0.0769230769230769
 40
0.0769230769230769
 40
0.0769230769230769
 40
0.1538461538461539
 40
0.1538461538461539
 40
0.1538461538461539
 40
0.1538461538461539
 40
0.2307692307692308
 40
0.2307692307692308
 40
0.2307692307692308
 40
0.2307692307692308
 40
0.3076923076923077
 40
0.3076923076923077
 40
0.3076923076923077
 40
0.3076923076923077
 40
0.3846153846153846
 40
0.3846153846153846
 40
0.3846153846153846
 40
0.3846153846153846
 40
0.4615384615384616
 40
0.4615384615384616
 40
0.4615384615384616
 40
0.4615384615384616
 40
0.5384615384615384
 40
0.5384615384615384
 40
0.5384615384615384
 40
0.5384615384615384
 40
0.6153846153846154
 40
0.6153846153846154
 40
0.6153846153846154
 40
0.6153846153846154
 40
0.6923076923076923
 40
0.6923076923076923
 40
0.6923076923076923
 40
0.6923076923076923
 40
0.7692307692307693
 40
0.7692307692307693
 40
0.7692307692307693
 40
0.7692307692307693
 40
0.8461538461538461
 40
0.8461538461538461
 40
0.8461538461538461
 40
0.8461538461538461
 40
1.0
 40
1.0
 40
1.0
 40
1.0
 10
-143.1806
 20
-64.3298
 30
0.0
 10
-147.0473
 20
-61.3456
 30
0.0
 10
-151.8071
 20
-58.7446
 30
0.0
 10
-156.521
 20
-58.9086
 30
0.0
 10
-156.521
 20
-58.9086
 30
0.0
 10
-160.4722
 20
-59.0464
 30
0.0
 10
-163.8742
 20
-61.1093
 30
0.0
 10
-166.6331
 20
-65.0395
 30
0.0
 10
-166.6331
 20
-65.0395
 30
0.0
 10
-166.6331
 20
-65.0395
 30
0.0
 10
-167.1977
 20
-65.8442
 30
0.0
 10
-167.1977
 20
-65.8442
 30
0.0
 10
-167.1977
 20
-65.8442
 30
0.0
 10
-167.1977
 20
-65.8442
 30
0.0
 10
-166.6331
 20
-66.6483
 30
0.0
 10
-166.6331
 20
-66.6483
 30
0.0
 10
-166.6331
 20
-66.6483
 30
0.0
 10
-163.8742
 20
-70.5792
 30
0.0
 10
-160.4722
 20
-72.6421
 30
0.0
 10
-156.521
 20
-72.7799
 30
0.0
 10
-156.521
 20
-72.7799
 30
0.0
 10
-151.8071
 20
-72.9446
 30
0.0
 10
-147.0473
 20
-70.3425
 30
0.0
 10
-143.1806
 20
-67.3587
 30
0.0
 10
-143.1806
 20
-67.3587
 30
0.0
 10
-139.1023
 20
-70.7376
 30
0.0
 10
-133.4957
 20
-77.5252
 30
0.0
 10
-133.4423
 20
-77.5944
 30
0.0
 10
-133.4423
 20
-77.5944
 30
0.0
 10
-133.4423
 20
-77.5944
 30
0.0
 10
-133.4423
 20
-74.1786
 30
0.0
 10
-133.4423
 20
-74.1786
 30
0.0
 10
-133.4423
 20
-74.1786
 30
0.0
 10
-133.6608
 20
-73.9023
 30
0.0
 10
-137.512
 20
-69.1205
 30
0.0
 10
-141.3237
 20
-65.8442
 30
0.0
 10
-141.3237
 20
-65.8442
 30
0.0
 10
-137.512
 20
-62.5679
 30
0.0
 10
-133.6608
 20
-57.7634
 30
0.0
 10
-133.4423
 20
-57.4864
 30
0.0
 10
-133.4423
 20
-57.4864
 30
0.0
 10
-133.4423
 20
-57.4864
 30
0.0
 10
-133.4423
 20
-54.0903
 30
0.0
 10
-133.4423
 20
-54.0903
 30
0.0
 10
-133.4423
 20
-54.0903
 30
0.0
 10
-133.4957
 20
-54.1591
 30
0.0
 10
-139.1023
 20
-60.9501
 30
0.0
 10
-143.1806
 20
-64.3298
 30
0.0
  0
SPLINE
  5
6D
330
1F
100
AcDbEntity
  8
#Layer 1
100
AcDbSpline
210
0.0
220
0.0
230
1.0
 70
    11
 71
     3
 72
    24
 73
    20
 74
     0
 42
0.0000000001
 43
0.0000000001
 40
0.0
 40
0.0
 40
0.0
 40
0.0
 40
0.1666666666666667
 40
0.1666666666666667
 40
0.1666666666666667
 40
0.1666666666666667
 40
0.3333333333333333
 40
0.3333333333333333
 40
0.3333333333333333
 40
0.3333333333333333
 40
0.5
 40
0.5
 40
0.5
 40
0.5
 40
0.6666666666666666
 40
0.6666666666666666
 40
0.6666666666666666
 40
0.6666666666666666
 40
1.0
 40
1.0
 40
1.0
 40
1.0
 10
-156.4649
 20
-70.2794
 30
0.0
 10
-156.4649
 20
-70.2794
 30
0.0
 10
-156.4649
 20
-70.2794
 30
0.0
 10
-156.4649
 20
-70.2794
 30
0.0
 10
-156.4649
 20
-70.2794
 30
0.0
 10
-159.5207
 20
-70.1719
 30
0.0
 10
-162.1989
 20
-68.6781
 30
0.0
 10
-164.4416
 20
-65.8442
 30
0.0
 10
-164.4416
 20
-65.8442
 30
0.0
 10
-162.1989
 20
-63.0103
 30
0.0
 10
-159.5207
 20
-61.5165
 30
0.0
 10
-156.4649
 20
-61.409
 30
0.0
 10
-156.4649
 20
-61.409
 30
0.0
 10
-152.5788
 20
-61.2719
 30
0.0
 10
-148.5515
 20
-63.3293
 30
0.0
 10
-145.1205
 20
-65.8442
 30
0.0
 10
-145.1205
 20
-65.8442
 30
0.0
 10
-148.5515
 20
-68.3588
 30
0.0
 10
-152.5788
 20
-70.4162
 30
0.0
 10
-156.4649
 20
-70.2794
 30
0.0
  0
SPLINE
  5
6E
330
1F
100
AcDbEntity
  8
#Layer 1
 62
     5
370
     9
100
AcDbSpline
210
0.0
220
0.0
230
1.0
 70
     8
 71
     3
 72
    12
 73
     8
 74
     0
 42
0.0000000001
 43
0.0000000001
 40
0.0
 40
0.0
 40
0.0
 40
0.0
 40
0.3333333333333333
 40
0.3333333333333333
 40
0.3333333333333333
 40
0.3333333333333333
 40
1.0
 40
1.0
 40
1.0
 40
1.0
 10
161.7858
 20
77.319
 30
0.0
 10
161.7858
 20
80.3124
 30
0.0
 10
164.2118
 20
82.7391
 30
0.0
 10
167.2057
 20
82.7391
 30
0.0
 10
167.2057
 20
82.7391
 30
0.0
 10
170.1987
 20
82.7391
 30
0.0
 10
172.6255
 20
80.3124
 30
0.0
 10
172.6255
 20
77.319
 30
0.0
  0
SPLINE
  5
6F
330
1F
100
AcDbEntity
  8
#Layer 1
 62
     5
370
     9
100
AcDbSpline
210
0.0
220
0.0
230
1.0
 70
     8
 71
     3
 72
    72
 73
    68
 74
     0
 42
0.0000000001
 43
0.0000000001
 40
0.0
 40
0.0
 40
0.0
 40
0.0
 40
0.0555555555555556
 40
0.0555555555555556
 40
0.0555555555555556
 40
0.0555555555555556
 40
0.1111111111111111
 40
0.1111111111111111
 40
0.1111111111111111
 40
0.1111111111111111
 40
0.1666666666666667
 40
0.1666666666666667
 40
0.1666666666666667
 40
0.1666666666666667
 40
0.2222222222222222
 40
0.2222222222222222
 40
0.2222222222222222
 40
0.2222222222222222
 40
0.2777777777777778
 40
0.2777777777777778
 40
0.2777777777777778
 40
0.2777777777777778
 40
0.3333333333333333
 40
0.3333333333333333
 40
0.3333333333333333
 40
0.3333333333333333
 40
0.3888888888888889
 40
0.3888888888888889
 40
0.3888888888888889
 40
0.3888888888888889
 40
0.4444444444444444
 40
0.4444444444444444
 40
0.4444444444444444
 40
0.4444444444444444
 40
0.5
 40
0.5
 40
0.5
 40
0.5
 40
0.5555555555555556
 40
0.5555555555555556
 40
0.5555555555555556
 40
0.5555555555555556
 40
0.6111111111111112
 40
0.6111111111111112
 40
0.6111111111111112
 40
0.6111111111111112
 40
0.6666666666666666
 40
0.6666666666666666
 40
0.6666666666666666
 40
0.6666666666666666
 40
0.7222222222222222
 40
0.7222222222222222
 40
0.7222222222222222
 40
0.7222222222222222
 40
0.7777777777777778
 40
0.7777777777777778
 40
0.7777777777777778
 40
0.7777777777777778
 40
0.8333333333333334
 40
0.8333333333333334
 40
0.8333333333333334
 40
0.8333333333333334
 40
0.8888888888888888
 40
0.8888888888888888
 40
0.8888888888888888
 40
0.8888888888888888
 40
1.0
 40
1.0
 40
1.0
 40
1.0
 10
172.6255
 20
77.319
 30
0.0
 10
172.6255
 20
77.319
 30
0.0
 10
172.6255
 20
63.0315
 30
0.0
 10
172.6255
 20
63.0315
 30
0.0
 10
172.6255
 20
63.0315
 30
0.0
 10
172.6255
 20
63.0315
 30
0.0
 10
169.4505
 20
63.0315
 30
0.0
 10
169.4505
 20
63.0315
 30
0.0
 10
169.4505
 20
63.0315
 30
0.0
 10
169.4505
 20
63.0315
 30
0.0
 10
169.4505
 20
50.3317
 30
0.0
 10
169.4505
 20
50.3317
 30
0.0
 10
169.4505
 20
50.3317
 30
0.0
 10
169.4505
 20
50.3317
 30
0.0
 10
172.6255
 20
50.3317
 30
0.0
 10
172.6255
 20
50.3317
 30
0.0
 10
172.6255
 20
50.3317
 30
0.0
 10
172.6255
 20
50.3317
 30
0.0
 10
172.6255
 20
34.4567
 30
0.0
 10
172.6255
 20
34.4567
 30
0.0
 10
172.6255
 20
34.4567
 30
0.0
 10
172.6255
 20
34.4567
 30
0.0
 10
160.9838
 20
34.4567
 30
0.0
 10
160.9838
 20
34.4567
 30
0.0
 10
160.9838
 20
34.4567
 30
0.0
 10
160.9838
 20
34.4567
 30
0.0
 10
160.9838
 20
37.6317
 30
0.0
 10
160.9838
 20
37.6317
 30
0.0
 10
160.9838
 20
37.6317
 30
0.0
 10
160.9838
 20
37.6317
 30
0.0
 10
152.5171
 20
37.6317
 30
0.0
 10
152.5171
 20
37.6317
 30
0.0
 10
152.5171
 20
37.6317
 30
0.0
 10
152.5171
 20
37.6317
 30
0.0
 10
152.5171
 20
34.4567
 30
0.0
 10
152.5171
 20
34.4567
 30
0.0
 10
152.5171
 20
34.4567
 30
0.0
 10
152.5171
 20
34.4567
 30
0.0
 10
140.8755
 20
34.4567
 30
0.0
 10
140.8755
 20
34.4567
 30
0.0
 10
140.8755
 20
34.4567
 30
0.0
 10
140.8755
 20
34.4567
 30
0.0
 10
140.8755
 20
50.3317
 30
0.0
 10
140.8755
 20
50.3317
 30
0.0
 10
140.8755
 20
50.3317
 30
0.0
 10
140.8755
 20
50.3317
 30
0.0
 10
144.0505
 20
50.3317
 30
0.0
 10
144.0505
 20
50.3317
 30
0.0
 10
144.0505
 20
50.3317
 30
0.0
 10
144.0505
 20
50.3317
 30
0.0
 10
144.0505
 20
63.0315
 30
0.0
 10
144.0505
 20
63.0315
 30
0.0
 10
144.0505
 20
63.0315
 30
0.0
 10
144.0505
 20
63.0315
 30
0.0
 10
140.8755
 20
63.0315
 30
0.0
 10
140.8755
 20
63.0315
 30
0.0
 10
140.8755
 20
63.0315
 30
0.0
 10
140.8755
 20
63.0315
 30
0.0
 10
140.8755
 20
75.7315
 30
0.0
 10
140.8755
 20
75.7315
 30
0.0
 10
140.8755
 20
75.7315
 30
0.0
 10
140.8755
 20
75.7315
 30
0.0
 10
161.7858
 20
75.7315
 30
0.0
 10
161.7858
 20
75.7315
 30
0.0
 10
161.7858
 20
75.7315
 30
0.0
 10
161.7858
 20
75.7315
 30
0.0
 10
161.7858
 20
77.319
 30
0.0
 10
161.7858
 20
77.319
 30
0.0
  0
SPLINE
  5
70
330
1F
100
AcDbEntity
  8
#Layer 1
 62
     1
370
     9
100
AcDbSpline
210
0.0
220
0.0
230
1.0
 70
    11
 71
     3
 72
    20
 73
    16
 74
     0
 42
0.0000000001
 43
0.0000000001
 40
0.0
 40
0.0
 40
0.0
 40
0.0
 40
0.2
 40
0.2
 40
0.2
 40
0.2
 40
0.4
 40
0.4
 40
0.4
 40
0.4
 40
0.6
 40
0.6
 40
0.6
 40
0.6
 40
1.0
 40
1.0
 40
1.0
 40
1.0
 10
169.4505
 20
77.319
 30
0.0
 10
169.4505
 20
78.5588
 30
0.0
 10
168.4452
 20
79.5641
 30
0.0
 10
167.2057
 20
79.5641
 30
0.0
 10
167.2057
 20
79.5641
 30
0.0
 10
165.9654
 20
79.5641
 30
0.0
 10
164.9608
 20
78.5588
 30
0.0
 10
164.9608
 20
77.319
 30
0.0
 10
164.9608
 20
77.319
 30
0.0
 10
164.9608
 20
76.0791
 30
0.0
 10
165.9654
 20
75.074
 30
0.0
 10
167.2057
 20
75.074
 30
0.0
 10
167.2057
 20
75.074
 30
0.0
 10
168.4452
 20
75.074
 30
0.0
 10
169.4505
 20
76.0791
 30
0.0
 10
169.4505
 20
77.319
 30
0.0
  0
SPLINE
  5
71
330
1F
100
AcDbEntity
  8
#Layer 1
 62
     5
370
     9
100
AcDbSpline
210
0.0
220
0.0
230
1.0
 70
     8
 71
     3
 72
    12
 73
     8
 74
     0
 42
0.0000000001
 43
0.0000000001
 40
0.0
 40
0.0
 40
0.0
 40
0.0
 40
0.3333333333333333
 40
0.3333333333333333
 40
0.3333333333333333
 40
0.3333333333333333
 40
1.0
 40
1.0
 40
1.0
 40
1.0
 10
151.7151
 20
26.4962
 30
0.0
 10
151.7151
 20
29.4897
 30
0.0
 10
149.2891
 20
31.9164
 30
0.0
 10
146.2953
 20
31.9164
 30
0.0
 10
146.2953
 20
31.9164
 30
0.0
 10
143.3022
 20
31.9164
 30
0.0
 10
140.8755
 20
29.4897
 30
0.0
 10
140.8755
 20
26.4962
 30
0.0
  0
SPLINE
  5
72
330
1F
100
AcDbEntity
  8
#Layer 1
 62
     5
370
     9
100
AcDbSpline
210
0.0
220
0.0
230
1.0
 70
     8
 71
     3
 72
    72
 73
    68
 74
     0
 42
0.0000000001
 43
0.0000000001
 40
0.0
 40
0.0
 40
0.0
 40
0.0
 40
0.0555555555555556
 40
0.0555555555555556
 40
0.0555555555555556
 40
0.0555555555555556
 40
0.1111111111111111
 40
0.1111111111111111
 40
0.1111111111111111
 40
0.1111111111111111
 40
0.1666666666666667
 40
0.1666666666666667
 40
0.1666666666666667
 40
0.1666666666666667
 40
0.2222222222222222
 40
0.2222222222222222
 40
0.2222222222222222
 40
0.2222222222222222
 40
0.2777777777777778
 40
0.2777777777777778
 40
0.2777777777777778
 40
0.2777777777777778
 40
0.3333333333333333
 40
0.3333333333333333
 40
0.3333333333333333
 40
0.3333333333333333
 40
0.3888888888888889
 40
0.3888888888888889
 40
0.3888888888888889
 40
0.3888888888888889
 40
0.4444444444444444
 40
0.4444444444444444
 40
0.4444444444444444
 40
0.4444444444444444
 40
0.5
 40
0.5
 40
0.5
 40
0.5
 40
0.5555555555555556
 40
0.5555555555555556
 40
0.5555555555555556
 40
0.5555555555555556
 40
0.6111111111111112
 40
0.6111111111111112
 40
0.6111111111111112
 40
0.6111111111111112
 40
0.6666666666666666
 40
0.6666666666666666
 40
0.6666666666666666
 40
0.6666666666666666
 40
0.7222222222222222
 40
0.7222222222222222
 40
0.7222222222222222
 40
0.7222222222222222
 40
0.7777777777777778
 40
0.7777777777777778
 40
0.7777777777777778
 40
0.7777777777777778
 40
0.8333333333333334
 40
0.8333333333333334
 40
0.8333333333333334
 40
0.8333333333333334
 40
0.8888888888888888
 40
0.8888888888888888
 40
0.8888888888888888
 40
0.8888888888888888
 40
1.0
 40
1.0
 40
1.0
 40
1.0
 10
140.8755
 20
26.4962
 30
0.0
 10
140.8755
 20
26.4962
 30
0.0
 10
140.8755
 20
12.2087
 30
0.0
 10
140.8755
 20
12.2087
 30
0.0
 10
140.8755
 20
12.2087
 30
0.0
 10
140.8755
 20
12.2087
 30
0.0
 10
144.0505
 20
12.2087
 30
0.0
 10
144.0505
 20
12.2087
 30
0.0
 10
144.0505
 20
12.2087
 30
0.0
 10
144.0505
 20
12.2087
 30
0.0
 10
144.0505
 20
-0.4911
 30
0.0
 10
144.0505
 20
-0.4911
 30
0.0
 10
144.0505
 20
-0.4911
 30
0.0
 10
144.0505
 20
-0.4911
 30
0.0
 10
140.8755
 20
-0.4911
 30
0.0
 10
140.8755
 20
-0.4911
 30
0.0
 10
140.8755
 20
-0.4911
 30
0.0
 10
140.8755
 20
-0.4911
 30
0.0
 10
140.8755
 20
-16.3661
 30
0.0
 10
140.8755
 20
-16.3661
 30
0.0
 10
140.8755
 20
-16.3661
 30
0.0
 10
140.8755
 20
-16.3661
 30
0.0
 10
152.5171
 20
-16.3661
 30
0.0
 10
152.5171
 20
-16.3661
 30
0.0
 10
152.5171
 20
-16.3661
 30
0.0
 10
152.5171
 20
-16.3661
 30
0.0
 10
152.5171
 20
-13.1911
 30
0.0
 10
152.5171
 20
-13.1911
 30
0.0
 10
152.5171
 20
-13.1911
 30
0.0
 10
152.5171
 20
-13.1911
 30
0.0
 10
160.9838
 20
-13.1911
 30
0.0
 10
160.9838
 20
-13.1911
 30
0.0
 10
160.9838
 20
-13.1911
 30
0.0
 10
160.9838
 20
-13.1911
 30
0.0
 10
160.9838
 20
-16.3661
 30
0.0
 10
160.9838
 20
-16.3661
 30
0.0
 10
160.9838
 20
-16.3661
 30
0.0
 10
160.9838
 20
-16.3661
 30
0.0
 10
172.6255
 20
-16.3661
 30
0.0
 10
172.6255
 20
-16.3661
 30
0.0
 10
172.6255
 20
-16.3661
 30
0.0
 10
172.6255
 20
-16.3661
 30
0.0
 10
172.6255
 20
-0.4911
 30
0.0
 10
172.6255
 20
-0.4911
 30
0.0
 10
172.6255
 20
-0.4911
 30
0.0
 10
172.6255
 20
-0.4911
 30
0.0
 10
169.4505
 20
-0.4911
 30
0.0
 10
169.4505
 20
-0.4911
 30
0.0
 10
169.4505
 20
-0.4911
 30
0.0
 10
169.4505
 20
-0.4911
 30
0.0
 10
169.4505
 20
12.2087
 30
0.0
 10
169.4505
 20
12.2087
 30
0.0
 10
169.4505
 20
12.2087
 30
0.0
 10
169.4505
 20
12.2087
 30
0.0
 10
172.6255
 20
12.2087
 30
0.0
 10
172.6255
 20
12.2087
 30
0.0
 10
172.6255
 20
12.2087
 30
0.0
 10
172.6255
 20
12.2087
 30
0.0
 10
172.6255
 20
24.9087
 30
0.0
 10
172.6255
 20
24.9087
 30
0.0
 10
172.6255
 20
24.9087
 30
0.0
 10
172.6255
 20
24.9087
 30
0.0
 10
151.7151
 20
24.9087
 30
0.0
 10
151.7151
 20
24.9087
 30
0.0
 10
151.7151
 20
24.9087
 30
0.0
 10
151.7151
 20
24.9087
 30
0.0
 10
151.7151
 20
26.4962
 30
0.0
 10
151.7151
 20
26.4962
 30
0.0
  0
SPLINE
  5
73
330
1F
100
AcDbEntity
  8
#Layer 1
 62
     1
370
     9
100
AcDbSpline
210
0.0
220
0.0
230
1.0
 70
    11
 71
     3
 72
    20
 73
    16
 74
     0
 42
0.0000000001
 43
0.0000000001
 40
0.0
 40
0.0
 40
0.0
 40
0.0
 40
0.2
 40
0.2
 40
0.2
 40
0.2
 40
0.4
 40
0.4
 40
0.4
 40
0.4
 40
0.6
 40
0.6
 40
0.6
 40
0.6
 40
1.0
 40
1.0
 40
1.0
 40
1.0
 10
144.0505
 20
26.4962
 30
0.0
 10
144.0505
 20
27.7361
 30
0.0
 10
145.0557
 20
28.7414
 30
0.0
 10
146.2953
 20
28.7414
 30
0.0
 10
146.2953
 20
28.7414
 30
0.0
 10
147.5355
 20
28.7414
 30
0.0
 10
148.5401
 20
27.7361
 30
0.0
 10
148.5401
 20
26.4962
 30
0.0
 10
148.5401
 20
26.4962
 30
0.0
 10
148.5401
 20
25.2563
 30
0.0
 10
147.5355
 20
24.2512
 30
0.0
 10
146.2953
 20
24.2512
 30
0.0
 10
146.2953
 20
24.2512
 30
0.0
 10
145.0557
 20
24.2512
 30
0.0
 10
144.0505
 20
25.2563
 30
0.0
 10
144.0505
 20
26.4962
 30
0.0
  0
SPLINE
  5
74
330
1F
100
AcDbEntity
  8
#Layer 1
 62
     1
370
     9
100
AcDbSpline
210
0.0
220
0.0
230
1.0
 70
    11
 71
     3
 72
   132
 73
   128
 74
     0
 42
0.0000000001
 43
0.0000000001
 40
0.0
 40
0.0
 40
0.0
 40
0.0
 40
0.0303030303030303
 40
0.0303030303030303
 40
0.0303030303030303
 40
0.0303030303030303
 40
0.0606060606060606
 40
0.0606060606060606
 40
0.0606060606060606
 40
0.0606060606060606
 40
0.0909090909090909
 40
0.0909090909090909
 40
0.0909090909090909
 40
0.0909090909090909
 40
0.1212121212121212
 40
0.1212121212121212
 40
0.1212121212121212
 40
0.1212121212121212
 40
0.1515151515151515
 40
0.1515151515151515
 40
0.1515151515151515
 40
0.1515151515151515
 40
0.1818181818181818
 40
0.1818181818181818
 40
0.1818181818181818
 40
0.1818181818181818
 40
0.2121212121212121
 40
0.2121212121212121
 40
0.2121212121212121
 40
0.2121212121212121
 40
0.2424242424242424
 40
0.2424242424242424
 40
0.2424242424242424
 40
0.2424242424242424
 40
0.2727272727272727
 40
0.2727272727272727
 40
0.2727272727272727
 40
0.2727272727272727
 40
0.303030303030303
 40
0.303030303030303
 40
0.303030303030303
 40
0.303030303030303
 40
0.3333333333333333
 40
0.3333333333333333
 40
0.3333333333333333
 40
0.3333333333333333
 40
0.3636363636363636
 40
0.3636363636363636
 40
0.3636363636363636
 40
0.3636363636363636
 40
0.3939393939393939
 40
0.3939393939393939
 40
0.3939393939393939
 40
0.3939393939393939
 40
0.4242424242424243
 40
0.4242424242424243
 40
0.4242424242424243
 40
0.4242424242424243
 40
0.4545454545454545
 40
0.4545454545454545
 40
0.4545454545454545
 40
0.4545454545454545
 40
0.4848484848484849
 40
0.4848484848484849
 40
0.4848484848484849
 40
0.4848484848484849
 40
0.5151515151515151
 40
0.5151515151515151
 40
0.5151515151515151
 40
0.5151515151515151
 40
0.5454545454545454
 40
0.5454545454545454
 40
0.5454545454545454
 40
0.5454545454545454
 40
0.5757575757575758
 40
0.5757575757575758
 40
0.5757575757575758
 40
0.5757575757575758
 40
0.6060606060606061
 40
0.6060606060606061
 40
0.6060606060606061
 40
0.6060606060606061
 40
0.6363636363636364
 40
0.6363636363636364
 40
0.6363636363636364
 40
0.6363636363636364
 40
0.6666666666666666
 40
0.6666666666666666
 40
0.6666666666666666
 40
0.6666666666666666
 40
0.696969696969697
 40
0.696969696969697
 40
0.696969696969697
 40
0.696969696969697
 40
0.7272727272727273
 40
0.7272727272727273
 40
0.7272727272727273
 40
0.7272727272727273
 40
0.7575757575757576
 40
0.7575757575757576
 40
0.7575757575757576
 40
0.7575757575757576
 40
0.7878787878787878
 40
0.7878787878787878
 40
0.7878787878787878
 40
0.7878787878787878
 40
0.8181818181818182
 40
0.8181818181818182
 40
0.8181818181818182
 40
0.8181818181818182
 40
0.8484848484848485
 40
0.8484848484848485
 40
0.8484848484848485
 40
0.8484848484848485
 40
0.8787878787878788
 40
0.8787878787878788
 40
0.8787878787878788
 40
0.8787878787878788
 40
0.9090909090909091
 40
0.9090909090909091
 40
0.9090909090909091
 40
0.9090909090909091
 40
0.9393939393939394
 40
0.9393939393939394
 40
0.9393939393939394
 40
0.9393939393939394
 40
1.0
 40
1.0
 40
1.0
 40
1.0
 10
138.3354
 20
-20.7658
 30
0.0
 10
138.3354
 20
-20.7658
 30
0.0
 10
138.3354
 20
-33.4658
 30
0.0
 10
138.3354
 20
-33.4658
 30
0.0
 10
138.3354
 20
-33.4658
 30
0.0
 10
138.3354
 20
-33.4658
 30
0.0
 10
135.1604
 20
-33.4658
 30
0.0
 10
135.1604
 20
-33.4658
 30
0.0
 10
135.1604
 20
-33.4658
 30
0.0
 10
135.1604
 20
-33.4658
 30
0.0
 10
135.1604
 20
-49.3408
 30
0.0
 10
135.1604
 20
-49.3408
 30
0.0
 10
135.1604
 20
-49.3408
 30
0.0
 10
135.1604
 20
-49.3408
 30
0.0
 10
107.4515
 20
-49.3408
 30
0.0
 10
107.4515
 20
-49.3408
 30
0.0
 10
107.4515
 20
-49.3408
 30
0.0
 10
107.4515
 20
-49.3408
 30
0.0
 10
107.4515
 20
-46.1658
 30
0.0
 10
107.4515
 20
-46.1658
 30
0.0
 10
107.4515
 20
-46.1658
 30
0.0
 10
107.4515
 20
-46.1658
 30
0.0
 10
79.7426
 20
-46.1658
 30
0.0
 10
79.7426
 20
-46.1658
 30
0.0
 10
79.7426
 20
-46.1658
 30
0.0
 10
79.7426
 20
-46.1658
 30
0.0
 10
79.7426
 20
-49.3408
 30
0.0
 10
79.7426
 20
-49.3408
 30
0.0
 10
79.7426
 20
-49.3408
 30
0.0
 10
79.7426
 20
-49.3408
 30
0.0
 10
52.033
 20
-49.3408
 30
0.0
 10
52.033
 20
-49.3408
 30
0.0
 10
52.033
 20
-49.3408
 30
0.0
 10
52.033
 20
-49.3408
 30
0.0
 10
52.033
 20
-46.1658
 30
0.0
 10
52.033
 20
-46.1658
 30
0.0
 10
52.033
 20
-46.1658
 30
0.0
 10
52.033
 20
-46.1658
 30
0.0
 10
24.3241
 20
-46.1658
 30
0.0
 10
24.3241
 20
-46.1658
 30
0.0
 10
24.3241
 20
-46.1658
 30
0.0
 10
24.3241
 20
-46.1658
 30
0.0
 10
24.3241
 20
-49.3408
 30
0.0
 10
24.3241
 20
-49.3408
 30
0.0
 10
24.3241
 20
-49.3408
 30
0.0
 10
24.3241
 20
-49.3408
 30
0.0
 10
-3.3848
 20
-49.3408
 30
0.0
 10
-3.3848
 20
-49.3408
 30
0.0
 10
-3.3848
 20
-49.3408
 30
0.0
 10
-3.3848
 20
-49.3408
 30
0.0
 10
-3.3848
 20
-46.1658
 30
0.0
 10
-3.3848
 20
-46.1658
 30
0.0
 10
-3.3848
 20
-46.1658
 30
0.0
 10
-3.3848
 20
-46.1658
 30
0.0
 10
-31.094
 20
-46.1658
 30
0.0
 10
-31.094
 20
-46.1658
 30
0.0
 10
-31.094
 20
-46.1658
 30
0.0
 10
-31.094
 20
-46.1658
 30
0.0
 10
-31.094
 20
-49.3408
 30
0.0
 10
-31.094
 20
-49.3408
 30
0.0
 10
-31.094
 20
-49.3408
 30
0.0
 10
-31.094
 20
-49.3408
 30
0.0
 10
-58.8033
 20
-49.3408
 30
0.0
 10
-58.8033
 20
-49.3408
 30
0.0
 10
-58.8033
 20
-49.3408
 30
0.0
 10
-58.8033
 20
-49.3408
 30
0.0
 10
-58.8033
 20
-46.1658
 30
0.0
 10
-58.8033
 20
-46.1658
 30
0.0
 10
-58.8033
 20
-46.1658
 30
0.0
 10
-58.8033
 20
-46.1658
 30
0.0
 10
-86.5122
 20
-46.1658
 30
0.0
 10
-86.5122
 20
-46.1658
 30
0.0
 10
-86.5122
 20
-46.1658
 30
0.0
 10
-86.5122
 20
-46.1658
 30
0.0
 10
-86.5122
 20
-49.3408
 30
0.0
 10
-86.5122
 20
-49.3408
 30
0.0
 10
-86.5122
 20
-49.3408
 30
0.0
 10
-86.5122
 20
-49.3408
 30
0.0
 10
-114.2211
 20
-49.3408
 30
0.0
 10
-114.2211
 20
-49.3408
 30
0.0
 10
-114.2211
 20
-49.3408
 30
0.0
 10
-114.2211
 20
-49.3408
 30
0.0
 10
-114.2211
 20
-46.1658
 30
0.0
 10
-114.2211
 20
-46.1658
 30
0.0
 10
-114.2211
 20
-46.1658
 30
0.0
 10
-114.2211
 20
-46.1658
 30
0.0
 10
-141.9304
 20
-46.1658
 30
0.0
 10
-141.9304
 20
-46.1658
 30
0.0
 10
-141.9304
 20
-46.1658
 30
0.0
 10
-141.9304
 20
-46.1658
 30
0.0
 10
-141.9304
 20
-49.3408
 30
0.0
 10
-141.9304
 20
-49.3408
 30
0.0
 10
-141.9304
 20
-49.3408
 30
0.0
 10
-141.9304
 20
-49.3408
 30
0.0
 10
-169.6396
 20
-49.3408
 30
0.0
 10
-169.6396
 20
-49.3408
 30
0.0
 10
-169.6396
 20
-49.3408
 30
0.0
 10
-169.6396
 20
-49.3408
 30
0.0
 10
-169.6396
 20
-33.4658
 30
0.0
 10
-169.6396
 20
-33.4658
 30
0.0
 10
-169.6396
 20
-33.4658
 30
0.0
 10
-169.6396
 20
-33.4658
 30
0.0
 10
-172.8146
 20
-33.4658
 30
0.0
 10
-172.8146
 20
-33.4658
 30
0.0
 10
-172.8146
 20
-33.4658
 30
0.0
 10
-172.8146
 20
-33.4658
 30
0.0
 10
-172.8146
 20
-20.7658
 30
0.0
 10
-172.8146
 20
-20.7658
 30
0.0
 10
-172.8146
 20
-20.7658
 30
0.0
 10
-172.8146
 20
-20.7658
 30
0.0
 10
-169.6396
 20
-20.7658
 30
0.0
 10
-169.6396
 20
-20.7658
 30
0.0
 10
-169.6396
 20
-20.7658
 30
0.0
 10
-169.6396
 20
-20.7658
 30
0.0
 10
-169.6396
 20
-4.8908
 30
0.0
 10
-169.6396
 20
-4.8908
 30
0.0
 10
-169.6396
 20
-4.8908
 30
0.0
 10
-169.6396
 20
-4.8908
 30
0.0
 10
135.1604
 20
-4.8908
 30
0.0
 10
135.1604
 20
-4.8908
 30
0.0
 10
135.1604
 20
-4.8908
 30
0.0
 10
135.1604
 20
-4.8908
 30
0.0
 10
135.1604
 20
-20.7658
 30
0.0
 10
135.1604
 20
-20.7658
 30
0.0
 10
135.1604
 20
-20.7658
 30
0.0
 10
135.1604
 20
-20.7658
 30
0.0
 10
138.3354
 20
-20.7658
 30
0.0
 10
138.3354
 20
-20.7658
 30
0.0
  0
SPLINE
  5
75
330
1F
100
AcDbEntity
  8
#Layer 1
 62
     1
370
     9
100
AcDbSpline
210
0.0
220
0.0
230
1.0
 70
     8
 71
     3
 72
     8
 73
     4
 74
     0
 42
0.0000000001
 43
0.0000000001
 40
0.0
 40
0.0
 40
0.0
 40
0.0
 40
1.0
 40
1.0
 40
1.0
 40
1.0
 10
-27.2397
 20
81.1516
 30
0.0
 10
-27.2397
 20
82.0284
 30
0.0
 10
-26.529
 20
82.7391
 30
0.0
 10
-25.6522
 20
82.7391
 30
0.0
  0
SPLINE
  5
76
330
1F
100
AcDbEntity
  8
#Layer 1
 62
     1
370
     9
100
AcDbSpline
210
0.0
220
0.0
230
1.0
 70
    24
 71
     3
 72
     8
 73
     4
 74
     0
 42
0.0000000001
 43
0.0000000001
 40
0.0
 40
0.0
 40
0.0
 40
0.0
 40
1.0
 40
1.0
 40
1.0
 40
1.0
 10
-25.6522
 20
82.7391
 30
0.0
 10
-25.6522
 20
82.7391
 30
0.0
 10
-8.827
 20
82.7391
 30
0.0
 10
-8.827
 20
82.7391
 30
0.0
  0
SPLINE
  5
77
330
1F
100
AcDbEntity
  8
#Layer 1
 62
     1
370
     9
100
AcDbSpline
210
0.0
220
0.0
230
1.0
 70
     8
 71
     3
 72
     8
 73
     4
 74
     0
 42
0.0000000001
 43
0.0000000001
 40
0.0
 40
0.0
 40
0.0
 40
0.0
 40
1.0
 40
1.0
 40
1.0
 40
1.0
 10
-8.827
 20
82.7391
 30
0.0
 10
-7.9506
 20
82.7391
 30
0.0
 10
-7.2395
 20
82.0284
 30
0.0
 10
-7.2395
 20
81.1516
 30
0.0
  0
SPLINE
  5
78
330
1F
100
AcDbEntity
  8
#Layer 1
 62
     1
370
     9
100
AcDbSpline
210
0.0
220
0.0
230
1.0
 70
     8
 71
     3
 72
   144
 73
   140
 74
     0
 42
0.0000000001
 43
0.0000000001
 40
0.0
 40
0.0
 40
0.0
 40
0.0
 40
0.0277777777777778
 40
0.0277777777777778
 40
0.0277777777777778
 40
0.0277777777777778
 40
0.0555555555555556
 40
0.0555555555555556
 40
0.0555555555555556
 40
0.0555555555555556
 40
0.0833333333333333
 40
0.0833333333333333
 40
0.0833333333333333
 40
0.0833333333333333
 40
0.1111111111111111
 40
0.1111111111111111
 40
0.1111111111111111
 40
0.1111111111111111
 40
0.1388888888888889
 40
0.1388888888888889
 40
0.1388888888888889
 40
0.1388888888888889
 40
0.1666666666666667
 40
0.1666666666666667
 40
0.1666666666666667
 40
0.1666666666666667
 40
0.1944444444444444
 40
0.1944444444444444
 40
0.1944444444444444
 40
0.1944444444444444
 40
0.2222222222222222
 40
0.2222222222222222
 40
0.2222222222222222
 40
0.2222222222222222
 40
0.25
 40
0.25
 40
0.25
 40
0.25
 40
0.2777777777777778
 40
0.2777777777777778
 40
0.2777777777777778
 40
0.2777777777777778
 40
0.3055555555555556
 40
0.3055555555555556
 40
0.3055555555555556
 40
0.3055555555555556
 40
0.3333333333333333
 40
0.3333333333333333
 40
0.3333333333333333
 40
0.3333333333333333
 40
0.3611111111111111
 40
0.3611111111111111
 40
0.3611111111111111
 40
0.3611111111111111
 40
0.3888888888888889
 40
0.3888888888888889
 40
0.3888888888888889
 40
0.3888888888888889
 40
0.4166666666666667
 40
0.4166666666666667
 40
0.4166666666666667
 40
0.4166666666666667
 40
0.4444444444444444
 40
0.4444444444444444
 40
0.4444444444444444
 40
0.4444444444444444
 40
0.4722222222222222
 40
0.4722222222222222
 40
0.4722222222222222
 40
0.4722222222222222
 40
0.5
 40
0.5
 40
0.5
 40
0.5
 40
0.5277777777777778
 40
0.5277777777777778
 40
0.5277777777777778
 40
0.5277777777777778
 40
0.5555555555555556
 40
0.5555555555555556
 40
0.5555555555555556
 40
0.5555555555555556
 40
0.5833333333333334
 40
0.5833333333333334
 40
0.5833333333333334
 40
0.5833333333333334
 40
0.6111111111111112
 40
0.6111111111111112
 40
0.6111111111111112
 40
0.6111111111111112
 40
0.6388888888888888
 40
0.6388888888888888
 40
0.6388888888888888
 40
0.6388888888888888
 40
0.6666666666666666
 40
0.6666666666666666
 40
0.6666666666666666
 40
0.6666666666666666
 40
0.6944444444444444
 40
0.6944444444444444
 40
0.6944444444444444
 40
0.6944444444444444
 40
0.7222222222222222
 40
0.7222222222222222
 40
0.7222222222222222
 40
0.7222222222222222
 40
0.75
 40
0.75
 40
0.75
 40
0.75
 40
0.7777777777777778
 40
0.7777777777777778
 40
0.7777777777777778
 40
0.7777777777777778
 40
0.8055555555555556
 40
0.8055555555555556
 40
0.8055555555555556
 40
0.8055555555555556
 40
0.8333333333333334
 40
0.8333333333333334
 40
0.8333333333333334
 40
0.8333333333333334
 40
0.8611111111111112
 40
0.8611111111111112
 40
0.8611111111111112
 40
0.8611111111111112
 40
0.8888888888888888
 40
0.8888888888888888
 40
0.8888888888888888
 40
0.8888888888888888
 40
0.9166666666666666
 40
0.9166666666666666
 40
0.9166666666666666
 40
0.9166666666666666
 40
0.9444444444444444
 40
0.9444444444444444
 40
0.9444444444444444
 40
0.9444444444444444
 40
1.0
 40
1.0
 40
1.0
 40
1.0
 10
-7.2395
 20
81.1516
 30
0.0
 10
-7.2395
 20
81.1516
 30
0.0
 10
-7.2395
 20
73.2141
 30
0.0
 10
-7.2395
 20
73.2141
 30
0.0
 10
-7.2395
 20
73.2141
 30
0.0
 10
-7.2395
 20
73.2141
 30
0.0
 10
135.1601
 20
73.2141
 30
0.0
 10
135.1601
 20
73.2141
 30
0.0
 10
135.1601
 20
73.2141
 30
0.0
 10
135.1601
 20
73.2141
 30
0.0
 10
135.1601
 20
60.5141
 30
0.0
 10
135.1601
 20
60.5141
 30
0.0
 10
135.1601
 20
60.5141
 30
0.0
 10
135.1601
 20
60.5141
 30
0.0
 10
138.3351
 20
60.5141
 30
0.0
 10
138.3351
 20
60.5141
 30
0.0
 10
138.3351
 20
60.5141
 30
0.0
 10
138.3351
 20
60.5141
 30
0.0
 10
138.3351
 20
47.8141
 30
0.0
 10
138.3351
 20
47.8141
 30
0.0
 10
138.3351
 20
47.8141
 30
0.0
 10
138.3351
 20
47.8141
 30
0.0
 10
135.1601
 20
47.8141
 30
0.0
 10
135.1601
 20
47.8141
 30
0.0
 10
135.1601
 20
47.8141
 30
0.0
 10
135.1601
 20
47.8141
 30
0.0
 10
135.1601
 20
31.9391
 30
0.0
 10
135.1601
 20
31.9391
 30
0.0
 10
135.1601
 20
31.9391
 30
0.0
 10
135.1601
 20
31.9391
 30
0.0
 10
107.4511
 20
31.9391
 30
0.0
 10
107.4511
 20
31.9391
 30
0.0
 10
107.4511
 20
31.9391
 30
0.0
 10
107.4511
 20
31.9391
 30
0.0
 10
107.4511
 20
35.1141
 30
0.0
 10
107.4511
 20
35.1141
 30
0.0
 10
107.4511
 20
35.1141
 30
0.0
 10
107.4511
 20
35.1141
 30
0.0
 10
79.7422
 20
35.1141
 30
0.0
 10
79.7422
 20
35.1141
 30
0.0
 10
79.7422
 20
35.1141
 30
0.0
 10
79.7422
 20
35.1141
 30
0.0
 10
79.7422
 20
31.9391
 30
0.0
 10
79.7422
 20
31.9391
 30
0.0
 10
79.7422
 20
31.9391
 30
0.0
 10
79.7422
 20
31.9391
 30
0.0
 10
52.0326
 20
31.9391
 30
0.0
 10
52.0326
 20
31.9391
 30
0.0
 10
52.0326
 20
31.9391
 30
0.0
 10
52.0326
 20
31.9391
 30
0.0
 10
52.0326
 20
35.1141
 30
0.0
 10
52.0326
 20
35.1141
 30
0.0
 10
52.0326
 20
35.1141
 30
0.0
 10
52.0326
 20
35.1141
 30
0.0
 10
24.3237
 20
35.1141
 30
0.0
 10
24.3237
 20
35.1141
 30
0.0
 10
24.3237
 20
35.1141
 30
0.0
 10
24.3237
 20
35.1141
 30
0.0
 10
24.3237
 20
31.9391
 30
0.0
 10
24.3237
 20
31.9391
 30
0.0
 10
24.3237
 20
31.9391
 30
0.0
 10
24.3237
 20
31.9391
 30
0.0
 10
-3.3851
 20
31.9391
 30
0.0
 10
-3.3851
 20
31.9391
 30
0.0
 10
-3.3851
 20
31.9391
 30
0.0
 10
-3.3851
 20
31.9391
 30
0.0
 10
-3.3851
 20
35.1141
 30
0.0
 10
-3.3851
 20
35.1141
 30
0.0
 10
-3.3851
 20
35.1141
 30
0.0
 10
-3.3851
 20
35.1141
 30
0.0
 10
-31.0944
 20
35.1141
 30
0.0
 10
-31.0944
 20
35.1141
 30
0.0
 10
-31.0944
 20
35.1141
 30
0.0
 10
-31.0944
 20
35.1141
 30
0.0
 10
-31.0944
 20
31.9391
 30
0.0
 10
-31.0944
 20
31.9391
 30
0.0
 10
-31.0944
 20
31.9391
 30
0.0
 10
-31.0944
 20
31.9391
 30
0.0
 10
-58.8036
 20
31.9391
 30
0.0
 10
-58.8036
 20
31.9391
 30
0.0
 10
-58.8036
 20
31.9391
 30
0.0
 10
-58.8036
 20
31.9391
 30
0.0
 10
-58.8036
 20
35.1141
 30
0.0
 10
-58.8036
 20
35.1141
 30
0.0
 10
-58.8036
 20
35.1141
 30
0.0
 10
-58.8036
 20
35.1141
 30
0.0
 10
-86.5125
 20
35.1141
 30
0.0
 10
-86.5125
 20
35.1141
 30
0.0
 10
-86.5125
 20
35.1141
 30
0.0
 10
-86.5125
 20
35.1141
 30
0.0
 10
-86.5125
 20
31.9391
 30
0.0
 10
-86.5125
 20
31.9391
 30
0.0
 10
-86.5125
 20
31.9391
 30
0.0
 10
-86.5125
 20
31.9391
 30
0.0
 10
-114.2216
 20
31.9391
 30
0.0
 10
-114.2216
 20
31.9391
 30
0.0
 10
-114.2216
 20
31.9391
 30
0.0
 10
-114.2216
 20
31.9391
 30
0.0
 10
-114.2216
 20
35.1141
 30
0.0
 10
-114.2216
 20
35.1141
 30
0.0
 10
-114.2216
 20
35.1141
 30
0.0
 10
-114.2216
 20
35.1141
 30
0.0
 10
-141.9307
 20
35.1141
 30
0.0
 10
-141.9307
 20
35.1141
 30
0.0
 10
-141.9307
 20
35.1141
 30
0.0
 10
-141.9307
 20
35.1141
 30
0.0
 10
-141.9307
 20
31.9391
 30
0.0
 10
-141.9307
 20
31.9391
 30
0.0
 10
-141.9307
 20
31.9391
 30
0.0
 10
-141.9307
 20
31.9391
 30
0.0
 10
-169.6398
 20
31.9391
 30
0.0
 10
-169.6398
 20
31.9391
 30
0.0
 10
-169.6398
 20
31.9391
 30
0.0
 10
-169.6398
 20
31.9391
 30
0.0
 10
-169.6398
 20
47.8141
 30
0.0
 10
-169.6398
 20
47.8141
 30
0.0
 10
-169.6398
 20
47.8141
 30
0.0
 10
-169.6398
 20
47.8141
 30
0.0
 10
-172.8148
 20
47.8141
 30
0.0
 10
-172.8148
 20
47.8141
 30
0.0
 10
-172.8148
 20
47.8141
 30
0.0
 10
-172.8148
 20
47.8141
 30
0.0
 10
-172.8148
 20
60.5141
 30
0.0
 10
-172.8148
 20
60.5141
 30
0.0
 10
-172.8148
 20
60.5141
 30
0.0
 10
-172.8148
 20
60.5141
 30
0.0
 10
-169.6398
 20
60.5141
 30
0.0
 10
-169.6398
 20
60.5141
 30
0.0
 10
-169.6398
 20
60.5141
 30
0.0
 10
-169.6398
 20
60.5141
 30
0.0
 10
-169.6398
 20
73.2141
 30
0.0
 10
-169.6398
 20
73.2141
 30
0.0
 10
-169.6398
 20
73.2141
 30
0.0
 10
-169.6398
 20
73.2141
 30
0.0
 10
-27.2397
 20
73.2141
 30
0.0
 10
-27.2397
 20
73.2141
 30
0.0
 10
-27.2397
 20
73.2141
 30
0.0
 10
-27.2397
 20
73.2141
 30
0.0
 10
-27.2397
 20
81.1516
 30
0.0
 10
-27.2397
 20
81.1516
 30
0.0
  0
ENDSEC
  0
SECTION
  2
OBJECTS
  0
DICTIONARY
  5
C
330
0
100
AcDbDictionary
281
     1
  3
ACAD_GROUP
350
D
  3
ACAD_LAYOUT
350
1A
  3
ACAD_MATERIAL
350
3B
  3
ACAD_MLEADERSTYLE
350
9A
  3
ACAD_MLINESTYLE
350
17
  3
ACAD_PLOTSETTINGS
350
19
  3
ACAD_PLOTSTYLENAME
350
E
  3
ACAD_TABLESTYLE
350
99
  3
ACAD_VISUALSTYLE
350
2A
  0
DICTIONARY
  5
D
102
{ACAD_REACTORS
330
C
102
}
330
C
100
AcDbDictionary
281
     1
  0
DICTIONARY
  5
1A
102
{ACAD_REACTORS
330
C
102
}
330
C
100
AcDbDictionary
281
     1
  3
Layout1
350
1E
  3
Layout2
350
26
  3
Model
350
22
  0
DICTIONARY
  5
3B
102
{ACAD_REACTORS
330
C
102
}
330
C
100
AcDbDictionary
281
     1
  3
ByBlock
350
3D
  3
ByLayer
350
3C
  3
Global
350
3E
  0
DICTIONARY
  5
9A
102
{ACAD_REACTORS
330
C
102
}
330
C
100
AcDbDictionary
281
     1
  0
DICTIONARY
  5
17
102
{ACAD_REACTORS
330
C
102
}
330
C
100
AcDbDictionary
281
     1
  3
Standard
350
18
  0
DICTIONARY
  5
19
102
{ACAD_REACTORS
330
C
102
}
330
C
100
AcDbDictionary
281
     1
  0
ACDBDICTIONARYWDFLT
  5
E
102
{ACAD_REACTORS
330
C
102
}
330
C
100
AcDbDictionary
281
     1
  3
Normal
350
F
100
AcDbDictionaryWithDefault
340
F
  0
DICTIONARY
  5
99
102
{ACAD_REACTORS
330
C
102
}
330
C
100
AcDbDictionary
281
     1
  0
DICTIONARY
  5
2A
102
{ACAD_REACTORS
330
C
102
}
330
C
100
AcDbDictionary
281
     1
  3
2dWireframe
350
2F
  3
3D Hidden
350
31
  3
3dWireframe
350
30
  3
Basic
350
32
  3
Brighten
350
36
  3
ColorChange
350
3A
  3
Conceptual
350
34
  3
Dim
350
35
  3
Facepattern
350
39
  3
Flat
350
2B
  3
FlatWithEdges
350
2C
  3
Gouraud
350
2D
  3
GouraudWithEdges
350
2E
  3
Linepattern
350
38
  3
Realistic
350
33
  3
Thicken
350
37
  0
LAYOUT
  5
1E
102
{ACAD_REACTORS
330
1A
102
}
330
1A
100
AcDbPlotSettings
  1

  2
none_device
  4

  6

 40
0.0
 41
0.0
 42
0.0
 43
0.0
 44
0.0
 45
0.0
 46
0.0
 47
0.0
 48
0.0
 49
0.0
140
0.0
141
0.0
142
1.0
143
1.0
 70
   688
 72
     0
 73
     0
 74
     5
  7

 75
    16
 76
     0
 77
     2
 78
   300
147
1.0
148
0.0
149
0.0
100
AcDbLayout
  1
Layout1
 70
     1
 71
     1
 10
0.0
 20
0.0
 11
12.0
 21
9.0
 12
0.0
 22
0.0
 32
0.0
 14
1.000000000000000E+20
 24
1.000000000000000E+20
 34
1.000000000000000E+20
 15
-1.000000000000000E+20
 25
-1.000000000000000E+20
 35
-1.000000000000000E+20
146
0.0
 13
0.0
 23
0.0
 33
0.0
 16
1.0
 26
0.0
 36
0.0
 17
0.0
 27
1.0
 37
0.0
 76
     0
330
1B
  0
LAYOUT
  5
26
102
{ACAD_REACTORS
330
1A
102
}
330
1A
100
AcDbPlotSettings
  1

  2
none_device
  4

  6

 40
0.0
 41
0.0
 42
0.0
 43
0.0
 44
0.0
 45
0.0
 46
0.0
 47
0.0
 48
0.0
 49
0.0
140
0.0
141
0.0
142
1.0
143
1.0
 70
   688
 72
     0
 73
     0
 74
     5
  7

 75
    16
 76
     0
 77
     2
 78
   300
147
1.0
148
0.0
149
0.0
100
AcDbLayout
  1
Layout2
 70
     1
 71
     2
 10
0.0
 20
0.0
 11
0.0
 21
0.0
 12
0.0
 22
0.0
 32
0.0
 14
0.0
 24
0.0
 34
0.0
 15
0.0
 25
0.0
 35
0.0
146
0.0
 13
0.0
 23
0.0
 33
0.0
 16
1.0
 26
0.0
 36
0.0
 17
0.0
 27
1.0
 37
0.0
 76
     0
330
23
  0
LAYOUT
  5
22
102
{ACAD_REACTORS
330
1A
102
}
330
1A
100
AcDbPlotSettings
  1

  2
none_device
  4

  6

 40
0.0
 41
0.0
 42
0.0
 43
0.0
 44
0.0
 45
0.0
 46
0.0
 47
0.0
 48
0.0
 49
0.0
140
0.0
141
0.0
142
1.0
143
1.0
 70
  1712
 72
     0
 73
     0
 74
     0
  7

 75
     0
 76
     0
 77
     2
 78
   300
147
1.0
148
0.0
149
0.0
100
AcDbLayout
  1
Model
 70
     1
 71
     0
 10
0.0
 20
0.0
 11
12.0
 21
9.0
 12
0.0
 22
0.0
 32
0.0
 14
-172.8529
 24
-83.0113
 34
0.0
 15
172.6636
 25
82.7772
 35
0.0
146
0.0
 13
0.0
 23
0.0
 33
0.0
 16
1.0
 26
0.0
 36
0.0
 17
0.0
 27
1.0
 37
0.0
 76
     0
330
1F
331
29
  0
MATERIAL
  5
3D
102
{ACAD_REACTORS
330
3B
102
}
330
3B
100
AcDbMaterial
  1
ByBlock
 72
     1
 94
      127
  0
MATERIAL
  5
3C
102
{ACAD_REACTORS
330
3B
102
}
330
3B
100
AcDbMaterial
  1
ByLayer
 72
     1
 94
      127
  0
MATERIAL
  5
3E
102
{ACAD_REACTORS
330
3B
102
}
330
3B
100
AcDbMaterial
  1
Global
 72
     1
 94
      127
  0
MLINESTYLE
  5
18
102
{ACAD_REACTORS
330
17
102
}
330
17
100
AcDbMlineStyle
  2
Standard
 70
     0
  3

 62
   256
 51
90.0
 52
90.0
 71
     2
 49
0.5
 62
   256
  6
BYLAYER
 49
-0.5
 62
   256
  6
BYLAYER
  0
ACDBPLACEHOLDER
  5
F
102
{ACAD_REACTORS
330
E
102
}
330
E
  0
VISUALSTYLE
  5
2F
102
{ACAD_REACTORS
330
2A
102
}
102
{ACAD_XDICTIONARY
360
81
102
}
330
2A
100
AcDbVisualStyle
  2
2dWireframe
 70
     4
 71
     0
 72
     2
 73
     0
 90
        0
 40
-0.6
 41
-30.0
 62
     5
 63
     7
421
 16777215
 74
     1
 91
        4
 64
     7
 65
   257
 75
     1
175
     1
 42
1.0
 92
        0
 66
   257
 43
1.0
 76
     1
 77
     6
 78
     2
 67
     7
 79
     5
170
     0
171
     0
290
     0
174
     0
 93
        1
 44
0.0
173
     0
291
     0
 45
0.0
  0
VISUALSTYLE
  5
31
102
{ACAD_REACTORS
330
2A
102
}
102
{ACAD_XDICTIONARY
360
85
102
}
330
2A
100
AcDbVisualStyle
  2
3D Hidden
 70
     6
 71
     1
 72
     2
 73
     2
 90
        0
 40
-0.6
 41
-30.0
 62
     5
 63
     7
421
 16777215
 74
     2
 91
        2
 64
     7
 65
   257
 75
     2
175
     1
 42
40.0
 92
        0
 66
   257
 43
1.0
 76
     1
 77
     6
 78
     2
 67
     7
 79
     3
170
     0
171
     0
290
     0
174
     0
 93
        1
 44
0.0
173
     0
291
     0
 45
0.0
  0
VISUALSTYLE
  5
30
102
{ACAD_REACTORS
330
2A
102
}
102
{ACAD_XDICTIONARY
360
83
102
}
330
2A
100
AcDbVisualStyle
  2
3dWireframe
 70
     5
 71
     0
 72
     2
 73
     0
 90
        0
 40
-0.6
 41
-30.0
 62
     5
 63
     7
421
 16777215
 74
     1
 91
        4
 64
     7
 65
   257
 75
     1
175
     1
 42
1.0
 92
        0
 66
   257
 43
1.0
 76
     1
 77
     6
 78
     2
 67
     7
 79
     5
170
     0
171
     0
290
     0
174
     0
 93
        1
 44
0.0
173
     0
291
     0
 45
0.0
  0
VISUALSTYLE
  5
32
102
{ACAD_REACTORS
330
2A
102
}
102
{ACAD_XDICTIONARY
360
87
102
}
330
2A
100
AcDbVisualStyle
  2
Basic
 70
     7
 71
     1
 72
     0
 73
     1
 90
        0
 40
-0.6
 41
-30.0
 62
     5
 63
     7
421
 16777215
 74
     0
 91
        4
 64
     7
 65
   257
 75
     1
175
     1
 42
1.0
 92
        8
 66
     7
 43
1.0
 76
     1
 77
     6
 78
     2
 67
     7
 79
     5
170
     0
171
     0
290
     0
174
     0
 93
        1
 44
0.0
173
     0
291
     1
 45
0.0
  0
VISUALSTYLE
  5
36
102
{ACAD_REACTORS
330
2A
102
}
102
{ACAD_XDICTIONARY
360
8F
102
}
330
2A
100
AcDbVisualStyle
  2
Brighten
 70
    12
 71
     2
 72
     2
 73
     0
 90
        0
 40
-0.6
 41
-30.0
 62
     5
 63
     7
421
 16777215
 74
     1
 91
        4
 64
     7
 65
   257
 75
     1
175
     1
 42
1.0
 92
        8
 66
     7
 43
1.0
 76
     1
 77
     6
 78
     2
 67
     7
 79
     5
170
     0
171
     0
290
     0
174
     0
 93
        1
 44
50.0
173
     0
291
     1
 45
0.0
  0
VISUALSTYLE
  5
3A
102
{ACAD_REACTORS
330
2A
102
}
102
{ACAD_XDICTIONARY
360
97
102
}
330
2A
100
AcDbVisualStyle
  2
ColorChange
 70
    16
 71
     2
 72
     2
 73
     3
 90
        0
 40
-0.6
 41
-30.0
 62
     5
 63
     8
421
  8421504
 74
     1
 91
        4
 64
     7
 65
   257
 75
     1
175
     1
 42
1.0
 92
        8
 66
     8
424
  8421504
 43
1.0
 76
     1
 77
     6
 78
     2
 67
     7
 79
     5
170
     0
171
     0
290
     0
174
     0
 93
        1
 44
0.0
173
     0
291
     1
 45
0.0
  0
VISUALSTYLE
  5
34
102
{ACAD_REACTORS
330
2A
102
}
102
{ACAD_XDICTIONARY
360
8B
102
}
330
2A
100
AcDbVisualStyle
  2
Conceptual
 70
     9
 71
     3
 72
     2
 73
     0
 90
        0
 40
-0.6
 41
-30.0
 62
     5
 63
     7
421
 16777215
 74
     2
 91
        2
 64
     7
 65
   257
 75
     1
175
     1
 42
40.0
 92
        8
 66
     7
 43
1.0
 76
     1
 77
     6
 78
     2
 67
     7
 79
     3
170
     0
171
     0
290
     0
174
     0
 93
        1
 44
0.0
173
     0
291
     0
 45
0.0
  0
VISUALSTYLE
  5
35
102
{ACAD_REACTORS
330
2A
102
}
102
{ACAD_XDICTIONARY
360
8D
102
}
330
2A
100
AcDbVisualStyle
  2
Dim
 70
    11
 71
     2
 72
     2
 73
     0
 90
        0
 40
-0.6
 41
-30.0
 62
     5
 63
     7
421
 16777215
 74
     1
 91
        4
 64
     7
 65
   257
 75
     1
175
     1
 42
1.0
 92
        8
 66
     7
 43
1.0
 76
     1
 77
     6
 78
     2
 67
     7
 79
     5
170
     0
171
     0
290
     0
174
     0
 93
        1
 44
-50.0
173
     0
291
     1
 45
0.0
  0
VISUALSTYLE
  5
39
102
{ACAD_REACTORS
330
2A
102
}
102
{ACAD_XDICTIONARY
360
95
102
}
330
2A
100
AcDbVisualStyle
  2
Facepattern
 70
    15
 71
     2
 72
     2
 73
     0
 90
        0
 40
-0.6
 41
-30.0
 62
     5
 63
     7
421
 16777215
 74
     1
 91
        4
 64
     7
 65
   257
 75
     1
175
     1
 42
1.0
 92
        8
 66
     7
 43
1.0
 76
     1
 77
     6
 78
     2
 67
     7
 79
     5
170
     0
171
     0
290
     0
174
     0
 93
        1
 44
0.0
173
     0
291
     1
 45
0.0
  0
VISUALSTYLE
  5
2B
102
{ACAD_REACTORS
330
2A
102
}
102
{ACAD_XDICTIONARY
360
79
102
}
330
2A
100
AcDbVisualStyle
  2
Flat
 70
     0
 71
     2
 72
     1
 73
     1
 90
        2
 40
-0.6
 41
30.0
 62
     5
 63
     7
421
 16777215
 74
     0
 91
        4
 64
     7
 65
   257
 75
     1
175
     1
 42
1.0
 92
        8
 66
     7
 43
1.0
 76
     1
 77
     6
 78
     2
 67
     7
 79
     5
170
     0
171
     0
290
     0
174
     0
 93
       13
 44
0.0
173
     0
291
     1
 45
0.0
  0
VISUALSTYLE
  5
2C
102
{ACAD_REACTORS
330
2A
102
}
102
{ACAD_XDICTIONARY
360
7B
102
}
330
2A
100
AcDbVisualStyle
  2
FlatWithEdges
 70
     1
 71
     2
 72
     1
 73
     1
 90
        2
 40
-0.6
 41
30.0
 62
     5
 63
     7
421
 16777215
 74
     1
 91
        4
 64
     7
 65
   257
 75
     1
175
     1
 42
1.0
 92
        0
 66
   257
 43
1.0
 76
     1
 77
     6
 78
     2
 67
     7
 79
     5
170
     0
171
     0
290
     0
174
     0
 93
       13
 44
0.0
173
     0
291
     1
 45
0.0
  0
VISUALSTYLE
  5
2D
102
{ACAD_REACTORS
330
2A
102
}
102
{ACAD_XDICTIONARY
360
7D
102
}
330
2A
100
AcDbVisualStyle
  2
Gouraud
 70
     2
 71
     2
 72
     2
 73
     1
 90
        2
 40
-0.6
 41
30.0
 62
     5
 63
     7
421
 16777215
 74
     0
 91
        4
 64
     7
 65
   257
 75
     1
175
     1
 42
1.0
 92
        0
 66
     7
 43
1.0
 76
     1
 77
     6
 78
     2
 67
     7
 79
     5
170
     0
171
     0
290
     0
174
     0
 93
       13
 44
0.0
173
     0
291
     1
 45
0.0
  0
VISUALSTYLE
  5
2E
102
{ACAD_REACTORS
330
2A
102
}
102
{ACAD_XDICTIONARY
360
7F
102
}
330
2A
100
AcDbVisualStyle
  2
GouraudWithEdges
 70
     3
 71
     2
 72
     2
 73
     1
 90
        2
 40
-0.6
 41
30.0
 62
     5
 63
     7
421
 16777215
 74
     1
 91
        4
 64
     7
 65
   257
 75
     1
175
     1
 42
1.0
 92
        0
 66
   257
 43
1.0
 76
     1
 77
     6
 78
     2
 67
     7
 79
     5
170
     0
171
     0
290
     0
174
     0
 93
       13
 44
0.0
173
     0
291
     1
 45
0.0
  0
VISUALSTYLE
  5
38
102
{ACAD_REACTORS
330
2A
102
}
102
{ACAD_XDICTIONARY
360
93
102
}
330
2A
100
AcDbVisualStyle
  2
Linepattern
 70
    14
 71
     2
 72
     2
 73
     0
 90
        0
 40
-0.6
 41
-30.0
 62
     5
 63
     7
421
 16777215
 74
     1
 91
        4
 64
     7
 65
   257
 75
     7
175
     7
 42
1.0
 92
        8
 66
     7
 43
1.0
 76
     1
 77
     6
 78
     2
 67
     7
 79
     5
170
     0
171
     0
290
     0
174
     0
 93
        1
 44
0.0
173
     0
291
     1
 45
0.0
  0
VISUALSTYLE
  5
33
102
{ACAD_REACTORS
330
2A
102
}
102
{ACAD_XDICTIONARY
360
89
102
}
330
2A
100
AcDbVisualStyle
  2
Realistic
 70
     8
 71
     2
 72
     2
 73
     0
 90
        0
 40
-0.6
 41
-30.0
 62
     5
 63
     7
421
 16777215
 74
     1
 91
        0
 64
     7
 65
   257
 75
     1
175
     1
 42
1.0
 92
        8
 66
     8
424
  7895160
 43
1.0
 76
     1
 77
     6
 78
     2
 67
     7
 79
     5
170
     0
171
     0
290
     0
174
     0
 93
       13
 44
0.0
173
     0
291
     0
 45
0.0
  0
VISUALSTYLE
  5
37
102
{ACAD_REACTORS
330
2A
102
}
102
{ACAD_XDICTIONARY
360
91
102
}
330
2A
100
AcDbVisualStyle
  2
Thicken
 70
    13
 71
     2
 72
     2
 73
     0
 90
        0
 40
-0.6
 41
-30.0
 62
     5
 63
     7
421
 16777215
 74
     1
 91
        4
 64
     7
 65
   257
 75
     1
175
     1
 42
1.0
 92
       12
 66
     7
 43
1.0
 76
     1
 77
     6
 78
     2
 67
     7
 79
     5
170
     0
171
     0
290
     0
174
     0
 93
        1
 44
0.0
173
     0
291
     1
 45
0.0
  0
DICTIONARY
  5
81
330
2F
100
AcDbDictionary
280
     1
281
     1
  3
ACAD_XREC_ROUNDTRIP
360
82
  0
DICTIONARY
  5
85
330
31
100
AcDbDictionary
280
     1
281
     1
  3
ACAD_XREC_ROUNDTRIP
360
86
  0
DICTIONARY
  5
83
330
30
100
AcDbDictionary
280
     1
281
     1
  3
ACAD_XREC_ROUNDTRIP
360
84
  0
DICTIONARY
  5
87
330
32
100
AcDbDictionary
280
     1
281
     1
  3
ACAD_XREC_ROUNDTRIP
360
88
  0
DICTIONARY
  5
8F
330
36
100
AcDbDictionary
280
     1
281
     1
  3
ACAD_XREC_ROUNDTRIP
360
90
  0
DICTIONARY
  5
97
330
3A
100
AcDbDictionary
280
     1
281
     1
  3
ACAD_XREC_ROUNDTRIP
360
98
  0
DICTIONARY
  5
8B
330
34
100
AcDbDictionary
280
     1
281
     1
  3
ACAD_XREC_ROUNDTRIP
360
8C
  0
DICTIONARY
  5
8D
330
35
100
AcDbDictionary
280
     1
281
     1
  3
ACAD_XREC_ROUNDTRIP
360
8E
  0
DICTIONARY
  5
95
330
39
100
AcDbDictionary
280
     1
281
     1
  3
ACAD_XREC_ROUNDTRIP
360
96
  0
DICTIONARY
  5
79
330
2B
100
AcDbDictionary
280
     1
281
     1
  3
ACAD_XREC_ROUNDTRIP
360
7A
  0
DICTIONARY
  5
7B
330
2C
100
AcDbDictionary
280
     1
281
     1
  3
ACAD_XREC_ROUNDTRIP
360
7C
  0
DICTIONARY
  5
7D
330
2D
100
AcDbDictionary
280
     1
281
     1
  3
ACAD_XREC_ROUNDTRIP
360
7E
  0
DICTIONARY
  5
7F
330
2E
100
AcDbDictionary
280
     1
281
     1
  3
ACAD_XREC_ROUNDTRIP
360
80
  0
DICTIONARY
  5
93
330
38
100
AcDbDictionary
280
     1
281
     1
  3
ACAD_XREC_ROUNDTRIP
360
94
  0
DICTIONARY
  5
89
330
33
100
AcDbDictionary
280
     1
281
     1
  3
ACAD_XREC_ROUNDTRIP
360
8A
  0
DICTIONARY
  5
91
330
37
100
AcDbDictionary
280
     1
281
     1
  3
ACAD_XREC_ROUNDTRIP
360
92
  0
XRECORD
  5
82
102
{ACAD_REACTORS
330
81
102
}
330
81
100
AcDbXrecord
280
     1
102
RTVSPropertyOp0
 70
     1
102
RTVSPropertyOp1
 70
     1
102
RTVSPropertyOp2
 70
     1
102
RTVSPropertyOp3
 70
     1
102
RTVSPropertyOp4
 70
     1
102
RTVSPropertyOp5
 70
     1
102
RTVSPropertyOp6
 70
     1
102
RTVSPropertyOp7
 70
     1
102
RTVSPropertyOp8
 70
     1
102
RTVSPropertyOp9
 70
     1
102
RTVSPropertyOp10
 70
     1
102
RTVSPropertyOp11
 70
     1
102
RTVSPropertyOp12
 70
     1
102
RTVSPropertyOp13
 70
     1
102
RTVSPropertyOp14
 70
     1
102
RTVSPropertyOp15
 70
     1
102
RTVSPropertyOp16
 70
     1
102
RTVSPropertyOp17
 70
     1
102
RTVSPropertyOp18
 70
     1
102
RTVSPropertyOp19
 70
     1
102
RTVSPropertyOp20
 70
     1
102
RTVSPropertyOp21
 70
     1
102
RTVSPropertyOp22
 70
     1
102
RTVSPropertyOp23
 70
     1
102
RTVSPropertyOp24
 70
     1
102
RTVSPropertyOp25
 70
     1
102
RTVSPropertyOp26
 70
     1
102
RTVSPropertyOp27
 70
     1
  0
XRECORD
  5
86
102
{ACAD_REACTORS
330
85
102
}
330
85
100
AcDbXrecord
280
     1
102
RTVSPropertyOp0
 70
     1
102
RTVSPropertyOp1
 70
     1
102
RTVSPropertyOp2
 70
     1
102
RTVSPropertyOp3
 70
     1
102
RTVSPropertyOp4
 70
     1
102
RTVSPropertyOp5
 70
     1
102
RTVSPropertyOp6
 70
     1
102
RTVSPropertyOp7
 70
     1
102
RTVSPropertyOp8
 70
     1
102
RTVSPropertyOp9
 70
     1
102
RTVSPropertyOp10
 70
     1
102
RTVSPropertyOp11
 70
     1
102
RTVSPropertyOp12
 70
     1
102
RTVSPropertyOp13
 70
     1
102
RTVSPropertyOp14
 70
     1
102
RTVSPropertyOp15
 70
     1
102
RTVSPropertyOp16
 70
     1
102
RTVSPropertyOp17
 70
     1
102
RTVSPropertyOp18
 70
     1
102
RTVSPropertyOp19
 70
     1
102
RTVSPropertyOp20
 70
     1
102
RTVSPropertyOp21
 70
     1
102
RTVSPropertyOp22
 70
     1
102
RTVSPropertyOp23
 70
     1
102
RTVSPropertyOp24
 70
     1
102
RTVSPropertyOp25
 70
     1
102
RTVSPropertyOp26
 70
     1
102
RTVSPropertyOp27
 70
     1
  0
XRECORD
  5
84
102
{ACAD_REACTORS
330
83
102
}
330
83
100
AcDbXrecord
280
     1
102
RTVSPropertyOp0
 70
     1
102
RTVSPropertyOp1
 70
     1
102
RTVSPropertyOp2
 70
     1
102
RTVSPropertyOp3
 70
     1
102
RTVSPropertyOp4
 70
     1
102
RTVSPropertyOp5
 70
     1
102
RTVSPropertyOp6
 70
     1
102
RTVSPropertyOp7
 70
     1
102
RTVSPropertyOp8
 70
     1
102
RTVSPropertyOp9
 70
     1
102
RTVSPropertyOp10
 70
     1
102
RTVSPropertyOp11
 70
     1
102
RTVSPropertyOp12
 70
     1
102
RTVSPropertyOp13
 70
     1
102
RTVSPropertyOp14
 70
     1
102
RTVSPropertyOp15
 70
     1
102
RTVSPropertyOp16
 70
     1
102
RTVSPropertyOp17
 70
     1
102
RTVSPropertyOp18
 70
     1
102
RTVSPropertyOp19
 70
     1
102
RTVSPropertyOp20
 70
     1
102
RTVSPropertyOp21
 70
     1
102
RTVSPropertyOp22
 70
     1
102
RTVSPropertyOp23
 70
     1
102
RTVSPropertyOp24
 70
     1
102
RTVSPropertyOp25
 70
     1
102
RTVSPropertyOp26
 70
     1
102
RTVSPropertyOp27
 70
     1
  0
XRECORD
  5
88
102
{ACAD_REACTORS
330
87
102
}
330
87
100
AcDbXrecord
280
     1
102
RTVSPropertyOp0
 70
     1
102
RTVSPropertyOp1
 70
     1
102
RTVSPropertyOp2
 70
     1
102
RTVSPropertyOp3
 70
     1
102
RTVSPropertyOp4
 70
     1
102
RTVSPropertyOp5
 70
     1
102
RTVSPropertyOp6
 70
     1
102
RTVSPropertyOp7
 70
     1
102
RTVSPropertyOp8
 70
     1
102
RTVSPropertyOp9
 70
     1
102
RTVSPropertyOp10
 70
     1
102
RTVSPropertyOp11
 70
     1
102
RTVSPropertyOp12
 70
     1
102
RTVSPropertyOp13
 70
     1
102
RTVSPropertyOp14
 70
     1
102
RTVSPropertyOp15
 70
     1
102
RTVSPropertyOp16
 70
     1
102
RTVSPropertyOp17
 70
     1
102
RTVSPropertyOp18
 70
     1
102
RTVSPropertyOp19
 70
     1
102
RTVSPropertyOp20
 70
     1
102
RTVSPropertyOp21
 70
     1
102
RTVSPropertyOp22
 70
     1
102
RTVSPropertyOp23
 70
     1
102
RTVSPropertyOp24
 70
     1
102
RTVSPropertyOp25
 70
     1
102
RTVSPropertyOp26
 70
     1
102
RTVSPropertyOp27
 70
     1
  0
XRECORD
  5
90
102
{ACAD_REACTORS
330
8F
102
}
330
8F
100
AcDbXrecord
280
     1
102
RTVSPropertyOp0
 70
     1
102
RTVSPropertyOp1
 70
     1
102
RTVSPropertyOp2
 70
     1
102
RTVSPropertyOp3
 70
     1
102
RTVSPropertyOp4
 70
     1
102
RTVSPropertyOp5
 70
     1
102
RTVSPropertyOp6
 70
     1
102
RTVSPropertyOp7
 70
     1
102
RTVSPropertyOp8
 70
     1
102
RTVSPropertyOp9
 70
     1
102
RTVSPropertyOp10
 70
     1
102
RTVSPropertyOp11
 70
     1
102
RTVSPropertyOp12
 70
     1
102
RTVSPropertyOp13
 70
     1
102
RTVSPropertyOp14
 70
     1
102
RTVSPropertyOp15
 70
     1
102
RTVSPropertyOp16
 70
     1
102
RTVSPropertyOp17
 70
     1
102
RTVSPropertyOp18
 70
     1
102
RTVSPropertyOp19
 70
     1
102
RTVSPropertyOp20
 70
     1
102
RTVSPropertyOp21
 70
     1
102
RTVSPropertyOp22
 70
     1
102
RTVSPropertyOp23
 70
     1
102
RTVSPropertyOp24
 70
     1
102
RTVSPropertyOp25
 70
     1
102
RTVSPropertyOp26
 70
     1
102
RTVSPropertyOp27
 70
     1
  0
XRECORD
  5
98
102
{ACAD_REACTORS
330
97
102
}
330
97
100
AcDbXrecord
280
     1
102
RTVSPropertyOp0
 70
     1
102
RTVSPropertyOp1
 70
     1
102
RTVSPropertyOp2
 70
     1
102
RTVSPropertyOp3
 70
     1
102
RTVSPropertyOp4
 70
     1
102
RTVSPropertyOp5
 70
     1
102
RTVSPropertyOp6
 70
     1
102
RTVSPropertyOp7
 70
     1
102
RTVSPropertyOp8
 70
     1
102
RTVSPropertyOp9
 70
     1
102
RTVSPropertyOp10
 70
     1
102
RTVSPropertyOp11
 70
     1
102
RTVSPropertyOp12
 70
     1
102
RTVSPropertyOp13
 70
     1
102
RTVSPropertyOp14
 70
     1
102
RTVSPropertyOp15
 70
     1
102
RTVSPropertyOp16
 70
     1
102
RTVSPropertyOp17
 70
     1
102
RTVSPropertyOp18
 70
     1
102
RTVSPropertyOp19
 70
     1
102
RTVSPropertyOp20
 70
     1
102
RTVSPropertyOp21
 70
     1
102
RTVSPropertyOp22
 70
     1
102
RTVSPropertyOp23
 70
     1
102
RTVSPropertyOp24
 70
     1
102
RTVSPropertyOp25
 70
     1
102
RTVSPropertyOp26
 70
     1
102
RTVSPropertyOp27
 70
     1
  0
XRECORD
  5
8C
102
{ACAD_REACTORS
330
8B
102
}
330
8B
100
AcDbXrecord
280
     1
102
RTVSPropertyOp0
 70
     1
102
RTVSPropertyOp1
 70
     1
102
RTVSPropertyOp2
 70
     1
102
RTVSPropertyOp3
 70
     1
102
RTVSPropertyOp4
 70
     1
102
RTVSPropertyOp5
 70
     1
102
RTVSPropertyOp6
 70
     1
102
RTVSPropertyOp7
 70
     1
102
RTVSPropertyOp8
 70
     1
102
RTVSPropertyOp9
 70
     1
102
RTVSPropertyOp10
 70
     1
102
RTVSPropertyOp11
 70
     1
102
RTVSPropertyOp12
 70
     1
102
RTVSPropertyOp13
 70
     1
102
RTVSPropertyOp14
 70
     1
102
RTVSPropertyOp15
 70
     1
102
RTVSPropertyOp16
 70
     1
102
RTVSPropertyOp17
 70
     1
102
RTVSPropertyOp18
 70
     1
102
RTVSPropertyOp19
 70
     1
102
RTVSPropertyOp20
 70
     1
102
RTVSPropertyOp21
 70
     1
102
RTVSPropertyOp22
 70
     1
102
RTVSPropertyOp23
 70
     1
102
RTVSPropertyOp24
 70
     1
102
RTVSPropertyOp25
 70
     1
102
RTVSPropertyOp26
 70
     1
102
RTVSPropertyOp27
 70
     1
  0
XRECORD
  5
8E
102
{ACAD_REACTORS
330
8D
102
}
330
8D
100
AcDbXrecord
280
     1
102
RTVSPropertyOp0
 70
     1
102
RTVSPropertyOp1
 70
     1
102
RTVSPropertyOp2
 70
     1
102
RTVSPropertyOp3
 70
     1
102
RTVSPropertyOp4
 70
     1
102
RTVSPropertyOp5
 70
     1
102
RTVSPropertyOp6
 70
     1
102
RTVSPropertyOp7
 70
     1
102
RTVSPropertyOp8
 70
     1
102
RTVSPropertyOp9
 70
     1
102
RTVSPropertyOp10
 70
     1
102
RTVSPropertyOp11
 70
     1
102
RTVSPropertyOp12
 70
     1
102
RTVSPropertyOp13
 70
     1
102
RTVSPropertyOp14
 70
     1
102
RTVSPropertyOp15
 70
     1
102
RTVSPropertyOp16
 70
     1
102
RTVSPropertyOp17
 70
     1
102
RTVSPropertyOp18
 70
     1
102
RTVSPropertyOp19
 70
     1
102
RTVSPropertyOp20
 70
     1
102
RTVSPropertyOp21
 70
     1
102
RTVSPropertyOp22
 70
     1
102
RTVSPropertyOp23
 70
     1
102
RTVSPropertyOp24
 70
     1
102
RTVSPropertyOp25
 70
     1
102
RTVSPropertyOp26
 70
     1
102
RTVSPropertyOp27
 70
     1
  0
XRECORD
  5
96
102
{ACAD_REACTORS
330
95
102
}
330
95
100
AcDbXrecord
280
     1
102
RTVSPropertyOp0
 70
     1
102
RTVSPropertyOp1
 70
     1
102
RTVSPropertyOp2
 70
     1
102
RTVSPropertyOp3
 70
     1
102
RTVSPropertyOp4
 70
     1
102
RTVSPropertyOp5
 70
     1
102
RTVSPropertyOp6
 70
     1
102
RTVSPropertyOp7
 70
     1
102
RTVSPropertyOp8
 70
     1
102
RTVSPropertyOp9
 70
     1
102
RTVSPropertyOp10
 70
     1
102
RTVSPropertyOp11
 70
     1
102
RTVSPropertyOp12
 70
     1
102
RTVSPropertyOp13
 70
     1
102
RTVSPropertyOp14
 70
     1
102
RTVSPropertyOp15
 70
     1
102
RTVSPropertyOp16
 70
     1
102
RTVSPropertyOp17
 70
     1
102
RTVSPropertyOp18
 70
     1
102
RTVSPropertyOp19
 70
     1
102
RTVSPropertyOp20
 70
     1
102
RTVSPropertyOp21
 70
     1
102
RTVSPropertyOp22
 70
     1
102
RTVSPropertyOp23
 70
     1
102
RTVSPropertyOp24
 70
     1
102
RTVSPropertyOp25
 70
     1
102
RTVSPropertyOp26
 70
     1
102
RTVSPropertyOp27
 70
     1
  0
XRECORD
  5
7A
102
{ACAD_REACTORS
330
79
102
}
330
79
100
AcDbXrecord
280
     1
102
RTVSPropertyOp0
 70
     1
102
RTVSPropertyOp1
 70
     1
102
RTVSPropertyOp2
 70
     1
102
RTVSPropertyOp3
 70
     1
102
RTVSPropertyOp4
 70
     1
102
RTVSPropertyOp5
 70
     1
102
RTVSPropertyOp6
 70
     1
102
RTVSPropertyOp7
 70
     1
102
RTVSPropertyOp8
 70
     1
102
RTVSPropertyOp9
 70
     1
102
RTVSPropertyOp10
 70
     1
102
RTVSPropertyOp11
 70
     1
102
RTVSPropertyOp12
 70
     1
102
RTVSPropertyOp13
 70
     1
102
RTVSPropertyOp14
 70
     1
102
RTVSPropertyOp15
 70
     1
102
RTVSPropertyOp16
 70
     1
102
RTVSPropertyOp17
 70
     1
102
RTVSPropertyOp18
 70
     1
102
RTVSPropertyOp19
 70
     1
102
RTVSPropertyOp20
 70
     1
102
RTVSPropertyOp21
 70
     1
102
RTVSPropertyOp22
 70
     1
102
RTVSPropertyOp23
 70
     1
102
RTVSPropertyOp24
 70
     1
102
RTVSPropertyOp25
 70
     1
102
RTVSPropertyOp26
 70
     1
102
RTVSPropertyOp27
 70
     1
  0
XRECORD
  5
7C
102
{ACAD_REACTORS
330
7B
102
}
330
7B
100
AcDbXrecord
280
     1
102
RTVSPropertyOp0
 70
     1
102
RTVSPropertyOp1
 70
     1
102
RTVSPropertyOp2
 70
     1
102
RTVSPropertyOp3
 70
     1
102
RTVSPropertyOp4
 70
     1
102
RTVSPropertyOp5
 70
     1
102
RTVSPropertyOp6
 70
     1
102
RTVSPropertyOp7
 70
     1
102
RTVSPropertyOp8
 70
     1
102
RTVSPropertyOp9
 70
     1
102
RTVSPropertyOp10
 70
     1
102
RTVSPropertyOp11
 70
     1
102
RTVSPropertyOp12
 70
     1
102
RTVSPropertyOp13
 70
     1
102
RTVSPropertyOp14
 70
     1
102
RTVSPropertyOp15
 70
     1
102
RTVSPropertyOp16
 70
     1
102
RTVSPropertyOp17
 70
     1
102
RTVSPropertyOp18
 70
     1
102
RTVSPropertyOp19
 70
     1
102
RTVSPropertyOp20
 70
     1
102
RTVSPropertyOp21
 70
     1
102
RTVSPropertyOp22
 70
     1
102
RTVSPropertyOp23
 70
     1
102
RTVSPropertyOp24
 70
     1
102
RTVSPropertyOp25
 70
     1
102
RTVSPropertyOp26
 70
     1
102
RTVSPropertyOp27
 70
     1
  0
XRECORD
  5
7E
102
{ACAD_REACTORS
330
7D
102
}
330
7D
100
AcDbXrecord
280
     1
102
RTVSPropertyOp0
 70
     1
102
RTVSPropertyOp1
 70
     1
102
RTVSPropertyOp2
 70
     1
102
RTVSPropertyOp3
 70
     1
102
RTVSPropertyOp4
 70
     1
102
RTVSPropertyOp5
 70
     1
102
RTVSPropertyOp6
 70
     1
102
RTVSPropertyOp7
 70
     1
102
RTVSPropertyOp8
 70
     1
102
RTVSPropertyOp9
 70
     1
102
RTVSPropertyOp10
 70
     1
102
RTVSPropertyOp11
 70
     1
102
RTVSPropertyOp12
 70
     1
102
RTVSPropertyOp13
 70
     1
102
RTVSPropertyOp14
 70
     1
102
RTVSPropertyOp15
 70
     1
102
RTVSPropertyOp16
 70
     1
102
RTVSPropertyOp17
 70
     1
102
RTVSPropertyOp18
 70
     1
102
RTVSPropertyOp19
 70
     1
102
RTVSPropertyOp20
 70
     1
102
RTVSPropertyOp21
 70
     1
102
RTVSPropertyOp22
 70
     1
102
RTVSPropertyOp23
 70
     1
102
RTVSPropertyOp24
 70
     1
102
RTVSPropertyOp25
 70
     1
102
RTVSPropertyOp26
 70
     1
102
RTVSPropertyOp27
 70
     1
  0
XRECORD
  5
80
102
{ACAD_REACTORS
330
7F
102
}
330
7F
100
AcDbXrecord
280
     1
102
RTVSPropertyOp0
 70
     1
102
RTVSPropertyOp1
 70
     1
102
RTVSPropertyOp2
 70
     1
102
RTVSPropertyOp3
 70
     1
102
RTVSPropertyOp4
 70
     1
102
RTVSPropertyOp5
 70
     1
102
RTVSPropertyOp6
 70
     1
102
RTVSPropertyOp7
 70
     1
102
RTVSPropertyOp8
 70
     1
102
RTVSPropertyOp9
 70
     1
102
RTVSPropertyOp10
 70
     1
102
RTVSPropertyOp11
 70
     1
102
RTVSPropertyOp12
 70
     1
102
RTVSPropertyOp13
 70
     1
102
RTVSPropertyOp14
 70
     1
102
RTVSPropertyOp15
 70
     1
102
RTVSPropertyOp16
 70
     1
102
RTVSPropertyOp17
 70
     1
102
RTVSPropertyOp18
 70
     1
102
RTVSPropertyOp19
 70
     1
102
RTVSPropertyOp20
 70
     1
102
RTVSPropertyOp21
 70
     1
102
RTVSPropertyOp22
 70
     1
102
RTVSPropertyOp23
 70
     1
102
RTVSPropertyOp24
 70
     1
102
RTVSPropertyOp25
 70
     1
102
RTVSPropertyOp26
 70
     1
102
RTVSPropertyOp27
 70
     1
  0
XRECORD
  5
94
102
{ACAD_REACTORS
330
93
102
}
330
93
100
AcDbXrecord
280
     1
102
RTVSPropertyOp0
 70
     1
102
RTVSPropertyOp1
 70
     1
102
RTVSPropertyOp2
 70
     1
102
RTVSPropertyOp3
 70
     1
102
RTVSPropertyOp4
 70
     1
102
RTVSPropertyOp5
 70
     1
102
RTVSPropertyOp6
 70
     1
102
RTVSPropertyOp7
 70
     1
102
RTVSPropertyOp8
 70
     1
102
RTVSPropertyOp9
 70
     1
102
RTVSPropertyOp10
 70
     1
102
RTVSPropertyOp11
 70
     1
102
RTVSPropertyOp12
 70
     1
102
RTVSPropertyOp13
 70
     1
102
RTVSPropertyOp14
 70
     1
102
RTVSPropertyOp15
 70
     1
102
RTVSPropertyOp16
 70
     1
102
RTVSPropertyOp17
 70
     1
102
RTVSPropertyOp18
 70
     1
102
RTVSPropertyOp19
 70
     1
102
RTVSPropertyOp20
 70
     1
102
RTVSPropertyOp21
 70
     1
102
RTVSPropertyOp22
 70
     1
102
RTVSPropertyOp23
 70
     1
102
RTVSPropertyOp24
 70
     1
102
RTVSPropertyOp25
 70
     1
102
RTVSPropertyOp26
 70
     1
102
RTVSPropertyOp27
 70
     1
  0
XRECORD
  5
8A
102
{ACAD_REACTORS
330
89
102
}
330
89
100
AcDbXrecord
280
     1
102
RTVSPropertyOp0
 70
     1
102
RTVSPropertyOp1
 70
     1
102
RTVSPropertyOp2
 70
     1
102
RTVSPropertyOp3
 70
     1
102
RTVSPropertyOp4
 70
     1
102
RTVSPropertyOp5
 70
     1
102
RTVSPropertyOp6
 70
     1
102
RTVSPropertyOp7
 70
     1
102
RTVSPropertyOp8
 70
     1
102
RTVSPropertyOp9
 70
     1
102
RTVSPropertyOp10
 70
     1
102
RTVSPropertyOp11
 70
     1
102
RTVSPropertyOp12
 70
     1
102
RTVSPropertyOp13
 70
     1
102
RTVSPropertyOp14
 70
     1
102
RTVSPropertyOp15
 70
     1
102
RTVSPropertyOp16
 70
     1
102
RTVSPropertyOp17
 70
     1
102
RTVSPropertyOp18
 70
     1
102
RTVSPropertyOp19
 70
     1
102
RTVSPropertyOp20
 70
     1
102
RTVSPropertyOp21
 70
     1
102
RTVSPropertyOp22
 70
     1
102
RTVSPropertyOp23
 70
     1
102
RTVSPropertyOp24
 70
     1
102
RTVSPropertyOp25
 70
     1
102
RTVSPropertyOp26
 70
     1
102
RTVSPropertyOp27
 70
     1
  0
XRECORD
  5
92
102
{ACAD_REACTORS
330
91
102
}
330
91
100
AcDbXrecord
280
     1
102
RTVSPropertyOp0
 70
     1
102
RTVSPropertyOp1
 70
     1
102
RTVSPropertyOp2
 70
     1
102
RTVSPropertyOp3
 70
     1
102
RTVSPropertyOp4
 70
     1
102
RTVSPropertyOp5
 70
     1
102
RTVSPropertyOp6
 70
     1
102
RTVSPropertyOp7
 70
     1
102
RTVSPropertyOp8
 70
     1
102
RTVSPropertyOp9
 70
     1
102
RTVSPropertyOp10
 70
     1
102
RTVSPropertyOp11
 70
     1
102
RTVSPropertyOp12
 70
     1
102
RTVSPropertyOp13
 70
     1
102
RTVSPropertyOp14
 70
     1
102
RTVSPropertyOp15
 70
     1
102
RTVSPropertyOp16
 70
     1
102
RTVSPropertyOp17
 70
     1
102
RTVSPropertyOp18
 70
     1
102
RTVSPropertyOp19
 70
     1
102
RTVSPropertyOp20
 70
     1
102
RTVSPropertyOp21
 70
     1
102
RTVSPropertyOp22
 70
     1
102
RTVSPropertyOp23
 70
     1
102
RTVSPropertyOp24
 70
     1
102
RTVSPropertyOp25
 70
     1
102
RTVSPropertyOp26
 70
     1
102
RTVSPropertyOp27
 70
     1
  0
ENDSEC
  0
EOF
