  0
SECTION
  2
HEADER
  9
$ACADVER
  1
AC1014
  9
$HANDSEED
  5
FFFF
  9
$MEASUREMENT
 70
     1
  0
ENDSEC
  0
SECTION
  2
TABLES
  0
TABLE
  2
VPORT
  5
8
330
0
100
AcDbSymbolTable
 70
     4
  0
VPORT
  5
2E
330
8
100
AcDbSymbolTableRecord
100
AcDbViewportTableRecord
  2
*ACTIVE
 70
     0
 10
0.0
 20
0.0
 11
1.0
 21
1.0
 12
210.0
 22
148.5
 13
0.0
 23
0.0
 14
10.0
 24
10.0
 15
10.0
 25
10.0
 16
0.0
 26
0.0
 36
1.0
 17
0.0
 27
0.0
 37
0.0
 40
341.0
 41
1.24
 42
50.0
 43
0.0
 44
0.0
 50
0.0
 51
0.0
 71
     0
 72
   100
 73
     1
 74
     3
 75
     0
 76
     0
 77
     0
 78
     0
  0
ENDTAB
  0
TABLE
  2
LTYPE
  5
5
330
0
100
AcDbSymbolTable
 70
     1
  0
LTYPE
  5
14
330
5
100
AcDbSymbolTableRecord
100
AcDbLinetypeTableRecord
  2
BYBLOCK
 70
     0
  3

 72
    65
 73
     0
 40
0.0
  0
LTYPE
  5
15
330
5
100
AcDbSymbolTableRecord
100
AcDbLinetypeTableRecord
  2
BYLAYER
 70
     0
  3

 72
    65
 73
     0
 40
0.0
  0
LTYPE
  5
16
330
5
100
AcDbSymbolTableRecord
100
AcDbLinetypeTableRecord
  2
CONTINUOUS
 70
     0
  3
Solid line
 72
    65
 73
     0
 40
0.0
  0
ENDTAB
  0
TABLE
  2
LAYER
  5
2
100
AcDbSymbolTable
 70
2
  0
LAYER
  5
50
100
AcDbSymbolTableRecord
100
AcDbLayerTableRecord
  2
0
 70
0
  6
CONTINUOUS
  0
LAYER
  5
51
100
AcDbSymbolTableRecord
100
AcDbLayerTableRecord
  2
W0102_Printing_30X30
 70
0
  6
CONTINUOUS
  0
ENDTAB
  0
TABLE
  2
STYLE
  5
3
330
0
100
AcDbSymbolTable
 70
     1
  0
STYLE
  5
11
330
3
100
AcDbSymbolTableRecord
100
AcDbTextStyleTableRecord
  2
STANDARD
 70
     0
 40
0.0
 41
1.0
 50
0.0
 71
     0
 42
2.5
  3
txt
  4

  0
ENDTAB
  0
TABLE
  2
VIEW
  5
6
330
0
100
AcDbSymbolTable
 70
     0
  0
ENDTAB
  0
TABLE
  2
UCS
  5
7
330
0
100
AcDbSymbolTable
 70
     0
  0
ENDTAB
  0
TABLE
  2
APPID
  5
9
330
0
100
AcDbSymbolTable
 70
     2
  0
APPID
  5
12
330
9
100
AcDbSymbolTableRecord
100
AcDbRegAppTableRecord
  2
ACAD
 70
     0
  0
ENDTAB
  0
TABLE
  2
DIMSTYLE
  5
A
330
0
100
AcDbSymbolTable
 70
     1
  0
DIMSTYLE
105
27
330
A
100
AcDbSymbolTableRecord
100
AcDbDimStyleTableRecord
  2
ISO-25
 70
     0
  3

  4

  5

  6

  7

 40
1.0
 41
2.5
 42
0.625
 43
3.75
 44
1.25
 45
0.0
 46
0.0
 47
0.0
 48
0.0
140
2.5
141
2.5
142
0.0
143
0.03937007874016
144
1.0
145
0.0
146
1.0
147
0.625
 71
     0
 72
     0
 73
     0
 74
     0
 75
     0
 76
     0
 77
     1
 78
     8
170
     0
171
     3
172
     1
173
     0
174
     0
175
     0
176
     0
177
     0
178
     0
270
     2
271
     2
272
     2
273
     2
274
     3
340
11
275
     0
280
     0
281
     0
282
     0
283
     0
284
     8
285
     0
286
     0
287
     3
288
     0
  0
ENDTAB
  0
TABLE
  2
BLOCK_RECORD
  5
1
330
0
100
AcDbSymbolTable
 70
     1
  0
BLOCK_RECORD
  5
1F
330
1
100
AcDbSymbolTableRecord
100
AcDbBlockTableRecord
  2
*MODEL_SPACE
  0
BLOCK_RECORD
  5
1B
330
1
100
AcDbSymbolTableRecord
100
AcDbBlockTableRecord
  2
*PAPER_SPACE
  0
ENDTAB
  0
ENDSEC
  0
SECTION
  2
BLOCKS
  0
BLOCK
  5
20
330
1F
100
AcDbEntity
  8
0
100
AcDbBlockBegin
  2
*MODEL_SPACE
 70
     0
 10
0.0
 20
0.0
 30
0.0
  3
*MODEL_SPACE
  1

  0
ENDBLK
  5
21
330
1F
100
AcDbEntity
  8
0
100
AcDbBlockEnd
  0
BLOCK
  5
1C
330
1B
100
AcDbEntity
 67
     1
  8
0
100
AcDbBlockBegin
  2
*PAPER_SPACE
  1

  0
ENDBLK
  5
1D
330
1B
100
AcDbEntity
 67
     1
  8
0
100
AcDbBlockEnd
  0
ENDSEC
  0
SECTION
  2
ENTITIES
  0
SPLINE
  5
100
100
AcDbEntity
  8
W0102_Printing_30X30
 62
1
100
AcDbSpline
 70
8
 71
3
 72
8
 73
4
 74
0
 40
0
 40
0
 40
0
 40
0
 40
1
 40
1
 40
1
 40
1
 10
1304.584767
 20
425.271289
 30
0.0
 10
1288.866768
 20
425.271289
 30
0.0
 10
1276.124768
 20
438.013289
 30
0.0
 10
1276.124768
 20
453.731289
 30
0.0
  0
LWPOLYLINE
  5
101
100
AcDbEntity
  8
W0102_Printing_30X30
 62
1
100
AcDbPolyline
 90
2
 70
0
 10
2098.058748
 20
425.271289
 30
0.0
 10
1304.584767
 20
425.271289
 30
0.0
  0
SPLINE
  5
102
100
AcDbEntity
  8
W0102_Printing_30X30
 62
1
100
AcDbSpline
 70
8
 71
3
 72
8
 73
4
 74
0
 40
0
 40
0
 40
0
 40
0
 40
1
 40
1
 40
1
 40
1
 10
1276.124768
 20
1247.205269
 30
0.0
 10
1276.124768
 20
1262.923268
 30
0.0
 10
1288.866768
 20
1275.665268
 30
0.0
 10
1304.584767
 20
1275.665268
 30
0.0
  0
LWPOLYLINE
  5
103
100
AcDbEntity
  8
W0102_Printing_30X30
 62
1
100
AcDbPolyline
 90
2
 70
0
 10
1276.124768
 20
453.731289
 30
0.0
 10
1276.124768
 20
1247.205269
 30
0.0
  0
SPLINE
  5
104
100
AcDbEntity
  8
W0102_Printing_30X30
 62
1
100
AcDbSpline
 70
8
 71
3
 72
8
 73
4
 74
0
 40
0
 40
0
 40
0
 40
0
 40
1
 40
1
 40
1
 40
1
 10
2098.058748
 20
1275.665268
 30
0.0
 10
2113.776747
 20
1275.665268
 30
0.0
 10
2126.518747
 20
1262.923268
 30
0.0
 10
2126.518747
 20
1247.205269
 30
0.0
  0
LWPOLYLINE
  5
105
100
AcDbEntity
  8
W0102_Printing_30X30
 62
1
100
AcDbPolyline
 90
2
 70
0
 10
1304.584767
 20
1275.665268
 30
0.0
 10
2098.058748
 20
1275.665268
 30
0.0
  0
SPLINE
  5
106
100
AcDbEntity
  8
W0102_Printing_30X30
 62
1
100
AcDbSpline
 70
8
 71
3
 72
8
 73
4
 74
0
 40
0
 40
0
 40
0
 40
0
 40
1
 40
1
 40
1
 40
1
 10
2126.518747
 20
453.731289
 30
0.0
 10
2126.518747
 20
438.013289
 30
0.0
 10
2113.776747
 20
425.271289
 30
0.0
 10
2098.058748
 20
425.271289
 30
0.0
  0
LWPOLYLINE
  5
107
100
AcDbEntity
  8
W0102_Printing_30X30
 62
1
100
AcDbPolyline
 90
2
 70
0
 10
2126.518747
 20
1247.205269
 30
0.0
 10
2126.518747
 20
453.731289
 30
0.0
  0
SPLINE
  5
108
100
AcDbEntity
  8
W0102_Printing_30X30
 62
1
100
AcDbSpline
 70
8
 71
3
 72
8
 73
4
 74
0
 40
0
 40
0
 40
0
 40
0
 40
1
 40
1
 40
1
 40
1
 10
1325.731167
 20
1240.232069
 30
0.0
 10
1325.731167
 20
1232.404069
 30
0.0
 10
1319.385167
 20
1226.059069
 30
0.0
 10
1311.558167
 20
1226.059069
 30
0.0
  0
SPLINE
  5
109
100
AcDbEntity
  8
W0102_Printing_30X30
 62
1
100
AcDbSpline
 70
8
 71
3
 72
8
 73
4
 74
0
 40
0
 40
0
 40
0
 40
0
 40
1
 40
1
 40
1
 40
1
 10
1311.558167
 20
1226.059069
 30
0.0
 10
1303.730167
 20
1226.059069
 30
0.0
 10
1297.385168
 20
1232.404069
 30
0.0
 10
1297.385168
 20
1240.232069
 30
0.0
  0
SPLINE
  5
10a
100
AcDbEntity
  8
W0102_Printing_30X30
 62
1
100
AcDbSpline
 70
8
 71
3
 72
8
 73
4
 74
0
 40
0
 40
0
 40
0
 40
0
 40
1
 40
1
 40
1
 40
1
 10
1297.385168
 20
1240.232069
 30
0.0
 10
1297.385168
 20
1248.060069
 30
0.0
 10
1303.730167
 20
1254.405069
 30
0.0
 10
1311.558167
 20
1254.405069
 30
0.0
  0
SPLINE
  5
10b
100
AcDbEntity
  8
W0102_Printing_30X30
 62
1
100
AcDbSpline
 70
8
 71
3
 72
8
 73
4
 74
0
 40
0
 40
0
 40
0
 40
0
 40
1
 40
1
 40
1
 40
1
 10
1311.558167
 20
1254.405069
 30
0.0
 10
1319.385167
 20
1254.405069
 30
0.0
 10
1325.731167
 20
1248.060069
 30
0.0
 10
1325.731167
 20
1240.232069
 30
0.0
  0
LWPOLYLINE
  5
10c
100
AcDbEntity
  8
W0102_Printing_30X30
 62
1
100
AcDbPolyline
 90
1
 70
1
 10
2098.058748
 20
425.271289
 30
0.0
  0
SPLINE
  5
10d
100
AcDbEntity
  8
W0102_Printing_30X30
 62
1
100
AcDbSpline
 70
8
 71
3
 72
8
 73
4
 74
0
 40
0
 40
0
 40
0
 40
0
 40
1
 40
1
 40
1
 40
1
 10
1375.337566
 20
1247.318569
 30
0.0
 10
1375.337566
 20
1239.490569
 30
0.0
 10
1368.991566
 20
1233.145569
 30
0.0
 10
1361.164566
 20
1233.145569
 30
0.0
  0
SPLINE
  5
10e
100
AcDbEntity
  8
W0102_Printing_30X30
 62
1
100
AcDbSpline
 70
8
 71
3
 72
8
 73
4
 74
0
 40
0
 40
0
 40
0
 40
0
 40
1
 40
1
 40
1
 40
1
 10
1361.164566
 20
1233.145569
 30
0.0
 10
1353.336566
 20
1233.145569
 30
0.0
 10
1346.990566
 20
1239.490569
 30
0.0
 10
1346.990566
 20
1247.318569
 30
0.0
  0
SPLINE
  5
10f
100
AcDbEntity
  8
W0102_Printing_30X30
 62
1
100
AcDbSpline
 70
8
 71
3
 72
8
 73
4
 74
0
 40
0
 40
0
 40
0
 40
0
 40
1
 40
1
 40
1
 40
1
 10
1346.990566
 20
1247.318569
 30
0.0
 10
1346.990566
 20
1255.146569
 30
0.0
 10
1353.336566
 20
1261.491568
 30
0.0
 10
1361.164566
 20
1261.491568
 30
0.0
  0
SPLINE
  5
110
100
AcDbEntity
  8
W0102_Printing_30X30
 62
1
100
AcDbSpline
 70
8
 71
3
 72
8
 73
4
 74
0
 40
0
 40
0
 40
0
 40
0
 40
1
 40
1
 40
1
 40
1
 10
1361.164566
 20
1261.491568
 30
0.0
 10
1368.991566
 20
1261.491568
 30
0.0
 10
1375.337566
 20
1255.146569
 30
0.0
 10
1375.337566
 20
1247.318569
 30
0.0
  0
LWPOLYLINE
  5
111
100
AcDbEntity
  8
W0102_Printing_30X30
 62
1
100
AcDbPolyline
 90
1
 70
1
 10
1325.731167
 20
1240.232069
 30
0.0
  0
SPLINE
  5
112
100
AcDbEntity
  8
W0102_Printing_30X30
 62
1
100
AcDbSpline
 70
8
 71
3
 72
8
 73
4
 74
0
 40
0
 40
0
 40
0
 40
0
 40
1
 40
1
 40
1
 40
1
 10
1417.857265
 20
1247.318669
 30
0.0
 10
1417.857265
 20
1239.490669
 30
0.0
 10
1411.511265
 20
1233.145669
 30
0.0
 10
1403.684265
 20
1233.145669
 30
0.0
  0
SPLINE
  5
113
100
AcDbEntity
  8
W0102_Printing_30X30
 62
1
100
AcDbSpline
 70
8
 71
3
 72
8
 73
4
 74
0
 40
0
 40
0
 40
0
 40
0
 40
1
 40
1
 40
1
 40
1
 10
1403.684265
 20
1233.145669
 30
0.0
 10
1395.856265
 20
1233.145669
 30
0.0
 10
1389.511265
 20
1239.490669
 30
0.0
 10
1389.511265
 20
1247.318669
 30
0.0
  0
SPLINE
  5
114
100
AcDbEntity
  8
W0102_Printing_30X30
 62
1
100
AcDbSpline
 70
8
 71
3
 72
8
 73
4
 74
0
 40
0
 40
0
 40
0
 40
0
 40
1
 40
1
 40
1
 40
1
 10
1389.511265
 20
1247.318669
 30
0.0
 10
1389.511265
 20
1255.146669
 30
0.0
 10
1395.856265
 20
1261.491668
 30
0.0
 10
1403.684265
 20
1261.491668
 30
0.0
  0
SPLINE
  5
115
100
AcDbEntity
  8
W0102_Printing_30X30
 62
1
100
AcDbSpline
 70
8
 71
3
 72
8
 73
4
 74
0
 40
0
 40
0
 40
0
 40
0
 40
1
 40
1
 40
1
 40
1
 10
1403.684265
 20
1261.491668
 30
0.0
 10
1411.511265
 20
1261.491668
 30
0.0
 10
1417.857265
 20
1255.146669
 30
0.0
 10
1417.857265
 20
1247.318669
 30
0.0
  0
LWPOLYLINE
  5
116
100
AcDbEntity
  8
W0102_Printing_30X30
 62
1
100
AcDbPolyline
 90
1
 70
1
 10
1375.337566
 20
1247.318569
 30
0.0
  0
SPLINE
  5
117
100
AcDbEntity
  8
W0102_Printing_30X30
 62
1
100
AcDbSpline
 70
8
 71
3
 72
8
 73
4
 74
0
 40
0
 40
0
 40
0
 40
0
 40
1
 40
1
 40
1
 40
1
 10
1460.376963
 20
1247.318669
 30
0.0
 10
1460.376963
 20
1239.490669
 30
0.0
 10
1454.030964
 20
1233.145669
 30
0.0
 10
1446.203964
 20
1233.145669
 30
0.0
  0
SPLINE
  5
118
100
AcDbEntity
  8
W0102_Printing_30X30
 62
1
100
AcDbSpline
 70
8
 71
3
 72
8
 73
4
 74
0
 40
0
 40
0
 40
0
 40
0
 40
1
 40
1
 40
1
 40
1
 10
1446.203964
 20
1233.145669
 30
0.0
 10
1438.375964
 20
1233.145669
 30
0.0
 10
1432.030964
 20
1239.490669
 30
0.0
 10
1432.030964
 20
1247.318669
 30
0.0
  0
SPLINE
  5
119
100
AcDbEntity
  8
W0102_Printing_30X30
 62
1
100
AcDbSpline
 70
8
 71
3
 72
8
 73
4
 74
0
 40
0
 40
0
 40
0
 40
0
 40
1
 40
1
 40
1
 40
1
 10
1432.030964
 20
1247.318669
 30
0.0
 10
1432.030964
 20
1255.146669
 30
0.0
 10
1438.375964
 20
1261.491668
 30
0.0
 10
1446.203964
 20
1261.491668
 30
0.0
  0
SPLINE
  5
11a
100
AcDbEntity
  8
W0102_Printing_30X30
 62
1
100
AcDbSpline
 70
8
 71
3
 72
8
 73
4
 74
0
 40
0
 40
0
 40
0
 40
0
 40
1
 40
1
 40
1
 40
1
 10
1446.203964
 20
1261.491668
 30
0.0
 10
1454.030964
 20
1261.491668
 30
0.0
 10
1460.376963
 20
1255.146669
 30
0.0
 10
1460.376963
 20
1247.318669
 30
0.0
  0
LWPOLYLINE
  5
11b
100
AcDbEntity
  8
W0102_Printing_30X30
 62
1
100
AcDbPolyline
 90
1
 70
1
 10
1417.857265
 20
1247.318669
 30
0.0
  0
SPLINE
  5
11c
100
AcDbEntity
  8
W0102_Printing_30X30
 62
1
100
AcDbSpline
 70
8
 71
3
 72
8
 73
4
 74
0
 40
0
 40
0
 40
0
 40
0
 40
1
 40
1
 40
1
 40
1
 10
1502.896562
 20
1247.318669
 30
0.0
 10
1502.896562
 20
1239.490669
 30
0.0
 10
1496.550563
 20
1233.145669
 30
0.0
 10
1488.723563
 20
1233.145669
 30
0.0
  0
SPLINE
  5
11d
100
AcDbEntity
  8
W0102_Printing_30X30
 62
1
100
AcDbSpline
 70
8
 71
3
 72
8
 73
4
 74
0
 40
0
 40
0
 40
0
 40
0
 40
1
 40
1
 40
1
 40
1
 10
1488.723563
 20
1233.145669
 30
0.0
 10
1480.895563
 20
1233.145669
 30
0.0
 10
1474.550563
 20
1239.490669
 30
0.0
 10
1474.550563
 20
1247.318669
 30
0.0
  0
SPLINE
  5
11e
100
AcDbEntity
  8
W0102_Printing_30X30
 62
1
100
AcDbSpline
 70
8
 71
3
 72
8
 73
4
 74
0
 40
0
 40
0
 40
0
 40
0
 40
1
 40
1
 40
1
 40
1
 10
1474.550563
 20
1247.318669
 30
0.0
 10
1474.550563
 20
1255.146669
 30
0.0
 10
1480.895563
 20
1261.491668
 30
0.0
 10
1488.723563
 20
1261.491668
 30
0.0
  0
SPLINE
  5
11f
100
AcDbEntity
  8
W0102_Printing_30X30
 62
1
100
AcDbSpline
 70
8
 71
3
 72
8
 73
4
 74
0
 40
0
 40
0
 40
0
 40
0
 40
1
 40
1
 40
1
 40
1
 10
1488.723563
 20
1261.491668
 30
0.0
 10
1496.550563
 20
1261.491668
 30
0.0
 10
1502.896562
 20
1255.146669
 30
0.0
 10
1502.896562
 20
1247.318669
 30
0.0
  0
LWPOLYLINE
  5
120
100
AcDbEntity
  8
W0102_Printing_30X30
 62
1
100
AcDbPolyline
 90
1
 70
1
 10
1460.376963
 20
1247.318669
 30
0.0
  0
SPLINE
  5
121
100
AcDbEntity
  8
W0102_Printing_30X30
 62
1
100
AcDbSpline
 70
8
 71
3
 72
8
 73
4
 74
0
 40
0
 40
0
 40
0
 40
0
 40
1
 40
1
 40
1
 40
1
 10
1545.416361
 20
1247.318669
 30
0.0
 10
1545.416361
 20
1239.490669
 30
0.0
 10
1539.070362
 20
1233.145669
 30
0.0
 10
1531.243362
 20
1233.145669
 30
0.0
  0
SPLINE
  5
122
100
AcDbEntity
  8
W0102_Printing_30X30
 62
1
100
AcDbSpline
 70
8
 71
3
 72
8
 73
4
 74
0
 40
0
 40
0
 40
0
 40
0
 40
1
 40
1
 40
1
 40
1
 10
1531.243362
 20
1233.145669
 30
0.0
 10
1523.415362
 20
1233.145669
 30
0.0
 10
1517.069362
 20
1239.490669
 30
0.0
 10
1517.069362
 20
1247.318669
 30
0.0
  0
SPLINE
  5
123
100
AcDbEntity
  8
W0102_Printing_30X30
 62
1
100
AcDbSpline
 70
8
 71
3
 72
8
 73
4
 74
0
 40
0
 40
0
 40
0
 40
0
 40
1
 40
1
 40
1
 40
1
 10
1517.069362
 20
1247.318669
 30
0.0
 10
1517.069362
 20
1255.146669
 30
0.0
 10
1523.415362
 20
1261.491668
 30
0.0
 10
1531.243362
 20
1261.491668
 30
0.0
  0
SPLINE
  5
124
100
AcDbEntity
  8
W0102_Printing_30X30
 62
1
100
AcDbSpline
 70
8
 71
3
 72
8
 73
4
 74
0
 40
0
 40
0
 40
0
 40
0
 40
1
 40
1
 40
1
 40
1
 10
1531.243362
 20
1261.491668
 30
0.0
 10
1539.070362
 20
1261.491668
 30
0.0
 10
1545.416361
 20
1255.146669
 30
0.0
 10
1545.416361
 20
1247.318669
 30
0.0
  0
LWPOLYLINE
  5
125
100
AcDbEntity
  8
W0102_Printing_30X30
 62
1
100
AcDbPolyline
 90
1
 70
1
 10
1502.896562
 20
1247.318669
 30
0.0
  0
SPLINE
  5
126
100
AcDbEntity
  8
W0102_Printing_30X30
 62
1
100
AcDbSpline
 70
8
 71
3
 72
8
 73
4
 74
0
 40
0
 40
0
 40
0
 40
0
 40
1
 40
1
 40
1
 40
1
 10
1587.935960
 20
1247.318669
 30
0.0
 10
1587.935960
 20
1239.490669
 30
0.0
 10
1581.589960
 20
1233.145669
 30
0.0
 10
1573.762961
 20
1233.145669
 30
0.0
  0
SPLINE
  5
127
100
AcDbEntity
  8
W0102_Printing_30X30
 62
1
100
AcDbSpline
 70
8
 71
3
 72
8
 73
4
 74
0
 40
0
 40
0
 40
0
 40
0
 40
1
 40
1
 40
1
 40
1
 10
1573.762961
 20
1233.145669
 30
0.0
 10
1565.934961
 20
1233.145669
 30
0.0
 10
1559.589961
 20
1239.490669
 30
0.0
 10
1559.589961
 20
1247.318669
 30
0.0
  0
SPLINE
  5
128
100
AcDbEntity
  8
W0102_Printing_30X30
 62
1
100
AcDbSpline
 70
8
 71
3
 72
8
 73
4
 74
0
 40
0
 40
0
 40
0
 40
0
 40
1
 40
1
 40
1
 40
1
 10
1559.589961
 20
1247.318669
 30
0.0
 10
1559.589961
 20
1255.146669
 30
0.0
 10
1565.934961
 20
1261.491668
 30
0.0
 10
1573.762961
 20
1261.491668
 30
0.0
  0
SPLINE
  5
129
100
AcDbEntity
  8
W0102_Printing_30X30
 62
1
100
AcDbSpline
 70
8
 71
3
 72
8
 73
4
 74
0
 40
0
 40
0
 40
0
 40
0
 40
1
 40
1
 40
1
 40
1
 10
1573.762961
 20
1261.491668
 30
0.0
 10
1581.589960
 20
1261.491668
 30
0.0
 10
1587.935960
 20
1255.146669
 30
0.0
 10
1587.935960
 20
1247.318669
 30
0.0
  0
LWPOLYLINE
  5
12a
100
AcDbEntity
  8
W0102_Printing_30X30
 62
1
100
AcDbPolyline
 90
1
 70
1
 10
1545.416361
 20
1247.318669
 30
0.0
  0
SPLINE
  5
12b
100
AcDbEntity
  8
W0102_Printing_30X30
 62
1
100
AcDbSpline
 70
8
 71
3
 72
8
 73
4
 74
0
 40
0
 40
0
 40
0
 40
0
 40
1
 40
1
 40
1
 40
1
 10
1630.455659
 20
1247.318669
 30
0.0
 10
1630.455659
 20
1239.490669
 30
0.0
 10
1624.109659
 20
1233.145669
 30
0.0
 10
1616.282660
 20
1233.145669
 30
0.0
  0
SPLINE
  5
12c
100
AcDbEntity
  8
W0102_Printing_30X30
 62
1
100
AcDbSpline
 70
8
 71
3
 72
8
 73
4
 74
0
 40
0
 40
0
 40
0
 40
0
 40
1
 40
1
 40
1
 40
1
 10
1616.282660
 20
1233.145669
 30
0.0
 10
1608.454660
 20
1233.145669
 30
0.0
 10
1602.109660
 20
1239.490669
 30
0.0
 10
1602.109660
 20
1247.318669
 30
0.0
  0
SPLINE
  5
12d
100
AcDbEntity
  8
W0102_Printing_30X30
 62
1
100
AcDbSpline
 70
8
 71
3
 72
8
 73
4
 74
0
 40
0
 40
0
 40
0
 40
0
 40
1
 40
1
 40
1
 40
1
 10
1602.109660
 20
1247.318669
 30
0.0
 10
1602.109660
 20
1255.146669
 30
0.0
 10
1608.454660
 20
1261.491668
 30
0.0
 10
1616.282660
 20
1261.491668
 30
0.0
  0
SPLINE
  5
12e
100
AcDbEntity
  8
W0102_Printing_30X30
 62
1
100
AcDbSpline
 70
8
 71
3
 72
8
 73
4
 74
0
 40
0
 40
0
 40
0
 40
0
 40
1
 40
1
 40
1
 40
1
 10
1616.282660
 20
1261.491668
 30
0.0
 10
1624.109659
 20
1261.491668
 30
0.0
 10
1630.455659
 20
1255.146669
 30
0.0
 10
1630.455659
 20
1247.318669
 30
0.0
  0
LWPOLYLINE
  5
12f
100
AcDbEntity
  8
W0102_Printing_30X30
 62
1
100
AcDbPolyline
 90
1
 70
1
 10
1587.935960
 20
1247.318669
 30
0.0
  0
SPLINE
  5
130
100
AcDbEntity
  8
W0102_Printing_30X30
 62
1
100
AcDbSpline
 70
8
 71
3
 72
8
 73
4
 74
0
 40
0
 40
0
 40
0
 40
0
 40
1
 40
1
 40
1
 40
1
 10
1672.975258
 20
1247.318669
 30
0.0
 10
1672.975258
 20
1239.490669
 30
0.0
 10
1666.629258
 20
1233.145669
 30
0.0
 10
1658.802259
 20
1233.145669
 30
0.0
  0
SPLINE
  5
131
100
AcDbEntity
  8
W0102_Printing_30X30
 62
1
100
AcDbSpline
 70
8
 71
3
 72
8
 73
4
 74
0
 40
0
 40
0
 40
0
 40
0
 40
1
 40
1
 40
1
 40
1
 10
1658.802259
 20
1233.145669
 30
0.0
 10
1650.974259
 20
1233.145669
 30
0.0
 10
1644.629259
 20
1239.490669
 30
0.0
 10
1644.629259
 20
1247.318669
 30
0.0
  0
SPLINE
  5
132
100
AcDbEntity
  8
W0102_Printing_30X30
 62
1
100
AcDbSpline
 70
8
 71
3
 72
8
 73
4
 74
0
 40
0
 40
0
 40
0
 40
0
 40
1
 40
1
 40
1
 40
1
 10
1644.629259
 20
1247.318669
 30
0.0
 10
1644.629259
 20
1255.146669
 30
0.0
 10
1650.974259
 20
1261.491668
 30
0.0
 10
1658.802259
 20
1261.491668
 30
0.0
  0
SPLINE
  5
133
100
AcDbEntity
  8
W0102_Printing_30X30
 62
1
100
AcDbSpline
 70
8
 71
3
 72
8
 73
4
 74
0
 40
0
 40
0
 40
0
 40
0
 40
1
 40
1
 40
1
 40
1
 10
1658.802259
 20
1261.491668
 30
0.0
 10
1666.629258
 20
1261.491668
 30
0.0
 10
1672.975258
 20
1255.146669
 30
0.0
 10
1672.975258
 20
1247.318669
 30
0.0
  0
LWPOLYLINE
  5
134
100
AcDbEntity
  8
W0102_Printing_30X30
 62
1
100
AcDbPolyline
 90
1
 70
1
 10
1630.455659
 20
1247.318669
 30
0.0
  0
SPLINE
  5
135
100
AcDbEntity
  8
W0102_Printing_30X30
 62
1
100
AcDbSpline
 70
8
 71
3
 72
8
 73
4
 74
0
 40
0
 40
0
 40
0
 40
0
 40
1
 40
1
 40
1
 40
1
 10
1715.495057
 20
1247.318669
 30
0.0
 10
1715.495057
 20
1239.490669
 30
0.0
 10
1709.149057
 20
1233.145669
 30
0.0
 10
1701.322057
 20
1233.145669
 30
0.0
  0
SPLINE
  5
136
100
AcDbEntity
  8
W0102_Printing_30X30
 62
1
100
AcDbSpline
 70
8
 71
3
 72
8
 73
4
 74
0
 40
0
 40
0
 40
0
 40
0
 40
1
 40
1
 40
1
 40
1
 10
1701.322057
 20
1233.145669
 30
0.0
 10
1693.494058
 20
1233.145669
 30
0.0
 10
1687.148058
 20
1239.490669
 30
0.0
 10
1687.148058
 20
1247.318669
 30
0.0
  0
SPLINE
  5
137
100
AcDbEntity
  8
W0102_Printing_30X30
 62
1
100
AcDbSpline
 70
8
 71
3
 72
8
 73
4
 74
0
 40
0
 40
0
 40
0
 40
0
 40
1
 40
1
 40
1
 40
1
 10
1687.148058
 20
1247.318669
 30
0.0
 10
1687.148058
 20
1255.146669
 30
0.0
 10
1693.494058
 20
1261.491668
 30
0.0
 10
1701.322057
 20
1261.491668
 30
0.0
  0
SPLINE
  5
138
100
AcDbEntity
  8
W0102_Printing_30X30
 62
1
100
AcDbSpline
 70
8
 71
3
 72
8
 73
4
 74
0
 40
0
 40
0
 40
0
 40
0
 40
1
 40
1
 40
1
 40
1
 10
1701.322057
 20
1261.491668
 30
0.0
 10
1709.149057
 20
1261.491668
 30
0.0
 10
1715.495057
 20
1255.146669
 30
0.0
 10
1715.495057
 20
1247.318669
 30
0.0
  0
LWPOLYLINE
  5
139
100
AcDbEntity
  8
W0102_Printing_30X30
 62
1
100
AcDbPolyline
 90
1
 70
1
 10
1672.975258
 20
1247.318669
 30
0.0
  0
SPLINE
  5
13a
100
AcDbEntity
  8
W0102_Printing_30X30
 62
1
100
AcDbSpline
 70
8
 71
3
 72
8
 73
4
 74
0
 40
0
 40
0
 40
0
 40
0
 40
1
 40
1
 40
1
 40
1
 10
1758.014756
 20
1247.318669
 30
0.0
 10
1758.014756
 20
1239.490669
 30
0.0
 10
1751.668756
 20
1233.145669
 30
0.0
 10
1743.841756
 20
1233.145669
 30
0.0
  0
SPLINE
  5
13b
100
AcDbEntity
  8
W0102_Printing_30X30
 62
1
100
AcDbSpline
 70
8
 71
3
 72
8
 73
4
 74
0
 40
0
 40
0
 40
0
 40
0
 40
1
 40
1
 40
1
 40
1
 10
1743.841756
 20
1233.145669
 30
0.0
 10
1736.013757
 20
1233.145669
 30
0.0
 10
1729.668757
 20
1239.490669
 30
0.0
 10
1729.668757
 20
1247.318669
 30
0.0
  0
SPLINE
  5
13c
100
AcDbEntity
  8
W0102_Printing_30X30
 62
1
100
AcDbSpline
 70
8
 71
3
 72
8
 73
4
 74
0
 40
0
 40
0
 40
0
 40
0
 40
1
 40
1
 40
1
 40
1
 10
1729.668757
 20
1247.318669
 30
0.0
 10
1729.668757
 20
1255.146669
 30
0.0
 10
1736.013757
 20
1261.491668
 30
0.0
 10
1743.841756
 20
1261.491668
 30
0.0
  0
SPLINE
  5
13d
100
AcDbEntity
  8
W0102_Printing_30X30
 62
1
100
AcDbSpline
 70
8
 71
3
 72
8
 73
4
 74
0
 40
0
 40
0
 40
0
 40
0
 40
1
 40
1
 40
1
 40
1
 10
1743.841756
 20
1261.491668
 30
0.0
 10
1751.668756
 20
1261.491668
 30
0.0
 10
1758.014756
 20
1255.146669
 30
0.0
 10
1758.014756
 20
1247.318669
 30
0.0
  0
LWPOLYLINE
  5
13e
100
AcDbEntity
  8
W0102_Printing_30X30
 62
1
100
AcDbPolyline
 90
1
 70
1
 10
1715.495057
 20
1247.318669
 30
0.0
  0
SPLINE
  5
13f
100
AcDbEntity
  8
W0102_Printing_30X30
 62
1
100
AcDbSpline
 70
8
 71
3
 72
8
 73
4
 74
0
 40
0
 40
0
 40
0
 40
0
 40
1
 40
1
 40
1
 40
1
 10
1800.534355
 20
1247.318669
 30
0.0
 10
1800.534355
 20
1239.490669
 30
0.0
 10
1794.188355
 20
1233.145669
 30
0.0
 10
1786.361355
 20
1233.145669
 30
0.0
  0
SPLINE
  5
140
100
AcDbEntity
  8
W0102_Printing_30X30
 62
1
100
AcDbSpline
 70
8
 71
3
 72
8
 73
4
 74
0
 40
0
 40
0
 40
0
 40
0
 40
1
 40
1
 40
1
 40
1
 10
1786.361355
 20
1233.145669
 30
0.0
 10
1778.533356
 20
1233.145669
 30
0.0
 10
1772.188356
 20
1239.490669
 30
0.0
 10
1772.188356
 20
1247.318669
 30
0.0
  0
SPLINE
  5
141
100
AcDbEntity
  8
W0102_Printing_30X30
 62
1
100
AcDbSpline
 70
8
 71
3
 72
8
 73
4
 74
0
 40
0
 40
0
 40
0
 40
0
 40
1
 40
1
 40
1
 40
1
 10
1772.188356
 20
1247.318669
 30
0.0
 10
1772.188356
 20
1255.146669
 30
0.0
 10
1778.533356
 20
1261.491668
 30
0.0
 10
1786.361355
 20
1261.491668
 30
0.0
  0
SPLINE
  5
142
100
AcDbEntity
  8
W0102_Printing_30X30
 62
1
100
AcDbSpline
 70
8
 71
3
 72
8
 73
4
 74
0
 40
0
 40
0
 40
0
 40
0
 40
1
 40
1
 40
1
 40
1
 10
1786.361355
 20
1261.491668
 30
0.0
 10
1794.188355
 20
1261.491668
 30
0.0
 10
1800.534355
 20
1255.146669
 30
0.0
 10
1800.534355
 20
1247.318669
 30
0.0
  0
LWPOLYLINE
  5
143
100
AcDbEntity
  8
W0102_Printing_30X30
 62
1
100
AcDbPolyline
 90
1
 70
1
 10
1758.014756
 20
1247.318669
 30
0.0
  0
SPLINE
  5
144
100
AcDbEntity
  8
W0102_Printing_30X30
 62
1
100
AcDbSpline
 70
8
 71
3
 72
8
 73
4
 74
0
 40
0
 40
0
 40
0
 40
0
 40
1
 40
1
 40
1
 40
1
 10
1843.054054
 20
1247.318669
 30
0.0
 10
1843.054054
 20
1239.490669
 30
0.0
 10
1836.708054
 20
1233.145669
 30
0.0
 10
1828.881054
 20
1233.145669
 30
0.0
  0
SPLINE
  5
145
100
AcDbEntity
  8
W0102_Printing_30X30
 62
1
100
AcDbSpline
 70
8
 71
3
 72
8
 73
4
 74
0
 40
0
 40
0
 40
0
 40
0
 40
1
 40
1
 40
1
 40
1
 10
1828.881054
 20
1233.145669
 30
0.0
 10
1821.053054
 20
1233.145669
 30
0.0
 10
1814.708055
 20
1239.490669
 30
0.0
 10
1814.708055
 20
1247.318669
 30
0.0
  0
SPLINE
  5
146
100
AcDbEntity
  8
W0102_Printing_30X30
 62
1
100
AcDbSpline
 70
8
 71
3
 72
8
 73
4
 74
0
 40
0
 40
0
 40
0
 40
0
 40
1
 40
1
 40
1
 40
1
 10
1814.708055
 20
1247.318669
 30
0.0
 10
1814.708055
 20
1255.146669
 30
0.0
 10
1821.053054
 20
1261.491668
 30
0.0
 10
1828.881054
 20
1261.491668
 30
0.0
  0
SPLINE
  5
147
100
AcDbEntity
  8
W0102_Printing_30X30
 62
1
100
AcDbSpline
 70
8
 71
3
 72
8
 73
4
 74
0
 40
0
 40
0
 40
0
 40
0
 40
1
 40
1
 40
1
 40
1
 10
1828.881054
 20
1261.491668
 30
0.0
 10
1836.708054
 20
1261.491668
 30
0.0
 10
1843.054054
 20
1255.146669
 30
0.0
 10
1843.054054
 20
1247.318669
 30
0.0
  0
LWPOLYLINE
  5
148
100
AcDbEntity
  8
W0102_Printing_30X30
 62
1
100
AcDbPolyline
 90
1
 70
1
 10
1800.534355
 20
1247.318669
 30
0.0
  0
SPLINE
  5
149
100
AcDbEntity
  8
W0102_Printing_30X30
 62
1
100
AcDbSpline
 70
8
 71
3
 72
8
 73
4
 74
0
 40
0
 40
0
 40
0
 40
0
 40
1
 40
1
 40
1
 40
1
 10
1885.573853
 20
1247.318669
 30
0.0
 10
1885.573853
 20
1239.490669
 30
0.0
 10
1879.227853
 20
1233.145669
 30
0.0
 10
1871.400853
 20
1233.145669
 30
0.0
  0
SPLINE
  5
14a
100
AcDbEntity
  8
W0102_Printing_30X30
 62
1
100
AcDbSpline
 70
8
 71
3
 72
8
 73
4
 74
0
 40
0
 40
0
 40
0
 40
0
 40
1
 40
1
 40
1
 40
1
 10
1871.400853
 20
1233.145669
 30
0.0
 10
1863.572853
 20
1233.145669
 30
0.0
 10
1857.226854
 20
1239.490669
 30
0.0
 10
1857.226854
 20
1247.318669
 30
0.0
  0
SPLINE
  5
14b
100
AcDbEntity
  8
W0102_Printing_30X30
 62
1
100
AcDbSpline
 70
8
 71
3
 72
8
 73
4
 74
0
 40
0
 40
0
 40
0
 40
0
 40
1
 40
1
 40
1
 40
1
 10
1857.226854
 20
1247.318669
 30
0.0
 10
1857.226854
 20
1255.146669
 30
0.0
 10
1863.572853
 20
1261.491668
 30
0.0
 10
1871.400853
 20
1261.491668
 30
0.0
  0
SPLINE
  5
14c
100
AcDbEntity
  8
W0102_Printing_30X30
 62
1
100
AcDbSpline
 70
8
 71
3
 72
8
 73
4
 74
0
 40
0
 40
0
 40
0
 40
0
 40
1
 40
1
 40
1
 40
1
 10
1871.400853
 20
1261.491668
 30
0.0
 10
1879.227853
 20
1261.491668
 30
0.0
 10
1885.573853
 20
1255.146669
 30
0.0
 10
1885.573853
 20
1247.318669
 30
0.0
  0
LWPOLYLINE
  5
14d
100
AcDbEntity
  8
W0102_Printing_30X30
 62
1
100
AcDbPolyline
 90
1
 70
1
 10
1843.054054
 20
1247.318669
 30
0.0
  0
SPLINE
  5
14e
100
AcDbEntity
  8
W0102_Printing_30X30
 62
1
100
AcDbSpline
 70
8
 71
3
 72
8
 73
4
 74
0
 40
0
 40
0
 40
0
 40
0
 40
1
 40
1
 40
1
 40
1
 10
1928.093452
 20
1247.318669
 30
0.0
 10
1928.093452
 20
1239.490669
 30
0.0
 10
1921.747452
 20
1233.145669
 30
0.0
 10
1913.920452
 20
1233.145669
 30
0.0
  0
SPLINE
  5
14f
100
AcDbEntity
  8
W0102_Printing_30X30
 62
1
100
AcDbSpline
 70
8
 71
3
 72
8
 73
4
 74
0
 40
0
 40
0
 40
0
 40
0
 40
1
 40
1
 40
1
 40
1
 10
1913.920452
 20
1233.145669
 30
0.0
 10
1906.092452
 20
1233.145669
 30
0.0
 10
1899.747453
 20
1239.490669
 30
0.0
 10
1899.747453
 20
1247.318669
 30
0.0
  0
SPLINE
  5
150
100
AcDbEntity
  8
W0102_Printing_30X30
 62
1
100
AcDbSpline
 70
8
 71
3
 72
8
 73
4
 74
0
 40
0
 40
0
 40
0
 40
0
 40
1
 40
1
 40
1
 40
1
 10
1899.747453
 20
1247.318669
 30
0.0
 10
1899.747453
 20
1255.146669
 30
0.0
 10
1906.092452
 20
1261.491668
 30
0.0
 10
1913.920452
 20
1261.491668
 30
0.0
  0
SPLINE
  5
151
100
AcDbEntity
  8
W0102_Printing_30X30
 62
1
100
AcDbSpline
 70
8
 71
3
 72
8
 73
4
 74
0
 40
0
 40
0
 40
0
 40
0
 40
1
 40
1
 40
1
 40
1
 10
1913.920452
 20
1261.491668
 30
0.0
 10
1921.747452
 20
1261.491668
 30
0.0
 10
1928.093452
 20
1255.146669
 30
0.0
 10
1928.093452
 20
1247.318669
 30
0.0
  0
LWPOLYLINE
  5
152
100
AcDbEntity
  8
W0102_Printing_30X30
 62
1
100
AcDbPolyline
 90
1
 70
1
 10
1885.573853
 20
1247.318669
 30
0.0
  0
SPLINE
  5
153
100
AcDbEntity
  8
W0102_Printing_30X30
 62
1
100
AcDbSpline
 70
8
 71
3
 72
8
 73
4
 74
0
 40
0
 40
0
 40
0
 40
0
 40
1
 40
1
 40
1
 40
1
 10
1970.613151
 20
1247.318669
 30
0.0
 10
1970.613151
 20
1239.490669
 30
0.0
 10
1964.267151
 20
1233.145669
 30
0.0
 10
1956.440151
 20
1233.145669
 30
0.0
  0
SPLINE
  5
154
100
AcDbEntity
  8
W0102_Printing_30X30
 62
1
100
AcDbSpline
 70
8
 71
3
 72
8
 73
4
 74
0
 40
0
 40
0
 40
0
 40
0
 40
1
 40
1
 40
1
 40
1
 10
1956.440151
 20
1233.145669
 30
0.0
 10
1948.612151
 20
1233.145669
 30
0.0
 10
1942.267151
 20
1239.490669
 30
0.0
 10
1942.267151
 20
1247.318669
 30
0.0
  0
SPLINE
  5
155
100
AcDbEntity
  8
W0102_Printing_30X30
 62
1
100
AcDbSpline
 70
8
 71
3
 72
8
 73
4
 74
0
 40
0
 40
0
 40
0
 40
0
 40
1
 40
1
 40
1
 40
1
 10
1942.267151
 20
1247.318669
 30
0.0
 10
1942.267151
 20
1255.146669
 30
0.0
 10
1948.612151
 20
1261.491668
 30
0.0
 10
1956.440151
 20
1261.491668
 30
0.0
  0
SPLINE
  5
156
100
AcDbEntity
  8
W0102_Printing_30X30
 62
1
100
AcDbSpline
 70
8
 71
3
 72
8
 73
4
 74
0
 40
0
 40
0
 40
0
 40
0
 40
1
 40
1
 40
1
 40
1
 10
1956.440151
 20
1261.491668
 30
0.0
 10
1964.267151
 20
1261.491668
 30
0.0
 10
1970.613151
 20
1255.146669
 30
0.0
 10
1970.613151
 20
1247.318669
 30
0.0
  0
LWPOLYLINE
  5
157
100
AcDbEntity
  8
W0102_Printing_30X30
 62
1
100
AcDbPolyline
 90
1
 70
1
 10
1928.093452
 20
1247.318669
 30
0.0
  0
SPLINE
  5
158
100
AcDbEntity
  8
W0102_Printing_30X30
 62
1
100
AcDbSpline
 70
8
 71
3
 72
8
 73
4
 74
0
 40
0
 40
0
 40
0
 40
0
 40
1
 40
1
 40
1
 40
1
 10
2013.132750
 20
1247.318669
 30
0.0
 10
2013.132750
 20
1239.490669
 30
0.0
 10
2006.786750
 20
1233.145669
 30
0.0
 10
1998.959750
 20
1233.145669
 30
0.0
  0
SPLINE
  5
159
100
AcDbEntity
  8
W0102_Printing_30X30
 62
1
100
AcDbSpline
 70
8
 71
3
 72
8
 73
4
 74
0
 40
0
 40
0
 40
0
 40
0
 40
1
 40
1
 40
1
 40
1
 10
1998.959750
 20
1233.145669
 30
0.0
 10
1991.131750
 20
1233.145669
 30
0.0
 10
1984.786750
 20
1239.490669
 30
0.0
 10
1984.786750
 20
1247.318669
 30
0.0
  0
SPLINE
  5
15a
100
AcDbEntity
  8
W0102_Printing_30X30
 62
1
100
AcDbSpline
 70
8
 71
3
 72
8
 73
4
 74
0
 40
0
 40
0
 40
0
 40
0
 40
1
 40
1
 40
1
 40
1
 10
1984.786750
 20
1247.318669
 30
0.0
 10
1984.786750
 20
1255.146669
 30
0.0
 10
1991.131750
 20
1261.491668
 30
0.0
 10
1998.959750
 20
1261.491668
 30
0.0
  0
SPLINE
  5
15b
100
AcDbEntity
  8
W0102_Printing_30X30
 62
1
100
AcDbSpline
 70
8
 71
3
 72
8
 73
4
 74
0
 40
0
 40
0
 40
0
 40
0
 40
1
 40
1
 40
1
 40
1
 10
1998.959750
 20
1261.491668
 30
0.0
 10
2006.786750
 20
1261.491668
 30
0.0
 10
2013.132750
 20
1255.146669
 30
0.0
 10
2013.132750
 20
1247.318669
 30
0.0
  0
LWPOLYLINE
  5
15c
100
AcDbEntity
  8
W0102_Printing_30X30
 62
1
100
AcDbPolyline
 90
1
 70
1
 10
1970.613151
 20
1247.318669
 30
0.0
  0
SPLINE
  5
15d
100
AcDbEntity
  8
W0102_Printing_30X30
 62
1
100
AcDbSpline
 70
8
 71
3
 72
8
 73
4
 74
0
 40
0
 40
0
 40
0
 40
0
 40
1
 40
1
 40
1
 40
1
 10
2055.652549
 20
1247.318669
 30
0.0
 10
2055.652549
 20
1239.490669
 30
0.0
 10
2049.306549
 20
1233.145669
 30
0.0
 10
2041.479549
 20
1233.145669
 30
0.0
  0
SPLINE
  5
15e
100
AcDbEntity
  8
W0102_Printing_30X30
 62
1
100
AcDbSpline
 70
8
 71
3
 72
8
 73
4
 74
0
 40
0
 40
0
 40
0
 40
0
 40
1
 40
1
 40
1
 40
1
 10
2041.479549
 20
1233.145669
 30
0.0
 10
2033.651549
 20
1233.145669
 30
0.0
 10
2027.305549
 20
1239.490669
 30
0.0
 10
2027.305549
 20
1247.318669
 30
0.0
  0
SPLINE
  5
15f
100
AcDbEntity
  8
W0102_Printing_30X30
 62
1
100
AcDbSpline
 70
8
 71
3
 72
8
 73
4
 74
0
 40
0
 40
0
 40
0
 40
0
 40
1
 40
1
 40
1
 40
1
 10
2027.305549
 20
1247.318669
 30
0.0
 10
2027.305549
 20
1255.146669
 30
0.0
 10
2033.651549
 20
1261.491668
 30
0.0
 10
2041.479549
 20
1261.491668
 30
0.0
  0
SPLINE
  5
160
100
AcDbEntity
  8
W0102_Printing_30X30
 62
1
100
AcDbSpline
 70
8
 71
3
 72
8
 73
4
 74
0
 40
0
 40
0
 40
0
 40
0
 40
1
 40
1
 40
1
 40
1
 10
2041.479549
 20
1261.491668
 30
0.0
 10
2049.306549
 20
1261.491668
 30
0.0
 10
2055.652549
 20
1255.146669
 30
0.0
 10
2055.652549
 20
1247.318669
 30
0.0
  0
LWPOLYLINE
  5
161
100
AcDbEntity
  8
W0102_Printing_30X30
 62
1
100
AcDbPolyline
 90
1
 70
1
 10
2013.132750
 20
1247.318669
 30
0.0
  0
SPLINE
  5
162
100
AcDbEntity
  8
W0102_Printing_30X30
 62
1
100
AcDbSpline
 70
8
 71
3
 72
8
 73
4
 74
0
 40
0
 40
0
 40
0
 40
0
 40
1
 40
1
 40
1
 40
1
 10
2105.111247
 20
1240.379569
 30
0.0
 10
2105.111247
 20
1232.551569
 30
0.0
 10
2098.765248
 20
1226.206569
 30
0.0
 10
2090.938248
 20
1226.206569
 30
0.0
  0
SPLINE
  5
163
100
AcDbEntity
  8
W0102_Printing_30X30
 62
1
100
AcDbSpline
 70
8
 71
3
 72
8
 73
4
 74
0
 40
0
 40
0
 40
0
 40
0
 40
1
 40
1
 40
1
 40
1
 10
2090.938248
 20
1226.206569
 30
0.0
 10
2083.110248
 20
1226.206569
 30
0.0
 10
2076.765248
 20
1232.551569
 30
0.0
 10
2076.765248
 20
1240.379569
 30
0.0
  0
SPLINE
  5
164
100
AcDbEntity
  8
W0102_Printing_30X30
 62
1
100
AcDbSpline
 70
8
 71
3
 72
8
 73
4
 74
0
 40
0
 40
0
 40
0
 40
0
 40
1
 40
1
 40
1
 40
1
 10
2076.765248
 20
1240.379569
 30
0.0
 10
2076.765248
 20
1248.207569
 30
0.0
 10
2083.110248
 20
1254.552569
 30
0.0
 10
2090.938248
 20
1254.552569
 30
0.0
  0
SPLINE
  5
165
100
AcDbEntity
  8
W0102_Printing_30X30
 62
1
100
AcDbSpline
 70
8
 71
3
 72
8
 73
4
 74
0
 40
0
 40
0
 40
0
 40
0
 40
1
 40
1
 40
1
 40
1
 10
2090.938248
 20
1254.552569
 30
0.0
 10
2098.765248
 20
1254.552569
 30
0.0
 10
2105.111247
 20
1248.207569
 30
0.0
 10
2105.111247
 20
1240.379569
 30
0.0
  0
LWPOLYLINE
  5
166
100
AcDbEntity
  8
W0102_Printing_30X30
 62
1
100
AcDbPolyline
 90
1
 70
1
 10
2055.652549
 20
1247.318669
 30
0.0
  0
SPLINE
  5
167
100
AcDbEntity
  8
W0102_Printing_30X30
 62
1
100
AcDbSpline
 70
8
 71
3
 72
8
 73
4
 74
0
 40
0
 40
0
 40
0
 40
0
 40
1
 40
1
 40
1
 40
1
 10
1325.565867
 20
460.869788
 30
0.0
 10
1325.565867
 20
453.041789
 30
0.0
 10
1319.219867
 20
446.696789
 30
0.0
 10
1311.392867
 20
446.696789
 30
0.0
  0
SPLINE
  5
168
100
AcDbEntity
  8
W0102_Printing_30X30
 62
1
100
AcDbSpline
 70
8
 71
3
 72
8
 73
4
 74
0
 40
0
 40
0
 40
0
 40
0
 40
1
 40
1
 40
1
 40
1
 10
1311.392867
 20
446.696789
 30
0.0
 10
1303.564867
 20
446.696789
 30
0.0
 10
1297.219868
 20
453.041789
 30
0.0
 10
1297.219868
 20
460.869788
 30
0.0
  0
SPLINE
  5
169
100
AcDbEntity
  8
W0102_Printing_30X30
 62
1
100
AcDbSpline
 70
8
 71
3
 72
8
 73
4
 74
0
 40
0
 40
0
 40
0
 40
0
 40
1
 40
1
 40
1
 40
1
 10
1297.219868
 20
460.869788
 30
0.0
 10
1297.219868
 20
468.697788
 30
0.0
 10
1303.564867
 20
475.042788
 30
0.0
 10
1311.392867
 20
475.042788
 30
0.0
  0
SPLINE
  5
16a
100
AcDbEntity
  8
W0102_Printing_30X30
 62
1
100
AcDbSpline
 70
8
 71
3
 72
8
 73
4
 74
0
 40
0
 40
0
 40
0
 40
0
 40
1
 40
1
 40
1
 40
1
 10
1311.392867
 20
475.042788
 30
0.0
 10
1319.219867
 20
475.042788
 30
0.0
 10
1325.565867
 20
468.697788
 30
0.0
 10
1325.565867
 20
460.869788
 30
0.0
  0
LWPOLYLINE
  5
16b
100
AcDbEntity
  8
W0102_Printing_30X30
 62
1
100
AcDbPolyline
 90
1
 70
1
 10
2105.111247
 20
1240.379569
 30
0.0
  0
SPLINE
  5
16c
100
AcDbEntity
  8
W0102_Printing_30X30
 62
1
100
AcDbSpline
 70
8
 71
3
 72
8
 73
4
 74
0
 40
0
 40
0
 40
0
 40
0
 40
1
 40
1
 40
1
 40
1
 10
1375.337566
 20
453.617889
 30
0.0
 10
1375.337566
 20
445.789889
 30
0.0
 10
1368.991566
 20
439.444889
 30
0.0
 10
1361.164566
 20
439.444889
 30
0.0
  0
SPLINE
  5
16d
100
AcDbEntity
  8
W0102_Printing_30X30
 62
1
100
AcDbSpline
 70
8
 71
3
 72
8
 73
4
 74
0
 40
0
 40
0
 40
0
 40
0
 40
1
 40
1
 40
1
 40
1
 10
1361.164566
 20
439.444889
 30
0.0
 10
1353.336566
 20
439.444889
 30
0.0
 10
1346.990566
 20
445.789889
 30
0.0
 10
1346.990566
 20
453.617889
 30
0.0
  0
SPLINE
  5
16e
100
AcDbEntity
  8
W0102_Printing_30X30
 62
1
100
AcDbSpline
 70
8
 71
3
 72
8
 73
4
 74
0
 40
0
 40
0
 40
0
 40
0
 40
1
 40
1
 40
1
 40
1
 10
1346.990566
 20
453.617889
 30
0.0
 10
1346.990566
 20
461.445888
 30
0.0
 10
1353.336566
 20
467.790888
 30
0.0
 10
1361.164566
 20
467.790888
 30
0.0
  0
SPLINE
  5
16f
100
AcDbEntity
  8
W0102_Printing_30X30
 62
1
100
AcDbSpline
 70
8
 71
3
 72
8
 73
4
 74
0
 40
0
 40
0
 40
0
 40
0
 40
1
 40
1
 40
1
 40
1
 10
1361.164566
 20
467.790888
 30
0.0
 10
1368.991566
 20
467.790888
 30
0.0
 10
1375.337566
 20
461.445888
 30
0.0
 10
1375.337566
 20
453.617889
 30
0.0
  0
LWPOLYLINE
  5
170
100
AcDbEntity
  8
W0102_Printing_30X30
 62
1
100
AcDbPolyline
 90
1
 70
1
 10
1325.565867
 20
460.869788
 30
0.0
  0
SPLINE
  5
171
100
AcDbEntity
  8
W0102_Printing_30X30
 62
1
100
AcDbSpline
 70
8
 71
3
 72
8
 73
4
 74
0
 40
0
 40
0
 40
0
 40
0
 40
1
 40
1
 40
1
 40
1
 10
1417.857265
 20
453.617889
 30
0.0
 10
1417.857265
 20
445.789889
 30
0.0
 10
1411.511265
 20
439.444889
 30
0.0
 10
1403.684265
 20
439.444889
 30
0.0
  0
SPLINE
  5
172
100
AcDbEntity
  8
W0102_Printing_30X30
 62
1
100
AcDbSpline
 70
8
 71
3
 72
8
 73
4
 74
0
 40
0
 40
0
 40
0
 40
0
 40
1
 40
1
 40
1
 40
1
 10
1403.684265
 20
439.444889
 30
0.0
 10
1395.856265
 20
439.444889
 30
0.0
 10
1389.511265
 20
445.789889
 30
0.0
 10
1389.511265
 20
453.617889
 30
0.0
  0
SPLINE
  5
173
100
AcDbEntity
  8
W0102_Printing_30X30
 62
1
100
AcDbSpline
 70
8
 71
3
 72
8
 73
4
 74
0
 40
0
 40
0
 40
0
 40
0
 40
1
 40
1
 40
1
 40
1
 10
1389.511265
 20
453.617889
 30
0.0
 10
1389.511265
 20
461.445888
 30
0.0
 10
1395.856265
 20
467.790888
 30
0.0
 10
1403.684265
 20
467.790888
 30
0.0
  0
SPLINE
  5
174
100
AcDbEntity
  8
W0102_Printing_30X30
 62
1
100
AcDbSpline
 70
8
 71
3
 72
8
 73
4
 74
0
 40
0
 40
0
 40
0
 40
0
 40
1
 40
1
 40
1
 40
1
 10
1403.684265
 20
467.790888
 30
0.0
 10
1411.511265
 20
467.790888
 30
0.0
 10
1417.857265
 20
461.445888
 30
0.0
 10
1417.857265
 20
453.617889
 30
0.0
  0
LWPOLYLINE
  5
175
100
AcDbEntity
  8
W0102_Printing_30X30
 62
1
100
AcDbPolyline
 90
1
 70
1
 10
1375.337566
 20
453.617889
 30
0.0
  0
SPLINE
  5
176
100
AcDbEntity
  8
W0102_Printing_30X30
 62
1
100
AcDbSpline
 70
8
 71
3
 72
8
 73
4
 74
0
 40
0
 40
0
 40
0
 40
0
 40
1
 40
1
 40
1
 40
1
 10
1460.376963
 20
453.617889
 30
0.0
 10
1460.376963
 20
445.789889
 30
0.0
 10
1454.030964
 20
439.444889
 30
0.0
 10
1446.203964
 20
439.444889
 30
0.0
  0
SPLINE
  5
177
100
AcDbEntity
  8
W0102_Printing_30X30
 62
1
100
AcDbSpline
 70
8
 71
3
 72
8
 73
4
 74
0
 40
0
 40
0
 40
0
 40
0
 40
1
 40
1
 40
1
 40
1
 10
1446.203964
 20
439.444889
 30
0.0
 10
1438.375964
 20
439.444889
 30
0.0
 10
1432.030964
 20
445.789889
 30
0.0
 10
1432.030964
 20
453.617889
 30
0.0
  0
SPLINE
  5
178
100
AcDbEntity
  8
W0102_Printing_30X30
 62
1
100
AcDbSpline
 70
8
 71
3
 72
8
 73
4
 74
0
 40
0
 40
0
 40
0
 40
0
 40
1
 40
1
 40
1
 40
1
 10
1432.030964
 20
453.617889
 30
0.0
 10
1432.030964
 20
461.445888
 30
0.0
 10
1438.375964
 20
467.790888
 30
0.0
 10
1446.203964
 20
467.790888
 30
0.0
  0
SPLINE
  5
179
100
AcDbEntity
  8
W0102_Printing_30X30
 62
1
100
AcDbSpline
 70
8
 71
3
 72
8
 73
4
 74
0
 40
0
 40
0
 40
0
 40
0
 40
1
 40
1
 40
1
 40
1
 10
1446.203964
 20
467.790888
 30
0.0
 10
1454.030964
 20
467.790888
 30
0.0
 10
1460.376963
 20
461.445888
 30
0.0
 10
1460.376963
 20
453.617889
 30
0.0
  0
LWPOLYLINE
  5
17a
100
AcDbEntity
  8
W0102_Printing_30X30
 62
1
100
AcDbPolyline
 90
1
 70
1
 10
1417.857265
 20
453.617889
 30
0.0
  0
SPLINE
  5
17b
100
AcDbEntity
  8
W0102_Printing_30X30
 62
1
100
AcDbSpline
 70
8
 71
3
 72
8
 73
4
 74
0
 40
0
 40
0
 40
0
 40
0
 40
1
 40
1
 40
1
 40
1
 10
1502.896562
 20
453.617889
 30
0.0
 10
1502.896562
 20
445.789889
 30
0.0
 10
1496.550563
 20
439.444889
 30
0.0
 10
1488.723563
 20
439.444889
 30
0.0
  0
SPLINE
  5
17c
100
AcDbEntity
  8
W0102_Printing_30X30
 62
1
100
AcDbSpline
 70
8
 71
3
 72
8
 73
4
 74
0
 40
0
 40
0
 40
0
 40
0
 40
1
 40
1
 40
1
 40
1
 10
1488.723563
 20
439.444889
 30
0.0
 10
1480.895563
 20
439.444889
 30
0.0
 10
1474.550563
 20
445.789889
 30
0.0
 10
1474.550563
 20
453.617889
 30
0.0
  0
SPLINE
  5
17d
100
AcDbEntity
  8
W0102_Printing_30X30
 62
1
100
AcDbSpline
 70
8
 71
3
 72
8
 73
4
 74
0
 40
0
 40
0
 40
0
 40
0
 40
1
 40
1
 40
1
 40
1
 10
1474.550563
 20
453.617889
 30
0.0
 10
1474.550563
 20
461.445888
 30
0.0
 10
1480.895563
 20
467.790888
 30
0.0
 10
1488.723563
 20
467.790888
 30
0.0
  0
SPLINE
  5
17e
100
AcDbEntity
  8
W0102_Printing_30X30
 62
1
100
AcDbSpline
 70
8
 71
3
 72
8
 73
4
 74
0
 40
0
 40
0
 40
0
 40
0
 40
1
 40
1
 40
1
 40
1
 10
1488.723563
 20
467.790888
 30
0.0
 10
1496.550563
 20
467.790888
 30
0.0
 10
1502.896562
 20
461.445888
 30
0.0
 10
1502.896562
 20
453.617889
 30
0.0
  0
LWPOLYLINE
  5
17f
100
AcDbEntity
  8
W0102_Printing_30X30
 62
1
100
AcDbPolyline
 90
1
 70
1
 10
1460.376963
 20
453.617889
 30
0.0
  0
SPLINE
  5
180
100
AcDbEntity
  8
W0102_Printing_30X30
 62
1
100
AcDbSpline
 70
8
 71
3
 72
8
 73
4
 74
0
 40
0
 40
0
 40
0
 40
0
 40
1
 40
1
 40
1
 40
1
 10
1545.416361
 20
453.617889
 30
0.0
 10
1545.416361
 20
445.789889
 30
0.0
 10
1539.070362
 20
439.444889
 30
0.0
 10
1531.243362
 20
439.444889
 30
0.0
  0
SPLINE
  5
181
100
AcDbEntity
  8
W0102_Printing_30X30
 62
1
100
AcDbSpline
 70
8
 71
3
 72
8
 73
4
 74
0
 40
0
 40
0
 40
0
 40
0
 40
1
 40
1
 40
1
 40
1
 10
1531.243362
 20
439.444889
 30
0.0
 10
1523.415362
 20
439.444889
 30
0.0
 10
1517.069362
 20
445.789889
 30
0.0
 10
1517.069362
 20
453.617889
 30
0.0
  0
SPLINE
  5
182
100
AcDbEntity
  8
W0102_Printing_30X30
 62
1
100
AcDbSpline
 70
8
 71
3
 72
8
 73
4
 74
0
 40
0
 40
0
 40
0
 40
0
 40
1
 40
1
 40
1
 40
1
 10
1517.069362
 20
453.617889
 30
0.0
 10
1517.069362
 20
461.445888
 30
0.0
 10
1523.415362
 20
467.790888
 30
0.0
 10
1531.243362
 20
467.790888
 30
0.0
  0
SPLINE
  5
183
100
AcDbEntity
  8
W0102_Printing_30X30
 62
1
100
AcDbSpline
 70
8
 71
3
 72
8
 73
4
 74
0
 40
0
 40
0
 40
0
 40
0
 40
1
 40
1
 40
1
 40
1
 10
1531.243362
 20
467.790888
 30
0.0
 10
1539.070362
 20
467.790888
 30
0.0
 10
1545.416361
 20
461.445888
 30
0.0
 10
1545.416361
 20
453.617889
 30
0.0
  0
LWPOLYLINE
  5
184
100
AcDbEntity
  8
W0102_Printing_30X30
 62
1
100
AcDbPolyline
 90
1
 70
1
 10
1502.896562
 20
453.617889
 30
0.0
  0
SPLINE
  5
185
100
AcDbEntity
  8
W0102_Printing_30X30
 62
1
100
AcDbSpline
 70
8
 71
3
 72
8
 73
4
 74
0
 40
0
 40
0
 40
0
 40
0
 40
1
 40
1
 40
1
 40
1
 10
1587.935960
 20
453.617889
 30
0.0
 10
1587.935960
 20
445.789889
 30
0.0
 10
1581.589960
 20
439.444889
 30
0.0
 10
1573.762961
 20
439.444889
 30
0.0
  0
SPLINE
  5
186
100
AcDbEntity
  8
W0102_Printing_30X30
 62
1
100
AcDbSpline
 70
8
 71
3
 72
8
 73
4
 74
0
 40
0
 40
0
 40
0
 40
0
 40
1
 40
1
 40
1
 40
1
 10
1573.762961
 20
439.444889
 30
0.0
 10
1565.934961
 20
439.444889
 30
0.0
 10
1559.589961
 20
445.789889
 30
0.0
 10
1559.589961
 20
453.617889
 30
0.0
  0
SPLINE
  5
187
100
AcDbEntity
  8
W0102_Printing_30X30
 62
1
100
AcDbSpline
 70
8
 71
3
 72
8
 73
4
 74
0
 40
0
 40
0
 40
0
 40
0
 40
1
 40
1
 40
1
 40
1
 10
1559.589961
 20
453.617889
 30
0.0
 10
1559.589961
 20
461.445888
 30
0.0
 10
1565.934961
 20
467.790888
 30
0.0
 10
1573.762961
 20
467.790888
 30
0.0
  0
SPLINE
  5
188
100
AcDbEntity
  8
W0102_Printing_30X30
 62
1
100
AcDbSpline
 70
8
 71
3
 72
8
 73
4
 74
0
 40
0
 40
0
 40
0
 40
0
 40
1
 40
1
 40
1
 40
1
 10
1573.762961
 20
467.790888
 30
0.0
 10
1581.589960
 20
467.790888
 30
0.0
 10
1587.935960
 20
461.445888
 30
0.0
 10
1587.935960
 20
453.617889
 30
0.0
  0
LWPOLYLINE
  5
189
100
AcDbEntity
  8
W0102_Printing_30X30
 62
1
100
AcDbPolyline
 90
1
 70
1
 10
1545.416361
 20
453.617889
 30
0.0
  0
SPLINE
  5
18a
100
AcDbEntity
  8
W0102_Printing_30X30
 62
1
100
AcDbSpline
 70
8
 71
3
 72
8
 73
4
 74
0
 40
0
 40
0
 40
0
 40
0
 40
1
 40
1
 40
1
 40
1
 10
1630.455659
 20
453.617889
 30
0.0
 10
1630.455659
 20
445.789889
 30
0.0
 10
1624.109659
 20
439.444889
 30
0.0
 10
1616.282660
 20
439.444889
 30
0.0
  0
SPLINE
  5
18b
100
AcDbEntity
  8
W0102_Printing_30X30
 62
1
100
AcDbSpline
 70
8
 71
3
 72
8
 73
4
 74
0
 40
0
 40
0
 40
0
 40
0
 40
1
 40
1
 40
1
 40
1
 10
1616.282660
 20
439.444889
 30
0.0
 10
1608.454660
 20
439.444889
 30
0.0
 10
1602.109660
 20
445.789889
 30
0.0
 10
1602.109660
 20
453.617889
 30
0.0
  0
SPLINE
  5
18c
100
AcDbEntity
  8
W0102_Printing_30X30
 62
1
100
AcDbSpline
 70
8
 71
3
 72
8
 73
4
 74
0
 40
0
 40
0
 40
0
 40
0
 40
1
 40
1
 40
1
 40
1
 10
1602.109660
 20
453.617889
 30
0.0
 10
1602.109660
 20
461.445888
 30
0.0
 10
1608.454660
 20
467.790888
 30
0.0
 10
1616.282660
 20
467.790888
 30
0.0
  0
SPLINE
  5
18d
100
AcDbEntity
  8
W0102_Printing_30X30
 62
1
100
AcDbSpline
 70
8
 71
3
 72
8
 73
4
 74
0
 40
0
 40
0
 40
0
 40
0
 40
1
 40
1
 40
1
 40
1
 10
1616.282660
 20
467.790888
 30
0.0
 10
1624.109659
 20
467.790888
 30
0.0
 10
1630.455659
 20
461.445888
 30
0.0
 10
1630.455659
 20
453.617889
 30
0.0
  0
LWPOLYLINE
  5
18e
100
AcDbEntity
  8
W0102_Printing_30X30
 62
1
100
AcDbPolyline
 90
1
 70
1
 10
1587.935960
 20
453.617889
 30
0.0
  0
SPLINE
  5
18f
100
AcDbEntity
  8
W0102_Printing_30X30
 62
1
100
AcDbSpline
 70
8
 71
3
 72
8
 73
4
 74
0
 40
0
 40
0
 40
0
 40
0
 40
1
 40
1
 40
1
 40
1
 10
1672.975258
 20
453.617889
 30
0.0
 10
1672.975258
 20
445.789889
 30
0.0
 10
1666.629258
 20
439.444889
 30
0.0
 10
1658.802259
 20
439.444889
 30
0.0
  0
SPLINE
  5
190
100
AcDbEntity
  8
W0102_Printing_30X30
 62
1
100
AcDbSpline
 70
8
 71
3
 72
8
 73
4
 74
0
 40
0
 40
0
 40
0
 40
0
 40
1
 40
1
 40
1
 40
1
 10
1658.802259
 20
439.444889
 30
0.0
 10
1650.974259
 20
439.444889
 30
0.0
 10
1644.629259
 20
445.789889
 30
0.0
 10
1644.629259
 20
453.617889
 30
0.0
  0
SPLINE
  5
191
100
AcDbEntity
  8
W0102_Printing_30X30
 62
1
100
AcDbSpline
 70
8
 71
3
 72
8
 73
4
 74
0
 40
0
 40
0
 40
0
 40
0
 40
1
 40
1
 40
1
 40
1
 10
1644.629259
 20
453.617889
 30
0.0
 10
1644.629259
 20
461.445888
 30
0.0
 10
1650.974259
 20
467.790888
 30
0.0
 10
1658.802259
 20
467.790888
 30
0.0
  0
SPLINE
  5
192
100
AcDbEntity
  8
W0102_Printing_30X30
 62
1
100
AcDbSpline
 70
8
 71
3
 72
8
 73
4
 74
0
 40
0
 40
0
 40
0
 40
0
 40
1
 40
1
 40
1
 40
1
 10
1658.802259
 20
467.790888
 30
0.0
 10
1666.629258
 20
467.790888
 30
0.0
 10
1672.975258
 20
461.445888
 30
0.0
 10
1672.975258
 20
453.617889
 30
0.0
  0
LWPOLYLINE
  5
193
100
AcDbEntity
  8
W0102_Printing_30X30
 62
1
100
AcDbPolyline
 90
1
 70
1
 10
1630.455659
 20
453.617889
 30
0.0
  0
SPLINE
  5
194
100
AcDbEntity
  8
W0102_Printing_30X30
 62
1
100
AcDbSpline
 70
8
 71
3
 72
8
 73
4
 74
0
 40
0
 40
0
 40
0
 40
0
 40
1
 40
1
 40
1
 40
1
 10
1715.495057
 20
453.617889
 30
0.0
 10
1715.495057
 20
445.789889
 30
0.0
 10
1709.149057
 20
439.444889
 30
0.0
 10
1701.322057
 20
439.444889
 30
0.0
  0
SPLINE
  5
195
100
AcDbEntity
  8
W0102_Printing_30X30
 62
1
100
AcDbSpline
 70
8
 71
3
 72
8
 73
4
 74
0
 40
0
 40
0
 40
0
 40
0
 40
1
 40
1
 40
1
 40
1
 10
1701.322057
 20
439.444889
 30
0.0
 10
1693.494058
 20
439.444889
 30
0.0
 10
1687.148058
 20
445.789889
 30
0.0
 10
1687.148058
 20
453.617889
 30
0.0
  0
SPLINE
  5
196
100
AcDbEntity
  8
W0102_Printing_30X30
 62
1
100
AcDbSpline
 70
8
 71
3
 72
8
 73
4
 74
0
 40
0
 40
0
 40
0
 40
0
 40
1
 40
1
 40
1
 40
1
 10
1687.148058
 20
453.617889
 30
0.0
 10
1687.148058
 20
461.445888
 30
0.0
 10
1693.494058
 20
467.790888
 30
0.0
 10
1701.322057
 20
467.790888
 30
0.0
  0
SPLINE
  5
197
100
AcDbEntity
  8
W0102_Printing_30X30
 62
1
100
AcDbSpline
 70
8
 71
3
 72
8
 73
4
 74
0
 40
0
 40
0
 40
0
 40
0
 40
1
 40
1
 40
1
 40
1
 10
1701.322057
 20
467.790888
 30
0.0
 10
1709.149057
 20
467.790888
 30
0.0
 10
1715.495057
 20
461.445888
 30
0.0
 10
1715.495057
 20
453.617889
 30
0.0
  0
LWPOLYLINE
  5
198
100
AcDbEntity
  8
W0102_Printing_30X30
 62
1
100
AcDbPolyline
 90
1
 70
1
 10
1672.975258
 20
453.617889
 30
0.0
  0
SPLINE
  5
199
100
AcDbEntity
  8
W0102_Printing_30X30
 62
1
100
AcDbSpline
 70
8
 71
3
 72
8
 73
4
 74
0
 40
0
 40
0
 40
0
 40
0
 40
1
 40
1
 40
1
 40
1
 10
1758.014756
 20
453.617889
 30
0.0
 10
1758.014756
 20
445.789889
 30
0.0
 10
1751.668756
 20
439.444889
 30
0.0
 10
1743.841756
 20
439.444889
 30
0.0
  0
SPLINE
  5
19a
100
AcDbEntity
  8
W0102_Printing_30X30
 62
1
100
AcDbSpline
 70
8
 71
3
 72
8
 73
4
 74
0
 40
0
 40
0
 40
0
 40
0
 40
1
 40
1
 40
1
 40
1
 10
1743.841756
 20
439.444889
 30
0.0
 10
1736.013757
 20
439.444889
 30
0.0
 10
1729.668757
 20
445.789889
 30
0.0
 10
1729.668757
 20
453.617889
 30
0.0
  0
SPLINE
  5
19b
100
AcDbEntity
  8
W0102_Printing_30X30
 62
1
100
AcDbSpline
 70
8
 71
3
 72
8
 73
4
 74
0
 40
0
 40
0
 40
0
 40
0
 40
1
 40
1
 40
1
 40
1
 10
1729.668757
 20
453.617889
 30
0.0
 10
1729.668757
 20
461.445888
 30
0.0
 10
1736.013757
 20
467.790888
 30
0.0
 10
1743.841756
 20
467.790888
 30
0.0
  0
SPLINE
  5
19c
100
AcDbEntity
  8
W0102_Printing_30X30
 62
1
100
AcDbSpline
 70
8
 71
3
 72
8
 73
4
 74
0
 40
0
 40
0
 40
0
 40
0
 40
1
 40
1
 40
1
 40
1
 10
1743.841756
 20
467.790888
 30
0.0
 10
1751.668756
 20
467.790888
 30
0.0
 10
1758.014756
 20
461.445888
 30
0.0
 10
1758.014756
 20
453.617889
 30
0.0
  0
LWPOLYLINE
  5
19d
100
AcDbEntity
  8
W0102_Printing_30X30
 62
1
100
AcDbPolyline
 90
1
 70
1
 10
1715.495057
 20
453.617889
 30
0.0
  0
SPLINE
  5
19e
100
AcDbEntity
  8
W0102_Printing_30X30
 62
1
100
AcDbSpline
 70
8
 71
3
 72
8
 73
4
 74
0
 40
0
 40
0
 40
0
 40
0
 40
1
 40
1
 40
1
 40
1
 10
1800.534355
 20
453.617889
 30
0.0
 10
1800.534355
 20
445.789889
 30
0.0
 10
1794.188355
 20
439.444889
 30
0.0
 10
1786.361355
 20
439.444889
 30
0.0
  0
SPLINE
  5
19f
100
AcDbEntity
  8
W0102_Printing_30X30
 62
1
100
AcDbSpline
 70
8
 71
3
 72
8
 73
4
 74
0
 40
0
 40
0
 40
0
 40
0
 40
1
 40
1
 40
1
 40
1
 10
1786.361355
 20
439.444889
 30
0.0
 10
1778.533356
 20
439.444889
 30
0.0
 10
1772.188356
 20
445.789889
 30
0.0
 10
1772.188356
 20
453.617889
 30
0.0
  0
SPLINE
  5
1a0
100
AcDbEntity
  8
W0102_Printing_30X30
 62
1
100
AcDbSpline
 70
8
 71
3
 72
8
 73
4
 74
0
 40
0
 40
0
 40
0
 40
0
 40
1
 40
1
 40
1
 40
1
 10
1772.188356
 20
453.617889
 30
0.0
 10
1772.188356
 20
461.445888
 30
0.0
 10
1778.533356
 20
467.790888
 30
0.0
 10
1786.361355
 20
467.790888
 30
0.0
  0
SPLINE
  5
1a1
100
AcDbEntity
  8
W0102_Printing_30X30
 62
1
100
AcDbSpline
 70
8
 71
3
 72
8
 73
4
 74
0
 40
0
 40
0
 40
0
 40
0
 40
1
 40
1
 40
1
 40
1
 10
1786.361355
 20
467.790888
 30
0.0
 10
1794.188355
 20
467.790888
 30
0.0
 10
1800.534355
 20
461.445888
 30
0.0
 10
1800.534355
 20
453.617889
 30
0.0
  0
LWPOLYLINE
  5
1a2
100
AcDbEntity
  8
W0102_Printing_30X30
 62
1
100
AcDbPolyline
 90
1
 70
1
 10
1758.014756
 20
453.617889
 30
0.0
  0
SPLINE
  5
1a3
100
AcDbEntity
  8
W0102_Printing_30X30
 62
1
100
AcDbSpline
 70
8
 71
3
 72
8
 73
4
 74
0
 40
0
 40
0
 40
0
 40
0
 40
1
 40
1
 40
1
 40
1
 10
1843.054054
 20
453.617889
 30
0.0
 10
1843.054054
 20
445.789889
 30
0.0
 10
1836.708054
 20
439.444889
 30
0.0
 10
1828.881054
 20
439.444889
 30
0.0
  0
SPLINE
  5
1a4
100
AcDbEntity
  8
W0102_Printing_30X30
 62
1
100
AcDbSpline
 70
8
 71
3
 72
8
 73
4
 74
0
 40
0
 40
0
 40
0
 40
0
 40
1
 40
1
 40
1
 40
1
 10
1828.881054
 20
439.444889
 30
0.0
 10
1821.053054
 20
439.444889
 30
0.0
 10
1814.708055
 20
445.789889
 30
0.0
 10
1814.708055
 20
453.617889
 30
0.0
  0
SPLINE
  5
1a5
100
AcDbEntity
  8
W0102_Printing_30X30
 62
1
100
AcDbSpline
 70
8
 71
3
 72
8
 73
4
 74
0
 40
0
 40
0
 40
0
 40
0
 40
1
 40
1
 40
1
 40
1
 10
1814.708055
 20
453.617889
 30
0.0
 10
1814.708055
 20
461.445888
 30
0.0
 10
1821.053054
 20
467.790888
 30
0.0
 10
1828.881054
 20
467.790888
 30
0.0
  0
SPLINE
  5
1a6
100
AcDbEntity
  8
W0102_Printing_30X30
 62
1
100
AcDbSpline
 70
8
 71
3
 72
8
 73
4
 74
0
 40
0
 40
0
 40
0
 40
0
 40
1
 40
1
 40
1
 40
1
 10
1828.881054
 20
467.790888
 30
0.0
 10
1836.708054
 20
467.790888
 30
0.0
 10
1843.054054
 20
461.445888
 30
0.0
 10
1843.054054
 20
453.617889
 30
0.0
  0
LWPOLYLINE
  5
1a7
100
AcDbEntity
  8
W0102_Printing_30X30
 62
1
100
AcDbPolyline
 90
1
 70
1
 10
1800.534355
 20
453.617889
 30
0.0
  0
SPLINE
  5
1a8
100
AcDbEntity
  8
W0102_Printing_30X30
 62
1
100
AcDbSpline
 70
8
 71
3
 72
8
 73
4
 74
0
 40
0
 40
0
 40
0
 40
0
 40
1
 40
1
 40
1
 40
1
 10
1885.573853
 20
453.617889
 30
0.0
 10
1885.573853
 20
445.789889
 30
0.0
 10
1879.227853
 20
439.444889
 30
0.0
 10
1871.400853
 20
439.444889
 30
0.0
  0
SPLINE
  5
1a9
100
AcDbEntity
  8
W0102_Printing_30X30
 62
1
100
AcDbSpline
 70
8
 71
3
 72
8
 73
4
 74
0
 40
0
 40
0
 40
0
 40
0
 40
1
 40
1
 40
1
 40
1
 10
1871.400853
 20
439.444889
 30
0.0
 10
1863.572853
 20
439.444889
 30
0.0
 10
1857.226854
 20
445.789889
 30
0.0
 10
1857.226854
 20
453.617889
 30
0.0
  0
SPLINE
  5
1aa
100
AcDbEntity
  8
W0102_Printing_30X30
 62
1
100
AcDbSpline
 70
8
 71
3
 72
8
 73
4
 74
0
 40
0
 40
0
 40
0
 40
0
 40
1
 40
1
 40
1
 40
1
 10
1857.226854
 20
453.617889
 30
0.0
 10
1857.226854
 20
461.445888
 30
0.0
 10
1863.572853
 20
467.790888
 30
0.0
 10
1871.400853
 20
467.790888
 30
0.0
  0
SPLINE
  5
1ab
100
AcDbEntity
  8
W0102_Printing_30X30
 62
1
100
AcDbSpline
 70
8
 71
3
 72
8
 73
4
 74
0
 40
0
 40
0
 40
0
 40
0
 40
1
 40
1
 40
1
 40
1
 10
1871.400853
 20
467.790888
 30
0.0
 10
1879.227853
 20
467.790888
 30
0.0
 10
1885.573853
 20
461.445888
 30
0.0
 10
1885.573853
 20
453.617889
 30
0.0
  0
LWPOLYLINE
  5
1ac
100
AcDbEntity
  8
W0102_Printing_30X30
 62
1
100
AcDbPolyline
 90
1
 70
1
 10
1843.054054
 20
453.617889
 30
0.0
  0
SPLINE
  5
1ad
100
AcDbEntity
  8
W0102_Printing_30X30
 62
1
100
AcDbSpline
 70
8
 71
3
 72
8
 73
4
 74
0
 40
0
 40
0
 40
0
 40
0
 40
1
 40
1
 40
1
 40
1
 10
1928.093452
 20
453.617889
 30
0.0
 10
1928.093452
 20
445.789889
 30
0.0
 10
1921.747452
 20
439.444889
 30
0.0
 10
1913.920452
 20
439.444889
 30
0.0
  0
SPLINE
  5
1ae
100
AcDbEntity
  8
W0102_Printing_30X30
 62
1
100
AcDbSpline
 70
8
 71
3
 72
8
 73
4
 74
0
 40
0
 40
0
 40
0
 40
0
 40
1
 40
1
 40
1
 40
1
 10
1913.920452
 20
439.444889
 30
0.0
 10
1906.092452
 20
439.444889
 30
0.0
 10
1899.747453
 20
445.789889
 30
0.0
 10
1899.747453
 20
453.617889
 30
0.0
  0
SPLINE
  5
1af
100
AcDbEntity
  8
W0102_Printing_30X30
 62
1
100
AcDbSpline
 70
8
 71
3
 72
8
 73
4
 74
0
 40
0
 40
0
 40
0
 40
0
 40
1
 40
1
 40
1
 40
1
 10
1899.747453
 20
453.617889
 30
0.0
 10
1899.747453
 20
461.445888
 30
0.0
 10
1906.092452
 20
467.790888
 30
0.0
 10
1913.920452
 20
467.790888
 30
0.0
  0
SPLINE
  5
1b0
100
AcDbEntity
  8
W0102_Printing_30X30
 62
1
100
AcDbSpline
 70
8
 71
3
 72
8
 73
4
 74
0
 40
0
 40
0
 40
0
 40
0
 40
1
 40
1
 40
1
 40
1
 10
1913.920452
 20
467.790888
 30
0.0
 10
1921.747452
 20
467.790888
 30
0.0
 10
1928.093452
 20
461.445888
 30
0.0
 10
1928.093452
 20
453.617889
 30
0.0
  0
LWPOLYLINE
  5
1b1
100
AcDbEntity
  8
W0102_Printing_30X30
 62
1
100
AcDbPolyline
 90
1
 70
1
 10
1885.573853
 20
453.617889
 30
0.0
  0
SPLINE
  5
1b2
100
AcDbEntity
  8
W0102_Printing_30X30
 62
1
100
AcDbSpline
 70
8
 71
3
 72
8
 73
4
 74
0
 40
0
 40
0
 40
0
 40
0
 40
1
 40
1
 40
1
 40
1
 10
1970.613151
 20
453.617889
 30
0.0
 10
1970.613151
 20
445.789889
 30
0.0
 10
1964.267151
 20
439.444889
 30
0.0
 10
1956.440151
 20
439.444889
 30
0.0
  0
SPLINE
  5
1b3
100
AcDbEntity
  8
W0102_Printing_30X30
 62
1
100
AcDbSpline
 70
8
 71
3
 72
8
 73
4
 74
0
 40
0
 40
0
 40
0
 40
0
 40
1
 40
1
 40
1
 40
1
 10
1956.440151
 20
439.444889
 30
0.0
 10
1948.612151
 20
439.444889
 30
0.0
 10
1942.267151
 20
445.789889
 30
0.0
 10
1942.267151
 20
453.617889
 30
0.0
  0
SPLINE
  5
1b4
100
AcDbEntity
  8
W0102_Printing_30X30
 62
1
100
AcDbSpline
 70
8
 71
3
 72
8
 73
4
 74
0
 40
0
 40
0
 40
0
 40
0
 40
1
 40
1
 40
1
 40
1
 10
1942.267151
 20
453.617889
 30
0.0
 10
1942.267151
 20
461.445888
 30
0.0
 10
1948.612151
 20
467.790888
 30
0.0
 10
1956.440151
 20
467.790888
 30
0.0
  0
SPLINE
  5
1b5
100
AcDbEntity
  8
W0102_Printing_30X30
 62
1
100
AcDbSpline
 70
8
 71
3
 72
8
 73
4
 74
0
 40
0
 40
0
 40
0
 40
0
 40
1
 40
1
 40
1
 40
1
 10
1956.440151
 20
467.790888
 30
0.0
 10
1964.267151
 20
467.790888
 30
0.0
 10
1970.613151
 20
461.445888
 30
0.0
 10
1970.613151
 20
453.617889
 30
0.0
  0
LWPOLYLINE
  5
1b6
100
AcDbEntity
  8
W0102_Printing_30X30
 62
1
100
AcDbPolyline
 90
1
 70
1
 10
1928.093452
 20
453.617889
 30
0.0
  0
SPLINE
  5
1b7
100
AcDbEntity
  8
W0102_Printing_30X30
 62
1
100
AcDbSpline
 70
8
 71
3
 72
8
 73
4
 74
0
 40
0
 40
0
 40
0
 40
0
 40
1
 40
1
 40
1
 40
1
 10
2013.132750
 20
453.617889
 30
0.0
 10
2013.132750
 20
445.789889
 30
0.0
 10
2006.786750
 20
439.444889
 30
0.0
 10
1998.959750
 20
439.444889
 30
0.0
  0
SPLINE
  5
1b8
100
AcDbEntity
  8
W0102_Printing_30X30
 62
1
100
AcDbSpline
 70
8
 71
3
 72
8
 73
4
 74
0
 40
0
 40
0
 40
0
 40
0
 40
1
 40
1
 40
1
 40
1
 10
1998.959750
 20
439.444889
 30
0.0
 10
1991.131750
 20
439.444889
 30
0.0
 10
1984.786750
 20
445.789889
 30
0.0
 10
1984.786750
 20
453.617889
 30
0.0
  0
SPLINE
  5
1b9
100
AcDbEntity
  8
W0102_Printing_30X30
 62
1
100
AcDbSpline
 70
8
 71
3
 72
8
 73
4
 74
0
 40
0
 40
0
 40
0
 40
0
 40
1
 40
1
 40
1
 40
1
 10
1984.786750
 20
453.617889
 30
0.0
 10
1984.786750
 20
461.445888
 30
0.0
 10
1991.131750
 20
467.790888
 30
0.0
 10
1998.959750
 20
467.790888
 30
0.0
  0
SPLINE
  5
1ba
100
AcDbEntity
  8
W0102_Printing_30X30
 62
1
100
AcDbSpline
 70
8
 71
3
 72
8
 73
4
 74
0
 40
0
 40
0
 40
0
 40
0
 40
1
 40
1
 40
1
 40
1
 10
1998.959750
 20
467.790888
 30
0.0
 10
2006.786750
 20
467.790888
 30
0.0
 10
2013.132750
 20
461.445888
 30
0.0
 10
2013.132750
 20
453.617889
 30
0.0
  0
LWPOLYLINE
  5
1bb
100
AcDbEntity
  8
W0102_Printing_30X30
 62
1
100
AcDbPolyline
 90
1
 70
1
 10
1970.613151
 20
453.617889
 30
0.0
  0
SPLINE
  5
1bc
100
AcDbEntity
  8
W0102_Printing_30X30
 62
1
100
AcDbSpline
 70
8
 71
3
 72
8
 73
4
 74
0
 40
0
 40
0
 40
0
 40
0
 40
1
 40
1
 40
1
 40
1
 10
2055.652549
 20
453.617889
 30
0.0
 10
2055.652549
 20
445.789889
 30
0.0
 10
2049.306549
 20
439.444889
 30
0.0
 10
2041.479549
 20
439.444889
 30
0.0
  0
SPLINE
  5
1bd
100
AcDbEntity
  8
W0102_Printing_30X30
 62
1
100
AcDbSpline
 70
8
 71
3
 72
8
 73
4
 74
0
 40
0
 40
0
 40
0
 40
0
 40
1
 40
1
 40
1
 40
1
 10
2041.479549
 20
439.444889
 30
0.0
 10
2033.651549
 20
439.444889
 30
0.0
 10
2027.305549
 20
445.789889
 30
0.0
 10
2027.305549
 20
453.617889
 30
0.0
  0
SPLINE
  5
1be
100
AcDbEntity
  8
W0102_Printing_30X30
 62
1
100
AcDbSpline
 70
8
 71
3
 72
8
 73
4
 74
0
 40
0
 40
0
 40
0
 40
0
 40
1
 40
1
 40
1
 40
1
 10
2027.305549
 20
453.617889
 30
0.0
 10
2027.305549
 20
461.445888
 30
0.0
 10
2033.651549
 20
467.790888
 30
0.0
 10
2041.479549
 20
467.790888
 30
0.0
  0
SPLINE
  5
1bf
100
AcDbEntity
  8
W0102_Printing_30X30
 62
1
100
AcDbSpline
 70
8
 71
3
 72
8
 73
4
 74
0
 40
0
 40
0
 40
0
 40
0
 40
1
 40
1
 40
1
 40
1
 10
2041.479549
 20
467.790888
 30
0.0
 10
2049.306549
 20
467.790888
 30
0.0
 10
2055.652549
 20
461.445888
 30
0.0
 10
2055.652549
 20
453.617889
 30
0.0
  0
LWPOLYLINE
  5
1c0
100
AcDbEntity
  8
W0102_Printing_30X30
 62
1
100
AcDbPolyline
 90
1
 70
1
 10
2013.132750
 20
453.617889
 30
0.0
  0
SPLINE
  5
1c1
100
AcDbEntity
  8
W0102_Printing_30X30
 62
1
100
AcDbSpline
 70
8
 71
3
 72
8
 73
4
 74
0
 40
0
 40
0
 40
0
 40
0
 40
1
 40
1
 40
1
 40
1
 10
2105.262847
 20
460.708588
 30
0.0
 10
2105.262847
 20
452.880589
 30
0.0
 10
2098.917848
 20
446.535589
 30
0.0
 10
2091.089848
 20
446.535589
 30
0.0
  0
SPLINE
  5
1c2
100
AcDbEntity
  8
W0102_Printing_30X30
 62
1
100
AcDbSpline
 70
8
 71
3
 72
8
 73
4
 74
0
 40
0
 40
0
 40
0
 40
0
 40
1
 40
1
 40
1
 40
1
 10
2091.089848
 20
446.535589
 30
0.0
 10
2083.261848
 20
446.535589
 30
0.0
 10
2076.916848
 20
452.880589
 30
0.0
 10
2076.916848
 20
460.708588
 30
0.0
  0
SPLINE
  5
1c3
100
AcDbEntity
  8
W0102_Printing_30X30
 62
1
100
AcDbSpline
 70
8
 71
3
 72
8
 73
4
 74
0
 40
0
 40
0
 40
0
 40
0
 40
1
 40
1
 40
1
 40
1
 10
2076.916848
 20
460.708588
 30
0.0
 10
2076.916848
 20
468.536588
 30
0.0
 10
2083.261848
 20
474.881588
 30
0.0
 10
2091.089848
 20
474.881588
 30
0.0
  0
SPLINE
  5
1c4
100
AcDbEntity
  8
W0102_Printing_30X30
 62
1
100
AcDbSpline
 70
8
 71
3
 72
8
 73
4
 74
0
 40
0
 40
0
 40
0
 40
0
 40
1
 40
1
 40
1
 40
1
 10
2091.089848
 20
474.881588
 30
0.0
 10
2098.917848
 20
474.881588
 30
0.0
 10
2105.262847
 20
468.536588
 30
0.0
 10
2105.262847
 20
460.708588
 30
0.0
  0
LWPOLYLINE
  5
1c5
100
AcDbEntity
  8
W0102_Printing_30X30
 62
1
100
AcDbPolyline
 90
1
 70
1
 10
2055.652549
 20
453.617889
 30
0.0
  0
SPLINE
  5
1c6
100
AcDbEntity
  8
W0102_Printing_30X30
 62
1
100
AcDbSpline
 70
8
 71
3
 72
8
 73
4
 74
0
 40
0
 40
0
 40
0
 40
0
 40
1
 40
1
 40
1
 40
1
 10
2098.172048
 20
1176.452471
 30
0.0
 10
2090.344048
 20
1176.452471
 30
0.0
 10
2083.999048
 20
1182.798470
 30
0.0
 10
2083.999048
 20
1190.625470
 30
0.0
  0
SPLINE
  5
1c7
100
AcDbEntity
  8
W0102_Printing_30X30
 62
1
100
AcDbSpline
 70
8
 71
3
 72
8
 73
4
 74
0
 40
0
 40
0
 40
0
 40
0
 40
1
 40
1
 40
1
 40
1
 10
2083.999048
 20
1190.625470
 30
0.0
 10
2083.999048
 20
1198.453470
 30
0.0
 10
2090.344048
 20
1204.798470
 30
0.0
 10
2098.172048
 20
1204.798470
 30
0.0
  0
SPLINE
  5
1c8
100
AcDbEntity
  8
W0102_Printing_30X30
 62
1
100
AcDbSpline
 70
8
 71
3
 72
8
 73
4
 74
0
 40
0
 40
0
 40
0
 40
0
 40
1
 40
1
 40
1
 40
1
 10
2098.172048
 20
1204.798470
 30
0.0
 10
2106.000047
 20
1204.798470
 30
0.0
 10
2112.345047
 20
1198.453470
 30
0.0
 10
2112.345047
 20
1190.625470
 30
0.0
  0
SPLINE
  5
1c9
100
AcDbEntity
  8
W0102_Printing_30X30
 62
1
100
AcDbSpline
 70
8
 71
3
 72
8
 73
4
 74
0
 40
0
 40
0
 40
0
 40
0
 40
1
 40
1
 40
1
 40
1
 10
2112.345047
 20
1190.625470
 30
0.0
 10
2112.345047
 20
1182.798470
 30
0.0
 10
2106.000047
 20
1176.452471
 30
0.0
 10
2098.172048
 20
1176.452471
 30
0.0
  0
LWPOLYLINE
  5
1ca
100
AcDbEntity
  8
W0102_Printing_30X30
 62
1
100
AcDbPolyline
 90
1
 70
1
 10
2105.262847
 20
460.708588
 30
0.0
  0
SPLINE
  5
1cb
100
AcDbEntity
  8
W0102_Printing_30X30
 62
1
100
AcDbSpline
 70
8
 71
3
 72
8
 73
4
 74
0
 40
0
 40
0
 40
0
 40
0
 40
1
 40
1
 40
1
 40
1
 10
2098.172048
 20
1133.932872
 30
0.0
 10
2090.344048
 20
1133.932872
 30
0.0
 10
2083.999048
 20
1140.278871
 30
0.0
 10
2083.999048
 20
1148.105871
 30
0.0
  0
SPLINE
  5
1cc
100
AcDbEntity
  8
W0102_Printing_30X30
 62
1
100
AcDbSpline
 70
8
 71
3
 72
8
 73
4
 74
0
 40
0
 40
0
 40
0
 40
0
 40
1
 40
1
 40
1
 40
1
 10
2083.999048
 20
1148.105871
 30
0.0
 10
2083.999048
 20
1155.933871
 30
0.0
 10
2090.344048
 20
1162.278871
 30
0.0
 10
2098.172048
 20
1162.278871
 30
0.0
  0
SPLINE
  5
1cd
100
AcDbEntity
  8
W0102_Printing_30X30
 62
1
100
AcDbSpline
 70
8
 71
3
 72
8
 73
4
 74
0
 40
0
 40
0
 40
0
 40
0
 40
1
 40
1
 40
1
 40
1
 10
2098.172048
 20
1162.278871
 30
0.0
 10
2106.000047
 20
1162.278871
 30
0.0
 10
2112.345047
 20
1155.933871
 30
0.0
 10
2112.345047
 20
1148.105871
 30
0.0
  0
SPLINE
  5
1ce
100
AcDbEntity
  8
W0102_Printing_30X30
 62
1
100
AcDbSpline
 70
8
 71
3
 72
8
 73
4
 74
0
 40
0
 40
0
 40
0
 40
0
 40
1
 40
1
 40
1
 40
1
 10
2112.345047
 20
1148.105871
 30
0.0
 10
2112.345047
 20
1140.278871
 30
0.0
 10
2106.000047
 20
1133.932872
 30
0.0
 10
2098.172048
 20
1133.932872
 30
0.0
  0
LWPOLYLINE
  5
1cf
100
AcDbEntity
  8
W0102_Printing_30X30
 62
1
100
AcDbPolyline
 90
1
 70
1
 10
2098.172048
 20
1176.452471
 30
0.0
  0
SPLINE
  5
1d0
100
AcDbEntity
  8
W0102_Printing_30X30
 62
1
100
AcDbSpline
 70
8
 71
3
 72
8
 73
4
 74
0
 40
0
 40
0
 40
0
 40
0
 40
1
 40
1
 40
1
 40
1
 10
2098.172048
 20
1091.413173
 30
0.0
 10
2090.344048
 20
1091.413173
 30
0.0
 10
2083.999048
 20
1097.759173
 30
0.0
 10
2083.999048
 20
1105.586172
 30
0.0
  0
SPLINE
  5
1d1
100
AcDbEntity
  8
W0102_Printing_30X30
 62
1
100
AcDbSpline
 70
8
 71
3
 72
8
 73
4
 74
0
 40
0
 40
0
 40
0
 40
0
 40
1
 40
1
 40
1
 40
1
 10
2083.999048
 20
1105.586172
 30
0.0
 10
2083.999048
 20
1113.414172
 30
0.0
 10
2090.344048
 20
1119.759172
 30
0.0
 10
2098.172048
 20
1119.759172
 30
0.0
  0
SPLINE
  5
1d2
100
AcDbEntity
  8
W0102_Printing_30X30
 62
1
100
AcDbSpline
 70
8
 71
3
 72
8
 73
4
 74
0
 40
0
 40
0
 40
0
 40
0
 40
1
 40
1
 40
1
 40
1
 10
2098.172048
 20
1119.759172
 30
0.0
 10
2106.000047
 20
1119.759172
 30
0.0
 10
2112.345047
 20
1113.414172
 30
0.0
 10
2112.345047
 20
1105.586172
 30
0.0
  0
SPLINE
  5
1d3
100
AcDbEntity
  8
W0102_Printing_30X30
 62
1
100
AcDbSpline
 70
8
 71
3
 72
8
 73
4
 74
0
 40
0
 40
0
 40
0
 40
0
 40
1
 40
1
 40
1
 40
1
 10
2112.345047
 20
1105.586172
 30
0.0
 10
2112.345047
 20
1097.759173
 30
0.0
 10
2106.000047
 20
1091.413173
 30
0.0
 10
2098.172048
 20
1091.413173
 30
0.0
  0
LWPOLYLINE
  5
1d4
100
AcDbEntity
  8
W0102_Printing_30X30
 62
1
100
AcDbPolyline
 90
1
 70
1
 10
2098.172048
 20
1133.932872
 30
0.0
  0
SPLINE
  5
1d5
100
AcDbEntity
  8
W0102_Printing_30X30
 62
1
100
AcDbSpline
 70
8
 71
3
 72
8
 73
4
 74
0
 40
0
 40
0
 40
0
 40
0
 40
1
 40
1
 40
1
 40
1
 10
2098.172048
 20
1048.893374
 30
0.0
 10
2090.344048
 20
1048.893374
 30
0.0
 10
2083.999048
 20
1055.239374
 30
0.0
 10
2083.999048
 20
1063.066373
 30
0.0
  0
SPLINE
  5
1d6
100
AcDbEntity
  8
W0102_Printing_30X30
 62
1
100
AcDbSpline
 70
8
 71
3
 72
8
 73
4
 74
0
 40
0
 40
0
 40
0
 40
0
 40
1
 40
1
 40
1
 40
1
 10
2083.999048
 20
1063.066373
 30
0.0
 10
2083.999048
 20
1070.894373
 30
0.0
 10
2090.344048
 20
1077.240373
 30
0.0
 10
2098.172048
 20
1077.240373
 30
0.0
  0
SPLINE
  5
1d7
100
AcDbEntity
  8
W0102_Printing_30X30
 62
1
100
AcDbSpline
 70
8
 71
3
 72
8
 73
4
 74
0
 40
0
 40
0
 40
0
 40
0
 40
1
 40
1
 40
1
 40
1
 10
2098.172048
 20
1077.240373
 30
0.0
 10
2106.000047
 20
1077.240373
 30
0.0
 10
2112.345047
 20
1070.894373
 30
0.0
 10
2112.345047
 20
1063.066373
 30
0.0
  0
SPLINE
  5
1d8
100
AcDbEntity
  8
W0102_Printing_30X30
 62
1
100
AcDbSpline
 70
8
 71
3
 72
8
 73
4
 74
0
 40
0
 40
0
 40
0
 40
0
 40
1
 40
1
 40
1
 40
1
 10
2112.345047
 20
1063.066373
 30
0.0
 10
2112.345047
 20
1055.239374
 30
0.0
 10
2106.000047
 20
1048.893374
 30
0.0
 10
2098.172048
 20
1048.893374
 30
0.0
  0
LWPOLYLINE
  5
1d9
100
AcDbEntity
  8
W0102_Printing_30X30
 62
1
100
AcDbPolyline
 90
1
 70
1
 10
2098.172048
 20
1091.413173
 30
0.0
  0
SPLINE
  5
1da
100
AcDbEntity
  8
W0102_Printing_30X30
 62
1
100
AcDbSpline
 70
8
 71
3
 72
8
 73
4
 74
0
 40
0
 40
0
 40
0
 40
0
 40
1
 40
1
 40
1
 40
1
 10
2098.172048
 20
1006.373775
 30
0.0
 10
2090.344048
 20
1006.373775
 30
0.0
 10
2083.999048
 20
1012.719775
 30
0.0
 10
2083.999048
 20
1020.546774
 30
0.0
  0
SPLINE
  5
1db
100
AcDbEntity
  8
W0102_Printing_30X30
 62
1
100
AcDbSpline
 70
8
 71
3
 72
8
 73
4
 74
0
 40
0
 40
0
 40
0
 40
0
 40
1
 40
1
 40
1
 40
1
 10
2083.999048
 20
1020.546774
 30
0.0
 10
2083.999048
 20
1028.374774
 30
0.0
 10
2090.344048
 20
1034.719774
 30
0.0
 10
2098.172048
 20
1034.719774
 30
0.0
  0
SPLINE
  5
1dc
100
AcDbEntity
  8
W0102_Printing_30X30
 62
1
100
AcDbSpline
 70
8
 71
3
 72
8
 73
4
 74
0
 40
0
 40
0
 40
0
 40
0
 40
1
 40
1
 40
1
 40
1
 10
2098.172048
 20
1034.719774
 30
0.0
 10
2106.000047
 20
1034.719774
 30
0.0
 10
2112.345047
 20
1028.374774
 30
0.0
 10
2112.345047
 20
1020.546774
 30
0.0
  0
SPLINE
  5
1dd
100
AcDbEntity
  8
W0102_Printing_30X30
 62
1
100
AcDbSpline
 70
8
 71
3
 72
8
 73
4
 74
0
 40
0
 40
0
 40
0
 40
0
 40
1
 40
1
 40
1
 40
1
 10
2112.345047
 20
1020.546774
 30
0.0
 10
2112.345047
 20
1012.719775
 30
0.0
 10
2106.000047
 20
1006.373775
 30
0.0
 10
2098.172048
 20
1006.373775
 30
0.0
  0
LWPOLYLINE
  5
1de
100
AcDbEntity
  8
W0102_Printing_30X30
 62
1
100
AcDbPolyline
 90
1
 70
1
 10
2098.172048
 20
1048.893374
 30
0.0
  0
SPLINE
  5
1df
100
AcDbEntity
  8
W0102_Printing_30X30
 62
1
100
AcDbSpline
 70
8
 71
3
 72
8
 73
4
 74
0
 40
0
 40
0
 40
0
 40
0
 40
1
 40
1
 40
1
 40
1
 10
2098.172048
 20
963.854076
 30
0.0
 10
2090.344048
 20
963.854076
 30
0.0
 10
2083.999048
 20
970.200076
 30
0.0
 10
2083.999048
 20
978.027076
 30
0.0
  0
SPLINE
  5
1e0
100
AcDbEntity
  8
W0102_Printing_30X30
 62
1
100
AcDbSpline
 70
8
 71
3
 72
8
 73
4
 74
0
 40
0
 40
0
 40
0
 40
0
 40
1
 40
1
 40
1
 40
1
 10
2083.999048
 20
978.027076
 30
0.0
 10
2083.999048
 20
985.855075
 30
0.0
 10
2090.344048
 20
992.200075
 30
0.0
 10
2098.172048
 20
992.200075
 30
0.0
  0
SPLINE
  5
1e1
100
AcDbEntity
  8
W0102_Printing_30X30
 62
1
100
AcDbSpline
 70
8
 71
3
 72
8
 73
4
 74
0
 40
0
 40
0
 40
0
 40
0
 40
1
 40
1
 40
1
 40
1
 10
2098.172048
 20
992.200075
 30
0.0
 10
2106.000047
 20
992.200075
 30
0.0
 10
2112.345047
 20
985.855075
 30
0.0
 10
2112.345047
 20
978.027076
 30
0.0
  0
SPLINE
  5
1e2
100
AcDbEntity
  8
W0102_Printing_30X30
 62
1
100
AcDbSpline
 70
8
 71
3
 72
8
 73
4
 74
0
 40
0
 40
0
 40
0
 40
0
 40
1
 40
1
 40
1
 40
1
 10
2112.345047
 20
978.027076
 30
0.0
 10
2112.345047
 20
970.200076
 30
0.0
 10
2106.000047
 20
963.854076
 30
0.0
 10
2098.172048
 20
963.854076
 30
0.0
  0
LWPOLYLINE
  5
1e3
100
AcDbEntity
  8
W0102_Printing_30X30
 62
1
100
AcDbPolyline
 90
1
 70
1
 10
2098.172048
 20
1006.373775
 30
0.0
  0
SPLINE
  5
1e4
100
AcDbEntity
  8
W0102_Printing_30X30
 62
1
100
AcDbSpline
 70
8
 71
3
 72
8
 73
4
 74
0
 40
0
 40
0
 40
0
 40
0
 40
1
 40
1
 40
1
 40
1
 10
2098.172048
 20
921.334377
 30
0.0
 10
2090.344048
 20
921.334377
 30
0.0
 10
2083.999048
 20
927.680377
 30
0.0
 10
2083.999048
 20
935.507377
 30
0.0
  0
SPLINE
  5
1e5
100
AcDbEntity
  8
W0102_Printing_30X30
 62
1
100
AcDbSpline
 70
8
 71
3
 72
8
 73
4
 74
0
 40
0
 40
0
 40
0
 40
0
 40
1
 40
1
 40
1
 40
1
 10
2083.999048
 20
935.507377
 30
0.0
 10
2083.999048
 20
943.335376
 30
0.0
 10
2090.344048
 20
949.680376
 30
0.0
 10
2098.172048
 20
949.680376
 30
0.0
  0
SPLINE
  5
1e6
100
AcDbEntity
  8
W0102_Printing_30X30
 62
1
100
AcDbSpline
 70
8
 71
3
 72
8
 73
4
 74
0
 40
0
 40
0
 40
0
 40
0
 40
1
 40
1
 40
1
 40
1
 10
2098.172048
 20
949.680376
 30
0.0
 10
2106.000047
 20
949.680376
 30
0.0
 10
2112.345047
 20
943.335376
 30
0.0
 10
2112.345047
 20
935.507377
 30
0.0
  0
SPLINE
  5
1e7
100
AcDbEntity
  8
W0102_Printing_30X30
 62
1
100
AcDbSpline
 70
8
 71
3
 72
8
 73
4
 74
0
 40
0
 40
0
 40
0
 40
0
 40
1
 40
1
 40
1
 40
1
 10
2112.345047
 20
935.507377
 30
0.0
 10
2112.345047
 20
927.680377
 30
0.0
 10
2106.000047
 20
921.334377
 30
0.0
 10
2098.172048
 20
921.334377
 30
0.0
  0
LWPOLYLINE
  5
1e8
100
AcDbEntity
  8
W0102_Printing_30X30
 62
1
100
AcDbPolyline
 90
1
 70
1
 10
2098.172048
 20
963.854076
 30
0.0
  0
SPLINE
  5
1e9
100
AcDbEntity
  8
W0102_Printing_30X30
 62
1
100
AcDbSpline
 70
8
 71
3
 72
8
 73
4
 74
0
 40
0
 40
0
 40
0
 40
0
 40
1
 40
1
 40
1
 40
1
 10
2098.172048
 20
878.814778
 30
0.0
 10
2090.344048
 20
878.814778
 30
0.0
 10
2083.999048
 20
885.160778
 30
0.0
 10
2083.999048
 20
892.987778
 30
0.0
  0
SPLINE
  5
1ea
100
AcDbEntity
  8
W0102_Printing_30X30
 62
1
100
AcDbSpline
 70
8
 71
3
 72
8
 73
4
 74
0
 40
0
 40
0
 40
0
 40
0
 40
1
 40
1
 40
1
 40
1
 10
2083.999048
 20
892.987778
 30
0.0
 10
2083.999048
 20
900.815777
 30
0.0
 10
2090.344048
 20
907.160777
 30
0.0
 10
2098.172048
 20
907.160777
 30
0.0
  0
SPLINE
  5
1eb
100
AcDbEntity
  8
W0102_Printing_30X30
 62
1
100
AcDbSpline
 70
8
 71
3
 72
8
 73
4
 74
0
 40
0
 40
0
 40
0
 40
0
 40
1
 40
1
 40
1
 40
1
 10
2098.172048
 20
907.160777
 30
0.0
 10
2106.000047
 20
907.160777
 30
0.0
 10
2112.345047
 20
900.815777
 30
0.0
 10
2112.345047
 20
892.987778
 30
0.0
  0
SPLINE
  5
1ec
100
AcDbEntity
  8
W0102_Printing_30X30
 62
1
100
AcDbSpline
 70
8
 71
3
 72
8
 73
4
 74
0
 40
0
 40
0
 40
0
 40
0
 40
1
 40
1
 40
1
 40
1
 10
2112.345047
 20
892.987778
 30
0.0
 10
2112.345047
 20
885.160778
 30
0.0
 10
2106.000047
 20
878.814778
 30
0.0
 10
2098.172048
 20
878.814778
 30
0.0
  0
LWPOLYLINE
  5
1ed
100
AcDbEntity
  8
W0102_Printing_30X30
 62
1
100
AcDbPolyline
 90
1
 70
1
 10
2098.172048
 20
921.334377
 30
0.0
  0
SPLINE
  5
1ee
100
AcDbEntity
  8
W0102_Printing_30X30
 62
1
100
AcDbSpline
 70
8
 71
3
 72
8
 73
4
 74
0
 40
0
 40
0
 40
0
 40
0
 40
1
 40
1
 40
1
 40
1
 10
2098.172048
 20
836.294979
 30
0.0
 10
2090.344048
 20
836.294979
 30
0.0
 10
2083.999048
 20
842.640979
 30
0.0
 10
2083.999048
 20
850.467979
 30
0.0
  0
SPLINE
  5
1ef
100
AcDbEntity
  8
W0102_Printing_30X30
 62
1
100
AcDbSpline
 70
8
 71
3
 72
8
 73
4
 74
0
 40
0
 40
0
 40
0
 40
0
 40
1
 40
1
 40
1
 40
1
 10
2083.999048
 20
850.467979
 30
0.0
 10
2083.999048
 20
858.295979
 30
0.0
 10
2090.344048
 20
864.640978
 30
0.0
 10
2098.172048
 20
864.640978
 30
0.0
  0
SPLINE
  5
1f0
100
AcDbEntity
  8
W0102_Printing_30X30
 62
1
100
AcDbSpline
 70
8
 71
3
 72
8
 73
4
 74
0
 40
0
 40
0
 40
0
 40
0
 40
1
 40
1
 40
1
 40
1
 10
2098.172048
 20
864.640978
 30
0.0
 10
2106.000047
 20
864.640978
 30
0.0
 10
2112.345047
 20
858.295979
 30
0.0
 10
2112.345047
 20
850.467979
 30
0.0
  0
SPLINE
  5
1f1
100
AcDbEntity
  8
W0102_Printing_30X30
 62
1
100
AcDbSpline
 70
8
 71
3
 72
8
 73
4
 74
0
 40
0
 40
0
 40
0
 40
0
 40
1
 40
1
 40
1
 40
1
 10
2112.345047
 20
850.467979
 30
0.0
 10
2112.345047
 20
842.640979
 30
0.0
 10
2106.000047
 20
836.294979
 30
0.0
 10
2098.172048
 20
836.294979
 30
0.0
  0
LWPOLYLINE
  5
1f2
100
AcDbEntity
  8
W0102_Printing_30X30
 62
1
100
AcDbPolyline
 90
1
 70
1
 10
2098.172048
 20
878.814778
 30
0.0
  0
SPLINE
  5
1f3
100
AcDbEntity
  8
W0102_Printing_30X30
 62
1
100
AcDbSpline
 70
8
 71
3
 72
8
 73
4
 74
0
 40
0
 40
0
 40
0
 40
0
 40
1
 40
1
 40
1
 40
1
 10
2098.172048
 20
793.775380
 30
0.0
 10
2090.344048
 20
793.775380
 30
0.0
 10
2083.999048
 20
800.121380
 30
0.0
 10
2083.999048
 20
807.948380
 30
0.0
  0
SPLINE
  5
1f4
100
AcDbEntity
  8
W0102_Printing_30X30
 62
1
100
AcDbSpline
 70
8
 71
3
 72
8
 73
4
 74
0
 40
0
 40
0
 40
0
 40
0
 40
1
 40
1
 40
1
 40
1
 10
2083.999048
 20
807.948380
 30
0.0
 10
2083.999048
 20
815.776380
 30
0.0
 10
2090.344048
 20
822.121379
 30
0.0
 10
2098.172048
 20
822.121379
 30
0.0
  0
SPLINE
  5
1f5
100
AcDbEntity
  8
W0102_Printing_30X30
 62
1
100
AcDbSpline
 70
8
 71
3
 72
8
 73
4
 74
0
 40
0
 40
0
 40
0
 40
0
 40
1
 40
1
 40
1
 40
1
 10
2098.172048
 20
822.121379
 30
0.0
 10
2106.000047
 20
822.121379
 30
0.0
 10
2112.345047
 20
815.776380
 30
0.0
 10
2112.345047
 20
807.948380
 30
0.0
  0
SPLINE
  5
1f6
100
AcDbEntity
  8
W0102_Printing_30X30
 62
1
100
AcDbSpline
 70
8
 71
3
 72
8
 73
4
 74
0
 40
0
 40
0
 40
0
 40
0
 40
1
 40
1
 40
1
 40
1
 10
2112.345047
 20
807.948380
 30
0.0
 10
2112.345047
 20
800.121380
 30
0.0
 10
2106.000047
 20
793.775380
 30
0.0
 10
2098.172048
 20
793.775380
 30
0.0
  0
LWPOLYLINE
  5
1f7
100
AcDbEntity
  8
W0102_Printing_30X30
 62
1
100
AcDbPolyline
 90
1
 70
1
 10
2098.172048
 20
836.294979
 30
0.0
  0
SPLINE
  5
1f8
100
AcDbEntity
  8
W0102_Printing_30X30
 62
1
100
AcDbSpline
 70
8
 71
3
 72
8
 73
4
 74
0
 40
0
 40
0
 40
0
 40
0
 40
1
 40
1
 40
1
 40
1
 10
2098.172048
 20
751.255681
 30
0.0
 10
2090.344048
 20
751.255681
 30
0.0
 10
2083.999048
 20
757.601681
 30
0.0
 10
2083.999048
 20
765.428681
 30
0.0
  0
SPLINE
  5
1f9
100
AcDbEntity
  8
W0102_Printing_30X30
 62
1
100
AcDbSpline
 70
8
 71
3
 72
8
 73
4
 74
0
 40
0
 40
0
 40
0
 40
0
 40
1
 40
1
 40
1
 40
1
 10
2083.999048
 20
765.428681
 30
0.0
 10
2083.999048
 20
773.256681
 30
0.0
 10
2090.344048
 20
779.601681
 30
0.0
 10
2098.172048
 20
779.601681
 30
0.0
  0
SPLINE
  5
1fa
100
AcDbEntity
  8
W0102_Printing_30X30
 62
1
100
AcDbSpline
 70
8
 71
3
 72
8
 73
4
 74
0
 40
0
 40
0
 40
0
 40
0
 40
1
 40
1
 40
1
 40
1
 10
2098.172048
 20
779.601681
 30
0.0
 10
2106.000047
 20
779.601681
 30
0.0
 10
2112.345047
 20
773.256681
 30
0.0
 10
2112.345047
 20
765.428681
 30
0.0
  0
SPLINE
  5
1fb
100
AcDbEntity
  8
W0102_Printing_30X30
 62
1
100
AcDbSpline
 70
8
 71
3
 72
8
 73
4
 74
0
 40
0
 40
0
 40
0
 40
0
 40
1
 40
1
 40
1
 40
1
 10
2112.345047
 20
765.428681
 30
0.0
 10
2112.345047
 20
757.601681
 30
0.0
 10
2106.000047
 20
751.255681
 30
0.0
 10
2098.172048
 20
751.255681
 30
0.0
  0
LWPOLYLINE
  5
1fc
100
AcDbEntity
  8
W0102_Printing_30X30
 62
1
100
AcDbPolyline
 90
1
 70
1
 10
2098.172048
 20
793.775380
 30
0.0
  0
SPLINE
  5
1fd
100
AcDbEntity
  8
W0102_Printing_30X30
 62
1
100
AcDbSpline
 70
8
 71
3
 72
8
 73
4
 74
0
 40
0
 40
0
 40
0
 40
0
 40
1
 40
1
 40
1
 40
1
 10
2098.172048
 20
708.735982
 30
0.0
 10
2090.344048
 20
708.735982
 30
0.0
 10
2083.999048
 20
715.081982
 30
0.0
 10
2083.999048
 20
722.908982
 30
0.0
  0
SPLINE
  5
1fe
100
AcDbEntity
  8
W0102_Printing_30X30
 62
1
100
AcDbSpline
 70
8
 71
3
 72
8
 73
4
 74
0
 40
0
 40
0
 40
0
 40
0
 40
1
 40
1
 40
1
 40
1
 10
2083.999048
 20
722.908982
 30
0.0
 10
2083.999048
 20
730.736982
 30
0.0
 10
2090.344048
 20
737.081982
 30
0.0
 10
2098.172048
 20
737.081982
 30
0.0
  0
SPLINE
  5
1ff
100
AcDbEntity
  8
W0102_Printing_30X30
 62
1
100
AcDbSpline
 70
8
 71
3
 72
8
 73
4
 74
0
 40
0
 40
0
 40
0
 40
0
 40
1
 40
1
 40
1
 40
1
 10
2098.172048
 20
737.081982
 30
0.0
 10
2106.000047
 20
737.081982
 30
0.0
 10
2112.345047
 20
730.736982
 30
0.0
 10
2112.345047
 20
722.908982
 30
0.0
  0
SPLINE
  5
200
100
AcDbEntity
  8
W0102_Printing_30X30
 62
1
100
AcDbSpline
 70
8
 71
3
 72
8
 73
4
 74
0
 40
0
 40
0
 40
0
 40
0
 40
1
 40
1
 40
1
 40
1
 10
2112.345047
 20
722.908982
 30
0.0
 10
2112.345047
 20
715.081982
 30
0.0
 10
2106.000047
 20
708.735982
 30
0.0
 10
2098.172048
 20
708.735982
 30
0.0
  0
LWPOLYLINE
  5
201
100
AcDbEntity
  8
W0102_Printing_30X30
 62
1
100
AcDbPolyline
 90
1
 70
1
 10
2098.172048
 20
751.255681
 30
0.0
  0
SPLINE
  5
202
100
AcDbEntity
  8
W0102_Printing_30X30
 62
1
100
AcDbSpline
 70
8
 71
3
 72
8
 73
4
 74
0
 40
0
 40
0
 40
0
 40
0
 40
1
 40
1
 40
1
 40
1
 10
2098.172048
 20
666.216283
 30
0.0
 10
2090.344048
 20
666.216283
 30
0.0
 10
2083.999048
 20
672.562283
 30
0.0
 10
2083.999048
 20
680.389283
 30
0.0
  0
SPLINE
  5
203
100
AcDbEntity
  8
W0102_Printing_30X30
 62
1
100
AcDbSpline
 70
8
 71
3
 72
8
 73
4
 74
0
 40
0
 40
0
 40
0
 40
0
 40
1
 40
1
 40
1
 40
1
 10
2083.999048
 20
680.389283
 30
0.0
 10
2083.999048
 20
688.217283
 30
0.0
 10
2090.344048
 20
694.562283
 30
0.0
 10
2098.172048
 20
694.562283
 30
0.0
  0
SPLINE
  5
204
100
AcDbEntity
  8
W0102_Printing_30X30
 62
1
100
AcDbSpline
 70
8
 71
3
 72
8
 73
4
 74
0
 40
0
 40
0
 40
0
 40
0
 40
1
 40
1
 40
1
 40
1
 10
2098.172048
 20
694.562283
 30
0.0
 10
2106.000047
 20
694.562283
 30
0.0
 10
2112.345047
 20
688.217283
 30
0.0
 10
2112.345047
 20
680.389283
 30
0.0
  0
SPLINE
  5
205
100
AcDbEntity
  8
W0102_Printing_30X30
 62
1
100
AcDbSpline
 70
8
 71
3
 72
8
 73
4
 74
0
 40
0
 40
0
 40
0
 40
0
 40
1
 40
1
 40
1
 40
1
 10
2112.345047
 20
680.389283
 30
0.0
 10
2112.345047
 20
672.562283
 30
0.0
 10
2106.000047
 20
666.216283
 30
0.0
 10
2098.172048
 20
666.216283
 30
0.0
  0
LWPOLYLINE
  5
206
100
AcDbEntity
  8
W0102_Printing_30X30
 62
1
100
AcDbPolyline
 90
1
 70
1
 10
2098.172048
 20
708.735982
 30
0.0
  0
SPLINE
  5
207
100
AcDbEntity
  8
W0102_Printing_30X30
 62
1
100
AcDbSpline
 70
8
 71
3
 72
8
 73
4
 74
0
 40
0
 40
0
 40
0
 40
0
 40
1
 40
1
 40
1
 40
1
 10
2098.172048
 20
623.696684
 30
0.0
 10
2090.344048
 20
623.696684
 30
0.0
 10
2083.999048
 20
630.042684
 30
0.0
 10
2083.999048
 20
637.869684
 30
0.0
  0
SPLINE
  5
208
100
AcDbEntity
  8
W0102_Printing_30X30
 62
1
100
AcDbSpline
 70
8
 71
3
 72
8
 73
4
 74
0
 40
0
 40
0
 40
0
 40
0
 40
1
 40
1
 40
1
 40
1
 10
2083.999048
 20
637.869684
 30
0.0
 10
2083.999048
 20
645.697684
 30
0.0
 10
2090.344048
 20
652.042684
 30
0.0
 10
2098.172048
 20
652.042684
 30
0.0
  0
SPLINE
  5
209
100
AcDbEntity
  8
W0102_Printing_30X30
 62
1
100
AcDbSpline
 70
8
 71
3
 72
8
 73
4
 74
0
 40
0
 40
0
 40
0
 40
0
 40
1
 40
1
 40
1
 40
1
 10
2098.172048
 20
652.042684
 30
0.0
 10
2106.000047
 20
652.042684
 30
0.0
 10
2112.345047
 20
645.697684
 30
0.0
 10
2112.345047
 20
637.869684
 30
0.0
  0
SPLINE
  5
20a
100
AcDbEntity
  8
W0102_Printing_30X30
 62
1
100
AcDbSpline
 70
8
 71
3
 72
8
 73
4
 74
0
 40
0
 40
0
 40
0
 40
0
 40
1
 40
1
 40
1
 40
1
 10
2112.345047
 20
637.869684
 30
0.0
 10
2112.345047
 20
630.042684
 30
0.0
 10
2106.000047
 20
623.696684
 30
0.0
 10
2098.172048
 20
623.696684
 30
0.0
  0
LWPOLYLINE
  5
20b
100
AcDbEntity
  8
W0102_Printing_30X30
 62
1
100
AcDbPolyline
 90
1
 70
1
 10
2098.172048
 20
666.216283
 30
0.0
  0
SPLINE
  5
20c
100
AcDbEntity
  8
W0102_Printing_30X30
 62
1
100
AcDbSpline
 70
8
 71
3
 72
8
 73
4
 74
0
 40
0
 40
0
 40
0
 40
0
 40
1
 40
1
 40
1
 40
1
 10
2098.172048
 20
581.176885
 30
0.0
 10
2090.344048
 20
581.176885
 30
0.0
 10
2083.999048
 20
587.522885
 30
0.0
 10
2083.999048
 20
595.349885
 30
0.0
  0
SPLINE
  5
20d
100
AcDbEntity
  8
W0102_Printing_30X30
 62
1
100
AcDbSpline
 70
8
 71
3
 72
8
 73
4
 74
0
 40
0
 40
0
 40
0
 40
0
 40
1
 40
1
 40
1
 40
1
 10
2083.999048
 20
595.349885
 30
0.0
 10
2083.999048
 20
603.177885
 30
0.0
 10
2090.344048
 20
609.522885
 30
0.0
 10
2098.172048
 20
609.522885
 30
0.0
  0
SPLINE
  5
20e
100
AcDbEntity
  8
W0102_Printing_30X30
 62
1
100
AcDbSpline
 70
8
 71
3
 72
8
 73
4
 74
0
 40
0
 40
0
 40
0
 40
0
 40
1
 40
1
 40
1
 40
1
 10
2098.172048
 20
609.522885
 30
0.0
 10
2106.000047
 20
609.522885
 30
0.0
 10
2112.345047
 20
603.177885
 30
0.0
 10
2112.345047
 20
595.349885
 30
0.0
  0
SPLINE
  5
20f
100
AcDbEntity
  8
W0102_Printing_30X30
 62
1
100
AcDbSpline
 70
8
 71
3
 72
8
 73
4
 74
0
 40
0
 40
0
 40
0
 40
0
 40
1
 40
1
 40
1
 40
1
 10
2112.345047
 20
595.349885
 30
0.0
 10
2112.345047
 20
587.522885
 30
0.0
 10
2106.000047
 20
581.176885
 30
0.0
 10
2098.172048
 20
581.176885
 30
0.0
  0
LWPOLYLINE
  5
210
100
AcDbEntity
  8
W0102_Printing_30X30
 62
1
100
AcDbPolyline
 90
1
 70
1
 10
2098.172048
 20
623.696684
 30
0.0
  0
SPLINE
  5
211
100
AcDbEntity
  8
W0102_Printing_30X30
 62
1
100
AcDbSpline
 70
8
 71
3
 72
8
 73
4
 74
0
 40
0
 40
0
 40
0
 40
0
 40
1
 40
1
 40
1
 40
1
 10
2098.172048
 20
538.657287
 30
0.0
 10
2090.344048
 20
538.657287
 30
0.0
 10
2083.999048
 20
545.003286
 30
0.0
 10
2083.999048
 20
552.830286
 30
0.0
  0
SPLINE
  5
212
100
AcDbEntity
  8
W0102_Printing_30X30
 62
1
100
AcDbSpline
 70
8
 71
3
 72
8
 73
4
 74
0
 40
0
 40
0
 40
0
 40
0
 40
1
 40
1
 40
1
 40
1
 10
2083.999048
 20
552.830286
 30
0.0
 10
2083.999048
 20
560.658286
 30
0.0
 10
2090.344048
 20
567.003286
 30
0.0
 10
2098.172048
 20
567.003286
 30
0.0
  0
SPLINE
  5
213
100
AcDbEntity
  8
W0102_Printing_30X30
 62
1
100
AcDbSpline
 70
8
 71
3
 72
8
 73
4
 74
0
 40
0
 40
0
 40
0
 40
0
 40
1
 40
1
 40
1
 40
1
 10
2098.172048
 20
567.003286
 30
0.0
 10
2106.000047
 20
567.003286
 30
0.0
 10
2112.345047
 20
560.658286
 30
0.0
 10
2112.345047
 20
552.830286
 30
0.0
  0
SPLINE
  5
214
100
AcDbEntity
  8
W0102_Printing_30X30
 62
1
100
AcDbSpline
 70
8
 71
3
 72
8
 73
4
 74
0
 40
0
 40
0
 40
0
 40
0
 40
1
 40
1
 40
1
 40
1
 10
2112.345047
 20
552.830286
 30
0.0
 10
2112.345047
 20
545.003286
 30
0.0
 10
2106.000047
 20
538.657287
 30
0.0
 10
2098.172048
 20
538.657287
 30
0.0
  0
LWPOLYLINE
  5
215
100
AcDbEntity
  8
W0102_Printing_30X30
 62
1
100
AcDbPolyline
 90
1
 70
1
 10
2098.172048
 20
581.176885
 30
0.0
  0
SPLINE
  5
216
100
AcDbEntity
  8
W0102_Printing_30X30
 62
1
100
AcDbSpline
 70
8
 71
3
 72
8
 73
4
 74
0
 40
0
 40
0
 40
0
 40
0
 40
1
 40
1
 40
1
 40
1
 10
2098.172048
 20
496.137588
 30
0.0
 10
2090.344048
 20
496.137588
 30
0.0
 10
2083.999048
 20
502.483587
 30
0.0
 10
2083.999048
 20
510.310587
 30
0.0
  0
SPLINE
  5
217
100
AcDbEntity
  8
W0102_Printing_30X30
 62
1
100
AcDbSpline
 70
8
 71
3
 72
8
 73
4
 74
0
 40
0
 40
0
 40
0
 40
0
 40
1
 40
1
 40
1
 40
1
 10
2083.999048
 20
510.310587
 30
0.0
 10
2083.999048
 20
518.138587
 30
0.0
 10
2090.344048
 20
524.483587
 30
0.0
 10
2098.172048
 20
524.483587
 30
0.0
  0
SPLINE
  5
218
100
AcDbEntity
  8
W0102_Printing_30X30
 62
1
100
AcDbSpline
 70
8
 71
3
 72
8
 73
4
 74
0
 40
0
 40
0
 40
0
 40
0
 40
1
 40
1
 40
1
 40
1
 10
2098.172048
 20
524.483587
 30
0.0
 10
2106.000047
 20
524.483587
 30
0.0
 10
2112.345047
 20
518.138587
 30
0.0
 10
2112.345047
 20
510.310587
 30
0.0
  0
SPLINE
  5
219
100
AcDbEntity
  8
W0102_Printing_30X30
 62
1
100
AcDbSpline
 70
8
 71
3
 72
8
 73
4
 74
0
 40
0
 40
0
 40
0
 40
0
 40
1
 40
1
 40
1
 40
1
 10
2112.345047
 20
510.310587
 30
0.0
 10
2112.345047
 20
502.483587
 30
0.0
 10
2106.000047
 20
496.137588
 30
0.0
 10
2098.172048
 20
496.137588
 30
0.0
  0
LWPOLYLINE
  5
21a
100
AcDbEntity
  8
W0102_Printing_30X30
 62
1
100
AcDbPolyline
 90
1
 70
1
 10
2098.172048
 20
538.657287
 30
0.0
  0
SPLINE
  5
21b
100
AcDbEntity
  8
W0102_Printing_30X30
 62
1
100
AcDbSpline
 70
8
 71
3
 72
8
 73
4
 74
0
 40
0
 40
0
 40
0
 40
0
 40
1
 40
1
 40
1
 40
1
 10
1304.471367
 20
1176.452471
 30
0.0
 10
1296.643368
 20
1176.452471
 30
0.0
 10
1290.298368
 20
1182.798470
 30
0.0
 10
1290.298368
 20
1190.625470
 30
0.0
  0
SPLINE
  5
21c
100
AcDbEntity
  8
W0102_Printing_30X30
 62
1
100
AcDbSpline
 70
8
 71
3
 72
8
 73
4
 74
0
 40
0
 40
0
 40
0
 40
0
 40
1
 40
1
 40
1
 40
1
 10
1290.298368
 20
1190.625470
 30
0.0
 10
1290.298368
 20
1198.453470
 30
0.0
 10
1296.643368
 20
1204.798470
 30
0.0
 10
1304.471367
 20
1204.798470
 30
0.0
  0
SPLINE
  5
21d
100
AcDbEntity
  8
W0102_Printing_30X30
 62
1
100
AcDbSpline
 70
8
 71
3
 72
8
 73
4
 74
0
 40
0
 40
0
 40
0
 40
0
 40
1
 40
1
 40
1
 40
1
 10
1304.471367
 20
1204.798470
 30
0.0
 10
1312.299367
 20
1204.798470
 30
0.0
 10
1318.644367
 20
1198.453470
 30
0.0
 10
1318.644367
 20
1190.625470
 30
0.0
  0
SPLINE
  5
21e
100
AcDbEntity
  8
W0102_Printing_30X30
 62
1
100
AcDbSpline
 70
8
 71
3
 72
8
 73
4
 74
0
 40
0
 40
0
 40
0
 40
0
 40
1
 40
1
 40
1
 40
1
 10
1318.644367
 20
1190.625470
 30
0.0
 10
1318.644367
 20
1182.798470
 30
0.0
 10
1312.299367
 20
1176.452471
 30
0.0
 10
1304.471367
 20
1176.452471
 30
0.0
  0
LWPOLYLINE
  5
21f
100
AcDbEntity
  8
W0102_Printing_30X30
 62
1
100
AcDbPolyline
 90
1
 70
1
 10
2098.172048
 20
496.137588
 30
0.0
  0
SPLINE
  5
220
100
AcDbEntity
  8
W0102_Printing_30X30
 62
1
100
AcDbSpline
 70
8
 71
3
 72
8
 73
4
 74
0
 40
0
 40
0
 40
0
 40
0
 40
1
 40
1
 40
1
 40
1
 10
1304.471367
 20
1133.932872
 30
0.0
 10
1296.643368
 20
1133.932872
 30
0.0
 10
1290.298368
 20
1140.278871
 30
0.0
 10
1290.298368
 20
1148.105871
 30
0.0
  0
SPLINE
  5
221
100
AcDbEntity
  8
W0102_Printing_30X30
 62
1
100
AcDbSpline
 70
8
 71
3
 72
8
 73
4
 74
0
 40
0
 40
0
 40
0
 40
0
 40
1
 40
1
 40
1
 40
1
 10
1290.298368
 20
1148.105871
 30
0.0
 10
1290.298368
 20
1155.933871
 30
0.0
 10
1296.643368
 20
1162.278871
 30
0.0
 10
1304.471367
 20
1162.278871
 30
0.0
  0
SPLINE
  5
222
100
AcDbEntity
  8
W0102_Printing_30X30
 62
1
100
AcDbSpline
 70
8
 71
3
 72
8
 73
4
 74
0
 40
0
 40
0
 40
0
 40
0
 40
1
 40
1
 40
1
 40
1
 10
1304.471367
 20
1162.278871
 30
0.0
 10
1312.299367
 20
1162.278871
 30
0.0
 10
1318.644367
 20
1155.933871
 30
0.0
 10
1318.644367
 20
1148.105871
 30
0.0
  0
SPLINE
  5
223
100
AcDbEntity
  8
W0102_Printing_30X30
 62
1
100
AcDbSpline
 70
8
 71
3
 72
8
 73
4
 74
0
 40
0
 40
0
 40
0
 40
0
 40
1
 40
1
 40
1
 40
1
 10
1318.644367
 20
1148.105871
 30
0.0
 10
1318.644367
 20
1140.278871
 30
0.0
 10
1312.299367
 20
1133.932872
 30
0.0
 10
1304.471367
 20
1133.932872
 30
0.0
  0
LWPOLYLINE
  5
224
100
AcDbEntity
  8
W0102_Printing_30X30
 62
1
100
AcDbPolyline
 90
1
 70
1
 10
1304.471367
 20
1176.452471
 30
0.0
  0
SPLINE
  5
225
100
AcDbEntity
  8
W0102_Printing_30X30
 62
1
100
AcDbSpline
 70
8
 71
3
 72
8
 73
4
 74
0
 40
0
 40
0
 40
0
 40
0
 40
1
 40
1
 40
1
 40
1
 10
1304.471367
 20
1091.413173
 30
0.0
 10
1296.643368
 20
1091.413173
 30
0.0
 10
1290.298368
 20
1097.759173
 30
0.0
 10
1290.298368
 20
1105.586172
 30
0.0
  0
SPLINE
  5
226
100
AcDbEntity
  8
W0102_Printing_30X30
 62
1
100
AcDbSpline
 70
8
 71
3
 72
8
 73
4
 74
0
 40
0
 40
0
 40
0
 40
0
 40
1
 40
1
 40
1
 40
1
 10
1290.298368
 20
1105.586172
 30
0.0
 10
1290.298368
 20
1113.414172
 30
0.0
 10
1296.643368
 20
1119.759172
 30
0.0
 10
1304.471367
 20
1119.759172
 30
0.0
  0
SPLINE
  5
227
100
AcDbEntity
  8
W0102_Printing_30X30
 62
1
100
AcDbSpline
 70
8
 71
3
 72
8
 73
4
 74
0
 40
0
 40
0
 40
0
 40
0
 40
1
 40
1
 40
1
 40
1
 10
1304.471367
 20
1119.759172
 30
0.0
 10
1312.299367
 20
1119.759172
 30
0.0
 10
1318.644367
 20
1113.414172
 30
0.0
 10
1318.644367
 20
1105.586172
 30
0.0
  0
SPLINE
  5
228
100
AcDbEntity
  8
W0102_Printing_30X30
 62
1
100
AcDbSpline
 70
8
 71
3
 72
8
 73
4
 74
0
 40
0
 40
0
 40
0
 40
0
 40
1
 40
1
 40
1
 40
1
 10
1318.644367
 20
1105.586172
 30
0.0
 10
1318.644367
 20
1097.759173
 30
0.0
 10
1312.299367
 20
1091.413173
 30
0.0
 10
1304.471367
 20
1091.413173
 30
0.0
  0
LWPOLYLINE
  5
229
100
AcDbEntity
  8
W0102_Printing_30X30
 62
1
100
AcDbPolyline
 90
1
 70
1
 10
1304.471367
 20
1133.932872
 30
0.0
  0
SPLINE
  5
22a
100
AcDbEntity
  8
W0102_Printing_30X30
 62
1
100
AcDbSpline
 70
8
 71
3
 72
8
 73
4
 74
0
 40
0
 40
0
 40
0
 40
0
 40
1
 40
1
 40
1
 40
1
 10
1304.471367
 20
1048.893374
 30
0.0
 10
1296.643368
 20
1048.893374
 30
0.0
 10
1290.298368
 20
1055.239374
 30
0.0
 10
1290.298368
 20
1063.066373
 30
0.0
  0
SPLINE
  5
22b
100
AcDbEntity
  8
W0102_Printing_30X30
 62
1
100
AcDbSpline
 70
8
 71
3
 72
8
 73
4
 74
0
 40
0
 40
0
 40
0
 40
0
 40
1
 40
1
 40
1
 40
1
 10
1290.298368
 20
1063.066373
 30
0.0
 10
1290.298368
 20
1070.894373
 30
0.0
 10
1296.643368
 20
1077.240373
 30
0.0
 10
1304.471367
 20
1077.240373
 30
0.0
  0
SPLINE
  5
22c
100
AcDbEntity
  8
W0102_Printing_30X30
 62
1
100
AcDbSpline
 70
8
 71
3
 72
8
 73
4
 74
0
 40
0
 40
0
 40
0
 40
0
 40
1
 40
1
 40
1
 40
1
 10
1304.471367
 20
1077.240373
 30
0.0
 10
1312.299367
 20
1077.240373
 30
0.0
 10
1318.644367
 20
1070.894373
 30
0.0
 10
1318.644367
 20
1063.066373
 30
0.0
  0
SPLINE
  5
22d
100
AcDbEntity
  8
W0102_Printing_30X30
 62
1
100
AcDbSpline
 70
8
 71
3
 72
8
 73
4
 74
0
 40
0
 40
0
 40
0
 40
0
 40
1
 40
1
 40
1
 40
1
 10
1318.644367
 20
1063.066373
 30
0.0
 10
1318.644367
 20
1055.239374
 30
0.0
 10
1312.299367
 20
1048.893374
 30
0.0
 10
1304.471367
 20
1048.893374
 30
0.0
  0
LWPOLYLINE
  5
22e
100
AcDbEntity
  8
W0102_Printing_30X30
 62
1
100
AcDbPolyline
 90
1
 70
1
 10
1304.471367
 20
1091.413173
 30
0.0
  0
SPLINE
  5
22f
100
AcDbEntity
  8
W0102_Printing_30X30
 62
1
100
AcDbSpline
 70
8
 71
3
 72
8
 73
4
 74
0
 40
0
 40
0
 40
0
 40
0
 40
1
 40
1
 40
1
 40
1
 10
1304.471367
 20
1006.373775
 30
0.0
 10
1296.643368
 20
1006.373775
 30
0.0
 10
1290.298368
 20
1012.719775
 30
0.0
 10
1290.298368
 20
1020.546774
 30
0.0
  0
SPLINE
  5
230
100
AcDbEntity
  8
W0102_Printing_30X30
 62
1
100
AcDbSpline
 70
8
 71
3
 72
8
 73
4
 74
0
 40
0
 40
0
 40
0
 40
0
 40
1
 40
1
 40
1
 40
1
 10
1290.298368
 20
1020.546774
 30
0.0
 10
1290.298368
 20
1028.374774
 30
0.0
 10
1296.643368
 20
1034.719774
 30
0.0
 10
1304.471367
 20
1034.719774
 30
0.0
  0
SPLINE
  5
231
100
AcDbEntity
  8
W0102_Printing_30X30
 62
1
100
AcDbSpline
 70
8
 71
3
 72
8
 73
4
 74
0
 40
0
 40
0
 40
0
 40
0
 40
1
 40
1
 40
1
 40
1
 10
1304.471367
 20
1034.719774
 30
0.0
 10
1312.299367
 20
1034.719774
 30
0.0
 10
1318.644367
 20
1028.374774
 30
0.0
 10
1318.644367
 20
1020.546774
 30
0.0
  0
SPLINE
  5
232
100
AcDbEntity
  8
W0102_Printing_30X30
 62
1
100
AcDbSpline
 70
8
 71
3
 72
8
 73
4
 74
0
 40
0
 40
0
 40
0
 40
0
 40
1
 40
1
 40
1
 40
1
 10
1318.644367
 20
1020.546774
 30
0.0
 10
1318.644367
 20
1012.719775
 30
0.0
 10
1312.299367
 20
1006.373775
 30
0.0
 10
1304.471367
 20
1006.373775
 30
0.0
  0
LWPOLYLINE
  5
233
100
AcDbEntity
  8
W0102_Printing_30X30
 62
1
100
AcDbPolyline
 90
1
 70
1
 10
1304.471367
 20
1048.893374
 30
0.0
  0
SPLINE
  5
234
100
AcDbEntity
  8
W0102_Printing_30X30
 62
1
100
AcDbSpline
 70
8
 71
3
 72
8
 73
4
 74
0
 40
0
 40
0
 40
0
 40
0
 40
1
 40
1
 40
1
 40
1
 10
1304.471367
 20
963.854076
 30
0.0
 10
1296.643368
 20
963.854076
 30
0.0
 10
1290.298368
 20
970.200076
 30
0.0
 10
1290.298368
 20
978.027076
 30
0.0
  0
SPLINE
  5
235
100
AcDbEntity
  8
W0102_Printing_30X30
 62
1
100
AcDbSpline
 70
8
 71
3
 72
8
 73
4
 74
0
 40
0
 40
0
 40
0
 40
0
 40
1
 40
1
 40
1
 40
1
 10
1290.298368
 20
978.027076
 30
0.0
 10
1290.298368
 20
985.855075
 30
0.0
 10
1296.643368
 20
992.200075
 30
0.0
 10
1304.471367
 20
992.200075
 30
0.0
  0
SPLINE
  5
236
100
AcDbEntity
  8
W0102_Printing_30X30
 62
1
100
AcDbSpline
 70
8
 71
3
 72
8
 73
4
 74
0
 40
0
 40
0
 40
0
 40
0
 40
1
 40
1
 40
1
 40
1
 10
1304.471367
 20
992.200075
 30
0.0
 10
1312.299367
 20
992.200075
 30
0.0
 10
1318.644367
 20
985.855075
 30
0.0
 10
1318.644367
 20
978.027076
 30
0.0
  0
SPLINE
  5
237
100
AcDbEntity
  8
W0102_Printing_30X30
 62
1
100
AcDbSpline
 70
8
 71
3
 72
8
 73
4
 74
0
 40
0
 40
0
 40
0
 40
0
 40
1
 40
1
 40
1
 40
1
 10
1318.644367
 20
978.027076
 30
0.0
 10
1318.644367
 20
970.200076
 30
0.0
 10
1312.299367
 20
963.854076
 30
0.0
 10
1304.471367
 20
963.854076
 30
0.0
  0
LWPOLYLINE
  5
238
100
AcDbEntity
  8
W0102_Printing_30X30
 62
1
100
AcDbPolyline
 90
1
 70
1
 10
1304.471367
 20
1006.373775
 30
0.0
  0
SPLINE
  5
239
100
AcDbEntity
  8
W0102_Printing_30X30
 62
1
100
AcDbSpline
 70
8
 71
3
 72
8
 73
4
 74
0
 40
0
 40
0
 40
0
 40
0
 40
1
 40
1
 40
1
 40
1
 10
1304.471367
 20
921.334377
 30
0.0
 10
1296.643368
 20
921.334377
 30
0.0
 10
1290.298368
 20
927.680377
 30
0.0
 10
1290.298368
 20
935.507377
 30
0.0
  0
SPLINE
  5
23a
100
AcDbEntity
  8
W0102_Printing_30X30
 62
1
100
AcDbSpline
 70
8
 71
3
 72
8
 73
4
 74
0
 40
0
 40
0
 40
0
 40
0
 40
1
 40
1
 40
1
 40
1
 10
1290.298368
 20
935.507377
 30
0.0
 10
1290.298368
 20
943.335376
 30
0.0
 10
1296.643368
 20
949.680376
 30
0.0
 10
1304.471367
 20
949.680376
 30
0.0
  0
SPLINE
  5
23b
100
AcDbEntity
  8
W0102_Printing_30X30
 62
1
100
AcDbSpline
 70
8
 71
3
 72
8
 73
4
 74
0
 40
0
 40
0
 40
0
 40
0
 40
1
 40
1
 40
1
 40
1
 10
1304.471367
 20
949.680376
 30
0.0
 10
1312.299367
 20
949.680376
 30
0.0
 10
1318.644367
 20
943.335376
 30
0.0
 10
1318.644367
 20
935.507377
 30
0.0
  0
SPLINE
  5
23c
100
AcDbEntity
  8
W0102_Printing_30X30
 62
1
100
AcDbSpline
 70
8
 71
3
 72
8
 73
4
 74
0
 40
0
 40
0
 40
0
 40
0
 40
1
 40
1
 40
1
 40
1
 10
1318.644367
 20
935.507377
 30
0.0
 10
1318.644367
 20
927.680377
 30
0.0
 10
1312.299367
 20
921.334377
 30
0.0
 10
1304.471367
 20
921.334377
 30
0.0
  0
LWPOLYLINE
  5
23d
100
AcDbEntity
  8
W0102_Printing_30X30
 62
1
100
AcDbPolyline
 90
1
 70
1
 10
1304.471367
 20
963.854076
 30
0.0
  0
SPLINE
  5
23e
100
AcDbEntity
  8
W0102_Printing_30X30
 62
1
100
AcDbSpline
 70
8
 71
3
 72
8
 73
4
 74
0
 40
0
 40
0
 40
0
 40
0
 40
1
 40
1
 40
1
 40
1
 10
1304.471367
 20
878.814778
 30
0.0
 10
1296.643368
 20
878.814778
 30
0.0
 10
1290.298368
 20
885.160778
 30
0.0
 10
1290.298368
 20
892.987778
 30
0.0
  0
SPLINE
  5
23f
100
AcDbEntity
  8
W0102_Printing_30X30
 62
1
100
AcDbSpline
 70
8
 71
3
 72
8
 73
4
 74
0
 40
0
 40
0
 40
0
 40
0
 40
1
 40
1
 40
1
 40
1
 10
1290.298368
 20
892.987778
 30
0.0
 10
1290.298368
 20
900.815777
 30
0.0
 10
1296.643368
 20
907.160777
 30
0.0
 10
1304.471367
 20
907.160777
 30
0.0
  0
SPLINE
  5
240
100
AcDbEntity
  8
W0102_Printing_30X30
 62
1
100
AcDbSpline
 70
8
 71
3
 72
8
 73
4
 74
0
 40
0
 40
0
 40
0
 40
0
 40
1
 40
1
 40
1
 40
1
 10
1304.471367
 20
907.160777
 30
0.0
 10
1312.299367
 20
907.160777
 30
0.0
 10
1318.644367
 20
900.815777
 30
0.0
 10
1318.644367
 20
892.987778
 30
0.0
  0
SPLINE
  5
241
100
AcDbEntity
  8
W0102_Printing_30X30
 62
1
100
AcDbSpline
 70
8
 71
3
 72
8
 73
4
 74
0
 40
0
 40
0
 40
0
 40
0
 40
1
 40
1
 40
1
 40
1
 10
1318.644367
 20
892.987778
 30
0.0
 10
1318.644367
 20
885.160778
 30
0.0
 10
1312.299367
 20
878.814778
 30
0.0
 10
1304.471367
 20
878.814778
 30
0.0
  0
LWPOLYLINE
  5
242
100
AcDbEntity
  8
W0102_Printing_30X30
 62
1
100
AcDbPolyline
 90
1
 70
1
 10
1304.471367
 20
921.334377
 30
0.0
  0
SPLINE
  5
243
100
AcDbEntity
  8
W0102_Printing_30X30
 62
1
100
AcDbSpline
 70
8
 71
3
 72
8
 73
4
 74
0
 40
0
 40
0
 40
0
 40
0
 40
1
 40
1
 40
1
 40
1
 10
1304.471367
 20
836.294979
 30
0.0
 10
1296.643368
 20
836.294979
 30
0.0
 10
1290.298368
 20
842.640979
 30
0.0
 10
1290.298368
 20
850.467979
 30
0.0
  0
SPLINE
  5
244
100
AcDbEntity
  8
W0102_Printing_30X30
 62
1
100
AcDbSpline
 70
8
 71
3
 72
8
 73
4
 74
0
 40
0
 40
0
 40
0
 40
0
 40
1
 40
1
 40
1
 40
1
 10
1290.298368
 20
850.467979
 30
0.0
 10
1290.298368
 20
858.295979
 30
0.0
 10
1296.643368
 20
864.640978
 30
0.0
 10
1304.471367
 20
864.640978
 30
0.0
  0
SPLINE
  5
245
100
AcDbEntity
  8
W0102_Printing_30X30
 62
1
100
AcDbSpline
 70
8
 71
3
 72
8
 73
4
 74
0
 40
0
 40
0
 40
0
 40
0
 40
1
 40
1
 40
1
 40
1
 10
1304.471367
 20
864.640978
 30
0.0
 10
1312.299367
 20
864.640978
 30
0.0
 10
1318.644367
 20
858.295979
 30
0.0
 10
1318.644367
 20
850.467979
 30
0.0
  0
SPLINE
  5
246
100
AcDbEntity
  8
W0102_Printing_30X30
 62
1
100
AcDbSpline
 70
8
 71
3
 72
8
 73
4
 74
0
 40
0
 40
0
 40
0
 40
0
 40
1
 40
1
 40
1
 40
1
 10
1318.644367
 20
850.467979
 30
0.0
 10
1318.644367
 20
842.640979
 30
0.0
 10
1312.299367
 20
836.294979
 30
0.0
 10
1304.471367
 20
836.294979
 30
0.0
  0
LWPOLYLINE
  5
247
100
AcDbEntity
  8
W0102_Printing_30X30
 62
1
100
AcDbPolyline
 90
1
 70
1
 10
1304.471367
 20
878.814778
 30
0.0
  0
SPLINE
  5
248
100
AcDbEntity
  8
W0102_Printing_30X30
 62
1
100
AcDbSpline
 70
8
 71
3
 72
8
 73
4
 74
0
 40
0
 40
0
 40
0
 40
0
 40
1
 40
1
 40
1
 40
1
 10
1304.471367
 20
793.775380
 30
0.0
 10
1296.643368
 20
793.775380
 30
0.0
 10
1290.298368
 20
800.121380
 30
0.0
 10
1290.298368
 20
807.948380
 30
0.0
  0
SPLINE
  5
249
100
AcDbEntity
  8
W0102_Printing_30X30
 62
1
100
AcDbSpline
 70
8
 71
3
 72
8
 73
4
 74
0
 40
0
 40
0
 40
0
 40
0
 40
1
 40
1
 40
1
 40
1
 10
1290.298368
 20
807.948380
 30
0.0
 10
1290.298368
 20
815.776380
 30
0.0
 10
1296.643368
 20
822.121379
 30
0.0
 10
1304.471367
 20
822.121379
 30
0.0
  0
SPLINE
  5
24a
100
AcDbEntity
  8
W0102_Printing_30X30
 62
1
100
AcDbSpline
 70
8
 71
3
 72
8
 73
4
 74
0
 40
0
 40
0
 40
0
 40
0
 40
1
 40
1
 40
1
 40
1
 10
1304.471367
 20
822.121379
 30
0.0
 10
1312.299367
 20
822.121379
 30
0.0
 10
1318.644367
 20
815.776380
 30
0.0
 10
1318.644367
 20
807.948380
 30
0.0
  0
SPLINE
  5
24b
100
AcDbEntity
  8
W0102_Printing_30X30
 62
1
100
AcDbSpline
 70
8
 71
3
 72
8
 73
4
 74
0
 40
0
 40
0
 40
0
 40
0
 40
1
 40
1
 40
1
 40
1
 10
1318.644367
 20
807.948380
 30
0.0
 10
1318.644367
 20
800.121380
 30
0.0
 10
1312.299367
 20
793.775380
 30
0.0
 10
1304.471367
 20
793.775380
 30
0.0
  0
LWPOLYLINE
  5
24c
100
AcDbEntity
  8
W0102_Printing_30X30
 62
1
100
AcDbPolyline
 90
1
 70
1
 10
1304.471367
 20
836.294979
 30
0.0
  0
SPLINE
  5
24d
100
AcDbEntity
  8
W0102_Printing_30X30
 62
1
100
AcDbSpline
 70
8
 71
3
 72
8
 73
4
 74
0
 40
0
 40
0
 40
0
 40
0
 40
1
 40
1
 40
1
 40
1
 10
1304.471367
 20
751.255681
 30
0.0
 10
1296.643368
 20
751.255681
 30
0.0
 10
1290.298368
 20
757.601681
 30
0.0
 10
1290.298368
 20
765.428681
 30
0.0
  0
SPLINE
  5
24e
100
AcDbEntity
  8
W0102_Printing_30X30
 62
1
100
AcDbSpline
 70
8
 71
3
 72
8
 73
4
 74
0
 40
0
 40
0
 40
0
 40
0
 40
1
 40
1
 40
1
 40
1
 10
1290.298368
 20
765.428681
 30
0.0
 10
1290.298368
 20
773.256681
 30
0.0
 10
1296.643368
 20
779.601681
 30
0.0
 10
1304.471367
 20
779.601681
 30
0.0
  0
SPLINE
  5
24f
100
AcDbEntity
  8
W0102_Printing_30X30
 62
1
100
AcDbSpline
 70
8
 71
3
 72
8
 73
4
 74
0
 40
0
 40
0
 40
0
 40
0
 40
1
 40
1
 40
1
 40
1
 10
1304.471367
 20
779.601681
 30
0.0
 10
1312.299367
 20
779.601681
 30
0.0
 10
1318.644367
 20
773.256681
 30
0.0
 10
1318.644367
 20
765.428681
 30
0.0
  0
SPLINE
  5
250
100
AcDbEntity
  8
W0102_Printing_30X30
 62
1
100
AcDbSpline
 70
8
 71
3
 72
8
 73
4
 74
0
 40
0
 40
0
 40
0
 40
0
 40
1
 40
1
 40
1
 40
1
 10
1318.644367
 20
765.428681
 30
0.0
 10
1318.644367
 20
757.601681
 30
0.0
 10
1312.299367
 20
751.255681
 30
0.0
 10
1304.471367
 20
751.255681
 30
0.0
  0
LWPOLYLINE
  5
251
100
AcDbEntity
  8
W0102_Printing_30X30
 62
1
100
AcDbPolyline
 90
1
 70
1
 10
1304.471367
 20
793.775380
 30
0.0
  0
SPLINE
  5
252
100
AcDbEntity
  8
W0102_Printing_30X30
 62
1
100
AcDbSpline
 70
8
 71
3
 72
8
 73
4
 74
0
 40
0
 40
0
 40
0
 40
0
 40
1
 40
1
 40
1
 40
1
 10
1304.471367
 20
708.735982
 30
0.0
 10
1296.643368
 20
708.735982
 30
0.0
 10
1290.298368
 20
715.081982
 30
0.0
 10
1290.298368
 20
722.908982
 30
0.0
  0
SPLINE
  5
253
100
AcDbEntity
  8
W0102_Printing_30X30
 62
1
100
AcDbSpline
 70
8
 71
3
 72
8
 73
4
 74
0
 40
0
 40
0
 40
0
 40
0
 40
1
 40
1
 40
1
 40
1
 10
1290.298368
 20
722.908982
 30
0.0
 10
1290.298368
 20
730.736982
 30
0.0
 10
1296.643368
 20
737.081982
 30
0.0
 10
1304.471367
 20
737.081982
 30
0.0
  0
SPLINE
  5
254
100
AcDbEntity
  8
W0102_Printing_30X30
 62
1
100
AcDbSpline
 70
8
 71
3
 72
8
 73
4
 74
0
 40
0
 40
0
 40
0
 40
0
 40
1
 40
1
 40
1
 40
1
 10
1304.471367
 20
737.081982
 30
0.0
 10
1312.299367
 20
737.081982
 30
0.0
 10
1318.644367
 20
730.736982
 30
0.0
 10
1318.644367
 20
722.908982
 30
0.0
  0
SPLINE
  5
255
100
AcDbEntity
  8
W0102_Printing_30X30
 62
1
100
AcDbSpline
 70
8
 71
3
 72
8
 73
4
 74
0
 40
0
 40
0
 40
0
 40
0
 40
1
 40
1
 40
1
 40
1
 10
1318.644367
 20
722.908982
 30
0.0
 10
1318.644367
 20
715.081982
 30
0.0
 10
1312.299367
 20
708.735982
 30
0.0
 10
1304.471367
 20
708.735982
 30
0.0
  0
LWPOLYLINE
  5
256
100
AcDbEntity
  8
W0102_Printing_30X30
 62
1
100
AcDbPolyline
 90
1
 70
1
 10
1304.471367
 20
751.255681
 30
0.0
  0
SPLINE
  5
257
100
AcDbEntity
  8
W0102_Printing_30X30
 62
1
100
AcDbSpline
 70
8
 71
3
 72
8
 73
4
 74
0
 40
0
 40
0
 40
0
 40
0
 40
1
 40
1
 40
1
 40
1
 10
1304.471367
 20
666.216283
 30
0.0
 10
1296.643368
 20
666.216283
 30
0.0
 10
1290.298368
 20
672.562283
 30
0.0
 10
1290.298368
 20
680.389283
 30
0.0
  0
SPLINE
  5
258
100
AcDbEntity
  8
W0102_Printing_30X30
 62
1
100
AcDbSpline
 70
8
 71
3
 72
8
 73
4
 74
0
 40
0
 40
0
 40
0
 40
0
 40
1
 40
1
 40
1
 40
1
 10
1290.298368
 20
680.389283
 30
0.0
 10
1290.298368
 20
688.217283
 30
0.0
 10
1296.643368
 20
694.562283
 30
0.0
 10
1304.471367
 20
694.562283
 30
0.0
  0
SPLINE
  5
259
100
AcDbEntity
  8
W0102_Printing_30X30
 62
1
100
AcDbSpline
 70
8
 71
3
 72
8
 73
4
 74
0
 40
0
 40
0
 40
0
 40
0
 40
1
 40
1
 40
1
 40
1
 10
1304.471367
 20
694.562283
 30
0.0
 10
1312.299367
 20
694.562283
 30
0.0
 10
1318.644367
 20
688.217283
 30
0.0
 10
1318.644367
 20
680.389283
 30
0.0
  0
SPLINE
  5
25a
100
AcDbEntity
  8
W0102_Printing_30X30
 62
1
100
AcDbSpline
 70
8
 71
3
 72
8
 73
4
 74
0
 40
0
 40
0
 40
0
 40
0
 40
1
 40
1
 40
1
 40
1
 10
1318.644367
 20
680.389283
 30
0.0
 10
1318.644367
 20
672.562283
 30
0.0
 10
1312.299367
 20
666.216283
 30
0.0
 10
1304.471367
 20
666.216283
 30
0.0
  0
LWPOLYLINE
  5
25b
100
AcDbEntity
  8
W0102_Printing_30X30
 62
1
100
AcDbPolyline
 90
1
 70
1
 10
1304.471367
 20
708.735982
 30
0.0
  0
SPLINE
  5
25c
100
AcDbEntity
  8
W0102_Printing_30X30
 62
1
100
AcDbSpline
 70
8
 71
3
 72
8
 73
4
 74
0
 40
0
 40
0
 40
0
 40
0
 40
1
 40
1
 40
1
 40
1
 10
1304.471367
 20
623.696684
 30
0.0
 10
1296.643368
 20
623.696684
 30
0.0
 10
1290.298368
 20
630.042684
 30
0.0
 10
1290.298368
 20
637.869684
 30
0.0
  0
SPLINE
  5
25d
100
AcDbEntity
  8
W0102_Printing_30X30
 62
1
100
AcDbSpline
 70
8
 71
3
 72
8
 73
4
 74
0
 40
0
 40
0
 40
0
 40
0
 40
1
 40
1
 40
1
 40
1
 10
1290.298368
 20
637.869684
 30
0.0
 10
1290.298368
 20
645.697684
 30
0.0
 10
1296.643368
 20
652.042684
 30
0.0
 10
1304.471367
 20
652.042684
 30
0.0
  0
SPLINE
  5
25e
100
AcDbEntity
  8
W0102_Printing_30X30
 62
1
100
AcDbSpline
 70
8
 71
3
 72
8
 73
4
 74
0
 40
0
 40
0
 40
0
 40
0
 40
1
 40
1
 40
1
 40
1
 10
1304.471367
 20
652.042684
 30
0.0
 10
1312.299367
 20
652.042684
 30
0.0
 10
1318.644367
 20
645.697684
 30
0.0
 10
1318.644367
 20
637.869684
 30
0.0
  0
SPLINE
  5
25f
100
AcDbEntity
  8
W0102_Printing_30X30
 62
1
100
AcDbSpline
 70
8
 71
3
 72
8
 73
4
 74
0
 40
0
 40
0
 40
0
 40
0
 40
1
 40
1
 40
1
 40
1
 10
1318.644367
 20
637.869684
 30
0.0
 10
1318.644367
 20
630.042684
 30
0.0
 10
1312.299367
 20
623.696684
 30
0.0
 10
1304.471367
 20
623.696684
 30
0.0
  0
LWPOLYLINE
  5
260
100
AcDbEntity
  8
W0102_Printing_30X30
 62
1
100
AcDbPolyline
 90
1
 70
1
 10
1304.471367
 20
666.216283
 30
0.0
  0
SPLINE
  5
261
100
AcDbEntity
  8
W0102_Printing_30X30
 62
1
100
AcDbSpline
 70
8
 71
3
 72
8
 73
4
 74
0
 40
0
 40
0
 40
0
 40
0
 40
1
 40
1
 40
1
 40
1
 10
1304.471367
 20
581.176885
 30
0.0
 10
1296.643368
 20
581.176885
 30
0.0
 10
1290.298368
 20
587.522885
 30
0.0
 10
1290.298368
 20
595.349885
 30
0.0
  0
SPLINE
  5
262
100
AcDbEntity
  8
W0102_Printing_30X30
 62
1
100
AcDbSpline
 70
8
 71
3
 72
8
 73
4
 74
0
 40
0
 40
0
 40
0
 40
0
 40
1
 40
1
 40
1
 40
1
 10
1290.298368
 20
595.349885
 30
0.0
 10
1290.298368
 20
603.177885
 30
0.0
 10
1296.643368
 20
609.522885
 30
0.0
 10
1304.471367
 20
609.522885
 30
0.0
  0
SPLINE
  5
263
100
AcDbEntity
  8
W0102_Printing_30X30
 62
1
100
AcDbSpline
 70
8
 71
3
 72
8
 73
4
 74
0
 40
0
 40
0
 40
0
 40
0
 40
1
 40
1
 40
1
 40
1
 10
1304.471367
 20
609.522885
 30
0.0
 10
1312.299367
 20
609.522885
 30
0.0
 10
1318.644367
 20
603.177885
 30
0.0
 10
1318.644367
 20
595.349885
 30
0.0
  0
SPLINE
  5
264
100
AcDbEntity
  8
W0102_Printing_30X30
 62
1
100
AcDbSpline
 70
8
 71
3
 72
8
 73
4
 74
0
 40
0
 40
0
 40
0
 40
0
 40
1
 40
1
 40
1
 40
1
 10
1318.644367
 20
595.349885
 30
0.0
 10
1318.644367
 20
587.522885
 30
0.0
 10
1312.299367
 20
581.176885
 30
0.0
 10
1304.471367
 20
581.176885
 30
0.0
  0
LWPOLYLINE
  5
265
100
AcDbEntity
  8
W0102_Printing_30X30
 62
1
100
AcDbPolyline
 90
1
 70
1
 10
1304.471367
 20
623.696684
 30
0.0
  0
SPLINE
  5
266
100
AcDbEntity
  8
W0102_Printing_30X30
 62
1
100
AcDbSpline
 70
8
 71
3
 72
8
 73
4
 74
0
 40
0
 40
0
 40
0
 40
0
 40
1
 40
1
 40
1
 40
1
 10
1304.471367
 20
538.657287
 30
0.0
 10
1296.643368
 20
538.657287
 30
0.0
 10
1290.298368
 20
545.003286
 30
0.0
 10
1290.298368
 20
552.830286
 30
0.0
  0
SPLINE
  5
267
100
AcDbEntity
  8
W0102_Printing_30X30
 62
1
100
AcDbSpline
 70
8
 71
3
 72
8
 73
4
 74
0
 40
0
 40
0
 40
0
 40
0
 40
1
 40
1
 40
1
 40
1
 10
1290.298368
 20
552.830286
 30
0.0
 10
1290.298368
 20
560.658286
 30
0.0
 10
1296.643368
 20
567.003286
 30
0.0
 10
1304.471367
 20
567.003286
 30
0.0
  0
SPLINE
  5
268
100
AcDbEntity
  8
W0102_Printing_30X30
 62
1
100
AcDbSpline
 70
8
 71
3
 72
8
 73
4
 74
0
 40
0
 40
0
 40
0
 40
0
 40
1
 40
1
 40
1
 40
1
 10
1304.471367
 20
567.003286
 30
0.0
 10
1312.299367
 20
567.003286
 30
0.0
 10
1318.644367
 20
560.658286
 30
0.0
 10
1318.644367
 20
552.830286
 30
0.0
  0
SPLINE
  5
269
100
AcDbEntity
  8
W0102_Printing_30X30
 62
1
100
AcDbSpline
 70
8
 71
3
 72
8
 73
4
 74
0
 40
0
 40
0
 40
0
 40
0
 40
1
 40
1
 40
1
 40
1
 10
1318.644367
 20
552.830286
 30
0.0
 10
1318.644367
 20
545.003286
 30
0.0
 10
1312.299367
 20
538.657287
 30
0.0
 10
1304.471367
 20
538.657287
 30
0.0
  0
LWPOLYLINE
  5
26a
100
AcDbEntity
  8
W0102_Printing_30X30
 62
1
100
AcDbPolyline
 90
1
 70
1
 10
1304.471367
 20
581.176885
 30
0.0
  0
SPLINE
  5
26b
100
AcDbEntity
  8
W0102_Printing_30X30
 62
1
100
AcDbSpline
 70
8
 71
3
 72
8
 73
4
 74
0
 40
0
 40
0
 40
0
 40
0
 40
1
 40
1
 40
1
 40
1
 10
1304.471367
 20
496.137588
 30
0.0
 10
1296.643368
 20
496.137588
 30
0.0
 10
1290.298368
 20
502.483587
 30
0.0
 10
1290.298368
 20
510.310587
 30
0.0
  0
SPLINE
  5
26c
100
AcDbEntity
  8
W0102_Printing_30X30
 62
1
100
AcDbSpline
 70
8
 71
3
 72
8
 73
4
 74
0
 40
0
 40
0
 40
0
 40
0
 40
1
 40
1
 40
1
 40
1
 10
1290.298368
 20
510.310587
 30
0.0
 10
1290.298368
 20
518.138587
 30
0.0
 10
1296.643368
 20
524.483587
 30
0.0
 10
1304.471367
 20
524.483587
 30
0.0
  0
SPLINE
  5
26d
100
AcDbEntity
  8
W0102_Printing_30X30
 62
1
100
AcDbSpline
 70
8
 71
3
 72
8
 73
4
 74
0
 40
0
 40
0
 40
0
 40
0
 40
1
 40
1
 40
1
 40
1
 10
1304.471367
 20
524.483587
 30
0.0
 10
1312.299367
 20
524.483587
 30
0.0
 10
1318.644367
 20
518.138587
 30
0.0
 10
1318.644367
 20
510.310587
 30
0.0
  0
SPLINE
  5
26e
100
AcDbEntity
  8
W0102_Printing_30X30
 62
1
100
AcDbSpline
 70
8
 71
3
 72
8
 73
4
 74
0
 40
0
 40
0
 40
0
 40
0
 40
1
 40
1
 40
1
 40
1
 10
1318.644367
 20
510.310587
 30
0.0
 10
1318.644367
 20
502.483587
 30
0.0
 10
1312.299367
 20
496.137588
 30
0.0
 10
1304.471367
 20
496.137588
 30
0.0
  0
LWPOLYLINE
  5
26f
100
AcDbEntity
  8
W0102_Printing_30X30
 62
1
100
AcDbPolyline
 90
1
 70
1
 10
1304.471367
 20
538.657287
 30
0.0
  0
LWPOLYLINE
  5
270
100
AcDbEntity
  8
W0102_Printing_30X30
 62
1
100
AcDbPolyline
 90
1
 70
1
 10
1304.471367
 20
496.137588
 30
0.0
  0
ENDSEC
  0
SECTION
  2
OBJECTS
  0
DICTIONARY
  5
C
330
0
100
AcDbDictionary
  3
ACAD_GROUP
350
D
  3
ACAD_MLINESTYLE
350
17
  0
DICTIONARY
  5
D
330
C
100
AcDbDictionary
  0
DICTIONARY
  5
1A
330
C
100
AcDbDictionary
  0
DICTIONARY
  5
17
330
C
100
AcDbDictionary
  3
STANDARD
350
18
  0
DICTIONARY
  5
19
330
C
100
AcDbDictionary
  0
ENDSEC
  0
EOF
