  0
SECTION
  2
HEADER
  9
$ACADVER
  1
AC1014
  9
$HANDSEED
  5
FFFF
  9
$MEASUREMENT
 70
     1
  0
ENDSEC
  0
SECTION
  2
TABLES
  0
TABLE
  2
VPORT
  5
8
330
0
100
AcDbSymbolTable
 70
     4
  0
VPORT
  5
2E
330
8
100
AcDbSymbolTableRecord
100
AcDbViewportTableRecord
  2
*ACTIVE
 70
     0
 10
0.0
 20
0.0
 11
1.0
 21
1.0
 12
210.0
 22
148.5
 13
0.0
 23
0.0
 14
10.0
 24
10.0
 15
10.0
 25
10.0
 16
0.0
 26
0.0
 36
1.0
 17
0.0
 27
0.0
 37
0.0
 40
341.0
 41
1.24
 42
50.0
 43
0.0
 44
0.0
 50
0.0
 51
0.0
 71
     0
 72
   100
 73
     1
 74
     3
 75
     0
 76
     0
 77
     0
 78
     0
  0
ENDTAB
  0
TABLE
  2
LTYPE
  5
5
330
0
100
AcDbSymbolTable
 70
     1
  0
LTYPE
  5
14
330
5
100
AcDbSymbolTableRecord
100
AcDbLinetypeTableRecord
  2
BYBLOCK
 70
     0
  3

 72
    65
 73
     0
 40
0.0
  0
LTYPE
  5
15
330
5
100
AcDbSymbolTableRecord
100
AcDbLinetypeTableRecord
  2
BYLAYER
 70
     0
  3

 72
    65
 73
     0
 40
0.0
  0
LTYPE
  5
16
330
5
100
AcDbSymbolTableRecord
100
AcDbLinetypeTableRecord
  2
CONTINUOUS
 70
     0
  3
Solid line
 72
    65
 73
     0
 40
0.0
  0
ENDTAB
  0
TABLE
  2
LAYER
  5
2
100
AcDbSymbolTable
 70
2
  0
LAYER
  5
50
100
AcDbSymbolTableRecord
100
AcDbLayerTableRecord
  2
0
 70
0
  6
CONTINUOUS
  0
LAYER
  5
51
100
AcDbSymbolTableRecord
100
AcDbLayerTableRecord
  2
W0102_Printing_45X35
 70
0
  6
CONTINUOUS
  0
ENDTAB
  0
TABLE
  2
STYLE
  5
3
330
0
100
AcDbSymbolTable
 70
     1
  0
STYLE
  5
11
330
3
100
AcDbSymbolTableRecord
100
AcDbTextStyleTableRecord
  2
STANDARD
 70
     0
 40
0.0
 41
1.0
 50
0.0
 71
     0
 42
2.5
  3
txt
  4

  0
ENDTAB
  0
TABLE
  2
VIEW
  5
6
330
0
100
AcDbSymbolTable
 70
     0
  0
ENDTAB
  0
TABLE
  2
UCS
  5
7
330
0
100
AcDbSymbolTable
 70
     0
  0
ENDTAB
  0
TABLE
  2
APPID
  5
9
330
0
100
AcDbSymbolTable
 70
     2
  0
APPID
  5
12
330
9
100
AcDbSymbolTableRecord
100
AcDbRegAppTableRecord
  2
ACAD
 70
     0
  0
ENDTAB
  0
TABLE
  2
DIMSTYLE
  5
A
330
0
100
AcDbSymbolTable
 70
     1
  0
DIMSTYLE
105
27
330
A
100
AcDbSymbolTableRecord
100
AcDbDimStyleTableRecord
  2
ISO-25
 70
     0
  3

  4

  5

  6

  7

 40
1.0
 41
2.5
 42
0.625
 43
3.75
 44
1.25
 45
0.0
 46
0.0
 47
0.0
 48
0.0
140
2.5
141
2.5
142
0.0
143
0.03937007874016
144
1.0
145
0.0
146
1.0
147
0.625
 71
     0
 72
     0
 73
     0
 74
     0
 75
     0
 76
     0
 77
     1
 78
     8
170
     0
171
     3
172
     1
173
     0
174
     0
175
     0
176
     0
177
     0
178
     0
270
     2
271
     2
272
     2
273
     2
274
     3
340
11
275
     0
280
     0
281
     0
282
     0
283
     0
284
     8
285
     0
286
     0
287
     3
288
     0
  0
ENDTAB
  0
TABLE
  2
BLOCK_RECORD
  5
1
330
0
100
AcDbSymbolTable
 70
     1
  0
BLOCK_RECORD
  5
1F
330
1
100
AcDbSymbolTableRecord
100
AcDbBlockTableRecord
  2
*MODEL_SPACE
  0
BLOCK_RECORD
  5
1B
330
1
100
AcDbSymbolTableRecord
100
AcDbBlockTableRecord
  2
*PAPER_SPACE
  0
ENDTAB
  0
ENDSEC
  0
SECTION
  2
BLOCKS
  0
BLOCK
  5
20
330
1F
100
AcDbEntity
  8
0
100
AcDbBlockBegin
  2
*MODEL_SPACE
 70
     0
 10
0.0
 20
0.0
 30
0.0
  3
*MODEL_SPACE
  1

  0
ENDBLK
  5
21
330
1F
100
AcDbEntity
  8
0
100
AcDbBlockEnd
  0
BLOCK
  5
1C
330
1B
100
AcDbEntity
 67
     1
  8
0
100
AcDbBlockBegin
  2
*PAPER_SPACE
  1

  0
ENDBLK
  5
1D
330
1B
100
AcDbEntity
 67
     1
  8
0
100
AcDbBlockEnd
  0
ENDSEC
  0
SECTION
  2
ENTITIES
  0
SPLINE
  5
100
100
AcDbEntity
  8
W0102_Printing_45X35
 62
1
100
AcDbSpline
 70
8
 71
3
 72
8
 73
4
 74
0
 40
0
 40
0
 40
0
 40
0
 40
1
 40
1
 40
1
 40
1
 10
1100.924272
 20
355.145291
 30
0.0
 10
1080.048273
 20
355.145291
 30
0.0
 10
1063.125273
 20
372.068291
 30
0.0
 10
1063.125273
 20
392.944290
 30
0.0
  0
LWPOLYLINE
  5
101
100
AcDbEntity
  8
W0102_Printing_45X35
 62
1
100
AcDbPolyline
 90
2
 70
0
 10
2300.916242
 20
355.145291
 30
0.0
 10
1100.924272
 20
355.145291
 30
0.0
  0
SPLINE
  5
102
100
AcDbEntity
  8
W0102_Printing_45X35
 62
1
100
AcDbSpline
 70
8
 71
3
 72
8
 73
4
 74
0
 40
0
 40
0
 40
0
 40
0
 40
1
 40
1
 40
1
 40
1
 10
1063.125273
 20
1309.472267
 30
0.0
 10
1063.125273
 20
1330.348267
 30
0.0
 10
1080.048273
 20
1347.271266
 30
0.0
 10
1100.924272
 20
1347.271266
 30
0.0
  0
LWPOLYLINE
  5
103
100
AcDbEntity
  8
W0102_Printing_45X35
 62
1
100
AcDbPolyline
 90
2
 70
0
 10
1063.125273
 20
392.944290
 30
0.0
 10
1063.125273
 20
1309.472267
 30
0.0
  0
SPLINE
  5
104
100
AcDbEntity
  8
W0102_Printing_45X35
 62
1
100
AcDbSpline
 70
8
 71
3
 72
8
 73
4
 74
0
 40
0
 40
0
 40
0
 40
0
 40
1
 40
1
 40
1
 40
1
 10
2300.916242
 20
1347.271266
 30
0.0
 10
2321.792242
 20
1347.271266
 30
0.0
 10
2338.715242
 20
1330.348267
 30
0.0
 10
2338.715242
 20
1309.472267
 30
0.0
  0
LWPOLYLINE
  5
105
100
AcDbEntity
  8
W0102_Printing_45X35
 62
1
100
AcDbPolyline
 90
2
 70
0
 10
1100.924272
 20
1347.271266
 30
0.0
 10
2300.916242
 20
1347.271266
 30
0.0
  0
SPLINE
  5
106
100
AcDbEntity
  8
W0102_Printing_45X35
 62
1
100
AcDbSpline
 70
8
 71
3
 72
8
 73
4
 74
0
 40
0
 40
0
 40
0
 40
0
 40
1
 40
1
 40
1
 40
1
 10
2338.715242
 20
392.944290
 30
0.0
 10
2338.715242
 20
372.068291
 30
0.0
 10
2321.792242
 20
355.145291
 30
0.0
 10
2300.916242
 20
355.145291
 30
0.0
  0
LWPOLYLINE
  5
107
100
AcDbEntity
  8
W0102_Printing_45X35
 62
1
100
AcDbPolyline
 90
2
 70
0
 10
2338.715242
 20
1309.472267
 30
0.0
 10
2338.715242
 20
392.944290
 30
0.0
  0
SPLINE
  5
108
100
AcDbEntity
  8
W0102_Printing_45X35
 62
1
100
AcDbSpline
 70
8
 71
3
 72
8
 73
4
 74
0
 40
0
 40
0
 40
0
 40
0
 40
1
 40
1
 40
1
 40
1
 10
1119.817872
 20
1318.924867
 30
0.0
 10
1119.817872
 20
1311.096867
 30
0.0
 10
1113.471872
 20
1304.751867
 30
0.0
 10
1105.644872
 20
1304.751867
 30
0.0
  0
SPLINE
  5
109
100
AcDbEntity
  8
W0102_Printing_45X35
 62
1
100
AcDbSpline
 70
8
 71
3
 72
8
 73
4
 74
0
 40
0
 40
0
 40
0
 40
0
 40
1
 40
1
 40
1
 40
1
 10
1105.644872
 20
1304.751867
 30
0.0
 10
1097.816873
 20
1304.751867
 30
0.0
 10
1091.471873
 20
1311.096867
 30
0.0
 10
1091.471873
 20
1318.924867
 30
0.0
  0
SPLINE
  5
10a
100
AcDbEntity
  8
W0102_Printing_45X35
 62
1
100
AcDbSpline
 70
8
 71
3
 72
8
 73
4
 74
0
 40
0
 40
0
 40
0
 40
0
 40
1
 40
1
 40
1
 40
1
 10
1091.471873
 20
1318.924867
 30
0.0
 10
1091.471873
 20
1326.752867
 30
0.0
 10
1097.816873
 20
1333.097867
 30
0.0
 10
1105.644872
 20
1333.097867
 30
0.0
  0
SPLINE
  5
10b
100
AcDbEntity
  8
W0102_Printing_45X35
 62
1
100
AcDbSpline
 70
8
 71
3
 72
8
 73
4
 74
0
 40
0
 40
0
 40
0
 40
0
 40
1
 40
1
 40
1
 40
1
 10
1105.644872
 20
1333.097867
 30
0.0
 10
1113.471872
 20
1333.097867
 30
0.0
 10
1119.817872
 20
1326.752867
 30
0.0
 10
1119.817872
 20
1318.924867
 30
0.0
  0
LWPOLYLINE
  5
10c
100
AcDbEntity
  8
W0102_Printing_45X35
 62
1
100
AcDbPolyline
 90
1
 70
1
 10
2300.916242
 20
355.145291
 30
0.0
  0
SPLINE
  5
10d
100
AcDbEntity
  8
W0102_Printing_45X35
 62
1
100
AcDbSpline
 70
8
 71
3
 72
8
 73
4
 74
0
 40
0
 40
0
 40
0
 40
0
 40
1
 40
1
 40
1
 40
1
 10
1105.644472
 20
1276.405168
 30
0.0
 10
1105.644472
 20
1268.577168
 30
0.0
 10
1099.298473
 20
1262.232168
 30
0.0
 10
1091.471473
 20
1262.232168
 30
0.0
  0
SPLINE
  5
10e
100
AcDbEntity
  8
W0102_Printing_45X35
 62
1
100
AcDbSpline
 70
8
 71
3
 72
8
 73
4
 74
0
 40
0
 40
0
 40
0
 40
0
 40
1
 40
1
 40
1
 40
1
 10
1091.471473
 20
1262.232168
 30
0.0
 10
1083.643473
 20
1262.232168
 30
0.0
 10
1077.298473
 20
1268.577168
 30
0.0
 10
1077.298473
 20
1276.405168
 30
0.0
  0
SPLINE
  5
10f
100
AcDbEntity
  8
W0102_Printing_45X35
 62
1
100
AcDbSpline
 70
8
 71
3
 72
8
 73
4
 74
0
 40
0
 40
0
 40
0
 40
0
 40
1
 40
1
 40
1
 40
1
 10
1077.298473
 20
1276.405168
 30
0.0
 10
1077.298473
 20
1284.233168
 30
0.0
 10
1083.643473
 20
1290.578168
 30
0.0
 10
1091.471473
 20
1290.578168
 30
0.0
  0
SPLINE
  5
110
100
AcDbEntity
  8
W0102_Printing_45X35
 62
1
100
AcDbSpline
 70
8
 71
3
 72
8
 73
4
 74
0
 40
0
 40
0
 40
0
 40
0
 40
1
 40
1
 40
1
 40
1
 10
1091.471473
 20
1290.578168
 30
0.0
 10
1099.298473
 20
1290.578168
 30
0.0
 10
1105.644472
 20
1284.233168
 30
0.0
 10
1105.644472
 20
1276.405168
 30
0.0
  0
LWPOLYLINE
  5
111
100
AcDbEntity
  8
W0102_Printing_45X35
 62
1
100
AcDbPolyline
 90
1
 70
1
 10
1119.817872
 20
1318.924867
 30
0.0
  0
SPLINE
  5
112
100
AcDbEntity
  8
W0102_Printing_45X35
 62
1
100
AcDbSpline
 70
8
 71
3
 72
8
 73
4
 74
0
 40
0
 40
0
 40
0
 40
0
 40
1
 40
1
 40
1
 40
1
 10
1105.644472
 20
1233.885469
 30
0.0
 10
1105.644472
 20
1226.057469
 30
0.0
 10
1099.298473
 20
1219.712470
 30
0.0
 10
1091.471473
 20
1219.712470
 30
0.0
  0
SPLINE
  5
113
100
AcDbEntity
  8
W0102_Printing_45X35
 62
1
100
AcDbSpline
 70
8
 71
3
 72
8
 73
4
 74
0
 40
0
 40
0
 40
0
 40
0
 40
1
 40
1
 40
1
 40
1
 10
1091.471473
 20
1219.712470
 30
0.0
 10
1083.643473
 20
1219.712470
 30
0.0
 10
1077.298473
 20
1226.057469
 30
0.0
 10
1077.298473
 20
1233.885469
 30
0.0
  0
SPLINE
  5
114
100
AcDbEntity
  8
W0102_Printing_45X35
 62
1
100
AcDbSpline
 70
8
 71
3
 72
8
 73
4
 74
0
 40
0
 40
0
 40
0
 40
0
 40
1
 40
1
 40
1
 40
1
 10
1077.298473
 20
1233.885469
 30
0.0
 10
1077.298473
 20
1241.713469
 30
0.0
 10
1083.643473
 20
1248.058469
 30
0.0
 10
1091.471473
 20
1248.058469
 30
0.0
  0
SPLINE
  5
115
100
AcDbEntity
  8
W0102_Printing_45X35
 62
1
100
AcDbSpline
 70
8
 71
3
 72
8
 73
4
 74
0
 40
0
 40
0
 40
0
 40
0
 40
1
 40
1
 40
1
 40
1
 10
1091.471473
 20
1248.058469
 30
0.0
 10
1099.298473
 20
1248.058469
 30
0.0
 10
1105.644472
 20
1241.713469
 30
0.0
 10
1105.644472
 20
1233.885469
 30
0.0
  0
LWPOLYLINE
  5
116
100
AcDbEntity
  8
W0102_Printing_45X35
 62
1
100
AcDbPolyline
 90
1
 70
1
 10
1105.644472
 20
1276.405168
 30
0.0
  0
SPLINE
  5
117
100
AcDbEntity
  8
W0102_Printing_45X35
 62
1
100
AcDbSpline
 70
8
 71
3
 72
8
 73
4
 74
0
 40
0
 40
0
 40
0
 40
0
 40
1
 40
1
 40
1
 40
1
 10
1105.644472
 20
1191.365770
 30
0.0
 10
1105.644472
 20
1183.537770
 30
0.0
 10
1099.298473
 20
1177.192771
 30
0.0
 10
1091.471473
 20
1177.192771
 30
0.0
  0
SPLINE
  5
118
100
AcDbEntity
  8
W0102_Printing_45X35
 62
1
100
AcDbSpline
 70
8
 71
3
 72
8
 73
4
 74
0
 40
0
 40
0
 40
0
 40
0
 40
1
 40
1
 40
1
 40
1
 10
1091.471473
 20
1177.192771
 30
0.0
 10
1083.643473
 20
1177.192771
 30
0.0
 10
1077.298473
 20
1183.537770
 30
0.0
 10
1077.298473
 20
1191.365770
 30
0.0
  0
SPLINE
  5
119
100
AcDbEntity
  8
W0102_Printing_45X35
 62
1
100
AcDbSpline
 70
8
 71
3
 72
8
 73
4
 74
0
 40
0
 40
0
 40
0
 40
0
 40
1
 40
1
 40
1
 40
1
 10
1077.298473
 20
1191.365770
 30
0.0
 10
1077.298473
 20
1199.193770
 30
0.0
 10
1083.643473
 20
1205.538770
 30
0.0
 10
1091.471473
 20
1205.538770
 30
0.0
  0
SPLINE
  5
11a
100
AcDbEntity
  8
W0102_Printing_45X35
 62
1
100
AcDbSpline
 70
8
 71
3
 72
8
 73
4
 74
0
 40
0
 40
0
 40
0
 40
0
 40
1
 40
1
 40
1
 40
1
 10
1091.471473
 20
1205.538770
 30
0.0
 10
1099.298473
 20
1205.538770
 30
0.0
 10
1105.644472
 20
1199.193770
 30
0.0
 10
1105.644472
 20
1191.365770
 30
0.0
  0
LWPOLYLINE
  5
11b
100
AcDbEntity
  8
W0102_Printing_45X35
 62
1
100
AcDbPolyline
 90
1
 70
1
 10
1105.644472
 20
1233.885469
 30
0.0
  0
SPLINE
  5
11c
100
AcDbEntity
  8
W0102_Printing_45X35
 62
1
100
AcDbSpline
 70
8
 71
3
 72
8
 73
4
 74
0
 40
0
 40
0
 40
0
 40
0
 40
1
 40
1
 40
1
 40
1
 10
1105.644472
 20
1148.846071
 30
0.0
 10
1105.644472
 20
1141.018071
 30
0.0
 10
1099.298473
 20
1134.673072
 30
0.0
 10
1091.471473
 20
1134.673072
 30
0.0
  0
SPLINE
  5
11d
100
AcDbEntity
  8
W0102_Printing_45X35
 62
1
100
AcDbSpline
 70
8
 71
3
 72
8
 73
4
 74
0
 40
0
 40
0
 40
0
 40
0
 40
1
 40
1
 40
1
 40
1
 10
1091.471473
 20
1134.673072
 30
0.0
 10
1083.643473
 20
1134.673072
 30
0.0
 10
1077.298473
 20
1141.018071
 30
0.0
 10
1077.298473
 20
1148.846071
 30
0.0
  0
SPLINE
  5
11e
100
AcDbEntity
  8
W0102_Printing_45X35
 62
1
100
AcDbSpline
 70
8
 71
3
 72
8
 73
4
 74
0
 40
0
 40
0
 40
0
 40
0
 40
1
 40
1
 40
1
 40
1
 10
1077.298473
 20
1148.846071
 30
0.0
 10
1077.298473
 20
1156.674071
 30
0.0
 10
1083.643473
 20
1163.019071
 30
0.0
 10
1091.471473
 20
1163.019071
 30
0.0
  0
SPLINE
  5
11f
100
AcDbEntity
  8
W0102_Printing_45X35
 62
1
100
AcDbSpline
 70
8
 71
3
 72
8
 73
4
 74
0
 40
0
 40
0
 40
0
 40
0
 40
1
 40
1
 40
1
 40
1
 10
1091.471473
 20
1163.019071
 30
0.0
 10
1099.298473
 20
1163.019071
 30
0.0
 10
1105.644472
 20
1156.674071
 30
0.0
 10
1105.644472
 20
1148.846071
 30
0.0
  0
LWPOLYLINE
  5
120
100
AcDbEntity
  8
W0102_Printing_45X35
 62
1
100
AcDbPolyline
 90
1
 70
1
 10
1105.644472
 20
1191.365770
 30
0.0
  0
SPLINE
  5
121
100
AcDbEntity
  8
W0102_Printing_45X35
 62
1
100
AcDbSpline
 70
8
 71
3
 72
8
 73
4
 74
0
 40
0
 40
0
 40
0
 40
0
 40
1
 40
1
 40
1
 40
1
 10
1105.644472
 20
1106.326372
 30
0.0
 10
1105.644472
 20
1098.498373
 30
0.0
 10
1099.298473
 20
1092.153373
 30
0.0
 10
1091.471473
 20
1092.153373
 30
0.0
  0
SPLINE
  5
122
100
AcDbEntity
  8
W0102_Printing_45X35
 62
1
100
AcDbSpline
 70
8
 71
3
 72
8
 73
4
 74
0
 40
0
 40
0
 40
0
 40
0
 40
1
 40
1
 40
1
 40
1
 10
1091.471473
 20
1092.153373
 30
0.0
 10
1083.643473
 20
1092.153373
 30
0.0
 10
1077.298473
 20
1098.498373
 30
0.0
 10
1077.298473
 20
1106.326372
 30
0.0
  0
SPLINE
  5
123
100
AcDbEntity
  8
W0102_Printing_45X35
 62
1
100
AcDbSpline
 70
8
 71
3
 72
8
 73
4
 74
0
 40
0
 40
0
 40
0
 40
0
 40
1
 40
1
 40
1
 40
1
 10
1077.298473
 20
1106.326372
 30
0.0
 10
1077.298473
 20
1114.154372
 30
0.0
 10
1083.643473
 20
1120.499372
 30
0.0
 10
1091.471473
 20
1120.499372
 30
0.0
  0
SPLINE
  5
124
100
AcDbEntity
  8
W0102_Printing_45X35
 62
1
100
AcDbSpline
 70
8
 71
3
 72
8
 73
4
 74
0
 40
0
 40
0
 40
0
 40
0
 40
1
 40
1
 40
1
 40
1
 10
1091.471473
 20
1120.499372
 30
0.0
 10
1099.298473
 20
1120.499372
 30
0.0
 10
1105.644472
 20
1114.154372
 30
0.0
 10
1105.644472
 20
1106.326372
 30
0.0
  0
LWPOLYLINE
  5
125
100
AcDbEntity
  8
W0102_Printing_45X35
 62
1
100
AcDbPolyline
 90
1
 70
1
 10
1105.644472
 20
1148.846071
 30
0.0
  0
SPLINE
  5
126
100
AcDbEntity
  8
W0102_Printing_45X35
 62
1
100
AcDbSpline
 70
8
 71
3
 72
8
 73
4
 74
0
 40
0
 40
0
 40
0
 40
0
 40
1
 40
1
 40
1
 40
1
 10
1105.644472
 20
1063.806773
 30
0.0
 10
1105.644472
 20
1055.978774
 30
0.0
 10
1099.298473
 20
1049.633774
 30
0.0
 10
1091.471473
 20
1049.633774
 30
0.0
  0
SPLINE
  5
127
100
AcDbEntity
  8
W0102_Printing_45X35
 62
1
100
AcDbSpline
 70
8
 71
3
 72
8
 73
4
 74
0
 40
0
 40
0
 40
0
 40
0
 40
1
 40
1
 40
1
 40
1
 10
1091.471473
 20
1049.633774
 30
0.0
 10
1083.643473
 20
1049.633774
 30
0.0
 10
1077.298473
 20
1055.978774
 30
0.0
 10
1077.298473
 20
1063.806773
 30
0.0
  0
SPLINE
  5
128
100
AcDbEntity
  8
W0102_Printing_45X35
 62
1
100
AcDbSpline
 70
8
 71
3
 72
8
 73
4
 74
0
 40
0
 40
0
 40
0
 40
0
 40
1
 40
1
 40
1
 40
1
 10
1077.298473
 20
1063.806773
 30
0.0
 10
1077.298473
 20
1071.634773
 30
0.0
 10
1083.643473
 20
1077.979773
 30
0.0
 10
1091.471473
 20
1077.979773
 30
0.0
  0
SPLINE
  5
129
100
AcDbEntity
  8
W0102_Printing_45X35
 62
1
100
AcDbSpline
 70
8
 71
3
 72
8
 73
4
 74
0
 40
0
 40
0
 40
0
 40
0
 40
1
 40
1
 40
1
 40
1
 10
1091.471473
 20
1077.979773
 30
0.0
 10
1099.298473
 20
1077.979773
 30
0.0
 10
1105.644472
 20
1071.634773
 30
0.0
 10
1105.644472
 20
1063.806773
 30
0.0
  0
LWPOLYLINE
  5
12a
100
AcDbEntity
  8
W0102_Printing_45X35
 62
1
100
AcDbPolyline
 90
1
 70
1
 10
1105.644472
 20
1106.326372
 30
0.0
  0
SPLINE
  5
12b
100
AcDbEntity
  8
W0102_Printing_45X35
 62
1
100
AcDbSpline
 70
8
 71
3
 72
8
 73
4
 74
0
 40
0
 40
0
 40
0
 40
0
 40
1
 40
1
 40
1
 40
1
 10
1105.644472
 20
1021.286974
 30
0.0
 10
1105.644472
 20
1013.458975
 30
0.0
 10
1099.298473
 20
1007.113975
 30
0.0
 10
1091.471473
 20
1007.113975
 30
0.0
  0
SPLINE
  5
12c
100
AcDbEntity
  8
W0102_Printing_45X35
 62
1
100
AcDbSpline
 70
8
 71
3
 72
8
 73
4
 74
0
 40
0
 40
0
 40
0
 40
0
 40
1
 40
1
 40
1
 40
1
 10
1091.471473
 20
1007.113975
 30
0.0
 10
1083.643473
 20
1007.113975
 30
0.0
 10
1077.298473
 20
1013.458975
 30
0.0
 10
1077.298473
 20
1021.286974
 30
0.0
  0
SPLINE
  5
12d
100
AcDbEntity
  8
W0102_Printing_45X35
 62
1
100
AcDbSpline
 70
8
 71
3
 72
8
 73
4
 74
0
 40
0
 40
0
 40
0
 40
0
 40
1
 40
1
 40
1
 40
1
 10
1077.298473
 20
1021.286974
 30
0.0
 10
1077.298473
 20
1029.114974
 30
0.0
 10
1083.643473
 20
1035.459974
 30
0.0
 10
1091.471473
 20
1035.459974
 30
0.0
  0
SPLINE
  5
12e
100
AcDbEntity
  8
W0102_Printing_45X35
 62
1
100
AcDbSpline
 70
8
 71
3
 72
8
 73
4
 74
0
 40
0
 40
0
 40
0
 40
0
 40
1
 40
1
 40
1
 40
1
 10
1091.471473
 20
1035.459974
 30
0.0
 10
1099.298473
 20
1035.459974
 30
0.0
 10
1105.644472
 20
1029.114974
 30
0.0
 10
1105.644472
 20
1021.286974
 30
0.0
  0
LWPOLYLINE
  5
12f
100
AcDbEntity
  8
W0102_Printing_45X35
 62
1
100
AcDbPolyline
 90
1
 70
1
 10
1105.644472
 20
1063.806773
 30
0.0
  0
SPLINE
  5
130
100
AcDbEntity
  8
W0102_Printing_45X35
 62
1
100
AcDbSpline
 70
8
 71
3
 72
8
 73
4
 74
0
 40
0
 40
0
 40
0
 40
0
 40
1
 40
1
 40
1
 40
1
 10
1105.644472
 20
978.767376
 30
0.0
 10
1105.644472
 20
970.939376
 30
0.0
 10
1099.298473
 20
964.594376
 30
0.0
 10
1091.471473
 20
964.594376
 30
0.0
  0
SPLINE
  5
131
100
AcDbEntity
  8
W0102_Printing_45X35
 62
1
100
AcDbSpline
 70
8
 71
3
 72
8
 73
4
 74
0
 40
0
 40
0
 40
0
 40
0
 40
1
 40
1
 40
1
 40
1
 10
1091.471473
 20
964.594376
 30
0.0
 10
1083.643473
 20
964.594376
 30
0.0
 10
1077.298473
 20
970.939376
 30
0.0
 10
1077.298473
 20
978.767376
 30
0.0
  0
SPLINE
  5
132
100
AcDbEntity
  8
W0102_Printing_45X35
 62
1
100
AcDbSpline
 70
8
 71
3
 72
8
 73
4
 74
0
 40
0
 40
0
 40
0
 40
0
 40
1
 40
1
 40
1
 40
1
 10
1077.298473
 20
978.767376
 30
0.0
 10
1077.298473
 20
986.595375
 30
0.0
 10
1083.643473
 20
992.940375
 30
0.0
 10
1091.471473
 20
992.940375
 30
0.0
  0
SPLINE
  5
133
100
AcDbEntity
  8
W0102_Printing_45X35
 62
1
100
AcDbSpline
 70
8
 71
3
 72
8
 73
4
 74
0
 40
0
 40
0
 40
0
 40
0
 40
1
 40
1
 40
1
 40
1
 10
1091.471473
 20
992.940375
 30
0.0
 10
1099.298473
 20
992.940375
 30
0.0
 10
1105.644472
 20
986.595375
 30
0.0
 10
1105.644472
 20
978.767376
 30
0.0
  0
LWPOLYLINE
  5
134
100
AcDbEntity
  8
W0102_Printing_45X35
 62
1
100
AcDbPolyline
 90
1
 70
1
 10
1105.644472
 20
1021.286974
 30
0.0
  0
SPLINE
  5
135
100
AcDbEntity
  8
W0102_Printing_45X35
 62
1
100
AcDbSpline
 70
8
 71
3
 72
8
 73
4
 74
0
 40
0
 40
0
 40
0
 40
0
 40
1
 40
1
 40
1
 40
1
 10
1105.644472
 20
936.247677
 30
0.0
 10
1105.644472
 20
928.419677
 30
0.0
 10
1099.298473
 20
922.074677
 30
0.0
 10
1091.471473
 20
922.074677
 30
0.0
  0
SPLINE
  5
136
100
AcDbEntity
  8
W0102_Printing_45X35
 62
1
100
AcDbSpline
 70
8
 71
3
 72
8
 73
4
 74
0
 40
0
 40
0
 40
0
 40
0
 40
1
 40
1
 40
1
 40
1
 10
1091.471473
 20
922.074677
 30
0.0
 10
1083.643473
 20
922.074677
 30
0.0
 10
1077.298473
 20
928.419677
 30
0.0
 10
1077.298473
 20
936.247677
 30
0.0
  0
SPLINE
  5
137
100
AcDbEntity
  8
W0102_Printing_45X35
 62
1
100
AcDbSpline
 70
8
 71
3
 72
8
 73
4
 74
0
 40
0
 40
0
 40
0
 40
0
 40
1
 40
1
 40
1
 40
1
 10
1077.298473
 20
936.247677
 30
0.0
 10
1077.298473
 20
944.075676
 30
0.0
 10
1083.643473
 20
950.420676
 30
0.0
 10
1091.471473
 20
950.420676
 30
0.0
  0
SPLINE
  5
138
100
AcDbEntity
  8
W0102_Printing_45X35
 62
1
100
AcDbSpline
 70
8
 71
3
 72
8
 73
4
 74
0
 40
0
 40
0
 40
0
 40
0
 40
1
 40
1
 40
1
 40
1
 10
1091.471473
 20
950.420676
 30
0.0
 10
1099.298473
 20
950.420676
 30
0.0
 10
1105.644472
 20
944.075676
 30
0.0
 10
1105.644472
 20
936.247677
 30
0.0
  0
LWPOLYLINE
  5
139
100
AcDbEntity
  8
W0102_Printing_45X35
 62
1
100
AcDbPolyline
 90
1
 70
1
 10
1105.644472
 20
978.767376
 30
0.0
  0
SPLINE
  5
13a
100
AcDbEntity
  8
W0102_Printing_45X35
 62
1
100
AcDbSpline
 70
8
 71
3
 72
8
 73
4
 74
0
 40
0
 40
0
 40
0
 40
0
 40
1
 40
1
 40
1
 40
1
 10
1105.644472
 20
893.727978
 30
0.0
 10
1105.644472
 20
885.899978
 30
0.0
 10
1099.298473
 20
879.554978
 30
0.0
 10
1091.471473
 20
879.554978
 30
0.0
  0
SPLINE
  5
13b
100
AcDbEntity
  8
W0102_Printing_45X35
 62
1
100
AcDbSpline
 70
8
 71
3
 72
8
 73
4
 74
0
 40
0
 40
0
 40
0
 40
0
 40
1
 40
1
 40
1
 40
1
 10
1091.471473
 20
879.554978
 30
0.0
 10
1083.643473
 20
879.554978
 30
0.0
 10
1077.298473
 20
885.899978
 30
0.0
 10
1077.298473
 20
893.727978
 30
0.0
  0
SPLINE
  5
13c
100
AcDbEntity
  8
W0102_Printing_45X35
 62
1
100
AcDbSpline
 70
8
 71
3
 72
8
 73
4
 74
0
 40
0
 40
0
 40
0
 40
0
 40
1
 40
1
 40
1
 40
1
 10
1077.298473
 20
893.727978
 30
0.0
 10
1077.298473
 20
901.555977
 30
0.0
 10
1083.643473
 20
907.900977
 30
0.0
 10
1091.471473
 20
907.900977
 30
0.0
  0
SPLINE
  5
13d
100
AcDbEntity
  8
W0102_Printing_45X35
 62
1
100
AcDbSpline
 70
8
 71
3
 72
8
 73
4
 74
0
 40
0
 40
0
 40
0
 40
0
 40
1
 40
1
 40
1
 40
1
 10
1091.471473
 20
907.900977
 30
0.0
 10
1099.298473
 20
907.900977
 30
0.0
 10
1105.644472
 20
901.555977
 30
0.0
 10
1105.644472
 20
893.727978
 30
0.0
  0
LWPOLYLINE
  5
13e
100
AcDbEntity
  8
W0102_Printing_45X35
 62
1
100
AcDbPolyline
 90
1
 70
1
 10
1105.644472
 20
936.247677
 30
0.0
  0
SPLINE
  5
13f
100
AcDbEntity
  8
W0102_Printing_45X35
 62
1
100
AcDbSpline
 70
8
 71
3
 72
8
 73
4
 74
0
 40
0
 40
0
 40
0
 40
0
 40
1
 40
1
 40
1
 40
1
 10
1105.644472
 20
851.208279
 30
0.0
 10
1105.644472
 20
843.380279
 30
0.0
 10
1099.298473
 20
837.035279
 30
0.0
 10
1091.471473
 20
837.035279
 30
0.0
  0
SPLINE
  5
140
100
AcDbEntity
  8
W0102_Printing_45X35
 62
1
100
AcDbSpline
 70
8
 71
3
 72
8
 73
4
 74
0
 40
0
 40
0
 40
0
 40
0
 40
1
 40
1
 40
1
 40
1
 10
1091.471473
 20
837.035279
 30
0.0
 10
1083.643473
 20
837.035279
 30
0.0
 10
1077.298473
 20
843.380279
 30
0.0
 10
1077.298473
 20
851.208279
 30
0.0
  0
SPLINE
  5
141
100
AcDbEntity
  8
W0102_Printing_45X35
 62
1
100
AcDbSpline
 70
8
 71
3
 72
8
 73
4
 74
0
 40
0
 40
0
 40
0
 40
0
 40
1
 40
1
 40
1
 40
1
 10
1077.298473
 20
851.208279
 30
0.0
 10
1077.298473
 20
859.036279
 30
0.0
 10
1083.643473
 20
865.381278
 30
0.0
 10
1091.471473
 20
865.381278
 30
0.0
  0
SPLINE
  5
142
100
AcDbEntity
  8
W0102_Printing_45X35
 62
1
100
AcDbSpline
 70
8
 71
3
 72
8
 73
4
 74
0
 40
0
 40
0
 40
0
 40
0
 40
1
 40
1
 40
1
 40
1
 10
1091.471473
 20
865.381278
 30
0.0
 10
1099.298473
 20
865.381278
 30
0.0
 10
1105.644472
 20
859.036279
 30
0.0
 10
1105.644472
 20
851.208279
 30
0.0
  0
LWPOLYLINE
  5
143
100
AcDbEntity
  8
W0102_Printing_45X35
 62
1
100
AcDbPolyline
 90
1
 70
1
 10
1105.644472
 20
893.727978
 30
0.0
  0
SPLINE
  5
144
100
AcDbEntity
  8
W0102_Printing_45X35
 62
1
100
AcDbSpline
 70
8
 71
3
 72
8
 73
4
 74
0
 40
0
 40
0
 40
0
 40
0
 40
1
 40
1
 40
1
 40
1
 10
1105.644472
 20
808.688680
 30
0.0
 10
1105.644472
 20
800.860680
 30
0.0
 10
1099.298473
 20
794.515680
 30
0.0
 10
1091.471473
 20
794.515680
 30
0.0
  0
SPLINE
  5
145
100
AcDbEntity
  8
W0102_Printing_45X35
 62
1
100
AcDbSpline
 70
8
 71
3
 72
8
 73
4
 74
0
 40
0
 40
0
 40
0
 40
0
 40
1
 40
1
 40
1
 40
1
 10
1091.471473
 20
794.515680
 30
0.0
 10
1083.643473
 20
794.515680
 30
0.0
 10
1077.298473
 20
800.860680
 30
0.0
 10
1077.298473
 20
808.688680
 30
0.0
  0
SPLINE
  5
146
100
AcDbEntity
  8
W0102_Printing_45X35
 62
1
100
AcDbSpline
 70
8
 71
3
 72
8
 73
4
 74
0
 40
0
 40
0
 40
0
 40
0
 40
1
 40
1
 40
1
 40
1
 10
1077.298473
 20
808.688680
 30
0.0
 10
1077.298473
 20
816.516680
 30
0.0
 10
1083.643473
 20
822.861679
 30
0.0
 10
1091.471473
 20
822.861679
 30
0.0
  0
SPLINE
  5
147
100
AcDbEntity
  8
W0102_Printing_45X35
 62
1
100
AcDbSpline
 70
8
 71
3
 72
8
 73
4
 74
0
 40
0
 40
0
 40
0
 40
0
 40
1
 40
1
 40
1
 40
1
 10
1091.471473
 20
822.861679
 30
0.0
 10
1099.298473
 20
822.861679
 30
0.0
 10
1105.644472
 20
816.516680
 30
0.0
 10
1105.644472
 20
808.688680
 30
0.0
  0
LWPOLYLINE
  5
148
100
AcDbEntity
  8
W0102_Printing_45X35
 62
1
100
AcDbPolyline
 90
1
 70
1
 10
1105.644472
 20
851.208279
 30
0.0
  0
SPLINE
  5
149
100
AcDbEntity
  8
W0102_Printing_45X35
 62
1
100
AcDbSpline
 70
8
 71
3
 72
8
 73
4
 74
0
 40
0
 40
0
 40
0
 40
0
 40
1
 40
1
 40
1
 40
1
 10
1105.644472
 20
766.168881
 30
0.0
 10
1105.644472
 20
758.340881
 30
0.0
 10
1099.298473
 20
751.995881
 30
0.0
 10
1091.471473
 20
751.995881
 30
0.0
  0
SPLINE
  5
14a
100
AcDbEntity
  8
W0102_Printing_45X35
 62
1
100
AcDbSpline
 70
8
 71
3
 72
8
 73
4
 74
0
 40
0
 40
0
 40
0
 40
0
 40
1
 40
1
 40
1
 40
1
 10
1091.471473
 20
751.995881
 30
0.0
 10
1083.643473
 20
751.995881
 30
0.0
 10
1077.298473
 20
758.340881
 30
0.0
 10
1077.298473
 20
766.168881
 30
0.0
  0
SPLINE
  5
14b
100
AcDbEntity
  8
W0102_Printing_45X35
 62
1
100
AcDbSpline
 70
8
 71
3
 72
8
 73
4
 74
0
 40
0
 40
0
 40
0
 40
0
 40
1
 40
1
 40
1
 40
1
 10
1077.298473
 20
766.168881
 30
0.0
 10
1077.298473
 20
773.996881
 30
0.0
 10
1083.643473
 20
780.341880
 30
0.0
 10
1091.471473
 20
780.341880
 30
0.0
  0
SPLINE
  5
14c
100
AcDbEntity
  8
W0102_Printing_45X35
 62
1
100
AcDbSpline
 70
8
 71
3
 72
8
 73
4
 74
0
 40
0
 40
0
 40
0
 40
0
 40
1
 40
1
 40
1
 40
1
 10
1091.471473
 20
780.341880
 30
0.0
 10
1099.298473
 20
780.341880
 30
0.0
 10
1105.644472
 20
773.996881
 30
0.0
 10
1105.644472
 20
766.168881
 30
0.0
  0
LWPOLYLINE
  5
14d
100
AcDbEntity
  8
W0102_Printing_45X35
 62
1
100
AcDbPolyline
 90
1
 70
1
 10
1105.644472
 20
808.688680
 30
0.0
  0
SPLINE
  5
14e
100
AcDbEntity
  8
W0102_Printing_45X35
 62
1
100
AcDbSpline
 70
8
 71
3
 72
8
 73
4
 74
0
 40
0
 40
0
 40
0
 40
0
 40
1
 40
1
 40
1
 40
1
 10
1105.644472
 20
723.649282
 30
0.0
 10
1105.644472
 20
715.821282
 30
0.0
 10
1099.298473
 20
709.476282
 30
0.0
 10
1091.471473
 20
709.476282
 30
0.0
  0
SPLINE
  5
14f
100
AcDbEntity
  8
W0102_Printing_45X35
 62
1
100
AcDbSpline
 70
8
 71
3
 72
8
 73
4
 74
0
 40
0
 40
0
 40
0
 40
0
 40
1
 40
1
 40
1
 40
1
 10
1091.471473
 20
709.476282
 30
0.0
 10
1083.643473
 20
709.476282
 30
0.0
 10
1077.298473
 20
715.821282
 30
0.0
 10
1077.298473
 20
723.649282
 30
0.0
  0
SPLINE
  5
150
100
AcDbEntity
  8
W0102_Printing_45X35
 62
1
100
AcDbSpline
 70
8
 71
3
 72
8
 73
4
 74
0
 40
0
 40
0
 40
0
 40
0
 40
1
 40
1
 40
1
 40
1
 10
1077.298473
 20
723.649282
 30
0.0
 10
1077.298473
 20
731.477282
 30
0.0
 10
1083.643473
 20
737.822282
 30
0.0
 10
1091.471473
 20
737.822282
 30
0.0
  0
SPLINE
  5
151
100
AcDbEntity
  8
W0102_Printing_45X35
 62
1
100
AcDbSpline
 70
8
 71
3
 72
8
 73
4
 74
0
 40
0
 40
0
 40
0
 40
0
 40
1
 40
1
 40
1
 40
1
 10
1091.471473
 20
737.822282
 30
0.0
 10
1099.298473
 20
737.822282
 30
0.0
 10
1105.644472
 20
731.477282
 30
0.0
 10
1105.644472
 20
723.649282
 30
0.0
  0
LWPOLYLINE
  5
152
100
AcDbEntity
  8
W0102_Printing_45X35
 62
1
100
AcDbPolyline
 90
1
 70
1
 10
1105.644472
 20
766.168881
 30
0.0
  0
SPLINE
  5
153
100
AcDbEntity
  8
W0102_Printing_45X35
 62
1
100
AcDbSpline
 70
8
 71
3
 72
8
 73
4
 74
0
 40
0
 40
0
 40
0
 40
0
 40
1
 40
1
 40
1
 40
1
 10
1105.644472
 20
681.129583
 30
0.0
 10
1105.644472
 20
673.301583
 30
0.0
 10
1099.298473
 20
666.956583
 30
0.0
 10
1091.471473
 20
666.956583
 30
0.0
  0
SPLINE
  5
154
100
AcDbEntity
  8
W0102_Printing_45X35
 62
1
100
AcDbSpline
 70
8
 71
3
 72
8
 73
4
 74
0
 40
0
 40
0
 40
0
 40
0
 40
1
 40
1
 40
1
 40
1
 10
1091.471473
 20
666.956583
 30
0.0
 10
1083.643473
 20
666.956583
 30
0.0
 10
1077.298473
 20
673.301583
 30
0.0
 10
1077.298473
 20
681.129583
 30
0.0
  0
SPLINE
  5
155
100
AcDbEntity
  8
W0102_Printing_45X35
 62
1
100
AcDbSpline
 70
8
 71
3
 72
8
 73
4
 74
0
 40
0
 40
0
 40
0
 40
0
 40
1
 40
1
 40
1
 40
1
 10
1077.298473
 20
681.129583
 30
0.0
 10
1077.298473
 20
688.957583
 30
0.0
 10
1083.643473
 20
695.302583
 30
0.0
 10
1091.471473
 20
695.302583
 30
0.0
  0
SPLINE
  5
156
100
AcDbEntity
  8
W0102_Printing_45X35
 62
1
100
AcDbSpline
 70
8
 71
3
 72
8
 73
4
 74
0
 40
0
 40
0
 40
0
 40
0
 40
1
 40
1
 40
1
 40
1
 10
1091.471473
 20
695.302583
 30
0.0
 10
1099.298473
 20
695.302583
 30
0.0
 10
1105.644472
 20
688.957583
 30
0.0
 10
1105.644472
 20
681.129583
 30
0.0
  0
LWPOLYLINE
  5
157
100
AcDbEntity
  8
W0102_Printing_45X35
 62
1
100
AcDbPolyline
 90
1
 70
1
 10
1105.644472
 20
723.649282
 30
0.0
  0
SPLINE
  5
158
100
AcDbEntity
  8
W0102_Printing_45X35
 62
1
100
AcDbSpline
 70
8
 71
3
 72
8
 73
4
 74
0
 40
0
 40
0
 40
0
 40
0
 40
1
 40
1
 40
1
 40
1
 10
1105.644472
 20
638.609884
 30
0.0
 10
1105.644472
 20
630.781884
 30
0.0
 10
1099.298473
 20
624.436884
 30
0.0
 10
1091.471473
 20
624.436884
 30
0.0
  0
SPLINE
  5
159
100
AcDbEntity
  8
W0102_Printing_45X35
 62
1
100
AcDbSpline
 70
8
 71
3
 72
8
 73
4
 74
0
 40
0
 40
0
 40
0
 40
0
 40
1
 40
1
 40
1
 40
1
 10
1091.471473
 20
624.436884
 30
0.0
 10
1083.643473
 20
624.436884
 30
0.0
 10
1077.298473
 20
630.781884
 30
0.0
 10
1077.298473
 20
638.609884
 30
0.0
  0
SPLINE
  5
15a
100
AcDbEntity
  8
W0102_Printing_45X35
 62
1
100
AcDbSpline
 70
8
 71
3
 72
8
 73
4
 74
0
 40
0
 40
0
 40
0
 40
0
 40
1
 40
1
 40
1
 40
1
 10
1077.298473
 20
638.609884
 30
0.0
 10
1077.298473
 20
646.437884
 30
0.0
 10
1083.643473
 20
652.782884
 30
0.0
 10
1091.471473
 20
652.782884
 30
0.0
  0
SPLINE
  5
15b
100
AcDbEntity
  8
W0102_Printing_45X35
 62
1
100
AcDbSpline
 70
8
 71
3
 72
8
 73
4
 74
0
 40
0
 40
0
 40
0
 40
0
 40
1
 40
1
 40
1
 40
1
 10
1091.471473
 20
652.782884
 30
0.0
 10
1099.298473
 20
652.782884
 30
0.0
 10
1105.644472
 20
646.437884
 30
0.0
 10
1105.644472
 20
638.609884
 30
0.0
  0
LWPOLYLINE
  5
15c
100
AcDbEntity
  8
W0102_Printing_45X35
 62
1
100
AcDbPolyline
 90
1
 70
1
 10
1105.644472
 20
681.129583
 30
0.0
  0
SPLINE
  5
15d
100
AcDbEntity
  8
W0102_Printing_45X35
 62
1
100
AcDbSpline
 70
8
 71
3
 72
8
 73
4
 74
0
 40
0
 40
0
 40
0
 40
0
 40
1
 40
1
 40
1
 40
1
 10
1105.644472
 20
596.090185
 30
0.0
 10
1105.644472
 20
588.262185
 30
0.0
 10
1099.298473
 20
581.917185
 30
0.0
 10
1091.471473
 20
581.917185
 30
0.0
  0
SPLINE
  5
15e
100
AcDbEntity
  8
W0102_Printing_45X35
 62
1
100
AcDbSpline
 70
8
 71
3
 72
8
 73
4
 74
0
 40
0
 40
0
 40
0
 40
0
 40
1
 40
1
 40
1
 40
1
 10
1091.471473
 20
581.917185
 30
0.0
 10
1083.643473
 20
581.917185
 30
0.0
 10
1077.298473
 20
588.262185
 30
0.0
 10
1077.298473
 20
596.090185
 30
0.0
  0
SPLINE
  5
15f
100
AcDbEntity
  8
W0102_Printing_45X35
 62
1
100
AcDbSpline
 70
8
 71
3
 72
8
 73
4
 74
0
 40
0
 40
0
 40
0
 40
0
 40
1
 40
1
 40
1
 40
1
 10
1077.298473
 20
596.090185
 30
0.0
 10
1077.298473
 20
603.918185
 30
0.0
 10
1083.643473
 20
610.263185
 30
0.0
 10
1091.471473
 20
610.263185
 30
0.0
  0
SPLINE
  5
160
100
AcDbEntity
  8
W0102_Printing_45X35
 62
1
100
AcDbSpline
 70
8
 71
3
 72
8
 73
4
 74
0
 40
0
 40
0
 40
0
 40
0
 40
1
 40
1
 40
1
 40
1
 10
1091.471473
 20
610.263185
 30
0.0
 10
1099.298473
 20
610.263185
 30
0.0
 10
1105.644472
 20
603.918185
 30
0.0
 10
1105.644472
 20
596.090185
 30
0.0
  0
LWPOLYLINE
  5
161
100
AcDbEntity
  8
W0102_Printing_45X35
 62
1
100
AcDbPolyline
 90
1
 70
1
 10
1105.644472
 20
638.609884
 30
0.0
  0
SPLINE
  5
162
100
AcDbEntity
  8
W0102_Printing_45X35
 62
1
100
AcDbSpline
 70
8
 71
3
 72
8
 73
4
 74
0
 40
0
 40
0
 40
0
 40
0
 40
1
 40
1
 40
1
 40
1
 10
1105.644472
 20
553.570586
 30
0.0
 10
1105.644472
 20
545.742586
 30
0.0
 10
1099.298473
 20
539.397587
 30
0.0
 10
1091.471473
 20
539.397587
 30
0.0
  0
SPLINE
  5
163
100
AcDbEntity
  8
W0102_Printing_45X35
 62
1
100
AcDbSpline
 70
8
 71
3
 72
8
 73
4
 74
0
 40
0
 40
0
 40
0
 40
0
 40
1
 40
1
 40
1
 40
1
 10
1091.471473
 20
539.397587
 30
0.0
 10
1083.643473
 20
539.397587
 30
0.0
 10
1077.298473
 20
545.742586
 30
0.0
 10
1077.298473
 20
553.570586
 30
0.0
  0
SPLINE
  5
164
100
AcDbEntity
  8
W0102_Printing_45X35
 62
1
100
AcDbSpline
 70
8
 71
3
 72
8
 73
4
 74
0
 40
0
 40
0
 40
0
 40
0
 40
1
 40
1
 40
1
 40
1
 10
1077.298473
 20
553.570586
 30
0.0
 10
1077.298473
 20
561.398586
 30
0.0
 10
1083.643473
 20
567.743586
 30
0.0
 10
1091.471473
 20
567.743586
 30
0.0
  0
SPLINE
  5
165
100
AcDbEntity
  8
W0102_Printing_45X35
 62
1
100
AcDbSpline
 70
8
 71
3
 72
8
 73
4
 74
0
 40
0
 40
0
 40
0
 40
0
 40
1
 40
1
 40
1
 40
1
 10
1091.471473
 20
567.743586
 30
0.0
 10
1099.298473
 20
567.743586
 30
0.0
 10
1105.644472
 20
561.398586
 30
0.0
 10
1105.644472
 20
553.570586
 30
0.0
  0
LWPOLYLINE
  5
166
100
AcDbEntity
  8
W0102_Printing_45X35
 62
1
100
AcDbPolyline
 90
1
 70
1
 10
1105.644472
 20
596.090185
 30
0.0
  0
SPLINE
  5
167
100
AcDbEntity
  8
W0102_Printing_45X35
 62
1
100
AcDbSpline
 70
8
 71
3
 72
8
 73
4
 74
0
 40
0
 40
0
 40
0
 40
0
 40
1
 40
1
 40
1
 40
1
 10
1105.644472
 20
511.050787
 30
0.0
 10
1105.644472
 20
503.222787
 30
0.0
 10
1099.298473
 20
496.877788
 30
0.0
 10
1091.471473
 20
496.877788
 30
0.0
  0
SPLINE
  5
168
100
AcDbEntity
  8
W0102_Printing_45X35
 62
1
100
AcDbSpline
 70
8
 71
3
 72
8
 73
4
 74
0
 40
0
 40
0
 40
0
 40
0
 40
1
 40
1
 40
1
 40
1
 10
1091.471473
 20
496.877788
 30
0.0
 10
1083.643473
 20
496.877788
 30
0.0
 10
1077.298473
 20
503.222787
 30
0.0
 10
1077.298473
 20
511.050787
 30
0.0
  0
SPLINE
  5
169
100
AcDbEntity
  8
W0102_Printing_45X35
 62
1
100
AcDbSpline
 70
8
 71
3
 72
8
 73
4
 74
0
 40
0
 40
0
 40
0
 40
0
 40
1
 40
1
 40
1
 40
1
 10
1077.298473
 20
511.050787
 30
0.0
 10
1077.298473
 20
518.878787
 30
0.0
 10
1083.643473
 20
525.223787
 30
0.0
 10
1091.471473
 20
525.223787
 30
0.0
  0
SPLINE
  5
16a
100
AcDbEntity
  8
W0102_Printing_45X35
 62
1
100
AcDbSpline
 70
8
 71
3
 72
8
 73
4
 74
0
 40
0
 40
0
 40
0
 40
0
 40
1
 40
1
 40
1
 40
1
 10
1091.471473
 20
525.223787
 30
0.0
 10
1099.298473
 20
525.223787
 30
0.0
 10
1105.644472
 20
518.878787
 30
0.0
 10
1105.644472
 20
511.050787
 30
0.0
  0
LWPOLYLINE
  5
16b
100
AcDbEntity
  8
W0102_Printing_45X35
 62
1
100
AcDbPolyline
 90
1
 70
1
 10
1105.644472
 20
553.570586
 30
0.0
  0
SPLINE
  5
16c
100
AcDbEntity
  8
W0102_Printing_45X35
 62
1
100
AcDbSpline
 70
8
 71
3
 72
8
 73
4
 74
0
 40
0
 40
0
 40
0
 40
0
 40
1
 40
1
 40
1
 40
1
 10
1105.644472
 20
468.531188
 30
0.0
 10
1105.644472
 20
460.703188
 30
0.0
 10
1099.298473
 20
454.358189
 30
0.0
 10
1091.471473
 20
454.358189
 30
0.0
  0
SPLINE
  5
16d
100
AcDbEntity
  8
W0102_Printing_45X35
 62
1
100
AcDbSpline
 70
8
 71
3
 72
8
 73
4
 74
0
 40
0
 40
0
 40
0
 40
0
 40
1
 40
1
 40
1
 40
1
 10
1091.471473
 20
454.358189
 30
0.0
 10
1083.643473
 20
454.358189
 30
0.0
 10
1077.298473
 20
460.703188
 30
0.0
 10
1077.298473
 20
468.531188
 30
0.0
  0
SPLINE
  5
16e
100
AcDbEntity
  8
W0102_Printing_45X35
 62
1
100
AcDbSpline
 70
8
 71
3
 72
8
 73
4
 74
0
 40
0
 40
0
 40
0
 40
0
 40
1
 40
1
 40
1
 40
1
 10
1077.298473
 20
468.531188
 30
0.0
 10
1077.298473
 20
476.359188
 30
0.0
 10
1083.643473
 20
482.704188
 30
0.0
 10
1091.471473
 20
482.704188
 30
0.0
  0
SPLINE
  5
16f
100
AcDbEntity
  8
W0102_Printing_45X35
 62
1
100
AcDbSpline
 70
8
 71
3
 72
8
 73
4
 74
0
 40
0
 40
0
 40
0
 40
0
 40
1
 40
1
 40
1
 40
1
 10
1091.471473
 20
482.704188
 30
0.0
 10
1099.298473
 20
482.704188
 30
0.0
 10
1105.644472
 20
476.359188
 30
0.0
 10
1105.644472
 20
468.531188
 30
0.0
  0
LWPOLYLINE
  5
170
100
AcDbEntity
  8
W0102_Printing_45X35
 62
1
100
AcDbPolyline
 90
1
 70
1
 10
1105.644472
 20
511.050787
 30
0.0
  0
SPLINE
  5
171
100
AcDbEntity
  8
W0102_Printing_45X35
 62
1
100
AcDbSpline
 70
8
 71
3
 72
8
 73
4
 74
0
 40
0
 40
0
 40
0
 40
0
 40
1
 40
1
 40
1
 40
1
 10
1105.644472
 20
426.011489
 30
0.0
 10
1105.644472
 20
418.183490
 30
0.0
 10
1099.298473
 20
411.838490
 30
0.0
 10
1091.471473
 20
411.838490
 30
0.0
  0
SPLINE
  5
172
100
AcDbEntity
  8
W0102_Printing_45X35
 62
1
100
AcDbSpline
 70
8
 71
3
 72
8
 73
4
 74
0
 40
0
 40
0
 40
0
 40
0
 40
1
 40
1
 40
1
 40
1
 10
1091.471473
 20
411.838490
 30
0.0
 10
1083.643473
 20
411.838490
 30
0.0
 10
1077.298473
 20
418.183490
 30
0.0
 10
1077.298473
 20
426.011489
 30
0.0
  0
SPLINE
  5
173
100
AcDbEntity
  8
W0102_Printing_45X35
 62
1
100
AcDbSpline
 70
8
 71
3
 72
8
 73
4
 74
0
 40
0
 40
0
 40
0
 40
0
 40
1
 40
1
 40
1
 40
1
 10
1077.298473
 20
426.011489
 30
0.0
 10
1077.298473
 20
433.839489
 30
0.0
 10
1083.643473
 20
440.184489
 30
0.0
 10
1091.471473
 20
440.184489
 30
0.0
  0
SPLINE
  5
174
100
AcDbEntity
  8
W0102_Printing_45X35
 62
1
100
AcDbSpline
 70
8
 71
3
 72
8
 73
4
 74
0
 40
0
 40
0
 40
0
 40
0
 40
1
 40
1
 40
1
 40
1
 10
1091.471473
 20
440.184489
 30
0.0
 10
1099.298473
 20
440.184489
 30
0.0
 10
1105.644472
 20
433.839489
 30
0.0
 10
1105.644472
 20
426.011489
 30
0.0
  0
LWPOLYLINE
  5
175
100
AcDbEntity
  8
W0102_Printing_45X35
 62
1
100
AcDbPolyline
 90
1
 70
1
 10
1105.644472
 20
468.531188
 30
0.0
  0
SPLINE
  5
176
100
AcDbEntity
  8
W0102_Printing_45X35
 62
1
100
AcDbSpline
 70
8
 71
3
 72
8
 73
4
 74
0
 40
0
 40
0
 40
0
 40
0
 40
1
 40
1
 40
1
 40
1
 10
2324.542142
 20
1276.405168
 30
0.0
 10
2324.542142
 20
1268.577168
 30
0.0
 10
2318.197142
 20
1262.232168
 30
0.0
 10
2310.369142
 20
1262.232168
 30
0.0
  0
SPLINE
  5
177
100
AcDbEntity
  8
W0102_Printing_45X35
 62
1
100
AcDbSpline
 70
8
 71
3
 72
8
 73
4
 74
0
 40
0
 40
0
 40
0
 40
0
 40
1
 40
1
 40
1
 40
1
 10
2310.369142
 20
1262.232168
 30
0.0
 10
2302.541142
 20
1262.232168
 30
0.0
 10
2296.196143
 20
1268.577168
 30
0.0
 10
2296.196143
 20
1276.405168
 30
0.0
  0
SPLINE
  5
178
100
AcDbEntity
  8
W0102_Printing_45X35
 62
1
100
AcDbSpline
 70
8
 71
3
 72
8
 73
4
 74
0
 40
0
 40
0
 40
0
 40
0
 40
1
 40
1
 40
1
 40
1
 10
2296.196143
 20
1276.405168
 30
0.0
 10
2296.196143
 20
1284.233168
 30
0.0
 10
2302.541142
 20
1290.578168
 30
0.0
 10
2310.369142
 20
1290.578168
 30
0.0
  0
SPLINE
  5
179
100
AcDbEntity
  8
W0102_Printing_45X35
 62
1
100
AcDbSpline
 70
8
 71
3
 72
8
 73
4
 74
0
 40
0
 40
0
 40
0
 40
0
 40
1
 40
1
 40
1
 40
1
 10
2310.369142
 20
1290.578168
 30
0.0
 10
2318.197142
 20
1290.578168
 30
0.0
 10
2324.542142
 20
1284.233168
 30
0.0
 10
2324.542142
 20
1276.405168
 30
0.0
  0
LWPOLYLINE
  5
17a
100
AcDbEntity
  8
W0102_Printing_45X35
 62
1
100
AcDbPolyline
 90
1
 70
1
 10
1105.644472
 20
426.011489
 30
0.0
  0
SPLINE
  5
17b
100
AcDbEntity
  8
W0102_Printing_45X35
 62
1
100
AcDbSpline
 70
8
 71
3
 72
8
 73
4
 74
0
 40
0
 40
0
 40
0
 40
0
 40
1
 40
1
 40
1
 40
1
 10
2324.542142
 20
1233.885469
 30
0.0
 10
2324.542142
 20
1226.057469
 30
0.0
 10
2318.197142
 20
1219.712470
 30
0.0
 10
2310.369142
 20
1219.712470
 30
0.0
  0
SPLINE
  5
17c
100
AcDbEntity
  8
W0102_Printing_45X35
 62
1
100
AcDbSpline
 70
8
 71
3
 72
8
 73
4
 74
0
 40
0
 40
0
 40
0
 40
0
 40
1
 40
1
 40
1
 40
1
 10
2310.369142
 20
1219.712470
 30
0.0
 10
2302.541142
 20
1219.712470
 30
0.0
 10
2296.196143
 20
1226.057469
 30
0.0
 10
2296.196143
 20
1233.885469
 30
0.0
  0
SPLINE
  5
17d
100
AcDbEntity
  8
W0102_Printing_45X35
 62
1
100
AcDbSpline
 70
8
 71
3
 72
8
 73
4
 74
0
 40
0
 40
0
 40
0
 40
0
 40
1
 40
1
 40
1
 40
1
 10
2296.196143
 20
1233.885469
 30
0.0
 10
2296.196143
 20
1241.713469
 30
0.0
 10
2302.541142
 20
1248.058469
 30
0.0
 10
2310.369142
 20
1248.058469
 30
0.0
  0
SPLINE
  5
17e
100
AcDbEntity
  8
W0102_Printing_45X35
 62
1
100
AcDbSpline
 70
8
 71
3
 72
8
 73
4
 74
0
 40
0
 40
0
 40
0
 40
0
 40
1
 40
1
 40
1
 40
1
 10
2310.369142
 20
1248.058469
 30
0.0
 10
2318.197142
 20
1248.058469
 30
0.0
 10
2324.542142
 20
1241.713469
 30
0.0
 10
2324.542142
 20
1233.885469
 30
0.0
  0
LWPOLYLINE
  5
17f
100
AcDbEntity
  8
W0102_Printing_45X35
 62
1
100
AcDbPolyline
 90
1
 70
1
 10
2324.542142
 20
1276.405168
 30
0.0
  0
SPLINE
  5
180
100
AcDbEntity
  8
W0102_Printing_45X35
 62
1
100
AcDbSpline
 70
8
 71
3
 72
8
 73
4
 74
0
 40
0
 40
0
 40
0
 40
0
 40
1
 40
1
 40
1
 40
1
 10
2324.542142
 20
1191.365770
 30
0.0
 10
2324.542142
 20
1183.537770
 30
0.0
 10
2318.197142
 20
1177.192771
 30
0.0
 10
2310.369142
 20
1177.192771
 30
0.0
  0
SPLINE
  5
181
100
AcDbEntity
  8
W0102_Printing_45X35
 62
1
100
AcDbSpline
 70
8
 71
3
 72
8
 73
4
 74
0
 40
0
 40
0
 40
0
 40
0
 40
1
 40
1
 40
1
 40
1
 10
2310.369142
 20
1177.192771
 30
0.0
 10
2302.541142
 20
1177.192771
 30
0.0
 10
2296.196143
 20
1183.537770
 30
0.0
 10
2296.196143
 20
1191.365770
 30
0.0
  0
SPLINE
  5
182
100
AcDbEntity
  8
W0102_Printing_45X35
 62
1
100
AcDbSpline
 70
8
 71
3
 72
8
 73
4
 74
0
 40
0
 40
0
 40
0
 40
0
 40
1
 40
1
 40
1
 40
1
 10
2296.196143
 20
1191.365770
 30
0.0
 10
2296.196143
 20
1199.193770
 30
0.0
 10
2302.541142
 20
1205.538770
 30
0.0
 10
2310.369142
 20
1205.538770
 30
0.0
  0
SPLINE
  5
183
100
AcDbEntity
  8
W0102_Printing_45X35
 62
1
100
AcDbSpline
 70
8
 71
3
 72
8
 73
4
 74
0
 40
0
 40
0
 40
0
 40
0
 40
1
 40
1
 40
1
 40
1
 10
2310.369142
 20
1205.538770
 30
0.0
 10
2318.197142
 20
1205.538770
 30
0.0
 10
2324.542142
 20
1199.193770
 30
0.0
 10
2324.542142
 20
1191.365770
 30
0.0
  0
LWPOLYLINE
  5
184
100
AcDbEntity
  8
W0102_Printing_45X35
 62
1
100
AcDbPolyline
 90
1
 70
1
 10
2324.542142
 20
1233.885469
 30
0.0
  0
SPLINE
  5
185
100
AcDbEntity
  8
W0102_Printing_45X35
 62
1
100
AcDbSpline
 70
8
 71
3
 72
8
 73
4
 74
0
 40
0
 40
0
 40
0
 40
0
 40
1
 40
1
 40
1
 40
1
 10
2324.542142
 20
1148.846071
 30
0.0
 10
2324.542142
 20
1141.018071
 30
0.0
 10
2318.197142
 20
1134.673072
 30
0.0
 10
2310.369142
 20
1134.673072
 30
0.0
  0
SPLINE
  5
186
100
AcDbEntity
  8
W0102_Printing_45X35
 62
1
100
AcDbSpline
 70
8
 71
3
 72
8
 73
4
 74
0
 40
0
 40
0
 40
0
 40
0
 40
1
 40
1
 40
1
 40
1
 10
2310.369142
 20
1134.673072
 30
0.0
 10
2302.541142
 20
1134.673072
 30
0.0
 10
2296.196143
 20
1141.018071
 30
0.0
 10
2296.196143
 20
1148.846071
 30
0.0
  0
SPLINE
  5
187
100
AcDbEntity
  8
W0102_Printing_45X35
 62
1
100
AcDbSpline
 70
8
 71
3
 72
8
 73
4
 74
0
 40
0
 40
0
 40
0
 40
0
 40
1
 40
1
 40
1
 40
1
 10
2296.196143
 20
1148.846071
 30
0.0
 10
2296.196143
 20
1156.674071
 30
0.0
 10
2302.541142
 20
1163.019071
 30
0.0
 10
2310.369142
 20
1163.019071
 30
0.0
  0
SPLINE
  5
188
100
AcDbEntity
  8
W0102_Printing_45X35
 62
1
100
AcDbSpline
 70
8
 71
3
 72
8
 73
4
 74
0
 40
0
 40
0
 40
0
 40
0
 40
1
 40
1
 40
1
 40
1
 10
2310.369142
 20
1163.019071
 30
0.0
 10
2318.197142
 20
1163.019071
 30
0.0
 10
2324.542142
 20
1156.674071
 30
0.0
 10
2324.542142
 20
1148.846071
 30
0.0
  0
LWPOLYLINE
  5
189
100
AcDbEntity
  8
W0102_Printing_45X35
 62
1
100
AcDbPolyline
 90
1
 70
1
 10
2324.542142
 20
1191.365770
 30
0.0
  0
SPLINE
  5
18a
100
AcDbEntity
  8
W0102_Printing_45X35
 62
1
100
AcDbSpline
 70
8
 71
3
 72
8
 73
4
 74
0
 40
0
 40
0
 40
0
 40
0
 40
1
 40
1
 40
1
 40
1
 10
2324.542142
 20
1106.326372
 30
0.0
 10
2324.542142
 20
1098.498373
 30
0.0
 10
2318.197142
 20
1092.153373
 30
0.0
 10
2310.369142
 20
1092.153373
 30
0.0
  0
SPLINE
  5
18b
100
AcDbEntity
  8
W0102_Printing_45X35
 62
1
100
AcDbSpline
 70
8
 71
3
 72
8
 73
4
 74
0
 40
0
 40
0
 40
0
 40
0
 40
1
 40
1
 40
1
 40
1
 10
2310.369142
 20
1092.153373
 30
0.0
 10
2302.541142
 20
1092.153373
 30
0.0
 10
2296.196143
 20
1098.498373
 30
0.0
 10
2296.196143
 20
1106.326372
 30
0.0
  0
SPLINE
  5
18c
100
AcDbEntity
  8
W0102_Printing_45X35
 62
1
100
AcDbSpline
 70
8
 71
3
 72
8
 73
4
 74
0
 40
0
 40
0
 40
0
 40
0
 40
1
 40
1
 40
1
 40
1
 10
2296.196143
 20
1106.326372
 30
0.0
 10
2296.196143
 20
1114.154372
 30
0.0
 10
2302.541142
 20
1120.499372
 30
0.0
 10
2310.369142
 20
1120.499372
 30
0.0
  0
SPLINE
  5
18d
100
AcDbEntity
  8
W0102_Printing_45X35
 62
1
100
AcDbSpline
 70
8
 71
3
 72
8
 73
4
 74
0
 40
0
 40
0
 40
0
 40
0
 40
1
 40
1
 40
1
 40
1
 10
2310.369142
 20
1120.499372
 30
0.0
 10
2318.197142
 20
1120.499372
 30
0.0
 10
2324.542142
 20
1114.154372
 30
0.0
 10
2324.542142
 20
1106.326372
 30
0.0
  0
LWPOLYLINE
  5
18e
100
AcDbEntity
  8
W0102_Printing_45X35
 62
1
100
AcDbPolyline
 90
1
 70
1
 10
2324.542142
 20
1148.846071
 30
0.0
  0
SPLINE
  5
18f
100
AcDbEntity
  8
W0102_Printing_45X35
 62
1
100
AcDbSpline
 70
8
 71
3
 72
8
 73
4
 74
0
 40
0
 40
0
 40
0
 40
0
 40
1
 40
1
 40
1
 40
1
 10
2324.542142
 20
1063.806773
 30
0.0
 10
2324.542142
 20
1055.978774
 30
0.0
 10
2318.197142
 20
1049.633774
 30
0.0
 10
2310.369142
 20
1049.633774
 30
0.0
  0
SPLINE
  5
190
100
AcDbEntity
  8
W0102_Printing_45X35
 62
1
100
AcDbSpline
 70
8
 71
3
 72
8
 73
4
 74
0
 40
0
 40
0
 40
0
 40
0
 40
1
 40
1
 40
1
 40
1
 10
2310.369142
 20
1049.633774
 30
0.0
 10
2302.541142
 20
1049.633774
 30
0.0
 10
2296.196143
 20
1055.978774
 30
0.0
 10
2296.196143
 20
1063.806773
 30
0.0
  0
SPLINE
  5
191
100
AcDbEntity
  8
W0102_Printing_45X35
 62
1
100
AcDbSpline
 70
8
 71
3
 72
8
 73
4
 74
0
 40
0
 40
0
 40
0
 40
0
 40
1
 40
1
 40
1
 40
1
 10
2296.196143
 20
1063.806773
 30
0.0
 10
2296.196143
 20
1071.634773
 30
0.0
 10
2302.541142
 20
1077.979773
 30
0.0
 10
2310.369142
 20
1077.979773
 30
0.0
  0
SPLINE
  5
192
100
AcDbEntity
  8
W0102_Printing_45X35
 62
1
100
AcDbSpline
 70
8
 71
3
 72
8
 73
4
 74
0
 40
0
 40
0
 40
0
 40
0
 40
1
 40
1
 40
1
 40
1
 10
2310.369142
 20
1077.979773
 30
0.0
 10
2318.197142
 20
1077.979773
 30
0.0
 10
2324.542142
 20
1071.634773
 30
0.0
 10
2324.542142
 20
1063.806773
 30
0.0
  0
LWPOLYLINE
  5
193
100
AcDbEntity
  8
W0102_Printing_45X35
 62
1
100
AcDbPolyline
 90
1
 70
1
 10
2324.542142
 20
1106.326372
 30
0.0
  0
SPLINE
  5
194
100
AcDbEntity
  8
W0102_Printing_45X35
 62
1
100
AcDbSpline
 70
8
 71
3
 72
8
 73
4
 74
0
 40
0
 40
0
 40
0
 40
0
 40
1
 40
1
 40
1
 40
1
 10
2324.542142
 20
1021.286974
 30
0.0
 10
2324.542142
 20
1013.458975
 30
0.0
 10
2318.197142
 20
1007.113975
 30
0.0
 10
2310.369142
 20
1007.113975
 30
0.0
  0
SPLINE
  5
195
100
AcDbEntity
  8
W0102_Printing_45X35
 62
1
100
AcDbSpline
 70
8
 71
3
 72
8
 73
4
 74
0
 40
0
 40
0
 40
0
 40
0
 40
1
 40
1
 40
1
 40
1
 10
2310.369142
 20
1007.113975
 30
0.0
 10
2302.541142
 20
1007.113975
 30
0.0
 10
2296.196143
 20
1013.458975
 30
0.0
 10
2296.196143
 20
1021.286974
 30
0.0
  0
SPLINE
  5
196
100
AcDbEntity
  8
W0102_Printing_45X35
 62
1
100
AcDbSpline
 70
8
 71
3
 72
8
 73
4
 74
0
 40
0
 40
0
 40
0
 40
0
 40
1
 40
1
 40
1
 40
1
 10
2296.196143
 20
1021.286974
 30
0.0
 10
2296.196143
 20
1029.114974
 30
0.0
 10
2302.541142
 20
1035.459974
 30
0.0
 10
2310.369142
 20
1035.459974
 30
0.0
  0
SPLINE
  5
197
100
AcDbEntity
  8
W0102_Printing_45X35
 62
1
100
AcDbSpline
 70
8
 71
3
 72
8
 73
4
 74
0
 40
0
 40
0
 40
0
 40
0
 40
1
 40
1
 40
1
 40
1
 10
2310.369142
 20
1035.459974
 30
0.0
 10
2318.197142
 20
1035.459974
 30
0.0
 10
2324.542142
 20
1029.114974
 30
0.0
 10
2324.542142
 20
1021.286974
 30
0.0
  0
LWPOLYLINE
  5
198
100
AcDbEntity
  8
W0102_Printing_45X35
 62
1
100
AcDbPolyline
 90
1
 70
1
 10
2324.542142
 20
1063.806773
 30
0.0
  0
SPLINE
  5
199
100
AcDbEntity
  8
W0102_Printing_45X35
 62
1
100
AcDbSpline
 70
8
 71
3
 72
8
 73
4
 74
0
 40
0
 40
0
 40
0
 40
0
 40
1
 40
1
 40
1
 40
1
 10
2324.542142
 20
978.767376
 30
0.0
 10
2324.542142
 20
970.939376
 30
0.0
 10
2318.197142
 20
964.594376
 30
0.0
 10
2310.369142
 20
964.594376
 30
0.0
  0
SPLINE
  5
19a
100
AcDbEntity
  8
W0102_Printing_45X35
 62
1
100
AcDbSpline
 70
8
 71
3
 72
8
 73
4
 74
0
 40
0
 40
0
 40
0
 40
0
 40
1
 40
1
 40
1
 40
1
 10
2310.369142
 20
964.594376
 30
0.0
 10
2302.541142
 20
964.594376
 30
0.0
 10
2296.196143
 20
970.939376
 30
0.0
 10
2296.196143
 20
978.767376
 30
0.0
  0
SPLINE
  5
19b
100
AcDbEntity
  8
W0102_Printing_45X35
 62
1
100
AcDbSpline
 70
8
 71
3
 72
8
 73
4
 74
0
 40
0
 40
0
 40
0
 40
0
 40
1
 40
1
 40
1
 40
1
 10
2296.196143
 20
978.767376
 30
0.0
 10
2296.196143
 20
986.595375
 30
0.0
 10
2302.541142
 20
992.940375
 30
0.0
 10
2310.369142
 20
992.940375
 30
0.0
  0
SPLINE
  5
19c
100
AcDbEntity
  8
W0102_Printing_45X35
 62
1
100
AcDbSpline
 70
8
 71
3
 72
8
 73
4
 74
0
 40
0
 40
0
 40
0
 40
0
 40
1
 40
1
 40
1
 40
1
 10
2310.369142
 20
992.940375
 30
0.0
 10
2318.197142
 20
992.940375
 30
0.0
 10
2324.542142
 20
986.595375
 30
0.0
 10
2324.542142
 20
978.767376
 30
0.0
  0
LWPOLYLINE
  5
19d
100
AcDbEntity
  8
W0102_Printing_45X35
 62
1
100
AcDbPolyline
 90
1
 70
1
 10
2324.542142
 20
1021.286974
 30
0.0
  0
SPLINE
  5
19e
100
AcDbEntity
  8
W0102_Printing_45X35
 62
1
100
AcDbSpline
 70
8
 71
3
 72
8
 73
4
 74
0
 40
0
 40
0
 40
0
 40
0
 40
1
 40
1
 40
1
 40
1
 10
2324.542142
 20
936.247677
 30
0.0
 10
2324.542142
 20
928.419677
 30
0.0
 10
2318.197142
 20
922.074677
 30
0.0
 10
2310.369142
 20
922.074677
 30
0.0
  0
SPLINE
  5
19f
100
AcDbEntity
  8
W0102_Printing_45X35
 62
1
100
AcDbSpline
 70
8
 71
3
 72
8
 73
4
 74
0
 40
0
 40
0
 40
0
 40
0
 40
1
 40
1
 40
1
 40
1
 10
2310.369142
 20
922.074677
 30
0.0
 10
2302.541142
 20
922.074677
 30
0.0
 10
2296.196143
 20
928.419677
 30
0.0
 10
2296.196143
 20
936.247677
 30
0.0
  0
SPLINE
  5
1a0
100
AcDbEntity
  8
W0102_Printing_45X35
 62
1
100
AcDbSpline
 70
8
 71
3
 72
8
 73
4
 74
0
 40
0
 40
0
 40
0
 40
0
 40
1
 40
1
 40
1
 40
1
 10
2296.196143
 20
936.247677
 30
0.0
 10
2296.196143
 20
944.075676
 30
0.0
 10
2302.541142
 20
950.420676
 30
0.0
 10
2310.369142
 20
950.420676
 30
0.0
  0
SPLINE
  5
1a1
100
AcDbEntity
  8
W0102_Printing_45X35
 62
1
100
AcDbSpline
 70
8
 71
3
 72
8
 73
4
 74
0
 40
0
 40
0
 40
0
 40
0
 40
1
 40
1
 40
1
 40
1
 10
2310.369142
 20
950.420676
 30
0.0
 10
2318.197142
 20
950.420676
 30
0.0
 10
2324.542142
 20
944.075676
 30
0.0
 10
2324.542142
 20
936.247677
 30
0.0
  0
LWPOLYLINE
  5
1a2
100
AcDbEntity
  8
W0102_Printing_45X35
 62
1
100
AcDbPolyline
 90
1
 70
1
 10
2324.542142
 20
978.767376
 30
0.0
  0
SPLINE
  5
1a3
100
AcDbEntity
  8
W0102_Printing_45X35
 62
1
100
AcDbSpline
 70
8
 71
3
 72
8
 73
4
 74
0
 40
0
 40
0
 40
0
 40
0
 40
1
 40
1
 40
1
 40
1
 10
2324.542142
 20
893.727978
 30
0.0
 10
2324.542142
 20
885.899978
 30
0.0
 10
2318.197142
 20
879.554978
 30
0.0
 10
2310.369142
 20
879.554978
 30
0.0
  0
SPLINE
  5
1a4
100
AcDbEntity
  8
W0102_Printing_45X35
 62
1
100
AcDbSpline
 70
8
 71
3
 72
8
 73
4
 74
0
 40
0
 40
0
 40
0
 40
0
 40
1
 40
1
 40
1
 40
1
 10
2310.369142
 20
879.554978
 30
0.0
 10
2302.541142
 20
879.554978
 30
0.0
 10
2296.196143
 20
885.899978
 30
0.0
 10
2296.196143
 20
893.727978
 30
0.0
  0
SPLINE
  5
1a5
100
AcDbEntity
  8
W0102_Printing_45X35
 62
1
100
AcDbSpline
 70
8
 71
3
 72
8
 73
4
 74
0
 40
0
 40
0
 40
0
 40
0
 40
1
 40
1
 40
1
 40
1
 10
2296.196143
 20
893.727978
 30
0.0
 10
2296.196143
 20
901.555977
 30
0.0
 10
2302.541142
 20
907.900977
 30
0.0
 10
2310.369142
 20
907.900977
 30
0.0
  0
SPLINE
  5
1a6
100
AcDbEntity
  8
W0102_Printing_45X35
 62
1
100
AcDbSpline
 70
8
 71
3
 72
8
 73
4
 74
0
 40
0
 40
0
 40
0
 40
0
 40
1
 40
1
 40
1
 40
1
 10
2310.369142
 20
907.900977
 30
0.0
 10
2318.197142
 20
907.900977
 30
0.0
 10
2324.542142
 20
901.555977
 30
0.0
 10
2324.542142
 20
893.727978
 30
0.0
  0
LWPOLYLINE
  5
1a7
100
AcDbEntity
  8
W0102_Printing_45X35
 62
1
100
AcDbPolyline
 90
1
 70
1
 10
2324.542142
 20
936.247677
 30
0.0
  0
SPLINE
  5
1a8
100
AcDbEntity
  8
W0102_Printing_45X35
 62
1
100
AcDbSpline
 70
8
 71
3
 72
8
 73
4
 74
0
 40
0
 40
0
 40
0
 40
0
 40
1
 40
1
 40
1
 40
1
 10
2324.542142
 20
851.208279
 30
0.0
 10
2324.542142
 20
843.380279
 30
0.0
 10
2318.197142
 20
837.035279
 30
0.0
 10
2310.369142
 20
837.035279
 30
0.0
  0
SPLINE
  5
1a9
100
AcDbEntity
  8
W0102_Printing_45X35
 62
1
100
AcDbSpline
 70
8
 71
3
 72
8
 73
4
 74
0
 40
0
 40
0
 40
0
 40
0
 40
1
 40
1
 40
1
 40
1
 10
2310.369142
 20
837.035279
 30
0.0
 10
2302.541142
 20
837.035279
 30
0.0
 10
2296.196143
 20
843.380279
 30
0.0
 10
2296.196143
 20
851.208279
 30
0.0
  0
SPLINE
  5
1aa
100
AcDbEntity
  8
W0102_Printing_45X35
 62
1
100
AcDbSpline
 70
8
 71
3
 72
8
 73
4
 74
0
 40
0
 40
0
 40
0
 40
0
 40
1
 40
1
 40
1
 40
1
 10
2296.196143
 20
851.208279
 30
0.0
 10
2296.196143
 20
859.036279
 30
0.0
 10
2302.541142
 20
865.381278
 30
0.0
 10
2310.369142
 20
865.381278
 30
0.0
  0
SPLINE
  5
1ab
100
AcDbEntity
  8
W0102_Printing_45X35
 62
1
100
AcDbSpline
 70
8
 71
3
 72
8
 73
4
 74
0
 40
0
 40
0
 40
0
 40
0
 40
1
 40
1
 40
1
 40
1
 10
2310.369142
 20
865.381278
 30
0.0
 10
2318.197142
 20
865.381278
 30
0.0
 10
2324.542142
 20
859.036279
 30
0.0
 10
2324.542142
 20
851.208279
 30
0.0
  0
LWPOLYLINE
  5
1ac
100
AcDbEntity
  8
W0102_Printing_45X35
 62
1
100
AcDbPolyline
 90
1
 70
1
 10
2324.542142
 20
893.727978
 30
0.0
  0
SPLINE
  5
1ad
100
AcDbEntity
  8
W0102_Printing_45X35
 62
1
100
AcDbSpline
 70
8
 71
3
 72
8
 73
4
 74
0
 40
0
 40
0
 40
0
 40
0
 40
1
 40
1
 40
1
 40
1
 10
2324.542142
 20
808.688680
 30
0.0
 10
2324.542142
 20
800.860680
 30
0.0
 10
2318.197142
 20
794.515680
 30
0.0
 10
2310.369142
 20
794.515680
 30
0.0
  0
SPLINE
  5
1ae
100
AcDbEntity
  8
W0102_Printing_45X35
 62
1
100
AcDbSpline
 70
8
 71
3
 72
8
 73
4
 74
0
 40
0
 40
0
 40
0
 40
0
 40
1
 40
1
 40
1
 40
1
 10
2310.369142
 20
794.515680
 30
0.0
 10
2302.541142
 20
794.515680
 30
0.0
 10
2296.196143
 20
800.860680
 30
0.0
 10
2296.196143
 20
808.688680
 30
0.0
  0
SPLINE
  5
1af
100
AcDbEntity
  8
W0102_Printing_45X35
 62
1
100
AcDbSpline
 70
8
 71
3
 72
8
 73
4
 74
0
 40
0
 40
0
 40
0
 40
0
 40
1
 40
1
 40
1
 40
1
 10
2296.196143
 20
808.688680
 30
0.0
 10
2296.196143
 20
816.516680
 30
0.0
 10
2302.541142
 20
822.861679
 30
0.0
 10
2310.369142
 20
822.861679
 30
0.0
  0
SPLINE
  5
1b0
100
AcDbEntity
  8
W0102_Printing_45X35
 62
1
100
AcDbSpline
 70
8
 71
3
 72
8
 73
4
 74
0
 40
0
 40
0
 40
0
 40
0
 40
1
 40
1
 40
1
 40
1
 10
2310.369142
 20
822.861679
 30
0.0
 10
2318.197142
 20
822.861679
 30
0.0
 10
2324.542142
 20
816.516680
 30
0.0
 10
2324.542142
 20
808.688680
 30
0.0
  0
LWPOLYLINE
  5
1b1
100
AcDbEntity
  8
W0102_Printing_45X35
 62
1
100
AcDbPolyline
 90
1
 70
1
 10
2324.542142
 20
851.208279
 30
0.0
  0
SPLINE
  5
1b2
100
AcDbEntity
  8
W0102_Printing_45X35
 62
1
100
AcDbSpline
 70
8
 71
3
 72
8
 73
4
 74
0
 40
0
 40
0
 40
0
 40
0
 40
1
 40
1
 40
1
 40
1
 10
2324.542142
 20
766.168881
 30
0.0
 10
2324.542142
 20
758.340881
 30
0.0
 10
2318.197142
 20
751.995881
 30
0.0
 10
2310.369142
 20
751.995881
 30
0.0
  0
SPLINE
  5
1b3
100
AcDbEntity
  8
W0102_Printing_45X35
 62
1
100
AcDbSpline
 70
8
 71
3
 72
8
 73
4
 74
0
 40
0
 40
0
 40
0
 40
0
 40
1
 40
1
 40
1
 40
1
 10
2310.369142
 20
751.995881
 30
0.0
 10
2302.541142
 20
751.995881
 30
0.0
 10
2296.196143
 20
758.340881
 30
0.0
 10
2296.196143
 20
766.168881
 30
0.0
  0
SPLINE
  5
1b4
100
AcDbEntity
  8
W0102_Printing_45X35
 62
1
100
AcDbSpline
 70
8
 71
3
 72
8
 73
4
 74
0
 40
0
 40
0
 40
0
 40
0
 40
1
 40
1
 40
1
 40
1
 10
2296.196143
 20
766.168881
 30
0.0
 10
2296.196143
 20
773.996881
 30
0.0
 10
2302.541142
 20
780.341880
 30
0.0
 10
2310.369142
 20
780.341880
 30
0.0
  0
SPLINE
  5
1b5
100
AcDbEntity
  8
W0102_Printing_45X35
 62
1
100
AcDbSpline
 70
8
 71
3
 72
8
 73
4
 74
0
 40
0
 40
0
 40
0
 40
0
 40
1
 40
1
 40
1
 40
1
 10
2310.369142
 20
780.341880
 30
0.0
 10
2318.197142
 20
780.341880
 30
0.0
 10
2324.542142
 20
773.996881
 30
0.0
 10
2324.542142
 20
766.168881
 30
0.0
  0
LWPOLYLINE
  5
1b6
100
AcDbEntity
  8
W0102_Printing_45X35
 62
1
100
AcDbPolyline
 90
1
 70
1
 10
2324.542142
 20
808.688680
 30
0.0
  0
SPLINE
  5
1b7
100
AcDbEntity
  8
W0102_Printing_45X35
 62
1
100
AcDbSpline
 70
8
 71
3
 72
8
 73
4
 74
0
 40
0
 40
0
 40
0
 40
0
 40
1
 40
1
 40
1
 40
1
 10
2324.542142
 20
723.649282
 30
0.0
 10
2324.542142
 20
715.821282
 30
0.0
 10
2318.197142
 20
709.476282
 30
0.0
 10
2310.369142
 20
709.476282
 30
0.0
  0
SPLINE
  5
1b8
100
AcDbEntity
  8
W0102_Printing_45X35
 62
1
100
AcDbSpline
 70
8
 71
3
 72
8
 73
4
 74
0
 40
0
 40
0
 40
0
 40
0
 40
1
 40
1
 40
1
 40
1
 10
2310.369142
 20
709.476282
 30
0.0
 10
2302.541142
 20
709.476282
 30
0.0
 10
2296.196143
 20
715.821282
 30
0.0
 10
2296.196143
 20
723.649282
 30
0.0
  0
SPLINE
  5
1b9
100
AcDbEntity
  8
W0102_Printing_45X35
 62
1
100
AcDbSpline
 70
8
 71
3
 72
8
 73
4
 74
0
 40
0
 40
0
 40
0
 40
0
 40
1
 40
1
 40
1
 40
1
 10
2296.196143
 20
723.649282
 30
0.0
 10
2296.196143
 20
731.477282
 30
0.0
 10
2302.541142
 20
737.822282
 30
0.0
 10
2310.369142
 20
737.822282
 30
0.0
  0
SPLINE
  5
1ba
100
AcDbEntity
  8
W0102_Printing_45X35
 62
1
100
AcDbSpline
 70
8
 71
3
 72
8
 73
4
 74
0
 40
0
 40
0
 40
0
 40
0
 40
1
 40
1
 40
1
 40
1
 10
2310.369142
 20
737.822282
 30
0.0
 10
2318.197142
 20
737.822282
 30
0.0
 10
2324.542142
 20
731.477282
 30
0.0
 10
2324.542142
 20
723.649282
 30
0.0
  0
LWPOLYLINE
  5
1bb
100
AcDbEntity
  8
W0102_Printing_45X35
 62
1
100
AcDbPolyline
 90
1
 70
1
 10
2324.542142
 20
766.168881
 30
0.0
  0
SPLINE
  5
1bc
100
AcDbEntity
  8
W0102_Printing_45X35
 62
1
100
AcDbSpline
 70
8
 71
3
 72
8
 73
4
 74
0
 40
0
 40
0
 40
0
 40
0
 40
1
 40
1
 40
1
 40
1
 10
2324.542142
 20
681.129583
 30
0.0
 10
2324.542142
 20
673.301583
 30
0.0
 10
2318.197142
 20
666.956583
 30
0.0
 10
2310.369142
 20
666.956583
 30
0.0
  0
SPLINE
  5
1bd
100
AcDbEntity
  8
W0102_Printing_45X35
 62
1
100
AcDbSpline
 70
8
 71
3
 72
8
 73
4
 74
0
 40
0
 40
0
 40
0
 40
0
 40
1
 40
1
 40
1
 40
1
 10
2310.369142
 20
666.956583
 30
0.0
 10
2302.541142
 20
666.956583
 30
0.0
 10
2296.196143
 20
673.301583
 30
0.0
 10
2296.196143
 20
681.129583
 30
0.0
  0
SPLINE
  5
1be
100
AcDbEntity
  8
W0102_Printing_45X35
 62
1
100
AcDbSpline
 70
8
 71
3
 72
8
 73
4
 74
0
 40
0
 40
0
 40
0
 40
0
 40
1
 40
1
 40
1
 40
1
 10
2296.196143
 20
681.129583
 30
0.0
 10
2296.196143
 20
688.957583
 30
0.0
 10
2302.541142
 20
695.302583
 30
0.0
 10
2310.369142
 20
695.302583
 30
0.0
  0
SPLINE
  5
1bf
100
AcDbEntity
  8
W0102_Printing_45X35
 62
1
100
AcDbSpline
 70
8
 71
3
 72
8
 73
4
 74
0
 40
0
 40
0
 40
0
 40
0
 40
1
 40
1
 40
1
 40
1
 10
2310.369142
 20
695.302583
 30
0.0
 10
2318.197142
 20
695.302583
 30
0.0
 10
2324.542142
 20
688.957583
 30
0.0
 10
2324.542142
 20
681.129583
 30
0.0
  0
LWPOLYLINE
  5
1c0
100
AcDbEntity
  8
W0102_Printing_45X35
 62
1
100
AcDbPolyline
 90
1
 70
1
 10
2324.542142
 20
723.649282
 30
0.0
  0
SPLINE
  5
1c1
100
AcDbEntity
  8
W0102_Printing_45X35
 62
1
100
AcDbSpline
 70
8
 71
3
 72
8
 73
4
 74
0
 40
0
 40
0
 40
0
 40
0
 40
1
 40
1
 40
1
 40
1
 10
2324.542142
 20
638.609884
 30
0.0
 10
2324.542142
 20
630.781884
 30
0.0
 10
2318.197142
 20
624.436884
 30
0.0
 10
2310.369142
 20
624.436884
 30
0.0
  0
SPLINE
  5
1c2
100
AcDbEntity
  8
W0102_Printing_45X35
 62
1
100
AcDbSpline
 70
8
 71
3
 72
8
 73
4
 74
0
 40
0
 40
0
 40
0
 40
0
 40
1
 40
1
 40
1
 40
1
 10
2310.369142
 20
624.436884
 30
0.0
 10
2302.541142
 20
624.436884
 30
0.0
 10
2296.196143
 20
630.781884
 30
0.0
 10
2296.196143
 20
638.609884
 30
0.0
  0
SPLINE
  5
1c3
100
AcDbEntity
  8
W0102_Printing_45X35
 62
1
100
AcDbSpline
 70
8
 71
3
 72
8
 73
4
 74
0
 40
0
 40
0
 40
0
 40
0
 40
1
 40
1
 40
1
 40
1
 10
2296.196143
 20
638.609884
 30
0.0
 10
2296.196143
 20
646.437884
 30
0.0
 10
2302.541142
 20
652.782884
 30
0.0
 10
2310.369142
 20
652.782884
 30
0.0
  0
SPLINE
  5
1c4
100
AcDbEntity
  8
W0102_Printing_45X35
 62
1
100
AcDbSpline
 70
8
 71
3
 72
8
 73
4
 74
0
 40
0
 40
0
 40
0
 40
0
 40
1
 40
1
 40
1
 40
1
 10
2310.369142
 20
652.782884
 30
0.0
 10
2318.197142
 20
652.782884
 30
0.0
 10
2324.542142
 20
646.437884
 30
0.0
 10
2324.542142
 20
638.609884
 30
0.0
  0
LWPOLYLINE
  5
1c5
100
AcDbEntity
  8
W0102_Printing_45X35
 62
1
100
AcDbPolyline
 90
1
 70
1
 10
2324.542142
 20
681.129583
 30
0.0
  0
SPLINE
  5
1c6
100
AcDbEntity
  8
W0102_Printing_45X35
 62
1
100
AcDbSpline
 70
8
 71
3
 72
8
 73
4
 74
0
 40
0
 40
0
 40
0
 40
0
 40
1
 40
1
 40
1
 40
1
 10
2324.542142
 20
596.090185
 30
0.0
 10
2324.542142
 20
588.262185
 30
0.0
 10
2318.197142
 20
581.917185
 30
0.0
 10
2310.369142
 20
581.917185
 30
0.0
  0
SPLINE
  5
1c7
100
AcDbEntity
  8
W0102_Printing_45X35
 62
1
100
AcDbSpline
 70
8
 71
3
 72
8
 73
4
 74
0
 40
0
 40
0
 40
0
 40
0
 40
1
 40
1
 40
1
 40
1
 10
2310.369142
 20
581.917185
 30
0.0
 10
2302.541142
 20
581.917185
 30
0.0
 10
2296.196143
 20
588.262185
 30
0.0
 10
2296.196143
 20
596.090185
 30
0.0
  0
SPLINE
  5
1c8
100
AcDbEntity
  8
W0102_Printing_45X35
 62
1
100
AcDbSpline
 70
8
 71
3
 72
8
 73
4
 74
0
 40
0
 40
0
 40
0
 40
0
 40
1
 40
1
 40
1
 40
1
 10
2296.196143
 20
596.090185
 30
0.0
 10
2296.196143
 20
603.918185
 30
0.0
 10
2302.541142
 20
610.263185
 30
0.0
 10
2310.369142
 20
610.263185
 30
0.0
  0
SPLINE
  5
1c9
100
AcDbEntity
  8
W0102_Printing_45X35
 62
1
100
AcDbSpline
 70
8
 71
3
 72
8
 73
4
 74
0
 40
0
 40
0
 40
0
 40
0
 40
1
 40
1
 40
1
 40
1
 10
2310.369142
 20
610.263185
 30
0.0
 10
2318.197142
 20
610.263185
 30
0.0
 10
2324.542142
 20
603.918185
 30
0.0
 10
2324.542142
 20
596.090185
 30
0.0
  0
LWPOLYLINE
  5
1ca
100
AcDbEntity
  8
W0102_Printing_45X35
 62
1
100
AcDbPolyline
 90
1
 70
1
 10
2324.542142
 20
638.609884
 30
0.0
  0
SPLINE
  5
1cb
100
AcDbEntity
  8
W0102_Printing_45X35
 62
1
100
AcDbSpline
 70
8
 71
3
 72
8
 73
4
 74
0
 40
0
 40
0
 40
0
 40
0
 40
1
 40
1
 40
1
 40
1
 10
2324.542142
 20
553.570586
 30
0.0
 10
2324.542142
 20
545.742586
 30
0.0
 10
2318.197142
 20
539.397587
 30
0.0
 10
2310.369142
 20
539.397587
 30
0.0
  0
SPLINE
  5
1cc
100
AcDbEntity
  8
W0102_Printing_45X35
 62
1
100
AcDbSpline
 70
8
 71
3
 72
8
 73
4
 74
0
 40
0
 40
0
 40
0
 40
0
 40
1
 40
1
 40
1
 40
1
 10
2310.369142
 20
539.397587
 30
0.0
 10
2302.541142
 20
539.397587
 30
0.0
 10
2296.196143
 20
545.742586
 30
0.0
 10
2296.196143
 20
553.570586
 30
0.0
  0
SPLINE
  5
1cd
100
AcDbEntity
  8
W0102_Printing_45X35
 62
1
100
AcDbSpline
 70
8
 71
3
 72
8
 73
4
 74
0
 40
0
 40
0
 40
0
 40
0
 40
1
 40
1
 40
1
 40
1
 10
2296.196143
 20
553.570586
 30
0.0
 10
2296.196143
 20
561.398586
 30
0.0
 10
2302.541142
 20
567.743586
 30
0.0
 10
2310.369142
 20
567.743586
 30
0.0
  0
SPLINE
  5
1ce
100
AcDbEntity
  8
W0102_Printing_45X35
 62
1
100
AcDbSpline
 70
8
 71
3
 72
8
 73
4
 74
0
 40
0
 40
0
 40
0
 40
0
 40
1
 40
1
 40
1
 40
1
 10
2310.369142
 20
567.743586
 30
0.0
 10
2318.197142
 20
567.743586
 30
0.0
 10
2324.542142
 20
561.398586
 30
0.0
 10
2324.542142
 20
553.570586
 30
0.0
  0
LWPOLYLINE
  5
1cf
100
AcDbEntity
  8
W0102_Printing_45X35
 62
1
100
AcDbPolyline
 90
1
 70
1
 10
2324.542142
 20
596.090185
 30
0.0
  0
SPLINE
  5
1d0
100
AcDbEntity
  8
W0102_Printing_45X35
 62
1
100
AcDbSpline
 70
8
 71
3
 72
8
 73
4
 74
0
 40
0
 40
0
 40
0
 40
0
 40
1
 40
1
 40
1
 40
1
 10
2324.542142
 20
511.050787
 30
0.0
 10
2324.542142
 20
503.222787
 30
0.0
 10
2318.197142
 20
496.877788
 30
0.0
 10
2310.369142
 20
496.877788
 30
0.0
  0
SPLINE
  5
1d1
100
AcDbEntity
  8
W0102_Printing_45X35
 62
1
100
AcDbSpline
 70
8
 71
3
 72
8
 73
4
 74
0
 40
0
 40
0
 40
0
 40
0
 40
1
 40
1
 40
1
 40
1
 10
2310.369142
 20
496.877788
 30
0.0
 10
2302.541142
 20
496.877788
 30
0.0
 10
2296.196143
 20
503.222787
 30
0.0
 10
2296.196143
 20
511.050787
 30
0.0
  0
SPLINE
  5
1d2
100
AcDbEntity
  8
W0102_Printing_45X35
 62
1
100
AcDbSpline
 70
8
 71
3
 72
8
 73
4
 74
0
 40
0
 40
0
 40
0
 40
0
 40
1
 40
1
 40
1
 40
1
 10
2296.196143
 20
511.050787
 30
0.0
 10
2296.196143
 20
518.878787
 30
0.0
 10
2302.541142
 20
525.223787
 30
0.0
 10
2310.369142
 20
525.223787
 30
0.0
  0
SPLINE
  5
1d3
100
AcDbEntity
  8
W0102_Printing_45X35
 62
1
100
AcDbSpline
 70
8
 71
3
 72
8
 73
4
 74
0
 40
0
 40
0
 40
0
 40
0
 40
1
 40
1
 40
1
 40
1
 10
2310.369142
 20
525.223787
 30
0.0
 10
2318.197142
 20
525.223787
 30
0.0
 10
2324.542142
 20
518.878787
 30
0.0
 10
2324.542142
 20
511.050787
 30
0.0
  0
LWPOLYLINE
  5
1d4
100
AcDbEntity
  8
W0102_Printing_45X35
 62
1
100
AcDbPolyline
 90
1
 70
1
 10
2324.542142
 20
553.570586
 30
0.0
  0
SPLINE
  5
1d5
100
AcDbEntity
  8
W0102_Printing_45X35
 62
1
100
AcDbSpline
 70
8
 71
3
 72
8
 73
4
 74
0
 40
0
 40
0
 40
0
 40
0
 40
1
 40
1
 40
1
 40
1
 10
2324.542142
 20
468.531188
 30
0.0
 10
2324.542142
 20
460.703188
 30
0.0
 10
2318.197142
 20
454.358189
 30
0.0
 10
2310.369142
 20
454.358189
 30
0.0
  0
SPLINE
  5
1d6
100
AcDbEntity
  8
W0102_Printing_45X35
 62
1
100
AcDbSpline
 70
8
 71
3
 72
8
 73
4
 74
0
 40
0
 40
0
 40
0
 40
0
 40
1
 40
1
 40
1
 40
1
 10
2310.369142
 20
454.358189
 30
0.0
 10
2302.541142
 20
454.358189
 30
0.0
 10
2296.196143
 20
460.703188
 30
0.0
 10
2296.196143
 20
468.531188
 30
0.0
  0
SPLINE
  5
1d7
100
AcDbEntity
  8
W0102_Printing_45X35
 62
1
100
AcDbSpline
 70
8
 71
3
 72
8
 73
4
 74
0
 40
0
 40
0
 40
0
 40
0
 40
1
 40
1
 40
1
 40
1
 10
2296.196143
 20
468.531188
 30
0.0
 10
2296.196143
 20
476.359188
 30
0.0
 10
2302.541142
 20
482.704188
 30
0.0
 10
2310.369142
 20
482.704188
 30
0.0
  0
SPLINE
  5
1d8
100
AcDbEntity
  8
W0102_Printing_45X35
 62
1
100
AcDbSpline
 70
8
 71
3
 72
8
 73
4
 74
0
 40
0
 40
0
 40
0
 40
0
 40
1
 40
1
 40
1
 40
1
 10
2310.369142
 20
482.704188
 30
0.0
 10
2318.197142
 20
482.704188
 30
0.0
 10
2324.542142
 20
476.359188
 30
0.0
 10
2324.542142
 20
468.531188
 30
0.0
  0
LWPOLYLINE
  5
1d9
100
AcDbEntity
  8
W0102_Printing_45X35
 62
1
100
AcDbPolyline
 90
1
 70
1
 10
2324.542142
 20
511.050787
 30
0.0
  0
SPLINE
  5
1da
100
AcDbEntity
  8
W0102_Printing_45X35
 62
1
100
AcDbSpline
 70
8
 71
3
 72
8
 73
4
 74
0
 40
0
 40
0
 40
0
 40
0
 40
1
 40
1
 40
1
 40
1
 10
2324.542142
 20
426.011489
 30
0.0
 10
2324.542142
 20
418.183490
 30
0.0
 10
2318.197142
 20
411.838490
 30
0.0
 10
2310.369142
 20
411.838490
 30
0.0
  0
SPLINE
  5
1db
100
AcDbEntity
  8
W0102_Printing_45X35
 62
1
100
AcDbSpline
 70
8
 71
3
 72
8
 73
4
 74
0
 40
0
 40
0
 40
0
 40
0
 40
1
 40
1
 40
1
 40
1
 10
2310.369142
 20
411.838490
 30
0.0
 10
2302.541142
 20
411.838490
 30
0.0
 10
2296.196143
 20
418.183490
 30
0.0
 10
2296.196143
 20
426.011489
 30
0.0
  0
SPLINE
  5
1dc
100
AcDbEntity
  8
W0102_Printing_45X35
 62
1
100
AcDbSpline
 70
8
 71
3
 72
8
 73
4
 74
0
 40
0
 40
0
 40
0
 40
0
 40
1
 40
1
 40
1
 40
1
 10
2296.196143
 20
426.011489
 30
0.0
 10
2296.196143
 20
433.839489
 30
0.0
 10
2302.541142
 20
440.184489
 30
0.0
 10
2310.369142
 20
440.184489
 30
0.0
  0
SPLINE
  5
1dd
100
AcDbEntity
  8
W0102_Printing_45X35
 62
1
100
AcDbSpline
 70
8
 71
3
 72
8
 73
4
 74
0
 40
0
 40
0
 40
0
 40
0
 40
1
 40
1
 40
1
 40
1
 10
2310.369142
 20
440.184489
 30
0.0
 10
2318.197142
 20
440.184489
 30
0.0
 10
2324.542142
 20
433.839489
 30
0.0
 10
2324.542142
 20
426.011489
 30
0.0
  0
LWPOLYLINE
  5
1de
100
AcDbEntity
  8
W0102_Printing_45X35
 62
1
100
AcDbPolyline
 90
1
 70
1
 10
2324.542142
 20
468.531188
 30
0.0
  0
SPLINE
  5
1df
100
AcDbEntity
  8
W0102_Printing_45X35
 62
1
100
AcDbSpline
 70
8
 71
3
 72
8
 73
4
 74
0
 40
0
 40
0
 40
0
 40
0
 40
1
 40
1
 40
1
 40
1
 10
1162.337471
 20
1318.924867
 30
0.0
 10
1162.337471
 20
1311.096867
 30
0.0
 10
1155.992471
 20
1304.751867
 30
0.0
 10
1148.164471
 20
1304.751867
 30
0.0
  0
SPLINE
  5
1e0
100
AcDbEntity
  8
W0102_Printing_45X35
 62
1
100
AcDbSpline
 70
8
 71
3
 72
8
 73
4
 74
0
 40
0
 40
0
 40
0
 40
0
 40
1
 40
1
 40
1
 40
1
 10
1148.164471
 20
1304.751867
 30
0.0
 10
1140.336471
 20
1304.751867
 30
0.0
 10
1133.991472
 20
1311.096867
 30
0.0
 10
1133.991472
 20
1318.924867
 30
0.0
  0
SPLINE
  5
1e1
100
AcDbEntity
  8
W0102_Printing_45X35
 62
1
100
AcDbSpline
 70
8
 71
3
 72
8
 73
4
 74
0
 40
0
 40
0
 40
0
 40
0
 40
1
 40
1
 40
1
 40
1
 10
1133.991472
 20
1318.924867
 30
0.0
 10
1133.991472
 20
1326.752867
 30
0.0
 10
1140.336471
 20
1333.097867
 30
0.0
 10
1148.164471
 20
1333.097867
 30
0.0
  0
SPLINE
  5
1e2
100
AcDbEntity
  8
W0102_Printing_45X35
 62
1
100
AcDbSpline
 70
8
 71
3
 72
8
 73
4
 74
0
 40
0
 40
0
 40
0
 40
0
 40
1
 40
1
 40
1
 40
1
 10
1148.164471
 20
1333.097867
 30
0.0
 10
1155.992471
 20
1333.097867
 30
0.0
 10
1162.337471
 20
1326.752867
 30
0.0
 10
1162.337471
 20
1318.924867
 30
0.0
  0
LWPOLYLINE
  5
1e3
100
AcDbEntity
  8
W0102_Printing_45X35
 62
1
100
AcDbPolyline
 90
1
 70
1
 10
2324.542142
 20
426.011489
 30
0.0
  0
SPLINE
  5
1e4
100
AcDbEntity
  8
W0102_Printing_45X35
 62
1
100
AcDbSpline
 70
8
 71
3
 72
8
 73
4
 74
0
 40
0
 40
0
 40
0
 40
0
 40
1
 40
1
 40
1
 40
1
 10
1204.857270
 20
1318.924867
 30
0.0
 10
1204.857270
 20
1311.096867
 30
0.0
 10
1198.511270
 20
1304.751867
 30
0.0
 10
1190.684270
 20
1304.751867
 30
0.0
  0
SPLINE
  5
1e5
100
AcDbEntity
  8
W0102_Printing_45X35
 62
1
100
AcDbSpline
 70
8
 71
3
 72
8
 73
4
 74
0
 40
0
 40
0
 40
0
 40
0
 40
1
 40
1
 40
1
 40
1
 10
1190.684270
 20
1304.751867
 30
0.0
 10
1182.856270
 20
1304.751867
 30
0.0
 10
1176.511271
 20
1311.096867
 30
0.0
 10
1176.511271
 20
1318.924867
 30
0.0
  0
SPLINE
  5
1e6
100
AcDbEntity
  8
W0102_Printing_45X35
 62
1
100
AcDbSpline
 70
8
 71
3
 72
8
 73
4
 74
0
 40
0
 40
0
 40
0
 40
0
 40
1
 40
1
 40
1
 40
1
 10
1176.511271
 20
1318.924867
 30
0.0
 10
1176.511271
 20
1326.752867
 30
0.0
 10
1182.856270
 20
1333.097867
 30
0.0
 10
1190.684270
 20
1333.097867
 30
0.0
  0
SPLINE
  5
1e7
100
AcDbEntity
  8
W0102_Printing_45X35
 62
1
100
AcDbSpline
 70
8
 71
3
 72
8
 73
4
 74
0
 40
0
 40
0
 40
0
 40
0
 40
1
 40
1
 40
1
 40
1
 10
1190.684270
 20
1333.097867
 30
0.0
 10
1198.511270
 20
1333.097867
 30
0.0
 10
1204.857270
 20
1326.752867
 30
0.0
 10
1204.857270
 20
1318.924867
 30
0.0
  0
LWPOLYLINE
  5
1e8
100
AcDbEntity
  8
W0102_Printing_45X35
 62
1
100
AcDbPolyline
 90
1
 70
1
 10
1162.337471
 20
1318.924867
 30
0.0
  0
SPLINE
  5
1e9
100
AcDbEntity
  8
W0102_Printing_45X35
 62
1
100
AcDbSpline
 70
8
 71
3
 72
8
 73
4
 74
0
 40
0
 40
0
 40
0
 40
0
 40
1
 40
1
 40
1
 40
1
 10
1247.376969
 20
1318.924867
 30
0.0
 10
1247.376969
 20
1311.096867
 30
0.0
 10
1241.030969
 20
1304.751867
 30
0.0
 10
1233.203969
 20
1304.751867
 30
0.0
  0
SPLINE
  5
1ea
100
AcDbEntity
  8
W0102_Printing_45X35
 62
1
100
AcDbSpline
 70
8
 71
3
 72
8
 73
4
 74
0
 40
0
 40
0
 40
0
 40
0
 40
1
 40
1
 40
1
 40
1
 10
1233.203969
 20
1304.751867
 30
0.0
 10
1225.375969
 20
1304.751867
 30
0.0
 10
1219.030970
 20
1311.096867
 30
0.0
 10
1219.030970
 20
1318.924867
 30
0.0
  0
SPLINE
  5
1eb
100
AcDbEntity
  8
W0102_Printing_45X35
 62
1
100
AcDbSpline
 70
8
 71
3
 72
8
 73
4
 74
0
 40
0
 40
0
 40
0
 40
0
 40
1
 40
1
 40
1
 40
1
 10
1219.030970
 20
1318.924867
 30
0.0
 10
1219.030970
 20
1326.752867
 30
0.0
 10
1225.375969
 20
1333.097867
 30
0.0
 10
1233.203969
 20
1333.097867
 30
0.0
  0
SPLINE
  5
1ec
100
AcDbEntity
  8
W0102_Printing_45X35
 62
1
100
AcDbSpline
 70
8
 71
3
 72
8
 73
4
 74
0
 40
0
 40
0
 40
0
 40
0
 40
1
 40
1
 40
1
 40
1
 10
1233.203969
 20
1333.097867
 30
0.0
 10
1241.030969
 20
1333.097867
 30
0.0
 10
1247.376969
 20
1326.752867
 30
0.0
 10
1247.376969
 20
1318.924867
 30
0.0
  0
LWPOLYLINE
  5
1ed
100
AcDbEntity
  8
W0102_Printing_45X35
 62
1
100
AcDbPolyline
 90
1
 70
1
 10
1204.857270
 20
1318.924867
 30
0.0
  0
SPLINE
  5
1ee
100
AcDbEntity
  8
W0102_Printing_45X35
 62
1
100
AcDbSpline
 70
8
 71
3
 72
8
 73
4
 74
0
 40
0
 40
0
 40
0
 40
0
 40
1
 40
1
 40
1
 40
1
 10
1289.896568
 20
1318.924867
 30
0.0
 10
1289.896568
 20
1311.096867
 30
0.0
 10
1283.550568
 20
1304.751867
 30
0.0
 10
1275.723568
 20
1304.751867
 30
0.0
  0
SPLINE
  5
1ef
100
AcDbEntity
  8
W0102_Printing_45X35
 62
1
100
AcDbSpline
 70
8
 71
3
 72
8
 73
4
 74
0
 40
0
 40
0
 40
0
 40
0
 40
1
 40
1
 40
1
 40
1
 10
1275.723568
 20
1304.751867
 30
0.0
 10
1267.895568
 20
1304.751867
 30
0.0
 10
1261.550568
 20
1311.096867
 30
0.0
 10
1261.550568
 20
1318.924867
 30
0.0
  0
SPLINE
  5
1f0
100
AcDbEntity
  8
W0102_Printing_45X35
 62
1
100
AcDbSpline
 70
8
 71
3
 72
8
 73
4
 74
0
 40
0
 40
0
 40
0
 40
0
 40
1
 40
1
 40
1
 40
1
 10
1261.550568
 20
1318.924867
 30
0.0
 10
1261.550568
 20
1326.752867
 30
0.0
 10
1267.895568
 20
1333.097867
 30
0.0
 10
1275.723568
 20
1333.097867
 30
0.0
  0
SPLINE
  5
1f1
100
AcDbEntity
  8
W0102_Printing_45X35
 62
1
100
AcDbSpline
 70
8
 71
3
 72
8
 73
4
 74
0
 40
0
 40
0
 40
0
 40
0
 40
1
 40
1
 40
1
 40
1
 10
1275.723568
 20
1333.097867
 30
0.0
 10
1283.550568
 20
1333.097867
 30
0.0
 10
1289.896568
 20
1326.752867
 30
0.0
 10
1289.896568
 20
1318.924867
 30
0.0
  0
LWPOLYLINE
  5
1f2
100
AcDbEntity
  8
W0102_Printing_45X35
 62
1
100
AcDbPolyline
 90
1
 70
1
 10
1247.376969
 20
1318.924867
 30
0.0
  0
SPLINE
  5
1f3
100
AcDbEntity
  8
W0102_Printing_45X35
 62
1
100
AcDbSpline
 70
8
 71
3
 72
8
 73
4
 74
0
 40
0
 40
0
 40
0
 40
0
 40
1
 40
1
 40
1
 40
1
 10
1332.416267
 20
1318.924867
 30
0.0
 10
1332.416267
 20
1311.096867
 30
0.0
 10
1326.071267
 20
1304.751867
 30
0.0
 10
1318.243267
 20
1304.751867
 30
0.0
  0
SPLINE
  5
1f4
100
AcDbEntity
  8
W0102_Printing_45X35
 62
1
100
AcDbSpline
 70
8
 71
3
 72
8
 73
4
 74
0
 40
0
 40
0
 40
0
 40
0
 40
1
 40
1
 40
1
 40
1
 10
1318.243267
 20
1304.751867
 30
0.0
 10
1310.415267
 20
1304.751867
 30
0.0
 10
1304.070267
 20
1311.096867
 30
0.0
 10
1304.070267
 20
1318.924867
 30
0.0
  0
SPLINE
  5
1f5
100
AcDbEntity
  8
W0102_Printing_45X35
 62
1
100
AcDbSpline
 70
8
 71
3
 72
8
 73
4
 74
0
 40
0
 40
0
 40
0
 40
0
 40
1
 40
1
 40
1
 40
1
 10
1304.070267
 20
1318.924867
 30
0.0
 10
1304.070267
 20
1326.752867
 30
0.0
 10
1310.415267
 20
1333.097867
 30
0.0
 10
1318.243267
 20
1333.097867
 30
0.0
  0
SPLINE
  5
1f6
100
AcDbEntity
  8
W0102_Printing_45X35
 62
1
100
AcDbSpline
 70
8
 71
3
 72
8
 73
4
 74
0
 40
0
 40
0
 40
0
 40
0
 40
1
 40
1
 40
1
 40
1
 10
1318.243267
 20
1333.097867
 30
0.0
 10
1326.071267
 20
1333.097867
 30
0.0
 10
1332.416267
 20
1326.752867
 30
0.0
 10
1332.416267
 20
1318.924867
 30
0.0
  0
LWPOLYLINE
  5
1f7
100
AcDbEntity
  8
W0102_Printing_45X35
 62
1
100
AcDbPolyline
 90
1
 70
1
 10
1289.896568
 20
1318.924867
 30
0.0
  0
SPLINE
  5
1f8
100
AcDbEntity
  8
W0102_Printing_45X35
 62
1
100
AcDbSpline
 70
8
 71
3
 72
8
 73
4
 74
0
 40
0
 40
0
 40
0
 40
0
 40
1
 40
1
 40
1
 40
1
 10
1374.935966
 20
1318.924867
 30
0.0
 10
1374.935966
 20
1311.096867
 30
0.0
 10
1368.589966
 20
1304.751867
 30
0.0
 10
1360.762966
 20
1304.751867
 30
0.0
  0
SPLINE
  5
1f9
100
AcDbEntity
  8
W0102_Printing_45X35
 62
1
100
AcDbSpline
 70
8
 71
3
 72
8
 73
4
 74
0
 40
0
 40
0
 40
0
 40
0
 40
1
 40
1
 40
1
 40
1
 10
1360.762966
 20
1304.751867
 30
0.0
 10
1352.934966
 20
1304.751867
 30
0.0
 10
1346.589966
 20
1311.096867
 30
0.0
 10
1346.589966
 20
1318.924867
 30
0.0
  0
SPLINE
  5
1fa
100
AcDbEntity
  8
W0102_Printing_45X35
 62
1
100
AcDbSpline
 70
8
 71
3
 72
8
 73
4
 74
0
 40
0
 40
0
 40
0
 40
0
 40
1
 40
1
 40
1
 40
1
 10
1346.589966
 20
1318.924867
 30
0.0
 10
1346.589966
 20
1326.752867
 30
0.0
 10
1352.934966
 20
1333.097867
 30
0.0
 10
1360.762966
 20
1333.097867
 30
0.0
  0
SPLINE
  5
1fb
100
AcDbEntity
  8
W0102_Printing_45X35
 62
1
100
AcDbSpline
 70
8
 71
3
 72
8
 73
4
 74
0
 40
0
 40
0
 40
0
 40
0
 40
1
 40
1
 40
1
 40
1
 10
1360.762966
 20
1333.097867
 30
0.0
 10
1368.589966
 20
1333.097867
 30
0.0
 10
1374.935966
 20
1326.752867
 30
0.0
 10
1374.935966
 20
1318.924867
 30
0.0
  0
LWPOLYLINE
  5
1fc
100
AcDbEntity
  8
W0102_Printing_45X35
 62
1
100
AcDbPolyline
 90
1
 70
1
 10
1332.416267
 20
1318.924867
 30
0.0
  0
SPLINE
  5
1fd
100
AcDbEntity
  8
W0102_Printing_45X35
 62
1
100
AcDbSpline
 70
8
 71
3
 72
8
 73
4
 74
0
 40
0
 40
0
 40
0
 40
0
 40
1
 40
1
 40
1
 40
1
 10
1417.455665
 20
1318.924867
 30
0.0
 10
1417.455665
 20
1311.096867
 30
0.0
 10
1411.109665
 20
1304.751867
 30
0.0
 10
1403.282665
 20
1304.751867
 30
0.0
  0
SPLINE
  5
1fe
100
AcDbEntity
  8
W0102_Printing_45X35
 62
1
100
AcDbSpline
 70
8
 71
3
 72
8
 73
4
 74
0
 40
0
 40
0
 40
0
 40
0
 40
1
 40
1
 40
1
 40
1
 10
1403.282665
 20
1304.751867
 30
0.0
 10
1395.454665
 20
1304.751867
 30
0.0
 10
1389.109665
 20
1311.096867
 30
0.0
 10
1389.109665
 20
1318.924867
 30
0.0
  0
SPLINE
  5
1ff
100
AcDbEntity
  8
W0102_Printing_45X35
 62
1
100
AcDbSpline
 70
8
 71
3
 72
8
 73
4
 74
0
 40
0
 40
0
 40
0
 40
0
 40
1
 40
1
 40
1
 40
1
 10
1389.109665
 20
1318.924867
 30
0.0
 10
1389.109665
 20
1326.752867
 30
0.0
 10
1395.454665
 20
1333.097867
 30
0.0
 10
1403.282665
 20
1333.097867
 30
0.0
  0
SPLINE
  5
200
100
AcDbEntity
  8
W0102_Printing_45X35
 62
1
100
AcDbSpline
 70
8
 71
3
 72
8
 73
4
 74
0
 40
0
 40
0
 40
0
 40
0
 40
1
 40
1
 40
1
 40
1
 10
1403.282665
 20
1333.097867
 30
0.0
 10
1411.109665
 20
1333.097867
 30
0.0
 10
1417.455665
 20
1326.752867
 30
0.0
 10
1417.455665
 20
1318.924867
 30
0.0
  0
LWPOLYLINE
  5
201
100
AcDbEntity
  8
W0102_Printing_45X35
 62
1
100
AcDbPolyline
 90
1
 70
1
 10
1374.935966
 20
1318.924867
 30
0.0
  0
SPLINE
  5
202
100
AcDbEntity
  8
W0102_Printing_45X35
 62
1
100
AcDbSpline
 70
8
 71
3
 72
8
 73
4
 74
0
 40
0
 40
0
 40
0
 40
0
 40
1
 40
1
 40
1
 40
1
 10
1459.975264
 20
1318.924867
 30
0.0
 10
1459.975264
 20
1311.096867
 30
0.0
 10
1453.629264
 20
1304.751867
 30
0.0
 10
1445.802264
 20
1304.751867
 30
0.0
  0
SPLINE
  5
203
100
AcDbEntity
  8
W0102_Printing_45X35
 62
1
100
AcDbSpline
 70
8
 71
3
 72
8
 73
4
 74
0
 40
0
 40
0
 40
0
 40
0
 40
1
 40
1
 40
1
 40
1
 10
1445.802264
 20
1304.751867
 30
0.0
 10
1437.974264
 20
1304.751867
 30
0.0
 10
1431.629264
 20
1311.096867
 30
0.0
 10
1431.629264
 20
1318.924867
 30
0.0
  0
SPLINE
  5
204
100
AcDbEntity
  8
W0102_Printing_45X35
 62
1
100
AcDbSpline
 70
8
 71
3
 72
8
 73
4
 74
0
 40
0
 40
0
 40
0
 40
0
 40
1
 40
1
 40
1
 40
1
 10
1431.629264
 20
1318.924867
 30
0.0
 10
1431.629264
 20
1326.752867
 30
0.0
 10
1437.974264
 20
1333.097867
 30
0.0
 10
1445.802264
 20
1333.097867
 30
0.0
  0
SPLINE
  5
205
100
AcDbEntity
  8
W0102_Printing_45X35
 62
1
100
AcDbSpline
 70
8
 71
3
 72
8
 73
4
 74
0
 40
0
 40
0
 40
0
 40
0
 40
1
 40
1
 40
1
 40
1
 10
1445.802264
 20
1333.097867
 30
0.0
 10
1453.629264
 20
1333.097867
 30
0.0
 10
1459.975264
 20
1326.752867
 30
0.0
 10
1459.975264
 20
1318.924867
 30
0.0
  0
LWPOLYLINE
  5
206
100
AcDbEntity
  8
W0102_Printing_45X35
 62
1
100
AcDbPolyline
 90
1
 70
1
 10
1417.455665
 20
1318.924867
 30
0.0
  0
SPLINE
  5
207
100
AcDbEntity
  8
W0102_Printing_45X35
 62
1
100
AcDbSpline
 70
8
 71
3
 72
8
 73
4
 74
0
 40
0
 40
0
 40
0
 40
0
 40
1
 40
1
 40
1
 40
1
 10
1502.494962
 20
1318.924867
 30
0.0
 10
1502.494962
 20
1311.096867
 30
0.0
 10
1496.149963
 20
1304.751867
 30
0.0
 10
1488.321963
 20
1304.751867
 30
0.0
  0
SPLINE
  5
208
100
AcDbEntity
  8
W0102_Printing_45X35
 62
1
100
AcDbSpline
 70
8
 71
3
 72
8
 73
4
 74
0
 40
0
 40
0
 40
0
 40
0
 40
1
 40
1
 40
1
 40
1
 10
1488.321963
 20
1304.751867
 30
0.0
 10
1480.493963
 20
1304.751867
 30
0.0
 10
1474.148963
 20
1311.096867
 30
0.0
 10
1474.148963
 20
1318.924867
 30
0.0
  0
SPLINE
  5
209
100
AcDbEntity
  8
W0102_Printing_45X35
 62
1
100
AcDbSpline
 70
8
 71
3
 72
8
 73
4
 74
0
 40
0
 40
0
 40
0
 40
0
 40
1
 40
1
 40
1
 40
1
 10
1474.148963
 20
1318.924867
 30
0.0
 10
1474.148963
 20
1326.752867
 30
0.0
 10
1480.493963
 20
1333.097867
 30
0.0
 10
1488.321963
 20
1333.097867
 30
0.0
  0
SPLINE
  5
20a
100
AcDbEntity
  8
W0102_Printing_45X35
 62
1
100
AcDbSpline
 70
8
 71
3
 72
8
 73
4
 74
0
 40
0
 40
0
 40
0
 40
0
 40
1
 40
1
 40
1
 40
1
 10
1488.321963
 20
1333.097867
 30
0.0
 10
1496.149963
 20
1333.097867
 30
0.0
 10
1502.494962
 20
1326.752867
 30
0.0
 10
1502.494962
 20
1318.924867
 30
0.0
  0
LWPOLYLINE
  5
20b
100
AcDbEntity
  8
W0102_Printing_45X35
 62
1
100
AcDbPolyline
 90
1
 70
1
 10
1459.975264
 20
1318.924867
 30
0.0
  0
SPLINE
  5
20c
100
AcDbEntity
  8
W0102_Printing_45X35
 62
1
100
AcDbSpline
 70
8
 71
3
 72
8
 73
4
 74
0
 40
0
 40
0
 40
0
 40
0
 40
1
 40
1
 40
1
 40
1
 10
1545.014761
 20
1318.924867
 30
0.0
 10
1545.014761
 20
1311.096867
 30
0.0
 10
1538.668762
 20
1304.751867
 30
0.0
 10
1530.841762
 20
1304.751867
 30
0.0
  0
SPLINE
  5
20d
100
AcDbEntity
  8
W0102_Printing_45X35
 62
1
100
AcDbSpline
 70
8
 71
3
 72
8
 73
4
 74
0
 40
0
 40
0
 40
0
 40
0
 40
1
 40
1
 40
1
 40
1
 10
1530.841762
 20
1304.751867
 30
0.0
 10
1523.013762
 20
1304.751867
 30
0.0
 10
1516.668762
 20
1311.096867
 30
0.0
 10
1516.668762
 20
1318.924867
 30
0.0
  0
SPLINE
  5
20e
100
AcDbEntity
  8
W0102_Printing_45X35
 62
1
100
AcDbSpline
 70
8
 71
3
 72
8
 73
4
 74
0
 40
0
 40
0
 40
0
 40
0
 40
1
 40
1
 40
1
 40
1
 10
1516.668762
 20
1318.924867
 30
0.0
 10
1516.668762
 20
1326.752867
 30
0.0
 10
1523.013762
 20
1333.097867
 30
0.0
 10
1530.841762
 20
1333.097867
 30
0.0
  0
SPLINE
  5
20f
100
AcDbEntity
  8
W0102_Printing_45X35
 62
1
100
AcDbSpline
 70
8
 71
3
 72
8
 73
4
 74
0
 40
0
 40
0
 40
0
 40
0
 40
1
 40
1
 40
1
 40
1
 10
1530.841762
 20
1333.097867
 30
0.0
 10
1538.668762
 20
1333.097867
 30
0.0
 10
1545.014761
 20
1326.752867
 30
0.0
 10
1545.014761
 20
1318.924867
 30
0.0
  0
LWPOLYLINE
  5
210
100
AcDbEntity
  8
W0102_Printing_45X35
 62
1
100
AcDbPolyline
 90
1
 70
1
 10
1502.494962
 20
1318.924867
 30
0.0
  0
SPLINE
  5
211
100
AcDbEntity
  8
W0102_Printing_45X35
 62
1
100
AcDbSpline
 70
8
 71
3
 72
8
 73
4
 74
0
 40
0
 40
0
 40
0
 40
0
 40
1
 40
1
 40
1
 40
1
 10
1587.534360
 20
1318.924867
 30
0.0
 10
1587.534360
 20
1311.096867
 30
0.0
 10
1581.188360
 20
1304.751867
 30
0.0
 10
1573.361361
 20
1304.751867
 30
0.0
  0
SPLINE
  5
212
100
AcDbEntity
  8
W0102_Printing_45X35
 62
1
100
AcDbSpline
 70
8
 71
3
 72
8
 73
4
 74
0
 40
0
 40
0
 40
0
 40
0
 40
1
 40
1
 40
1
 40
1
 10
1573.361361
 20
1304.751867
 30
0.0
 10
1565.533361
 20
1304.751867
 30
0.0
 10
1559.188361
 20
1311.096867
 30
0.0
 10
1559.188361
 20
1318.924867
 30
0.0
  0
SPLINE
  5
213
100
AcDbEntity
  8
W0102_Printing_45X35
 62
1
100
AcDbSpline
 70
8
 71
3
 72
8
 73
4
 74
0
 40
0
 40
0
 40
0
 40
0
 40
1
 40
1
 40
1
 40
1
 10
1559.188361
 20
1318.924867
 30
0.0
 10
1559.188361
 20
1326.752867
 30
0.0
 10
1565.533361
 20
1333.097867
 30
0.0
 10
1573.361361
 20
1333.097867
 30
0.0
  0
SPLINE
  5
214
100
AcDbEntity
  8
W0102_Printing_45X35
 62
1
100
AcDbSpline
 70
8
 71
3
 72
8
 73
4
 74
0
 40
0
 40
0
 40
0
 40
0
 40
1
 40
1
 40
1
 40
1
 10
1573.361361
 20
1333.097867
 30
0.0
 10
1581.188360
 20
1333.097867
 30
0.0
 10
1587.534360
 20
1326.752867
 30
0.0
 10
1587.534360
 20
1318.924867
 30
0.0
  0
LWPOLYLINE
  5
215
100
AcDbEntity
  8
W0102_Printing_45X35
 62
1
100
AcDbPolyline
 90
1
 70
1
 10
1545.014761
 20
1318.924867
 30
0.0
  0
SPLINE
  5
216
100
AcDbEntity
  8
W0102_Printing_45X35
 62
1
100
AcDbSpline
 70
8
 71
3
 72
8
 73
4
 74
0
 40
0
 40
0
 40
0
 40
0
 40
1
 40
1
 40
1
 40
1
 10
1630.054059
 20
1318.924867
 30
0.0
 10
1630.054059
 20
1311.096867
 30
0.0
 10
1623.708059
 20
1304.751867
 30
0.0
 10
1615.881060
 20
1304.751867
 30
0.0
  0
SPLINE
  5
217
100
AcDbEntity
  8
W0102_Printing_45X35
 62
1
100
AcDbSpline
 70
8
 71
3
 72
8
 73
4
 74
0
 40
0
 40
0
 40
0
 40
0
 40
1
 40
1
 40
1
 40
1
 10
1615.881060
 20
1304.751867
 30
0.0
 10
1608.053060
 20
1304.751867
 30
0.0
 10
1601.708060
 20
1311.096867
 30
0.0
 10
1601.708060
 20
1318.924867
 30
0.0
  0
SPLINE
  5
218
100
AcDbEntity
  8
W0102_Printing_45X35
 62
1
100
AcDbSpline
 70
8
 71
3
 72
8
 73
4
 74
0
 40
0
 40
0
 40
0
 40
0
 40
1
 40
1
 40
1
 40
1
 10
1601.708060
 20
1318.924867
 30
0.0
 10
1601.708060
 20
1326.752867
 30
0.0
 10
1608.053060
 20
1333.097867
 30
0.0
 10
1615.881060
 20
1333.097867
 30
0.0
  0
SPLINE
  5
219
100
AcDbEntity
  8
W0102_Printing_45X35
 62
1
100
AcDbSpline
 70
8
 71
3
 72
8
 73
4
 74
0
 40
0
 40
0
 40
0
 40
0
 40
1
 40
1
 40
1
 40
1
 10
1615.881060
 20
1333.097867
 30
0.0
 10
1623.708059
 20
1333.097867
 30
0.0
 10
1630.054059
 20
1326.752867
 30
0.0
 10
1630.054059
 20
1318.924867
 30
0.0
  0
LWPOLYLINE
  5
21a
100
AcDbEntity
  8
W0102_Printing_45X35
 62
1
100
AcDbPolyline
 90
1
 70
1
 10
1587.534360
 20
1318.924867
 30
0.0
  0
SPLINE
  5
21b
100
AcDbEntity
  8
W0102_Printing_45X35
 62
1
100
AcDbSpline
 70
8
 71
3
 72
8
 73
4
 74
0
 40
0
 40
0
 40
0
 40
0
 40
1
 40
1
 40
1
 40
1
 10
1672.573658
 20
1318.924867
 30
0.0
 10
1672.573658
 20
1311.096867
 30
0.0
 10
1666.228658
 20
1304.751867
 30
0.0
 10
1658.400659
 20
1304.751867
 30
0.0
  0
SPLINE
  5
21c
100
AcDbEntity
  8
W0102_Printing_45X35
 62
1
100
AcDbSpline
 70
8
 71
3
 72
8
 73
4
 74
0
 40
0
 40
0
 40
0
 40
0
 40
1
 40
1
 40
1
 40
1
 10
1658.400659
 20
1304.751867
 30
0.0
 10
1650.572659
 20
1304.751867
 30
0.0
 10
1644.227659
 20
1311.096867
 30
0.0
 10
1644.227659
 20
1318.924867
 30
0.0
  0
SPLINE
  5
21d
100
AcDbEntity
  8
W0102_Printing_45X35
 62
1
100
AcDbSpline
 70
8
 71
3
 72
8
 73
4
 74
0
 40
0
 40
0
 40
0
 40
0
 40
1
 40
1
 40
1
 40
1
 10
1644.227659
 20
1318.924867
 30
0.0
 10
1644.227659
 20
1326.752867
 30
0.0
 10
1650.572659
 20
1333.097867
 30
0.0
 10
1658.400659
 20
1333.097867
 30
0.0
  0
SPLINE
  5
21e
100
AcDbEntity
  8
W0102_Printing_45X35
 62
1
100
AcDbSpline
 70
8
 71
3
 72
8
 73
4
 74
0
 40
0
 40
0
 40
0
 40
0
 40
1
 40
1
 40
1
 40
1
 10
1658.400659
 20
1333.097867
 30
0.0
 10
1666.228658
 20
1333.097867
 30
0.0
 10
1672.573658
 20
1326.752867
 30
0.0
 10
1672.573658
 20
1318.924867
 30
0.0
  0
LWPOLYLINE
  5
21f
100
AcDbEntity
  8
W0102_Printing_45X35
 62
1
100
AcDbPolyline
 90
1
 70
1
 10
1630.054059
 20
1318.924867
 30
0.0
  0
SPLINE
  5
220
100
AcDbEntity
  8
W0102_Printing_45X35
 62
1
100
AcDbSpline
 70
8
 71
3
 72
8
 73
4
 74
0
 40
0
 40
0
 40
0
 40
0
 40
1
 40
1
 40
1
 40
1
 10
1715.093457
 20
1318.924867
 30
0.0
 10
1715.093457
 20
1311.096867
 30
0.0
 10
1708.747457
 20
1304.751867
 30
0.0
 10
1700.920457
 20
1304.751867
 30
0.0
  0
SPLINE
  5
221
100
AcDbEntity
  8
W0102_Printing_45X35
 62
1
100
AcDbSpline
 70
8
 71
3
 72
8
 73
4
 74
0
 40
0
 40
0
 40
0
 40
0
 40
1
 40
1
 40
1
 40
1
 10
1700.920457
 20
1304.751867
 30
0.0
 10
1693.092458
 20
1304.751867
 30
0.0
 10
1686.747458
 20
1311.096867
 30
0.0
 10
1686.747458
 20
1318.924867
 30
0.0
  0
SPLINE
  5
222
100
AcDbEntity
  8
W0102_Printing_45X35
 62
1
100
AcDbSpline
 70
8
 71
3
 72
8
 73
4
 74
0
 40
0
 40
0
 40
0
 40
0
 40
1
 40
1
 40
1
 40
1
 10
1686.747458
 20
1318.924867
 30
0.0
 10
1686.747458
 20
1326.752867
 30
0.0
 10
1693.092458
 20
1333.097867
 30
0.0
 10
1700.920457
 20
1333.097867
 30
0.0
  0
SPLINE
  5
223
100
AcDbEntity
  8
W0102_Printing_45X35
 62
1
100
AcDbSpline
 70
8
 71
3
 72
8
 73
4
 74
0
 40
0
 40
0
 40
0
 40
0
 40
1
 40
1
 40
1
 40
1
 10
1700.920457
 20
1333.097867
 30
0.0
 10
1708.747457
 20
1333.097867
 30
0.0
 10
1715.093457
 20
1326.752867
 30
0.0
 10
1715.093457
 20
1318.924867
 30
0.0
  0
LWPOLYLINE
  5
224
100
AcDbEntity
  8
W0102_Printing_45X35
 62
1
100
AcDbPolyline
 90
1
 70
1
 10
1672.573658
 20
1318.924867
 30
0.0
  0
SPLINE
  5
225
100
AcDbEntity
  8
W0102_Printing_45X35
 62
1
100
AcDbSpline
 70
8
 71
3
 72
8
 73
4
 74
0
 40
0
 40
0
 40
0
 40
0
 40
1
 40
1
 40
1
 40
1
 10
1757.613156
 20
1318.924867
 30
0.0
 10
1757.613156
 20
1311.096867
 30
0.0
 10
1751.267156
 20
1304.751867
 30
0.0
 10
1743.440156
 20
1304.751867
 30
0.0
  0
SPLINE
  5
226
100
AcDbEntity
  8
W0102_Printing_45X35
 62
1
100
AcDbSpline
 70
8
 71
3
 72
8
 73
4
 74
0
 40
0
 40
0
 40
0
 40
0
 40
1
 40
1
 40
1
 40
1
 10
1743.440156
 20
1304.751867
 30
0.0
 10
1735.612157
 20
1304.751867
 30
0.0
 10
1729.267157
 20
1311.096867
 30
0.0
 10
1729.267157
 20
1318.924867
 30
0.0
  0
SPLINE
  5
227
100
AcDbEntity
  8
W0102_Printing_45X35
 62
1
100
AcDbSpline
 70
8
 71
3
 72
8
 73
4
 74
0
 40
0
 40
0
 40
0
 40
0
 40
1
 40
1
 40
1
 40
1
 10
1729.267157
 20
1318.924867
 30
0.0
 10
1729.267157
 20
1326.752867
 30
0.0
 10
1735.612157
 20
1333.097867
 30
0.0
 10
1743.440156
 20
1333.097867
 30
0.0
  0
SPLINE
  5
228
100
AcDbEntity
  8
W0102_Printing_45X35
 62
1
100
AcDbSpline
 70
8
 71
3
 72
8
 73
4
 74
0
 40
0
 40
0
 40
0
 40
0
 40
1
 40
1
 40
1
 40
1
 10
1743.440156
 20
1333.097867
 30
0.0
 10
1751.267156
 20
1333.097867
 30
0.0
 10
1757.613156
 20
1326.752867
 30
0.0
 10
1757.613156
 20
1318.924867
 30
0.0
  0
LWPOLYLINE
  5
229
100
AcDbEntity
  8
W0102_Printing_45X35
 62
1
100
AcDbPolyline
 90
1
 70
1
 10
1715.093457
 20
1318.924867
 30
0.0
  0
SPLINE
  5
22a
100
AcDbEntity
  8
W0102_Printing_45X35
 62
1
100
AcDbSpline
 70
8
 71
3
 72
8
 73
4
 74
0
 40
0
 40
0
 40
0
 40
0
 40
1
 40
1
 40
1
 40
1
 10
1800.132755
 20
1318.924867
 30
0.0
 10
1800.132755
 20
1311.096867
 30
0.0
 10
1793.786755
 20
1304.751867
 30
0.0
 10
1785.959755
 20
1304.751867
 30
0.0
  0
SPLINE
  5
22b
100
AcDbEntity
  8
W0102_Printing_45X35
 62
1
100
AcDbSpline
 70
8
 71
3
 72
8
 73
4
 74
0
 40
0
 40
0
 40
0
 40
0
 40
1
 40
1
 40
1
 40
1
 10
1785.959755
 20
1304.751867
 30
0.0
 10
1778.131756
 20
1304.751867
 30
0.0
 10
1771.786756
 20
1311.096867
 30
0.0
 10
1771.786756
 20
1318.924867
 30
0.0
  0
SPLINE
  5
22c
100
AcDbEntity
  8
W0102_Printing_45X35
 62
1
100
AcDbSpline
 70
8
 71
3
 72
8
 73
4
 74
0
 40
0
 40
0
 40
0
 40
0
 40
1
 40
1
 40
1
 40
1
 10
1771.786756
 20
1318.924867
 30
0.0
 10
1771.786756
 20
1326.752867
 30
0.0
 10
1778.131756
 20
1333.097867
 30
0.0
 10
1785.959755
 20
1333.097867
 30
0.0
  0
SPLINE
  5
22d
100
AcDbEntity
  8
W0102_Printing_45X35
 62
1
100
AcDbSpline
 70
8
 71
3
 72
8
 73
4
 74
0
 40
0
 40
0
 40
0
 40
0
 40
1
 40
1
 40
1
 40
1
 10
1785.959755
 20
1333.097867
 30
0.0
 10
1793.786755
 20
1333.097867
 30
0.0
 10
1800.132755
 20
1326.752867
 30
0.0
 10
1800.132755
 20
1318.924867
 30
0.0
  0
LWPOLYLINE
  5
22e
100
AcDbEntity
  8
W0102_Printing_45X35
 62
1
100
AcDbPolyline
 90
1
 70
1
 10
1757.613156
 20
1318.924867
 30
0.0
  0
SPLINE
  5
22f
100
AcDbEntity
  8
W0102_Printing_45X35
 62
1
100
AcDbSpline
 70
8
 71
3
 72
8
 73
4
 74
0
 40
0
 40
0
 40
0
 40
0
 40
1
 40
1
 40
1
 40
1
 10
1842.652454
 20
1318.924867
 30
0.0
 10
1842.652454
 20
1311.096867
 30
0.0
 10
1836.307454
 20
1304.751867
 30
0.0
 10
1828.479454
 20
1304.751867
 30
0.0
  0
SPLINE
  5
230
100
AcDbEntity
  8
W0102_Printing_45X35
 62
1
100
AcDbSpline
 70
8
 71
3
 72
8
 73
4
 74
0
 40
0
 40
0
 40
0
 40
0
 40
1
 40
1
 40
1
 40
1
 10
1828.479454
 20
1304.751867
 30
0.0
 10
1820.651454
 20
1304.751867
 30
0.0
 10
1814.306455
 20
1311.096867
 30
0.0
 10
1814.306455
 20
1318.924867
 30
0.0
  0
SPLINE
  5
231
100
AcDbEntity
  8
W0102_Printing_45X35
 62
1
100
AcDbSpline
 70
8
 71
3
 72
8
 73
4
 74
0
 40
0
 40
0
 40
0
 40
0
 40
1
 40
1
 40
1
 40
1
 10
1814.306455
 20
1318.924867
 30
0.0
 10
1814.306455
 20
1326.752867
 30
0.0
 10
1820.651454
 20
1333.097867
 30
0.0
 10
1828.479454
 20
1333.097867
 30
0.0
  0
SPLINE
  5
232
100
AcDbEntity
  8
W0102_Printing_45X35
 62
1
100
AcDbSpline
 70
8
 71
3
 72
8
 73
4
 74
0
 40
0
 40
0
 40
0
 40
0
 40
1
 40
1
 40
1
 40
1
 10
1828.479454
 20
1333.097867
 30
0.0
 10
1836.307454
 20
1333.097867
 30
0.0
 10
1842.652454
 20
1326.752867
 30
0.0
 10
1842.652454
 20
1318.924867
 30
0.0
  0
LWPOLYLINE
  5
233
100
AcDbEntity
  8
W0102_Printing_45X35
 62
1
100
AcDbPolyline
 90
1
 70
1
 10
1800.132755
 20
1318.924867
 30
0.0
  0
SPLINE
  5
234
100
AcDbEntity
  8
W0102_Printing_45X35
 62
1
100
AcDbSpline
 70
8
 71
3
 72
8
 73
4
 74
0
 40
0
 40
0
 40
0
 40
0
 40
1
 40
1
 40
1
 40
1
 10
1885.172153
 20
1318.924867
 30
0.0
 10
1885.172153
 20
1311.096867
 30
0.0
 10
1878.826153
 20
1304.751867
 30
0.0
 10
1870.999153
 20
1304.751867
 30
0.0
  0
SPLINE
  5
235
100
AcDbEntity
  8
W0102_Printing_45X35
 62
1
100
AcDbSpline
 70
8
 71
3
 72
8
 73
4
 74
0
 40
0
 40
0
 40
0
 40
0
 40
1
 40
1
 40
1
 40
1
 10
1870.999153
 20
1304.751867
 30
0.0
 10
1863.171153
 20
1304.751867
 30
0.0
 10
1856.826154
 20
1311.096867
 30
0.0
 10
1856.826154
 20
1318.924867
 30
0.0
  0
SPLINE
  5
236
100
AcDbEntity
  8
W0102_Printing_45X35
 62
1
100
AcDbSpline
 70
8
 71
3
 72
8
 73
4
 74
0
 40
0
 40
0
 40
0
 40
0
 40
1
 40
1
 40
1
 40
1
 10
1856.826154
 20
1318.924867
 30
0.0
 10
1856.826154
 20
1326.752867
 30
0.0
 10
1863.171153
 20
1333.097867
 30
0.0
 10
1870.999153
 20
1333.097867
 30
0.0
  0
SPLINE
  5
237
100
AcDbEntity
  8
W0102_Printing_45X35
 62
1
100
AcDbSpline
 70
8
 71
3
 72
8
 73
4
 74
0
 40
0
 40
0
 40
0
 40
0
 40
1
 40
1
 40
1
 40
1
 10
1870.999153
 20
1333.097867
 30
0.0
 10
1878.826153
 20
1333.097867
 30
0.0
 10
1885.172153
 20
1326.752867
 30
0.0
 10
1885.172153
 20
1318.924867
 30
0.0
  0
LWPOLYLINE
  5
238
100
AcDbEntity
  8
W0102_Printing_45X35
 62
1
100
AcDbPolyline
 90
1
 70
1
 10
1842.652454
 20
1318.924867
 30
0.0
  0
SPLINE
  5
239
100
AcDbEntity
  8
W0102_Printing_45X35
 62
1
100
AcDbSpline
 70
8
 71
3
 72
8
 73
4
 74
0
 40
0
 40
0
 40
0
 40
0
 40
1
 40
1
 40
1
 40
1
 10
1927.691852
 20
1318.924867
 30
0.0
 10
1927.691852
 20
1311.096867
 30
0.0
 10
1921.345852
 20
1304.751867
 30
0.0
 10
1913.518852
 20
1304.751867
 30
0.0
  0
SPLINE
  5
23a
100
AcDbEntity
  8
W0102_Printing_45X35
 62
1
100
AcDbSpline
 70
8
 71
3
 72
8
 73
4
 74
0
 40
0
 40
0
 40
0
 40
0
 40
1
 40
1
 40
1
 40
1
 10
1913.518852
 20
1304.751867
 30
0.0
 10
1905.690852
 20
1304.751867
 30
0.0
 10
1899.345853
 20
1311.096867
 30
0.0
 10
1899.345853
 20
1318.924867
 30
0.0
  0
SPLINE
  5
23b
100
AcDbEntity
  8
W0102_Printing_45X35
 62
1
100
AcDbSpline
 70
8
 71
3
 72
8
 73
4
 74
0
 40
0
 40
0
 40
0
 40
0
 40
1
 40
1
 40
1
 40
1
 10
1899.345853
 20
1318.924867
 30
0.0
 10
1899.345853
 20
1326.752867
 30
0.0
 10
1905.690852
 20
1333.097867
 30
0.0
 10
1913.518852
 20
1333.097867
 30
0.0
  0
SPLINE
  5
23c
100
AcDbEntity
  8
W0102_Printing_45X35
 62
1
100
AcDbSpline
 70
8
 71
3
 72
8
 73
4
 74
0
 40
0
 40
0
 40
0
 40
0
 40
1
 40
1
 40
1
 40
1
 10
1913.518852
 20
1333.097867
 30
0.0
 10
1921.345852
 20
1333.097867
 30
0.0
 10
1927.691852
 20
1326.752867
 30
0.0
 10
1927.691852
 20
1318.924867
 30
0.0
  0
LWPOLYLINE
  5
23d
100
AcDbEntity
  8
W0102_Printing_45X35
 62
1
100
AcDbPolyline
 90
1
 70
1
 10
1885.172153
 20
1318.924867
 30
0.0
  0
SPLINE
  5
23e
100
AcDbEntity
  8
W0102_Printing_45X35
 62
1
100
AcDbSpline
 70
8
 71
3
 72
8
 73
4
 74
0
 40
0
 40
0
 40
0
 40
0
 40
1
 40
1
 40
1
 40
1
 10
1970.211451
 20
1318.924867
 30
0.0
 10
1970.211451
 20
1311.096867
 30
0.0
 10
1963.865451
 20
1304.751867
 30
0.0
 10
1956.038451
 20
1304.751867
 30
0.0
  0
SPLINE
  5
23f
100
AcDbEntity
  8
W0102_Printing_45X35
 62
1
100
AcDbSpline
 70
8
 71
3
 72
8
 73
4
 74
0
 40
0
 40
0
 40
0
 40
0
 40
1
 40
1
 40
1
 40
1
 10
1956.038451
 20
1304.751867
 30
0.0
 10
1948.210451
 20
1304.751867
 30
0.0
 10
1941.865451
 20
1311.096867
 30
0.0
 10
1941.865451
 20
1318.924867
 30
0.0
  0
SPLINE
  5
240
100
AcDbEntity
  8
W0102_Printing_45X35
 62
1
100
AcDbSpline
 70
8
 71
3
 72
8
 73
4
 74
0
 40
0
 40
0
 40
0
 40
0
 40
1
 40
1
 40
1
 40
1
 10
1941.865451
 20
1318.924867
 30
0.0
 10
1941.865451
 20
1326.752867
 30
0.0
 10
1948.210451
 20
1333.097867
 30
0.0
 10
1956.038451
 20
1333.097867
 30
0.0
  0
SPLINE
  5
241
100
AcDbEntity
  8
W0102_Printing_45X35
 62
1
100
AcDbSpline
 70
8
 71
3
 72
8
 73
4
 74
0
 40
0
 40
0
 40
0
 40
0
 40
1
 40
1
 40
1
 40
1
 10
1956.038451
 20
1333.097867
 30
0.0
 10
1963.865451
 20
1333.097867
 30
0.0
 10
1970.211451
 20
1326.752867
 30
0.0
 10
1970.211451
 20
1318.924867
 30
0.0
  0
LWPOLYLINE
  5
242
100
AcDbEntity
  8
W0102_Printing_45X35
 62
1
100
AcDbPolyline
 90
1
 70
1
 10
1927.691852
 20
1318.924867
 30
0.0
  0
SPLINE
  5
243
100
AcDbEntity
  8
W0102_Printing_45X35
 62
1
100
AcDbSpline
 70
8
 71
3
 72
8
 73
4
 74
0
 40
0
 40
0
 40
0
 40
0
 40
1
 40
1
 40
1
 40
1
 10
2012.731150
 20
1318.924867
 30
0.0
 10
2012.731150
 20
1311.096867
 30
0.0
 10
2006.386150
 20
1304.751867
 30
0.0
 10
1998.558150
 20
1304.751867
 30
0.0
  0
SPLINE
  5
244
100
AcDbEntity
  8
W0102_Printing_45X35
 62
1
100
AcDbSpline
 70
8
 71
3
 72
8
 73
4
 74
0
 40
0
 40
0
 40
0
 40
0
 40
1
 40
1
 40
1
 40
1
 10
1998.558150
 20
1304.751867
 30
0.0
 10
1990.730150
 20
1304.751867
 30
0.0
 10
1984.385150
 20
1311.096867
 30
0.0
 10
1984.385150
 20
1318.924867
 30
0.0
  0
SPLINE
  5
245
100
AcDbEntity
  8
W0102_Printing_45X35
 62
1
100
AcDbSpline
 70
8
 71
3
 72
8
 73
4
 74
0
 40
0
 40
0
 40
0
 40
0
 40
1
 40
1
 40
1
 40
1
 10
1984.385150
 20
1318.924867
 30
0.0
 10
1984.385150
 20
1326.752867
 30
0.0
 10
1990.730150
 20
1333.097867
 30
0.0
 10
1998.558150
 20
1333.097867
 30
0.0
  0
SPLINE
  5
246
100
AcDbEntity
  8
W0102_Printing_45X35
 62
1
100
AcDbSpline
 70
8
 71
3
 72
8
 73
4
 74
0
 40
0
 40
0
 40
0
 40
0
 40
1
 40
1
 40
1
 40
1
 10
1998.558150
 20
1333.097867
 30
0.0
 10
2006.386150
 20
1333.097867
 30
0.0
 10
2012.731150
 20
1326.752867
 30
0.0
 10
2012.731150
 20
1318.924867
 30
0.0
  0
LWPOLYLINE
  5
247
100
AcDbEntity
  8
W0102_Printing_45X35
 62
1
100
AcDbPolyline
 90
1
 70
1
 10
1970.211451
 20
1318.924867
 30
0.0
  0
SPLINE
  5
248
100
AcDbEntity
  8
W0102_Printing_45X35
 62
1
100
AcDbSpline
 70
8
 71
3
 72
8
 73
4
 74
0
 40
0
 40
0
 40
0
 40
0
 40
1
 40
1
 40
1
 40
1
 10
2055.250949
 20
1318.924867
 30
0.0
 10
2055.250949
 20
1311.096867
 30
0.0
 10
2048.904949
 20
1304.751867
 30
0.0
 10
2041.077949
 20
1304.751867
 30
0.0
  0
SPLINE
  5
249
100
AcDbEntity
  8
W0102_Printing_45X35
 62
1
100
AcDbSpline
 70
8
 71
3
 72
8
 73
4
 74
0
 40
0
 40
0
 40
0
 40
0
 40
1
 40
1
 40
1
 40
1
 10
2041.077949
 20
1304.751867
 30
0.0
 10
2033.249949
 20
1304.751867
 30
0.0
 10
2026.904949
 20
1311.096867
 30
0.0
 10
2026.904949
 20
1318.924867
 30
0.0
  0
SPLINE
  5
24a
100
AcDbEntity
  8
W0102_Printing_45X35
 62
1
100
AcDbSpline
 70
8
 71
3
 72
8
 73
4
 74
0
 40
0
 40
0
 40
0
 40
0
 40
1
 40
1
 40
1
 40
1
 10
2026.904949
 20
1318.924867
 30
0.0
 10
2026.904949
 20
1326.752867
 30
0.0
 10
2033.249949
 20
1333.097867
 30
0.0
 10
2041.077949
 20
1333.097867
 30
0.0
  0
SPLINE
  5
24b
100
AcDbEntity
  8
W0102_Printing_45X35
 62
1
100
AcDbSpline
 70
8
 71
3
 72
8
 73
4
 74
0
 40
0
 40
0
 40
0
 40
0
 40
1
 40
1
 40
1
 40
1
 10
2041.077949
 20
1333.097867
 30
0.0
 10
2048.904949
 20
1333.097867
 30
0.0
 10
2055.250949
 20
1326.752867
 30
0.0
 10
2055.250949
 20
1318.924867
 30
0.0
  0
LWPOLYLINE
  5
24c
100
AcDbEntity
  8
W0102_Printing_45X35
 62
1
100
AcDbPolyline
 90
1
 70
1
 10
2012.731150
 20
1318.924867
 30
0.0
  0
SPLINE
  5
24d
100
AcDbEntity
  8
W0102_Printing_45X35
 62
1
100
AcDbSpline
 70
8
 71
3
 72
8
 73
4
 74
0
 40
0
 40
0
 40
0
 40
0
 40
1
 40
1
 40
1
 40
1
 10
2097.770448
 20
1318.924867
 30
0.0
 10
2097.770448
 20
1311.096867
 30
0.0
 10
2091.425448
 20
1304.751867
 30
0.0
 10
2083.597448
 20
1304.751867
 30
0.0
  0
SPLINE
  5
24e
100
AcDbEntity
  8
W0102_Printing_45X35
 62
1
100
AcDbSpline
 70
8
 71
3
 72
8
 73
4
 74
0
 40
0
 40
0
 40
0
 40
0
 40
1
 40
1
 40
1
 40
1
 10
2083.597448
 20
1304.751867
 30
0.0
 10
2075.769448
 20
1304.751867
 30
0.0
 10
2069.424448
 20
1311.096867
 30
0.0
 10
2069.424448
 20
1318.924867
 30
0.0
  0
SPLINE
  5
24f
100
AcDbEntity
  8
W0102_Printing_45X35
 62
1
100
AcDbSpline
 70
8
 71
3
 72
8
 73
4
 74
0
 40
0
 40
0
 40
0
 40
0
 40
1
 40
1
 40
1
 40
1
 10
2069.424448
 20
1318.924867
 30
0.0
 10
2069.424448
 20
1326.752867
 30
0.0
 10
2075.769448
 20
1333.097867
 30
0.0
 10
2083.597448
 20
1333.097867
 30
0.0
  0
SPLINE
  5
250
100
AcDbEntity
  8
W0102_Printing_45X35
 62
1
100
AcDbSpline
 70
8
 71
3
 72
8
 73
4
 74
0
 40
0
 40
0
 40
0
 40
0
 40
1
 40
1
 40
1
 40
1
 10
2083.597448
 20
1333.097867
 30
0.0
 10
2091.425448
 20
1333.097867
 30
0.0
 10
2097.770448
 20
1326.752867
 30
0.0
 10
2097.770448
 20
1318.924867
 30
0.0
  0
LWPOLYLINE
  5
251
100
AcDbEntity
  8
W0102_Printing_45X35
 62
1
100
AcDbPolyline
 90
1
 70
1
 10
2055.250949
 20
1318.924867
 30
0.0
  0
SPLINE
  5
252
100
AcDbEntity
  8
W0102_Printing_45X35
 62
1
100
AcDbSpline
 70
8
 71
3
 72
8
 73
4
 74
0
 40
0
 40
0
 40
0
 40
0
 40
1
 40
1
 40
1
 40
1
 10
2140.290246
 20
1318.924867
 30
0.0
 10
2140.290246
 20
1311.096867
 30
0.0
 10
2133.945247
 20
1304.751867
 30
0.0
 10
2126.117247
 20
1304.751867
 30
0.0
  0
SPLINE
  5
253
100
AcDbEntity
  8
W0102_Printing_45X35
 62
1
100
AcDbSpline
 70
8
 71
3
 72
8
 73
4
 74
0
 40
0
 40
0
 40
0
 40
0
 40
1
 40
1
 40
1
 40
1
 10
2126.117247
 20
1304.751867
 30
0.0
 10
2118.289247
 20
1304.751867
 30
0.0
 10
2111.944247
 20
1311.096867
 30
0.0
 10
2111.944247
 20
1318.924867
 30
0.0
  0
SPLINE
  5
254
100
AcDbEntity
  8
W0102_Printing_45X35
 62
1
100
AcDbSpline
 70
8
 71
3
 72
8
 73
4
 74
0
 40
0
 40
0
 40
0
 40
0
 40
1
 40
1
 40
1
 40
1
 10
2111.944247
 20
1318.924867
 30
0.0
 10
2111.944247
 20
1326.752867
 30
0.0
 10
2118.289247
 20
1333.097867
 30
0.0
 10
2126.117247
 20
1333.097867
 30
0.0
  0
SPLINE
  5
255
100
AcDbEntity
  8
W0102_Printing_45X35
 62
1
100
AcDbSpline
 70
8
 71
3
 72
8
 73
4
 74
0
 40
0
 40
0
 40
0
 40
0
 40
1
 40
1
 40
1
 40
1
 10
2126.117247
 20
1333.097867
 30
0.0
 10
2133.945247
 20
1333.097867
 30
0.0
 10
2140.290246
 20
1326.752867
 30
0.0
 10
2140.290246
 20
1318.924867
 30
0.0
  0
LWPOLYLINE
  5
256
100
AcDbEntity
  8
W0102_Printing_45X35
 62
1
100
AcDbPolyline
 90
1
 70
1
 10
2097.770448
 20
1318.924867
 30
0.0
  0
SPLINE
  5
257
100
AcDbEntity
  8
W0102_Printing_45X35
 62
1
100
AcDbSpline
 70
8
 71
3
 72
8
 73
4
 74
0
 40
0
 40
0
 40
0
 40
0
 40
1
 40
1
 40
1
 40
1
 10
2182.810045
 20
1318.924867
 30
0.0
 10
2182.810045
 20
1311.096867
 30
0.0
 10
2176.464046
 20
1304.751867
 30
0.0
 10
2168.637046
 20
1304.751867
 30
0.0
  0
SPLINE
  5
258
100
AcDbEntity
  8
W0102_Printing_45X35
 62
1
100
AcDbSpline
 70
8
 71
3
 72
8
 73
4
 74
0
 40
0
 40
0
 40
0
 40
0
 40
1
 40
1
 40
1
 40
1
 10
2168.637046
 20
1304.751867
 30
0.0
 10
2160.809046
 20
1304.751867
 30
0.0
 10
2154.464046
 20
1311.096867
 30
0.0
 10
2154.464046
 20
1318.924867
 30
0.0
  0
SPLINE
  5
259
100
AcDbEntity
  8
W0102_Printing_45X35
 62
1
100
AcDbSpline
 70
8
 71
3
 72
8
 73
4
 74
0
 40
0
 40
0
 40
0
 40
0
 40
1
 40
1
 40
1
 40
1
 10
2154.464046
 20
1318.924867
 30
0.0
 10
2154.464046
 20
1326.752867
 30
0.0
 10
2160.809046
 20
1333.097867
 30
0.0
 10
2168.637046
 20
1333.097867
 30
0.0
  0
SPLINE
  5
25a
100
AcDbEntity
  8
W0102_Printing_45X35
 62
1
100
AcDbSpline
 70
8
 71
3
 72
8
 73
4
 74
0
 40
0
 40
0
 40
0
 40
0
 40
1
 40
1
 40
1
 40
1
 10
2168.637046
 20
1333.097867
 30
0.0
 10
2176.464046
 20
1333.097867
 30
0.0
 10
2182.810045
 20
1326.752867
 30
0.0
 10
2182.810045
 20
1318.924867
 30
0.0
  0
LWPOLYLINE
  5
25b
100
AcDbEntity
  8
W0102_Printing_45X35
 62
1
100
AcDbPolyline
 90
1
 70
1
 10
2140.290246
 20
1318.924867
 30
0.0
  0
SPLINE
  5
25c
100
AcDbEntity
  8
W0102_Printing_45X35
 62
1
100
AcDbSpline
 70
8
 71
3
 72
8
 73
4
 74
0
 40
0
 40
0
 40
0
 40
0
 40
1
 40
1
 40
1
 40
1
 10
2225.329544
 20
1318.924867
 30
0.0
 10
2225.329544
 20
1311.096867
 30
0.0
 10
2218.984545
 20
1304.751867
 30
0.0
 10
2211.156545
 20
1304.751867
 30
0.0
  0
SPLINE
  5
25d
100
AcDbEntity
  8
W0102_Printing_45X35
 62
1
100
AcDbSpline
 70
8
 71
3
 72
8
 73
4
 74
0
 40
0
 40
0
 40
0
 40
0
 40
1
 40
1
 40
1
 40
1
 10
2211.156545
 20
1304.751867
 30
0.0
 10
2203.328545
 20
1304.751867
 30
0.0
 10
2196.983545
 20
1311.096867
 30
0.0
 10
2196.983545
 20
1318.924867
 30
0.0
  0
SPLINE
  5
25e
100
AcDbEntity
  8
W0102_Printing_45X35
 62
1
100
AcDbSpline
 70
8
 71
3
 72
8
 73
4
 74
0
 40
0
 40
0
 40
0
 40
0
 40
1
 40
1
 40
1
 40
1
 10
2196.983545
 20
1318.924867
 30
0.0
 10
2196.983545
 20
1326.752867
 30
0.0
 10
2203.328545
 20
1333.097867
 30
0.0
 10
2211.156545
 20
1333.097867
 30
0.0
  0
SPLINE
  5
25f
100
AcDbEntity
  8
W0102_Printing_45X35
 62
1
100
AcDbSpline
 70
8
 71
3
 72
8
 73
4
 74
0
 40
0
 40
0
 40
0
 40
0
 40
1
 40
1
 40
1
 40
1
 10
2211.156545
 20
1333.097867
 30
0.0
 10
2218.984545
 20
1333.097867
 30
0.0
 10
2225.329544
 20
1326.752867
 30
0.0
 10
2225.329544
 20
1318.924867
 30
0.0
  0
LWPOLYLINE
  5
260
100
AcDbEntity
  8
W0102_Printing_45X35
 62
1
100
AcDbPolyline
 90
1
 70
1
 10
2182.810045
 20
1318.924867
 30
0.0
  0
SPLINE
  5
261
100
AcDbEntity
  8
W0102_Printing_45X35
 62
1
100
AcDbSpline
 70
8
 71
3
 72
8
 73
4
 74
0
 40
0
 40
0
 40
0
 40
0
 40
1
 40
1
 40
1
 40
1
 10
2267.849343
 20
1318.924867
 30
0.0
 10
2267.849343
 20
1311.096867
 30
0.0
 10
2261.504343
 20
1304.751867
 30
0.0
 10
2253.676344
 20
1304.751867
 30
0.0
  0
SPLINE
  5
262
100
AcDbEntity
  8
W0102_Printing_45X35
 62
1
100
AcDbSpline
 70
8
 71
3
 72
8
 73
4
 74
0
 40
0
 40
0
 40
0
 40
0
 40
1
 40
1
 40
1
 40
1
 10
2253.676344
 20
1304.751867
 30
0.0
 10
2245.848344
 20
1304.751867
 30
0.0
 10
2239.503344
 20
1311.096867
 30
0.0
 10
2239.503344
 20
1318.924867
 30
0.0
  0
SPLINE
  5
263
100
AcDbEntity
  8
W0102_Printing_45X35
 62
1
100
AcDbSpline
 70
8
 71
3
 72
8
 73
4
 74
0
 40
0
 40
0
 40
0
 40
0
 40
1
 40
1
 40
1
 40
1
 10
2239.503344
 20
1318.924867
 30
0.0
 10
2239.503344
 20
1326.752867
 30
0.0
 10
2245.848344
 20
1333.097867
 30
0.0
 10
2253.676344
 20
1333.097867
 30
0.0
  0
SPLINE
  5
264
100
AcDbEntity
  8
W0102_Printing_45X35
 62
1
100
AcDbSpline
 70
8
 71
3
 72
8
 73
4
 74
0
 40
0
 40
0
 40
0
 40
0
 40
1
 40
1
 40
1
 40
1
 10
2253.676344
 20
1333.097867
 30
0.0
 10
2261.504343
 20
1333.097867
 30
0.0
 10
2267.849343
 20
1326.752867
 30
0.0
 10
2267.849343
 20
1318.924867
 30
0.0
  0
LWPOLYLINE
  5
265
100
AcDbEntity
  8
W0102_Printing_45X35
 62
1
100
AcDbPolyline
 90
1
 70
1
 10
2225.329544
 20
1318.924867
 30
0.0
  0
SPLINE
  5
266
100
AcDbEntity
  8
W0102_Printing_45X35
 62
1
100
AcDbSpline
 70
8
 71
3
 72
8
 73
4
 74
0
 40
0
 40
0
 40
0
 40
0
 40
1
 40
1
 40
1
 40
1
 10
2310.369042
 20
1318.924867
 30
0.0
 10
2310.369042
 20
1311.096867
 30
0.0
 10
2304.023042
 20
1304.751867
 30
0.0
 10
2296.196043
 20
1304.751867
 30
0.0
  0
SPLINE
  5
267
100
AcDbEntity
  8
W0102_Printing_45X35
 62
1
100
AcDbSpline
 70
8
 71
3
 72
8
 73
4
 74
0
 40
0
 40
0
 40
0
 40
0
 40
1
 40
1
 40
1
 40
1
 10
2296.196043
 20
1304.751867
 30
0.0
 10
2288.368043
 20
1304.751867
 30
0.0
 10
2282.023043
 20
1311.096867
 30
0.0
 10
2282.023043
 20
1318.924867
 30
0.0
  0
SPLINE
  5
268
100
AcDbEntity
  8
W0102_Printing_45X35
 62
1
100
AcDbSpline
 70
8
 71
3
 72
8
 73
4
 74
0
 40
0
 40
0
 40
0
 40
0
 40
1
 40
1
 40
1
 40
1
 10
2282.023043
 20
1318.924867
 30
0.0
 10
2282.023043
 20
1326.752867
 30
0.0
 10
2288.368043
 20
1333.097867
 30
0.0
 10
2296.196043
 20
1333.097867
 30
0.0
  0
SPLINE
  5
269
100
AcDbEntity
  8
W0102_Printing_45X35
 62
1
100
AcDbSpline
 70
8
 71
3
 72
8
 73
4
 74
0
 40
0
 40
0
 40
0
 40
0
 40
1
 40
1
 40
1
 40
1
 10
2296.196043
 20
1333.097867
 30
0.0
 10
2304.023042
 20
1333.097867
 30
0.0
 10
2310.369042
 20
1326.752867
 30
0.0
 10
2310.369042
 20
1318.924867
 30
0.0
  0
LWPOLYLINE
  5
26a
100
AcDbEntity
  8
W0102_Printing_45X35
 62
1
100
AcDbPolyline
 90
1
 70
1
 10
2267.849343
 20
1318.924867
 30
0.0
  0
SPLINE
  5
26b
100
AcDbEntity
  8
W0102_Printing_45X35
 62
1
100
AcDbSpline
 70
8
 71
3
 72
8
 73
4
 74
0
 40
0
 40
0
 40
0
 40
0
 40
1
 40
1
 40
1
 40
1
 10
1119.817872
 20
383.491790
 30
0.0
 10
1119.817872
 20
375.663791
 30
0.0
 10
1113.471872
 20
369.318791
 30
0.0
 10
1105.644872
 20
369.318791
 30
0.0
  0
SPLINE
  5
26c
100
AcDbEntity
  8
W0102_Printing_45X35
 62
1
100
AcDbSpline
 70
8
 71
3
 72
8
 73
4
 74
0
 40
0
 40
0
 40
0
 40
0
 40
1
 40
1
 40
1
 40
1
 10
1105.644872
 20
369.318791
 30
0.0
 10
1097.816873
 20
369.318791
 30
0.0
 10
1091.471873
 20
375.663791
 30
0.0
 10
1091.471873
 20
383.491790
 30
0.0
  0
SPLINE
  5
26d
100
AcDbEntity
  8
W0102_Printing_45X35
 62
1
100
AcDbSpline
 70
8
 71
3
 72
8
 73
4
 74
0
 40
0
 40
0
 40
0
 40
0
 40
1
 40
1
 40
1
 40
1
 10
1091.471873
 20
383.491790
 30
0.0
 10
1091.471873
 20
391.319790
 30
0.0
 10
1097.816873
 20
397.664790
 30
0.0
 10
1105.644872
 20
397.664790
 30
0.0
  0
SPLINE
  5
26e
100
AcDbEntity
  8
W0102_Printing_45X35
 62
1
100
AcDbSpline
 70
8
 71
3
 72
8
 73
4
 74
0
 40
0
 40
0
 40
0
 40
0
 40
1
 40
1
 40
1
 40
1
 10
1105.644872
 20
397.664790
 30
0.0
 10
1113.471872
 20
397.664790
 30
0.0
 10
1119.817872
 20
391.319790
 30
0.0
 10
1119.817872
 20
383.491790
 30
0.0
  0
LWPOLYLINE
  5
26f
100
AcDbEntity
  8
W0102_Printing_45X35
 62
1
100
AcDbPolyline
 90
1
 70
1
 10
2310.369042
 20
1318.924867
 30
0.0
  0
SPLINE
  5
270
100
AcDbEntity
  8
W0102_Printing_45X35
 62
1
100
AcDbSpline
 70
8
 71
3
 72
8
 73
4
 74
0
 40
0
 40
0
 40
0
 40
0
 40
1
 40
1
 40
1
 40
1
 10
1162.337471
 20
383.491790
 30
0.0
 10
1162.337471
 20
375.663791
 30
0.0
 10
1155.992471
 20
369.318791
 30
0.0
 10
1148.164471
 20
369.318791
 30
0.0
  0
SPLINE
  5
271
100
AcDbEntity
  8
W0102_Printing_45X35
 62
1
100
AcDbSpline
 70
8
 71
3
 72
8
 73
4
 74
0
 40
0
 40
0
 40
0
 40
0
 40
1
 40
1
 40
1
 40
1
 10
1148.164471
 20
369.318791
 30
0.0
 10
1140.336471
 20
369.318791
 30
0.0
 10
1133.991472
 20
375.663791
 30
0.0
 10
1133.991472
 20
383.491790
 30
0.0
  0
SPLINE
  5
272
100
AcDbEntity
  8
W0102_Printing_45X35
 62
1
100
AcDbSpline
 70
8
 71
3
 72
8
 73
4
 74
0
 40
0
 40
0
 40
0
 40
0
 40
1
 40
1
 40
1
 40
1
 10
1133.991472
 20
383.491790
 30
0.0
 10
1133.991472
 20
391.319790
 30
0.0
 10
1140.336471
 20
397.664790
 30
0.0
 10
1148.164471
 20
397.664790
 30
0.0
  0
SPLINE
  5
273
100
AcDbEntity
  8
W0102_Printing_45X35
 62
1
100
AcDbSpline
 70
8
 71
3
 72
8
 73
4
 74
0
 40
0
 40
0
 40
0
 40
0
 40
1
 40
1
 40
1
 40
1
 10
1148.164471
 20
397.664790
 30
0.0
 10
1155.992471
 20
397.664790
 30
0.0
 10
1162.337471
 20
391.319790
 30
0.0
 10
1162.337471
 20
383.491790
 30
0.0
  0
LWPOLYLINE
  5
274
100
AcDbEntity
  8
W0102_Printing_45X35
 62
1
100
AcDbPolyline
 90
1
 70
1
 10
1119.817872
 20
383.491790
 30
0.0
  0
SPLINE
  5
275
100
AcDbEntity
  8
W0102_Printing_45X35
 62
1
100
AcDbSpline
 70
8
 71
3
 72
8
 73
4
 74
0
 40
0
 40
0
 40
0
 40
0
 40
1
 40
1
 40
1
 40
1
 10
1204.857270
 20
383.491790
 30
0.0
 10
1204.857270
 20
375.663791
 30
0.0
 10
1198.511270
 20
369.318791
 30
0.0
 10
1190.684270
 20
369.318791
 30
0.0
  0
SPLINE
  5
276
100
AcDbEntity
  8
W0102_Printing_45X35
 62
1
100
AcDbSpline
 70
8
 71
3
 72
8
 73
4
 74
0
 40
0
 40
0
 40
0
 40
0
 40
1
 40
1
 40
1
 40
1
 10
1190.684270
 20
369.318791
 30
0.0
 10
1182.856270
 20
369.318791
 30
0.0
 10
1176.511271
 20
375.663791
 30
0.0
 10
1176.511271
 20
383.491790
 30
0.0
  0
SPLINE
  5
277
100
AcDbEntity
  8
W0102_Printing_45X35
 62
1
100
AcDbSpline
 70
8
 71
3
 72
8
 73
4
 74
0
 40
0
 40
0
 40
0
 40
0
 40
1
 40
1
 40
1
 40
1
 10
1176.511271
 20
383.491790
 30
0.0
 10
1176.511271
 20
391.319790
 30
0.0
 10
1182.856270
 20
397.664790
 30
0.0
 10
1190.684270
 20
397.664790
 30
0.0
  0
SPLINE
  5
278
100
AcDbEntity
  8
W0102_Printing_45X35
 62
1
100
AcDbSpline
 70
8
 71
3
 72
8
 73
4
 74
0
 40
0
 40
0
 40
0
 40
0
 40
1
 40
1
 40
1
 40
1
 10
1190.684270
 20
397.664790
 30
0.0
 10
1198.511270
 20
397.664790
 30
0.0
 10
1204.857270
 20
391.319790
 30
0.0
 10
1204.857270
 20
383.491790
 30
0.0
  0
LWPOLYLINE
  5
279
100
AcDbEntity
  8
W0102_Printing_45X35
 62
1
100
AcDbPolyline
 90
1
 70
1
 10
1162.337471
 20
383.491790
 30
0.0
  0
SPLINE
  5
27a
100
AcDbEntity
  8
W0102_Printing_45X35
 62
1
100
AcDbSpline
 70
8
 71
3
 72
8
 73
4
 74
0
 40
0
 40
0
 40
0
 40
0
 40
1
 40
1
 40
1
 40
1
 10
1247.376969
 20
383.491790
 30
0.0
 10
1247.376969
 20
375.663791
 30
0.0
 10
1241.030969
 20
369.318791
 30
0.0
 10
1233.203969
 20
369.318791
 30
0.0
  0
SPLINE
  5
27b
100
AcDbEntity
  8
W0102_Printing_45X35
 62
1
100
AcDbSpline
 70
8
 71
3
 72
8
 73
4
 74
0
 40
0
 40
0
 40
0
 40
0
 40
1
 40
1
 40
1
 40
1
 10
1233.203969
 20
369.318791
 30
0.0
 10
1225.375969
 20
369.318791
 30
0.0
 10
1219.030970
 20
375.663791
 30
0.0
 10
1219.030970
 20
383.491790
 30
0.0
  0
SPLINE
  5
27c
100
AcDbEntity
  8
W0102_Printing_45X35
 62
1
100
AcDbSpline
 70
8
 71
3
 72
8
 73
4
 74
0
 40
0
 40
0
 40
0
 40
0
 40
1
 40
1
 40
1
 40
1
 10
1219.030970
 20
383.491790
 30
0.0
 10
1219.030970
 20
391.319790
 30
0.0
 10
1225.375969
 20
397.664790
 30
0.0
 10
1233.203969
 20
397.664790
 30
0.0
  0
SPLINE
  5
27d
100
AcDbEntity
  8
W0102_Printing_45X35
 62
1
100
AcDbSpline
 70
8
 71
3
 72
8
 73
4
 74
0
 40
0
 40
0
 40
0
 40
0
 40
1
 40
1
 40
1
 40
1
 10
1233.203969
 20
397.664790
 30
0.0
 10
1241.030969
 20
397.664790
 30
0.0
 10
1247.376969
 20
391.319790
 30
0.0
 10
1247.376969
 20
383.491790
 30
0.0
  0
LWPOLYLINE
  5
27e
100
AcDbEntity
  8
W0102_Printing_45X35
 62
1
100
AcDbPolyline
 90
1
 70
1
 10
1204.857270
 20
383.491790
 30
0.0
  0
SPLINE
  5
27f
100
AcDbEntity
  8
W0102_Printing_45X35
 62
1
100
AcDbSpline
 70
8
 71
3
 72
8
 73
4
 74
0
 40
0
 40
0
 40
0
 40
0
 40
1
 40
1
 40
1
 40
1
 10
1289.896568
 20
383.491790
 30
0.0
 10
1289.896568
 20
375.663791
 30
0.0
 10
1283.550568
 20
369.318791
 30
0.0
 10
1275.723568
 20
369.318791
 30
0.0
  0
SPLINE
  5
280
100
AcDbEntity
  8
W0102_Printing_45X35
 62
1
100
AcDbSpline
 70
8
 71
3
 72
8
 73
4
 74
0
 40
0
 40
0
 40
0
 40
0
 40
1
 40
1
 40
1
 40
1
 10
1275.723568
 20
369.318791
 30
0.0
 10
1267.895568
 20
369.318791
 30
0.0
 10
1261.550568
 20
375.663791
 30
0.0
 10
1261.550568
 20
383.491790
 30
0.0
  0
SPLINE
  5
281
100
AcDbEntity
  8
W0102_Printing_45X35
 62
1
100
AcDbSpline
 70
8
 71
3
 72
8
 73
4
 74
0
 40
0
 40
0
 40
0
 40
0
 40
1
 40
1
 40
1
 40
1
 10
1261.550568
 20
383.491790
 30
0.0
 10
1261.550568
 20
391.319790
 30
0.0
 10
1267.895568
 20
397.664790
 30
0.0
 10
1275.723568
 20
397.664790
 30
0.0
  0
SPLINE
  5
282
100
AcDbEntity
  8
W0102_Printing_45X35
 62
1
100
AcDbSpline
 70
8
 71
3
 72
8
 73
4
 74
0
 40
0
 40
0
 40
0
 40
0
 40
1
 40
1
 40
1
 40
1
 10
1275.723568
 20
397.664790
 30
0.0
 10
1283.550568
 20
397.664790
 30
0.0
 10
1289.896568
 20
391.319790
 30
0.0
 10
1289.896568
 20
383.491790
 30
0.0
  0
LWPOLYLINE
  5
283
100
AcDbEntity
  8
W0102_Printing_45X35
 62
1
100
AcDbPolyline
 90
1
 70
1
 10
1247.376969
 20
383.491790
 30
0.0
  0
SPLINE
  5
284
100
AcDbEntity
  8
W0102_Printing_45X35
 62
1
100
AcDbSpline
 70
8
 71
3
 72
8
 73
4
 74
0
 40
0
 40
0
 40
0
 40
0
 40
1
 40
1
 40
1
 40
1
 10
1332.416267
 20
383.491790
 30
0.0
 10
1332.416267
 20
375.663791
 30
0.0
 10
1326.071267
 20
369.318791
 30
0.0
 10
1318.243267
 20
369.318791
 30
0.0
  0
SPLINE
  5
285
100
AcDbEntity
  8
W0102_Printing_45X35
 62
1
100
AcDbSpline
 70
8
 71
3
 72
8
 73
4
 74
0
 40
0
 40
0
 40
0
 40
0
 40
1
 40
1
 40
1
 40
1
 10
1318.243267
 20
369.318791
 30
0.0
 10
1310.415267
 20
369.318791
 30
0.0
 10
1304.070267
 20
375.663791
 30
0.0
 10
1304.070267
 20
383.491790
 30
0.0
  0
SPLINE
  5
286
100
AcDbEntity
  8
W0102_Printing_45X35
 62
1
100
AcDbSpline
 70
8
 71
3
 72
8
 73
4
 74
0
 40
0
 40
0
 40
0
 40
0
 40
1
 40
1
 40
1
 40
1
 10
1304.070267
 20
383.491790
 30
0.0
 10
1304.070267
 20
391.319790
 30
0.0
 10
1310.415267
 20
397.664790
 30
0.0
 10
1318.243267
 20
397.664790
 30
0.0
  0
SPLINE
  5
287
100
AcDbEntity
  8
W0102_Printing_45X35
 62
1
100
AcDbSpline
 70
8
 71
3
 72
8
 73
4
 74
0
 40
0
 40
0
 40
0
 40
0
 40
1
 40
1
 40
1
 40
1
 10
1318.243267
 20
397.664790
 30
0.0
 10
1326.071267
 20
397.664790
 30
0.0
 10
1332.416267
 20
391.319790
 30
0.0
 10
1332.416267
 20
383.491790
 30
0.0
  0
LWPOLYLINE
  5
288
100
AcDbEntity
  8
W0102_Printing_45X35
 62
1
100
AcDbPolyline
 90
1
 70
1
 10
1289.896568
 20
383.491790
 30
0.0
  0
SPLINE
  5
289
100
AcDbEntity
  8
W0102_Printing_45X35
 62
1
100
AcDbSpline
 70
8
 71
3
 72
8
 73
4
 74
0
 40
0
 40
0
 40
0
 40
0
 40
1
 40
1
 40
1
 40
1
 10
1374.935966
 20
383.491790
 30
0.0
 10
1374.935966
 20
375.663791
 30
0.0
 10
1368.589966
 20
369.318791
 30
0.0
 10
1360.762966
 20
369.318791
 30
0.0
  0
SPLINE
  5
28a
100
AcDbEntity
  8
W0102_Printing_45X35
 62
1
100
AcDbSpline
 70
8
 71
3
 72
8
 73
4
 74
0
 40
0
 40
0
 40
0
 40
0
 40
1
 40
1
 40
1
 40
1
 10
1360.762966
 20
369.318791
 30
0.0
 10
1352.934966
 20
369.318791
 30
0.0
 10
1346.589966
 20
375.663791
 30
0.0
 10
1346.589966
 20
383.491790
 30
0.0
  0
SPLINE
  5
28b
100
AcDbEntity
  8
W0102_Printing_45X35
 62
1
100
AcDbSpline
 70
8
 71
3
 72
8
 73
4
 74
0
 40
0
 40
0
 40
0
 40
0
 40
1
 40
1
 40
1
 40
1
 10
1346.589966
 20
383.491790
 30
0.0
 10
1346.589966
 20
391.319790
 30
0.0
 10
1352.934966
 20
397.664790
 30
0.0
 10
1360.762966
 20
397.664790
 30
0.0
  0
SPLINE
  5
28c
100
AcDbEntity
  8
W0102_Printing_45X35
 62
1
100
AcDbSpline
 70
8
 71
3
 72
8
 73
4
 74
0
 40
0
 40
0
 40
0
 40
0
 40
1
 40
1
 40
1
 40
1
 10
1360.762966
 20
397.664790
 30
0.0
 10
1368.589966
 20
397.664790
 30
0.0
 10
1374.935966
 20
391.319790
 30
0.0
 10
1374.935966
 20
383.491790
 30
0.0
  0
LWPOLYLINE
  5
28d
100
AcDbEntity
  8
W0102_Printing_45X35
 62
1
100
AcDbPolyline
 90
1
 70
1
 10
1332.416267
 20
383.491790
 30
0.0
  0
SPLINE
  5
28e
100
AcDbEntity
  8
W0102_Printing_45X35
 62
1
100
AcDbSpline
 70
8
 71
3
 72
8
 73
4
 74
0
 40
0
 40
0
 40
0
 40
0
 40
1
 40
1
 40
1
 40
1
 10
1417.455665
 20
383.491790
 30
0.0
 10
1417.455665
 20
375.663791
 30
0.0
 10
1411.109665
 20
369.318791
 30
0.0
 10
1403.282665
 20
369.318791
 30
0.0
  0
SPLINE
  5
28f
100
AcDbEntity
  8
W0102_Printing_45X35
 62
1
100
AcDbSpline
 70
8
 71
3
 72
8
 73
4
 74
0
 40
0
 40
0
 40
0
 40
0
 40
1
 40
1
 40
1
 40
1
 10
1403.282665
 20
369.318791
 30
0.0
 10
1395.454665
 20
369.318791
 30
0.0
 10
1389.109665
 20
375.663791
 30
0.0
 10
1389.109665
 20
383.491790
 30
0.0
  0
SPLINE
  5
290
100
AcDbEntity
  8
W0102_Printing_45X35
 62
1
100
AcDbSpline
 70
8
 71
3
 72
8
 73
4
 74
0
 40
0
 40
0
 40
0
 40
0
 40
1
 40
1
 40
1
 40
1
 10
1389.109665
 20
383.491790
 30
0.0
 10
1389.109665
 20
391.319790
 30
0.0
 10
1395.454665
 20
397.664790
 30
0.0
 10
1403.282665
 20
397.664790
 30
0.0
  0
SPLINE
  5
291
100
AcDbEntity
  8
W0102_Printing_45X35
 62
1
100
AcDbSpline
 70
8
 71
3
 72
8
 73
4
 74
0
 40
0
 40
0
 40
0
 40
0
 40
1
 40
1
 40
1
 40
1
 10
1403.282665
 20
397.664790
 30
0.0
 10
1411.109665
 20
397.664790
 30
0.0
 10
1417.455665
 20
391.319790
 30
0.0
 10
1417.455665
 20
383.491790
 30
0.0
  0
LWPOLYLINE
  5
292
100
AcDbEntity
  8
W0102_Printing_45X35
 62
1
100
AcDbPolyline
 90
1
 70
1
 10
1374.935966
 20
383.491790
 30
0.0
  0
SPLINE
  5
293
100
AcDbEntity
  8
W0102_Printing_45X35
 62
1
100
AcDbSpline
 70
8
 71
3
 72
8
 73
4
 74
0
 40
0
 40
0
 40
0
 40
0
 40
1
 40
1
 40
1
 40
1
 10
1459.975264
 20
383.491790
 30
0.0
 10
1459.975264
 20
375.663791
 30
0.0
 10
1453.629264
 20
369.318791
 30
0.0
 10
1445.802264
 20
369.318791
 30
0.0
  0
SPLINE
  5
294
100
AcDbEntity
  8
W0102_Printing_45X35
 62
1
100
AcDbSpline
 70
8
 71
3
 72
8
 73
4
 74
0
 40
0
 40
0
 40
0
 40
0
 40
1
 40
1
 40
1
 40
1
 10
1445.802264
 20
369.318791
 30
0.0
 10
1437.974264
 20
369.318791
 30
0.0
 10
1431.629264
 20
375.663791
 30
0.0
 10
1431.629264
 20
383.491790
 30
0.0
  0
SPLINE
  5
295
100
AcDbEntity
  8
W0102_Printing_45X35
 62
1
100
AcDbSpline
 70
8
 71
3
 72
8
 73
4
 74
0
 40
0
 40
0
 40
0
 40
0
 40
1
 40
1
 40
1
 40
1
 10
1431.629264
 20
383.491790
 30
0.0
 10
1431.629264
 20
391.319790
 30
0.0
 10
1437.974264
 20
397.664790
 30
0.0
 10
1445.802264
 20
397.664790
 30
0.0
  0
SPLINE
  5
296
100
AcDbEntity
  8
W0102_Printing_45X35
 62
1
100
AcDbSpline
 70
8
 71
3
 72
8
 73
4
 74
0
 40
0
 40
0
 40
0
 40
0
 40
1
 40
1
 40
1
 40
1
 10
1445.802264
 20
397.664790
 30
0.0
 10
1453.629264
 20
397.664790
 30
0.0
 10
1459.975264
 20
391.319790
 30
0.0
 10
1459.975264
 20
383.491790
 30
0.0
  0
LWPOLYLINE
  5
297
100
AcDbEntity
  8
W0102_Printing_45X35
 62
1
100
AcDbPolyline
 90
1
 70
1
 10
1417.455665
 20
383.491790
 30
0.0
  0
SPLINE
  5
298
100
AcDbEntity
  8
W0102_Printing_45X35
 62
1
100
AcDbSpline
 70
8
 71
3
 72
8
 73
4
 74
0
 40
0
 40
0
 40
0
 40
0
 40
1
 40
1
 40
1
 40
1
 10
1502.494962
 20
383.491790
 30
0.0
 10
1502.494962
 20
375.663791
 30
0.0
 10
1496.149963
 20
369.318791
 30
0.0
 10
1488.321963
 20
369.318791
 30
0.0
  0
SPLINE
  5
299
100
AcDbEntity
  8
W0102_Printing_45X35
 62
1
100
AcDbSpline
 70
8
 71
3
 72
8
 73
4
 74
0
 40
0
 40
0
 40
0
 40
0
 40
1
 40
1
 40
1
 40
1
 10
1488.321963
 20
369.318791
 30
0.0
 10
1480.493963
 20
369.318791
 30
0.0
 10
1474.148963
 20
375.663791
 30
0.0
 10
1474.148963
 20
383.491790
 30
0.0
  0
SPLINE
  5
29a
100
AcDbEntity
  8
W0102_Printing_45X35
 62
1
100
AcDbSpline
 70
8
 71
3
 72
8
 73
4
 74
0
 40
0
 40
0
 40
0
 40
0
 40
1
 40
1
 40
1
 40
1
 10
1474.148963
 20
383.491790
 30
0.0
 10
1474.148963
 20
391.319790
 30
0.0
 10
1480.493963
 20
397.664790
 30
0.0
 10
1488.321963
 20
397.664790
 30
0.0
  0
SPLINE
  5
29b
100
AcDbEntity
  8
W0102_Printing_45X35
 62
1
100
AcDbSpline
 70
8
 71
3
 72
8
 73
4
 74
0
 40
0
 40
0
 40
0
 40
0
 40
1
 40
1
 40
1
 40
1
 10
1488.321963
 20
397.664790
 30
0.0
 10
1496.149963
 20
397.664790
 30
0.0
 10
1502.494962
 20
391.319790
 30
0.0
 10
1502.494962
 20
383.491790
 30
0.0
  0
LWPOLYLINE
  5
29c
100
AcDbEntity
  8
W0102_Printing_45X35
 62
1
100
AcDbPolyline
 90
1
 70
1
 10
1459.975264
 20
383.491790
 30
0.0
  0
SPLINE
  5
29d
100
AcDbEntity
  8
W0102_Printing_45X35
 62
1
100
AcDbSpline
 70
8
 71
3
 72
8
 73
4
 74
0
 40
0
 40
0
 40
0
 40
0
 40
1
 40
1
 40
1
 40
1
 10
1545.014761
 20
383.491790
 30
0.0
 10
1545.014761
 20
375.663791
 30
0.0
 10
1538.668762
 20
369.318791
 30
0.0
 10
1530.841762
 20
369.318791
 30
0.0
  0
SPLINE
  5
29e
100
AcDbEntity
  8
W0102_Printing_45X35
 62
1
100
AcDbSpline
 70
8
 71
3
 72
8
 73
4
 74
0
 40
0
 40
0
 40
0
 40
0
 40
1
 40
1
 40
1
 40
1
 10
1530.841762
 20
369.318791
 30
0.0
 10
1523.013762
 20
369.318791
 30
0.0
 10
1516.668762
 20
375.663791
 30
0.0
 10
1516.668762
 20
383.491790
 30
0.0
  0
SPLINE
  5
29f
100
AcDbEntity
  8
W0102_Printing_45X35
 62
1
100
AcDbSpline
 70
8
 71
3
 72
8
 73
4
 74
0
 40
0
 40
0
 40
0
 40
0
 40
1
 40
1
 40
1
 40
1
 10
1516.668762
 20
383.491790
 30
0.0
 10
1516.668762
 20
391.319790
 30
0.0
 10
1523.013762
 20
397.664790
 30
0.0
 10
1530.841762
 20
397.664790
 30
0.0
  0
SPLINE
  5
2a0
100
AcDbEntity
  8
W0102_Printing_45X35
 62
1
100
AcDbSpline
 70
8
 71
3
 72
8
 73
4
 74
0
 40
0
 40
0
 40
0
 40
0
 40
1
 40
1
 40
1
 40
1
 10
1530.841762
 20
397.664790
 30
0.0
 10
1538.668762
 20
397.664790
 30
0.0
 10
1545.014761
 20
391.319790
 30
0.0
 10
1545.014761
 20
383.491790
 30
0.0
  0
LWPOLYLINE
  5
2a1
100
AcDbEntity
  8
W0102_Printing_45X35
 62
1
100
AcDbPolyline
 90
1
 70
1
 10
1502.494962
 20
383.491790
 30
0.0
  0
SPLINE
  5
2a2
100
AcDbEntity
  8
W0102_Printing_45X35
 62
1
100
AcDbSpline
 70
8
 71
3
 72
8
 73
4
 74
0
 40
0
 40
0
 40
0
 40
0
 40
1
 40
1
 40
1
 40
1
 10
1587.534360
 20
383.491790
 30
0.0
 10
1587.534360
 20
375.663791
 30
0.0
 10
1581.188360
 20
369.318791
 30
0.0
 10
1573.361361
 20
369.318791
 30
0.0
  0
SPLINE
  5
2a3
100
AcDbEntity
  8
W0102_Printing_45X35
 62
1
100
AcDbSpline
 70
8
 71
3
 72
8
 73
4
 74
0
 40
0
 40
0
 40
0
 40
0
 40
1
 40
1
 40
1
 40
1
 10
1573.361361
 20
369.318791
 30
0.0
 10
1565.533361
 20
369.318791
 30
0.0
 10
1559.188361
 20
375.663791
 30
0.0
 10
1559.188361
 20
383.491790
 30
0.0
  0
SPLINE
  5
2a4
100
AcDbEntity
  8
W0102_Printing_45X35
 62
1
100
AcDbSpline
 70
8
 71
3
 72
8
 73
4
 74
0
 40
0
 40
0
 40
0
 40
0
 40
1
 40
1
 40
1
 40
1
 10
1559.188361
 20
383.491790
 30
0.0
 10
1559.188361
 20
391.319790
 30
0.0
 10
1565.533361
 20
397.664790
 30
0.0
 10
1573.361361
 20
397.664790
 30
0.0
  0
SPLINE
  5
2a5
100
AcDbEntity
  8
W0102_Printing_45X35
 62
1
100
AcDbSpline
 70
8
 71
3
 72
8
 73
4
 74
0
 40
0
 40
0
 40
0
 40
0
 40
1
 40
1
 40
1
 40
1
 10
1573.361361
 20
397.664790
 30
0.0
 10
1581.188360
 20
397.664790
 30
0.0
 10
1587.534360
 20
391.319790
 30
0.0
 10
1587.534360
 20
383.491790
 30
0.0
  0
LWPOLYLINE
  5
2a6
100
AcDbEntity
  8
W0102_Printing_45X35
 62
1
100
AcDbPolyline
 90
1
 70
1
 10
1545.014761
 20
383.491790
 30
0.0
  0
SPLINE
  5
2a7
100
AcDbEntity
  8
W0102_Printing_45X35
 62
1
100
AcDbSpline
 70
8
 71
3
 72
8
 73
4
 74
0
 40
0
 40
0
 40
0
 40
0
 40
1
 40
1
 40
1
 40
1
 10
1630.054059
 20
383.491790
 30
0.0
 10
1630.054059
 20
375.663791
 30
0.0
 10
1623.708059
 20
369.318791
 30
0.0
 10
1615.881060
 20
369.318791
 30
0.0
  0
SPLINE
  5
2a8
100
AcDbEntity
  8
W0102_Printing_45X35
 62
1
100
AcDbSpline
 70
8
 71
3
 72
8
 73
4
 74
0
 40
0
 40
0
 40
0
 40
0
 40
1
 40
1
 40
1
 40
1
 10
1615.881060
 20
369.318791
 30
0.0
 10
1608.053060
 20
369.318791
 30
0.0
 10
1601.708060
 20
375.663791
 30
0.0
 10
1601.708060
 20
383.491790
 30
0.0
  0
SPLINE
  5
2a9
100
AcDbEntity
  8
W0102_Printing_45X35
 62
1
100
AcDbSpline
 70
8
 71
3
 72
8
 73
4
 74
0
 40
0
 40
0
 40
0
 40
0
 40
1
 40
1
 40
1
 40
1
 10
1601.708060
 20
383.491790
 30
0.0
 10
1601.708060
 20
391.319790
 30
0.0
 10
1608.053060
 20
397.664790
 30
0.0
 10
1615.881060
 20
397.664790
 30
0.0
  0
SPLINE
  5
2aa
100
AcDbEntity
  8
W0102_Printing_45X35
 62
1
100
AcDbSpline
 70
8
 71
3
 72
8
 73
4
 74
0
 40
0
 40
0
 40
0
 40
0
 40
1
 40
1
 40
1
 40
1
 10
1615.881060
 20
397.664790
 30
0.0
 10
1623.708059
 20
397.664790
 30
0.0
 10
1630.054059
 20
391.319790
 30
0.0
 10
1630.054059
 20
383.491790
 30
0.0
  0
LWPOLYLINE
  5
2ab
100
AcDbEntity
  8
W0102_Printing_45X35
 62
1
100
AcDbPolyline
 90
1
 70
1
 10
1587.534360
 20
383.491790
 30
0.0
  0
SPLINE
  5
2ac
100
AcDbEntity
  8
W0102_Printing_45X35
 62
1
100
AcDbSpline
 70
8
 71
3
 72
8
 73
4
 74
0
 40
0
 40
0
 40
0
 40
0
 40
1
 40
1
 40
1
 40
1
 10
1672.573658
 20
383.491790
 30
0.0
 10
1672.573658
 20
375.663791
 30
0.0
 10
1666.228658
 20
369.318791
 30
0.0
 10
1658.400659
 20
369.318791
 30
0.0
  0
SPLINE
  5
2ad
100
AcDbEntity
  8
W0102_Printing_45X35
 62
1
100
AcDbSpline
 70
8
 71
3
 72
8
 73
4
 74
0
 40
0
 40
0
 40
0
 40
0
 40
1
 40
1
 40
1
 40
1
 10
1658.400659
 20
369.318791
 30
0.0
 10
1650.572659
 20
369.318791
 30
0.0
 10
1644.227659
 20
375.663791
 30
0.0
 10
1644.227659
 20
383.491790
 30
0.0
  0
SPLINE
  5
2ae
100
AcDbEntity
  8
W0102_Printing_45X35
 62
1
100
AcDbSpline
 70
8
 71
3
 72
8
 73
4
 74
0
 40
0
 40
0
 40
0
 40
0
 40
1
 40
1
 40
1
 40
1
 10
1644.227659
 20
383.491790
 30
0.0
 10
1644.227659
 20
391.319790
 30
0.0
 10
1650.572659
 20
397.664790
 30
0.0
 10
1658.400659
 20
397.664790
 30
0.0
  0
SPLINE
  5
2af
100
AcDbEntity
  8
W0102_Printing_45X35
 62
1
100
AcDbSpline
 70
8
 71
3
 72
8
 73
4
 74
0
 40
0
 40
0
 40
0
 40
0
 40
1
 40
1
 40
1
 40
1
 10
1658.400659
 20
397.664790
 30
0.0
 10
1666.228658
 20
397.664790
 30
0.0
 10
1672.573658
 20
391.319790
 30
0.0
 10
1672.573658
 20
383.491790
 30
0.0
  0
LWPOLYLINE
  5
2b0
100
AcDbEntity
  8
W0102_Printing_45X35
 62
1
100
AcDbPolyline
 90
1
 70
1
 10
1630.054059
 20
383.491790
 30
0.0
  0
SPLINE
  5
2b1
100
AcDbEntity
  8
W0102_Printing_45X35
 62
1
100
AcDbSpline
 70
8
 71
3
 72
8
 73
4
 74
0
 40
0
 40
0
 40
0
 40
0
 40
1
 40
1
 40
1
 40
1
 10
1715.093457
 20
383.491790
 30
0.0
 10
1715.093457
 20
375.663791
 30
0.0
 10
1708.747457
 20
369.318791
 30
0.0
 10
1700.920457
 20
369.318791
 30
0.0
  0
SPLINE
  5
2b2
100
AcDbEntity
  8
W0102_Printing_45X35
 62
1
100
AcDbSpline
 70
8
 71
3
 72
8
 73
4
 74
0
 40
0
 40
0
 40
0
 40
0
 40
1
 40
1
 40
1
 40
1
 10
1700.920457
 20
369.318791
 30
0.0
 10
1693.092458
 20
369.318791
 30
0.0
 10
1686.747458
 20
375.663791
 30
0.0
 10
1686.747458
 20
383.491790
 30
0.0
  0
SPLINE
  5
2b3
100
AcDbEntity
  8
W0102_Printing_45X35
 62
1
100
AcDbSpline
 70
8
 71
3
 72
8
 73
4
 74
0
 40
0
 40
0
 40
0
 40
0
 40
1
 40
1
 40
1
 40
1
 10
1686.747458
 20
383.491790
 30
0.0
 10
1686.747458
 20
391.319790
 30
0.0
 10
1693.092458
 20
397.664790
 30
0.0
 10
1700.920457
 20
397.664790
 30
0.0
  0
SPLINE
  5
2b4
100
AcDbEntity
  8
W0102_Printing_45X35
 62
1
100
AcDbSpline
 70
8
 71
3
 72
8
 73
4
 74
0
 40
0
 40
0
 40
0
 40
0
 40
1
 40
1
 40
1
 40
1
 10
1700.920457
 20
397.664790
 30
0.0
 10
1708.747457
 20
397.664790
 30
0.0
 10
1715.093457
 20
391.319790
 30
0.0
 10
1715.093457
 20
383.491790
 30
0.0
  0
LWPOLYLINE
  5
2b5
100
AcDbEntity
  8
W0102_Printing_45X35
 62
1
100
AcDbPolyline
 90
1
 70
1
 10
1672.573658
 20
383.491790
 30
0.0
  0
SPLINE
  5
2b6
100
AcDbEntity
  8
W0102_Printing_45X35
 62
1
100
AcDbSpline
 70
8
 71
3
 72
8
 73
4
 74
0
 40
0
 40
0
 40
0
 40
0
 40
1
 40
1
 40
1
 40
1
 10
1757.613156
 20
383.491790
 30
0.0
 10
1757.613156
 20
375.663791
 30
0.0
 10
1751.267156
 20
369.318791
 30
0.0
 10
1743.440156
 20
369.318791
 30
0.0
  0
SPLINE
  5
2b7
100
AcDbEntity
  8
W0102_Printing_45X35
 62
1
100
AcDbSpline
 70
8
 71
3
 72
8
 73
4
 74
0
 40
0
 40
0
 40
0
 40
0
 40
1
 40
1
 40
1
 40
1
 10
1743.440156
 20
369.318791
 30
0.0
 10
1735.612157
 20
369.318791
 30
0.0
 10
1729.267157
 20
375.663791
 30
0.0
 10
1729.267157
 20
383.491790
 30
0.0
  0
SPLINE
  5
2b8
100
AcDbEntity
  8
W0102_Printing_45X35
 62
1
100
AcDbSpline
 70
8
 71
3
 72
8
 73
4
 74
0
 40
0
 40
0
 40
0
 40
0
 40
1
 40
1
 40
1
 40
1
 10
1729.267157
 20
383.491790
 30
0.0
 10
1729.267157
 20
391.319790
 30
0.0
 10
1735.612157
 20
397.664790
 30
0.0
 10
1743.440156
 20
397.664790
 30
0.0
  0
SPLINE
  5
2b9
100
AcDbEntity
  8
W0102_Printing_45X35
 62
1
100
AcDbSpline
 70
8
 71
3
 72
8
 73
4
 74
0
 40
0
 40
0
 40
0
 40
0
 40
1
 40
1
 40
1
 40
1
 10
1743.440156
 20
397.664790
 30
0.0
 10
1751.267156
 20
397.664790
 30
0.0
 10
1757.613156
 20
391.319790
 30
0.0
 10
1757.613156
 20
383.491790
 30
0.0
  0
LWPOLYLINE
  5
2ba
100
AcDbEntity
  8
W0102_Printing_45X35
 62
1
100
AcDbPolyline
 90
1
 70
1
 10
1715.093457
 20
383.491790
 30
0.0
  0
SPLINE
  5
2bb
100
AcDbEntity
  8
W0102_Printing_45X35
 62
1
100
AcDbSpline
 70
8
 71
3
 72
8
 73
4
 74
0
 40
0
 40
0
 40
0
 40
0
 40
1
 40
1
 40
1
 40
1
 10
1800.132755
 20
383.491790
 30
0.0
 10
1800.132755
 20
375.663791
 30
0.0
 10
1793.786755
 20
369.318791
 30
0.0
 10
1785.959755
 20
369.318791
 30
0.0
  0
SPLINE
  5
2bc
100
AcDbEntity
  8
W0102_Printing_45X35
 62
1
100
AcDbSpline
 70
8
 71
3
 72
8
 73
4
 74
0
 40
0
 40
0
 40
0
 40
0
 40
1
 40
1
 40
1
 40
1
 10
1785.959755
 20
369.318791
 30
0.0
 10
1778.131756
 20
369.318791
 30
0.0
 10
1771.786756
 20
375.663791
 30
0.0
 10
1771.786756
 20
383.491790
 30
0.0
  0
SPLINE
  5
2bd
100
AcDbEntity
  8
W0102_Printing_45X35
 62
1
100
AcDbSpline
 70
8
 71
3
 72
8
 73
4
 74
0
 40
0
 40
0
 40
0
 40
0
 40
1
 40
1
 40
1
 40
1
 10
1771.786756
 20
383.491790
 30
0.0
 10
1771.786756
 20
391.319790
 30
0.0
 10
1778.131756
 20
397.664790
 30
0.0
 10
1785.959755
 20
397.664790
 30
0.0
  0
SPLINE
  5
2be
100
AcDbEntity
  8
W0102_Printing_45X35
 62
1
100
AcDbSpline
 70
8
 71
3
 72
8
 73
4
 74
0
 40
0
 40
0
 40
0
 40
0
 40
1
 40
1
 40
1
 40
1
 10
1785.959755
 20
397.664790
 30
0.0
 10
1793.786755
 20
397.664790
 30
0.0
 10
1800.132755
 20
391.319790
 30
0.0
 10
1800.132755
 20
383.491790
 30
0.0
  0
LWPOLYLINE
  5
2bf
100
AcDbEntity
  8
W0102_Printing_45X35
 62
1
100
AcDbPolyline
 90
1
 70
1
 10
1757.613156
 20
383.491790
 30
0.0
  0
SPLINE
  5
2c0
100
AcDbEntity
  8
W0102_Printing_45X35
 62
1
100
AcDbSpline
 70
8
 71
3
 72
8
 73
4
 74
0
 40
0
 40
0
 40
0
 40
0
 40
1
 40
1
 40
1
 40
1
 10
1842.652454
 20
383.491790
 30
0.0
 10
1842.652454
 20
375.663791
 30
0.0
 10
1836.307454
 20
369.318791
 30
0.0
 10
1828.479454
 20
369.318791
 30
0.0
  0
SPLINE
  5
2c1
100
AcDbEntity
  8
W0102_Printing_45X35
 62
1
100
AcDbSpline
 70
8
 71
3
 72
8
 73
4
 74
0
 40
0
 40
0
 40
0
 40
0
 40
1
 40
1
 40
1
 40
1
 10
1828.479454
 20
369.318791
 30
0.0
 10
1820.651454
 20
369.318791
 30
0.0
 10
1814.306455
 20
375.663791
 30
0.0
 10
1814.306455
 20
383.491790
 30
0.0
  0
SPLINE
  5
2c2
100
AcDbEntity
  8
W0102_Printing_45X35
 62
1
100
AcDbSpline
 70
8
 71
3
 72
8
 73
4
 74
0
 40
0
 40
0
 40
0
 40
0
 40
1
 40
1
 40
1
 40
1
 10
1814.306455
 20
383.491790
 30
0.0
 10
1814.306455
 20
391.319790
 30
0.0
 10
1820.651454
 20
397.664790
 30
0.0
 10
1828.479454
 20
397.664790
 30
0.0
  0
SPLINE
  5
2c3
100
AcDbEntity
  8
W0102_Printing_45X35
 62
1
100
AcDbSpline
 70
8
 71
3
 72
8
 73
4
 74
0
 40
0
 40
0
 40
0
 40
0
 40
1
 40
1
 40
1
 40
1
 10
1828.479454
 20
397.664790
 30
0.0
 10
1836.307454
 20
397.664790
 30
0.0
 10
1842.652454
 20
391.319790
 30
0.0
 10
1842.652454
 20
383.491790
 30
0.0
  0
LWPOLYLINE
  5
2c4
100
AcDbEntity
  8
W0102_Printing_45X35
 62
1
100
AcDbPolyline
 90
1
 70
1
 10
1800.132755
 20
383.491790
 30
0.0
  0
SPLINE
  5
2c5
100
AcDbEntity
  8
W0102_Printing_45X35
 62
1
100
AcDbSpline
 70
8
 71
3
 72
8
 73
4
 74
0
 40
0
 40
0
 40
0
 40
0
 40
1
 40
1
 40
1
 40
1
 10
1885.172153
 20
383.491790
 30
0.0
 10
1885.172153
 20
375.663791
 30
0.0
 10
1878.826153
 20
369.318791
 30
0.0
 10
1870.999153
 20
369.318791
 30
0.0
  0
SPLINE
  5
2c6
100
AcDbEntity
  8
W0102_Printing_45X35
 62
1
100
AcDbSpline
 70
8
 71
3
 72
8
 73
4
 74
0
 40
0
 40
0
 40
0
 40
0
 40
1
 40
1
 40
1
 40
1
 10
1870.999153
 20
369.318791
 30
0.0
 10
1863.171153
 20
369.318791
 30
0.0
 10
1856.826154
 20
375.663791
 30
0.0
 10
1856.826154
 20
383.491790
 30
0.0
  0
SPLINE
  5
2c7
100
AcDbEntity
  8
W0102_Printing_45X35
 62
1
100
AcDbSpline
 70
8
 71
3
 72
8
 73
4
 74
0
 40
0
 40
0
 40
0
 40
0
 40
1
 40
1
 40
1
 40
1
 10
1856.826154
 20
383.491790
 30
0.0
 10
1856.826154
 20
391.319790
 30
0.0
 10
1863.171153
 20
397.664790
 30
0.0
 10
1870.999153
 20
397.664790
 30
0.0
  0
SPLINE
  5
2c8
100
AcDbEntity
  8
W0102_Printing_45X35
 62
1
100
AcDbSpline
 70
8
 71
3
 72
8
 73
4
 74
0
 40
0
 40
0
 40
0
 40
0
 40
1
 40
1
 40
1
 40
1
 10
1870.999153
 20
397.664790
 30
0.0
 10
1878.826153
 20
397.664790
 30
0.0
 10
1885.172153
 20
391.319790
 30
0.0
 10
1885.172153
 20
383.491790
 30
0.0
  0
LWPOLYLINE
  5
2c9
100
AcDbEntity
  8
W0102_Printing_45X35
 62
1
100
AcDbPolyline
 90
1
 70
1
 10
1842.652454
 20
383.491790
 30
0.0
  0
SPLINE
  5
2ca
100
AcDbEntity
  8
W0102_Printing_45X35
 62
1
100
AcDbSpline
 70
8
 71
3
 72
8
 73
4
 74
0
 40
0
 40
0
 40
0
 40
0
 40
1
 40
1
 40
1
 40
1
 10
1927.691852
 20
383.491790
 30
0.0
 10
1927.691852
 20
375.663791
 30
0.0
 10
1921.345852
 20
369.318791
 30
0.0
 10
1913.518852
 20
369.318791
 30
0.0
  0
SPLINE
  5
2cb
100
AcDbEntity
  8
W0102_Printing_45X35
 62
1
100
AcDbSpline
 70
8
 71
3
 72
8
 73
4
 74
0
 40
0
 40
0
 40
0
 40
0
 40
1
 40
1
 40
1
 40
1
 10
1913.518852
 20
369.318791
 30
0.0
 10
1905.690852
 20
369.318791
 30
0.0
 10
1899.345853
 20
375.663791
 30
0.0
 10
1899.345853
 20
383.491790
 30
0.0
  0
SPLINE
  5
2cc
100
AcDbEntity
  8
W0102_Printing_45X35
 62
1
100
AcDbSpline
 70
8
 71
3
 72
8
 73
4
 74
0
 40
0
 40
0
 40
0
 40
0
 40
1
 40
1
 40
1
 40
1
 10
1899.345853
 20
383.491790
 30
0.0
 10
1899.345853
 20
391.319790
 30
0.0
 10
1905.690852
 20
397.664790
 30
0.0
 10
1913.518852
 20
397.664790
 30
0.0
  0
SPLINE
  5
2cd
100
AcDbEntity
  8
W0102_Printing_45X35
 62
1
100
AcDbSpline
 70
8
 71
3
 72
8
 73
4
 74
0
 40
0
 40
0
 40
0
 40
0
 40
1
 40
1
 40
1
 40
1
 10
1913.518852
 20
397.664790
 30
0.0
 10
1921.345852
 20
397.664790
 30
0.0
 10
1927.691852
 20
391.319790
 30
0.0
 10
1927.691852
 20
383.491790
 30
0.0
  0
LWPOLYLINE
  5
2ce
100
AcDbEntity
  8
W0102_Printing_45X35
 62
1
100
AcDbPolyline
 90
1
 70
1
 10
1885.172153
 20
383.491790
 30
0.0
  0
SPLINE
  5
2cf
100
AcDbEntity
  8
W0102_Printing_45X35
 62
1
100
AcDbSpline
 70
8
 71
3
 72
8
 73
4
 74
0
 40
0
 40
0
 40
0
 40
0
 40
1
 40
1
 40
1
 40
1
 10
1970.211451
 20
383.491790
 30
0.0
 10
1970.211451
 20
375.663791
 30
0.0
 10
1963.865451
 20
369.318791
 30
0.0
 10
1956.038451
 20
369.318791
 30
0.0
  0
SPLINE
  5
2d0
100
AcDbEntity
  8
W0102_Printing_45X35
 62
1
100
AcDbSpline
 70
8
 71
3
 72
8
 73
4
 74
0
 40
0
 40
0
 40
0
 40
0
 40
1
 40
1
 40
1
 40
1
 10
1956.038451
 20
369.318791
 30
0.0
 10
1948.210451
 20
369.318791
 30
0.0
 10
1941.865451
 20
375.663791
 30
0.0
 10
1941.865451
 20
383.491790
 30
0.0
  0
SPLINE
  5
2d1
100
AcDbEntity
  8
W0102_Printing_45X35
 62
1
100
AcDbSpline
 70
8
 71
3
 72
8
 73
4
 74
0
 40
0
 40
0
 40
0
 40
0
 40
1
 40
1
 40
1
 40
1
 10
1941.865451
 20
383.491790
 30
0.0
 10
1941.865451
 20
391.319790
 30
0.0
 10
1948.210451
 20
397.664790
 30
0.0
 10
1956.038451
 20
397.664790
 30
0.0
  0
SPLINE
  5
2d2
100
AcDbEntity
  8
W0102_Printing_45X35
 62
1
100
AcDbSpline
 70
8
 71
3
 72
8
 73
4
 74
0
 40
0
 40
0
 40
0
 40
0
 40
1
 40
1
 40
1
 40
1
 10
1956.038451
 20
397.664790
 30
0.0
 10
1963.865451
 20
397.664790
 30
0.0
 10
1970.211451
 20
391.319790
 30
0.0
 10
1970.211451
 20
383.491790
 30
0.0
  0
LWPOLYLINE
  5
2d3
100
AcDbEntity
  8
W0102_Printing_45X35
 62
1
100
AcDbPolyline
 90
1
 70
1
 10
1927.691852
 20
383.491790
 30
0.0
  0
SPLINE
  5
2d4
100
AcDbEntity
  8
W0102_Printing_45X35
 62
1
100
AcDbSpline
 70
8
 71
3
 72
8
 73
4
 74
0
 40
0
 40
0
 40
0
 40
0
 40
1
 40
1
 40
1
 40
1
 10
2012.731150
 20
383.491790
 30
0.0
 10
2012.731150
 20
375.663791
 30
0.0
 10
2006.386150
 20
369.318791
 30
0.0
 10
1998.558150
 20
369.318791
 30
0.0
  0
SPLINE
  5
2d5
100
AcDbEntity
  8
W0102_Printing_45X35
 62
1
100
AcDbSpline
 70
8
 71
3
 72
8
 73
4
 74
0
 40
0
 40
0
 40
0
 40
0
 40
1
 40
1
 40
1
 40
1
 10
1998.558150
 20
369.318791
 30
0.0
 10
1990.730150
 20
369.318791
 30
0.0
 10
1984.385150
 20
375.663791
 30
0.0
 10
1984.385150
 20
383.491790
 30
0.0
  0
SPLINE
  5
2d6
100
AcDbEntity
  8
W0102_Printing_45X35
 62
1
100
AcDbSpline
 70
8
 71
3
 72
8
 73
4
 74
0
 40
0
 40
0
 40
0
 40
0
 40
1
 40
1
 40
1
 40
1
 10
1984.385150
 20
383.491790
 30
0.0
 10
1984.385150
 20
391.319790
 30
0.0
 10
1990.730150
 20
397.664790
 30
0.0
 10
1998.558150
 20
397.664790
 30
0.0
  0
SPLINE
  5
2d7
100
AcDbEntity
  8
W0102_Printing_45X35
 62
1
100
AcDbSpline
 70
8
 71
3
 72
8
 73
4
 74
0
 40
0
 40
0
 40
0
 40
0
 40
1
 40
1
 40
1
 40
1
 10
1998.558150
 20
397.664790
 30
0.0
 10
2006.386150
 20
397.664790
 30
0.0
 10
2012.731150
 20
391.319790
 30
0.0
 10
2012.731150
 20
383.491790
 30
0.0
  0
LWPOLYLINE
  5
2d8
100
AcDbEntity
  8
W0102_Printing_45X35
 62
1
100
AcDbPolyline
 90
1
 70
1
 10
1970.211451
 20
383.491790
 30
0.0
  0
SPLINE
  5
2d9
100
AcDbEntity
  8
W0102_Printing_45X35
 62
1
100
AcDbSpline
 70
8
 71
3
 72
8
 73
4
 74
0
 40
0
 40
0
 40
0
 40
0
 40
1
 40
1
 40
1
 40
1
 10
2055.250949
 20
383.491790
 30
0.0
 10
2055.250949
 20
375.663791
 30
0.0
 10
2048.904949
 20
369.318791
 30
0.0
 10
2041.077949
 20
369.318791
 30
0.0
  0
SPLINE
  5
2da
100
AcDbEntity
  8
W0102_Printing_45X35
 62
1
100
AcDbSpline
 70
8
 71
3
 72
8
 73
4
 74
0
 40
0
 40
0
 40
0
 40
0
 40
1
 40
1
 40
1
 40
1
 10
2041.077949
 20
369.318791
 30
0.0
 10
2033.249949
 20
369.318791
 30
0.0
 10
2026.904949
 20
375.663791
 30
0.0
 10
2026.904949
 20
383.491790
 30
0.0
  0
SPLINE
  5
2db
100
AcDbEntity
  8
W0102_Printing_45X35
 62
1
100
AcDbSpline
 70
8
 71
3
 72
8
 73
4
 74
0
 40
0
 40
0
 40
0
 40
0
 40
1
 40
1
 40
1
 40
1
 10
2026.904949
 20
383.491790
 30
0.0
 10
2026.904949
 20
391.319790
 30
0.0
 10
2033.249949
 20
397.664790
 30
0.0
 10
2041.077949
 20
397.664790
 30
0.0
  0
SPLINE
  5
2dc
100
AcDbEntity
  8
W0102_Printing_45X35
 62
1
100
AcDbSpline
 70
8
 71
3
 72
8
 73
4
 74
0
 40
0
 40
0
 40
0
 40
0
 40
1
 40
1
 40
1
 40
1
 10
2041.077949
 20
397.664790
 30
0.0
 10
2048.904949
 20
397.664790
 30
0.0
 10
2055.250949
 20
391.319790
 30
0.0
 10
2055.250949
 20
383.491790
 30
0.0
  0
LWPOLYLINE
  5
2dd
100
AcDbEntity
  8
W0102_Printing_45X35
 62
1
100
AcDbPolyline
 90
1
 70
1
 10
2012.731150
 20
383.491790
 30
0.0
  0
SPLINE
  5
2de
100
AcDbEntity
  8
W0102_Printing_45X35
 62
1
100
AcDbSpline
 70
8
 71
3
 72
8
 73
4
 74
0
 40
0
 40
0
 40
0
 40
0
 40
1
 40
1
 40
1
 40
1
 10
2097.770448
 20
383.491790
 30
0.0
 10
2097.770448
 20
375.663791
 30
0.0
 10
2091.425448
 20
369.318791
 30
0.0
 10
2083.597448
 20
369.318791
 30
0.0
  0
SPLINE
  5
2df
100
AcDbEntity
  8
W0102_Printing_45X35
 62
1
100
AcDbSpline
 70
8
 71
3
 72
8
 73
4
 74
0
 40
0
 40
0
 40
0
 40
0
 40
1
 40
1
 40
1
 40
1
 10
2083.597448
 20
369.318791
 30
0.0
 10
2075.769448
 20
369.318791
 30
0.0
 10
2069.424448
 20
375.663791
 30
0.0
 10
2069.424448
 20
383.491790
 30
0.0
  0
SPLINE
  5
2e0
100
AcDbEntity
  8
W0102_Printing_45X35
 62
1
100
AcDbSpline
 70
8
 71
3
 72
8
 73
4
 74
0
 40
0
 40
0
 40
0
 40
0
 40
1
 40
1
 40
1
 40
1
 10
2069.424448
 20
383.491790
 30
0.0
 10
2069.424448
 20
391.319790
 30
0.0
 10
2075.769448
 20
397.664790
 30
0.0
 10
2083.597448
 20
397.664790
 30
0.0
  0
SPLINE
  5
2e1
100
AcDbEntity
  8
W0102_Printing_45X35
 62
1
100
AcDbSpline
 70
8
 71
3
 72
8
 73
4
 74
0
 40
0
 40
0
 40
0
 40
0
 40
1
 40
1
 40
1
 40
1
 10
2083.597448
 20
397.664790
 30
0.0
 10
2091.425448
 20
397.664790
 30
0.0
 10
2097.770448
 20
391.319790
 30
0.0
 10
2097.770448
 20
383.491790
 30
0.0
  0
LWPOLYLINE
  5
2e2
100
AcDbEntity
  8
W0102_Printing_45X35
 62
1
100
AcDbPolyline
 90
1
 70
1
 10
2055.250949
 20
383.491790
 30
0.0
  0
SPLINE
  5
2e3
100
AcDbEntity
  8
W0102_Printing_45X35
 62
1
100
AcDbSpline
 70
8
 71
3
 72
8
 73
4
 74
0
 40
0
 40
0
 40
0
 40
0
 40
1
 40
1
 40
1
 40
1
 10
2140.290246
 20
383.491790
 30
0.0
 10
2140.290246
 20
375.663791
 30
0.0
 10
2133.945247
 20
369.318791
 30
0.0
 10
2126.117247
 20
369.318791
 30
0.0
  0
SPLINE
  5
2e4
100
AcDbEntity
  8
W0102_Printing_45X35
 62
1
100
AcDbSpline
 70
8
 71
3
 72
8
 73
4
 74
0
 40
0
 40
0
 40
0
 40
0
 40
1
 40
1
 40
1
 40
1
 10
2126.117247
 20
369.318791
 30
0.0
 10
2118.289247
 20
369.318791
 30
0.0
 10
2111.944247
 20
375.663791
 30
0.0
 10
2111.944247
 20
383.491790
 30
0.0
  0
SPLINE
  5
2e5
100
AcDbEntity
  8
W0102_Printing_45X35
 62
1
100
AcDbSpline
 70
8
 71
3
 72
8
 73
4
 74
0
 40
0
 40
0
 40
0
 40
0
 40
1
 40
1
 40
1
 40
1
 10
2111.944247
 20
383.491790
 30
0.0
 10
2111.944247
 20
391.319790
 30
0.0
 10
2118.289247
 20
397.664790
 30
0.0
 10
2126.117247
 20
397.664790
 30
0.0
  0
SPLINE
  5
2e6
100
AcDbEntity
  8
W0102_Printing_45X35
 62
1
100
AcDbSpline
 70
8
 71
3
 72
8
 73
4
 74
0
 40
0
 40
0
 40
0
 40
0
 40
1
 40
1
 40
1
 40
1
 10
2126.117247
 20
397.664790
 30
0.0
 10
2133.945247
 20
397.664790
 30
0.0
 10
2140.290246
 20
391.319790
 30
0.0
 10
2140.290246
 20
383.491790
 30
0.0
  0
LWPOLYLINE
  5
2e7
100
AcDbEntity
  8
W0102_Printing_45X35
 62
1
100
AcDbPolyline
 90
1
 70
1
 10
2097.770448
 20
383.491790
 30
0.0
  0
SPLINE
  5
2e8
100
AcDbEntity
  8
W0102_Printing_45X35
 62
1
100
AcDbSpline
 70
8
 71
3
 72
8
 73
4
 74
0
 40
0
 40
0
 40
0
 40
0
 40
1
 40
1
 40
1
 40
1
 10
2182.810045
 20
383.491790
 30
0.0
 10
2182.810045
 20
375.663791
 30
0.0
 10
2176.464046
 20
369.318791
 30
0.0
 10
2168.637046
 20
369.318791
 30
0.0
  0
SPLINE
  5
2e9
100
AcDbEntity
  8
W0102_Printing_45X35
 62
1
100
AcDbSpline
 70
8
 71
3
 72
8
 73
4
 74
0
 40
0
 40
0
 40
0
 40
0
 40
1
 40
1
 40
1
 40
1
 10
2168.637046
 20
369.318791
 30
0.0
 10
2160.809046
 20
369.318791
 30
0.0
 10
2154.464046
 20
375.663791
 30
0.0
 10
2154.464046
 20
383.491790
 30
0.0
  0
SPLINE
  5
2ea
100
AcDbEntity
  8
W0102_Printing_45X35
 62
1
100
AcDbSpline
 70
8
 71
3
 72
8
 73
4
 74
0
 40
0
 40
0
 40
0
 40
0
 40
1
 40
1
 40
1
 40
1
 10
2154.464046
 20
383.491790
 30
0.0
 10
2154.464046
 20
391.319790
 30
0.0
 10
2160.809046
 20
397.664790
 30
0.0
 10
2168.637046
 20
397.664790
 30
0.0
  0
SPLINE
  5
2eb
100
AcDbEntity
  8
W0102_Printing_45X35
 62
1
100
AcDbSpline
 70
8
 71
3
 72
8
 73
4
 74
0
 40
0
 40
0
 40
0
 40
0
 40
1
 40
1
 40
1
 40
1
 10
2168.637046
 20
397.664790
 30
0.0
 10
2176.464046
 20
397.664790
 30
0.0
 10
2182.810045
 20
391.319790
 30
0.0
 10
2182.810045
 20
383.491790
 30
0.0
  0
LWPOLYLINE
  5
2ec
100
AcDbEntity
  8
W0102_Printing_45X35
 62
1
100
AcDbPolyline
 90
1
 70
1
 10
2140.290246
 20
383.491790
 30
0.0
  0
SPLINE
  5
2ed
100
AcDbEntity
  8
W0102_Printing_45X35
 62
1
100
AcDbSpline
 70
8
 71
3
 72
8
 73
4
 74
0
 40
0
 40
0
 40
0
 40
0
 40
1
 40
1
 40
1
 40
1
 10
2225.329544
 20
383.491790
 30
0.0
 10
2225.329544
 20
375.663791
 30
0.0
 10
2218.984545
 20
369.318791
 30
0.0
 10
2211.156545
 20
369.318791
 30
0.0
  0
SPLINE
  5
2ee
100
AcDbEntity
  8
W0102_Printing_45X35
 62
1
100
AcDbSpline
 70
8
 71
3
 72
8
 73
4
 74
0
 40
0
 40
0
 40
0
 40
0
 40
1
 40
1
 40
1
 40
1
 10
2211.156545
 20
369.318791
 30
0.0
 10
2203.328545
 20
369.318791
 30
0.0
 10
2196.983545
 20
375.663791
 30
0.0
 10
2196.983545
 20
383.491790
 30
0.0
  0
SPLINE
  5
2ef
100
AcDbEntity
  8
W0102_Printing_45X35
 62
1
100
AcDbSpline
 70
8
 71
3
 72
8
 73
4
 74
0
 40
0
 40
0
 40
0
 40
0
 40
1
 40
1
 40
1
 40
1
 10
2196.983545
 20
383.491790
 30
0.0
 10
2196.983545
 20
391.319790
 30
0.0
 10
2203.328545
 20
397.664790
 30
0.0
 10
2211.156545
 20
397.664790
 30
0.0
  0
SPLINE
  5
2f0
100
AcDbEntity
  8
W0102_Printing_45X35
 62
1
100
AcDbSpline
 70
8
 71
3
 72
8
 73
4
 74
0
 40
0
 40
0
 40
0
 40
0
 40
1
 40
1
 40
1
 40
1
 10
2211.156545
 20
397.664790
 30
0.0
 10
2218.984545
 20
397.664790
 30
0.0
 10
2225.329544
 20
391.319790
 30
0.0
 10
2225.329544
 20
383.491790
 30
0.0
  0
LWPOLYLINE
  5
2f1
100
AcDbEntity
  8
W0102_Printing_45X35
 62
1
100
AcDbPolyline
 90
1
 70
1
 10
2182.810045
 20
383.491790
 30
0.0
  0
SPLINE
  5
2f2
100
AcDbEntity
  8
W0102_Printing_45X35
 62
1
100
AcDbSpline
 70
8
 71
3
 72
8
 73
4
 74
0
 40
0
 40
0
 40
0
 40
0
 40
1
 40
1
 40
1
 40
1
 10
2267.849343
 20
383.491790
 30
0.0
 10
2267.849343
 20
375.663791
 30
0.0
 10
2261.504343
 20
369.318791
 30
0.0
 10
2253.676344
 20
369.318791
 30
0.0
  0
SPLINE
  5
2f3
100
AcDbEntity
  8
W0102_Printing_45X35
 62
1
100
AcDbSpline
 70
8
 71
3
 72
8
 73
4
 74
0
 40
0
 40
0
 40
0
 40
0
 40
1
 40
1
 40
1
 40
1
 10
2253.676344
 20
369.318791
 30
0.0
 10
2245.848344
 20
369.318791
 30
0.0
 10
2239.503344
 20
375.663791
 30
0.0
 10
2239.503344
 20
383.491790
 30
0.0
  0
SPLINE
  5
2f4
100
AcDbEntity
  8
W0102_Printing_45X35
 62
1
100
AcDbSpline
 70
8
 71
3
 72
8
 73
4
 74
0
 40
0
 40
0
 40
0
 40
0
 40
1
 40
1
 40
1
 40
1
 10
2239.503344
 20
383.491790
 30
0.0
 10
2239.503344
 20
391.319790
 30
0.0
 10
2245.848344
 20
397.664790
 30
0.0
 10
2253.676344
 20
397.664790
 30
0.0
  0
SPLINE
  5
2f5
100
AcDbEntity
  8
W0102_Printing_45X35
 62
1
100
AcDbSpline
 70
8
 71
3
 72
8
 73
4
 74
0
 40
0
 40
0
 40
0
 40
0
 40
1
 40
1
 40
1
 40
1
 10
2253.676344
 20
397.664790
 30
0.0
 10
2261.504343
 20
397.664790
 30
0.0
 10
2267.849343
 20
391.319790
 30
0.0
 10
2267.849343
 20
383.491790
 30
0.0
  0
LWPOLYLINE
  5
2f6
100
AcDbEntity
  8
W0102_Printing_45X35
 62
1
100
AcDbPolyline
 90
1
 70
1
 10
2225.329544
 20
383.491790
 30
0.0
  0
SPLINE
  5
2f7
100
AcDbEntity
  8
W0102_Printing_45X35
 62
1
100
AcDbSpline
 70
8
 71
3
 72
8
 73
4
 74
0
 40
0
 40
0
 40
0
 40
0
 40
1
 40
1
 40
1
 40
1
 10
2310.369042
 20
383.491790
 30
0.0
 10
2310.369042
 20
375.663791
 30
0.0
 10
2304.023042
 20
369.318791
 30
0.0
 10
2296.196043
 20
369.318791
 30
0.0
  0
SPLINE
  5
2f8
100
AcDbEntity
  8
W0102_Printing_45X35
 62
1
100
AcDbSpline
 70
8
 71
3
 72
8
 73
4
 74
0
 40
0
 40
0
 40
0
 40
0
 40
1
 40
1
 40
1
 40
1
 10
2296.196043
 20
369.318791
 30
0.0
 10
2288.368043
 20
369.318791
 30
0.0
 10
2282.023043
 20
375.663791
 30
0.0
 10
2282.023043
 20
383.491790
 30
0.0
  0
SPLINE
  5
2f9
100
AcDbEntity
  8
W0102_Printing_45X35
 62
1
100
AcDbSpline
 70
8
 71
3
 72
8
 73
4
 74
0
 40
0
 40
0
 40
0
 40
0
 40
1
 40
1
 40
1
 40
1
 10
2282.023043
 20
383.491790
 30
0.0
 10
2282.023043
 20
391.319790
 30
0.0
 10
2288.368043
 20
397.664790
 30
0.0
 10
2296.196043
 20
397.664790
 30
0.0
  0
SPLINE
  5
2fa
100
AcDbEntity
  8
W0102_Printing_45X35
 62
1
100
AcDbSpline
 70
8
 71
3
 72
8
 73
4
 74
0
 40
0
 40
0
 40
0
 40
0
 40
1
 40
1
 40
1
 40
1
 10
2296.196043
 20
397.664790
 30
0.0
 10
2304.023042
 20
397.664790
 30
0.0
 10
2310.369042
 20
391.319790
 30
0.0
 10
2310.369042
 20
383.491790
 30
0.0
  0
LWPOLYLINE
  5
2fb
100
AcDbEntity
  8
W0102_Printing_45X35
 62
1
100
AcDbPolyline
 90
1
 70
1
 10
2267.849343
 20
383.491790
 30
0.0
  0
LWPOLYLINE
  5
2fc
100
AcDbEntity
  8
W0102_Printing_45X35
 62
1
100
AcDbPolyline
 90
1
 70
1
 10
2310.369042
 20
383.491790
 30
0.0
  0
ENDSEC
  0
SECTION
  2
OBJECTS
  0
DICTIONARY
  5
C
330
0
100
AcDbDictionary
  3
ACAD_GROUP
350
D
  3
ACAD_MLINESTYLE
350
17
  0
DICTIONARY
  5
D
330
C
100
AcDbDictionary
  0
DICTIONARY
  5
1A
330
C
100
AcDbDictionary
  0
DICTIONARY
  5
17
330
C
100
AcDbDictionary
  3
STANDARD
350
18
  0
DICTIONARY
  5
19
330
C
100
AcDbDictionary
  0
ENDSEC
  0
EOF
