  0
SECTION
  2
HEADER
  9
$ACADVER
  1
AC1014
  9
$HANDSEED
  5
FFFF
  9
$MEASUREMENT
 70
     1
  0
ENDSEC
  0
SECTION
  2
TABLES
  0
TABLE
  2
VPORT
  5
8
330
0
100
AcDbSymbolTable
 70
     4
  0
VPORT
  5
2E
330
8
100
AcDbSymbolTableRecord
100
AcDbViewportTableRecord
  2
*ACTIVE
 70
     0
 10
0.0
 20
0.0
 11
1.0
 21
1.0
 12
210.0
 22
148.5
 13
0.0
 23
0.0
 14
10.0
 24
10.0
 15
10.0
 25
10.0
 16
0.0
 26
0.0
 36
1.0
 17
0.0
 27
0.0
 37
0.0
 40
341.0
 41
1.24
 42
50.0
 43
0.0
 44
0.0
 50
0.0
 51
0.0
 71
     0
 72
   100
 73
     1
 74
     3
 75
     0
 76
     0
 77
     0
 78
     0
  0
ENDTAB
  0
TABLE
  2
LTYPE
  5
5
330
0
100
AcDbSymbolTable
 70
     1
  0
LTYPE
  5
14
330
5
100
AcDbSymbolTableRecord
100
AcDbLinetypeTableRecord
  2
BYBLOCK
 70
     0
  3

 72
    65
 73
     0
 40
0.0
  0
LTYPE
  5
15
330
5
100
AcDbSymbolTableRecord
100
AcDbLinetypeTableRecord
  2
BYLAYER
 70
     0
  3

 72
    65
 73
     0
 40
0.0
  0
LTYPE
  5
16
330
5
100
AcDbSymbolTableRecord
100
AcDbLinetypeTableRecord
  2
CONTINUOUS
 70
     0
  3
Solid line
 72
    65
 73
     0
 40
0.0
  0
ENDTAB
  0
TABLE
  2
LAYER
  5
2
100
AcDbSymbolTable
 70
2
  0
LAYER
  5
50
100
AcDbSymbolTableRecord
100
AcDbLayerTableRecord
  2
0
 70
0
  6
CONTINUOUS
  0
LAYER
  5
51
100
AcDbSymbolTableRecord
100
AcDbLayerTableRecord
  2
W0102_Printing_35X25
 70
0
  6
CONTINUOUS
  0
ENDTAB
  0
TABLE
  2
STYLE
  5
3
330
0
100
AcDbSymbolTable
 70
     1
  0
STYLE
  5
11
330
3
100
AcDbSymbolTableRecord
100
AcDbTextStyleTableRecord
  2
STANDARD
 70
     0
 40
0.0
 41
1.0
 50
0.0
 71
     0
 42
2.5
  3
txt
  4

  0
ENDTAB
  0
TABLE
  2
VIEW
  5
6
330
0
100
AcDbSymbolTable
 70
     0
  0
ENDTAB
  0
TABLE
  2
UCS
  5
7
330
0
100
AcDbSymbolTable
 70
     0
  0
ENDTAB
  0
TABLE
  2
APPID
  5
9
330
0
100
AcDbSymbolTable
 70
     2
  0
APPID
  5
12
330
9
100
AcDbSymbolTableRecord
100
AcDbRegAppTableRecord
  2
ACAD
 70
     0
  0
ENDTAB
  0
TABLE
  2
DIMSTYLE
  5
A
330
0
100
AcDbSymbolTable
 70
     1
  0
DIMSTYLE
105
27
330
A
100
AcDbSymbolTableRecord
100
AcDbDimStyleTableRecord
  2
ISO-25
 70
     0
  3

  4

  5

  6

  7

 40
1.0
 41
2.5
 42
0.625
 43
3.75
 44
1.25
 45
0.0
 46
0.0
 47
0.0
 48
0.0
140
2.5
141
2.5
142
0.0
143
0.03937007874016
144
1.0
145
0.0
146
1.0
147
0.625
 71
     0
 72
     0
 73
     0
 74
     0
 75
     0
 76
     0
 77
     1
 78
     8
170
     0
171
     3
172
     1
173
     0
174
     0
175
     0
176
     0
177
     0
178
     0
270
     2
271
     2
272
     2
273
     2
274
     3
340
11
275
     0
280
     0
281
     0
282
     0
283
     0
284
     8
285
     0
286
     0
287
     3
288
     0
  0
ENDTAB
  0
TABLE
  2
BLOCK_RECORD
  5
1
330
0
100
AcDbSymbolTable
 70
     1
  0
BLOCK_RECORD
  5
1F
330
1
100
AcDbSymbolTableRecord
100
AcDbBlockTableRecord
  2
*MODEL_SPACE
  0
BLOCK_RECORD
  5
1B
330
1
100
AcDbSymbolTableRecord
100
AcDbBlockTableRecord
  2
*PAPER_SPACE
  0
ENDTAB
  0
ENDSEC
  0
SECTION
  2
BLOCKS
  0
BLOCK
  5
20
330
1F
100
AcDbEntity
  8
0
100
AcDbBlockBegin
  2
*MODEL_SPACE
 70
     0
 10
0.0
 20
0.0
 30
0.0
  3
*MODEL_SPACE
  1

  0
ENDBLK
  5
21
330
1F
100
AcDbEntity
  8
0
100
AcDbBlockEnd
  0
BLOCK
  5
1C
330
1B
100
AcDbEntity
 67
     1
  8
0
100
AcDbBlockBegin
  2
*PAPER_SPACE
  1

  0
ENDBLK
  5
1D
330
1B
100
AcDbEntity
 67
     1
  8
0
100
AcDbBlockEnd
  0
ENDSEC
  0
SECTION
  2
ENTITIES
  0
SPLINE
  5
100
100
AcDbEntity
  8
W0102_Printing_35X25
 62
1
100
AcDbSpline
 70
8
 71
3
 72
8
 73
4
 74
0
 40
0
 40
0
 40
0
 40
0
 40
1
 40
1
 40
1
 40
1
 10
1233.865269
 20
496.003588
 30
0.0
 10
1218.209270
 20
496.003588
 30
0.0
 10
1205.518270
 20
508.694587
 30
0.0
 10
1205.518270
 20
524.349587
 30
0.0
  0
LWPOLYLINE
  5
101
100
AcDbEntity
  8
W0102_Printing_35X25
 62
1
100
AcDbPolyline
 90
2
 70
0
 10
2169.298246
 20
496.003588
 30
0.0
 10
1233.865269
 20
496.003588
 30
0.0
  0
SPLINE
  5
102
100
AcDbEntity
  8
W0102_Printing_35X25
 62
1
100
AcDbSpline
 70
8
 71
3
 72
8
 73
4
 74
0
 40
0
 40
0
 40
0
 40
0
 40
1
 40
1
 40
1
 40
1
 10
1205.518270
 20
1176.318571
 30
0.0
 10
1205.518270
 20
1191.973570
 30
0.0
 10
1218.209270
 20
1204.664570
 30
0.0
 10
1233.865269
 20
1204.664570
 30
0.0
  0
LWPOLYLINE
  5
103
100
AcDbEntity
  8
W0102_Printing_35X25
 62
1
100
AcDbPolyline
 90
2
 70
0
 10
1205.518270
 20
524.349587
 30
0.0
 10
1205.518270
 20
1176.318571
 30
0.0
  0
SPLINE
  5
104
100
AcDbEntity
  8
W0102_Printing_35X25
 62
1
100
AcDbSpline
 70
8
 71
3
 72
8
 73
4
 74
0
 40
0
 40
0
 40
0
 40
0
 40
1
 40
1
 40
1
 40
1
 10
2169.298246
 20
1204.664570
 30
0.0
 10
2184.953245
 20
1204.664570
 30
0.0
 10
2197.644245
 20
1191.973570
 30
0.0
 10
2197.644245
 20
1176.318571
 30
0.0
  0
LWPOLYLINE
  5
105
100
AcDbEntity
  8
W0102_Printing_35X25
 62
1
100
AcDbPolyline
 90
2
 70
0
 10
1233.865269
 20
1204.664570
 30
0.0
 10
2169.298246
 20
1204.664570
 30
0.0
  0
SPLINE
  5
106
100
AcDbEntity
  8
W0102_Printing_35X25
 62
1
100
AcDbSpline
 70
8
 71
3
 72
8
 73
4
 74
0
 40
0
 40
0
 40
0
 40
0
 40
1
 40
1
 40
1
 40
1
 10
2197.644245
 20
524.349587
 30
0.0
 10
2197.644245
 20
508.694587
 30
0.0
 10
2184.953245
 20
496.003588
 30
0.0
 10
2169.298246
 20
496.003588
 30
0.0
  0
LWPOLYLINE
  5
107
100
AcDbEntity
  8
W0102_Printing_35X25
 62
1
100
AcDbPolyline
 90
2
 70
0
 10
2197.644245
 20
1176.318571
 30
0.0
 10
2197.644245
 20
524.349587
 30
0.0
  0
SPLINE
  5
108
100
AcDbEntity
  8
W0102_Printing_35X25
 62
1
100
AcDbSpline
 70
8
 71
3
 72
8
 73
4
 74
0
 40
0
 40
0
 40
0
 40
0
 40
1
 40
1
 40
1
 40
1
 10
1269.298168
 20
1176.318571
 30
0.0
 10
1269.298168
 20
1168.490571
 30
0.0
 10
1262.952168
 20
1162.145571
 30
0.0
 10
1255.125169
 20
1162.145571
 30
0.0
  0
SPLINE
  5
109
100
AcDbEntity
  8
W0102_Printing_35X25
 62
1
100
AcDbSpline
 70
8
 71
3
 72
8
 73
4
 74
0
 40
0
 40
0
 40
0
 40
0
 40
1
 40
1
 40
1
 40
1
 10
1255.125169
 20
1162.145571
 30
0.0
 10
1247.297169
 20
1162.145571
 30
0.0
 10
1240.952169
 20
1168.490571
 30
0.0
 10
1240.952169
 20
1176.318571
 30
0.0
  0
SPLINE
  5
10a
100
AcDbEntity
  8
W0102_Printing_35X25
 62
1
100
AcDbSpline
 70
8
 71
3
 72
8
 73
4
 74
0
 40
0
 40
0
 40
0
 40
0
 40
1
 40
1
 40
1
 40
1
 10
1240.952169
 20
1176.318571
 30
0.0
 10
1240.952169
 20
1184.146570
 30
0.0
 10
1247.297169
 20
1190.491570
 30
0.0
 10
1255.125169
 20
1190.491570
 30
0.0
  0
SPLINE
  5
10b
100
AcDbEntity
  8
W0102_Printing_35X25
 62
1
100
AcDbSpline
 70
8
 71
3
 72
8
 73
4
 74
0
 40
0
 40
0
 40
0
 40
0
 40
1
 40
1
 40
1
 40
1
 10
1255.125169
 20
1190.491570
 30
0.0
 10
1262.952168
 20
1190.491570
 30
0.0
 10
1269.298168
 20
1184.146570
 30
0.0
 10
1269.298168
 20
1176.318571
 30
0.0
  0
LWPOLYLINE
  5
10c
100
AcDbEntity
  8
W0102_Printing_35X25
 62
1
100
AcDbPolyline
 90
1
 70
1
 10
2169.298246
 20
496.003588
 30
0.0
  0
SPLINE
  5
10d
100
AcDbEntity
  8
W0102_Printing_35X25
 62
1
100
AcDbSpline
 70
8
 71
3
 72
8
 73
4
 74
0
 40
0
 40
0
 40
0
 40
0
 40
1
 40
1
 40
1
 40
1
 10
1311.817867
 20
1176.318571
 30
0.0
 10
1311.817867
 20
1168.490571
 30
0.0
 10
1305.471867
 20
1162.145571
 30
0.0
 10
1297.644868
 20
1162.145571
 30
0.0
  0
SPLINE
  5
10e
100
AcDbEntity
  8
W0102_Printing_35X25
 62
1
100
AcDbSpline
 70
8
 71
3
 72
8
 73
4
 74
0
 40
0
 40
0
 40
0
 40
0
 40
1
 40
1
 40
1
 40
1
 10
1297.644868
 20
1162.145571
 30
0.0
 10
1289.816868
 20
1162.145571
 30
0.0
 10
1283.471868
 20
1168.490571
 30
0.0
 10
1283.471868
 20
1176.318571
 30
0.0
  0
SPLINE
  5
10f
100
AcDbEntity
  8
W0102_Printing_35X25
 62
1
100
AcDbSpline
 70
8
 71
3
 72
8
 73
4
 74
0
 40
0
 40
0
 40
0
 40
0
 40
1
 40
1
 40
1
 40
1
 10
1283.471868
 20
1176.318571
 30
0.0
 10
1283.471868
 20
1184.146570
 30
0.0
 10
1289.816868
 20
1190.491570
 30
0.0
 10
1297.644868
 20
1190.491570
 30
0.0
  0
SPLINE
  5
110
100
AcDbEntity
  8
W0102_Printing_35X25
 62
1
100
AcDbSpline
 70
8
 71
3
 72
8
 73
4
 74
0
 40
0
 40
0
 40
0
 40
0
 40
1
 40
1
 40
1
 40
1
 10
1297.644868
 20
1190.491570
 30
0.0
 10
1305.471867
 20
1190.491570
 30
0.0
 10
1311.817867
 20
1184.146570
 30
0.0
 10
1311.817867
 20
1176.318571
 30
0.0
  0
LWPOLYLINE
  5
111
100
AcDbEntity
  8
W0102_Printing_35X25
 62
1
100
AcDbPolyline
 90
1
 70
1
 10
1269.298168
 20
1176.318571
 30
0.0
  0
SPLINE
  5
112
100
AcDbEntity
  8
W0102_Printing_35X25
 62
1
100
AcDbSpline
 70
8
 71
3
 72
8
 73
4
 74
0
 40
0
 40
0
 40
0
 40
0
 40
1
 40
1
 40
1
 40
1
 10
1354.337566
 20
1176.318571
 30
0.0
 10
1354.337566
 20
1168.490571
 30
0.0
 10
1347.991566
 20
1162.145571
 30
0.0
 10
1340.164566
 20
1162.145571
 30
0.0
  0
SPLINE
  5
113
100
AcDbEntity
  8
W0102_Printing_35X25
 62
1
100
AcDbSpline
 70
8
 71
3
 72
8
 73
4
 74
0
 40
0
 40
0
 40
0
 40
0
 40
1
 40
1
 40
1
 40
1
 10
1340.164566
 20
1162.145571
 30
0.0
 10
1332.336567
 20
1162.145571
 30
0.0
 10
1325.990567
 20
1168.490571
 30
0.0
 10
1325.990567
 20
1176.318571
 30
0.0
  0
SPLINE
  5
114
100
AcDbEntity
  8
W0102_Printing_35X25
 62
1
100
AcDbSpline
 70
8
 71
3
 72
8
 73
4
 74
0
 40
0
 40
0
 40
0
 40
0
 40
1
 40
1
 40
1
 40
1
 10
1325.990567
 20
1176.318571
 30
0.0
 10
1325.990567
 20
1184.146570
 30
0.0
 10
1332.336567
 20
1190.491570
 30
0.0
 10
1340.164566
 20
1190.491570
 30
0.0
  0
SPLINE
  5
115
100
AcDbEntity
  8
W0102_Printing_35X25
 62
1
100
AcDbSpline
 70
8
 71
3
 72
8
 73
4
 74
0
 40
0
 40
0
 40
0
 40
0
 40
1
 40
1
 40
1
 40
1
 10
1340.164566
 20
1190.491570
 30
0.0
 10
1347.991566
 20
1190.491570
 30
0.0
 10
1354.337566
 20
1184.146570
 30
0.0
 10
1354.337566
 20
1176.318571
 30
0.0
  0
LWPOLYLINE
  5
116
100
AcDbEntity
  8
W0102_Printing_35X25
 62
1
100
AcDbPolyline
 90
1
 70
1
 10
1311.817867
 20
1176.318571
 30
0.0
  0
SPLINE
  5
117
100
AcDbEntity
  8
W0102_Printing_35X25
 62
1
100
AcDbSpline
 70
8
 71
3
 72
8
 73
4
 74
0
 40
0
 40
0
 40
0
 40
0
 40
1
 40
1
 40
1
 40
1
 10
1396.857265
 20
1176.318571
 30
0.0
 10
1396.857265
 20
1168.490571
 30
0.0
 10
1390.511265
 20
1162.145571
 30
0.0
 10
1382.684265
 20
1162.145571
 30
0.0
  0
SPLINE
  5
118
100
AcDbEntity
  8
W0102_Printing_35X25
 62
1
100
AcDbSpline
 70
8
 71
3
 72
8
 73
4
 74
0
 40
0
 40
0
 40
0
 40
0
 40
1
 40
1
 40
1
 40
1
 10
1382.684265
 20
1162.145571
 30
0.0
 10
1374.856266
 20
1162.145571
 30
0.0
 10
1368.511266
 20
1168.490571
 30
0.0
 10
1368.511266
 20
1176.318571
 30
0.0
  0
SPLINE
  5
119
100
AcDbEntity
  8
W0102_Printing_35X25
 62
1
100
AcDbSpline
 70
8
 71
3
 72
8
 73
4
 74
0
 40
0
 40
0
 40
0
 40
0
 40
1
 40
1
 40
1
 40
1
 10
1368.511266
 20
1176.318571
 30
0.0
 10
1368.511266
 20
1184.146570
 30
0.0
 10
1374.856266
 20
1190.491570
 30
0.0
 10
1382.684265
 20
1190.491570
 30
0.0
  0
SPLINE
  5
11a
100
AcDbEntity
  8
W0102_Printing_35X25
 62
1
100
AcDbSpline
 70
8
 71
3
 72
8
 73
4
 74
0
 40
0
 40
0
 40
0
 40
0
 40
1
 40
1
 40
1
 40
1
 10
1382.684265
 20
1190.491570
 30
0.0
 10
1390.511265
 20
1190.491570
 30
0.0
 10
1396.857265
 20
1184.146570
 30
0.0
 10
1396.857265
 20
1176.318571
 30
0.0
  0
LWPOLYLINE
  5
11b
100
AcDbEntity
  8
W0102_Printing_35X25
 62
1
100
AcDbPolyline
 90
1
 70
1
 10
1354.337566
 20
1176.318571
 30
0.0
  0
SPLINE
  5
11c
100
AcDbEntity
  8
W0102_Printing_35X25
 62
1
100
AcDbSpline
 70
8
 71
3
 72
8
 73
4
 74
0
 40
0
 40
0
 40
0
 40
0
 40
1
 40
1
 40
1
 40
1
 10
1439.376964
 20
1176.318571
 30
0.0
 10
1439.376964
 20
1168.490571
 30
0.0
 10
1433.030964
 20
1162.145571
 30
0.0
 10
1425.203964
 20
1162.145571
 30
0.0
  0
SPLINE
  5
11d
100
AcDbEntity
  8
W0102_Printing_35X25
 62
1
100
AcDbSpline
 70
8
 71
3
 72
8
 73
4
 74
0
 40
0
 40
0
 40
0
 40
0
 40
1
 40
1
 40
1
 40
1
 10
1425.203964
 20
1162.145571
 30
0.0
 10
1417.375965
 20
1162.145571
 30
0.0
 10
1411.030965
 20
1168.490571
 30
0.0
 10
1411.030965
 20
1176.318571
 30
0.0
  0
SPLINE
  5
11e
100
AcDbEntity
  8
W0102_Printing_35X25
 62
1
100
AcDbSpline
 70
8
 71
3
 72
8
 73
4
 74
0
 40
0
 40
0
 40
0
 40
0
 40
1
 40
1
 40
1
 40
1
 10
1411.030965
 20
1176.318571
 30
0.0
 10
1411.030965
 20
1184.146570
 30
0.0
 10
1417.375965
 20
1190.491570
 30
0.0
 10
1425.203964
 20
1190.491570
 30
0.0
  0
SPLINE
  5
11f
100
AcDbEntity
  8
W0102_Printing_35X25
 62
1
100
AcDbSpline
 70
8
 71
3
 72
8
 73
4
 74
0
 40
0
 40
0
 40
0
 40
0
 40
1
 40
1
 40
1
 40
1
 10
1425.203964
 20
1190.491570
 30
0.0
 10
1433.030964
 20
1190.491570
 30
0.0
 10
1439.376964
 20
1184.146570
 30
0.0
 10
1439.376964
 20
1176.318571
 30
0.0
  0
LWPOLYLINE
  5
120
100
AcDbEntity
  8
W0102_Printing_35X25
 62
1
100
AcDbPolyline
 90
1
 70
1
 10
1396.857265
 20
1176.318571
 30
0.0
  0
SPLINE
  5
121
100
AcDbEntity
  8
W0102_Printing_35X25
 62
1
100
AcDbSpline
 70
8
 71
3
 72
8
 73
4
 74
0
 40
0
 40
0
 40
0
 40
0
 40
1
 40
1
 40
1
 40
1
 10
1481.896563
 20
1176.318571
 30
0.0
 10
1481.896563
 20
1168.490571
 30
0.0
 10
1475.550563
 20
1162.145571
 30
0.0
 10
1467.723563
 20
1162.145571
 30
0.0
  0
SPLINE
  5
122
100
AcDbEntity
  8
W0102_Printing_35X25
 62
1
100
AcDbSpline
 70
8
 71
3
 72
8
 73
4
 74
0
 40
0
 40
0
 40
0
 40
0
 40
1
 40
1
 40
1
 40
1
 10
1467.723563
 20
1162.145571
 30
0.0
 10
1459.895564
 20
1162.145571
 30
0.0
 10
1453.550564
 20
1168.490571
 30
0.0
 10
1453.550564
 20
1176.318571
 30
0.0
  0
SPLINE
  5
123
100
AcDbEntity
  8
W0102_Printing_35X25
 62
1
100
AcDbSpline
 70
8
 71
3
 72
8
 73
4
 74
0
 40
0
 40
0
 40
0
 40
0
 40
1
 40
1
 40
1
 40
1
 10
1453.550564
 20
1176.318571
 30
0.0
 10
1453.550564
 20
1184.146570
 30
0.0
 10
1459.895564
 20
1190.491570
 30
0.0
 10
1467.723563
 20
1190.491570
 30
0.0
  0
SPLINE
  5
124
100
AcDbEntity
  8
W0102_Printing_35X25
 62
1
100
AcDbSpline
 70
8
 71
3
 72
8
 73
4
 74
0
 40
0
 40
0
 40
0
 40
0
 40
1
 40
1
 40
1
 40
1
 10
1467.723563
 20
1190.491570
 30
0.0
 10
1475.550563
 20
1190.491570
 30
0.0
 10
1481.896563
 20
1184.146570
 30
0.0
 10
1481.896563
 20
1176.318571
 30
0.0
  0
LWPOLYLINE
  5
125
100
AcDbEntity
  8
W0102_Printing_35X25
 62
1
100
AcDbPolyline
 90
1
 70
1
 10
1439.376964
 20
1176.318571
 30
0.0
  0
SPLINE
  5
126
100
AcDbEntity
  8
W0102_Printing_35X25
 62
1
100
AcDbSpline
 70
8
 71
3
 72
8
 73
4
 74
0
 40
0
 40
0
 40
0
 40
0
 40
1
 40
1
 40
1
 40
1
 10
1524.416362
 20
1176.318571
 30
0.0
 10
1524.416362
 20
1168.490571
 30
0.0
 10
1518.070362
 20
1162.145571
 30
0.0
 10
1510.243362
 20
1162.145571
 30
0.0
  0
SPLINE
  5
127
100
AcDbEntity
  8
W0102_Printing_35X25
 62
1
100
AcDbSpline
 70
8
 71
3
 72
8
 73
4
 74
0
 40
0
 40
0
 40
0
 40
0
 40
1
 40
1
 40
1
 40
1
 10
1510.243362
 20
1162.145571
 30
0.0
 10
1502.415362
 20
1162.145571
 30
0.0
 10
1496.069363
 20
1168.490571
 30
0.0
 10
1496.069363
 20
1176.318571
 30
0.0
  0
SPLINE
  5
128
100
AcDbEntity
  8
W0102_Printing_35X25
 62
1
100
AcDbSpline
 70
8
 71
3
 72
8
 73
4
 74
0
 40
0
 40
0
 40
0
 40
0
 40
1
 40
1
 40
1
 40
1
 10
1496.069363
 20
1176.318571
 30
0.0
 10
1496.069363
 20
1184.146570
 30
0.0
 10
1502.415362
 20
1190.491570
 30
0.0
 10
1510.243362
 20
1190.491570
 30
0.0
  0
SPLINE
  5
129
100
AcDbEntity
  8
W0102_Printing_35X25
 62
1
100
AcDbSpline
 70
8
 71
3
 72
8
 73
4
 74
0
 40
0
 40
0
 40
0
 40
0
 40
1
 40
1
 40
1
 40
1
 10
1510.243362
 20
1190.491570
 30
0.0
 10
1518.070362
 20
1190.491570
 30
0.0
 10
1524.416362
 20
1184.146570
 30
0.0
 10
1524.416362
 20
1176.318571
 30
0.0
  0
LWPOLYLINE
  5
12a
100
AcDbEntity
  8
W0102_Printing_35X25
 62
1
100
AcDbPolyline
 90
1
 70
1
 10
1481.896563
 20
1176.318571
 30
0.0
  0
SPLINE
  5
12b
100
AcDbEntity
  8
W0102_Printing_35X25
 62
1
100
AcDbSpline
 70
8
 71
3
 72
8
 73
4
 74
0
 40
0
 40
0
 40
0
 40
0
 40
1
 40
1
 40
1
 40
1
 10
1566.935961
 20
1176.318571
 30
0.0
 10
1566.935961
 20
1168.490571
 30
0.0
 10
1560.589961
 20
1162.145571
 30
0.0
 10
1552.762961
 20
1162.145571
 30
0.0
  0
SPLINE
  5
12c
100
AcDbEntity
  8
W0102_Printing_35X25
 62
1
100
AcDbSpline
 70
8
 71
3
 72
8
 73
4
 74
0
 40
0
 40
0
 40
0
 40
0
 40
1
 40
1
 40
1
 40
1
 10
1552.762961
 20
1162.145571
 30
0.0
 10
1544.934961
 20
1162.145571
 30
0.0
 10
1538.589962
 20
1168.490571
 30
0.0
 10
1538.589962
 20
1176.318571
 30
0.0
  0
SPLINE
  5
12d
100
AcDbEntity
  8
W0102_Printing_35X25
 62
1
100
AcDbSpline
 70
8
 71
3
 72
8
 73
4
 74
0
 40
0
 40
0
 40
0
 40
0
 40
1
 40
1
 40
1
 40
1
 10
1538.589962
 20
1176.318571
 30
0.0
 10
1538.589962
 20
1184.146570
 30
0.0
 10
1544.934961
 20
1190.491570
 30
0.0
 10
1552.762961
 20
1190.491570
 30
0.0
  0
SPLINE
  5
12e
100
AcDbEntity
  8
W0102_Printing_35X25
 62
1
100
AcDbSpline
 70
8
 71
3
 72
8
 73
4
 74
0
 40
0
 40
0
 40
0
 40
0
 40
1
 40
1
 40
1
 40
1
 10
1552.762961
 20
1190.491570
 30
0.0
 10
1560.589961
 20
1190.491570
 30
0.0
 10
1566.935961
 20
1184.146570
 30
0.0
 10
1566.935961
 20
1176.318571
 30
0.0
  0
LWPOLYLINE
  5
12f
100
AcDbEntity
  8
W0102_Printing_35X25
 62
1
100
AcDbPolyline
 90
1
 70
1
 10
1524.416362
 20
1176.318571
 30
0.0
  0
SPLINE
  5
130
100
AcDbEntity
  8
W0102_Printing_35X25
 62
1
100
AcDbSpline
 70
8
 71
3
 72
8
 73
4
 74
0
 40
0
 40
0
 40
0
 40
0
 40
1
 40
1
 40
1
 40
1
 10
1609.455660
 20
1176.318571
 30
0.0
 10
1609.455660
 20
1168.490571
 30
0.0
 10
1603.109660
 20
1162.145571
 30
0.0
 10
1595.282660
 20
1162.145571
 30
0.0
  0
SPLINE
  5
131
100
AcDbEntity
  8
W0102_Printing_35X25
 62
1
100
AcDbSpline
 70
8
 71
3
 72
8
 73
4
 74
0
 40
0
 40
0
 40
0
 40
0
 40
1
 40
1
 40
1
 40
1
 10
1595.282660
 20
1162.145571
 30
0.0
 10
1587.454660
 20
1162.145571
 30
0.0
 10
1581.109660
 20
1168.490571
 30
0.0
 10
1581.109660
 20
1176.318571
 30
0.0
  0
SPLINE
  5
132
100
AcDbEntity
  8
W0102_Printing_35X25
 62
1
100
AcDbSpline
 70
8
 71
3
 72
8
 73
4
 74
0
 40
0
 40
0
 40
0
 40
0
 40
1
 40
1
 40
1
 40
1
 10
1581.109660
 20
1176.318571
 30
0.0
 10
1581.109660
 20
1184.146570
 30
0.0
 10
1587.454660
 20
1190.491570
 30
0.0
 10
1595.282660
 20
1190.491570
 30
0.0
  0
SPLINE
  5
133
100
AcDbEntity
  8
W0102_Printing_35X25
 62
1
100
AcDbSpline
 70
8
 71
3
 72
8
 73
4
 74
0
 40
0
 40
0
 40
0
 40
0
 40
1
 40
1
 40
1
 40
1
 10
1595.282660
 20
1190.491570
 30
0.0
 10
1603.109660
 20
1190.491570
 30
0.0
 10
1609.455660
 20
1184.146570
 30
0.0
 10
1609.455660
 20
1176.318571
 30
0.0
  0
LWPOLYLINE
  5
134
100
AcDbEntity
  8
W0102_Printing_35X25
 62
1
100
AcDbPolyline
 90
1
 70
1
 10
1566.935961
 20
1176.318571
 30
0.0
  0
SPLINE
  5
135
100
AcDbEntity
  8
W0102_Printing_35X25
 62
1
100
AcDbSpline
 70
8
 71
3
 72
8
 73
4
 74
0
 40
0
 40
0
 40
0
 40
0
 40
1
 40
1
 40
1
 40
1
 10
1651.975259
 20
1176.318571
 30
0.0
 10
1651.975259
 20
1168.490571
 30
0.0
 10
1645.629259
 20
1162.145571
 30
0.0
 10
1637.802259
 20
1162.145571
 30
0.0
  0
SPLINE
  5
136
100
AcDbEntity
  8
W0102_Printing_35X25
 62
1
100
AcDbSpline
 70
8
 71
3
 72
8
 73
4
 74
0
 40
0
 40
0
 40
0
 40
0
 40
1
 40
1
 40
1
 40
1
 10
1637.802259
 20
1162.145571
 30
0.0
 10
1629.974259
 20
1162.145571
 30
0.0
 10
1623.629259
 20
1168.490571
 30
0.0
 10
1623.629259
 20
1176.318571
 30
0.0
  0
SPLINE
  5
137
100
AcDbEntity
  8
W0102_Printing_35X25
 62
1
100
AcDbSpline
 70
8
 71
3
 72
8
 73
4
 74
0
 40
0
 40
0
 40
0
 40
0
 40
1
 40
1
 40
1
 40
1
 10
1623.629259
 20
1176.318571
 30
0.0
 10
1623.629259
 20
1184.146570
 30
0.0
 10
1629.974259
 20
1190.491570
 30
0.0
 10
1637.802259
 20
1190.491570
 30
0.0
  0
SPLINE
  5
138
100
AcDbEntity
  8
W0102_Printing_35X25
 62
1
100
AcDbSpline
 70
8
 71
3
 72
8
 73
4
 74
0
 40
0
 40
0
 40
0
 40
0
 40
1
 40
1
 40
1
 40
1
 10
1637.802259
 20
1190.491570
 30
0.0
 10
1645.629259
 20
1190.491570
 30
0.0
 10
1651.975259
 20
1184.146570
 30
0.0
 10
1651.975259
 20
1176.318571
 30
0.0
  0
LWPOLYLINE
  5
139
100
AcDbEntity
  8
W0102_Printing_35X25
 62
1
100
AcDbPolyline
 90
1
 70
1
 10
1609.455660
 20
1176.318571
 30
0.0
  0
SPLINE
  5
13a
100
AcDbEntity
  8
W0102_Printing_35X25
 62
1
100
AcDbSpline
 70
8
 71
3
 72
8
 73
4
 74
0
 40
0
 40
0
 40
0
 40
0
 40
1
 40
1
 40
1
 40
1
 10
1694.495058
 20
1176.318571
 30
0.0
 10
1694.495058
 20
1168.490571
 30
0.0
 10
1688.149058
 20
1162.145571
 30
0.0
 10
1680.322058
 20
1162.145571
 30
0.0
  0
SPLINE
  5
13b
100
AcDbEntity
  8
W0102_Printing_35X25
 62
1
100
AcDbSpline
 70
8
 71
3
 72
8
 73
4
 74
0
 40
0
 40
0
 40
0
 40
0
 40
1
 40
1
 40
1
 40
1
 10
1680.322058
 20
1162.145571
 30
0.0
 10
1672.494058
 20
1162.145571
 30
0.0
 10
1666.148058
 20
1168.490571
 30
0.0
 10
1666.148058
 20
1176.318571
 30
0.0
  0
SPLINE
  5
13c
100
AcDbEntity
  8
W0102_Printing_35X25
 62
1
100
AcDbSpline
 70
8
 71
3
 72
8
 73
4
 74
0
 40
0
 40
0
 40
0
 40
0
 40
1
 40
1
 40
1
 40
1
 10
1666.148058
 20
1176.318571
 30
0.0
 10
1666.148058
 20
1184.146570
 30
0.0
 10
1672.494058
 20
1190.491570
 30
0.0
 10
1680.322058
 20
1190.491570
 30
0.0
  0
SPLINE
  5
13d
100
AcDbEntity
  8
W0102_Printing_35X25
 62
1
100
AcDbSpline
 70
8
 71
3
 72
8
 73
4
 74
0
 40
0
 40
0
 40
0
 40
0
 40
1
 40
1
 40
1
 40
1
 10
1680.322058
 20
1190.491570
 30
0.0
 10
1688.149058
 20
1190.491570
 30
0.0
 10
1694.495058
 20
1184.146570
 30
0.0
 10
1694.495058
 20
1176.318571
 30
0.0
  0
LWPOLYLINE
  5
13e
100
AcDbEntity
  8
W0102_Printing_35X25
 62
1
100
AcDbPolyline
 90
1
 70
1
 10
1651.975259
 20
1176.318571
 30
0.0
  0
SPLINE
  5
13f
100
AcDbEntity
  8
W0102_Printing_35X25
 62
1
100
AcDbSpline
 70
8
 71
3
 72
8
 73
4
 74
0
 40
0
 40
0
 40
0
 40
0
 40
1
 40
1
 40
1
 40
1
 10
1737.014757
 20
1176.318571
 30
0.0
 10
1737.014757
 20
1168.490571
 30
0.0
 10
1730.668757
 20
1162.145571
 30
0.0
 10
1722.841757
 20
1162.145571
 30
0.0
  0
SPLINE
  5
140
100
AcDbEntity
  8
W0102_Printing_35X25
 62
1
100
AcDbSpline
 70
8
 71
3
 72
8
 73
4
 74
0
 40
0
 40
0
 40
0
 40
0
 40
1
 40
1
 40
1
 40
1
 10
1722.841757
 20
1162.145571
 30
0.0
 10
1715.013757
 20
1162.145571
 30
0.0
 10
1708.668757
 20
1168.490571
 30
0.0
 10
1708.668757
 20
1176.318571
 30
0.0
  0
SPLINE
  5
141
100
AcDbEntity
  8
W0102_Printing_35X25
 62
1
100
AcDbSpline
 70
8
 71
3
 72
8
 73
4
 74
0
 40
0
 40
0
 40
0
 40
0
 40
1
 40
1
 40
1
 40
1
 10
1708.668757
 20
1176.318571
 30
0.0
 10
1708.668757
 20
1184.146570
 30
0.0
 10
1715.013757
 20
1190.491570
 30
0.0
 10
1722.841757
 20
1190.491570
 30
0.0
  0
SPLINE
  5
142
100
AcDbEntity
  8
W0102_Printing_35X25
 62
1
100
AcDbSpline
 70
8
 71
3
 72
8
 73
4
 74
0
 40
0
 40
0
 40
0
 40
0
 40
1
 40
1
 40
1
 40
1
 10
1722.841757
 20
1190.491570
 30
0.0
 10
1730.668757
 20
1190.491570
 30
0.0
 10
1737.014757
 20
1184.146570
 30
0.0
 10
1737.014757
 20
1176.318571
 30
0.0
  0
LWPOLYLINE
  5
143
100
AcDbEntity
  8
W0102_Printing_35X25
 62
1
100
AcDbPolyline
 90
1
 70
1
 10
1694.495058
 20
1176.318571
 30
0.0
  0
SPLINE
  5
144
100
AcDbEntity
  8
W0102_Printing_35X25
 62
1
100
AcDbSpline
 70
8
 71
3
 72
8
 73
4
 74
0
 40
0
 40
0
 40
0
 40
0
 40
1
 40
1
 40
1
 40
1
 10
1779.534356
 20
1176.318571
 30
0.0
 10
1779.534356
 20
1168.490571
 30
0.0
 10
1773.188356
 20
1162.145571
 30
0.0
 10
1765.361356
 20
1162.145571
 30
0.0
  0
SPLINE
  5
145
100
AcDbEntity
  8
W0102_Printing_35X25
 62
1
100
AcDbSpline
 70
8
 71
3
 72
8
 73
4
 74
0
 40
0
 40
0
 40
0
 40
0
 40
1
 40
1
 40
1
 40
1
 10
1765.361356
 20
1162.145571
 30
0.0
 10
1757.533356
 20
1162.145571
 30
0.0
 10
1751.188356
 20
1168.490571
 30
0.0
 10
1751.188356
 20
1176.318571
 30
0.0
  0
SPLINE
  5
146
100
AcDbEntity
  8
W0102_Printing_35X25
 62
1
100
AcDbSpline
 70
8
 71
3
 72
8
 73
4
 74
0
 40
0
 40
0
 40
0
 40
0
 40
1
 40
1
 40
1
 40
1
 10
1751.188356
 20
1176.318571
 30
0.0
 10
1751.188356
 20
1184.146570
 30
0.0
 10
1757.533356
 20
1190.491570
 30
0.0
 10
1765.361356
 20
1190.491570
 30
0.0
  0
SPLINE
  5
147
100
AcDbEntity
  8
W0102_Printing_35X25
 62
1
100
AcDbSpline
 70
8
 71
3
 72
8
 73
4
 74
0
 40
0
 40
0
 40
0
 40
0
 40
1
 40
1
 40
1
 40
1
 10
1765.361356
 20
1190.491570
 30
0.0
 10
1773.188356
 20
1190.491570
 30
0.0
 10
1779.534356
 20
1184.146570
 30
0.0
 10
1779.534356
 20
1176.318571
 30
0.0
  0
LWPOLYLINE
  5
148
100
AcDbEntity
  8
W0102_Printing_35X25
 62
1
100
AcDbPolyline
 90
1
 70
1
 10
1737.014757
 20
1176.318571
 30
0.0
  0
SPLINE
  5
149
100
AcDbEntity
  8
W0102_Printing_35X25
 62
1
100
AcDbSpline
 70
8
 71
3
 72
8
 73
4
 74
0
 40
0
 40
0
 40
0
 40
0
 40
1
 40
1
 40
1
 40
1
 10
1822.054054
 20
1176.318571
 30
0.0
 10
1822.054054
 20
1168.490571
 30
0.0
 10
1815.708055
 20
1162.145571
 30
0.0
 10
1807.881055
 20
1162.145571
 30
0.0
  0
SPLINE
  5
14a
100
AcDbEntity
  8
W0102_Printing_35X25
 62
1
100
AcDbSpline
 70
8
 71
3
 72
8
 73
4
 74
0
 40
0
 40
0
 40
0
 40
0
 40
1
 40
1
 40
1
 40
1
 10
1807.881055
 20
1162.145571
 30
0.0
 10
1800.053055
 20
1162.145571
 30
0.0
 10
1793.708055
 20
1168.490571
 30
0.0
 10
1793.708055
 20
1176.318571
 30
0.0
  0
SPLINE
  5
14b
100
AcDbEntity
  8
W0102_Printing_35X25
 62
1
100
AcDbSpline
 70
8
 71
3
 72
8
 73
4
 74
0
 40
0
 40
0
 40
0
 40
0
 40
1
 40
1
 40
1
 40
1
 10
1793.708055
 20
1176.318571
 30
0.0
 10
1793.708055
 20
1184.146570
 30
0.0
 10
1800.053055
 20
1190.491570
 30
0.0
 10
1807.881055
 20
1190.491570
 30
0.0
  0
SPLINE
  5
14c
100
AcDbEntity
  8
W0102_Printing_35X25
 62
1
100
AcDbSpline
 70
8
 71
3
 72
8
 73
4
 74
0
 40
0
 40
0
 40
0
 40
0
 40
1
 40
1
 40
1
 40
1
 10
1807.881055
 20
1190.491570
 30
0.0
 10
1815.708055
 20
1190.491570
 30
0.0
 10
1822.054054
 20
1184.146570
 30
0.0
 10
1822.054054
 20
1176.318571
 30
0.0
  0
LWPOLYLINE
  5
14d
100
AcDbEntity
  8
W0102_Printing_35X25
 62
1
100
AcDbPolyline
 90
1
 70
1
 10
1779.534356
 20
1176.318571
 30
0.0
  0
SPLINE
  5
14e
100
AcDbEntity
  8
W0102_Printing_35X25
 62
1
100
AcDbSpline
 70
8
 71
3
 72
8
 73
4
 74
0
 40
0
 40
0
 40
0
 40
0
 40
1
 40
1
 40
1
 40
1
 10
1864.573853
 20
1176.318571
 30
0.0
 10
1864.573853
 20
1168.490571
 30
0.0
 10
1858.227854
 20
1162.145571
 30
0.0
 10
1850.400854
 20
1162.145571
 30
0.0
  0
SPLINE
  5
14f
100
AcDbEntity
  8
W0102_Printing_35X25
 62
1
100
AcDbSpline
 70
8
 71
3
 72
8
 73
4
 74
0
 40
0
 40
0
 40
0
 40
0
 40
1
 40
1
 40
1
 40
1
 10
1850.400854
 20
1162.145571
 30
0.0
 10
1842.572854
 20
1162.145571
 30
0.0
 10
1836.226854
 20
1168.490571
 30
0.0
 10
1836.226854
 20
1176.318571
 30
0.0
  0
SPLINE
  5
150
100
AcDbEntity
  8
W0102_Printing_35X25
 62
1
100
AcDbSpline
 70
8
 71
3
 72
8
 73
4
 74
0
 40
0
 40
0
 40
0
 40
0
 40
1
 40
1
 40
1
 40
1
 10
1836.226854
 20
1176.318571
 30
0.0
 10
1836.226854
 20
1184.146570
 30
0.0
 10
1842.572854
 20
1190.491570
 30
0.0
 10
1850.400854
 20
1190.491570
 30
0.0
  0
SPLINE
  5
151
100
AcDbEntity
  8
W0102_Printing_35X25
 62
1
100
AcDbSpline
 70
8
 71
3
 72
8
 73
4
 74
0
 40
0
 40
0
 40
0
 40
0
 40
1
 40
1
 40
1
 40
1
 10
1850.400854
 20
1190.491570
 30
0.0
 10
1858.227854
 20
1190.491570
 30
0.0
 10
1864.573853
 20
1184.146570
 30
0.0
 10
1864.573853
 20
1176.318571
 30
0.0
  0
LWPOLYLINE
  5
152
100
AcDbEntity
  8
W0102_Printing_35X25
 62
1
100
AcDbPolyline
 90
1
 70
1
 10
1822.054054
 20
1176.318571
 30
0.0
  0
SPLINE
  5
153
100
AcDbEntity
  8
W0102_Printing_35X25
 62
1
100
AcDbSpline
 70
8
 71
3
 72
8
 73
4
 74
0
 40
0
 40
0
 40
0
 40
0
 40
1
 40
1
 40
1
 40
1
 10
1907.093452
 20
1176.318571
 30
0.0
 10
1907.093452
 20
1168.490571
 30
0.0
 10
1900.747452
 20
1162.145571
 30
0.0
 10
1892.920453
 20
1162.145571
 30
0.0
  0
SPLINE
  5
154
100
AcDbEntity
  8
W0102_Printing_35X25
 62
1
100
AcDbSpline
 70
8
 71
3
 72
8
 73
4
 74
0
 40
0
 40
0
 40
0
 40
0
 40
1
 40
1
 40
1
 40
1
 10
1892.920453
 20
1162.145571
 30
0.0
 10
1885.092453
 20
1162.145571
 30
0.0
 10
1878.747453
 20
1168.490571
 30
0.0
 10
1878.747453
 20
1176.318571
 30
0.0
  0
SPLINE
  5
155
100
AcDbEntity
  8
W0102_Printing_35X25
 62
1
100
AcDbSpline
 70
8
 71
3
 72
8
 73
4
 74
0
 40
0
 40
0
 40
0
 40
0
 40
1
 40
1
 40
1
 40
1
 10
1878.747453
 20
1176.318571
 30
0.0
 10
1878.747453
 20
1184.146570
 30
0.0
 10
1885.092453
 20
1190.491570
 30
0.0
 10
1892.920453
 20
1190.491570
 30
0.0
  0
SPLINE
  5
156
100
AcDbEntity
  8
W0102_Printing_35X25
 62
1
100
AcDbSpline
 70
8
 71
3
 72
8
 73
4
 74
0
 40
0
 40
0
 40
0
 40
0
 40
1
 40
1
 40
1
 40
1
 10
1892.920453
 20
1190.491570
 30
0.0
 10
1900.747452
 20
1190.491570
 30
0.0
 10
1907.093452
 20
1184.146570
 30
0.0
 10
1907.093452
 20
1176.318571
 30
0.0
  0
LWPOLYLINE
  5
157
100
AcDbEntity
  8
W0102_Printing_35X25
 62
1
100
AcDbPolyline
 90
1
 70
1
 10
1864.573853
 20
1176.318571
 30
0.0
  0
SPLINE
  5
158
100
AcDbEntity
  8
W0102_Printing_35X25
 62
1
100
AcDbSpline
 70
8
 71
3
 72
8
 73
4
 74
0
 40
0
 40
0
 40
0
 40
0
 40
1
 40
1
 40
1
 40
1
 10
1949.613151
 20
1176.318571
 30
0.0
 10
1949.613151
 20
1168.490571
 30
0.0
 10
1943.267151
 20
1162.145571
 30
0.0
 10
1935.440152
 20
1162.145571
 30
0.0
  0
SPLINE
  5
159
100
AcDbEntity
  8
W0102_Printing_35X25
 62
1
100
AcDbSpline
 70
8
 71
3
 72
8
 73
4
 74
0
 40
0
 40
0
 40
0
 40
0
 40
1
 40
1
 40
1
 40
1
 10
1935.440152
 20
1162.145571
 30
0.0
 10
1927.612152
 20
1162.145571
 30
0.0
 10
1921.267152
 20
1168.490571
 30
0.0
 10
1921.267152
 20
1176.318571
 30
0.0
  0
SPLINE
  5
15a
100
AcDbEntity
  8
W0102_Printing_35X25
 62
1
100
AcDbSpline
 70
8
 71
3
 72
8
 73
4
 74
0
 40
0
 40
0
 40
0
 40
0
 40
1
 40
1
 40
1
 40
1
 10
1921.267152
 20
1176.318571
 30
0.0
 10
1921.267152
 20
1184.146570
 30
0.0
 10
1927.612152
 20
1190.491570
 30
0.0
 10
1935.440152
 20
1190.491570
 30
0.0
  0
SPLINE
  5
15b
100
AcDbEntity
  8
W0102_Printing_35X25
 62
1
100
AcDbSpline
 70
8
 71
3
 72
8
 73
4
 74
0
 40
0
 40
0
 40
0
 40
0
 40
1
 40
1
 40
1
 40
1
 10
1935.440152
 20
1190.491570
 30
0.0
 10
1943.267151
 20
1190.491570
 30
0.0
 10
1949.613151
 20
1184.146570
 30
0.0
 10
1949.613151
 20
1176.318571
 30
0.0
  0
LWPOLYLINE
  5
15c
100
AcDbEntity
  8
W0102_Printing_35X25
 62
1
100
AcDbPolyline
 90
1
 70
1
 10
1907.093452
 20
1176.318571
 30
0.0
  0
SPLINE
  5
15d
100
AcDbEntity
  8
W0102_Printing_35X25
 62
1
100
AcDbSpline
 70
8
 71
3
 72
8
 73
4
 74
0
 40
0
 40
0
 40
0
 40
0
 40
1
 40
1
 40
1
 40
1
 10
1992.132750
 20
1176.318571
 30
0.0
 10
1992.132750
 20
1168.490571
 30
0.0
 10
1985.786750
 20
1162.145571
 30
0.0
 10
1977.959751
 20
1162.145571
 30
0.0
  0
SPLINE
  5
15e
100
AcDbEntity
  8
W0102_Printing_35X25
 62
1
100
AcDbSpline
 70
8
 71
3
 72
8
 73
4
 74
0
 40
0
 40
0
 40
0
 40
0
 40
1
 40
1
 40
1
 40
1
 10
1977.959751
 20
1162.145571
 30
0.0
 10
1970.131751
 20
1162.145571
 30
0.0
 10
1963.786751
 20
1168.490571
 30
0.0
 10
1963.786751
 20
1176.318571
 30
0.0
  0
SPLINE
  5
15f
100
AcDbEntity
  8
W0102_Printing_35X25
 62
1
100
AcDbSpline
 70
8
 71
3
 72
8
 73
4
 74
0
 40
0
 40
0
 40
0
 40
0
 40
1
 40
1
 40
1
 40
1
 10
1963.786751
 20
1176.318571
 30
0.0
 10
1963.786751
 20
1184.146570
 30
0.0
 10
1970.131751
 20
1190.491570
 30
0.0
 10
1977.959751
 20
1190.491570
 30
0.0
  0
SPLINE
  5
160
100
AcDbEntity
  8
W0102_Printing_35X25
 62
1
100
AcDbSpline
 70
8
 71
3
 72
8
 73
4
 74
0
 40
0
 40
0
 40
0
 40
0
 40
1
 40
1
 40
1
 40
1
 10
1977.959751
 20
1190.491570
 30
0.0
 10
1985.786750
 20
1190.491570
 30
0.0
 10
1992.132750
 20
1184.146570
 30
0.0
 10
1992.132750
 20
1176.318571
 30
0.0
  0
LWPOLYLINE
  5
161
100
AcDbEntity
  8
W0102_Printing_35X25
 62
1
100
AcDbPolyline
 90
1
 70
1
 10
1949.613151
 20
1176.318571
 30
0.0
  0
SPLINE
  5
162
100
AcDbEntity
  8
W0102_Printing_35X25
 62
1
100
AcDbSpline
 70
8
 71
3
 72
8
 73
4
 74
0
 40
0
 40
0
 40
0
 40
0
 40
1
 40
1
 40
1
 40
1
 10
2034.652549
 20
1176.318571
 30
0.0
 10
2034.652549
 20
1168.490571
 30
0.0
 10
2028.306549
 20
1162.145571
 30
0.0
 10
2020.479549
 20
1162.145571
 30
0.0
  0
SPLINE
  5
163
100
AcDbEntity
  8
W0102_Printing_35X25
 62
1
100
AcDbSpline
 70
8
 71
3
 72
8
 73
4
 74
0
 40
0
 40
0
 40
0
 40
0
 40
1
 40
1
 40
1
 40
1
 10
2020.479549
 20
1162.145571
 30
0.0
 10
2012.651550
 20
1162.145571
 30
0.0
 10
2006.305550
 20
1168.490571
 30
0.0
 10
2006.305550
 20
1176.318571
 30
0.0
  0
SPLINE
  5
164
100
AcDbEntity
  8
W0102_Printing_35X25
 62
1
100
AcDbSpline
 70
8
 71
3
 72
8
 73
4
 74
0
 40
0
 40
0
 40
0
 40
0
 40
1
 40
1
 40
1
 40
1
 10
2006.305550
 20
1176.318571
 30
0.0
 10
2006.305550
 20
1184.146570
 30
0.0
 10
2012.651550
 20
1190.491570
 30
0.0
 10
2020.479549
 20
1190.491570
 30
0.0
  0
SPLINE
  5
165
100
AcDbEntity
  8
W0102_Printing_35X25
 62
1
100
AcDbSpline
 70
8
 71
3
 72
8
 73
4
 74
0
 40
0
 40
0
 40
0
 40
0
 40
1
 40
1
 40
1
 40
1
 10
2020.479549
 20
1190.491570
 30
0.0
 10
2028.306549
 20
1190.491570
 30
0.0
 10
2034.652549
 20
1184.146570
 30
0.0
 10
2034.652549
 20
1176.318571
 30
0.0
  0
LWPOLYLINE
  5
166
100
AcDbEntity
  8
W0102_Printing_35X25
 62
1
100
AcDbPolyline
 90
1
 70
1
 10
1992.132750
 20
1176.318571
 30
0.0
  0
SPLINE
  5
167
100
AcDbEntity
  8
W0102_Printing_35X25
 62
1
100
AcDbSpline
 70
8
 71
3
 72
8
 73
4
 74
0
 40
0
 40
0
 40
0
 40
0
 40
1
 40
1
 40
1
 40
1
 10
2077.172048
 20
1176.318571
 30
0.0
 10
2077.172048
 20
1168.490571
 30
0.0
 10
2070.827048
 20
1162.145571
 30
0.0
 10
2062.999048
 20
1162.145571
 30
0.0
  0
SPLINE
  5
168
100
AcDbEntity
  8
W0102_Printing_35X25
 62
1
100
AcDbSpline
 70
8
 71
3
 72
8
 73
4
 74
0
 40
0
 40
0
 40
0
 40
0
 40
1
 40
1
 40
1
 40
1
 10
2062.999048
 20
1162.145571
 30
0.0
 10
2055.171049
 20
1162.145571
 30
0.0
 10
2048.826049
 20
1168.490571
 30
0.0
 10
2048.826049
 20
1176.318571
 30
0.0
  0
SPLINE
  5
169
100
AcDbEntity
  8
W0102_Printing_35X25
 62
1
100
AcDbSpline
 70
8
 71
3
 72
8
 73
4
 74
0
 40
0
 40
0
 40
0
 40
0
 40
1
 40
1
 40
1
 40
1
 10
2048.826049
 20
1176.318571
 30
0.0
 10
2048.826049
 20
1184.146570
 30
0.0
 10
2055.171049
 20
1190.491570
 30
0.0
 10
2062.999048
 20
1190.491570
 30
0.0
  0
SPLINE
  5
16a
100
AcDbEntity
  8
W0102_Printing_35X25
 62
1
100
AcDbSpline
 70
8
 71
3
 72
8
 73
4
 74
0
 40
0
 40
0
 40
0
 40
0
 40
1
 40
1
 40
1
 40
1
 10
2062.999048
 20
1190.491570
 30
0.0
 10
2070.827048
 20
1190.491570
 30
0.0
 10
2077.172048
 20
1184.146570
 30
0.0
 10
2077.172048
 20
1176.318571
 30
0.0
  0
LWPOLYLINE
  5
16b
100
AcDbEntity
  8
W0102_Printing_35X25
 62
1
100
AcDbPolyline
 90
1
 70
1
 10
2034.652549
 20
1176.318571
 30
0.0
  0
SPLINE
  5
16c
100
AcDbEntity
  8
W0102_Printing_35X25
 62
1
100
AcDbSpline
 70
8
 71
3
 72
8
 73
4
 74
0
 40
0
 40
0
 40
0
 40
0
 40
1
 40
1
 40
1
 40
1
 10
2119.691847
 20
1176.318571
 30
0.0
 10
2119.691847
 20
1168.490571
 30
0.0
 10
2113.346847
 20
1162.145571
 30
0.0
 10
2105.518847
 20
1162.145571
 30
0.0
  0
SPLINE
  5
16d
100
AcDbEntity
  8
W0102_Printing_35X25
 62
1
100
AcDbSpline
 70
8
 71
3
 72
8
 73
4
 74
0
 40
0
 40
0
 40
0
 40
0
 40
1
 40
1
 40
1
 40
1
 10
2105.518847
 20
1162.145571
 30
0.0
 10
2097.690848
 20
1162.145571
 30
0.0
 10
2091.345848
 20
1168.490571
 30
0.0
 10
2091.345848
 20
1176.318571
 30
0.0
  0
SPLINE
  5
16e
100
AcDbEntity
  8
W0102_Printing_35X25
 62
1
100
AcDbSpline
 70
8
 71
3
 72
8
 73
4
 74
0
 40
0
 40
0
 40
0
 40
0
 40
1
 40
1
 40
1
 40
1
 10
2091.345848
 20
1176.318571
 30
0.0
 10
2091.345848
 20
1184.146570
 30
0.0
 10
2097.690848
 20
1190.491570
 30
0.0
 10
2105.518847
 20
1190.491570
 30
0.0
  0
SPLINE
  5
16f
100
AcDbEntity
  8
W0102_Printing_35X25
 62
1
100
AcDbSpline
 70
8
 71
3
 72
8
 73
4
 74
0
 40
0
 40
0
 40
0
 40
0
 40
1
 40
1
 40
1
 40
1
 10
2105.518847
 20
1190.491570
 30
0.0
 10
2113.346847
 20
1190.491570
 30
0.0
 10
2119.691847
 20
1184.146570
 30
0.0
 10
2119.691847
 20
1176.318571
 30
0.0
  0
LWPOLYLINE
  5
170
100
AcDbEntity
  8
W0102_Printing_35X25
 62
1
100
AcDbPolyline
 90
1
 70
1
 10
2077.172048
 20
1176.318571
 30
0.0
  0
SPLINE
  5
171
100
AcDbEntity
  8
W0102_Printing_35X25
 62
1
100
AcDbSpline
 70
8
 71
3
 72
8
 73
4
 74
0
 40
0
 40
0
 40
0
 40
0
 40
1
 40
1
 40
1
 40
1
 10
2162.211646
 20
1176.318571
 30
0.0
 10
2162.211646
 20
1168.490571
 30
0.0
 10
2155.865646
 20
1162.145571
 30
0.0
 10
2148.038646
 20
1162.145571
 30
0.0
  0
SPLINE
  5
172
100
AcDbEntity
  8
W0102_Printing_35X25
 62
1
100
AcDbSpline
 70
8
 71
3
 72
8
 73
4
 74
0
 40
0
 40
0
 40
0
 40
0
 40
1
 40
1
 40
1
 40
1
 10
2148.038646
 20
1162.145571
 30
0.0
 10
2140.210646
 20
1162.145571
 30
0.0
 10
2133.865647
 20
1168.490571
 30
0.0
 10
2133.865647
 20
1176.318571
 30
0.0
  0
SPLINE
  5
173
100
AcDbEntity
  8
W0102_Printing_35X25
 62
1
100
AcDbSpline
 70
8
 71
3
 72
8
 73
4
 74
0
 40
0
 40
0
 40
0
 40
0
 40
1
 40
1
 40
1
 40
1
 10
2133.865647
 20
1176.318571
 30
0.0
 10
2133.865647
 20
1184.146570
 30
0.0
 10
2140.210646
 20
1190.491570
 30
0.0
 10
2148.038646
 20
1190.491570
 30
0.0
  0
SPLINE
  5
174
100
AcDbEntity
  8
W0102_Printing_35X25
 62
1
100
AcDbSpline
 70
8
 71
3
 72
8
 73
4
 74
0
 40
0
 40
0
 40
0
 40
0
 40
1
 40
1
 40
1
 40
1
 10
2148.038646
 20
1190.491570
 30
0.0
 10
2155.865646
 20
1190.491570
 30
0.0
 10
2162.211646
 20
1184.146570
 30
0.0
 10
2162.211646
 20
1176.318571
 30
0.0
  0
LWPOLYLINE
  5
175
100
AcDbEntity
  8
W0102_Printing_35X25
 62
1
100
AcDbPolyline
 90
1
 70
1
 10
2119.691847
 20
1176.318571
 30
0.0
  0
SPLINE
  5
176
100
AcDbEntity
  8
W0102_Printing_35X25
 62
1
100
AcDbSpline
 70
8
 71
3
 72
8
 73
4
 74
0
 40
0
 40
0
 40
0
 40
0
 40
1
 40
1
 40
1
 40
1
 10
1269.298168
 20
524.350187
 30
0.0
 10
1269.298168
 20
516.522187
 30
0.0
 10
1262.952168
 20
510.177187
 30
0.0
 10
1255.125169
 20
510.177187
 30
0.0
  0
SPLINE
  5
177
100
AcDbEntity
  8
W0102_Printing_35X25
 62
1
100
AcDbSpline
 70
8
 71
3
 72
8
 73
4
 74
0
 40
0
 40
0
 40
0
 40
0
 40
1
 40
1
 40
1
 40
1
 10
1255.125169
 20
510.177187
 30
0.0
 10
1247.297169
 20
510.177187
 30
0.0
 10
1240.952169
 20
516.522187
 30
0.0
 10
1240.952169
 20
524.350187
 30
0.0
  0
SPLINE
  5
178
100
AcDbEntity
  8
W0102_Printing_35X25
 62
1
100
AcDbSpline
 70
8
 71
3
 72
8
 73
4
 74
0
 40
0
 40
0
 40
0
 40
0
 40
1
 40
1
 40
1
 40
1
 10
1240.952169
 20
524.350187
 30
0.0
 10
1240.952169
 20
532.178187
 30
0.0
 10
1247.297169
 20
538.523187
 30
0.0
 10
1255.125169
 20
538.523187
 30
0.0
  0
SPLINE
  5
179
100
AcDbEntity
  8
W0102_Printing_35X25
 62
1
100
AcDbSpline
 70
8
 71
3
 72
8
 73
4
 74
0
 40
0
 40
0
 40
0
 40
0
 40
1
 40
1
 40
1
 40
1
 10
1255.125169
 20
538.523187
 30
0.0
 10
1262.952168
 20
538.523187
 30
0.0
 10
1269.298168
 20
532.178187
 30
0.0
 10
1269.298168
 20
524.350187
 30
0.0
  0
LWPOLYLINE
  5
17a
100
AcDbEntity
  8
W0102_Printing_35X25
 62
1
100
AcDbPolyline
 90
1
 70
1
 10
2162.211646
 20
1176.318571
 30
0.0
  0
SPLINE
  5
17b
100
AcDbEntity
  8
W0102_Printing_35X25
 62
1
100
AcDbSpline
 70
8
 71
3
 72
8
 73
4
 74
0
 40
0
 40
0
 40
0
 40
0
 40
1
 40
1
 40
1
 40
1
 10
1311.817867
 20
524.350187
 30
0.0
 10
1311.817867
 20
516.522187
 30
0.0
 10
1305.471867
 20
510.177187
 30
0.0
 10
1297.644868
 20
510.177187
 30
0.0
  0
SPLINE
  5
17c
100
AcDbEntity
  8
W0102_Printing_35X25
 62
1
100
AcDbSpline
 70
8
 71
3
 72
8
 73
4
 74
0
 40
0
 40
0
 40
0
 40
0
 40
1
 40
1
 40
1
 40
1
 10
1297.644868
 20
510.177187
 30
0.0
 10
1289.816868
 20
510.177187
 30
0.0
 10
1283.471868
 20
516.522187
 30
0.0
 10
1283.471868
 20
524.350187
 30
0.0
  0
SPLINE
  5
17d
100
AcDbEntity
  8
W0102_Printing_35X25
 62
1
100
AcDbSpline
 70
8
 71
3
 72
8
 73
4
 74
0
 40
0
 40
0
 40
0
 40
0
 40
1
 40
1
 40
1
 40
1
 10
1283.471868
 20
524.350187
 30
0.0
 10
1283.471868
 20
532.178187
 30
0.0
 10
1289.816868
 20
538.523187
 30
0.0
 10
1297.644868
 20
538.523187
 30
0.0
  0
SPLINE
  5
17e
100
AcDbEntity
  8
W0102_Printing_35X25
 62
1
100
AcDbSpline
 70
8
 71
3
 72
8
 73
4
 74
0
 40
0
 40
0
 40
0
 40
0
 40
1
 40
1
 40
1
 40
1
 10
1297.644868
 20
538.523187
 30
0.0
 10
1305.471867
 20
538.523187
 30
0.0
 10
1311.817867
 20
532.178187
 30
0.0
 10
1311.817867
 20
524.350187
 30
0.0
  0
LWPOLYLINE
  5
17f
100
AcDbEntity
  8
W0102_Printing_35X25
 62
1
100
AcDbPolyline
 90
1
 70
1
 10
1269.298168
 20
524.350187
 30
0.0
  0
SPLINE
  5
180
100
AcDbEntity
  8
W0102_Printing_35X25
 62
1
100
AcDbSpline
 70
8
 71
3
 72
8
 73
4
 74
0
 40
0
 40
0
 40
0
 40
0
 40
1
 40
1
 40
1
 40
1
 10
1354.337566
 20
524.350187
 30
0.0
 10
1354.337566
 20
516.522187
 30
0.0
 10
1347.991566
 20
510.177187
 30
0.0
 10
1340.164566
 20
510.177187
 30
0.0
  0
SPLINE
  5
181
100
AcDbEntity
  8
W0102_Printing_35X25
 62
1
100
AcDbSpline
 70
8
 71
3
 72
8
 73
4
 74
0
 40
0
 40
0
 40
0
 40
0
 40
1
 40
1
 40
1
 40
1
 10
1340.164566
 20
510.177187
 30
0.0
 10
1332.336567
 20
510.177187
 30
0.0
 10
1325.990567
 20
516.522187
 30
0.0
 10
1325.990567
 20
524.350187
 30
0.0
  0
SPLINE
  5
182
100
AcDbEntity
  8
W0102_Printing_35X25
 62
1
100
AcDbSpline
 70
8
 71
3
 72
8
 73
4
 74
0
 40
0
 40
0
 40
0
 40
0
 40
1
 40
1
 40
1
 40
1
 10
1325.990567
 20
524.350187
 30
0.0
 10
1325.990567
 20
532.178187
 30
0.0
 10
1332.336567
 20
538.523187
 30
0.0
 10
1340.164566
 20
538.523187
 30
0.0
  0
SPLINE
  5
183
100
AcDbEntity
  8
W0102_Printing_35X25
 62
1
100
AcDbSpline
 70
8
 71
3
 72
8
 73
4
 74
0
 40
0
 40
0
 40
0
 40
0
 40
1
 40
1
 40
1
 40
1
 10
1340.164566
 20
538.523187
 30
0.0
 10
1347.991566
 20
538.523187
 30
0.0
 10
1354.337566
 20
532.178187
 30
0.0
 10
1354.337566
 20
524.350187
 30
0.0
  0
LWPOLYLINE
  5
184
100
AcDbEntity
  8
W0102_Printing_35X25
 62
1
100
AcDbPolyline
 90
1
 70
1
 10
1311.817867
 20
524.350187
 30
0.0
  0
SPLINE
  5
185
100
AcDbEntity
  8
W0102_Printing_35X25
 62
1
100
AcDbSpline
 70
8
 71
3
 72
8
 73
4
 74
0
 40
0
 40
0
 40
0
 40
0
 40
1
 40
1
 40
1
 40
1
 10
1396.857265
 20
524.350187
 30
0.0
 10
1396.857265
 20
516.522187
 30
0.0
 10
1390.511265
 20
510.177187
 30
0.0
 10
1382.684265
 20
510.177187
 30
0.0
  0
SPLINE
  5
186
100
AcDbEntity
  8
W0102_Printing_35X25
 62
1
100
AcDbSpline
 70
8
 71
3
 72
8
 73
4
 74
0
 40
0
 40
0
 40
0
 40
0
 40
1
 40
1
 40
1
 40
1
 10
1382.684265
 20
510.177187
 30
0.0
 10
1374.856266
 20
510.177187
 30
0.0
 10
1368.511266
 20
516.522187
 30
0.0
 10
1368.511266
 20
524.350187
 30
0.0
  0
SPLINE
  5
187
100
AcDbEntity
  8
W0102_Printing_35X25
 62
1
100
AcDbSpline
 70
8
 71
3
 72
8
 73
4
 74
0
 40
0
 40
0
 40
0
 40
0
 40
1
 40
1
 40
1
 40
1
 10
1368.511266
 20
524.350187
 30
0.0
 10
1368.511266
 20
532.178187
 30
0.0
 10
1374.856266
 20
538.523187
 30
0.0
 10
1382.684265
 20
538.523187
 30
0.0
  0
SPLINE
  5
188
100
AcDbEntity
  8
W0102_Printing_35X25
 62
1
100
AcDbSpline
 70
8
 71
3
 72
8
 73
4
 74
0
 40
0
 40
0
 40
0
 40
0
 40
1
 40
1
 40
1
 40
1
 10
1382.684265
 20
538.523187
 30
0.0
 10
1390.511265
 20
538.523187
 30
0.0
 10
1396.857265
 20
532.178187
 30
0.0
 10
1396.857265
 20
524.350187
 30
0.0
  0
LWPOLYLINE
  5
189
100
AcDbEntity
  8
W0102_Printing_35X25
 62
1
100
AcDbPolyline
 90
1
 70
1
 10
1354.337566
 20
524.350187
 30
0.0
  0
SPLINE
  5
18a
100
AcDbEntity
  8
W0102_Printing_35X25
 62
1
100
AcDbSpline
 70
8
 71
3
 72
8
 73
4
 74
0
 40
0
 40
0
 40
0
 40
0
 40
1
 40
1
 40
1
 40
1
 10
1439.376964
 20
524.350187
 30
0.0
 10
1439.376964
 20
516.522187
 30
0.0
 10
1433.030964
 20
510.177187
 30
0.0
 10
1425.203964
 20
510.177187
 30
0.0
  0
SPLINE
  5
18b
100
AcDbEntity
  8
W0102_Printing_35X25
 62
1
100
AcDbSpline
 70
8
 71
3
 72
8
 73
4
 74
0
 40
0
 40
0
 40
0
 40
0
 40
1
 40
1
 40
1
 40
1
 10
1425.203964
 20
510.177187
 30
0.0
 10
1417.375965
 20
510.177187
 30
0.0
 10
1411.030965
 20
516.522187
 30
0.0
 10
1411.030965
 20
524.350187
 30
0.0
  0
SPLINE
  5
18c
100
AcDbEntity
  8
W0102_Printing_35X25
 62
1
100
AcDbSpline
 70
8
 71
3
 72
8
 73
4
 74
0
 40
0
 40
0
 40
0
 40
0
 40
1
 40
1
 40
1
 40
1
 10
1411.030965
 20
524.350187
 30
0.0
 10
1411.030965
 20
532.178187
 30
0.0
 10
1417.375965
 20
538.523187
 30
0.0
 10
1425.203964
 20
538.523187
 30
0.0
  0
SPLINE
  5
18d
100
AcDbEntity
  8
W0102_Printing_35X25
 62
1
100
AcDbSpline
 70
8
 71
3
 72
8
 73
4
 74
0
 40
0
 40
0
 40
0
 40
0
 40
1
 40
1
 40
1
 40
1
 10
1425.203964
 20
538.523187
 30
0.0
 10
1433.030964
 20
538.523187
 30
0.0
 10
1439.376964
 20
532.178187
 30
0.0
 10
1439.376964
 20
524.350187
 30
0.0
  0
LWPOLYLINE
  5
18e
100
AcDbEntity
  8
W0102_Printing_35X25
 62
1
100
AcDbPolyline
 90
1
 70
1
 10
1396.857265
 20
524.350187
 30
0.0
  0
SPLINE
  5
18f
100
AcDbEntity
  8
W0102_Printing_35X25
 62
1
100
AcDbSpline
 70
8
 71
3
 72
8
 73
4
 74
0
 40
0
 40
0
 40
0
 40
0
 40
1
 40
1
 40
1
 40
1
 10
1481.896563
 20
524.350187
 30
0.0
 10
1481.896563
 20
516.522187
 30
0.0
 10
1475.550563
 20
510.177187
 30
0.0
 10
1467.723563
 20
510.177187
 30
0.0
  0
SPLINE
  5
190
100
AcDbEntity
  8
W0102_Printing_35X25
 62
1
100
AcDbSpline
 70
8
 71
3
 72
8
 73
4
 74
0
 40
0
 40
0
 40
0
 40
0
 40
1
 40
1
 40
1
 40
1
 10
1467.723563
 20
510.177187
 30
0.0
 10
1459.895564
 20
510.177187
 30
0.0
 10
1453.550564
 20
516.522187
 30
0.0
 10
1453.550564
 20
524.350187
 30
0.0
  0
SPLINE
  5
191
100
AcDbEntity
  8
W0102_Printing_35X25
 62
1
100
AcDbSpline
 70
8
 71
3
 72
8
 73
4
 74
0
 40
0
 40
0
 40
0
 40
0
 40
1
 40
1
 40
1
 40
1
 10
1453.550564
 20
524.350187
 30
0.0
 10
1453.550564
 20
532.178187
 30
0.0
 10
1459.895564
 20
538.523187
 30
0.0
 10
1467.723563
 20
538.523187
 30
0.0
  0
SPLINE
  5
192
100
AcDbEntity
  8
W0102_Printing_35X25
 62
1
100
AcDbSpline
 70
8
 71
3
 72
8
 73
4
 74
0
 40
0
 40
0
 40
0
 40
0
 40
1
 40
1
 40
1
 40
1
 10
1467.723563
 20
538.523187
 30
0.0
 10
1475.550563
 20
538.523187
 30
0.0
 10
1481.896563
 20
532.178187
 30
0.0
 10
1481.896563
 20
524.350187
 30
0.0
  0
LWPOLYLINE
  5
193
100
AcDbEntity
  8
W0102_Printing_35X25
 62
1
100
AcDbPolyline
 90
1
 70
1
 10
1439.376964
 20
524.350187
 30
0.0
  0
SPLINE
  5
194
100
AcDbEntity
  8
W0102_Printing_35X25
 62
1
100
AcDbSpline
 70
8
 71
3
 72
8
 73
4
 74
0
 40
0
 40
0
 40
0
 40
0
 40
1
 40
1
 40
1
 40
1
 10
1524.416362
 20
524.350187
 30
0.0
 10
1524.416362
 20
516.522187
 30
0.0
 10
1518.070362
 20
510.177187
 30
0.0
 10
1510.243362
 20
510.177187
 30
0.0
  0
SPLINE
  5
195
100
AcDbEntity
  8
W0102_Printing_35X25
 62
1
100
AcDbSpline
 70
8
 71
3
 72
8
 73
4
 74
0
 40
0
 40
0
 40
0
 40
0
 40
1
 40
1
 40
1
 40
1
 10
1510.243362
 20
510.177187
 30
0.0
 10
1502.415362
 20
510.177187
 30
0.0
 10
1496.069363
 20
516.522187
 30
0.0
 10
1496.069363
 20
524.350187
 30
0.0
  0
SPLINE
  5
196
100
AcDbEntity
  8
W0102_Printing_35X25
 62
1
100
AcDbSpline
 70
8
 71
3
 72
8
 73
4
 74
0
 40
0
 40
0
 40
0
 40
0
 40
1
 40
1
 40
1
 40
1
 10
1496.069363
 20
524.350187
 30
0.0
 10
1496.069363
 20
532.178187
 30
0.0
 10
1502.415362
 20
538.523187
 30
0.0
 10
1510.243362
 20
538.523187
 30
0.0
  0
SPLINE
  5
197
100
AcDbEntity
  8
W0102_Printing_35X25
 62
1
100
AcDbSpline
 70
8
 71
3
 72
8
 73
4
 74
0
 40
0
 40
0
 40
0
 40
0
 40
1
 40
1
 40
1
 40
1
 10
1510.243362
 20
538.523187
 30
0.0
 10
1518.070362
 20
538.523187
 30
0.0
 10
1524.416362
 20
532.178187
 30
0.0
 10
1524.416362
 20
524.350187
 30
0.0
  0
LWPOLYLINE
  5
198
100
AcDbEntity
  8
W0102_Printing_35X25
 62
1
100
AcDbPolyline
 90
1
 70
1
 10
1481.896563
 20
524.350187
 30
0.0
  0
SPLINE
  5
199
100
AcDbEntity
  8
W0102_Printing_35X25
 62
1
100
AcDbSpline
 70
8
 71
3
 72
8
 73
4
 74
0
 40
0
 40
0
 40
0
 40
0
 40
1
 40
1
 40
1
 40
1
 10
1566.935961
 20
524.350187
 30
0.0
 10
1566.935961
 20
516.522187
 30
0.0
 10
1560.589961
 20
510.177187
 30
0.0
 10
1552.762961
 20
510.177187
 30
0.0
  0
SPLINE
  5
19a
100
AcDbEntity
  8
W0102_Printing_35X25
 62
1
100
AcDbSpline
 70
8
 71
3
 72
8
 73
4
 74
0
 40
0
 40
0
 40
0
 40
0
 40
1
 40
1
 40
1
 40
1
 10
1552.762961
 20
510.177187
 30
0.0
 10
1544.934961
 20
510.177187
 30
0.0
 10
1538.589962
 20
516.522187
 30
0.0
 10
1538.589962
 20
524.350187
 30
0.0
  0
SPLINE
  5
19b
100
AcDbEntity
  8
W0102_Printing_35X25
 62
1
100
AcDbSpline
 70
8
 71
3
 72
8
 73
4
 74
0
 40
0
 40
0
 40
0
 40
0
 40
1
 40
1
 40
1
 40
1
 10
1538.589962
 20
524.350187
 30
0.0
 10
1538.589962
 20
532.178187
 30
0.0
 10
1544.934961
 20
538.523187
 30
0.0
 10
1552.762961
 20
538.523187
 30
0.0
  0
SPLINE
  5
19c
100
AcDbEntity
  8
W0102_Printing_35X25
 62
1
100
AcDbSpline
 70
8
 71
3
 72
8
 73
4
 74
0
 40
0
 40
0
 40
0
 40
0
 40
1
 40
1
 40
1
 40
1
 10
1552.762961
 20
538.523187
 30
0.0
 10
1560.589961
 20
538.523187
 30
0.0
 10
1566.935961
 20
532.178187
 30
0.0
 10
1566.935961
 20
524.350187
 30
0.0
  0
LWPOLYLINE
  5
19d
100
AcDbEntity
  8
W0102_Printing_35X25
 62
1
100
AcDbPolyline
 90
1
 70
1
 10
1524.416362
 20
524.350187
 30
0.0
  0
SPLINE
  5
19e
100
AcDbEntity
  8
W0102_Printing_35X25
 62
1
100
AcDbSpline
 70
8
 71
3
 72
8
 73
4
 74
0
 40
0
 40
0
 40
0
 40
0
 40
1
 40
1
 40
1
 40
1
 10
1609.455660
 20
524.350187
 30
0.0
 10
1609.455660
 20
516.522187
 30
0.0
 10
1603.109660
 20
510.177187
 30
0.0
 10
1595.282660
 20
510.177187
 30
0.0
  0
SPLINE
  5
19f
100
AcDbEntity
  8
W0102_Printing_35X25
 62
1
100
AcDbSpline
 70
8
 71
3
 72
8
 73
4
 74
0
 40
0
 40
0
 40
0
 40
0
 40
1
 40
1
 40
1
 40
1
 10
1595.282660
 20
510.177187
 30
0.0
 10
1587.454660
 20
510.177187
 30
0.0
 10
1581.109660
 20
516.522187
 30
0.0
 10
1581.109660
 20
524.350187
 30
0.0
  0
SPLINE
  5
1a0
100
AcDbEntity
  8
W0102_Printing_35X25
 62
1
100
AcDbSpline
 70
8
 71
3
 72
8
 73
4
 74
0
 40
0
 40
0
 40
0
 40
0
 40
1
 40
1
 40
1
 40
1
 10
1581.109660
 20
524.350187
 30
0.0
 10
1581.109660
 20
532.178187
 30
0.0
 10
1587.454660
 20
538.523187
 30
0.0
 10
1595.282660
 20
538.523187
 30
0.0
  0
SPLINE
  5
1a1
100
AcDbEntity
  8
W0102_Printing_35X25
 62
1
100
AcDbSpline
 70
8
 71
3
 72
8
 73
4
 74
0
 40
0
 40
0
 40
0
 40
0
 40
1
 40
1
 40
1
 40
1
 10
1595.282660
 20
538.523187
 30
0.0
 10
1603.109660
 20
538.523187
 30
0.0
 10
1609.455660
 20
532.178187
 30
0.0
 10
1609.455660
 20
524.350187
 30
0.0
  0
LWPOLYLINE
  5
1a2
100
AcDbEntity
  8
W0102_Printing_35X25
 62
1
100
AcDbPolyline
 90
1
 70
1
 10
1566.935961
 20
524.350187
 30
0.0
  0
SPLINE
  5
1a3
100
AcDbEntity
  8
W0102_Printing_35X25
 62
1
100
AcDbSpline
 70
8
 71
3
 72
8
 73
4
 74
0
 40
0
 40
0
 40
0
 40
0
 40
1
 40
1
 40
1
 40
1
 10
1651.975259
 20
524.350187
 30
0.0
 10
1651.975259
 20
516.522187
 30
0.0
 10
1645.629259
 20
510.177187
 30
0.0
 10
1637.802259
 20
510.177187
 30
0.0
  0
SPLINE
  5
1a4
100
AcDbEntity
  8
W0102_Printing_35X25
 62
1
100
AcDbSpline
 70
8
 71
3
 72
8
 73
4
 74
0
 40
0
 40
0
 40
0
 40
0
 40
1
 40
1
 40
1
 40
1
 10
1637.802259
 20
510.177187
 30
0.0
 10
1629.974259
 20
510.177187
 30
0.0
 10
1623.629259
 20
516.522187
 30
0.0
 10
1623.629259
 20
524.350187
 30
0.0
  0
SPLINE
  5
1a5
100
AcDbEntity
  8
W0102_Printing_35X25
 62
1
100
AcDbSpline
 70
8
 71
3
 72
8
 73
4
 74
0
 40
0
 40
0
 40
0
 40
0
 40
1
 40
1
 40
1
 40
1
 10
1623.629259
 20
524.350187
 30
0.0
 10
1623.629259
 20
532.178187
 30
0.0
 10
1629.974259
 20
538.523187
 30
0.0
 10
1637.802259
 20
538.523187
 30
0.0
  0
SPLINE
  5
1a6
100
AcDbEntity
  8
W0102_Printing_35X25
 62
1
100
AcDbSpline
 70
8
 71
3
 72
8
 73
4
 74
0
 40
0
 40
0
 40
0
 40
0
 40
1
 40
1
 40
1
 40
1
 10
1637.802259
 20
538.523187
 30
0.0
 10
1645.629259
 20
538.523187
 30
0.0
 10
1651.975259
 20
532.178187
 30
0.0
 10
1651.975259
 20
524.350187
 30
0.0
  0
LWPOLYLINE
  5
1a7
100
AcDbEntity
  8
W0102_Printing_35X25
 62
1
100
AcDbPolyline
 90
1
 70
1
 10
1609.455660
 20
524.350187
 30
0.0
  0
SPLINE
  5
1a8
100
AcDbEntity
  8
W0102_Printing_35X25
 62
1
100
AcDbSpline
 70
8
 71
3
 72
8
 73
4
 74
0
 40
0
 40
0
 40
0
 40
0
 40
1
 40
1
 40
1
 40
1
 10
1694.495058
 20
524.350187
 30
0.0
 10
1694.495058
 20
516.522187
 30
0.0
 10
1688.149058
 20
510.177187
 30
0.0
 10
1680.322058
 20
510.177187
 30
0.0
  0
SPLINE
  5
1a9
100
AcDbEntity
  8
W0102_Printing_35X25
 62
1
100
AcDbSpline
 70
8
 71
3
 72
8
 73
4
 74
0
 40
0
 40
0
 40
0
 40
0
 40
1
 40
1
 40
1
 40
1
 10
1680.322058
 20
510.177187
 30
0.0
 10
1672.494058
 20
510.177187
 30
0.0
 10
1666.148058
 20
516.522187
 30
0.0
 10
1666.148058
 20
524.350187
 30
0.0
  0
SPLINE
  5
1aa
100
AcDbEntity
  8
W0102_Printing_35X25
 62
1
100
AcDbSpline
 70
8
 71
3
 72
8
 73
4
 74
0
 40
0
 40
0
 40
0
 40
0
 40
1
 40
1
 40
1
 40
1
 10
1666.148058
 20
524.350187
 30
0.0
 10
1666.148058
 20
532.178187
 30
0.0
 10
1672.494058
 20
538.523187
 30
0.0
 10
1680.322058
 20
538.523187
 30
0.0
  0
SPLINE
  5
1ab
100
AcDbEntity
  8
W0102_Printing_35X25
 62
1
100
AcDbSpline
 70
8
 71
3
 72
8
 73
4
 74
0
 40
0
 40
0
 40
0
 40
0
 40
1
 40
1
 40
1
 40
1
 10
1680.322058
 20
538.523187
 30
0.0
 10
1688.149058
 20
538.523187
 30
0.0
 10
1694.495058
 20
532.178187
 30
0.0
 10
1694.495058
 20
524.350187
 30
0.0
  0
LWPOLYLINE
  5
1ac
100
AcDbEntity
  8
W0102_Printing_35X25
 62
1
100
AcDbPolyline
 90
1
 70
1
 10
1651.975259
 20
524.350187
 30
0.0
  0
SPLINE
  5
1ad
100
AcDbEntity
  8
W0102_Printing_35X25
 62
1
100
AcDbSpline
 70
8
 71
3
 72
8
 73
4
 74
0
 40
0
 40
0
 40
0
 40
0
 40
1
 40
1
 40
1
 40
1
 10
1737.014757
 20
524.350187
 30
0.0
 10
1737.014757
 20
516.522187
 30
0.0
 10
1730.668757
 20
510.177187
 30
0.0
 10
1722.841757
 20
510.177187
 30
0.0
  0
SPLINE
  5
1ae
100
AcDbEntity
  8
W0102_Printing_35X25
 62
1
100
AcDbSpline
 70
8
 71
3
 72
8
 73
4
 74
0
 40
0
 40
0
 40
0
 40
0
 40
1
 40
1
 40
1
 40
1
 10
1722.841757
 20
510.177187
 30
0.0
 10
1715.013757
 20
510.177187
 30
0.0
 10
1708.668757
 20
516.522187
 30
0.0
 10
1708.668757
 20
524.350187
 30
0.0
  0
SPLINE
  5
1af
100
AcDbEntity
  8
W0102_Printing_35X25
 62
1
100
AcDbSpline
 70
8
 71
3
 72
8
 73
4
 74
0
 40
0
 40
0
 40
0
 40
0
 40
1
 40
1
 40
1
 40
1
 10
1708.668757
 20
524.350187
 30
0.0
 10
1708.668757
 20
532.178187
 30
0.0
 10
1715.013757
 20
538.523187
 30
0.0
 10
1722.841757
 20
538.523187
 30
0.0
  0
SPLINE
  5
1b0
100
AcDbEntity
  8
W0102_Printing_35X25
 62
1
100
AcDbSpline
 70
8
 71
3
 72
8
 73
4
 74
0
 40
0
 40
0
 40
0
 40
0
 40
1
 40
1
 40
1
 40
1
 10
1722.841757
 20
538.523187
 30
0.0
 10
1730.668757
 20
538.523187
 30
0.0
 10
1737.014757
 20
532.178187
 30
0.0
 10
1737.014757
 20
524.350187
 30
0.0
  0
LWPOLYLINE
  5
1b1
100
AcDbEntity
  8
W0102_Printing_35X25
 62
1
100
AcDbPolyline
 90
1
 70
1
 10
1694.495058
 20
524.350187
 30
0.0
  0
SPLINE
  5
1b2
100
AcDbEntity
  8
W0102_Printing_35X25
 62
1
100
AcDbSpline
 70
8
 71
3
 72
8
 73
4
 74
0
 40
0
 40
0
 40
0
 40
0
 40
1
 40
1
 40
1
 40
1
 10
1779.534356
 20
524.350187
 30
0.0
 10
1779.534356
 20
516.522187
 30
0.0
 10
1773.188356
 20
510.177187
 30
0.0
 10
1765.361356
 20
510.177187
 30
0.0
  0
SPLINE
  5
1b3
100
AcDbEntity
  8
W0102_Printing_35X25
 62
1
100
AcDbSpline
 70
8
 71
3
 72
8
 73
4
 74
0
 40
0
 40
0
 40
0
 40
0
 40
1
 40
1
 40
1
 40
1
 10
1765.361356
 20
510.177187
 30
0.0
 10
1757.533356
 20
510.177187
 30
0.0
 10
1751.188356
 20
516.522187
 30
0.0
 10
1751.188356
 20
524.350187
 30
0.0
  0
SPLINE
  5
1b4
100
AcDbEntity
  8
W0102_Printing_35X25
 62
1
100
AcDbSpline
 70
8
 71
3
 72
8
 73
4
 74
0
 40
0
 40
0
 40
0
 40
0
 40
1
 40
1
 40
1
 40
1
 10
1751.188356
 20
524.350187
 30
0.0
 10
1751.188356
 20
532.178187
 30
0.0
 10
1757.533356
 20
538.523187
 30
0.0
 10
1765.361356
 20
538.523187
 30
0.0
  0
SPLINE
  5
1b5
100
AcDbEntity
  8
W0102_Printing_35X25
 62
1
100
AcDbSpline
 70
8
 71
3
 72
8
 73
4
 74
0
 40
0
 40
0
 40
0
 40
0
 40
1
 40
1
 40
1
 40
1
 10
1765.361356
 20
538.523187
 30
0.0
 10
1773.188356
 20
538.523187
 30
0.0
 10
1779.534356
 20
532.178187
 30
0.0
 10
1779.534356
 20
524.350187
 30
0.0
  0
LWPOLYLINE
  5
1b6
100
AcDbEntity
  8
W0102_Printing_35X25
 62
1
100
AcDbPolyline
 90
1
 70
1
 10
1737.014757
 20
524.350187
 30
0.0
  0
SPLINE
  5
1b7
100
AcDbEntity
  8
W0102_Printing_35X25
 62
1
100
AcDbSpline
 70
8
 71
3
 72
8
 73
4
 74
0
 40
0
 40
0
 40
0
 40
0
 40
1
 40
1
 40
1
 40
1
 10
1822.054054
 20
524.350187
 30
0.0
 10
1822.054054
 20
516.522187
 30
0.0
 10
1815.708055
 20
510.177187
 30
0.0
 10
1807.881055
 20
510.177187
 30
0.0
  0
SPLINE
  5
1b8
100
AcDbEntity
  8
W0102_Printing_35X25
 62
1
100
AcDbSpline
 70
8
 71
3
 72
8
 73
4
 74
0
 40
0
 40
0
 40
0
 40
0
 40
1
 40
1
 40
1
 40
1
 10
1807.881055
 20
510.177187
 30
0.0
 10
1800.053055
 20
510.177187
 30
0.0
 10
1793.708055
 20
516.522187
 30
0.0
 10
1793.708055
 20
524.350187
 30
0.0
  0
SPLINE
  5
1b9
100
AcDbEntity
  8
W0102_Printing_35X25
 62
1
100
AcDbSpline
 70
8
 71
3
 72
8
 73
4
 74
0
 40
0
 40
0
 40
0
 40
0
 40
1
 40
1
 40
1
 40
1
 10
1793.708055
 20
524.350187
 30
0.0
 10
1793.708055
 20
532.178187
 30
0.0
 10
1800.053055
 20
538.523187
 30
0.0
 10
1807.881055
 20
538.523187
 30
0.0
  0
SPLINE
  5
1ba
100
AcDbEntity
  8
W0102_Printing_35X25
 62
1
100
AcDbSpline
 70
8
 71
3
 72
8
 73
4
 74
0
 40
0
 40
0
 40
0
 40
0
 40
1
 40
1
 40
1
 40
1
 10
1807.881055
 20
538.523187
 30
0.0
 10
1815.708055
 20
538.523187
 30
0.0
 10
1822.054054
 20
532.178187
 30
0.0
 10
1822.054054
 20
524.350187
 30
0.0
  0
LWPOLYLINE
  5
1bb
100
AcDbEntity
  8
W0102_Printing_35X25
 62
1
100
AcDbPolyline
 90
1
 70
1
 10
1779.534356
 20
524.350187
 30
0.0
  0
SPLINE
  5
1bc
100
AcDbEntity
  8
W0102_Printing_35X25
 62
1
100
AcDbSpline
 70
8
 71
3
 72
8
 73
4
 74
0
 40
0
 40
0
 40
0
 40
0
 40
1
 40
1
 40
1
 40
1
 10
1864.573853
 20
524.350187
 30
0.0
 10
1864.573853
 20
516.522187
 30
0.0
 10
1858.227854
 20
510.177187
 30
0.0
 10
1850.400854
 20
510.177187
 30
0.0
  0
SPLINE
  5
1bd
100
AcDbEntity
  8
W0102_Printing_35X25
 62
1
100
AcDbSpline
 70
8
 71
3
 72
8
 73
4
 74
0
 40
0
 40
0
 40
0
 40
0
 40
1
 40
1
 40
1
 40
1
 10
1850.400854
 20
510.177187
 30
0.0
 10
1842.572854
 20
510.177187
 30
0.0
 10
1836.226854
 20
516.522187
 30
0.0
 10
1836.226854
 20
524.350187
 30
0.0
  0
SPLINE
  5
1be
100
AcDbEntity
  8
W0102_Printing_35X25
 62
1
100
AcDbSpline
 70
8
 71
3
 72
8
 73
4
 74
0
 40
0
 40
0
 40
0
 40
0
 40
1
 40
1
 40
1
 40
1
 10
1836.226854
 20
524.350187
 30
0.0
 10
1836.226854
 20
532.178187
 30
0.0
 10
1842.572854
 20
538.523187
 30
0.0
 10
1850.400854
 20
538.523187
 30
0.0
  0
SPLINE
  5
1bf
100
AcDbEntity
  8
W0102_Printing_35X25
 62
1
100
AcDbSpline
 70
8
 71
3
 72
8
 73
4
 74
0
 40
0
 40
0
 40
0
 40
0
 40
1
 40
1
 40
1
 40
1
 10
1850.400854
 20
538.523187
 30
0.0
 10
1858.227854
 20
538.523187
 30
0.0
 10
1864.573853
 20
532.178187
 30
0.0
 10
1864.573853
 20
524.350187
 30
0.0
  0
LWPOLYLINE
  5
1c0
100
AcDbEntity
  8
W0102_Printing_35X25
 62
1
100
AcDbPolyline
 90
1
 70
1
 10
1822.054054
 20
524.350187
 30
0.0
  0
SPLINE
  5
1c1
100
AcDbEntity
  8
W0102_Printing_35X25
 62
1
100
AcDbSpline
 70
8
 71
3
 72
8
 73
4
 74
0
 40
0
 40
0
 40
0
 40
0
 40
1
 40
1
 40
1
 40
1
 10
1907.093452
 20
524.350187
 30
0.0
 10
1907.093452
 20
516.522187
 30
0.0
 10
1900.747452
 20
510.177187
 30
0.0
 10
1892.920453
 20
510.177187
 30
0.0
  0
SPLINE
  5
1c2
100
AcDbEntity
  8
W0102_Printing_35X25
 62
1
100
AcDbSpline
 70
8
 71
3
 72
8
 73
4
 74
0
 40
0
 40
0
 40
0
 40
0
 40
1
 40
1
 40
1
 40
1
 10
1892.920453
 20
510.177187
 30
0.0
 10
1885.092453
 20
510.177187
 30
0.0
 10
1878.747453
 20
516.522187
 30
0.0
 10
1878.747453
 20
524.350187
 30
0.0
  0
SPLINE
  5
1c3
100
AcDbEntity
  8
W0102_Printing_35X25
 62
1
100
AcDbSpline
 70
8
 71
3
 72
8
 73
4
 74
0
 40
0
 40
0
 40
0
 40
0
 40
1
 40
1
 40
1
 40
1
 10
1878.747453
 20
524.350187
 30
0.0
 10
1878.747453
 20
532.178187
 30
0.0
 10
1885.092453
 20
538.523187
 30
0.0
 10
1892.920453
 20
538.523187
 30
0.0
  0
SPLINE
  5
1c4
100
AcDbEntity
  8
W0102_Printing_35X25
 62
1
100
AcDbSpline
 70
8
 71
3
 72
8
 73
4
 74
0
 40
0
 40
0
 40
0
 40
0
 40
1
 40
1
 40
1
 40
1
 10
1892.920453
 20
538.523187
 30
0.0
 10
1900.747452
 20
538.523187
 30
0.0
 10
1907.093452
 20
532.178187
 30
0.0
 10
1907.093452
 20
524.350187
 30
0.0
  0
LWPOLYLINE
  5
1c5
100
AcDbEntity
  8
W0102_Printing_35X25
 62
1
100
AcDbPolyline
 90
1
 70
1
 10
1864.573853
 20
524.350187
 30
0.0
  0
SPLINE
  5
1c6
100
AcDbEntity
  8
W0102_Printing_35X25
 62
1
100
AcDbSpline
 70
8
 71
3
 72
8
 73
4
 74
0
 40
0
 40
0
 40
0
 40
0
 40
1
 40
1
 40
1
 40
1
 10
1949.613151
 20
524.350187
 30
0.0
 10
1949.613151
 20
516.522187
 30
0.0
 10
1943.267151
 20
510.177187
 30
0.0
 10
1935.440152
 20
510.177187
 30
0.0
  0
SPLINE
  5
1c7
100
AcDbEntity
  8
W0102_Printing_35X25
 62
1
100
AcDbSpline
 70
8
 71
3
 72
8
 73
4
 74
0
 40
0
 40
0
 40
0
 40
0
 40
1
 40
1
 40
1
 40
1
 10
1935.440152
 20
510.177187
 30
0.0
 10
1927.612152
 20
510.177187
 30
0.0
 10
1921.267152
 20
516.522187
 30
0.0
 10
1921.267152
 20
524.350187
 30
0.0
  0
SPLINE
  5
1c8
100
AcDbEntity
  8
W0102_Printing_35X25
 62
1
100
AcDbSpline
 70
8
 71
3
 72
8
 73
4
 74
0
 40
0
 40
0
 40
0
 40
0
 40
1
 40
1
 40
1
 40
1
 10
1921.267152
 20
524.350187
 30
0.0
 10
1921.267152
 20
532.178187
 30
0.0
 10
1927.612152
 20
538.523187
 30
0.0
 10
1935.440152
 20
538.523187
 30
0.0
  0
SPLINE
  5
1c9
100
AcDbEntity
  8
W0102_Printing_35X25
 62
1
100
AcDbSpline
 70
8
 71
3
 72
8
 73
4
 74
0
 40
0
 40
0
 40
0
 40
0
 40
1
 40
1
 40
1
 40
1
 10
1935.440152
 20
538.523187
 30
0.0
 10
1943.267151
 20
538.523187
 30
0.0
 10
1949.613151
 20
532.178187
 30
0.0
 10
1949.613151
 20
524.350187
 30
0.0
  0
LWPOLYLINE
  5
1ca
100
AcDbEntity
  8
W0102_Printing_35X25
 62
1
100
AcDbPolyline
 90
1
 70
1
 10
1907.093452
 20
524.350187
 30
0.0
  0
SPLINE
  5
1cb
100
AcDbEntity
  8
W0102_Printing_35X25
 62
1
100
AcDbSpline
 70
8
 71
3
 72
8
 73
4
 74
0
 40
0
 40
0
 40
0
 40
0
 40
1
 40
1
 40
1
 40
1
 10
1992.132750
 20
524.350187
 30
0.0
 10
1992.132750
 20
516.522187
 30
0.0
 10
1985.786750
 20
510.177187
 30
0.0
 10
1977.959751
 20
510.177187
 30
0.0
  0
SPLINE
  5
1cc
100
AcDbEntity
  8
W0102_Printing_35X25
 62
1
100
AcDbSpline
 70
8
 71
3
 72
8
 73
4
 74
0
 40
0
 40
0
 40
0
 40
0
 40
1
 40
1
 40
1
 40
1
 10
1977.959751
 20
510.177187
 30
0.0
 10
1970.131751
 20
510.177187
 30
0.0
 10
1963.786751
 20
516.522187
 30
0.0
 10
1963.786751
 20
524.350187
 30
0.0
  0
SPLINE
  5
1cd
100
AcDbEntity
  8
W0102_Printing_35X25
 62
1
100
AcDbSpline
 70
8
 71
3
 72
8
 73
4
 74
0
 40
0
 40
0
 40
0
 40
0
 40
1
 40
1
 40
1
 40
1
 10
1963.786751
 20
524.350187
 30
0.0
 10
1963.786751
 20
532.178187
 30
0.0
 10
1970.131751
 20
538.523187
 30
0.0
 10
1977.959751
 20
538.523187
 30
0.0
  0
SPLINE
  5
1ce
100
AcDbEntity
  8
W0102_Printing_35X25
 62
1
100
AcDbSpline
 70
8
 71
3
 72
8
 73
4
 74
0
 40
0
 40
0
 40
0
 40
0
 40
1
 40
1
 40
1
 40
1
 10
1977.959751
 20
538.523187
 30
0.0
 10
1985.786750
 20
538.523187
 30
0.0
 10
1992.132750
 20
532.178187
 30
0.0
 10
1992.132750
 20
524.350187
 30
0.0
  0
LWPOLYLINE
  5
1cf
100
AcDbEntity
  8
W0102_Printing_35X25
 62
1
100
AcDbPolyline
 90
1
 70
1
 10
1949.613151
 20
524.350187
 30
0.0
  0
SPLINE
  5
1d0
100
AcDbEntity
  8
W0102_Printing_35X25
 62
1
100
AcDbSpline
 70
8
 71
3
 72
8
 73
4
 74
0
 40
0
 40
0
 40
0
 40
0
 40
1
 40
1
 40
1
 40
1
 10
2034.652549
 20
524.350187
 30
0.0
 10
2034.652549
 20
516.522187
 30
0.0
 10
2028.306549
 20
510.177187
 30
0.0
 10
2020.479549
 20
510.177187
 30
0.0
  0
SPLINE
  5
1d1
100
AcDbEntity
  8
W0102_Printing_35X25
 62
1
100
AcDbSpline
 70
8
 71
3
 72
8
 73
4
 74
0
 40
0
 40
0
 40
0
 40
0
 40
1
 40
1
 40
1
 40
1
 10
2020.479549
 20
510.177187
 30
0.0
 10
2012.651550
 20
510.177187
 30
0.0
 10
2006.305550
 20
516.522187
 30
0.0
 10
2006.305550
 20
524.350187
 30
0.0
  0
SPLINE
  5
1d2
100
AcDbEntity
  8
W0102_Printing_35X25
 62
1
100
AcDbSpline
 70
8
 71
3
 72
8
 73
4
 74
0
 40
0
 40
0
 40
0
 40
0
 40
1
 40
1
 40
1
 40
1
 10
2006.305550
 20
524.350187
 30
0.0
 10
2006.305550
 20
532.178187
 30
0.0
 10
2012.651550
 20
538.523187
 30
0.0
 10
2020.479549
 20
538.523187
 30
0.0
  0
SPLINE
  5
1d3
100
AcDbEntity
  8
W0102_Printing_35X25
 62
1
100
AcDbSpline
 70
8
 71
3
 72
8
 73
4
 74
0
 40
0
 40
0
 40
0
 40
0
 40
1
 40
1
 40
1
 40
1
 10
2020.479549
 20
538.523187
 30
0.0
 10
2028.306549
 20
538.523187
 30
0.0
 10
2034.652549
 20
532.178187
 30
0.0
 10
2034.652549
 20
524.350187
 30
0.0
  0
LWPOLYLINE
  5
1d4
100
AcDbEntity
  8
W0102_Printing_35X25
 62
1
100
AcDbPolyline
 90
1
 70
1
 10
1992.132750
 20
524.350187
 30
0.0
  0
SPLINE
  5
1d5
100
AcDbEntity
  8
W0102_Printing_35X25
 62
1
100
AcDbSpline
 70
8
 71
3
 72
8
 73
4
 74
0
 40
0
 40
0
 40
0
 40
0
 40
1
 40
1
 40
1
 40
1
 10
2077.172048
 20
524.350187
 30
0.0
 10
2077.172048
 20
516.522187
 30
0.0
 10
2070.827048
 20
510.177187
 30
0.0
 10
2062.999048
 20
510.177187
 30
0.0
  0
SPLINE
  5
1d6
100
AcDbEntity
  8
W0102_Printing_35X25
 62
1
100
AcDbSpline
 70
8
 71
3
 72
8
 73
4
 74
0
 40
0
 40
0
 40
0
 40
0
 40
1
 40
1
 40
1
 40
1
 10
2062.999048
 20
510.177187
 30
0.0
 10
2055.171049
 20
510.177187
 30
0.0
 10
2048.826049
 20
516.522187
 30
0.0
 10
2048.826049
 20
524.350187
 30
0.0
  0
SPLINE
  5
1d7
100
AcDbEntity
  8
W0102_Printing_35X25
 62
1
100
AcDbSpline
 70
8
 71
3
 72
8
 73
4
 74
0
 40
0
 40
0
 40
0
 40
0
 40
1
 40
1
 40
1
 40
1
 10
2048.826049
 20
524.350187
 30
0.0
 10
2048.826049
 20
532.178187
 30
0.0
 10
2055.171049
 20
538.523187
 30
0.0
 10
2062.999048
 20
538.523187
 30
0.0
  0
SPLINE
  5
1d8
100
AcDbEntity
  8
W0102_Printing_35X25
 62
1
100
AcDbSpline
 70
8
 71
3
 72
8
 73
4
 74
0
 40
0
 40
0
 40
0
 40
0
 40
1
 40
1
 40
1
 40
1
 10
2062.999048
 20
538.523187
 30
0.0
 10
2070.827048
 20
538.523187
 30
0.0
 10
2077.172048
 20
532.178187
 30
0.0
 10
2077.172048
 20
524.350187
 30
0.0
  0
LWPOLYLINE
  5
1d9
100
AcDbEntity
  8
W0102_Printing_35X25
 62
1
100
AcDbPolyline
 90
1
 70
1
 10
2034.652549
 20
524.350187
 30
0.0
  0
SPLINE
  5
1da
100
AcDbEntity
  8
W0102_Printing_35X25
 62
1
100
AcDbSpline
 70
8
 71
3
 72
8
 73
4
 74
0
 40
0
 40
0
 40
0
 40
0
 40
1
 40
1
 40
1
 40
1
 10
2119.691847
 20
524.350187
 30
0.0
 10
2119.691847
 20
516.522187
 30
0.0
 10
2113.346847
 20
510.177187
 30
0.0
 10
2105.518847
 20
510.177187
 30
0.0
  0
SPLINE
  5
1db
100
AcDbEntity
  8
W0102_Printing_35X25
 62
1
100
AcDbSpline
 70
8
 71
3
 72
8
 73
4
 74
0
 40
0
 40
0
 40
0
 40
0
 40
1
 40
1
 40
1
 40
1
 10
2105.518847
 20
510.177187
 30
0.0
 10
2097.690848
 20
510.177187
 30
0.0
 10
2091.345848
 20
516.522187
 30
0.0
 10
2091.345848
 20
524.350187
 30
0.0
  0
SPLINE
  5
1dc
100
AcDbEntity
  8
W0102_Printing_35X25
 62
1
100
AcDbSpline
 70
8
 71
3
 72
8
 73
4
 74
0
 40
0
 40
0
 40
0
 40
0
 40
1
 40
1
 40
1
 40
1
 10
2091.345848
 20
524.350187
 30
0.0
 10
2091.345848
 20
532.178187
 30
0.0
 10
2097.690848
 20
538.523187
 30
0.0
 10
2105.518847
 20
538.523187
 30
0.0
  0
SPLINE
  5
1dd
100
AcDbEntity
  8
W0102_Printing_35X25
 62
1
100
AcDbSpline
 70
8
 71
3
 72
8
 73
4
 74
0
 40
0
 40
0
 40
0
 40
0
 40
1
 40
1
 40
1
 40
1
 10
2105.518847
 20
538.523187
 30
0.0
 10
2113.346847
 20
538.523187
 30
0.0
 10
2119.691847
 20
532.178187
 30
0.0
 10
2119.691847
 20
524.350187
 30
0.0
  0
LWPOLYLINE
  5
1de
100
AcDbEntity
  8
W0102_Printing_35X25
 62
1
100
AcDbPolyline
 90
1
 70
1
 10
2077.172048
 20
524.350187
 30
0.0
  0
SPLINE
  5
1df
100
AcDbEntity
  8
W0102_Printing_35X25
 62
1
100
AcDbSpline
 70
8
 71
3
 72
8
 73
4
 74
0
 40
0
 40
0
 40
0
 40
0
 40
1
 40
1
 40
1
 40
1
 10
2162.211646
 20
524.350187
 30
0.0
 10
2162.211646
 20
516.522187
 30
0.0
 10
2155.865646
 20
510.177187
 30
0.0
 10
2148.038646
 20
510.177187
 30
0.0
  0
SPLINE
  5
1e0
100
AcDbEntity
  8
W0102_Printing_35X25
 62
1
100
AcDbSpline
 70
8
 71
3
 72
8
 73
4
 74
0
 40
0
 40
0
 40
0
 40
0
 40
1
 40
1
 40
1
 40
1
 10
2148.038646
 20
510.177187
 30
0.0
 10
2140.210646
 20
510.177187
 30
0.0
 10
2133.865647
 20
516.522187
 30
0.0
 10
2133.865647
 20
524.350187
 30
0.0
  0
SPLINE
  5
1e1
100
AcDbEntity
  8
W0102_Printing_35X25
 62
1
100
AcDbSpline
 70
8
 71
3
 72
8
 73
4
 74
0
 40
0
 40
0
 40
0
 40
0
 40
1
 40
1
 40
1
 40
1
 10
2133.865647
 20
524.350187
 30
0.0
 10
2133.865647
 20
532.178187
 30
0.0
 10
2140.210646
 20
538.523187
 30
0.0
 10
2148.038646
 20
538.523187
 30
0.0
  0
SPLINE
  5
1e2
100
AcDbEntity
  8
W0102_Printing_35X25
 62
1
100
AcDbSpline
 70
8
 71
3
 72
8
 73
4
 74
0
 40
0
 40
0
 40
0
 40
0
 40
1
 40
1
 40
1
 40
1
 10
2148.038646
 20
538.523187
 30
0.0
 10
2155.865646
 20
538.523187
 30
0.0
 10
2162.211646
 20
532.178187
 30
0.0
 10
2162.211646
 20
524.350187
 30
0.0
  0
LWPOLYLINE
  5
1e3
100
AcDbEntity
  8
W0102_Printing_35X25
 62
1
100
AcDbPolyline
 90
1
 70
1
 10
2119.691847
 20
524.350187
 30
0.0
  0
SPLINE
  5
1e4
100
AcDbEntity
  8
W0102_Printing_35X25
 62
1
100
AcDbSpline
 70
8
 71
3
 72
8
 73
4
 74
0
 40
0
 40
0
 40
0
 40
0
 40
1
 40
1
 40
1
 40
1
 10
1233.864969
 20
1112.538872
 30
0.0
 10
1226.036969
 20
1112.538872
 30
0.0
 10
1219.691970
 20
1118.884872
 30
0.0
 10
1219.691970
 20
1126.711872
 30
0.0
  0
SPLINE
  5
1e5
100
AcDbEntity
  8
W0102_Printing_35X25
 62
1
100
AcDbSpline
 70
8
 71
3
 72
8
 73
4
 74
0
 40
0
 40
0
 40
0
 40
0
 40
1
 40
1
 40
1
 40
1
 10
1219.691970
 20
1126.711872
 30
0.0
 10
1219.691970
 20
1134.539872
 30
0.0
 10
1226.036969
 20
1140.885871
 30
0.0
 10
1233.864969
 20
1140.885871
 30
0.0
  0
SPLINE
  5
1e6
100
AcDbEntity
  8
W0102_Printing_35X25
 62
1
100
AcDbSpline
 70
8
 71
3
 72
8
 73
4
 74
0
 40
0
 40
0
 40
0
 40
0
 40
1
 40
1
 40
1
 40
1
 10
1233.864969
 20
1140.885871
 30
0.0
 10
1241.692969
 20
1140.885871
 30
0.0
 10
1248.037969
 20
1134.539872
 30
0.0
 10
1248.037969
 20
1126.711872
 30
0.0
  0
SPLINE
  5
1e7
100
AcDbEntity
  8
W0102_Printing_35X25
 62
1
100
AcDbSpline
 70
8
 71
3
 72
8
 73
4
 74
0
 40
0
 40
0
 40
0
 40
0
 40
1
 40
1
 40
1
 40
1
 10
1248.037969
 20
1126.711872
 30
0.0
 10
1248.037969
 20
1118.884872
 30
0.0
 10
1241.692969
 20
1112.538872
 30
0.0
 10
1233.864969
 20
1112.538872
 30
0.0
  0
LWPOLYLINE
  5
1e8
100
AcDbEntity
  8
W0102_Printing_35X25
 62
1
100
AcDbPolyline
 90
1
 70
1
 10
2162.211646
 20
524.350187
 30
0.0
  0
SPLINE
  5
1e9
100
AcDbEntity
  8
W0102_Printing_35X25
 62
1
100
AcDbSpline
 70
8
 71
3
 72
8
 73
4
 74
0
 40
0
 40
0
 40
0
 40
0
 40
1
 40
1
 40
1
 40
1
 10
1233.864969
 20
1070.019273
 30
0.0
 10
1226.036969
 20
1070.019273
 30
0.0
 10
1219.691970
 20
1076.365273
 30
0.0
 10
1219.691970
 20
1084.192273
 30
0.0
  0
SPLINE
  5
1ea
100
AcDbEntity
  8
W0102_Printing_35X25
 62
1
100
AcDbSpline
 70
8
 71
3
 72
8
 73
4
 74
0
 40
0
 40
0
 40
0
 40
0
 40
1
 40
1
 40
1
 40
1
 10
1219.691970
 20
1084.192273
 30
0.0
 10
1219.691970
 20
1092.020273
 30
0.0
 10
1226.036969
 20
1098.365273
 30
0.0
 10
1233.864969
 20
1098.365273
 30
0.0
  0
SPLINE
  5
1eb
100
AcDbEntity
  8
W0102_Printing_35X25
 62
1
100
AcDbSpline
 70
8
 71
3
 72
8
 73
4
 74
0
 40
0
 40
0
 40
0
 40
0
 40
1
 40
1
 40
1
 40
1
 10
1233.864969
 20
1098.365273
 30
0.0
 10
1241.692969
 20
1098.365273
 30
0.0
 10
1248.037969
 20
1092.020273
 30
0.0
 10
1248.037969
 20
1084.192273
 30
0.0
  0
SPLINE
  5
1ec
100
AcDbEntity
  8
W0102_Printing_35X25
 62
1
100
AcDbSpline
 70
8
 71
3
 72
8
 73
4
 74
0
 40
0
 40
0
 40
0
 40
0
 40
1
 40
1
 40
1
 40
1
 10
1248.037969
 20
1084.192273
 30
0.0
 10
1248.037969
 20
1076.365273
 30
0.0
 10
1241.692969
 20
1070.019273
 30
0.0
 10
1233.864969
 20
1070.019273
 30
0.0
  0
LWPOLYLINE
  5
1ed
100
AcDbEntity
  8
W0102_Printing_35X25
 62
1
100
AcDbPolyline
 90
1
 70
1
 10
1233.864969
 20
1112.538872
 30
0.0
  0
SPLINE
  5
1ee
100
AcDbEntity
  8
W0102_Printing_35X25
 62
1
100
AcDbSpline
 70
8
 71
3
 72
8
 73
4
 74
0
 40
0
 40
0
 40
0
 40
0
 40
1
 40
1
 40
1
 40
1
 10
1233.864969
 20
1027.499574
 30
0.0
 10
1226.036969
 20
1027.499574
 30
0.0
 10
1219.691970
 20
1033.845574
 30
0.0
 10
1219.691970
 20
1041.672574
 30
0.0
  0
SPLINE
  5
1ef
100
AcDbEntity
  8
W0102_Printing_35X25
 62
1
100
AcDbSpline
 70
8
 71
3
 72
8
 73
4
 74
0
 40
0
 40
0
 40
0
 40
0
 40
1
 40
1
 40
1
 40
1
 10
1219.691970
 20
1041.672574
 30
0.0
 10
1219.691970
 20
1049.500574
 30
0.0
 10
1226.036969
 20
1055.845574
 30
0.0
 10
1233.864969
 20
1055.845574
 30
0.0
  0
SPLINE
  5
1f0
100
AcDbEntity
  8
W0102_Printing_35X25
 62
1
100
AcDbSpline
 70
8
 71
3
 72
8
 73
4
 74
0
 40
0
 40
0
 40
0
 40
0
 40
1
 40
1
 40
1
 40
1
 10
1233.864969
 20
1055.845574
 30
0.0
 10
1241.692969
 20
1055.845574
 30
0.0
 10
1248.037969
 20
1049.500574
 30
0.0
 10
1248.037969
 20
1041.672574
 30
0.0
  0
SPLINE
  5
1f1
100
AcDbEntity
  8
W0102_Printing_35X25
 62
1
100
AcDbSpline
 70
8
 71
3
 72
8
 73
4
 74
0
 40
0
 40
0
 40
0
 40
0
 40
1
 40
1
 40
1
 40
1
 10
1248.037969
 20
1041.672574
 30
0.0
 10
1248.037969
 20
1033.845574
 30
0.0
 10
1241.692969
 20
1027.499574
 30
0.0
 10
1233.864969
 20
1027.499574
 30
0.0
  0
LWPOLYLINE
  5
1f2
100
AcDbEntity
  8
W0102_Printing_35X25
 62
1
100
AcDbPolyline
 90
1
 70
1
 10
1233.864969
 20
1070.019273
 30
0.0
  0
SPLINE
  5
1f3
100
AcDbEntity
  8
W0102_Printing_35X25
 62
1
100
AcDbSpline
 70
8
 71
3
 72
8
 73
4
 74
0
 40
0
 40
0
 40
0
 40
0
 40
1
 40
1
 40
1
 40
1
 10
1233.864969
 20
984.979875
 30
0.0
 10
1226.036969
 20
984.979875
 30
0.0
 10
1219.691970
 20
991.325875
 30
0.0
 10
1219.691970
 20
999.152875
 30
0.0
  0
SPLINE
  5
1f4
100
AcDbEntity
  8
W0102_Printing_35X25
 62
1
100
AcDbSpline
 70
8
 71
3
 72
8
 73
4
 74
0
 40
0
 40
0
 40
0
 40
0
 40
1
 40
1
 40
1
 40
1
 10
1219.691970
 20
999.152875
 30
0.0
 10
1219.691970
 20
1006.980875
 30
0.0
 10
1226.036969
 20
1013.325875
 30
0.0
 10
1233.864969
 20
1013.325875
 30
0.0
  0
SPLINE
  5
1f5
100
AcDbEntity
  8
W0102_Printing_35X25
 62
1
100
AcDbSpline
 70
8
 71
3
 72
8
 73
4
 74
0
 40
0
 40
0
 40
0
 40
0
 40
1
 40
1
 40
1
 40
1
 10
1233.864969
 20
1013.325875
 30
0.0
 10
1241.692969
 20
1013.325875
 30
0.0
 10
1248.037969
 20
1006.980875
 30
0.0
 10
1248.037969
 20
999.152875
 30
0.0
  0
SPLINE
  5
1f6
100
AcDbEntity
  8
W0102_Printing_35X25
 62
1
100
AcDbSpline
 70
8
 71
3
 72
8
 73
4
 74
0
 40
0
 40
0
 40
0
 40
0
 40
1
 40
1
 40
1
 40
1
 10
1248.037969
 20
999.152875
 30
0.0
 10
1248.037969
 20
991.325875
 30
0.0
 10
1241.692969
 20
984.979875
 30
0.0
 10
1233.864969
 20
984.979875
 30
0.0
  0
LWPOLYLINE
  5
1f7
100
AcDbEntity
  8
W0102_Printing_35X25
 62
1
100
AcDbPolyline
 90
1
 70
1
 10
1233.864969
 20
1027.499574
 30
0.0
  0
SPLINE
  5
1f8
100
AcDbEntity
  8
W0102_Printing_35X25
 62
1
100
AcDbSpline
 70
8
 71
3
 72
8
 73
4
 74
0
 40
0
 40
0
 40
0
 40
0
 40
1
 40
1
 40
1
 40
1
 10
1233.864969
 20
942.460276
 30
0.0
 10
1226.036969
 20
942.460276
 30
0.0
 10
1219.691970
 20
948.806276
 30
0.0
 10
1219.691970
 20
956.633276
 30
0.0
  0
SPLINE
  5
1f9
100
AcDbEntity
  8
W0102_Printing_35X25
 62
1
100
AcDbSpline
 70
8
 71
3
 72
8
 73
4
 74
0
 40
0
 40
0
 40
0
 40
0
 40
1
 40
1
 40
1
 40
1
 10
1219.691970
 20
956.633276
 30
0.0
 10
1219.691970
 20
964.461276
 30
0.0
 10
1226.036969
 20
970.806276
 30
0.0
 10
1233.864969
 20
970.806276
 30
0.0
  0
SPLINE
  5
1fa
100
AcDbEntity
  8
W0102_Printing_35X25
 62
1
100
AcDbSpline
 70
8
 71
3
 72
8
 73
4
 74
0
 40
0
 40
0
 40
0
 40
0
 40
1
 40
1
 40
1
 40
1
 10
1233.864969
 20
970.806276
 30
0.0
 10
1241.692969
 20
970.806276
 30
0.0
 10
1248.037969
 20
964.461276
 30
0.0
 10
1248.037969
 20
956.633276
 30
0.0
  0
SPLINE
  5
1fb
100
AcDbEntity
  8
W0102_Printing_35X25
 62
1
100
AcDbSpline
 70
8
 71
3
 72
8
 73
4
 74
0
 40
0
 40
0
 40
0
 40
0
 40
1
 40
1
 40
1
 40
1
 10
1248.037969
 20
956.633276
 30
0.0
 10
1248.037969
 20
948.806276
 30
0.0
 10
1241.692969
 20
942.460276
 30
0.0
 10
1233.864969
 20
942.460276
 30
0.0
  0
LWPOLYLINE
  5
1fc
100
AcDbEntity
  8
W0102_Printing_35X25
 62
1
100
AcDbPolyline
 90
1
 70
1
 10
1233.864969
 20
984.979875
 30
0.0
  0
SPLINE
  5
1fd
100
AcDbEntity
  8
W0102_Printing_35X25
 62
1
100
AcDbSpline
 70
8
 71
3
 72
8
 73
4
 74
0
 40
0
 40
0
 40
0
 40
0
 40
1
 40
1
 40
1
 40
1
 10
1233.864969
 20
899.940578
 30
0.0
 10
1226.036969
 20
899.940578
 30
0.0
 10
1219.691970
 20
906.286577
 30
0.0
 10
1219.691970
 20
914.113577
 30
0.0
  0
SPLINE
  5
1fe
100
AcDbEntity
  8
W0102_Printing_35X25
 62
1
100
AcDbSpline
 70
8
 71
3
 72
8
 73
4
 74
0
 40
0
 40
0
 40
0
 40
0
 40
1
 40
1
 40
1
 40
1
 10
1219.691970
 20
914.113577
 30
0.0
 10
1219.691970
 20
921.941577
 30
0.0
 10
1226.036969
 20
928.286577
 30
0.0
 10
1233.864969
 20
928.286577
 30
0.0
  0
SPLINE
  5
1ff
100
AcDbEntity
  8
W0102_Printing_35X25
 62
1
100
AcDbSpline
 70
8
 71
3
 72
8
 73
4
 74
0
 40
0
 40
0
 40
0
 40
0
 40
1
 40
1
 40
1
 40
1
 10
1233.864969
 20
928.286577
 30
0.0
 10
1241.692969
 20
928.286577
 30
0.0
 10
1248.037969
 20
921.941577
 30
0.0
 10
1248.037969
 20
914.113577
 30
0.0
  0
SPLINE
  5
200
100
AcDbEntity
  8
W0102_Printing_35X25
 62
1
100
AcDbSpline
 70
8
 71
3
 72
8
 73
4
 74
0
 40
0
 40
0
 40
0
 40
0
 40
1
 40
1
 40
1
 40
1
 10
1248.037969
 20
914.113577
 30
0.0
 10
1248.037969
 20
906.286577
 30
0.0
 10
1241.692969
 20
899.940578
 30
0.0
 10
1233.864969
 20
899.940578
 30
0.0
  0
LWPOLYLINE
  5
201
100
AcDbEntity
  8
W0102_Printing_35X25
 62
1
100
AcDbPolyline
 90
1
 70
1
 10
1233.864969
 20
942.460276
 30
0.0
  0
SPLINE
  5
202
100
AcDbEntity
  8
W0102_Printing_35X25
 62
1
100
AcDbSpline
 70
8
 71
3
 72
8
 73
4
 74
0
 40
0
 40
0
 40
0
 40
0
 40
1
 40
1
 40
1
 40
1
 10
1233.864969
 20
857.420879
 30
0.0
 10
1226.036969
 20
857.420879
 30
0.0
 10
1219.691970
 20
863.766878
 30
0.0
 10
1219.691970
 20
871.593878
 30
0.0
  0
SPLINE
  5
203
100
AcDbEntity
  8
W0102_Printing_35X25
 62
1
100
AcDbSpline
 70
8
 71
3
 72
8
 73
4
 74
0
 40
0
 40
0
 40
0
 40
0
 40
1
 40
1
 40
1
 40
1
 10
1219.691970
 20
871.593878
 30
0.0
 10
1219.691970
 20
879.421878
 30
0.0
 10
1226.036969
 20
885.766878
 30
0.0
 10
1233.864969
 20
885.766878
 30
0.0
  0
SPLINE
  5
204
100
AcDbEntity
  8
W0102_Printing_35X25
 62
1
100
AcDbSpline
 70
8
 71
3
 72
8
 73
4
 74
0
 40
0
 40
0
 40
0
 40
0
 40
1
 40
1
 40
1
 40
1
 10
1233.864969
 20
885.766878
 30
0.0
 10
1241.692969
 20
885.766878
 30
0.0
 10
1248.037969
 20
879.421878
 30
0.0
 10
1248.037969
 20
871.593878
 30
0.0
  0
SPLINE
  5
205
100
AcDbEntity
  8
W0102_Printing_35X25
 62
1
100
AcDbSpline
 70
8
 71
3
 72
8
 73
4
 74
0
 40
0
 40
0
 40
0
 40
0
 40
1
 40
1
 40
1
 40
1
 10
1248.037969
 20
871.593878
 30
0.0
 10
1248.037969
 20
863.766878
 30
0.0
 10
1241.692969
 20
857.420879
 30
0.0
 10
1233.864969
 20
857.420879
 30
0.0
  0
LWPOLYLINE
  5
206
100
AcDbEntity
  8
W0102_Printing_35X25
 62
1
100
AcDbPolyline
 90
1
 70
1
 10
1233.864969
 20
899.940578
 30
0.0
  0
SPLINE
  5
207
100
AcDbEntity
  8
W0102_Printing_35X25
 62
1
100
AcDbSpline
 70
8
 71
3
 72
8
 73
4
 74
0
 40
0
 40
0
 40
0
 40
0
 40
1
 40
1
 40
1
 40
1
 10
1233.864969
 20
814.901180
 30
0.0
 10
1226.036969
 20
814.901180
 30
0.0
 10
1219.691970
 20
821.247179
 30
0.0
 10
1219.691970
 20
829.074179
 30
0.0
  0
SPLINE
  5
208
100
AcDbEntity
  8
W0102_Printing_35X25
 62
1
100
AcDbSpline
 70
8
 71
3
 72
8
 73
4
 74
0
 40
0
 40
0
 40
0
 40
0
 40
1
 40
1
 40
1
 40
1
 10
1219.691970
 20
829.074179
 30
0.0
 10
1219.691970
 20
836.902179
 30
0.0
 10
1226.036969
 20
843.247179
 30
0.0
 10
1233.864969
 20
843.247179
 30
0.0
  0
SPLINE
  5
209
100
AcDbEntity
  8
W0102_Printing_35X25
 62
1
100
AcDbSpline
 70
8
 71
3
 72
8
 73
4
 74
0
 40
0
 40
0
 40
0
 40
0
 40
1
 40
1
 40
1
 40
1
 10
1233.864969
 20
843.247179
 30
0.0
 10
1241.692969
 20
843.247179
 30
0.0
 10
1248.037969
 20
836.902179
 30
0.0
 10
1248.037969
 20
829.074179
 30
0.0
  0
SPLINE
  5
20a
100
AcDbEntity
  8
W0102_Printing_35X25
 62
1
100
AcDbSpline
 70
8
 71
3
 72
8
 73
4
 74
0
 40
0
 40
0
 40
0
 40
0
 40
1
 40
1
 40
1
 40
1
 10
1248.037969
 20
829.074179
 30
0.0
 10
1248.037969
 20
821.247179
 30
0.0
 10
1241.692969
 20
814.901180
 30
0.0
 10
1233.864969
 20
814.901180
 30
0.0
  0
LWPOLYLINE
  5
20b
100
AcDbEntity
  8
W0102_Printing_35X25
 62
1
100
AcDbPolyline
 90
1
 70
1
 10
1233.864969
 20
857.420879
 30
0.0
  0
SPLINE
  5
20c
100
AcDbEntity
  8
W0102_Printing_35X25
 62
1
100
AcDbSpline
 70
8
 71
3
 72
8
 73
4
 74
0
 40
0
 40
0
 40
0
 40
0
 40
1
 40
1
 40
1
 40
1
 10
1233.864969
 20
772.381481
 30
0.0
 10
1226.036969
 20
772.381481
 30
0.0
 10
1219.691970
 20
778.727481
 30
0.0
 10
1219.691970
 20
786.554480
 30
0.0
  0
SPLINE
  5
20d
100
AcDbEntity
  8
W0102_Printing_35X25
 62
1
100
AcDbSpline
 70
8
 71
3
 72
8
 73
4
 74
0
 40
0
 40
0
 40
0
 40
0
 40
1
 40
1
 40
1
 40
1
 10
1219.691970
 20
786.554480
 30
0.0
 10
1219.691970
 20
794.382480
 30
0.0
 10
1226.036969
 20
800.727480
 30
0.0
 10
1233.864969
 20
800.727480
 30
0.0
  0
SPLINE
  5
20e
100
AcDbEntity
  8
W0102_Printing_35X25
 62
1
100
AcDbSpline
 70
8
 71
3
 72
8
 73
4
 74
0
 40
0
 40
0
 40
0
 40
0
 40
1
 40
1
 40
1
 40
1
 10
1233.864969
 20
800.727480
 30
0.0
 10
1241.692969
 20
800.727480
 30
0.0
 10
1248.037969
 20
794.382480
 30
0.0
 10
1248.037969
 20
786.554480
 30
0.0
  0
SPLINE
  5
20f
100
AcDbEntity
  8
W0102_Printing_35X25
 62
1
100
AcDbSpline
 70
8
 71
3
 72
8
 73
4
 74
0
 40
0
 40
0
 40
0
 40
0
 40
1
 40
1
 40
1
 40
1
 10
1248.037969
 20
786.554480
 30
0.0
 10
1248.037969
 20
778.727481
 30
0.0
 10
1241.692969
 20
772.381481
 30
0.0
 10
1233.864969
 20
772.381481
 30
0.0
  0
LWPOLYLINE
  5
210
100
AcDbEntity
  8
W0102_Printing_35X25
 62
1
100
AcDbPolyline
 90
1
 70
1
 10
1233.864969
 20
814.901180
 30
0.0
  0
SPLINE
  5
211
100
AcDbEntity
  8
W0102_Printing_35X25
 62
1
100
AcDbSpline
 70
8
 71
3
 72
8
 73
4
 74
0
 40
0
 40
0
 40
0
 40
0
 40
1
 40
1
 40
1
 40
1
 10
1233.864969
 20
729.861782
 30
0.0
 10
1226.036969
 20
729.861782
 30
0.0
 10
1219.691970
 20
736.207782
 30
0.0
 10
1219.691970
 20
744.034781
 30
0.0
  0
SPLINE
  5
212
100
AcDbEntity
  8
W0102_Printing_35X25
 62
1
100
AcDbSpline
 70
8
 71
3
 72
8
 73
4
 74
0
 40
0
 40
0
 40
0
 40
0
 40
1
 40
1
 40
1
 40
1
 10
1219.691970
 20
744.034781
 30
0.0
 10
1219.691970
 20
751.862781
 30
0.0
 10
1226.036969
 20
758.207781
 30
0.0
 10
1233.864969
 20
758.207781
 30
0.0
  0
SPLINE
  5
213
100
AcDbEntity
  8
W0102_Printing_35X25
 62
1
100
AcDbSpline
 70
8
 71
3
 72
8
 73
4
 74
0
 40
0
 40
0
 40
0
 40
0
 40
1
 40
1
 40
1
 40
1
 10
1233.864969
 20
758.207781
 30
0.0
 10
1241.692969
 20
758.207781
 30
0.0
 10
1248.037969
 20
751.862781
 30
0.0
 10
1248.037969
 20
744.034781
 30
0.0
  0
SPLINE
  5
214
100
AcDbEntity
  8
W0102_Printing_35X25
 62
1
100
AcDbSpline
 70
8
 71
3
 72
8
 73
4
 74
0
 40
0
 40
0
 40
0
 40
0
 40
1
 40
1
 40
1
 40
1
 10
1248.037969
 20
744.034781
 30
0.0
 10
1248.037969
 20
736.207782
 30
0.0
 10
1241.692969
 20
729.861782
 30
0.0
 10
1233.864969
 20
729.861782
 30
0.0
  0
LWPOLYLINE
  5
215
100
AcDbEntity
  8
W0102_Printing_35X25
 62
1
100
AcDbPolyline
 90
1
 70
1
 10
1233.864969
 20
772.381481
 30
0.0
  0
SPLINE
  5
216
100
AcDbEntity
  8
W0102_Printing_35X25
 62
1
100
AcDbSpline
 70
8
 71
3
 72
8
 73
4
 74
0
 40
0
 40
0
 40
0
 40
0
 40
1
 40
1
 40
1
 40
1
 10
1233.864969
 20
687.342183
 30
0.0
 10
1226.036969
 20
687.342183
 30
0.0
 10
1219.691970
 20
693.688183
 30
0.0
 10
1219.691970
 20
701.515182
 30
0.0
  0
SPLINE
  5
217
100
AcDbEntity
  8
W0102_Printing_35X25
 62
1
100
AcDbSpline
 70
8
 71
3
 72
8
 73
4
 74
0
 40
0
 40
0
 40
0
 40
0
 40
1
 40
1
 40
1
 40
1
 10
1219.691970
 20
701.515182
 30
0.0
 10
1219.691970
 20
709.343182
 30
0.0
 10
1226.036969
 20
715.688182
 30
0.0
 10
1233.864969
 20
715.688182
 30
0.0
  0
SPLINE
  5
218
100
AcDbEntity
  8
W0102_Printing_35X25
 62
1
100
AcDbSpline
 70
8
 71
3
 72
8
 73
4
 74
0
 40
0
 40
0
 40
0
 40
0
 40
1
 40
1
 40
1
 40
1
 10
1233.864969
 20
715.688182
 30
0.0
 10
1241.692969
 20
715.688182
 30
0.0
 10
1248.037969
 20
709.343182
 30
0.0
 10
1248.037969
 20
701.515182
 30
0.0
  0
SPLINE
  5
219
100
AcDbEntity
  8
W0102_Printing_35X25
 62
1
100
AcDbSpline
 70
8
 71
3
 72
8
 73
4
 74
0
 40
0
 40
0
 40
0
 40
0
 40
1
 40
1
 40
1
 40
1
 10
1248.037969
 20
701.515182
 30
0.0
 10
1248.037969
 20
693.688183
 30
0.0
 10
1241.692969
 20
687.342183
 30
0.0
 10
1233.864969
 20
687.342183
 30
0.0
  0
LWPOLYLINE
  5
21a
100
AcDbEntity
  8
W0102_Printing_35X25
 62
1
100
AcDbPolyline
 90
1
 70
1
 10
1233.864969
 20
729.861782
 30
0.0
  0
SPLINE
  5
21b
100
AcDbEntity
  8
W0102_Printing_35X25
 62
1
100
AcDbSpline
 70
8
 71
3
 72
8
 73
4
 74
0
 40
0
 40
0
 40
0
 40
0
 40
1
 40
1
 40
1
 40
1
 10
1233.864969
 20
644.822384
 30
0.0
 10
1226.036969
 20
644.822384
 30
0.0
 10
1219.691970
 20
651.168384
 30
0.0
 10
1219.691970
 20
658.995384
 30
0.0
  0
SPLINE
  5
21c
100
AcDbEntity
  8
W0102_Printing_35X25
 62
1
100
AcDbSpline
 70
8
 71
3
 72
8
 73
4
 74
0
 40
0
 40
0
 40
0
 40
0
 40
1
 40
1
 40
1
 40
1
 10
1219.691970
 20
658.995384
 30
0.0
 10
1219.691970
 20
666.823383
 30
0.0
 10
1226.036969
 20
673.168383
 30
0.0
 10
1233.864969
 20
673.168383
 30
0.0
  0
SPLINE
  5
21d
100
AcDbEntity
  8
W0102_Printing_35X25
 62
1
100
AcDbSpline
 70
8
 71
3
 72
8
 73
4
 74
0
 40
0
 40
0
 40
0
 40
0
 40
1
 40
1
 40
1
 40
1
 10
1233.864969
 20
673.168383
 30
0.0
 10
1241.692969
 20
673.168383
 30
0.0
 10
1248.037969
 20
666.823383
 30
0.0
 10
1248.037969
 20
658.995384
 30
0.0
  0
SPLINE
  5
21e
100
AcDbEntity
  8
W0102_Printing_35X25
 62
1
100
AcDbSpline
 70
8
 71
3
 72
8
 73
4
 74
0
 40
0
 40
0
 40
0
 40
0
 40
1
 40
1
 40
1
 40
1
 10
1248.037969
 20
658.995384
 30
0.0
 10
1248.037969
 20
651.168384
 30
0.0
 10
1241.692969
 20
644.822384
 30
0.0
 10
1233.864969
 20
644.822384
 30
0.0
  0
LWPOLYLINE
  5
21f
100
AcDbEntity
  8
W0102_Printing_35X25
 62
1
100
AcDbPolyline
 90
1
 70
1
 10
1233.864969
 20
687.342183
 30
0.0
  0
SPLINE
  5
220
100
AcDbEntity
  8
W0102_Printing_35X25
 62
1
100
AcDbSpline
 70
8
 71
3
 72
8
 73
4
 74
0
 40
0
 40
0
 40
0
 40
0
 40
1
 40
1
 40
1
 40
1
 10
1233.864969
 20
602.302785
 30
0.0
 10
1226.036969
 20
602.302785
 30
0.0
 10
1219.691970
 20
608.648785
 30
0.0
 10
1219.691970
 20
616.475785
 30
0.0
  0
SPLINE
  5
221
100
AcDbEntity
  8
W0102_Printing_35X25
 62
1
100
AcDbSpline
 70
8
 71
3
 72
8
 73
4
 74
0
 40
0
 40
0
 40
0
 40
0
 40
1
 40
1
 40
1
 40
1
 10
1219.691970
 20
616.475785
 30
0.0
 10
1219.691970
 20
624.303784
 30
0.0
 10
1226.036969
 20
630.648784
 30
0.0
 10
1233.864969
 20
630.648784
 30
0.0
  0
SPLINE
  5
222
100
AcDbEntity
  8
W0102_Printing_35X25
 62
1
100
AcDbSpline
 70
8
 71
3
 72
8
 73
4
 74
0
 40
0
 40
0
 40
0
 40
0
 40
1
 40
1
 40
1
 40
1
 10
1233.864969
 20
630.648784
 30
0.0
 10
1241.692969
 20
630.648784
 30
0.0
 10
1248.037969
 20
624.303784
 30
0.0
 10
1248.037969
 20
616.475785
 30
0.0
  0
SPLINE
  5
223
100
AcDbEntity
  8
W0102_Printing_35X25
 62
1
100
AcDbSpline
 70
8
 71
3
 72
8
 73
4
 74
0
 40
0
 40
0
 40
0
 40
0
 40
1
 40
1
 40
1
 40
1
 10
1248.037969
 20
616.475785
 30
0.0
 10
1248.037969
 20
608.648785
 30
0.0
 10
1241.692969
 20
602.302785
 30
0.0
 10
1233.864969
 20
602.302785
 30
0.0
  0
LWPOLYLINE
  5
224
100
AcDbEntity
  8
W0102_Printing_35X25
 62
1
100
AcDbPolyline
 90
1
 70
1
 10
1233.864969
 20
644.822384
 30
0.0
  0
SPLINE
  5
225
100
AcDbEntity
  8
W0102_Printing_35X25
 62
1
100
AcDbSpline
 70
8
 71
3
 72
8
 73
4
 74
0
 40
0
 40
0
 40
0
 40
0
 40
1
 40
1
 40
1
 40
1
 10
1233.864969
 20
559.783086
 30
0.0
 10
1226.036969
 20
559.783086
 30
0.0
 10
1219.691970
 20
566.129086
 30
0.0
 10
1219.691970
 20
573.956086
 30
0.0
  0
SPLINE
  5
226
100
AcDbEntity
  8
W0102_Printing_35X25
 62
1
100
AcDbSpline
 70
8
 71
3
 72
8
 73
4
 74
0
 40
0
 40
0
 40
0
 40
0
 40
1
 40
1
 40
1
 40
1
 10
1219.691970
 20
573.956086
 30
0.0
 10
1219.691970
 20
581.784085
 30
0.0
 10
1226.036969
 20
588.129085
 30
0.0
 10
1233.864969
 20
588.129085
 30
0.0
  0
SPLINE
  5
227
100
AcDbEntity
  8
W0102_Printing_35X25
 62
1
100
AcDbSpline
 70
8
 71
3
 72
8
 73
4
 74
0
 40
0
 40
0
 40
0
 40
0
 40
1
 40
1
 40
1
 40
1
 10
1233.864969
 20
588.129085
 30
0.0
 10
1241.692969
 20
588.129085
 30
0.0
 10
1248.037969
 20
581.784085
 30
0.0
 10
1248.037969
 20
573.956086
 30
0.0
  0
SPLINE
  5
228
100
AcDbEntity
  8
W0102_Printing_35X25
 62
1
100
AcDbSpline
 70
8
 71
3
 72
8
 73
4
 74
0
 40
0
 40
0
 40
0
 40
0
 40
1
 40
1
 40
1
 40
1
 10
1248.037969
 20
573.956086
 30
0.0
 10
1248.037969
 20
566.129086
 30
0.0
 10
1241.692969
 20
559.783086
 30
0.0
 10
1233.864969
 20
559.783086
 30
0.0
  0
LWPOLYLINE
  5
229
100
AcDbEntity
  8
W0102_Printing_35X25
 62
1
100
AcDbPolyline
 90
1
 70
1
 10
1233.864969
 20
602.302785
 30
0.0
  0
SPLINE
  5
22a
100
AcDbEntity
  8
W0102_Printing_35X25
 62
1
100
AcDbSpline
 70
8
 71
3
 72
8
 73
4
 74
0
 40
0
 40
0
 40
0
 40
0
 40
1
 40
1
 40
1
 40
1
 10
2169.298046
 20
1112.538872
 30
0.0
 10
2161.470046
 20
1112.538872
 30
0.0
 10
2155.125046
 20
1118.884872
 30
0.0
 10
2155.125046
 20
1126.711872
 30
0.0
  0
SPLINE
  5
22b
100
AcDbEntity
  8
W0102_Printing_35X25
 62
1
100
AcDbSpline
 70
8
 71
3
 72
8
 73
4
 74
0
 40
0
 40
0
 40
0
 40
0
 40
1
 40
1
 40
1
 40
1
 10
2155.125046
 20
1126.711872
 30
0.0
 10
2155.125046
 20
1134.539872
 30
0.0
 10
2161.470046
 20
1140.885871
 30
0.0
 10
2169.298046
 20
1140.885871
 30
0.0
  0
SPLINE
  5
22c
100
AcDbEntity
  8
W0102_Printing_35X25
 62
1
100
AcDbSpline
 70
8
 71
3
 72
8
 73
4
 74
0
 40
0
 40
0
 40
0
 40
0
 40
1
 40
1
 40
1
 40
1
 10
2169.298046
 20
1140.885871
 30
0.0
 10
2177.126046
 20
1140.885871
 30
0.0
 10
2183.471045
 20
1134.539872
 30
0.0
 10
2183.471045
 20
1126.711872
 30
0.0
  0
SPLINE
  5
22d
100
AcDbEntity
  8
W0102_Printing_35X25
 62
1
100
AcDbSpline
 70
8
 71
3
 72
8
 73
4
 74
0
 40
0
 40
0
 40
0
 40
0
 40
1
 40
1
 40
1
 40
1
 10
2183.471045
 20
1126.711872
 30
0.0
 10
2183.471045
 20
1118.884872
 30
0.0
 10
2177.126046
 20
1112.538872
 30
0.0
 10
2169.298046
 20
1112.538872
 30
0.0
  0
LWPOLYLINE
  5
22e
100
AcDbEntity
  8
W0102_Printing_35X25
 62
1
100
AcDbPolyline
 90
1
 70
1
 10
1233.864969
 20
559.783086
 30
0.0
  0
SPLINE
  5
22f
100
AcDbEntity
  8
W0102_Printing_35X25
 62
1
100
AcDbSpline
 70
8
 71
3
 72
8
 73
4
 74
0
 40
0
 40
0
 40
0
 40
0
 40
1
 40
1
 40
1
 40
1
 10
2169.298046
 20
1070.019273
 30
0.0
 10
2161.470046
 20
1070.019273
 30
0.0
 10
2155.125046
 20
1076.365273
 30
0.0
 10
2155.125046
 20
1084.192273
 30
0.0
  0
SPLINE
  5
230
100
AcDbEntity
  8
W0102_Printing_35X25
 62
1
100
AcDbSpline
 70
8
 71
3
 72
8
 73
4
 74
0
 40
0
 40
0
 40
0
 40
0
 40
1
 40
1
 40
1
 40
1
 10
2155.125046
 20
1084.192273
 30
0.0
 10
2155.125046
 20
1092.020273
 30
0.0
 10
2161.470046
 20
1098.365273
 30
0.0
 10
2169.298046
 20
1098.365273
 30
0.0
  0
SPLINE
  5
231
100
AcDbEntity
  8
W0102_Printing_35X25
 62
1
100
AcDbSpline
 70
8
 71
3
 72
8
 73
4
 74
0
 40
0
 40
0
 40
0
 40
0
 40
1
 40
1
 40
1
 40
1
 10
2169.298046
 20
1098.365273
 30
0.0
 10
2177.126046
 20
1098.365273
 30
0.0
 10
2183.471045
 20
1092.020273
 30
0.0
 10
2183.471045
 20
1084.192273
 30
0.0
  0
SPLINE
  5
232
100
AcDbEntity
  8
W0102_Printing_35X25
 62
1
100
AcDbSpline
 70
8
 71
3
 72
8
 73
4
 74
0
 40
0
 40
0
 40
0
 40
0
 40
1
 40
1
 40
1
 40
1
 10
2183.471045
 20
1084.192273
 30
0.0
 10
2183.471045
 20
1076.365273
 30
0.0
 10
2177.126046
 20
1070.019273
 30
0.0
 10
2169.298046
 20
1070.019273
 30
0.0
  0
LWPOLYLINE
  5
233
100
AcDbEntity
  8
W0102_Printing_35X25
 62
1
100
AcDbPolyline
 90
1
 70
1
 10
2169.298046
 20
1112.538872
 30
0.0
  0
SPLINE
  5
234
100
AcDbEntity
  8
W0102_Printing_35X25
 62
1
100
AcDbSpline
 70
8
 71
3
 72
8
 73
4
 74
0
 40
0
 40
0
 40
0
 40
0
 40
1
 40
1
 40
1
 40
1
 10
2169.298046
 20
1027.499574
 30
0.0
 10
2161.470046
 20
1027.499574
 30
0.0
 10
2155.125046
 20
1033.845574
 30
0.0
 10
2155.125046
 20
1041.672574
 30
0.0
  0
SPLINE
  5
235
100
AcDbEntity
  8
W0102_Printing_35X25
 62
1
100
AcDbSpline
 70
8
 71
3
 72
8
 73
4
 74
0
 40
0
 40
0
 40
0
 40
0
 40
1
 40
1
 40
1
 40
1
 10
2155.125046
 20
1041.672574
 30
0.0
 10
2155.125046
 20
1049.500574
 30
0.0
 10
2161.470046
 20
1055.845574
 30
0.0
 10
2169.298046
 20
1055.845574
 30
0.0
  0
SPLINE
  5
236
100
AcDbEntity
  8
W0102_Printing_35X25
 62
1
100
AcDbSpline
 70
8
 71
3
 72
8
 73
4
 74
0
 40
0
 40
0
 40
0
 40
0
 40
1
 40
1
 40
1
 40
1
 10
2169.298046
 20
1055.845574
 30
0.0
 10
2177.126046
 20
1055.845574
 30
0.0
 10
2183.471045
 20
1049.500574
 30
0.0
 10
2183.471045
 20
1041.672574
 30
0.0
  0
SPLINE
  5
237
100
AcDbEntity
  8
W0102_Printing_35X25
 62
1
100
AcDbSpline
 70
8
 71
3
 72
8
 73
4
 74
0
 40
0
 40
0
 40
0
 40
0
 40
1
 40
1
 40
1
 40
1
 10
2183.471045
 20
1041.672574
 30
0.0
 10
2183.471045
 20
1033.845574
 30
0.0
 10
2177.126046
 20
1027.499574
 30
0.0
 10
2169.298046
 20
1027.499574
 30
0.0
  0
LWPOLYLINE
  5
238
100
AcDbEntity
  8
W0102_Printing_35X25
 62
1
100
AcDbPolyline
 90
1
 70
1
 10
2169.298046
 20
1070.019273
 30
0.0
  0
SPLINE
  5
239
100
AcDbEntity
  8
W0102_Printing_35X25
 62
1
100
AcDbSpline
 70
8
 71
3
 72
8
 73
4
 74
0
 40
0
 40
0
 40
0
 40
0
 40
1
 40
1
 40
1
 40
1
 10
2169.298046
 20
984.979875
 30
0.0
 10
2161.470046
 20
984.979875
 30
0.0
 10
2155.125046
 20
991.325875
 30
0.0
 10
2155.125046
 20
999.152875
 30
0.0
  0
SPLINE
  5
23a
100
AcDbEntity
  8
W0102_Printing_35X25
 62
1
100
AcDbSpline
 70
8
 71
3
 72
8
 73
4
 74
0
 40
0
 40
0
 40
0
 40
0
 40
1
 40
1
 40
1
 40
1
 10
2155.125046
 20
999.152875
 30
0.0
 10
2155.125046
 20
1006.980875
 30
0.0
 10
2161.470046
 20
1013.325875
 30
0.0
 10
2169.298046
 20
1013.325875
 30
0.0
  0
SPLINE
  5
23b
100
AcDbEntity
  8
W0102_Printing_35X25
 62
1
100
AcDbSpline
 70
8
 71
3
 72
8
 73
4
 74
0
 40
0
 40
0
 40
0
 40
0
 40
1
 40
1
 40
1
 40
1
 10
2169.298046
 20
1013.325875
 30
0.0
 10
2177.126046
 20
1013.325875
 30
0.0
 10
2183.471045
 20
1006.980875
 30
0.0
 10
2183.471045
 20
999.152875
 30
0.0
  0
SPLINE
  5
23c
100
AcDbEntity
  8
W0102_Printing_35X25
 62
1
100
AcDbSpline
 70
8
 71
3
 72
8
 73
4
 74
0
 40
0
 40
0
 40
0
 40
0
 40
1
 40
1
 40
1
 40
1
 10
2183.471045
 20
999.152875
 30
0.0
 10
2183.471045
 20
991.325875
 30
0.0
 10
2177.126046
 20
984.979875
 30
0.0
 10
2169.298046
 20
984.979875
 30
0.0
  0
LWPOLYLINE
  5
23d
100
AcDbEntity
  8
W0102_Printing_35X25
 62
1
100
AcDbPolyline
 90
1
 70
1
 10
2169.298046
 20
1027.499574
 30
0.0
  0
SPLINE
  5
23e
100
AcDbEntity
  8
W0102_Printing_35X25
 62
1
100
AcDbSpline
 70
8
 71
3
 72
8
 73
4
 74
0
 40
0
 40
0
 40
0
 40
0
 40
1
 40
1
 40
1
 40
1
 10
2169.298046
 20
942.460276
 30
0.0
 10
2161.470046
 20
942.460276
 30
0.0
 10
2155.125046
 20
948.806276
 30
0.0
 10
2155.125046
 20
956.633276
 30
0.0
  0
SPLINE
  5
23f
100
AcDbEntity
  8
W0102_Printing_35X25
 62
1
100
AcDbSpline
 70
8
 71
3
 72
8
 73
4
 74
0
 40
0
 40
0
 40
0
 40
0
 40
1
 40
1
 40
1
 40
1
 10
2155.125046
 20
956.633276
 30
0.0
 10
2155.125046
 20
964.461276
 30
0.0
 10
2161.470046
 20
970.806276
 30
0.0
 10
2169.298046
 20
970.806276
 30
0.0
  0
SPLINE
  5
240
100
AcDbEntity
  8
W0102_Printing_35X25
 62
1
100
AcDbSpline
 70
8
 71
3
 72
8
 73
4
 74
0
 40
0
 40
0
 40
0
 40
0
 40
1
 40
1
 40
1
 40
1
 10
2169.298046
 20
970.806276
 30
0.0
 10
2177.126046
 20
970.806276
 30
0.0
 10
2183.471045
 20
964.461276
 30
0.0
 10
2183.471045
 20
956.633276
 30
0.0
  0
SPLINE
  5
241
100
AcDbEntity
  8
W0102_Printing_35X25
 62
1
100
AcDbSpline
 70
8
 71
3
 72
8
 73
4
 74
0
 40
0
 40
0
 40
0
 40
0
 40
1
 40
1
 40
1
 40
1
 10
2183.471045
 20
956.633276
 30
0.0
 10
2183.471045
 20
948.806276
 30
0.0
 10
2177.126046
 20
942.460276
 30
0.0
 10
2169.298046
 20
942.460276
 30
0.0
  0
LWPOLYLINE
  5
242
100
AcDbEntity
  8
W0102_Printing_35X25
 62
1
100
AcDbPolyline
 90
1
 70
1
 10
2169.298046
 20
984.979875
 30
0.0
  0
SPLINE
  5
243
100
AcDbEntity
  8
W0102_Printing_35X25
 62
1
100
AcDbSpline
 70
8
 71
3
 72
8
 73
4
 74
0
 40
0
 40
0
 40
0
 40
0
 40
1
 40
1
 40
1
 40
1
 10
2169.298046
 20
899.940578
 30
0.0
 10
2161.470046
 20
899.940578
 30
0.0
 10
2155.125046
 20
906.286577
 30
0.0
 10
2155.125046
 20
914.113577
 30
0.0
  0
SPLINE
  5
244
100
AcDbEntity
  8
W0102_Printing_35X25
 62
1
100
AcDbSpline
 70
8
 71
3
 72
8
 73
4
 74
0
 40
0
 40
0
 40
0
 40
0
 40
1
 40
1
 40
1
 40
1
 10
2155.125046
 20
914.113577
 30
0.0
 10
2155.125046
 20
921.941577
 30
0.0
 10
2161.470046
 20
928.286577
 30
0.0
 10
2169.298046
 20
928.286577
 30
0.0
  0
SPLINE
  5
245
100
AcDbEntity
  8
W0102_Printing_35X25
 62
1
100
AcDbSpline
 70
8
 71
3
 72
8
 73
4
 74
0
 40
0
 40
0
 40
0
 40
0
 40
1
 40
1
 40
1
 40
1
 10
2169.298046
 20
928.286577
 30
0.0
 10
2177.126046
 20
928.286577
 30
0.0
 10
2183.471045
 20
921.941577
 30
0.0
 10
2183.471045
 20
914.113577
 30
0.0
  0
SPLINE
  5
246
100
AcDbEntity
  8
W0102_Printing_35X25
 62
1
100
AcDbSpline
 70
8
 71
3
 72
8
 73
4
 74
0
 40
0
 40
0
 40
0
 40
0
 40
1
 40
1
 40
1
 40
1
 10
2183.471045
 20
914.113577
 30
0.0
 10
2183.471045
 20
906.286577
 30
0.0
 10
2177.126046
 20
899.940578
 30
0.0
 10
2169.298046
 20
899.940578
 30
0.0
  0
LWPOLYLINE
  5
247
100
AcDbEntity
  8
W0102_Printing_35X25
 62
1
100
AcDbPolyline
 90
1
 70
1
 10
2169.298046
 20
942.460276
 30
0.0
  0
SPLINE
  5
248
100
AcDbEntity
  8
W0102_Printing_35X25
 62
1
100
AcDbSpline
 70
8
 71
3
 72
8
 73
4
 74
0
 40
0
 40
0
 40
0
 40
0
 40
1
 40
1
 40
1
 40
1
 10
2169.298046
 20
857.420879
 30
0.0
 10
2161.470046
 20
857.420879
 30
0.0
 10
2155.125046
 20
863.766878
 30
0.0
 10
2155.125046
 20
871.593878
 30
0.0
  0
SPLINE
  5
249
100
AcDbEntity
  8
W0102_Printing_35X25
 62
1
100
AcDbSpline
 70
8
 71
3
 72
8
 73
4
 74
0
 40
0
 40
0
 40
0
 40
0
 40
1
 40
1
 40
1
 40
1
 10
2155.125046
 20
871.593878
 30
0.0
 10
2155.125046
 20
879.421878
 30
0.0
 10
2161.470046
 20
885.766878
 30
0.0
 10
2169.298046
 20
885.766878
 30
0.0
  0
SPLINE
  5
24a
100
AcDbEntity
  8
W0102_Printing_35X25
 62
1
100
AcDbSpline
 70
8
 71
3
 72
8
 73
4
 74
0
 40
0
 40
0
 40
0
 40
0
 40
1
 40
1
 40
1
 40
1
 10
2169.298046
 20
885.766878
 30
0.0
 10
2177.126046
 20
885.766878
 30
0.0
 10
2183.471045
 20
879.421878
 30
0.0
 10
2183.471045
 20
871.593878
 30
0.0
  0
SPLINE
  5
24b
100
AcDbEntity
  8
W0102_Printing_35X25
 62
1
100
AcDbSpline
 70
8
 71
3
 72
8
 73
4
 74
0
 40
0
 40
0
 40
0
 40
0
 40
1
 40
1
 40
1
 40
1
 10
2183.471045
 20
871.593878
 30
0.0
 10
2183.471045
 20
863.766878
 30
0.0
 10
2177.126046
 20
857.420879
 30
0.0
 10
2169.298046
 20
857.420879
 30
0.0
  0
LWPOLYLINE
  5
24c
100
AcDbEntity
  8
W0102_Printing_35X25
 62
1
100
AcDbPolyline
 90
1
 70
1
 10
2169.298046
 20
899.940578
 30
0.0
  0
SPLINE
  5
24d
100
AcDbEntity
  8
W0102_Printing_35X25
 62
1
100
AcDbSpline
 70
8
 71
3
 72
8
 73
4
 74
0
 40
0
 40
0
 40
0
 40
0
 40
1
 40
1
 40
1
 40
1
 10
2169.298046
 20
814.901180
 30
0.0
 10
2161.470046
 20
814.901180
 30
0.0
 10
2155.125046
 20
821.247179
 30
0.0
 10
2155.125046
 20
829.074179
 30
0.0
  0
SPLINE
  5
24e
100
AcDbEntity
  8
W0102_Printing_35X25
 62
1
100
AcDbSpline
 70
8
 71
3
 72
8
 73
4
 74
0
 40
0
 40
0
 40
0
 40
0
 40
1
 40
1
 40
1
 40
1
 10
2155.125046
 20
829.074179
 30
0.0
 10
2155.125046
 20
836.902179
 30
0.0
 10
2161.470046
 20
843.247179
 30
0.0
 10
2169.298046
 20
843.247179
 30
0.0
  0
SPLINE
  5
24f
100
AcDbEntity
  8
W0102_Printing_35X25
 62
1
100
AcDbSpline
 70
8
 71
3
 72
8
 73
4
 74
0
 40
0
 40
0
 40
0
 40
0
 40
1
 40
1
 40
1
 40
1
 10
2169.298046
 20
843.247179
 30
0.0
 10
2177.126046
 20
843.247179
 30
0.0
 10
2183.471045
 20
836.902179
 30
0.0
 10
2183.471045
 20
829.074179
 30
0.0
  0
SPLINE
  5
250
100
AcDbEntity
  8
W0102_Printing_35X25
 62
1
100
AcDbSpline
 70
8
 71
3
 72
8
 73
4
 74
0
 40
0
 40
0
 40
0
 40
0
 40
1
 40
1
 40
1
 40
1
 10
2183.471045
 20
829.074179
 30
0.0
 10
2183.471045
 20
821.247179
 30
0.0
 10
2177.126046
 20
814.901180
 30
0.0
 10
2169.298046
 20
814.901180
 30
0.0
  0
LWPOLYLINE
  5
251
100
AcDbEntity
  8
W0102_Printing_35X25
 62
1
100
AcDbPolyline
 90
1
 70
1
 10
2169.298046
 20
857.420879
 30
0.0
  0
SPLINE
  5
252
100
AcDbEntity
  8
W0102_Printing_35X25
 62
1
100
AcDbSpline
 70
8
 71
3
 72
8
 73
4
 74
0
 40
0
 40
0
 40
0
 40
0
 40
1
 40
1
 40
1
 40
1
 10
2169.298046
 20
772.381481
 30
0.0
 10
2161.470046
 20
772.381481
 30
0.0
 10
2155.125046
 20
778.727481
 30
0.0
 10
2155.125046
 20
786.554480
 30
0.0
  0
SPLINE
  5
253
100
AcDbEntity
  8
W0102_Printing_35X25
 62
1
100
AcDbSpline
 70
8
 71
3
 72
8
 73
4
 74
0
 40
0
 40
0
 40
0
 40
0
 40
1
 40
1
 40
1
 40
1
 10
2155.125046
 20
786.554480
 30
0.0
 10
2155.125046
 20
794.382480
 30
0.0
 10
2161.470046
 20
800.727480
 30
0.0
 10
2169.298046
 20
800.727480
 30
0.0
  0
SPLINE
  5
254
100
AcDbEntity
  8
W0102_Printing_35X25
 62
1
100
AcDbSpline
 70
8
 71
3
 72
8
 73
4
 74
0
 40
0
 40
0
 40
0
 40
0
 40
1
 40
1
 40
1
 40
1
 10
2169.298046
 20
800.727480
 30
0.0
 10
2177.126046
 20
800.727480
 30
0.0
 10
2183.471045
 20
794.382480
 30
0.0
 10
2183.471045
 20
786.554480
 30
0.0
  0
SPLINE
  5
255
100
AcDbEntity
  8
W0102_Printing_35X25
 62
1
100
AcDbSpline
 70
8
 71
3
 72
8
 73
4
 74
0
 40
0
 40
0
 40
0
 40
0
 40
1
 40
1
 40
1
 40
1
 10
2183.471045
 20
786.554480
 30
0.0
 10
2183.471045
 20
778.727481
 30
0.0
 10
2177.126046
 20
772.381481
 30
0.0
 10
2169.298046
 20
772.381481
 30
0.0
  0
LWPOLYLINE
  5
256
100
AcDbEntity
  8
W0102_Printing_35X25
 62
1
100
AcDbPolyline
 90
1
 70
1
 10
2169.298046
 20
814.901180
 30
0.0
  0
SPLINE
  5
257
100
AcDbEntity
  8
W0102_Printing_35X25
 62
1
100
AcDbSpline
 70
8
 71
3
 72
8
 73
4
 74
0
 40
0
 40
0
 40
0
 40
0
 40
1
 40
1
 40
1
 40
1
 10
2169.298046
 20
729.861782
 30
0.0
 10
2161.470046
 20
729.861782
 30
0.0
 10
2155.125046
 20
736.207782
 30
0.0
 10
2155.125046
 20
744.034781
 30
0.0
  0
SPLINE
  5
258
100
AcDbEntity
  8
W0102_Printing_35X25
 62
1
100
AcDbSpline
 70
8
 71
3
 72
8
 73
4
 74
0
 40
0
 40
0
 40
0
 40
0
 40
1
 40
1
 40
1
 40
1
 10
2155.125046
 20
744.034781
 30
0.0
 10
2155.125046
 20
751.862781
 30
0.0
 10
2161.470046
 20
758.207781
 30
0.0
 10
2169.298046
 20
758.207781
 30
0.0
  0
SPLINE
  5
259
100
AcDbEntity
  8
W0102_Printing_35X25
 62
1
100
AcDbSpline
 70
8
 71
3
 72
8
 73
4
 74
0
 40
0
 40
0
 40
0
 40
0
 40
1
 40
1
 40
1
 40
1
 10
2169.298046
 20
758.207781
 30
0.0
 10
2177.126046
 20
758.207781
 30
0.0
 10
2183.471045
 20
751.862781
 30
0.0
 10
2183.471045
 20
744.034781
 30
0.0
  0
SPLINE
  5
25a
100
AcDbEntity
  8
W0102_Printing_35X25
 62
1
100
AcDbSpline
 70
8
 71
3
 72
8
 73
4
 74
0
 40
0
 40
0
 40
0
 40
0
 40
1
 40
1
 40
1
 40
1
 10
2183.471045
 20
744.034781
 30
0.0
 10
2183.471045
 20
736.207782
 30
0.0
 10
2177.126046
 20
729.861782
 30
0.0
 10
2169.298046
 20
729.861782
 30
0.0
  0
LWPOLYLINE
  5
25b
100
AcDbEntity
  8
W0102_Printing_35X25
 62
1
100
AcDbPolyline
 90
1
 70
1
 10
2169.298046
 20
772.381481
 30
0.0
  0
SPLINE
  5
25c
100
AcDbEntity
  8
W0102_Printing_35X25
 62
1
100
AcDbSpline
 70
8
 71
3
 72
8
 73
4
 74
0
 40
0
 40
0
 40
0
 40
0
 40
1
 40
1
 40
1
 40
1
 10
2169.298046
 20
687.342183
 30
0.0
 10
2161.470046
 20
687.342183
 30
0.0
 10
2155.125046
 20
693.688183
 30
0.0
 10
2155.125046
 20
701.515182
 30
0.0
  0
SPLINE
  5
25d
100
AcDbEntity
  8
W0102_Printing_35X25
 62
1
100
AcDbSpline
 70
8
 71
3
 72
8
 73
4
 74
0
 40
0
 40
0
 40
0
 40
0
 40
1
 40
1
 40
1
 40
1
 10
2155.125046
 20
701.515182
 30
0.0
 10
2155.125046
 20
709.343182
 30
0.0
 10
2161.470046
 20
715.688182
 30
0.0
 10
2169.298046
 20
715.688182
 30
0.0
  0
SPLINE
  5
25e
100
AcDbEntity
  8
W0102_Printing_35X25
 62
1
100
AcDbSpline
 70
8
 71
3
 72
8
 73
4
 74
0
 40
0
 40
0
 40
0
 40
0
 40
1
 40
1
 40
1
 40
1
 10
2169.298046
 20
715.688182
 30
0.0
 10
2177.126046
 20
715.688182
 30
0.0
 10
2183.471045
 20
709.343182
 30
0.0
 10
2183.471045
 20
701.515182
 30
0.0
  0
SPLINE
  5
25f
100
AcDbEntity
  8
W0102_Printing_35X25
 62
1
100
AcDbSpline
 70
8
 71
3
 72
8
 73
4
 74
0
 40
0
 40
0
 40
0
 40
0
 40
1
 40
1
 40
1
 40
1
 10
2183.471045
 20
701.515182
 30
0.0
 10
2183.471045
 20
693.688183
 30
0.0
 10
2177.126046
 20
687.342183
 30
0.0
 10
2169.298046
 20
687.342183
 30
0.0
  0
LWPOLYLINE
  5
260
100
AcDbEntity
  8
W0102_Printing_35X25
 62
1
100
AcDbPolyline
 90
1
 70
1
 10
2169.298046
 20
729.861782
 30
0.0
  0
SPLINE
  5
261
100
AcDbEntity
  8
W0102_Printing_35X25
 62
1
100
AcDbSpline
 70
8
 71
3
 72
8
 73
4
 74
0
 40
0
 40
0
 40
0
 40
0
 40
1
 40
1
 40
1
 40
1
 10
2169.298046
 20
644.822384
 30
0.0
 10
2161.470046
 20
644.822384
 30
0.0
 10
2155.125046
 20
651.168384
 30
0.0
 10
2155.125046
 20
658.995384
 30
0.0
  0
SPLINE
  5
262
100
AcDbEntity
  8
W0102_Printing_35X25
 62
1
100
AcDbSpline
 70
8
 71
3
 72
8
 73
4
 74
0
 40
0
 40
0
 40
0
 40
0
 40
1
 40
1
 40
1
 40
1
 10
2155.125046
 20
658.995384
 30
0.0
 10
2155.125046
 20
666.823383
 30
0.0
 10
2161.470046
 20
673.168383
 30
0.0
 10
2169.298046
 20
673.168383
 30
0.0
  0
SPLINE
  5
263
100
AcDbEntity
  8
W0102_Printing_35X25
 62
1
100
AcDbSpline
 70
8
 71
3
 72
8
 73
4
 74
0
 40
0
 40
0
 40
0
 40
0
 40
1
 40
1
 40
1
 40
1
 10
2169.298046
 20
673.168383
 30
0.0
 10
2177.126046
 20
673.168383
 30
0.0
 10
2183.471045
 20
666.823383
 30
0.0
 10
2183.471045
 20
658.995384
 30
0.0
  0
SPLINE
  5
264
100
AcDbEntity
  8
W0102_Printing_35X25
 62
1
100
AcDbSpline
 70
8
 71
3
 72
8
 73
4
 74
0
 40
0
 40
0
 40
0
 40
0
 40
1
 40
1
 40
1
 40
1
 10
2183.471045
 20
658.995384
 30
0.0
 10
2183.471045
 20
651.168384
 30
0.0
 10
2177.126046
 20
644.822384
 30
0.0
 10
2169.298046
 20
644.822384
 30
0.0
  0
LWPOLYLINE
  5
265
100
AcDbEntity
  8
W0102_Printing_35X25
 62
1
100
AcDbPolyline
 90
1
 70
1
 10
2169.298046
 20
687.342183
 30
0.0
  0
SPLINE
  5
266
100
AcDbEntity
  8
W0102_Printing_35X25
 62
1
100
AcDbSpline
 70
8
 71
3
 72
8
 73
4
 74
0
 40
0
 40
0
 40
0
 40
0
 40
1
 40
1
 40
1
 40
1
 10
2169.298046
 20
602.302785
 30
0.0
 10
2161.470046
 20
602.302785
 30
0.0
 10
2155.125046
 20
608.648785
 30
0.0
 10
2155.125046
 20
616.475785
 30
0.0
  0
SPLINE
  5
267
100
AcDbEntity
  8
W0102_Printing_35X25
 62
1
100
AcDbSpline
 70
8
 71
3
 72
8
 73
4
 74
0
 40
0
 40
0
 40
0
 40
0
 40
1
 40
1
 40
1
 40
1
 10
2155.125046
 20
616.475785
 30
0.0
 10
2155.125046
 20
624.303784
 30
0.0
 10
2161.470046
 20
630.648784
 30
0.0
 10
2169.298046
 20
630.648784
 30
0.0
  0
SPLINE
  5
268
100
AcDbEntity
  8
W0102_Printing_35X25
 62
1
100
AcDbSpline
 70
8
 71
3
 72
8
 73
4
 74
0
 40
0
 40
0
 40
0
 40
0
 40
1
 40
1
 40
1
 40
1
 10
2169.298046
 20
630.648784
 30
0.0
 10
2177.126046
 20
630.648784
 30
0.0
 10
2183.471045
 20
624.303784
 30
0.0
 10
2183.471045
 20
616.475785
 30
0.0
  0
SPLINE
  5
269
100
AcDbEntity
  8
W0102_Printing_35X25
 62
1
100
AcDbSpline
 70
8
 71
3
 72
8
 73
4
 74
0
 40
0
 40
0
 40
0
 40
0
 40
1
 40
1
 40
1
 40
1
 10
2183.471045
 20
616.475785
 30
0.0
 10
2183.471045
 20
608.648785
 30
0.0
 10
2177.126046
 20
602.302785
 30
0.0
 10
2169.298046
 20
602.302785
 30
0.0
  0
LWPOLYLINE
  5
26a
100
AcDbEntity
  8
W0102_Printing_35X25
 62
1
100
AcDbPolyline
 90
1
 70
1
 10
2169.298046
 20
644.822384
 30
0.0
  0
SPLINE
  5
26b
100
AcDbEntity
  8
W0102_Printing_35X25
 62
1
100
AcDbSpline
 70
8
 71
3
 72
8
 73
4
 74
0
 40
0
 40
0
 40
0
 40
0
 40
1
 40
1
 40
1
 40
1
 10
2169.298046
 20
559.783086
 30
0.0
 10
2161.470046
 20
559.783086
 30
0.0
 10
2155.125046
 20
566.129086
 30
0.0
 10
2155.125046
 20
573.956086
 30
0.0
  0
SPLINE
  5
26c
100
AcDbEntity
  8
W0102_Printing_35X25
 62
1
100
AcDbSpline
 70
8
 71
3
 72
8
 73
4
 74
0
 40
0
 40
0
 40
0
 40
0
 40
1
 40
1
 40
1
 40
1
 10
2155.125046
 20
573.956086
 30
0.0
 10
2155.125046
 20
581.784085
 30
0.0
 10
2161.470046
 20
588.129085
 30
0.0
 10
2169.298046
 20
588.129085
 30
0.0
  0
SPLINE
  5
26d
100
AcDbEntity
  8
W0102_Printing_35X25
 62
1
100
AcDbSpline
 70
8
 71
3
 72
8
 73
4
 74
0
 40
0
 40
0
 40
0
 40
0
 40
1
 40
1
 40
1
 40
1
 10
2169.298046
 20
588.129085
 30
0.0
 10
2177.126046
 20
588.129085
 30
0.0
 10
2183.471045
 20
581.784085
 30
0.0
 10
2183.471045
 20
573.956086
 30
0.0
  0
SPLINE
  5
26e
100
AcDbEntity
  8
W0102_Printing_35X25
 62
1
100
AcDbSpline
 70
8
 71
3
 72
8
 73
4
 74
0
 40
0
 40
0
 40
0
 40
0
 40
1
 40
1
 40
1
 40
1
 10
2183.471045
 20
573.956086
 30
0.0
 10
2183.471045
 20
566.129086
 30
0.0
 10
2177.126046
 20
559.783086
 30
0.0
 10
2169.298046
 20
559.783086
 30
0.0
  0
LWPOLYLINE
  5
26f
100
AcDbEntity
  8
W0102_Printing_35X25
 62
1
100
AcDbPolyline
 90
1
 70
1
 10
2169.298046
 20
602.302785
 30
0.0
  0
LWPOLYLINE
  5
270
100
AcDbEntity
  8
W0102_Printing_35X25
 62
1
100
AcDbPolyline
 90
1
 70
1
 10
2169.298046
 20
559.783086
 30
0.0
  0
ENDSEC
  0
SECTION
  2
OBJECTS
  0
DICTIONARY
  5
C
330
0
100
AcDbDictionary
  3
ACAD_GROUP
350
D
  3
ACAD_MLINESTYLE
350
17
  0
DICTIONARY
  5
D
330
C
100
AcDbDictionary
  0
DICTIONARY
  5
1A
330
C
100
AcDbDictionary
  0
DICTIONARY
  5
17
330
C
100
AcDbDictionary
  3
STANDARD
350
18
  0
DICTIONARY
  5
19
330
C
100
AcDbDictionary
  0
ENDSEC
  0
EOF
