  0
SECTION
  2
HEADER
  9
$ACADVER
  1
AC1014
  9
$HANDSEED
  5
FFFF
  9
$MEASUREMENT
 70
     1
  0
ENDSEC
  0
SECTION
  2
TABLES
  0
TABLE
  2
VPORT
  5
8
330
0
100
AcDbSymbolTable
 70
     4
  0
VPORT
  5
2E
330
8
100
AcDbSymbolTableRecord
100
AcDbViewportTableRecord
  2
*ACTIVE
 70
     0
 10
0.0
 20
0.0
 11
1.0
 21
1.0
 12
210.0
 22
148.5
 13
0.0
 23
0.0
 14
10.0
 24
10.0
 15
10.0
 25
10.0
 16
0.0
 26
0.0
 36
1.0
 17
0.0
 27
0.0
 37
0.0
 40
341.0
 41
1.24
 42
50.0
 43
0.0
 44
0.0
 50
0.0
 51
0.0
 71
     0
 72
   100
 73
     1
 74
     3
 75
     0
 76
     0
 77
     0
 78
     0
  0
ENDTAB
  0
TABLE
  2
LTYPE
  5
5
330
0
100
AcDbSymbolTable
 70
     1
  0
LTYPE
  5
14
330
5
100
AcDbSymbolTableRecord
100
AcDbLinetypeTableRecord
  2
BYBLOCK
 70
     0
  3

 72
    65
 73
     0
 40
0.0
  0
LTYPE
  5
15
330
5
100
AcDbSymbolTableRecord
100
AcDbLinetypeTableRecord
  2
BYLAYER
 70
     0
  3

 72
    65
 73
     0
 40
0.0
  0
LTYPE
  5
16
330
5
100
AcDbSymbolTableRecord
100
AcDbLinetypeTableRecord
  2
CONTINUOUS
 70
     0
  3
Solid line
 72
    65
 73
     0
 40
0.0
  0
ENDTAB
  0
TABLE
  2
LAYER
  5
2
100
AcDbSymbolTable
 70
2
  0
LAYER
  5
50
100
AcDbSymbolTableRecord
100
AcDbLayerTableRecord
  2
0
 70
0
  6
CONTINUOUS
  0
LAYER
  5
51
100
AcDbSymbolTableRecord
100
AcDbLayerTableRecord
  2
W0102_Printing_40X30
 70
0
  6
CONTINUOUS
  0
ENDTAB
  0
TABLE
  2
STYLE
  5
3
330
0
100
AcDbSymbolTable
 70
     1
  0
STYLE
  5
11
330
3
100
AcDbSymbolTableRecord
100
AcDbTextStyleTableRecord
  2
STANDARD
 70
     0
 40
0.0
 41
1.0
 50
0.0
 71
     0
 42
2.5
  3
txt
  4

  0
ENDTAB
  0
TABLE
  2
VIEW
  5
6
330
0
100
AcDbSymbolTable
 70
     0
  0
ENDTAB
  0
TABLE
  2
UCS
  5
7
330
0
100
AcDbSymbolTable
 70
     0
  0
ENDTAB
  0
TABLE
  2
APPID
  5
9
330
0
100
AcDbSymbolTable
 70
     2
  0
APPID
  5
12
330
9
100
AcDbSymbolTableRecord
100
AcDbRegAppTableRecord
  2
ACAD
 70
     0
  0
ENDTAB
  0
TABLE
  2
DIMSTYLE
  5
A
330
0
100
AcDbSymbolTable
 70
     1
  0
DIMSTYLE
105
27
330
A
100
AcDbSymbolTableRecord
100
AcDbDimStyleTableRecord
  2
ISO-25
 70
     0
  3

  4

  5

  6

  7

 40
1.0
 41
2.5
 42
0.625
 43
3.75
 44
1.25
 45
0.0
 46
0.0
 47
0.0
 48
0.0
140
2.5
141
2.5
142
0.0
143
0.03937007874016
144
1.0
145
0.0
146
1.0
147
0.625
 71
     0
 72
     0
 73
     0
 74
     0
 75
     0
 76
     0
 77
     1
 78
     8
170
     0
171
     3
172
     1
173
     0
174
     0
175
     0
176
     0
177
     0
178
     0
270
     2
271
     2
272
     2
273
     2
274
     3
340
11
275
     0
280
     0
281
     0
282
     0
283
     0
284
     8
285
     0
286
     0
287
     3
288
     0
  0
ENDTAB
  0
TABLE
  2
BLOCK_RECORD
  5
1
330
0
100
AcDbSymbolTable
 70
     1
  0
BLOCK_RECORD
  5
1F
330
1
100
AcDbSymbolTableRecord
100
AcDbBlockTableRecord
  2
*MODEL_SPACE
  0
BLOCK_RECORD
  5
1B
330
1
100
AcDbSymbolTableRecord
100
AcDbBlockTableRecord
  2
*PAPER_SPACE
  0
ENDTAB
  0
ENDSEC
  0
SECTION
  2
BLOCKS
  0
BLOCK
  5
20
330
1F
100
AcDbEntity
  8
0
100
AcDbBlockBegin
  2
*MODEL_SPACE
 70
     0
 10
0.0
 20
0.0
 30
0.0
  3
*MODEL_SPACE
  1

  0
ENDBLK
  5
21
330
1F
100
AcDbEntity
  8
0
100
AcDbBlockEnd
  0
BLOCK
  5
1C
330
1B
100
AcDbEntity
 67
     1
  8
0
100
AcDbBlockBegin
  2
*PAPER_SPACE
  1

  0
ENDBLK
  5
1D
330
1B
100
AcDbEntity
 67
     1
  8
0
100
AcDbBlockEnd
  0
ENDSEC
  0
SECTION
  2
ENTITIES
  0
SPLINE
  5
100
100
AcDbEntity
  8
W0102_Printing_40X30
 62
1
100
AcDbSpline
 70
8
 71
3
 72
8
 73
4
 74
0
 40
0
 40
0
 40
0
 40
0
 40
1
 40
1
 40
1
 40
1
 10
1155.068571
 20
425.877589
 30
0.0
 10
1143.567571
 20
425.877589
 30
0.0
 10
1134.243572
 20
435.201589
 30
0.0
 10
1134.243572
 20
446.703589
 30
0.0
  0
LWPOLYLINE
  5
101
100
AcDbEntity
  8
W0102_Printing_40X30
 62
1
100
AcDbPolyline
 90
2
 70
0
 10
2247.275544
 20
425.877589
 30
0.0
 10
1155.068571
 20
425.877589
 30
0.0
  0
SPLINE
  5
102
100
AcDbEntity
  8
W0102_Printing_40X30
 62
1
100
AcDbSpline
 70
8
 71
3
 72
8
 73
4
 74
0
 40
0
 40
0
 40
0
 40
0
 40
1
 40
1
 40
1
 40
1
 10
1134.243572
 20
1255.445569
 30
0.0
 10
1134.243572
 20
1266.947568
 30
0.0
 10
1143.567571
 20
1276.271568
 30
0.0
 10
1155.068571
 20
1276.271568
 30
0.0
  0
LWPOLYLINE
  5
103
100
AcDbEntity
  8
W0102_Printing_40X30
 62
1
100
AcDbPolyline
 90
2
 70
0
 10
1134.243572
 20
446.703589
 30
0.0
 10
1134.243572
 20
1255.445569
 30
0.0
  0
SPLINE
  5
104
100
AcDbEntity
  8
W0102_Printing_40X30
 62
1
100
AcDbSpline
 70
8
 71
3
 72
8
 73
4
 74
0
 40
0
 40
0
 40
0
 40
0
 40
1
 40
1
 40
1
 40
1
 10
2247.275544
 20
1276.271568
 30
0.0
 10
2258.777544
 20
1276.271568
 30
0.0
 10
2268.101543
 20
1266.947568
 30
0.0
 10
2268.101543
 20
1255.445569
 30
0.0
  0
LWPOLYLINE
  5
105
100
AcDbEntity
  8
W0102_Printing_40X30
 62
1
100
AcDbPolyline
 90
2
 70
0
 10
1155.068571
 20
1276.271568
 30
0.0
 10
2247.275544
 20
1276.271568
 30
0.0
  0
SPLINE
  5
106
100
AcDbEntity
  8
W0102_Printing_40X30
 62
1
100
AcDbSpline
 70
8
 71
3
 72
8
 73
4
 74
0
 40
0
 40
0
 40
0
 40
0
 40
1
 40
1
 40
1
 40
1
 10
2268.101543
 20
446.703589
 30
0.0
 10
2268.101543
 20
435.201589
 30
0.0
 10
2258.777544
 20
425.877589
 30
0.0
 10
2247.275544
 20
425.877589
 30
0.0
  0
LWPOLYLINE
  5
107
100
AcDbEntity
  8
W0102_Printing_40X30
 62
1
100
AcDbPolyline
 90
2
 70
0
 10
2268.101543
 20
1255.445569
 30
0.0
 10
2268.101543
 20
446.703589
 30
0.0
  0
SPLINE
  5
108
100
AcDbEntity
  8
W0102_Printing_40X30
 62
1
100
AcDbSpline
 70
8
 71
3
 72
8
 73
4
 74
0
 40
0
 40
0
 40
0
 40
0
 40
1
 40
1
 40
1
 40
1
 10
1226.369069
 20
1247.924869
 30
0.0
 10
1226.369069
 20
1240.096869
 30
0.0
 10
1220.023069
 20
1233.751869
 30
0.0
 10
1212.196070
 20
1233.751869
 30
0.0
  0
SPLINE
  5
109
100
AcDbEntity
  8
W0102_Printing_40X30
 62
1
100
AcDbSpline
 70
8
 71
3
 72
8
 73
4
 74
0
 40
0
 40
0
 40
0
 40
0
 40
1
 40
1
 40
1
 40
1
 10
1212.196070
 20
1233.751869
 30
0.0
 10
1204.368070
 20
1233.751869
 30
0.0
 10
1198.022070
 20
1240.096869
 30
0.0
 10
1198.022070
 20
1247.924869
 30
0.0
  0
SPLINE
  5
10a
100
AcDbEntity
  8
W0102_Printing_40X30
 62
1
100
AcDbSpline
 70
8
 71
3
 72
8
 73
4
 74
0
 40
0
 40
0
 40
0
 40
0
 40
1
 40
1
 40
1
 40
1
 10
1198.022070
 20
1247.924869
 30
0.0
 10
1198.022070
 20
1255.752869
 30
0.0
 10
1204.368070
 20
1262.097868
 30
0.0
 10
1212.196070
 20
1262.097868
 30
0.0
  0
SPLINE
  5
10b
100
AcDbEntity
  8
W0102_Printing_40X30
 62
1
100
AcDbSpline
 70
8
 71
3
 72
8
 73
4
 74
0
 40
0
 40
0
 40
0
 40
0
 40
1
 40
1
 40
1
 40
1
 10
1212.196070
 20
1262.097868
 30
0.0
 10
1220.023069
 20
1262.097868
 30
0.0
 10
1226.369069
 20
1255.752869
 30
0.0
 10
1226.369069
 20
1247.924869
 30
0.0
  0
LWPOLYLINE
  5
10c
100
AcDbEntity
  8
W0102_Printing_40X30
 62
1
100
AcDbPolyline
 90
1
 70
1
 10
2247.275544
 20
425.877589
 30
0.0
  0
SPLINE
  5
10d
100
AcDbEntity
  8
W0102_Printing_40X30
 62
1
100
AcDbSpline
 70
8
 71
3
 72
8
 73
4
 74
0
 40
0
 40
0
 40
0
 40
0
 40
1
 40
1
 40
1
 40
1
 10
1268.888768
 20
1247.924869
 30
0.0
 10
1268.888768
 20
1240.096869
 30
0.0
 10
1262.542768
 20
1233.751869
 30
0.0
 10
1254.715769
 20
1233.751869
 30
0.0
  0
SPLINE
  5
10e
100
AcDbEntity
  8
W0102_Printing_40X30
 62
1
100
AcDbSpline
 70
8
 71
3
 72
8
 73
4
 74
0
 40
0
 40
0
 40
0
 40
0
 40
1
 40
1
 40
1
 40
1
 10
1254.715769
 20
1233.751869
 30
0.0
 10
1246.887769
 20
1233.751869
 30
0.0
 10
1240.542769
 20
1240.096869
 30
0.0
 10
1240.542769
 20
1247.924869
 30
0.0
  0
SPLINE
  5
10f
100
AcDbEntity
  8
W0102_Printing_40X30
 62
1
100
AcDbSpline
 70
8
 71
3
 72
8
 73
4
 74
0
 40
0
 40
0
 40
0
 40
0
 40
1
 40
1
 40
1
 40
1
 10
1240.542769
 20
1247.924869
 30
0.0
 10
1240.542769
 20
1255.752869
 30
0.0
 10
1246.887769
 20
1262.097868
 30
0.0
 10
1254.715769
 20
1262.097868
 30
0.0
  0
SPLINE
  5
110
100
AcDbEntity
  8
W0102_Printing_40X30
 62
1
100
AcDbSpline
 70
8
 71
3
 72
8
 73
4
 74
0
 40
0
 40
0
 40
0
 40
0
 40
1
 40
1
 40
1
 40
1
 10
1254.715769
 20
1262.097868
 30
0.0
 10
1262.542768
 20
1262.097868
 30
0.0
 10
1268.888768
 20
1255.752869
 30
0.0
 10
1268.888768
 20
1247.924869
 30
0.0
  0
LWPOLYLINE
  5
111
100
AcDbEntity
  8
W0102_Printing_40X30
 62
1
100
AcDbPolyline
 90
1
 70
1
 10
1226.369069
 20
1247.924869
 30
0.0
  0
SPLINE
  5
112
100
AcDbEntity
  8
W0102_Printing_40X30
 62
1
100
AcDbSpline
 70
8
 71
3
 72
8
 73
4
 74
0
 40
0
 40
0
 40
0
 40
0
 40
1
 40
1
 40
1
 40
1
 10
1311.408367
 20
1247.924869
 30
0.0
 10
1311.408367
 20
1240.096869
 30
0.0
 10
1305.062367
 20
1233.751869
 30
0.0
 10
1297.235368
 20
1233.751869
 30
0.0
  0
SPLINE
  5
113
100
AcDbEntity
  8
W0102_Printing_40X30
 62
1
100
AcDbSpline
 70
8
 71
3
 72
8
 73
4
 74
0
 40
0
 40
0
 40
0
 40
0
 40
1
 40
1
 40
1
 40
1
 10
1297.235368
 20
1233.751869
 30
0.0
 10
1289.407368
 20
1233.751869
 30
0.0
 10
1283.062368
 20
1240.096869
 30
0.0
 10
1283.062368
 20
1247.924869
 30
0.0
  0
SPLINE
  5
114
100
AcDbEntity
  8
W0102_Printing_40X30
 62
1
100
AcDbSpline
 70
8
 71
3
 72
8
 73
4
 74
0
 40
0
 40
0
 40
0
 40
0
 40
1
 40
1
 40
1
 40
1
 10
1283.062368
 20
1247.924869
 30
0.0
 10
1283.062368
 20
1255.752869
 30
0.0
 10
1289.407368
 20
1262.097868
 30
0.0
 10
1297.235368
 20
1262.097868
 30
0.0
  0
SPLINE
  5
115
100
AcDbEntity
  8
W0102_Printing_40X30
 62
1
100
AcDbSpline
 70
8
 71
3
 72
8
 73
4
 74
0
 40
0
 40
0
 40
0
 40
0
 40
1
 40
1
 40
1
 40
1
 10
1297.235368
 20
1262.097868
 30
0.0
 10
1305.062367
 20
1262.097868
 30
0.0
 10
1311.408367
 20
1255.752869
 30
0.0
 10
1311.408367
 20
1247.924869
 30
0.0
  0
LWPOLYLINE
  5
116
100
AcDbEntity
  8
W0102_Printing_40X30
 62
1
100
AcDbPolyline
 90
1
 70
1
 10
1268.888768
 20
1247.924869
 30
0.0
  0
SPLINE
  5
117
100
AcDbEntity
  8
W0102_Printing_40X30
 62
1
100
AcDbSpline
 70
8
 71
3
 72
8
 73
4
 74
0
 40
0
 40
0
 40
0
 40
0
 40
1
 40
1
 40
1
 40
1
 10
1353.928066
 20
1247.924869
 30
0.0
 10
1353.928066
 20
1240.096869
 30
0.0
 10
1347.582066
 20
1233.751869
 30
0.0
 10
1339.755067
 20
1233.751869
 30
0.0
  0
SPLINE
  5
118
100
AcDbEntity
  8
W0102_Printing_40X30
 62
1
100
AcDbSpline
 70
8
 71
3
 72
8
 73
4
 74
0
 40
0
 40
0
 40
0
 40
0
 40
1
 40
1
 40
1
 40
1
 10
1339.755067
 20
1233.751869
 30
0.0
 10
1331.927067
 20
1233.751869
 30
0.0
 10
1325.582067
 20
1240.096869
 30
0.0
 10
1325.582067
 20
1247.924869
 30
0.0
  0
SPLINE
  5
119
100
AcDbEntity
  8
W0102_Printing_40X30
 62
1
100
AcDbSpline
 70
8
 71
3
 72
8
 73
4
 74
0
 40
0
 40
0
 40
0
 40
0
 40
1
 40
1
 40
1
 40
1
 10
1325.582067
 20
1247.924869
 30
0.0
 10
1325.582067
 20
1255.752869
 30
0.0
 10
1331.927067
 20
1262.097868
 30
0.0
 10
1339.755067
 20
1262.097868
 30
0.0
  0
SPLINE
  5
11a
100
AcDbEntity
  8
W0102_Printing_40X30
 62
1
100
AcDbSpline
 70
8
 71
3
 72
8
 73
4
 74
0
 40
0
 40
0
 40
0
 40
0
 40
1
 40
1
 40
1
 40
1
 10
1339.755067
 20
1262.097868
 30
0.0
 10
1347.582066
 20
1262.097868
 30
0.0
 10
1353.928066
 20
1255.752869
 30
0.0
 10
1353.928066
 20
1247.924869
 30
0.0
  0
LWPOLYLINE
  5
11b
100
AcDbEntity
  8
W0102_Printing_40X30
 62
1
100
AcDbPolyline
 90
1
 70
1
 10
1311.408367
 20
1247.924869
 30
0.0
  0
SPLINE
  5
11c
100
AcDbEntity
  8
W0102_Printing_40X30
 62
1
100
AcDbSpline
 70
8
 71
3
 72
8
 73
4
 74
0
 40
0
 40
0
 40
0
 40
0
 40
1
 40
1
 40
1
 40
1
 10
1396.447865
 20
1247.924869
 30
0.0
 10
1396.447865
 20
1240.096869
 30
0.0
 10
1390.101865
 20
1233.751869
 30
0.0
 10
1382.274865
 20
1233.751869
 30
0.0
  0
SPLINE
  5
11d
100
AcDbEntity
  8
W0102_Printing_40X30
 62
1
100
AcDbSpline
 70
8
 71
3
 72
8
 73
4
 74
0
 40
0
 40
0
 40
0
 40
0
 40
1
 40
1
 40
1
 40
1
 10
1382.274865
 20
1233.751869
 30
0.0
 10
1374.446866
 20
1233.751869
 30
0.0
 10
1368.100866
 20
1240.096869
 30
0.0
 10
1368.100866
 20
1247.924869
 30
0.0
  0
SPLINE
  5
11e
100
AcDbEntity
  8
W0102_Printing_40X30
 62
1
100
AcDbSpline
 70
8
 71
3
 72
8
 73
4
 74
0
 40
0
 40
0
 40
0
 40
0
 40
1
 40
1
 40
1
 40
1
 10
1368.100866
 20
1247.924869
 30
0.0
 10
1368.100866
 20
1255.752869
 30
0.0
 10
1374.446866
 20
1262.097868
 30
0.0
 10
1382.274865
 20
1262.097868
 30
0.0
  0
SPLINE
  5
11f
100
AcDbEntity
  8
W0102_Printing_40X30
 62
1
100
AcDbSpline
 70
8
 71
3
 72
8
 73
4
 74
0
 40
0
 40
0
 40
0
 40
0
 40
1
 40
1
 40
1
 40
1
 10
1382.274865
 20
1262.097868
 30
0.0
 10
1390.101865
 20
1262.097868
 30
0.0
 10
1396.447865
 20
1255.752869
 30
0.0
 10
1396.447865
 20
1247.924869
 30
0.0
  0
LWPOLYLINE
  5
120
100
AcDbEntity
  8
W0102_Printing_40X30
 62
1
100
AcDbPolyline
 90
1
 70
1
 10
1353.928066
 20
1247.924869
 30
0.0
  0
SPLINE
  5
121
100
AcDbEntity
  8
W0102_Printing_40X30
 62
1
100
AcDbSpline
 70
8
 71
3
 72
8
 73
4
 74
0
 40
0
 40
0
 40
0
 40
0
 40
1
 40
1
 40
1
 40
1
 10
1438.967464
 20
1247.924869
 30
0.0
 10
1438.967464
 20
1240.096869
 30
0.0
 10
1432.621464
 20
1233.751869
 30
0.0
 10
1424.794464
 20
1233.751869
 30
0.0
  0
SPLINE
  5
122
100
AcDbEntity
  8
W0102_Printing_40X30
 62
1
100
AcDbSpline
 70
8
 71
3
 72
8
 73
4
 74
0
 40
0
 40
0
 40
0
 40
0
 40
1
 40
1
 40
1
 40
1
 10
1424.794464
 20
1233.751869
 30
0.0
 10
1416.966465
 20
1233.751869
 30
0.0
 10
1410.621465
 20
1240.096869
 30
0.0
 10
1410.621465
 20
1247.924869
 30
0.0
  0
SPLINE
  5
123
100
AcDbEntity
  8
W0102_Printing_40X30
 62
1
100
AcDbSpline
 70
8
 71
3
 72
8
 73
4
 74
0
 40
0
 40
0
 40
0
 40
0
 40
1
 40
1
 40
1
 40
1
 10
1410.621465
 20
1247.924869
 30
0.0
 10
1410.621465
 20
1255.752869
 30
0.0
 10
1416.966465
 20
1262.097868
 30
0.0
 10
1424.794464
 20
1262.097868
 30
0.0
  0
SPLINE
  5
124
100
AcDbEntity
  8
W0102_Printing_40X30
 62
1
100
AcDbSpline
 70
8
 71
3
 72
8
 73
4
 74
0
 40
0
 40
0
 40
0
 40
0
 40
1
 40
1
 40
1
 40
1
 10
1424.794464
 20
1262.097868
 30
0.0
 10
1432.621464
 20
1262.097868
 30
0.0
 10
1438.967464
 20
1255.752869
 30
0.0
 10
1438.967464
 20
1247.924869
 30
0.0
  0
LWPOLYLINE
  5
125
100
AcDbEntity
  8
W0102_Printing_40X30
 62
1
100
AcDbPolyline
 90
1
 70
1
 10
1396.447865
 20
1247.924869
 30
0.0
  0
SPLINE
  5
126
100
AcDbEntity
  8
W0102_Printing_40X30
 62
1
100
AcDbSpline
 70
8
 71
3
 72
8
 73
4
 74
0
 40
0
 40
0
 40
0
 40
0
 40
1
 40
1
 40
1
 40
1
 10
1481.487163
 20
1247.924869
 30
0.0
 10
1481.487163
 20
1240.096869
 30
0.0
 10
1475.141163
 20
1233.751869
 30
0.0
 10
1467.314163
 20
1233.751869
 30
0.0
  0
SPLINE
  5
127
100
AcDbEntity
  8
W0102_Printing_40X30
 62
1
100
AcDbSpline
 70
8
 71
3
 72
8
 73
4
 74
0
 40
0
 40
0
 40
0
 40
0
 40
1
 40
1
 40
1
 40
1
 10
1467.314163
 20
1233.751869
 30
0.0
 10
1459.486164
 20
1233.751869
 30
0.0
 10
1453.141164
 20
1240.096869
 30
0.0
 10
1453.141164
 20
1247.924869
 30
0.0
  0
SPLINE
  5
128
100
AcDbEntity
  8
W0102_Printing_40X30
 62
1
100
AcDbSpline
 70
8
 71
3
 72
8
 73
4
 74
0
 40
0
 40
0
 40
0
 40
0
 40
1
 40
1
 40
1
 40
1
 10
1453.141164
 20
1247.924869
 30
0.0
 10
1453.141164
 20
1255.752869
 30
0.0
 10
1459.486164
 20
1262.097868
 30
0.0
 10
1467.314163
 20
1262.097868
 30
0.0
  0
SPLINE
  5
129
100
AcDbEntity
  8
W0102_Printing_40X30
 62
1
100
AcDbSpline
 70
8
 71
3
 72
8
 73
4
 74
0
 40
0
 40
0
 40
0
 40
0
 40
1
 40
1
 40
1
 40
1
 10
1467.314163
 20
1262.097868
 30
0.0
 10
1475.141163
 20
1262.097868
 30
0.0
 10
1481.487163
 20
1255.752869
 30
0.0
 10
1481.487163
 20
1247.924869
 30
0.0
  0
LWPOLYLINE
  5
12a
100
AcDbEntity
  8
W0102_Printing_40X30
 62
1
100
AcDbPolyline
 90
1
 70
1
 10
1438.967464
 20
1247.924869
 30
0.0
  0
SPLINE
  5
12b
100
AcDbEntity
  8
W0102_Printing_40X30
 62
1
100
AcDbSpline
 70
8
 71
3
 72
8
 73
4
 74
0
 40
0
 40
0
 40
0
 40
0
 40
1
 40
1
 40
1
 40
1
 10
1524.006762
 20
1247.924869
 30
0.0
 10
1524.006762
 20
1240.096869
 30
0.0
 10
1517.660762
 20
1233.751869
 30
0.0
 10
1509.833762
 20
1233.751869
 30
0.0
  0
SPLINE
  5
12c
100
AcDbEntity
  8
W0102_Printing_40X30
 62
1
100
AcDbSpline
 70
8
 71
3
 72
8
 73
4
 74
0
 40
0
 40
0
 40
0
 40
0
 40
1
 40
1
 40
1
 40
1
 10
1509.833762
 20
1233.751869
 30
0.0
 10
1502.005762
 20
1233.751869
 30
0.0
 10
1495.660763
 20
1240.096869
 30
0.0
 10
1495.660763
 20
1247.924869
 30
0.0
  0
SPLINE
  5
12d
100
AcDbEntity
  8
W0102_Printing_40X30
 62
1
100
AcDbSpline
 70
8
 71
3
 72
8
 73
4
 74
0
 40
0
 40
0
 40
0
 40
0
 40
1
 40
1
 40
1
 40
1
 10
1495.660763
 20
1247.924869
 30
0.0
 10
1495.660763
 20
1255.752869
 30
0.0
 10
1502.005762
 20
1262.097868
 30
0.0
 10
1509.833762
 20
1262.097868
 30
0.0
  0
SPLINE
  5
12e
100
AcDbEntity
  8
W0102_Printing_40X30
 62
1
100
AcDbSpline
 70
8
 71
3
 72
8
 73
4
 74
0
 40
0
 40
0
 40
0
 40
0
 40
1
 40
1
 40
1
 40
1
 10
1509.833762
 20
1262.097868
 30
0.0
 10
1517.660762
 20
1262.097868
 30
0.0
 10
1524.006762
 20
1255.752869
 30
0.0
 10
1524.006762
 20
1247.924869
 30
0.0
  0
LWPOLYLINE
  5
12f
100
AcDbEntity
  8
W0102_Printing_40X30
 62
1
100
AcDbPolyline
 90
1
 70
1
 10
1481.487163
 20
1247.924869
 30
0.0
  0
SPLINE
  5
130
100
AcDbEntity
  8
W0102_Printing_40X30
 62
1
100
AcDbSpline
 70
8
 71
3
 72
8
 73
4
 74
0
 40
0
 40
0
 40
0
 40
0
 40
1
 40
1
 40
1
 40
1
 10
1566.526561
 20
1247.924869
 30
0.0
 10
1566.526561
 20
1240.096869
 30
0.0
 10
1560.180561
 20
1233.751869
 30
0.0
 10
1552.353561
 20
1233.751869
 30
0.0
  0
SPLINE
  5
131
100
AcDbEntity
  8
W0102_Printing_40X30
 62
1
100
AcDbSpline
 70
8
 71
3
 72
8
 73
4
 74
0
 40
0
 40
0
 40
0
 40
0
 40
1
 40
1
 40
1
 40
1
 10
1552.353561
 20
1233.751869
 30
0.0
 10
1544.525561
 20
1233.751869
 30
0.0
 10
1538.179562
 20
1240.096869
 30
0.0
 10
1538.179562
 20
1247.924869
 30
0.0
  0
SPLINE
  5
132
100
AcDbEntity
  8
W0102_Printing_40X30
 62
1
100
AcDbSpline
 70
8
 71
3
 72
8
 73
4
 74
0
 40
0
 40
0
 40
0
 40
0
 40
1
 40
1
 40
1
 40
1
 10
1538.179562
 20
1247.924869
 30
0.0
 10
1538.179562
 20
1255.752869
 30
0.0
 10
1544.525561
 20
1262.097868
 30
0.0
 10
1552.353561
 20
1262.097868
 30
0.0
  0
SPLINE
  5
133
100
AcDbEntity
  8
W0102_Printing_40X30
 62
1
100
AcDbSpline
 70
8
 71
3
 72
8
 73
4
 74
0
 40
0
 40
0
 40
0
 40
0
 40
1
 40
1
 40
1
 40
1
 10
1552.353561
 20
1262.097868
 30
0.0
 10
1560.180561
 20
1262.097868
 30
0.0
 10
1566.526561
 20
1255.752869
 30
0.0
 10
1566.526561
 20
1247.924869
 30
0.0
  0
LWPOLYLINE
  5
134
100
AcDbEntity
  8
W0102_Printing_40X30
 62
1
100
AcDbPolyline
 90
1
 70
1
 10
1524.006762
 20
1247.924869
 30
0.0
  0
SPLINE
  5
135
100
AcDbEntity
  8
W0102_Printing_40X30
 62
1
100
AcDbSpline
 70
8
 71
3
 72
8
 73
4
 74
0
 40
0
 40
0
 40
0
 40
0
 40
1
 40
1
 40
1
 40
1
 10
1609.046260
 20
1247.924869
 30
0.0
 10
1609.046260
 20
1240.096869
 30
0.0
 10
1602.700260
 20
1233.751869
 30
0.0
 10
1594.873260
 20
1233.751869
 30
0.0
  0
SPLINE
  5
136
100
AcDbEntity
  8
W0102_Printing_40X30
 62
1
100
AcDbSpline
 70
8
 71
3
 72
8
 73
4
 74
0
 40
0
 40
0
 40
0
 40
0
 40
1
 40
1
 40
1
 40
1
 10
1594.873260
 20
1233.751869
 30
0.0
 10
1587.045260
 20
1233.751869
 30
0.0
 10
1580.700260
 20
1240.096869
 30
0.0
 10
1580.700260
 20
1247.924869
 30
0.0
  0
SPLINE
  5
137
100
AcDbEntity
  8
W0102_Printing_40X30
 62
1
100
AcDbSpline
 70
8
 71
3
 72
8
 73
4
 74
0
 40
0
 40
0
 40
0
 40
0
 40
1
 40
1
 40
1
 40
1
 10
1580.700260
 20
1247.924869
 30
0.0
 10
1580.700260
 20
1255.752869
 30
0.0
 10
1587.045260
 20
1262.097868
 30
0.0
 10
1594.873260
 20
1262.097868
 30
0.0
  0
SPLINE
  5
138
100
AcDbEntity
  8
W0102_Printing_40X30
 62
1
100
AcDbSpline
 70
8
 71
3
 72
8
 73
4
 74
0
 40
0
 40
0
 40
0
 40
0
 40
1
 40
1
 40
1
 40
1
 10
1594.873260
 20
1262.097868
 30
0.0
 10
1602.700260
 20
1262.097868
 30
0.0
 10
1609.046260
 20
1255.752869
 30
0.0
 10
1609.046260
 20
1247.924869
 30
0.0
  0
LWPOLYLINE
  5
139
100
AcDbEntity
  8
W0102_Printing_40X30
 62
1
100
AcDbPolyline
 90
1
 70
1
 10
1566.526561
 20
1247.924869
 30
0.0
  0
SPLINE
  5
13a
100
AcDbEntity
  8
W0102_Printing_40X30
 62
1
100
AcDbSpline
 70
8
 71
3
 72
8
 73
4
 74
0
 40
0
 40
0
 40
0
 40
0
 40
1
 40
1
 40
1
 40
1
 10
1651.565859
 20
1247.924869
 30
0.0
 10
1651.565859
 20
1240.096869
 30
0.0
 10
1645.219859
 20
1233.751869
 30
0.0
 10
1637.392859
 20
1233.751869
 30
0.0
  0
SPLINE
  5
13b
100
AcDbEntity
  8
W0102_Printing_40X30
 62
1
100
AcDbSpline
 70
8
 71
3
 72
8
 73
4
 74
0
 40
0
 40
0
 40
0
 40
0
 40
1
 40
1
 40
1
 40
1
 10
1637.392859
 20
1233.751869
 30
0.0
 10
1629.564859
 20
1233.751869
 30
0.0
 10
1623.219859
 20
1240.096869
 30
0.0
 10
1623.219859
 20
1247.924869
 30
0.0
  0
SPLINE
  5
13c
100
AcDbEntity
  8
W0102_Printing_40X30
 62
1
100
AcDbSpline
 70
8
 71
3
 72
8
 73
4
 74
0
 40
0
 40
0
 40
0
 40
0
 40
1
 40
1
 40
1
 40
1
 10
1623.219859
 20
1247.924869
 30
0.0
 10
1623.219859
 20
1255.752869
 30
0.0
 10
1629.564859
 20
1262.097868
 30
0.0
 10
1637.392859
 20
1262.097868
 30
0.0
  0
SPLINE
  5
13d
100
AcDbEntity
  8
W0102_Printing_40X30
 62
1
100
AcDbSpline
 70
8
 71
3
 72
8
 73
4
 74
0
 40
0
 40
0
 40
0
 40
0
 40
1
 40
1
 40
1
 40
1
 10
1637.392859
 20
1262.097868
 30
0.0
 10
1645.219859
 20
1262.097868
 30
0.0
 10
1651.565859
 20
1255.752869
 30
0.0
 10
1651.565859
 20
1247.924869
 30
0.0
  0
LWPOLYLINE
  5
13e
100
AcDbEntity
  8
W0102_Printing_40X30
 62
1
100
AcDbPolyline
 90
1
 70
1
 10
1609.046260
 20
1247.924869
 30
0.0
  0
SPLINE
  5
13f
100
AcDbEntity
  8
W0102_Printing_40X30
 62
1
100
AcDbSpline
 70
8
 71
3
 72
8
 73
4
 74
0
 40
0
 40
0
 40
0
 40
0
 40
1
 40
1
 40
1
 40
1
 10
1694.085558
 20
1247.924869
 30
0.0
 10
1694.085558
 20
1240.096869
 30
0.0
 10
1687.739558
 20
1233.751869
 30
0.0
 10
1679.912558
 20
1233.751869
 30
0.0
  0
SPLINE
  5
140
100
AcDbEntity
  8
W0102_Printing_40X30
 62
1
100
AcDbSpline
 70
8
 71
3
 72
8
 73
4
 74
0
 40
0
 40
0
 40
0
 40
0
 40
1
 40
1
 40
1
 40
1
 10
1679.912558
 20
1233.751869
 30
0.0
 10
1672.084558
 20
1233.751869
 30
0.0
 10
1665.739558
 20
1240.096869
 30
0.0
 10
1665.739558
 20
1247.924869
 30
0.0
  0
SPLINE
  5
141
100
AcDbEntity
  8
W0102_Printing_40X30
 62
1
100
AcDbSpline
 70
8
 71
3
 72
8
 73
4
 74
0
 40
0
 40
0
 40
0
 40
0
 40
1
 40
1
 40
1
 40
1
 10
1665.739558
 20
1247.924869
 30
0.0
 10
1665.739558
 20
1255.752869
 30
0.0
 10
1672.084558
 20
1262.097868
 30
0.0
 10
1679.912558
 20
1262.097868
 30
0.0
  0
SPLINE
  5
142
100
AcDbEntity
  8
W0102_Printing_40X30
 62
1
100
AcDbSpline
 70
8
 71
3
 72
8
 73
4
 74
0
 40
0
 40
0
 40
0
 40
0
 40
1
 40
1
 40
1
 40
1
 10
1679.912558
 20
1262.097868
 30
0.0
 10
1687.739558
 20
1262.097868
 30
0.0
 10
1694.085558
 20
1255.752869
 30
0.0
 10
1694.085558
 20
1247.924869
 30
0.0
  0
LWPOLYLINE
  5
143
100
AcDbEntity
  8
W0102_Printing_40X30
 62
1
100
AcDbPolyline
 90
1
 70
1
 10
1651.565859
 20
1247.924869
 30
0.0
  0
SPLINE
  5
144
100
AcDbEntity
  8
W0102_Printing_40X30
 62
1
100
AcDbSpline
 70
8
 71
3
 72
8
 73
4
 74
0
 40
0
 40
0
 40
0
 40
0
 40
1
 40
1
 40
1
 40
1
 10
1736.605257
 20
1247.924869
 30
0.0
 10
1736.605257
 20
1240.096869
 30
0.0
 10
1730.259257
 20
1233.751869
 30
0.0
 10
1722.432257
 20
1233.751869
 30
0.0
  0
SPLINE
  5
145
100
AcDbEntity
  8
W0102_Printing_40X30
 62
1
100
AcDbSpline
 70
8
 71
3
 72
8
 73
4
 74
0
 40
0
 40
0
 40
0
 40
0
 40
1
 40
1
 40
1
 40
1
 10
1722.432257
 20
1233.751869
 30
0.0
 10
1714.604257
 20
1233.751869
 30
0.0
 10
1708.258257
 20
1240.096869
 30
0.0
 10
1708.258257
 20
1247.924869
 30
0.0
  0
SPLINE
  5
146
100
AcDbEntity
  8
W0102_Printing_40X30
 62
1
100
AcDbSpline
 70
8
 71
3
 72
8
 73
4
 74
0
 40
0
 40
0
 40
0
 40
0
 40
1
 40
1
 40
1
 40
1
 10
1708.258257
 20
1247.924869
 30
0.0
 10
1708.258257
 20
1255.752869
 30
0.0
 10
1714.604257
 20
1262.097868
 30
0.0
 10
1722.432257
 20
1262.097868
 30
0.0
  0
SPLINE
  5
147
100
AcDbEntity
  8
W0102_Printing_40X30
 62
1
100
AcDbSpline
 70
8
 71
3
 72
8
 73
4
 74
0
 40
0
 40
0
 40
0
 40
0
 40
1
 40
1
 40
1
 40
1
 10
1722.432257
 20
1262.097868
 30
0.0
 10
1730.259257
 20
1262.097868
 30
0.0
 10
1736.605257
 20
1255.752869
 30
0.0
 10
1736.605257
 20
1247.924869
 30
0.0
  0
LWPOLYLINE
  5
148
100
AcDbEntity
  8
W0102_Printing_40X30
 62
1
100
AcDbPolyline
 90
1
 70
1
 10
1694.085558
 20
1247.924869
 30
0.0
  0
SPLINE
  5
149
100
AcDbEntity
  8
W0102_Printing_40X30
 62
1
100
AcDbSpline
 70
8
 71
3
 72
8
 73
4
 74
0
 40
0
 40
0
 40
0
 40
0
 40
1
 40
1
 40
1
 40
1
 10
1779.124956
 20
1247.924869
 30
0.0
 10
1779.124956
 20
1240.096869
 30
0.0
 10
1772.778956
 20
1233.751869
 30
0.0
 10
1764.951956
 20
1233.751869
 30
0.0
  0
SPLINE
  5
14a
100
AcDbEntity
  8
W0102_Printing_40X30
 62
1
100
AcDbSpline
 70
8
 71
3
 72
8
 73
4
 74
0
 40
0
 40
0
 40
0
 40
0
 40
1
 40
1
 40
1
 40
1
 10
1764.951956
 20
1233.751869
 30
0.0
 10
1757.123956
 20
1233.751869
 30
0.0
 10
1750.778956
 20
1240.096869
 30
0.0
 10
1750.778956
 20
1247.924869
 30
0.0
  0
SPLINE
  5
14b
100
AcDbEntity
  8
W0102_Printing_40X30
 62
1
100
AcDbSpline
 70
8
 71
3
 72
8
 73
4
 74
0
 40
0
 40
0
 40
0
 40
0
 40
1
 40
1
 40
1
 40
1
 10
1750.778956
 20
1247.924869
 30
0.0
 10
1750.778956
 20
1255.752869
 30
0.0
 10
1757.123956
 20
1262.097868
 30
0.0
 10
1764.951956
 20
1262.097868
 30
0.0
  0
SPLINE
  5
14c
100
AcDbEntity
  8
W0102_Printing_40X30
 62
1
100
AcDbSpline
 70
8
 71
3
 72
8
 73
4
 74
0
 40
0
 40
0
 40
0
 40
0
 40
1
 40
1
 40
1
 40
1
 10
1764.951956
 20
1262.097868
 30
0.0
 10
1772.778956
 20
1262.097868
 30
0.0
 10
1779.124956
 20
1255.752869
 30
0.0
 10
1779.124956
 20
1247.924869
 30
0.0
  0
LWPOLYLINE
  5
14d
100
AcDbEntity
  8
W0102_Printing_40X30
 62
1
100
AcDbPolyline
 90
1
 70
1
 10
1736.605257
 20
1247.924869
 30
0.0
  0
SPLINE
  5
14e
100
AcDbEntity
  8
W0102_Printing_40X30
 62
1
100
AcDbSpline
 70
8
 71
3
 72
8
 73
4
 74
0
 40
0
 40
0
 40
0
 40
0
 40
1
 40
1
 40
1
 40
1
 10
1821.644654
 20
1247.924869
 30
0.0
 10
1821.644654
 20
1240.096869
 30
0.0
 10
1815.298655
 20
1233.751869
 30
0.0
 10
1807.471655
 20
1233.751869
 30
0.0
  0
SPLINE
  5
14f
100
AcDbEntity
  8
W0102_Printing_40X30
 62
1
100
AcDbSpline
 70
8
 71
3
 72
8
 73
4
 74
0
 40
0
 40
0
 40
0
 40
0
 40
1
 40
1
 40
1
 40
1
 10
1807.471655
 20
1233.751869
 30
0.0
 10
1799.643655
 20
1233.751869
 30
0.0
 10
1793.298655
 20
1240.096869
 30
0.0
 10
1793.298655
 20
1247.924869
 30
0.0
  0
SPLINE
  5
150
100
AcDbEntity
  8
W0102_Printing_40X30
 62
1
100
AcDbSpline
 70
8
 71
3
 72
8
 73
4
 74
0
 40
0
 40
0
 40
0
 40
0
 40
1
 40
1
 40
1
 40
1
 10
1793.298655
 20
1247.924869
 30
0.0
 10
1793.298655
 20
1255.752869
 30
0.0
 10
1799.643655
 20
1262.097868
 30
0.0
 10
1807.471655
 20
1262.097868
 30
0.0
  0
SPLINE
  5
151
100
AcDbEntity
  8
W0102_Printing_40X30
 62
1
100
AcDbSpline
 70
8
 71
3
 72
8
 73
4
 74
0
 40
0
 40
0
 40
0
 40
0
 40
1
 40
1
 40
1
 40
1
 10
1807.471655
 20
1262.097868
 30
0.0
 10
1815.298655
 20
1262.097868
 30
0.0
 10
1821.644654
 20
1255.752869
 30
0.0
 10
1821.644654
 20
1247.924869
 30
0.0
  0
LWPOLYLINE
  5
152
100
AcDbEntity
  8
W0102_Printing_40X30
 62
1
100
AcDbPolyline
 90
1
 70
1
 10
1779.124956
 20
1247.924869
 30
0.0
  0
SPLINE
  5
153
100
AcDbEntity
  8
W0102_Printing_40X30
 62
1
100
AcDbSpline
 70
8
 71
3
 72
8
 73
4
 74
0
 40
0
 40
0
 40
0
 40
0
 40
1
 40
1
 40
1
 40
1
 10
1864.164253
 20
1247.924869
 30
0.0
 10
1864.164253
 20
1240.096869
 30
0.0
 10
1857.818254
 20
1233.751869
 30
0.0
 10
1849.991254
 20
1233.751869
 30
0.0
  0
SPLINE
  5
154
100
AcDbEntity
  8
W0102_Printing_40X30
 62
1
100
AcDbSpline
 70
8
 71
3
 72
8
 73
4
 74
0
 40
0
 40
0
 40
0
 40
0
 40
1
 40
1
 40
1
 40
1
 10
1849.991254
 20
1233.751869
 30
0.0
 10
1842.163254
 20
1233.751869
 30
0.0
 10
1835.818254
 20
1240.096869
 30
0.0
 10
1835.818254
 20
1247.924869
 30
0.0
  0
SPLINE
  5
155
100
AcDbEntity
  8
W0102_Printing_40X30
 62
1
100
AcDbSpline
 70
8
 71
3
 72
8
 73
4
 74
0
 40
0
 40
0
 40
0
 40
0
 40
1
 40
1
 40
1
 40
1
 10
1835.818254
 20
1247.924869
 30
0.0
 10
1835.818254
 20
1255.752869
 30
0.0
 10
1842.163254
 20
1262.097868
 30
0.0
 10
1849.991254
 20
1262.097868
 30
0.0
  0
SPLINE
  5
156
100
AcDbEntity
  8
W0102_Printing_40X30
 62
1
100
AcDbSpline
 70
8
 71
3
 72
8
 73
4
 74
0
 40
0
 40
0
 40
0
 40
0
 40
1
 40
1
 40
1
 40
1
 10
1849.991254
 20
1262.097868
 30
0.0
 10
1857.818254
 20
1262.097868
 30
0.0
 10
1864.164253
 20
1255.752869
 30
0.0
 10
1864.164253
 20
1247.924869
 30
0.0
  0
LWPOLYLINE
  5
157
100
AcDbEntity
  8
W0102_Printing_40X30
 62
1
100
AcDbPolyline
 90
1
 70
1
 10
1821.644654
 20
1247.924869
 30
0.0
  0
SPLINE
  5
158
100
AcDbEntity
  8
W0102_Printing_40X30
 62
1
100
AcDbSpline
 70
8
 71
3
 72
8
 73
4
 74
0
 40
0
 40
0
 40
0
 40
0
 40
1
 40
1
 40
1
 40
1
 10
1906.684052
 20
1247.924869
 30
0.0
 10
1906.684052
 20
1240.096869
 30
0.0
 10
1900.338052
 20
1233.751869
 30
0.0
 10
1892.511053
 20
1233.751869
 30
0.0
  0
SPLINE
  5
159
100
AcDbEntity
  8
W0102_Printing_40X30
 62
1
100
AcDbSpline
 70
8
 71
3
 72
8
 73
4
 74
0
 40
0
 40
0
 40
0
 40
0
 40
1
 40
1
 40
1
 40
1
 10
1892.511053
 20
1233.751869
 30
0.0
 10
1884.683053
 20
1233.751869
 30
0.0
 10
1878.337053
 20
1240.096869
 30
0.0
 10
1878.337053
 20
1247.924869
 30
0.0
  0
SPLINE
  5
15a
100
AcDbEntity
  8
W0102_Printing_40X30
 62
1
100
AcDbSpline
 70
8
 71
3
 72
8
 73
4
 74
0
 40
0
 40
0
 40
0
 40
0
 40
1
 40
1
 40
1
 40
1
 10
1878.337053
 20
1247.924869
 30
0.0
 10
1878.337053
 20
1255.752869
 30
0.0
 10
1884.683053
 20
1262.097868
 30
0.0
 10
1892.511053
 20
1262.097868
 30
0.0
  0
SPLINE
  5
15b
100
AcDbEntity
  8
W0102_Printing_40X30
 62
1
100
AcDbSpline
 70
8
 71
3
 72
8
 73
4
 74
0
 40
0
 40
0
 40
0
 40
0
 40
1
 40
1
 40
1
 40
1
 10
1892.511053
 20
1262.097868
 30
0.0
 10
1900.338052
 20
1262.097868
 30
0.0
 10
1906.684052
 20
1255.752869
 30
0.0
 10
1906.684052
 20
1247.924869
 30
0.0
  0
LWPOLYLINE
  5
15c
100
AcDbEntity
  8
W0102_Printing_40X30
 62
1
100
AcDbPolyline
 90
1
 70
1
 10
1864.164253
 20
1247.924869
 30
0.0
  0
SPLINE
  5
15d
100
AcDbEntity
  8
W0102_Printing_40X30
 62
1
100
AcDbSpline
 70
8
 71
3
 72
8
 73
4
 74
0
 40
0
 40
0
 40
0
 40
0
 40
1
 40
1
 40
1
 40
1
 10
1949.203651
 20
1247.924869
 30
0.0
 10
1949.203651
 20
1240.096869
 30
0.0
 10
1942.857651
 20
1233.751869
 30
0.0
 10
1935.030652
 20
1233.751869
 30
0.0
  0
SPLINE
  5
15e
100
AcDbEntity
  8
W0102_Printing_40X30
 62
1
100
AcDbSpline
 70
8
 71
3
 72
8
 73
4
 74
0
 40
0
 40
0
 40
0
 40
0
 40
1
 40
1
 40
1
 40
1
 10
1935.030652
 20
1233.751869
 30
0.0
 10
1927.202652
 20
1233.751869
 30
0.0
 10
1920.857652
 20
1240.096869
 30
0.0
 10
1920.857652
 20
1247.924869
 30
0.0
  0
SPLINE
  5
15f
100
AcDbEntity
  8
W0102_Printing_40X30
 62
1
100
AcDbSpline
 70
8
 71
3
 72
8
 73
4
 74
0
 40
0
 40
0
 40
0
 40
0
 40
1
 40
1
 40
1
 40
1
 10
1920.857652
 20
1247.924869
 30
0.0
 10
1920.857652
 20
1255.752869
 30
0.0
 10
1927.202652
 20
1262.097868
 30
0.0
 10
1935.030652
 20
1262.097868
 30
0.0
  0
SPLINE
  5
160
100
AcDbEntity
  8
W0102_Printing_40X30
 62
1
100
AcDbSpline
 70
8
 71
3
 72
8
 73
4
 74
0
 40
0
 40
0
 40
0
 40
0
 40
1
 40
1
 40
1
 40
1
 10
1935.030652
 20
1262.097868
 30
0.0
 10
1942.857651
 20
1262.097868
 30
0.0
 10
1949.203651
 20
1255.752869
 30
0.0
 10
1949.203651
 20
1247.924869
 30
0.0
  0
LWPOLYLINE
  5
161
100
AcDbEntity
  8
W0102_Printing_40X30
 62
1
100
AcDbPolyline
 90
1
 70
1
 10
1906.684052
 20
1247.924869
 30
0.0
  0
SPLINE
  5
162
100
AcDbEntity
  8
W0102_Printing_40X30
 62
1
100
AcDbSpline
 70
8
 71
3
 72
8
 73
4
 74
0
 40
0
 40
0
 40
0
 40
0
 40
1
 40
1
 40
1
 40
1
 10
1991.723350
 20
1247.924869
 30
0.0
 10
1991.723350
 20
1240.096869
 30
0.0
 10
1985.377350
 20
1233.751869
 30
0.0
 10
1977.550351
 20
1233.751869
 30
0.0
  0
SPLINE
  5
163
100
AcDbEntity
  8
W0102_Printing_40X30
 62
1
100
AcDbSpline
 70
8
 71
3
 72
8
 73
4
 74
0
 40
0
 40
0
 40
0
 40
0
 40
1
 40
1
 40
1
 40
1
 10
1977.550351
 20
1233.751869
 30
0.0
 10
1969.722351
 20
1233.751869
 30
0.0
 10
1963.377351
 20
1240.096869
 30
0.0
 10
1963.377351
 20
1247.924869
 30
0.0
  0
SPLINE
  5
164
100
AcDbEntity
  8
W0102_Printing_40X30
 62
1
100
AcDbSpline
 70
8
 71
3
 72
8
 73
4
 74
0
 40
0
 40
0
 40
0
 40
0
 40
1
 40
1
 40
1
 40
1
 10
1963.377351
 20
1247.924869
 30
0.0
 10
1963.377351
 20
1255.752869
 30
0.0
 10
1969.722351
 20
1262.097868
 30
0.0
 10
1977.550351
 20
1262.097868
 30
0.0
  0
SPLINE
  5
165
100
AcDbEntity
  8
W0102_Printing_40X30
 62
1
100
AcDbSpline
 70
8
 71
3
 72
8
 73
4
 74
0
 40
0
 40
0
 40
0
 40
0
 40
1
 40
1
 40
1
 40
1
 10
1977.550351
 20
1262.097868
 30
0.0
 10
1985.377350
 20
1262.097868
 30
0.0
 10
1991.723350
 20
1255.752869
 30
0.0
 10
1991.723350
 20
1247.924869
 30
0.0
  0
LWPOLYLINE
  5
166
100
AcDbEntity
  8
W0102_Printing_40X30
 62
1
100
AcDbPolyline
 90
1
 70
1
 10
1949.203651
 20
1247.924869
 30
0.0
  0
SPLINE
  5
167
100
AcDbEntity
  8
W0102_Printing_40X30
 62
1
100
AcDbSpline
 70
8
 71
3
 72
8
 73
4
 74
0
 40
0
 40
0
 40
0
 40
0
 40
1
 40
1
 40
1
 40
1
 10
2034.242949
 20
1247.924869
 30
0.0
 10
2034.242949
 20
1240.096869
 30
0.0
 10
2027.896949
 20
1233.751869
 30
0.0
 10
2020.069949
 20
1233.751869
 30
0.0
  0
SPLINE
  5
168
100
AcDbEntity
  8
W0102_Printing_40X30
 62
1
100
AcDbSpline
 70
8
 71
3
 72
8
 73
4
 74
0
 40
0
 40
0
 40
0
 40
0
 40
1
 40
1
 40
1
 40
1
 10
2020.069949
 20
1233.751869
 30
0.0
 10
2012.241950
 20
1233.751869
 30
0.0
 10
2005.896950
 20
1240.096869
 30
0.0
 10
2005.896950
 20
1247.924869
 30
0.0
  0
SPLINE
  5
169
100
AcDbEntity
  8
W0102_Printing_40X30
 62
1
100
AcDbSpline
 70
8
 71
3
 72
8
 73
4
 74
0
 40
0
 40
0
 40
0
 40
0
 40
1
 40
1
 40
1
 40
1
 10
2005.896950
 20
1247.924869
 30
0.0
 10
2005.896950
 20
1255.752869
 30
0.0
 10
2012.241950
 20
1262.097868
 30
0.0
 10
2020.069949
 20
1262.097868
 30
0.0
  0
SPLINE
  5
16a
100
AcDbEntity
  8
W0102_Printing_40X30
 62
1
100
AcDbSpline
 70
8
 71
3
 72
8
 73
4
 74
0
 40
0
 40
0
 40
0
 40
0
 40
1
 40
1
 40
1
 40
1
 10
2020.069949
 20
1262.097868
 30
0.0
 10
2027.896949
 20
1262.097868
 30
0.0
 10
2034.242949
 20
1255.752869
 30
0.0
 10
2034.242949
 20
1247.924869
 30
0.0
  0
LWPOLYLINE
  5
16b
100
AcDbEntity
  8
W0102_Printing_40X30
 62
1
100
AcDbPolyline
 90
1
 70
1
 10
1991.723350
 20
1247.924869
 30
0.0
  0
SPLINE
  5
16c
100
AcDbEntity
  8
W0102_Printing_40X30
 62
1
100
AcDbSpline
 70
8
 71
3
 72
8
 73
4
 74
0
 40
0
 40
0
 40
0
 40
0
 40
1
 40
1
 40
1
 40
1
 10
2076.762648
 20
1247.924869
 30
0.0
 10
2076.762648
 20
1240.096869
 30
0.0
 10
2070.417648
 20
1233.751869
 30
0.0
 10
2062.589648
 20
1233.751869
 30
0.0
  0
SPLINE
  5
16d
100
AcDbEntity
  8
W0102_Printing_40X30
 62
1
100
AcDbSpline
 70
8
 71
3
 72
8
 73
4
 74
0
 40
0
 40
0
 40
0
 40
0
 40
1
 40
1
 40
1
 40
1
 10
2062.589648
 20
1233.751869
 30
0.0
 10
2054.761649
 20
1233.751869
 30
0.0
 10
2048.416649
 20
1240.096869
 30
0.0
 10
2048.416649
 20
1247.924869
 30
0.0
  0
SPLINE
  5
16e
100
AcDbEntity
  8
W0102_Printing_40X30
 62
1
100
AcDbSpline
 70
8
 71
3
 72
8
 73
4
 74
0
 40
0
 40
0
 40
0
 40
0
 40
1
 40
1
 40
1
 40
1
 10
2048.416649
 20
1247.924869
 30
0.0
 10
2048.416649
 20
1255.752869
 30
0.0
 10
2054.761649
 20
1262.097868
 30
0.0
 10
2062.589648
 20
1262.097868
 30
0.0
  0
SPLINE
  5
16f
100
AcDbEntity
  8
W0102_Printing_40X30
 62
1
100
AcDbSpline
 70
8
 71
3
 72
8
 73
4
 74
0
 40
0
 40
0
 40
0
 40
0
 40
1
 40
1
 40
1
 40
1
 10
2062.589648
 20
1262.097868
 30
0.0
 10
2070.417648
 20
1262.097868
 30
0.0
 10
2076.762648
 20
1255.752869
 30
0.0
 10
2076.762648
 20
1247.924869
 30
0.0
  0
LWPOLYLINE
  5
170
100
AcDbEntity
  8
W0102_Printing_40X30
 62
1
100
AcDbPolyline
 90
1
 70
1
 10
2034.242949
 20
1247.924869
 30
0.0
  0
SPLINE
  5
171
100
AcDbEntity
  8
W0102_Printing_40X30
 62
1
100
AcDbSpline
 70
8
 71
3
 72
8
 73
4
 74
0
 40
0
 40
0
 40
0
 40
0
 40
1
 40
1
 40
1
 40
1
 10
2119.282447
 20
1247.924869
 30
0.0
 10
2119.282447
 20
1240.096869
 30
0.0
 10
2112.936447
 20
1233.751869
 30
0.0
 10
2105.109447
 20
1233.751869
 30
0.0
  0
SPLINE
  5
172
100
AcDbEntity
  8
W0102_Printing_40X30
 62
1
100
AcDbSpline
 70
8
 71
3
 72
8
 73
4
 74
0
 40
0
 40
0
 40
0
 40
0
 40
1
 40
1
 40
1
 40
1
 10
2105.109447
 20
1233.751869
 30
0.0
 10
2097.281448
 20
1233.751869
 30
0.0
 10
2090.936448
 20
1240.096869
 30
0.0
 10
2090.936448
 20
1247.924869
 30
0.0
  0
SPLINE
  5
173
100
AcDbEntity
  8
W0102_Printing_40X30
 62
1
100
AcDbSpline
 70
8
 71
3
 72
8
 73
4
 74
0
 40
0
 40
0
 40
0
 40
0
 40
1
 40
1
 40
1
 40
1
 10
2090.936448
 20
1247.924869
 30
0.0
 10
2090.936448
 20
1255.752869
 30
0.0
 10
2097.281448
 20
1262.097868
 30
0.0
 10
2105.109447
 20
1262.097868
 30
0.0
  0
SPLINE
  5
174
100
AcDbEntity
  8
W0102_Printing_40X30
 62
1
100
AcDbSpline
 70
8
 71
3
 72
8
 73
4
 74
0
 40
0
 40
0
 40
0
 40
0
 40
1
 40
1
 40
1
 40
1
 10
2105.109447
 20
1262.097868
 30
0.0
 10
2112.936447
 20
1262.097868
 30
0.0
 10
2119.282447
 20
1255.752869
 30
0.0
 10
2119.282447
 20
1247.924869
 30
0.0
  0
LWPOLYLINE
  5
175
100
AcDbEntity
  8
W0102_Printing_40X30
 62
1
100
AcDbPolyline
 90
1
 70
1
 10
2076.762648
 20
1247.924869
 30
0.0
  0
SPLINE
  5
176
100
AcDbEntity
  8
W0102_Printing_40X30
 62
1
100
AcDbSpline
 70
8
 71
3
 72
8
 73
4
 74
0
 40
0
 40
0
 40
0
 40
0
 40
1
 40
1
 40
1
 40
1
 10
2161.802146
 20
1247.924869
 30
0.0
 10
2161.802146
 20
1240.096869
 30
0.0
 10
2155.456146
 20
1233.751869
 30
0.0
 10
2147.629146
 20
1233.751869
 30
0.0
  0
SPLINE
  5
177
100
AcDbEntity
  8
W0102_Printing_40X30
 62
1
100
AcDbSpline
 70
8
 71
3
 72
8
 73
4
 74
0
 40
0
 40
0
 40
0
 40
0
 40
1
 40
1
 40
1
 40
1
 10
2147.629146
 20
1233.751869
 30
0.0
 10
2139.801147
 20
1233.751869
 30
0.0
 10
2133.455147
 20
1240.096869
 30
0.0
 10
2133.455147
 20
1247.924869
 30
0.0
  0
SPLINE
  5
178
100
AcDbEntity
  8
W0102_Printing_40X30
 62
1
100
AcDbSpline
 70
8
 71
3
 72
8
 73
4
 74
0
 40
0
 40
0
 40
0
 40
0
 40
1
 40
1
 40
1
 40
1
 10
2133.455147
 20
1247.924869
 30
0.0
 10
2133.455147
 20
1255.752869
 30
0.0
 10
2139.801147
 20
1262.097868
 30
0.0
 10
2147.629146
 20
1262.097868
 30
0.0
  0
SPLINE
  5
179
100
AcDbEntity
  8
W0102_Printing_40X30
 62
1
100
AcDbSpline
 70
8
 71
3
 72
8
 73
4
 74
0
 40
0
 40
0
 40
0
 40
0
 40
1
 40
1
 40
1
 40
1
 10
2147.629146
 20
1262.097868
 30
0.0
 10
2155.456146
 20
1262.097868
 30
0.0
 10
2161.802146
 20
1255.752869
 30
0.0
 10
2161.802146
 20
1247.924869
 30
0.0
  0
LWPOLYLINE
  5
17a
100
AcDbEntity
  8
W0102_Printing_40X30
 62
1
100
AcDbPolyline
 90
1
 70
1
 10
2119.282447
 20
1247.924869
 30
0.0
  0
SPLINE
  5
17b
100
AcDbEntity
  8
W0102_Printing_40X30
 62
1
100
AcDbSpline
 70
8
 71
3
 72
8
 73
4
 74
0
 40
0
 40
0
 40
0
 40
0
 40
1
 40
1
 40
1
 40
1
 10
2204.321745
 20
1247.924869
 30
0.0
 10
2204.321745
 20
1240.096869
 30
0.0
 10
2197.976745
 20
1233.751869
 30
0.0
 10
2190.148745
 20
1233.751869
 30
0.0
  0
SPLINE
  5
17c
100
AcDbEntity
  8
W0102_Printing_40X30
 62
1
100
AcDbSpline
 70
8
 71
3
 72
8
 73
4
 74
0
 40
0
 40
0
 40
0
 40
0
 40
1
 40
1
 40
1
 40
1
 10
2190.148745
 20
1233.751869
 30
0.0
 10
2182.320745
 20
1233.751869
 30
0.0
 10
2175.975746
 20
1240.096869
 30
0.0
 10
2175.975746
 20
1247.924869
 30
0.0
  0
SPLINE
  5
17d
100
AcDbEntity
  8
W0102_Printing_40X30
 62
1
100
AcDbSpline
 70
8
 71
3
 72
8
 73
4
 74
0
 40
0
 40
0
 40
0
 40
0
 40
1
 40
1
 40
1
 40
1
 10
2175.975746
 20
1247.924869
 30
0.0
 10
2175.975746
 20
1255.752869
 30
0.0
 10
2182.320745
 20
1262.097868
 30
0.0
 10
2190.148745
 20
1262.097868
 30
0.0
  0
SPLINE
  5
17e
100
AcDbEntity
  8
W0102_Printing_40X30
 62
1
100
AcDbSpline
 70
8
 71
3
 72
8
 73
4
 74
0
 40
0
 40
0
 40
0
 40
0
 40
1
 40
1
 40
1
 40
1
 10
2190.148745
 20
1262.097868
 30
0.0
 10
2197.976745
 20
1262.097868
 30
0.0
 10
2204.321745
 20
1255.752869
 30
0.0
 10
2204.321745
 20
1247.924869
 30
0.0
  0
LWPOLYLINE
  5
17f
100
AcDbEntity
  8
W0102_Printing_40X30
 62
1
100
AcDbPolyline
 90
1
 70
1
 10
2161.802146
 20
1247.924869
 30
0.0
  0
SPLINE
  5
180
100
AcDbEntity
  8
W0102_Printing_40X30
 62
1
100
AcDbSpline
 70
8
 71
3
 72
8
 73
4
 74
0
 40
0
 40
0
 40
0
 40
0
 40
1
 40
1
 40
1
 40
1
 10
2253.928144
 20
1239.478469
 30
0.0
 10
2253.928144
 20
1231.650469
 30
0.0
 10
2247.582144
 20
1225.305469
 30
0.0
 10
2239.755144
 20
1225.305469
 30
0.0
  0
SPLINE
  5
181
100
AcDbEntity
  8
W0102_Printing_40X30
 62
1
100
AcDbSpline
 70
8
 71
3
 72
8
 73
4
 74
0
 40
0
 40
0
 40
0
 40
0
 40
1
 40
1
 40
1
 40
1
 10
2239.755144
 20
1225.305469
 30
0.0
 10
2231.927144
 20
1225.305469
 30
0.0
 10
2225.582144
 20
1231.650469
 30
0.0
 10
2225.582144
 20
1239.478469
 30
0.0
  0
SPLINE
  5
182
100
AcDbEntity
  8
W0102_Printing_40X30
 62
1
100
AcDbSpline
 70
8
 71
3
 72
8
 73
4
 74
0
 40
0
 40
0
 40
0
 40
0
 40
1
 40
1
 40
1
 40
1
 10
2225.582144
 20
1239.478469
 30
0.0
 10
2225.582144
 20
1247.306469
 30
0.0
 10
2231.927144
 20
1253.651469
 30
0.0
 10
2239.755144
 20
1253.651469
 30
0.0
  0
SPLINE
  5
183
100
AcDbEntity
  8
W0102_Printing_40X30
 62
1
100
AcDbSpline
 70
8
 71
3
 72
8
 73
4
 74
0
 40
0
 40
0
 40
0
 40
0
 40
1
 40
1
 40
1
 40
1
 10
2239.755144
 20
1253.651469
 30
0.0
 10
2247.582144
 20
1253.651469
 30
0.0
 10
2253.928144
 20
1247.306469
 30
0.0
 10
2253.928144
 20
1239.478469
 30
0.0
  0
LWPOLYLINE
  5
184
100
AcDbEntity
  8
W0102_Printing_40X30
 62
1
100
AcDbPolyline
 90
1
 70
1
 10
2204.321745
 20
1247.924869
 30
0.0
  0
SPLINE
  5
185
100
AcDbEntity
  8
W0102_Printing_40X30
 62
1
100
AcDbSpline
 70
8
 71
3
 72
8
 73
4
 74
0
 40
0
 40
0
 40
0
 40
0
 40
1
 40
1
 40
1
 40
1
 10
1176.762671
 20
1239.478469
 30
0.0
 10
1176.762671
 20
1231.650469
 30
0.0
 10
1170.416671
 20
1225.305469
 30
0.0
 10
1162.589671
 20
1225.305469
 30
0.0
  0
SPLINE
  5
186
100
AcDbEntity
  8
W0102_Printing_40X30
 62
1
100
AcDbSpline
 70
8
 71
3
 72
8
 73
4
 74
0
 40
0
 40
0
 40
0
 40
0
 40
1
 40
1
 40
1
 40
1
 10
1162.589671
 20
1225.305469
 30
0.0
 10
1154.761671
 20
1225.305469
 30
0.0
 10
1148.416671
 20
1231.650469
 30
0.0
 10
1148.416671
 20
1239.478469
 30
0.0
  0
SPLINE
  5
187
100
AcDbEntity
  8
W0102_Printing_40X30
 62
1
100
AcDbSpline
 70
8
 71
3
 72
8
 73
4
 74
0
 40
0
 40
0
 40
0
 40
0
 40
1
 40
1
 40
1
 40
1
 10
1148.416671
 20
1239.478469
 30
0.0
 10
1148.416671
 20
1247.306469
 30
0.0
 10
1154.761671
 20
1253.651469
 30
0.0
 10
1162.589671
 20
1253.651469
 30
0.0
  0
SPLINE
  5
188
100
AcDbEntity
  8
W0102_Printing_40X30
 62
1
100
AcDbSpline
 70
8
 71
3
 72
8
 73
4
 74
0
 40
0
 40
0
 40
0
 40
0
 40
1
 40
1
 40
1
 40
1
 10
1162.589671
 20
1253.651469
 30
0.0
 10
1170.416671
 20
1253.651469
 30
0.0
 10
1176.762671
 20
1247.306469
 30
0.0
 10
1176.762671
 20
1239.478469
 30
0.0
  0
LWPOLYLINE
  5
189
100
AcDbEntity
  8
W0102_Printing_40X30
 62
1
100
AcDbPolyline
 90
1
 70
1
 10
2253.928144
 20
1239.478469
 30
0.0
  0
SPLINE
  5
18a
100
AcDbEntity
  8
W0102_Printing_40X30
 62
1
100
AcDbSpline
 70
8
 71
3
 72
8
 73
4
 74
0
 40
0
 40
0
 40
0
 40
0
 40
1
 40
1
 40
1
 40
1
 10
2253.928144
 20
454.224089
 30
0.0
 10
2253.928144
 20
446.396089
 30
0.0
 10
2247.582144
 20
440.051089
 30
0.0
 10
2239.755144
 20
440.051089
 30
0.0
  0
SPLINE
  5
18b
100
AcDbEntity
  8
W0102_Printing_40X30
 62
1
100
AcDbSpline
 70
8
 71
3
 72
8
 73
4
 74
0
 40
0
 40
0
 40
0
 40
0
 40
1
 40
1
 40
1
 40
1
 10
2239.755144
 20
440.051089
 30
0.0
 10
2231.927144
 20
440.051089
 30
0.0
 10
2225.582144
 20
446.396089
 30
0.0
 10
2225.582144
 20
454.224089
 30
0.0
  0
SPLINE
  5
18c
100
AcDbEntity
  8
W0102_Printing_40X30
 62
1
100
AcDbSpline
 70
8
 71
3
 72
8
 73
4
 74
0
 40
0
 40
0
 40
0
 40
0
 40
1
 40
1
 40
1
 40
1
 10
2225.582144
 20
454.224089
 30
0.0
 10
2225.582144
 20
462.052088
 30
0.0
 10
2231.927144
 20
468.397088
 30
0.0
 10
2239.755144
 20
468.397088
 30
0.0
  0
SPLINE
  5
18d
100
AcDbEntity
  8
W0102_Printing_40X30
 62
1
100
AcDbSpline
 70
8
 71
3
 72
8
 73
4
 74
0
 40
0
 40
0
 40
0
 40
0
 40
1
 40
1
 40
1
 40
1
 10
2239.755144
 20
468.397088
 30
0.0
 10
2247.582144
 20
468.397088
 30
0.0
 10
2253.928144
 20
462.052088
 30
0.0
 10
2253.928144
 20
454.224089
 30
0.0
  0
LWPOLYLINE
  5
18e
100
AcDbEntity
  8
W0102_Printing_40X30
 62
1
100
AcDbPolyline
 90
1
 70
1
 10
1176.762671
 20
1239.478469
 30
0.0
  0
SPLINE
  5
18f
100
AcDbEntity
  8
W0102_Printing_40X30
 62
1
100
AcDbSpline
 70
8
 71
3
 72
8
 73
4
 74
0
 40
0
 40
0
 40
0
 40
0
 40
1
 40
1
 40
1
 40
1
 10
1176.762671
 20
454.224089
 30
0.0
 10
1176.762671
 20
446.396089
 30
0.0
 10
1170.416671
 20
440.051089
 30
0.0
 10
1162.589671
 20
440.051089
 30
0.0
  0
SPLINE
  5
190
100
AcDbEntity
  8
W0102_Printing_40X30
 62
1
100
AcDbSpline
 70
8
 71
3
 72
8
 73
4
 74
0
 40
0
 40
0
 40
0
 40
0
 40
1
 40
1
 40
1
 40
1
 10
1162.589671
 20
440.051089
 30
0.0
 10
1154.761671
 20
440.051089
 30
0.0
 10
1148.416671
 20
446.396089
 30
0.0
 10
1148.416671
 20
454.224089
 30
0.0
  0
SPLINE
  5
191
100
AcDbEntity
  8
W0102_Printing_40X30
 62
1
100
AcDbSpline
 70
8
 71
3
 72
8
 73
4
 74
0
 40
0
 40
0
 40
0
 40
0
 40
1
 40
1
 40
1
 40
1
 10
1148.416671
 20
454.224089
 30
0.0
 10
1148.416671
 20
462.052088
 30
0.0
 10
1154.761671
 20
468.397088
 30
0.0
 10
1162.589671
 20
468.397088
 30
0.0
  0
SPLINE
  5
192
100
AcDbEntity
  8
W0102_Printing_40X30
 62
1
100
AcDbSpline
 70
8
 71
3
 72
8
 73
4
 74
0
 40
0
 40
0
 40
0
 40
0
 40
1
 40
1
 40
1
 40
1
 10
1162.589671
 20
468.397088
 30
0.0
 10
1170.416671
 20
468.397088
 30
0.0
 10
1176.762671
 20
462.052088
 30
0.0
 10
1176.762671
 20
454.224089
 30
0.0
  0
LWPOLYLINE
  5
193
100
AcDbEntity
  8
W0102_Printing_40X30
 62
1
100
AcDbPolyline
 90
1
 70
1
 10
2253.928144
 20
454.224089
 30
0.0
  0
SPLINE
  5
194
100
AcDbEntity
  8
W0102_Printing_40X30
 62
1
100
AcDbSpline
 70
8
 71
3
 72
8
 73
4
 74
0
 40
0
 40
0
 40
0
 40
0
 40
1
 40
1
 40
1
 40
1
 10
1226.369069
 20
454.224089
 30
0.0
 10
1226.369069
 20
446.396089
 30
0.0
 10
1220.023069
 20
440.051089
 30
0.0
 10
1212.196070
 20
440.051089
 30
0.0
  0
SPLINE
  5
195
100
AcDbEntity
  8
W0102_Printing_40X30
 62
1
100
AcDbSpline
 70
8
 71
3
 72
8
 73
4
 74
0
 40
0
 40
0
 40
0
 40
0
 40
1
 40
1
 40
1
 40
1
 10
1212.196070
 20
440.051089
 30
0.0
 10
1204.368070
 20
440.051089
 30
0.0
 10
1198.023070
 20
446.396089
 30
0.0
 10
1198.023070
 20
454.224089
 30
0.0
  0
SPLINE
  5
196
100
AcDbEntity
  8
W0102_Printing_40X30
 62
1
100
AcDbSpline
 70
8
 71
3
 72
8
 73
4
 74
0
 40
0
 40
0
 40
0
 40
0
 40
1
 40
1
 40
1
 40
1
 10
1198.023070
 20
454.224089
 30
0.0
 10
1198.023070
 20
462.052088
 30
0.0
 10
1204.368070
 20
468.397088
 30
0.0
 10
1212.196070
 20
468.397088
 30
0.0
  0
SPLINE
  5
197
100
AcDbEntity
  8
W0102_Printing_40X30
 62
1
100
AcDbSpline
 70
8
 71
3
 72
8
 73
4
 74
0
 40
0
 40
0
 40
0
 40
0
 40
1
 40
1
 40
1
 40
1
 10
1212.196070
 20
468.397088
 30
0.0
 10
1220.023069
 20
468.397088
 30
0.0
 10
1226.369069
 20
462.052088
 30
0.0
 10
1226.369069
 20
454.224089
 30
0.0
  0
LWPOLYLINE
  5
198
100
AcDbEntity
  8
W0102_Printing_40X30
 62
1
100
AcDbPolyline
 90
1
 70
1
 10
1176.762671
 20
454.224089
 30
0.0
  0
SPLINE
  5
199
100
AcDbEntity
  8
W0102_Printing_40X30
 62
1
100
AcDbSpline
 70
8
 71
3
 72
8
 73
4
 74
0
 40
0
 40
0
 40
0
 40
0
 40
1
 40
1
 40
1
 40
1
 10
1268.888768
 20
454.224089
 30
0.0
 10
1268.888768
 20
446.396089
 30
0.0
 10
1262.542768
 20
440.051089
 30
0.0
 10
1254.715769
 20
440.051089
 30
0.0
  0
SPLINE
  5
19a
100
AcDbEntity
  8
W0102_Printing_40X30
 62
1
100
AcDbSpline
 70
8
 71
3
 72
8
 73
4
 74
0
 40
0
 40
0
 40
0
 40
0
 40
1
 40
1
 40
1
 40
1
 10
1254.715769
 20
440.051089
 30
0.0
 10
1246.887769
 20
440.051089
 30
0.0
 10
1240.542769
 20
446.396089
 30
0.0
 10
1240.542769
 20
454.224089
 30
0.0
  0
SPLINE
  5
19b
100
AcDbEntity
  8
W0102_Printing_40X30
 62
1
100
AcDbSpline
 70
8
 71
3
 72
8
 73
4
 74
0
 40
0
 40
0
 40
0
 40
0
 40
1
 40
1
 40
1
 40
1
 10
1240.542769
 20
454.224089
 30
0.0
 10
1240.542769
 20
462.052088
 30
0.0
 10
1246.887769
 20
468.397088
 30
0.0
 10
1254.715769
 20
468.397088
 30
0.0
  0
SPLINE
  5
19c
100
AcDbEntity
  8
W0102_Printing_40X30
 62
1
100
AcDbSpline
 70
8
 71
3
 72
8
 73
4
 74
0
 40
0
 40
0
 40
0
 40
0
 40
1
 40
1
 40
1
 40
1
 10
1254.715769
 20
468.397088
 30
0.0
 10
1262.542768
 20
468.397088
 30
0.0
 10
1268.888768
 20
462.052088
 30
0.0
 10
1268.888768
 20
454.224089
 30
0.0
  0
LWPOLYLINE
  5
19d
100
AcDbEntity
  8
W0102_Printing_40X30
 62
1
100
AcDbPolyline
 90
1
 70
1
 10
1226.369069
 20
454.224089
 30
0.0
  0
SPLINE
  5
19e
100
AcDbEntity
  8
W0102_Printing_40X30
 62
1
100
AcDbSpline
 70
8
 71
3
 72
8
 73
4
 74
0
 40
0
 40
0
 40
0
 40
0
 40
1
 40
1
 40
1
 40
1
 10
1311.408367
 20
454.224089
 30
0.0
 10
1311.408367
 20
446.396089
 30
0.0
 10
1305.062367
 20
440.051089
 30
0.0
 10
1297.235368
 20
440.051089
 30
0.0
  0
SPLINE
  5
19f
100
AcDbEntity
  8
W0102_Printing_40X30
 62
1
100
AcDbSpline
 70
8
 71
3
 72
8
 73
4
 74
0
 40
0
 40
0
 40
0
 40
0
 40
1
 40
1
 40
1
 40
1
 10
1297.235368
 20
440.051089
 30
0.0
 10
1289.407368
 20
440.051089
 30
0.0
 10
1283.062368
 20
446.396089
 30
0.0
 10
1283.062368
 20
454.224089
 30
0.0
  0
SPLINE
  5
1a0
100
AcDbEntity
  8
W0102_Printing_40X30
 62
1
100
AcDbSpline
 70
8
 71
3
 72
8
 73
4
 74
0
 40
0
 40
0
 40
0
 40
0
 40
1
 40
1
 40
1
 40
1
 10
1283.062368
 20
454.224089
 30
0.0
 10
1283.062368
 20
462.052088
 30
0.0
 10
1289.407368
 20
468.397088
 30
0.0
 10
1297.235368
 20
468.397088
 30
0.0
  0
SPLINE
  5
1a1
100
AcDbEntity
  8
W0102_Printing_40X30
 62
1
100
AcDbSpline
 70
8
 71
3
 72
8
 73
4
 74
0
 40
0
 40
0
 40
0
 40
0
 40
1
 40
1
 40
1
 40
1
 10
1297.235368
 20
468.397088
 30
0.0
 10
1305.062367
 20
468.397088
 30
0.0
 10
1311.408367
 20
462.052088
 30
0.0
 10
1311.408367
 20
454.224089
 30
0.0
  0
LWPOLYLINE
  5
1a2
100
AcDbEntity
  8
W0102_Printing_40X30
 62
1
100
AcDbPolyline
 90
1
 70
1
 10
1268.888768
 20
454.224089
 30
0.0
  0
SPLINE
  5
1a3
100
AcDbEntity
  8
W0102_Printing_40X30
 62
1
100
AcDbSpline
 70
8
 71
3
 72
8
 73
4
 74
0
 40
0
 40
0
 40
0
 40
0
 40
1
 40
1
 40
1
 40
1
 10
1353.928066
 20
454.224089
 30
0.0
 10
1353.928066
 20
446.396089
 30
0.0
 10
1347.583066
 20
440.051089
 30
0.0
 10
1339.755067
 20
440.051089
 30
0.0
  0
SPLINE
  5
1a4
100
AcDbEntity
  8
W0102_Printing_40X30
 62
1
100
AcDbSpline
 70
8
 71
3
 72
8
 73
4
 74
0
 40
0
 40
0
 40
0
 40
0
 40
1
 40
1
 40
1
 40
1
 10
1339.755067
 20
440.051089
 30
0.0
 10
1331.927067
 20
440.051089
 30
0.0
 10
1325.582067
 20
446.396089
 30
0.0
 10
1325.582067
 20
454.224089
 30
0.0
  0
SPLINE
  5
1a5
100
AcDbEntity
  8
W0102_Printing_40X30
 62
1
100
AcDbSpline
 70
8
 71
3
 72
8
 73
4
 74
0
 40
0
 40
0
 40
0
 40
0
 40
1
 40
1
 40
1
 40
1
 10
1325.582067
 20
454.224089
 30
0.0
 10
1325.582067
 20
462.052088
 30
0.0
 10
1331.927067
 20
468.397088
 30
0.0
 10
1339.755067
 20
468.397088
 30
0.0
  0
SPLINE
  5
1a6
100
AcDbEntity
  8
W0102_Printing_40X30
 62
1
100
AcDbSpline
 70
8
 71
3
 72
8
 73
4
 74
0
 40
0
 40
0
 40
0
 40
0
 40
1
 40
1
 40
1
 40
1
 10
1339.755067
 20
468.397088
 30
0.0
 10
1347.583066
 20
468.397088
 30
0.0
 10
1353.928066
 20
462.052088
 30
0.0
 10
1353.928066
 20
454.224089
 30
0.0
  0
LWPOLYLINE
  5
1a7
100
AcDbEntity
  8
W0102_Printing_40X30
 62
1
100
AcDbPolyline
 90
1
 70
1
 10
1311.408367
 20
454.224089
 30
0.0
  0
SPLINE
  5
1a8
100
AcDbEntity
  8
W0102_Printing_40X30
 62
1
100
AcDbSpline
 70
8
 71
3
 72
8
 73
4
 74
0
 40
0
 40
0
 40
0
 40
0
 40
1
 40
1
 40
1
 40
1
 10
1396.447865
 20
454.224089
 30
0.0
 10
1396.447865
 20
446.396089
 30
0.0
 10
1390.101865
 20
440.051089
 30
0.0
 10
1382.274865
 20
440.051089
 30
0.0
  0
SPLINE
  5
1a9
100
AcDbEntity
  8
W0102_Printing_40X30
 62
1
100
AcDbSpline
 70
8
 71
3
 72
8
 73
4
 74
0
 40
0
 40
0
 40
0
 40
0
 40
1
 40
1
 40
1
 40
1
 10
1382.274865
 20
440.051089
 30
0.0
 10
1374.446866
 20
440.051089
 30
0.0
 10
1368.101866
 20
446.396089
 30
0.0
 10
1368.101866
 20
454.224089
 30
0.0
  0
SPLINE
  5
1aa
100
AcDbEntity
  8
W0102_Printing_40X30
 62
1
100
AcDbSpline
 70
8
 71
3
 72
8
 73
4
 74
0
 40
0
 40
0
 40
0
 40
0
 40
1
 40
1
 40
1
 40
1
 10
1368.101866
 20
454.224089
 30
0.0
 10
1368.101866
 20
462.052088
 30
0.0
 10
1374.446866
 20
468.397088
 30
0.0
 10
1382.274865
 20
468.397088
 30
0.0
  0
SPLINE
  5
1ab
100
AcDbEntity
  8
W0102_Printing_40X30
 62
1
100
AcDbSpline
 70
8
 71
3
 72
8
 73
4
 74
0
 40
0
 40
0
 40
0
 40
0
 40
1
 40
1
 40
1
 40
1
 10
1382.274865
 20
468.397088
 30
0.0
 10
1390.101865
 20
468.397088
 30
0.0
 10
1396.447865
 20
462.052088
 30
0.0
 10
1396.447865
 20
454.224089
 30
0.0
  0
LWPOLYLINE
  5
1ac
100
AcDbEntity
  8
W0102_Printing_40X30
 62
1
100
AcDbPolyline
 90
1
 70
1
 10
1353.928066
 20
454.224089
 30
0.0
  0
SPLINE
  5
1ad
100
AcDbEntity
  8
W0102_Printing_40X30
 62
1
100
AcDbSpline
 70
8
 71
3
 72
8
 73
4
 74
0
 40
0
 40
0
 40
0
 40
0
 40
1
 40
1
 40
1
 40
1
 10
1438.967464
 20
454.224089
 30
0.0
 10
1438.967464
 20
446.396089
 30
0.0
 10
1432.621464
 20
440.051089
 30
0.0
 10
1424.794464
 20
440.051089
 30
0.0
  0
SPLINE
  5
1ae
100
AcDbEntity
  8
W0102_Printing_40X30
 62
1
100
AcDbSpline
 70
8
 71
3
 72
8
 73
4
 74
0
 40
0
 40
0
 40
0
 40
0
 40
1
 40
1
 40
1
 40
1
 10
1424.794464
 20
440.051089
 30
0.0
 10
1416.966465
 20
440.051089
 30
0.0
 10
1410.621465
 20
446.396089
 30
0.0
 10
1410.621465
 20
454.224089
 30
0.0
  0
SPLINE
  5
1af
100
AcDbEntity
  8
W0102_Printing_40X30
 62
1
100
AcDbSpline
 70
8
 71
3
 72
8
 73
4
 74
0
 40
0
 40
0
 40
0
 40
0
 40
1
 40
1
 40
1
 40
1
 10
1410.621465
 20
454.224089
 30
0.0
 10
1410.621465
 20
462.052088
 30
0.0
 10
1416.966465
 20
468.397088
 30
0.0
 10
1424.794464
 20
468.397088
 30
0.0
  0
SPLINE
  5
1b0
100
AcDbEntity
  8
W0102_Printing_40X30
 62
1
100
AcDbSpline
 70
8
 71
3
 72
8
 73
4
 74
0
 40
0
 40
0
 40
0
 40
0
 40
1
 40
1
 40
1
 40
1
 10
1424.794464
 20
468.397088
 30
0.0
 10
1432.621464
 20
468.397088
 30
0.0
 10
1438.967464
 20
462.052088
 30
0.0
 10
1438.967464
 20
454.224089
 30
0.0
  0
LWPOLYLINE
  5
1b1
100
AcDbEntity
  8
W0102_Printing_40X30
 62
1
100
AcDbPolyline
 90
1
 70
1
 10
1396.447865
 20
454.224089
 30
0.0
  0
SPLINE
  5
1b2
100
AcDbEntity
  8
W0102_Printing_40X30
 62
1
100
AcDbSpline
 70
8
 71
3
 72
8
 73
4
 74
0
 40
0
 40
0
 40
0
 40
0
 40
1
 40
1
 40
1
 40
1
 10
1481.487163
 20
454.224089
 30
0.0
 10
1481.487163
 20
446.396089
 30
0.0
 10
1475.141163
 20
440.051089
 30
0.0
 10
1467.314163
 20
440.051089
 30
0.0
  0
SPLINE
  5
1b3
100
AcDbEntity
  8
W0102_Printing_40X30
 62
1
100
AcDbSpline
 70
8
 71
3
 72
8
 73
4
 74
0
 40
0
 40
0
 40
0
 40
0
 40
1
 40
1
 40
1
 40
1
 10
1467.314163
 20
440.051089
 30
0.0
 10
1459.486164
 20
440.051089
 30
0.0
 10
1453.141164
 20
446.396089
 30
0.0
 10
1453.141164
 20
454.224089
 30
0.0
  0
SPLINE
  5
1b4
100
AcDbEntity
  8
W0102_Printing_40X30
 62
1
100
AcDbSpline
 70
8
 71
3
 72
8
 73
4
 74
0
 40
0
 40
0
 40
0
 40
0
 40
1
 40
1
 40
1
 40
1
 10
1453.141164
 20
454.224089
 30
0.0
 10
1453.141164
 20
462.052088
 30
0.0
 10
1459.486164
 20
468.397088
 30
0.0
 10
1467.314163
 20
468.397088
 30
0.0
  0
SPLINE
  5
1b5
100
AcDbEntity
  8
W0102_Printing_40X30
 62
1
100
AcDbSpline
 70
8
 71
3
 72
8
 73
4
 74
0
 40
0
 40
0
 40
0
 40
0
 40
1
 40
1
 40
1
 40
1
 10
1467.314163
 20
468.397088
 30
0.0
 10
1475.141163
 20
468.397088
 30
0.0
 10
1481.487163
 20
462.052088
 30
0.0
 10
1481.487163
 20
454.224089
 30
0.0
  0
LWPOLYLINE
  5
1b6
100
AcDbEntity
  8
W0102_Printing_40X30
 62
1
100
AcDbPolyline
 90
1
 70
1
 10
1438.967464
 20
454.224089
 30
0.0
  0
SPLINE
  5
1b7
100
AcDbEntity
  8
W0102_Printing_40X30
 62
1
100
AcDbSpline
 70
8
 71
3
 72
8
 73
4
 74
0
 40
0
 40
0
 40
0
 40
0
 40
1
 40
1
 40
1
 40
1
 10
1524.006762
 20
454.224089
 30
0.0
 10
1524.006762
 20
446.396089
 30
0.0
 10
1517.661762
 20
440.051089
 30
0.0
 10
1509.833762
 20
440.051089
 30
0.0
  0
SPLINE
  5
1b8
100
AcDbEntity
  8
W0102_Printing_40X30
 62
1
100
AcDbSpline
 70
8
 71
3
 72
8
 73
4
 74
0
 40
0
 40
0
 40
0
 40
0
 40
1
 40
1
 40
1
 40
1
 10
1509.833762
 20
440.051089
 30
0.0
 10
1502.005762
 20
440.051089
 30
0.0
 10
1495.660763
 20
446.396089
 30
0.0
 10
1495.660763
 20
454.224089
 30
0.0
  0
SPLINE
  5
1b9
100
AcDbEntity
  8
W0102_Printing_40X30
 62
1
100
AcDbSpline
 70
8
 71
3
 72
8
 73
4
 74
0
 40
0
 40
0
 40
0
 40
0
 40
1
 40
1
 40
1
 40
1
 10
1495.660763
 20
454.224089
 30
0.0
 10
1495.660763
 20
462.052088
 30
0.0
 10
1502.005762
 20
468.397088
 30
0.0
 10
1509.833762
 20
468.397088
 30
0.0
  0
SPLINE
  5
1ba
100
AcDbEntity
  8
W0102_Printing_40X30
 62
1
100
AcDbSpline
 70
8
 71
3
 72
8
 73
4
 74
0
 40
0
 40
0
 40
0
 40
0
 40
1
 40
1
 40
1
 40
1
 10
1509.833762
 20
468.397088
 30
0.0
 10
1517.661762
 20
468.397088
 30
0.0
 10
1524.006762
 20
462.052088
 30
0.0
 10
1524.006762
 20
454.224089
 30
0.0
  0
LWPOLYLINE
  5
1bb
100
AcDbEntity
  8
W0102_Printing_40X30
 62
1
100
AcDbPolyline
 90
1
 70
1
 10
1481.487163
 20
454.224089
 30
0.0
  0
SPLINE
  5
1bc
100
AcDbEntity
  8
W0102_Printing_40X30
 62
1
100
AcDbSpline
 70
8
 71
3
 72
8
 73
4
 74
0
 40
0
 40
0
 40
0
 40
0
 40
1
 40
1
 40
1
 40
1
 10
1566.526561
 20
454.224089
 30
0.0
 10
1566.526561
 20
446.396089
 30
0.0
 10
1560.180561
 20
440.051089
 30
0.0
 10
1552.353561
 20
440.051089
 30
0.0
  0
SPLINE
  5
1bd
100
AcDbEntity
  8
W0102_Printing_40X30
 62
1
100
AcDbSpline
 70
8
 71
3
 72
8
 73
4
 74
0
 40
0
 40
0
 40
0
 40
0
 40
1
 40
1
 40
1
 40
1
 10
1552.353561
 20
440.051089
 30
0.0
 10
1544.525561
 20
440.051089
 30
0.0
 10
1538.180562
 20
446.396089
 30
0.0
 10
1538.180562
 20
454.224089
 30
0.0
  0
SPLINE
  5
1be
100
AcDbEntity
  8
W0102_Printing_40X30
 62
1
100
AcDbSpline
 70
8
 71
3
 72
8
 73
4
 74
0
 40
0
 40
0
 40
0
 40
0
 40
1
 40
1
 40
1
 40
1
 10
1538.180562
 20
454.224089
 30
0.0
 10
1538.180562
 20
462.052088
 30
0.0
 10
1544.525561
 20
468.397088
 30
0.0
 10
1552.353561
 20
468.397088
 30
0.0
  0
SPLINE
  5
1bf
100
AcDbEntity
  8
W0102_Printing_40X30
 62
1
100
AcDbSpline
 70
8
 71
3
 72
8
 73
4
 74
0
 40
0
 40
0
 40
0
 40
0
 40
1
 40
1
 40
1
 40
1
 10
1552.353561
 20
468.397088
 30
0.0
 10
1560.180561
 20
468.397088
 30
0.0
 10
1566.526561
 20
462.052088
 30
0.0
 10
1566.526561
 20
454.224089
 30
0.0
  0
LWPOLYLINE
  5
1c0
100
AcDbEntity
  8
W0102_Printing_40X30
 62
1
100
AcDbPolyline
 90
1
 70
1
 10
1524.006762
 20
454.224089
 30
0.0
  0
SPLINE
  5
1c1
100
AcDbEntity
  8
W0102_Printing_40X30
 62
1
100
AcDbSpline
 70
8
 71
3
 72
8
 73
4
 74
0
 40
0
 40
0
 40
0
 40
0
 40
1
 40
1
 40
1
 40
1
 10
1609.046260
 20
454.224089
 30
0.0
 10
1609.046260
 20
446.396089
 30
0.0
 10
1602.700260
 20
440.051089
 30
0.0
 10
1594.873260
 20
440.051089
 30
0.0
  0
SPLINE
  5
1c2
100
AcDbEntity
  8
W0102_Printing_40X30
 62
1
100
AcDbSpline
 70
8
 71
3
 72
8
 73
4
 74
0
 40
0
 40
0
 40
0
 40
0
 40
1
 40
1
 40
1
 40
1
 10
1594.873260
 20
440.051089
 30
0.0
 10
1587.045260
 20
440.051089
 30
0.0
 10
1580.700260
 20
446.396089
 30
0.0
 10
1580.700260
 20
454.224089
 30
0.0
  0
SPLINE
  5
1c3
100
AcDbEntity
  8
W0102_Printing_40X30
 62
1
100
AcDbSpline
 70
8
 71
3
 72
8
 73
4
 74
0
 40
0
 40
0
 40
0
 40
0
 40
1
 40
1
 40
1
 40
1
 10
1580.700260
 20
454.224089
 30
0.0
 10
1580.700260
 20
462.052088
 30
0.0
 10
1587.045260
 20
468.397088
 30
0.0
 10
1594.873260
 20
468.397088
 30
0.0
  0
SPLINE
  5
1c4
100
AcDbEntity
  8
W0102_Printing_40X30
 62
1
100
AcDbSpline
 70
8
 71
3
 72
8
 73
4
 74
0
 40
0
 40
0
 40
0
 40
0
 40
1
 40
1
 40
1
 40
1
 10
1594.873260
 20
468.397088
 30
0.0
 10
1602.700260
 20
468.397088
 30
0.0
 10
1609.046260
 20
462.052088
 30
0.0
 10
1609.046260
 20
454.224089
 30
0.0
  0
LWPOLYLINE
  5
1c5
100
AcDbEntity
  8
W0102_Printing_40X30
 62
1
100
AcDbPolyline
 90
1
 70
1
 10
1566.526561
 20
454.224089
 30
0.0
  0
SPLINE
  5
1c6
100
AcDbEntity
  8
W0102_Printing_40X30
 62
1
100
AcDbSpline
 70
8
 71
3
 72
8
 73
4
 74
0
 40
0
 40
0
 40
0
 40
0
 40
1
 40
1
 40
1
 40
1
 10
1651.565859
 20
454.224089
 30
0.0
 10
1651.565859
 20
446.396089
 30
0.0
 10
1645.219859
 20
440.051089
 30
0.0
 10
1637.392859
 20
440.051089
 30
0.0
  0
SPLINE
  5
1c7
100
AcDbEntity
  8
W0102_Printing_40X30
 62
1
100
AcDbSpline
 70
8
 71
3
 72
8
 73
4
 74
0
 40
0
 40
0
 40
0
 40
0
 40
1
 40
1
 40
1
 40
1
 10
1637.392859
 20
440.051089
 30
0.0
 10
1629.564859
 20
440.051089
 30
0.0
 10
1623.219859
 20
446.396089
 30
0.0
 10
1623.219859
 20
454.224089
 30
0.0
  0
SPLINE
  5
1c8
100
AcDbEntity
  8
W0102_Printing_40X30
 62
1
100
AcDbSpline
 70
8
 71
3
 72
8
 73
4
 74
0
 40
0
 40
0
 40
0
 40
0
 40
1
 40
1
 40
1
 40
1
 10
1623.219859
 20
454.224089
 30
0.0
 10
1623.219859
 20
462.052088
 30
0.0
 10
1629.564859
 20
468.397088
 30
0.0
 10
1637.392859
 20
468.397088
 30
0.0
  0
SPLINE
  5
1c9
100
AcDbEntity
  8
W0102_Printing_40X30
 62
1
100
AcDbSpline
 70
8
 71
3
 72
8
 73
4
 74
0
 40
0
 40
0
 40
0
 40
0
 40
1
 40
1
 40
1
 40
1
 10
1637.392859
 20
468.397088
 30
0.0
 10
1645.219859
 20
468.397088
 30
0.0
 10
1651.565859
 20
462.052088
 30
0.0
 10
1651.565859
 20
454.224089
 30
0.0
  0
LWPOLYLINE
  5
1ca
100
AcDbEntity
  8
W0102_Printing_40X30
 62
1
100
AcDbPolyline
 90
1
 70
1
 10
1609.046260
 20
454.224089
 30
0.0
  0
SPLINE
  5
1cb
100
AcDbEntity
  8
W0102_Printing_40X30
 62
1
100
AcDbSpline
 70
8
 71
3
 72
8
 73
4
 74
0
 40
0
 40
0
 40
0
 40
0
 40
1
 40
1
 40
1
 40
1
 10
1694.085558
 20
454.224089
 30
0.0
 10
1694.085558
 20
446.396089
 30
0.0
 10
1687.740558
 20
440.051089
 30
0.0
 10
1679.912558
 20
440.051089
 30
0.0
  0
SPLINE
  5
1cc
100
AcDbEntity
  8
W0102_Printing_40X30
 62
1
100
AcDbSpline
 70
8
 71
3
 72
8
 73
4
 74
0
 40
0
 40
0
 40
0
 40
0
 40
1
 40
1
 40
1
 40
1
 10
1679.912558
 20
440.051089
 30
0.0
 10
1672.084558
 20
440.051089
 30
0.0
 10
1665.739558
 20
446.396089
 30
0.0
 10
1665.739558
 20
454.224089
 30
0.0
  0
SPLINE
  5
1cd
100
AcDbEntity
  8
W0102_Printing_40X30
 62
1
100
AcDbSpline
 70
8
 71
3
 72
8
 73
4
 74
0
 40
0
 40
0
 40
0
 40
0
 40
1
 40
1
 40
1
 40
1
 10
1665.739558
 20
454.224089
 30
0.0
 10
1665.739558
 20
462.052088
 30
0.0
 10
1672.084558
 20
468.397088
 30
0.0
 10
1679.912558
 20
468.397088
 30
0.0
  0
SPLINE
  5
1ce
100
AcDbEntity
  8
W0102_Printing_40X30
 62
1
100
AcDbSpline
 70
8
 71
3
 72
8
 73
4
 74
0
 40
0
 40
0
 40
0
 40
0
 40
1
 40
1
 40
1
 40
1
 10
1679.912558
 20
468.397088
 30
0.0
 10
1687.740558
 20
468.397088
 30
0.0
 10
1694.085558
 20
462.052088
 30
0.0
 10
1694.085558
 20
454.224089
 30
0.0
  0
LWPOLYLINE
  5
1cf
100
AcDbEntity
  8
W0102_Printing_40X30
 62
1
100
AcDbPolyline
 90
1
 70
1
 10
1651.565859
 20
454.224089
 30
0.0
  0
SPLINE
  5
1d0
100
AcDbEntity
  8
W0102_Printing_40X30
 62
1
100
AcDbSpline
 70
8
 71
3
 72
8
 73
4
 74
0
 40
0
 40
0
 40
0
 40
0
 40
1
 40
1
 40
1
 40
1
 10
1736.605257
 20
454.224089
 30
0.0
 10
1736.605257
 20
446.396089
 30
0.0
 10
1730.259257
 20
440.051089
 30
0.0
 10
1722.432257
 20
440.051089
 30
0.0
  0
SPLINE
  5
1d1
100
AcDbEntity
  8
W0102_Printing_40X30
 62
1
100
AcDbSpline
 70
8
 71
3
 72
8
 73
4
 74
0
 40
0
 40
0
 40
0
 40
0
 40
1
 40
1
 40
1
 40
1
 10
1722.432257
 20
440.051089
 30
0.0
 10
1714.604257
 20
440.051089
 30
0.0
 10
1708.259257
 20
446.396089
 30
0.0
 10
1708.259257
 20
454.224089
 30
0.0
  0
SPLINE
  5
1d2
100
AcDbEntity
  8
W0102_Printing_40X30
 62
1
100
AcDbSpline
 70
8
 71
3
 72
8
 73
4
 74
0
 40
0
 40
0
 40
0
 40
0
 40
1
 40
1
 40
1
 40
1
 10
1708.259257
 20
454.224089
 30
0.0
 10
1708.259257
 20
462.052088
 30
0.0
 10
1714.604257
 20
468.397088
 30
0.0
 10
1722.432257
 20
468.397088
 30
0.0
  0
SPLINE
  5
1d3
100
AcDbEntity
  8
W0102_Printing_40X30
 62
1
100
AcDbSpline
 70
8
 71
3
 72
8
 73
4
 74
0
 40
0
 40
0
 40
0
 40
0
 40
1
 40
1
 40
1
 40
1
 10
1722.432257
 20
468.397088
 30
0.0
 10
1730.259257
 20
468.397088
 30
0.0
 10
1736.605257
 20
462.052088
 30
0.0
 10
1736.605257
 20
454.224089
 30
0.0
  0
LWPOLYLINE
  5
1d4
100
AcDbEntity
  8
W0102_Printing_40X30
 62
1
100
AcDbPolyline
 90
1
 70
1
 10
1694.085558
 20
454.224089
 30
0.0
  0
SPLINE
  5
1d5
100
AcDbEntity
  8
W0102_Printing_40X30
 62
1
100
AcDbSpline
 70
8
 71
3
 72
8
 73
4
 74
0
 40
0
 40
0
 40
0
 40
0
 40
1
 40
1
 40
1
 40
1
 10
1779.124956
 20
454.224089
 30
0.0
 10
1779.124956
 20
446.396089
 30
0.0
 10
1772.778956
 20
440.051089
 30
0.0
 10
1764.951956
 20
440.051089
 30
0.0
  0
SPLINE
  5
1d6
100
AcDbEntity
  8
W0102_Printing_40X30
 62
1
100
AcDbSpline
 70
8
 71
3
 72
8
 73
4
 74
0
 40
0
 40
0
 40
0
 40
0
 40
1
 40
1
 40
1
 40
1
 10
1764.951956
 20
440.051089
 30
0.0
 10
1757.123956
 20
440.051089
 30
0.0
 10
1750.778956
 20
446.396089
 30
0.0
 10
1750.778956
 20
454.224089
 30
0.0
  0
SPLINE
  5
1d7
100
AcDbEntity
  8
W0102_Printing_40X30
 62
1
100
AcDbSpline
 70
8
 71
3
 72
8
 73
4
 74
0
 40
0
 40
0
 40
0
 40
0
 40
1
 40
1
 40
1
 40
1
 10
1750.778956
 20
454.224089
 30
0.0
 10
1750.778956
 20
462.052088
 30
0.0
 10
1757.123956
 20
468.397088
 30
0.0
 10
1764.951956
 20
468.397088
 30
0.0
  0
SPLINE
  5
1d8
100
AcDbEntity
  8
W0102_Printing_40X30
 62
1
100
AcDbSpline
 70
8
 71
3
 72
8
 73
4
 74
0
 40
0
 40
0
 40
0
 40
0
 40
1
 40
1
 40
1
 40
1
 10
1764.951956
 20
468.397088
 30
0.0
 10
1772.778956
 20
468.397088
 30
0.0
 10
1779.124956
 20
462.052088
 30
0.0
 10
1779.124956
 20
454.224089
 30
0.0
  0
LWPOLYLINE
  5
1d9
100
AcDbEntity
  8
W0102_Printing_40X30
 62
1
100
AcDbPolyline
 90
1
 70
1
 10
1736.605257
 20
454.224089
 30
0.0
  0
SPLINE
  5
1da
100
AcDbEntity
  8
W0102_Printing_40X30
 62
1
100
AcDbSpline
 70
8
 71
3
 72
8
 73
4
 74
0
 40
0
 40
0
 40
0
 40
0
 40
1
 40
1
 40
1
 40
1
 10
1821.644654
 20
454.224089
 30
0.0
 10
1821.644654
 20
446.396089
 30
0.0
 10
1815.298655
 20
440.051089
 30
0.0
 10
1807.471655
 20
440.051089
 30
0.0
  0
SPLINE
  5
1db
100
AcDbEntity
  8
W0102_Printing_40X30
 62
1
100
AcDbSpline
 70
8
 71
3
 72
8
 73
4
 74
0
 40
0
 40
0
 40
0
 40
0
 40
1
 40
1
 40
1
 40
1
 10
1807.471655
 20
440.051089
 30
0.0
 10
1799.643655
 20
440.051089
 30
0.0
 10
1793.298655
 20
446.396089
 30
0.0
 10
1793.298655
 20
454.224089
 30
0.0
  0
SPLINE
  5
1dc
100
AcDbEntity
  8
W0102_Printing_40X30
 62
1
100
AcDbSpline
 70
8
 71
3
 72
8
 73
4
 74
0
 40
0
 40
0
 40
0
 40
0
 40
1
 40
1
 40
1
 40
1
 10
1793.298655
 20
454.224089
 30
0.0
 10
1793.298655
 20
462.052088
 30
0.0
 10
1799.643655
 20
468.397088
 30
0.0
 10
1807.471655
 20
468.397088
 30
0.0
  0
SPLINE
  5
1dd
100
AcDbEntity
  8
W0102_Printing_40X30
 62
1
100
AcDbSpline
 70
8
 71
3
 72
8
 73
4
 74
0
 40
0
 40
0
 40
0
 40
0
 40
1
 40
1
 40
1
 40
1
 10
1807.471655
 20
468.397088
 30
0.0
 10
1815.298655
 20
468.397088
 30
0.0
 10
1821.644654
 20
462.052088
 30
0.0
 10
1821.644654
 20
454.224089
 30
0.0
  0
LWPOLYLINE
  5
1de
100
AcDbEntity
  8
W0102_Printing_40X30
 62
1
100
AcDbPolyline
 90
1
 70
1
 10
1779.124956
 20
454.224089
 30
0.0
  0
SPLINE
  5
1df
100
AcDbEntity
  8
W0102_Printing_40X30
 62
1
100
AcDbSpline
 70
8
 71
3
 72
8
 73
4
 74
0
 40
0
 40
0
 40
0
 40
0
 40
1
 40
1
 40
1
 40
1
 10
1864.164253
 20
454.224089
 30
0.0
 10
1864.164253
 20
446.396089
 30
0.0
 10
1857.819254
 20
440.051089
 30
0.0
 10
1849.991254
 20
440.051089
 30
0.0
  0
SPLINE
  5
1e0
100
AcDbEntity
  8
W0102_Printing_40X30
 62
1
100
AcDbSpline
 70
8
 71
3
 72
8
 73
4
 74
0
 40
0
 40
0
 40
0
 40
0
 40
1
 40
1
 40
1
 40
1
 10
1849.991254
 20
440.051089
 30
0.0
 10
1842.163254
 20
440.051089
 30
0.0
 10
1835.818254
 20
446.396089
 30
0.0
 10
1835.818254
 20
454.224089
 30
0.0
  0
SPLINE
  5
1e1
100
AcDbEntity
  8
W0102_Printing_40X30
 62
1
100
AcDbSpline
 70
8
 71
3
 72
8
 73
4
 74
0
 40
0
 40
0
 40
0
 40
0
 40
1
 40
1
 40
1
 40
1
 10
1835.818254
 20
454.224089
 30
0.0
 10
1835.818254
 20
462.052088
 30
0.0
 10
1842.163254
 20
468.397088
 30
0.0
 10
1849.991254
 20
468.397088
 30
0.0
  0
SPLINE
  5
1e2
100
AcDbEntity
  8
W0102_Printing_40X30
 62
1
100
AcDbSpline
 70
8
 71
3
 72
8
 73
4
 74
0
 40
0
 40
0
 40
0
 40
0
 40
1
 40
1
 40
1
 40
1
 10
1849.991254
 20
468.397088
 30
0.0
 10
1857.819254
 20
468.397088
 30
0.0
 10
1864.164253
 20
462.052088
 30
0.0
 10
1864.164253
 20
454.224089
 30
0.0
  0
LWPOLYLINE
  5
1e3
100
AcDbEntity
  8
W0102_Printing_40X30
 62
1
100
AcDbPolyline
 90
1
 70
1
 10
1821.644654
 20
454.224089
 30
0.0
  0
SPLINE
  5
1e4
100
AcDbEntity
  8
W0102_Printing_40X30
 62
1
100
AcDbSpline
 70
8
 71
3
 72
8
 73
4
 74
0
 40
0
 40
0
 40
0
 40
0
 40
1
 40
1
 40
1
 40
1
 10
1906.684052
 20
454.224089
 30
0.0
 10
1906.684052
 20
446.396089
 30
0.0
 10
1900.338052
 20
440.051089
 30
0.0
 10
1892.511053
 20
440.051089
 30
0.0
  0
SPLINE
  5
1e5
100
AcDbEntity
  8
W0102_Printing_40X30
 62
1
100
AcDbSpline
 70
8
 71
3
 72
8
 73
4
 74
0
 40
0
 40
0
 40
0
 40
0
 40
1
 40
1
 40
1
 40
1
 10
1892.511053
 20
440.051089
 30
0.0
 10
1884.683053
 20
440.051089
 30
0.0
 10
1878.338053
 20
446.396089
 30
0.0
 10
1878.338053
 20
454.224089
 30
0.0
  0
SPLINE
  5
1e6
100
AcDbEntity
  8
W0102_Printing_40X30
 62
1
100
AcDbSpline
 70
8
 71
3
 72
8
 73
4
 74
0
 40
0
 40
0
 40
0
 40
0
 40
1
 40
1
 40
1
 40
1
 10
1878.338053
 20
454.224089
 30
0.0
 10
1878.338053
 20
462.052088
 30
0.0
 10
1884.683053
 20
468.397088
 30
0.0
 10
1892.511053
 20
468.397088
 30
0.0
  0
SPLINE
  5
1e7
100
AcDbEntity
  8
W0102_Printing_40X30
 62
1
100
AcDbSpline
 70
8
 71
3
 72
8
 73
4
 74
0
 40
0
 40
0
 40
0
 40
0
 40
1
 40
1
 40
1
 40
1
 10
1892.511053
 20
468.397088
 30
0.0
 10
1900.338052
 20
468.397088
 30
0.0
 10
1906.684052
 20
462.052088
 30
0.0
 10
1906.684052
 20
454.224089
 30
0.0
  0
LWPOLYLINE
  5
1e8
100
AcDbEntity
  8
W0102_Printing_40X30
 62
1
100
AcDbPolyline
 90
1
 70
1
 10
1864.164253
 20
454.224089
 30
0.0
  0
SPLINE
  5
1e9
100
AcDbEntity
  8
W0102_Printing_40X30
 62
1
100
AcDbSpline
 70
8
 71
3
 72
8
 73
4
 74
0
 40
0
 40
0
 40
0
 40
0
 40
1
 40
1
 40
1
 40
1
 10
1949.203651
 20
454.224089
 30
0.0
 10
1949.203651
 20
446.396089
 30
0.0
 10
1942.857651
 20
440.051089
 30
0.0
 10
1935.030652
 20
440.051089
 30
0.0
  0
SPLINE
  5
1ea
100
AcDbEntity
  8
W0102_Printing_40X30
 62
1
100
AcDbSpline
 70
8
 71
3
 72
8
 73
4
 74
0
 40
0
 40
0
 40
0
 40
0
 40
1
 40
1
 40
1
 40
1
 10
1935.030652
 20
440.051089
 30
0.0
 10
1927.202652
 20
440.051089
 30
0.0
 10
1920.857652
 20
446.396089
 30
0.0
 10
1920.857652
 20
454.224089
 30
0.0
  0
SPLINE
  5
1eb
100
AcDbEntity
  8
W0102_Printing_40X30
 62
1
100
AcDbSpline
 70
8
 71
3
 72
8
 73
4
 74
0
 40
0
 40
0
 40
0
 40
0
 40
1
 40
1
 40
1
 40
1
 10
1920.857652
 20
454.224089
 30
0.0
 10
1920.857652
 20
462.052088
 30
0.0
 10
1927.202652
 20
468.397088
 30
0.0
 10
1935.030652
 20
468.397088
 30
0.0
  0
SPLINE
  5
1ec
100
AcDbEntity
  8
W0102_Printing_40X30
 62
1
100
AcDbSpline
 70
8
 71
3
 72
8
 73
4
 74
0
 40
0
 40
0
 40
0
 40
0
 40
1
 40
1
 40
1
 40
1
 10
1935.030652
 20
468.397088
 30
0.0
 10
1942.857651
 20
468.397088
 30
0.0
 10
1949.203651
 20
462.052088
 30
0.0
 10
1949.203651
 20
454.224089
 30
0.0
  0
LWPOLYLINE
  5
1ed
100
AcDbEntity
  8
W0102_Printing_40X30
 62
1
100
AcDbPolyline
 90
1
 70
1
 10
1906.684052
 20
454.224089
 30
0.0
  0
SPLINE
  5
1ee
100
AcDbEntity
  8
W0102_Printing_40X30
 62
1
100
AcDbSpline
 70
8
 71
3
 72
8
 73
4
 74
0
 40
0
 40
0
 40
0
 40
0
 40
1
 40
1
 40
1
 40
1
 10
1991.723350
 20
454.224089
 30
0.0
 10
1991.723350
 20
446.396089
 30
0.0
 10
1985.377350
 20
440.051089
 30
0.0
 10
1977.550351
 20
440.051089
 30
0.0
  0
SPLINE
  5
1ef
100
AcDbEntity
  8
W0102_Printing_40X30
 62
1
100
AcDbSpline
 70
8
 71
3
 72
8
 73
4
 74
0
 40
0
 40
0
 40
0
 40
0
 40
1
 40
1
 40
1
 40
1
 10
1977.550351
 20
440.051089
 30
0.0
 10
1969.722351
 20
440.051089
 30
0.0
 10
1963.377351
 20
446.396089
 30
0.0
 10
1963.377351
 20
454.224089
 30
0.0
  0
SPLINE
  5
1f0
100
AcDbEntity
  8
W0102_Printing_40X30
 62
1
100
AcDbSpline
 70
8
 71
3
 72
8
 73
4
 74
0
 40
0
 40
0
 40
0
 40
0
 40
1
 40
1
 40
1
 40
1
 10
1963.377351
 20
454.224089
 30
0.0
 10
1963.377351
 20
462.052088
 30
0.0
 10
1969.722351
 20
468.397088
 30
0.0
 10
1977.550351
 20
468.397088
 30
0.0
  0
SPLINE
  5
1f1
100
AcDbEntity
  8
W0102_Printing_40X30
 62
1
100
AcDbSpline
 70
8
 71
3
 72
8
 73
4
 74
0
 40
0
 40
0
 40
0
 40
0
 40
1
 40
1
 40
1
 40
1
 10
1977.550351
 20
468.397088
 30
0.0
 10
1985.377350
 20
468.397088
 30
0.0
 10
1991.723350
 20
462.052088
 30
0.0
 10
1991.723350
 20
454.224089
 30
0.0
  0
LWPOLYLINE
  5
1f2
100
AcDbEntity
  8
W0102_Printing_40X30
 62
1
100
AcDbPolyline
 90
1
 70
1
 10
1949.203651
 20
454.224089
 30
0.0
  0
SPLINE
  5
1f3
100
AcDbEntity
  8
W0102_Printing_40X30
 62
1
100
AcDbSpline
 70
8
 71
3
 72
8
 73
4
 74
0
 40
0
 40
0
 40
0
 40
0
 40
1
 40
1
 40
1
 40
1
 10
2034.242949
 20
454.224089
 30
0.0
 10
2034.242949
 20
446.396089
 30
0.0
 10
2027.897949
 20
440.051089
 30
0.0
 10
2020.069949
 20
440.051089
 30
0.0
  0
SPLINE
  5
1f4
100
AcDbEntity
  8
W0102_Printing_40X30
 62
1
100
AcDbSpline
 70
8
 71
3
 72
8
 73
4
 74
0
 40
0
 40
0
 40
0
 40
0
 40
1
 40
1
 40
1
 40
1
 10
2020.069949
 20
440.051089
 30
0.0
 10
2012.241950
 20
440.051089
 30
0.0
 10
2005.896950
 20
446.396089
 30
0.0
 10
2005.896950
 20
454.224089
 30
0.0
  0
SPLINE
  5
1f5
100
AcDbEntity
  8
W0102_Printing_40X30
 62
1
100
AcDbSpline
 70
8
 71
3
 72
8
 73
4
 74
0
 40
0
 40
0
 40
0
 40
0
 40
1
 40
1
 40
1
 40
1
 10
2005.896950
 20
454.224089
 30
0.0
 10
2005.896950
 20
462.052088
 30
0.0
 10
2012.241950
 20
468.397088
 30
0.0
 10
2020.069949
 20
468.397088
 30
0.0
  0
SPLINE
  5
1f6
100
AcDbEntity
  8
W0102_Printing_40X30
 62
1
100
AcDbSpline
 70
8
 71
3
 72
8
 73
4
 74
0
 40
0
 40
0
 40
0
 40
0
 40
1
 40
1
 40
1
 40
1
 10
2020.069949
 20
468.397088
 30
0.0
 10
2027.897949
 20
468.397088
 30
0.0
 10
2034.242949
 20
462.052088
 30
0.0
 10
2034.242949
 20
454.224089
 30
0.0
  0
LWPOLYLINE
  5
1f7
100
AcDbEntity
  8
W0102_Printing_40X30
 62
1
100
AcDbPolyline
 90
1
 70
1
 10
1991.723350
 20
454.224089
 30
0.0
  0
SPLINE
  5
1f8
100
AcDbEntity
  8
W0102_Printing_40X30
 62
1
100
AcDbSpline
 70
8
 71
3
 72
8
 73
4
 74
0
 40
0
 40
0
 40
0
 40
0
 40
1
 40
1
 40
1
 40
1
 10
2076.762648
 20
454.224089
 30
0.0
 10
2076.762648
 20
446.396089
 30
0.0
 10
2070.417648
 20
440.051089
 30
0.0
 10
2062.589648
 20
440.051089
 30
0.0
  0
SPLINE
  5
1f9
100
AcDbEntity
  8
W0102_Printing_40X30
 62
1
100
AcDbSpline
 70
8
 71
3
 72
8
 73
4
 74
0
 40
0
 40
0
 40
0
 40
0
 40
1
 40
1
 40
1
 40
1
 10
2062.589648
 20
440.051089
 30
0.0
 10
2054.761649
 20
440.051089
 30
0.0
 10
2048.416649
 20
446.396089
 30
0.0
 10
2048.416649
 20
454.224089
 30
0.0
  0
SPLINE
  5
1fa
100
AcDbEntity
  8
W0102_Printing_40X30
 62
1
100
AcDbSpline
 70
8
 71
3
 72
8
 73
4
 74
0
 40
0
 40
0
 40
0
 40
0
 40
1
 40
1
 40
1
 40
1
 10
2048.416649
 20
454.224089
 30
0.0
 10
2048.416649
 20
462.052088
 30
0.0
 10
2054.761649
 20
468.397088
 30
0.0
 10
2062.589648
 20
468.397088
 30
0.0
  0
SPLINE
  5
1fb
100
AcDbEntity
  8
W0102_Printing_40X30
 62
1
100
AcDbSpline
 70
8
 71
3
 72
8
 73
4
 74
0
 40
0
 40
0
 40
0
 40
0
 40
1
 40
1
 40
1
 40
1
 10
2062.589648
 20
468.397088
 30
0.0
 10
2070.417648
 20
468.397088
 30
0.0
 10
2076.762648
 20
462.052088
 30
0.0
 10
2076.762648
 20
454.224089
 30
0.0
  0
LWPOLYLINE
  5
1fc
100
AcDbEntity
  8
W0102_Printing_40X30
 62
1
100
AcDbPolyline
 90
1
 70
1
 10
2034.242949
 20
454.224089
 30
0.0
  0
SPLINE
  5
1fd
100
AcDbEntity
  8
W0102_Printing_40X30
 62
1
100
AcDbSpline
 70
8
 71
3
 72
8
 73
4
 74
0
 40
0
 40
0
 40
0
 40
0
 40
1
 40
1
 40
1
 40
1
 10
2119.282447
 20
454.224089
 30
0.0
 10
2119.282447
 20
446.396089
 30
0.0
 10
2112.937447
 20
440.051089
 30
0.0
 10
2105.109447
 20
440.051089
 30
0.0
  0
SPLINE
  5
1fe
100
AcDbEntity
  8
W0102_Printing_40X30
 62
1
100
AcDbSpline
 70
8
 71
3
 72
8
 73
4
 74
0
 40
0
 40
0
 40
0
 40
0
 40
1
 40
1
 40
1
 40
1
 10
2105.109447
 20
440.051089
 30
0.0
 10
2097.281448
 20
440.051089
 30
0.0
 10
2090.936448
 20
446.396089
 30
0.0
 10
2090.936448
 20
454.224089
 30
0.0
  0
SPLINE
  5
1ff
100
AcDbEntity
  8
W0102_Printing_40X30
 62
1
100
AcDbSpline
 70
8
 71
3
 72
8
 73
4
 74
0
 40
0
 40
0
 40
0
 40
0
 40
1
 40
1
 40
1
 40
1
 10
2090.936448
 20
454.224089
 30
0.0
 10
2090.936448
 20
462.052088
 30
0.0
 10
2097.281448
 20
468.397088
 30
0.0
 10
2105.109447
 20
468.397088
 30
0.0
  0
SPLINE
  5
200
100
AcDbEntity
  8
W0102_Printing_40X30
 62
1
100
AcDbSpline
 70
8
 71
3
 72
8
 73
4
 74
0
 40
0
 40
0
 40
0
 40
0
 40
1
 40
1
 40
1
 40
1
 10
2105.109447
 20
468.397088
 30
0.0
 10
2112.937447
 20
468.397088
 30
0.0
 10
2119.282447
 20
462.052088
 30
0.0
 10
2119.282447
 20
454.224089
 30
0.0
  0
LWPOLYLINE
  5
201
100
AcDbEntity
  8
W0102_Printing_40X30
 62
1
100
AcDbPolyline
 90
1
 70
1
 10
2076.762648
 20
454.224089
 30
0.0
  0
SPLINE
  5
202
100
AcDbEntity
  8
W0102_Printing_40X30
 62
1
100
AcDbSpline
 70
8
 71
3
 72
8
 73
4
 74
0
 40
0
 40
0
 40
0
 40
0
 40
1
 40
1
 40
1
 40
1
 10
2161.802146
 20
454.224089
 30
0.0
 10
2161.802146
 20
446.396089
 30
0.0
 10
2155.456146
 20
440.051089
 30
0.0
 10
2147.629146
 20
440.051089
 30
0.0
  0
SPLINE
  5
203
100
AcDbEntity
  8
W0102_Printing_40X30
 62
1
100
AcDbSpline
 70
8
 71
3
 72
8
 73
4
 74
0
 40
0
 40
0
 40
0
 40
0
 40
1
 40
1
 40
1
 40
1
 10
2147.629146
 20
440.051089
 30
0.0
 10
2139.801147
 20
440.051089
 30
0.0
 10
2133.456147
 20
446.396089
 30
0.0
 10
2133.456147
 20
454.224089
 30
0.0
  0
SPLINE
  5
204
100
AcDbEntity
  8
W0102_Printing_40X30
 62
1
100
AcDbSpline
 70
8
 71
3
 72
8
 73
4
 74
0
 40
0
 40
0
 40
0
 40
0
 40
1
 40
1
 40
1
 40
1
 10
2133.456147
 20
454.224089
 30
0.0
 10
2133.456147
 20
462.052088
 30
0.0
 10
2139.801147
 20
468.397088
 30
0.0
 10
2147.629146
 20
468.397088
 30
0.0
  0
SPLINE
  5
205
100
AcDbEntity
  8
W0102_Printing_40X30
 62
1
100
AcDbSpline
 70
8
 71
3
 72
8
 73
4
 74
0
 40
0
 40
0
 40
0
 40
0
 40
1
 40
1
 40
1
 40
1
 10
2147.629146
 20
468.397088
 30
0.0
 10
2155.456146
 20
468.397088
 30
0.0
 10
2161.802146
 20
462.052088
 30
0.0
 10
2161.802146
 20
454.224089
 30
0.0
  0
LWPOLYLINE
  5
206
100
AcDbEntity
  8
W0102_Printing_40X30
 62
1
100
AcDbPolyline
 90
1
 70
1
 10
2119.282447
 20
454.224089
 30
0.0
  0
SPLINE
  5
207
100
AcDbEntity
  8
W0102_Printing_40X30
 62
1
100
AcDbSpline
 70
8
 71
3
 72
8
 73
4
 74
0
 40
0
 40
0
 40
0
 40
0
 40
1
 40
1
 40
1
 40
1
 10
2204.321745
 20
454.224089
 30
0.0
 10
2204.321745
 20
446.396089
 30
0.0
 10
2197.976745
 20
440.051089
 30
0.0
 10
2190.148745
 20
440.051089
 30
0.0
  0
SPLINE
  5
208
100
AcDbEntity
  8
W0102_Printing_40X30
 62
1
100
AcDbSpline
 70
8
 71
3
 72
8
 73
4
 74
0
 40
0
 40
0
 40
0
 40
0
 40
1
 40
1
 40
1
 40
1
 10
2190.148745
 20
440.051089
 30
0.0
 10
2182.320745
 20
440.051089
 30
0.0
 10
2175.975746
 20
446.396089
 30
0.0
 10
2175.975746
 20
454.224089
 30
0.0
  0
SPLINE
  5
209
100
AcDbEntity
  8
W0102_Printing_40X30
 62
1
100
AcDbSpline
 70
8
 71
3
 72
8
 73
4
 74
0
 40
0
 40
0
 40
0
 40
0
 40
1
 40
1
 40
1
 40
1
 10
2175.975746
 20
454.224089
 30
0.0
 10
2175.975746
 20
462.052088
 30
0.0
 10
2182.320745
 20
468.397088
 30
0.0
 10
2190.148745
 20
468.397088
 30
0.0
  0
SPLINE
  5
20a
100
AcDbEntity
  8
W0102_Printing_40X30
 62
1
100
AcDbSpline
 70
8
 71
3
 72
8
 73
4
 74
0
 40
0
 40
0
 40
0
 40
0
 40
1
 40
1
 40
1
 40
1
 10
2190.148745
 20
468.397088
 30
0.0
 10
2197.976745
 20
468.397088
 30
0.0
 10
2204.321745
 20
462.052088
 30
0.0
 10
2204.321745
 20
454.224089
 30
0.0
  0
LWPOLYLINE
  5
20b
100
AcDbEntity
  8
W0102_Printing_40X30
 62
1
100
AcDbPolyline
 90
1
 70
1
 10
2161.802146
 20
454.224089
 30
0.0
  0
SPLINE
  5
20c
100
AcDbEntity
  8
W0102_Printing_40X30
 62
1
100
AcDbSpline
 70
8
 71
3
 72
8
 73
4
 74
0
 40
0
 40
0
 40
0
 40
0
 40
1
 40
1
 40
1
 40
1
 10
1176.762671
 20
1191.231870
 30
0.0
 10
1176.762671
 20
1183.403870
 30
0.0
 10
1170.416671
 20
1177.058871
 30
0.0
 10
1162.589671
 20
1177.058871
 30
0.0
  0
SPLINE
  5
20d
100
AcDbEntity
  8
W0102_Printing_40X30
 62
1
100
AcDbSpline
 70
8
 71
3
 72
8
 73
4
 74
0
 40
0
 40
0
 40
0
 40
0
 40
1
 40
1
 40
1
 40
1
 10
1162.589671
 20
1177.058871
 30
0.0
 10
1154.761671
 20
1177.058871
 30
0.0
 10
1148.416671
 20
1183.403870
 30
0.0
 10
1148.416671
 20
1191.231870
 30
0.0
  0
SPLINE
  5
20e
100
AcDbEntity
  8
W0102_Printing_40X30
 62
1
100
AcDbSpline
 70
8
 71
3
 72
8
 73
4
 74
0
 40
0
 40
0
 40
0
 40
0
 40
1
 40
1
 40
1
 40
1
 10
1148.416671
 20
1191.231870
 30
0.0
 10
1148.416671
 20
1199.059870
 30
0.0
 10
1154.761671
 20
1205.404870
 30
0.0
 10
1162.589671
 20
1205.404870
 30
0.0
  0
SPLINE
  5
20f
100
AcDbEntity
  8
W0102_Printing_40X30
 62
1
100
AcDbSpline
 70
8
 71
3
 72
8
 73
4
 74
0
 40
0
 40
0
 40
0
 40
0
 40
1
 40
1
 40
1
 40
1
 10
1162.589671
 20
1205.404870
 30
0.0
 10
1170.416671
 20
1205.404870
 30
0.0
 10
1176.762671
 20
1199.059870
 30
0.0
 10
1176.762671
 20
1191.231870
 30
0.0
  0
LWPOLYLINE
  5
210
100
AcDbEntity
  8
W0102_Printing_40X30
 62
1
100
AcDbPolyline
 90
1
 70
1
 10
2204.321745
 20
454.224089
 30
0.0
  0
SPLINE
  5
211
100
AcDbEntity
  8
W0102_Printing_40X30
 62
1
100
AcDbSpline
 70
8
 71
3
 72
8
 73
4
 74
0
 40
0
 40
0
 40
0
 40
0
 40
1
 40
1
 40
1
 40
1
 10
1176.762671
 20
1148.712271
 30
0.0
 10
1176.762671
 20
1140.884271
 30
0.0
 10
1170.416671
 20
1134.539272
 30
0.0
 10
1162.589671
 20
1134.539272
 30
0.0
  0
SPLINE
  5
212
100
AcDbEntity
  8
W0102_Printing_40X30
 62
1
100
AcDbSpline
 70
8
 71
3
 72
8
 73
4
 74
0
 40
0
 40
0
 40
0
 40
0
 40
1
 40
1
 40
1
 40
1
 10
1162.589671
 20
1134.539272
 30
0.0
 10
1154.761671
 20
1134.539272
 30
0.0
 10
1148.416671
 20
1140.884271
 30
0.0
 10
1148.416671
 20
1148.712271
 30
0.0
  0
SPLINE
  5
213
100
AcDbEntity
  8
W0102_Printing_40X30
 62
1
100
AcDbSpline
 70
8
 71
3
 72
8
 73
4
 74
0
 40
0
 40
0
 40
0
 40
0
 40
1
 40
1
 40
1
 40
1
 10
1148.416671
 20
1148.712271
 30
0.0
 10
1148.416671
 20
1156.540271
 30
0.0
 10
1154.761671
 20
1162.885271
 30
0.0
 10
1162.589671
 20
1162.885271
 30
0.0
  0
SPLINE
  5
214
100
AcDbEntity
  8
W0102_Printing_40X30
 62
1
100
AcDbSpline
 70
8
 71
3
 72
8
 73
4
 74
0
 40
0
 40
0
 40
0
 40
0
 40
1
 40
1
 40
1
 40
1
 10
1162.589671
 20
1162.885271
 30
0.0
 10
1170.416671
 20
1162.885271
 30
0.0
 10
1176.762671
 20
1156.540271
 30
0.0
 10
1176.762671
 20
1148.712271
 30
0.0
  0
LWPOLYLINE
  5
215
100
AcDbEntity
  8
W0102_Printing_40X30
 62
1
100
AcDbPolyline
 90
1
 70
1
 10
1176.762671
 20
1191.231870
 30
0.0
  0
SPLINE
  5
216
100
AcDbEntity
  8
W0102_Printing_40X30
 62
1
100
AcDbSpline
 70
8
 71
3
 72
8
 73
4
 74
0
 40
0
 40
0
 40
0
 40
0
 40
1
 40
1
 40
1
 40
1
 10
1176.762671
 20
1106.192472
 30
0.0
 10
1176.762671
 20
1098.364473
 30
0.0
 10
1170.416671
 20
1092.019473
 30
0.0
 10
1162.589671
 20
1092.019473
 30
0.0
  0
SPLINE
  5
217
100
AcDbEntity
  8
W0102_Printing_40X30
 62
1
100
AcDbSpline
 70
8
 71
3
 72
8
 73
4
 74
0
 40
0
 40
0
 40
0
 40
0
 40
1
 40
1
 40
1
 40
1
 10
1162.589671
 20
1092.019473
 30
0.0
 10
1154.761671
 20
1092.019473
 30
0.0
 10
1148.416671
 20
1098.364473
 30
0.0
 10
1148.416671
 20
1106.192472
 30
0.0
  0
SPLINE
  5
218
100
AcDbEntity
  8
W0102_Printing_40X30
 62
1
100
AcDbSpline
 70
8
 71
3
 72
8
 73
4
 74
0
 40
0
 40
0
 40
0
 40
0
 40
1
 40
1
 40
1
 40
1
 10
1148.416671
 20
1106.192472
 30
0.0
 10
1148.416671
 20
1114.020472
 30
0.0
 10
1154.761671
 20
1120.365472
 30
0.0
 10
1162.589671
 20
1120.365472
 30
0.0
  0
SPLINE
  5
219
100
AcDbEntity
  8
W0102_Printing_40X30
 62
1
100
AcDbSpline
 70
8
 71
3
 72
8
 73
4
 74
0
 40
0
 40
0
 40
0
 40
0
 40
1
 40
1
 40
1
 40
1
 10
1162.589671
 20
1120.365472
 30
0.0
 10
1170.416671
 20
1120.365472
 30
0.0
 10
1176.762671
 20
1114.020472
 30
0.0
 10
1176.762671
 20
1106.192472
 30
0.0
  0
LWPOLYLINE
  5
21a
100
AcDbEntity
  8
W0102_Printing_40X30
 62
1
100
AcDbPolyline
 90
1
 70
1
 10
1176.762671
 20
1148.712271
 30
0.0
  0
SPLINE
  5
21b
100
AcDbEntity
  8
W0102_Printing_40X30
 62
1
100
AcDbSpline
 70
8
 71
3
 72
8
 73
4
 74
0
 40
0
 40
0
 40
0
 40
0
 40
1
 40
1
 40
1
 40
1
 10
1176.762671
 20
1063.672873
 30
0.0
 10
1176.762671
 20
1055.844874
 30
0.0
 10
1170.416671
 20
1049.499874
 30
0.0
 10
1162.589671
 20
1049.499874
 30
0.0
  0
SPLINE
  5
21c
100
AcDbEntity
  8
W0102_Printing_40X30
 62
1
100
AcDbSpline
 70
8
 71
3
 72
8
 73
4
 74
0
 40
0
 40
0
 40
0
 40
0
 40
1
 40
1
 40
1
 40
1
 10
1162.589671
 20
1049.499874
 30
0.0
 10
1154.761671
 20
1049.499874
 30
0.0
 10
1148.416671
 20
1055.844874
 30
0.0
 10
1148.416671
 20
1063.672873
 30
0.0
  0
SPLINE
  5
21d
100
AcDbEntity
  8
W0102_Printing_40X30
 62
1
100
AcDbSpline
 70
8
 71
3
 72
8
 73
4
 74
0
 40
0
 40
0
 40
0
 40
0
 40
1
 40
1
 40
1
 40
1
 10
1148.416671
 20
1063.672873
 30
0.0
 10
1148.416671
 20
1071.500873
 30
0.0
 10
1154.761671
 20
1077.845873
 30
0.0
 10
1162.589671
 20
1077.845873
 30
0.0
  0
SPLINE
  5
21e
100
AcDbEntity
  8
W0102_Printing_40X30
 62
1
100
AcDbSpline
 70
8
 71
3
 72
8
 73
4
 74
0
 40
0
 40
0
 40
0
 40
0
 40
1
 40
1
 40
1
 40
1
 10
1162.589671
 20
1077.845873
 30
0.0
 10
1170.416671
 20
1077.845873
 30
0.0
 10
1176.762671
 20
1071.500873
 30
0.0
 10
1176.762671
 20
1063.672873
 30
0.0
  0
LWPOLYLINE
  5
21f
100
AcDbEntity
  8
W0102_Printing_40X30
 62
1
100
AcDbPolyline
 90
1
 70
1
 10
1176.762671
 20
1106.192472
 30
0.0
  0
SPLINE
  5
220
100
AcDbEntity
  8
W0102_Printing_40X30
 62
1
100
AcDbSpline
 70
8
 71
3
 72
8
 73
4
 74
0
 40
0
 40
0
 40
0
 40
0
 40
1
 40
1
 40
1
 40
1
 10
1176.762671
 20
1021.153174
 30
0.0
 10
1176.762671
 20
1013.325175
 30
0.0
 10
1170.416671
 20
1006.980175
 30
0.0
 10
1162.589671
 20
1006.980175
 30
0.0
  0
SPLINE
  5
221
100
AcDbEntity
  8
W0102_Printing_40X30
 62
1
100
AcDbSpline
 70
8
 71
3
 72
8
 73
4
 74
0
 40
0
 40
0
 40
0
 40
0
 40
1
 40
1
 40
1
 40
1
 10
1162.589671
 20
1006.980175
 30
0.0
 10
1154.761671
 20
1006.980175
 30
0.0
 10
1148.416671
 20
1013.325175
 30
0.0
 10
1148.416671
 20
1021.153174
 30
0.0
  0
SPLINE
  5
222
100
AcDbEntity
  8
W0102_Printing_40X30
 62
1
100
AcDbSpline
 70
8
 71
3
 72
8
 73
4
 74
0
 40
0
 40
0
 40
0
 40
0
 40
1
 40
1
 40
1
 40
1
 10
1148.416671
 20
1021.153174
 30
0.0
 10
1148.416671
 20
1028.981174
 30
0.0
 10
1154.761671
 20
1035.326174
 30
0.0
 10
1162.589671
 20
1035.326174
 30
0.0
  0
SPLINE
  5
223
100
AcDbEntity
  8
W0102_Printing_40X30
 62
1
100
AcDbSpline
 70
8
 71
3
 72
8
 73
4
 74
0
 40
0
 40
0
 40
0
 40
0
 40
1
 40
1
 40
1
 40
1
 10
1162.589671
 20
1035.326174
 30
0.0
 10
1170.416671
 20
1035.326174
 30
0.0
 10
1176.762671
 20
1028.981174
 30
0.0
 10
1176.762671
 20
1021.153174
 30
0.0
  0
LWPOLYLINE
  5
224
100
AcDbEntity
  8
W0102_Printing_40X30
 62
1
100
AcDbPolyline
 90
1
 70
1
 10
1176.762671
 20
1063.672873
 30
0.0
  0
SPLINE
  5
225
100
AcDbEntity
  8
W0102_Printing_40X30
 62
1
100
AcDbSpline
 70
8
 71
3
 72
8
 73
4
 74
0
 40
0
 40
0
 40
0
 40
0
 40
1
 40
1
 40
1
 40
1
 10
1176.762671
 20
978.633476
 30
0.0
 10
1176.762671
 20
970.805476
 30
0.0
 10
1170.416671
 20
964.460476
 30
0.0
 10
1162.589671
 20
964.460476
 30
0.0
  0
SPLINE
  5
226
100
AcDbEntity
  8
W0102_Printing_40X30
 62
1
100
AcDbSpline
 70
8
 71
3
 72
8
 73
4
 74
0
 40
0
 40
0
 40
0
 40
0
 40
1
 40
1
 40
1
 40
1
 10
1162.589671
 20
964.460476
 30
0.0
 10
1154.761671
 20
964.460476
 30
0.0
 10
1148.416671
 20
970.805476
 30
0.0
 10
1148.416671
 20
978.633476
 30
0.0
  0
SPLINE
  5
227
100
AcDbEntity
  8
W0102_Printing_40X30
 62
1
100
AcDbSpline
 70
8
 71
3
 72
8
 73
4
 74
0
 40
0
 40
0
 40
0
 40
0
 40
1
 40
1
 40
1
 40
1
 10
1148.416671
 20
978.633476
 30
0.0
 10
1148.416671
 20
986.461475
 30
0.0
 10
1154.761671
 20
992.806475
 30
0.0
 10
1162.589671
 20
992.806475
 30
0.0
  0
SPLINE
  5
228
100
AcDbEntity
  8
W0102_Printing_40X30
 62
1
100
AcDbSpline
 70
8
 71
3
 72
8
 73
4
 74
0
 40
0
 40
0
 40
0
 40
0
 40
1
 40
1
 40
1
 40
1
 10
1162.589671
 20
992.806475
 30
0.0
 10
1170.416671
 20
992.806475
 30
0.0
 10
1176.762671
 20
986.461475
 30
0.0
 10
1176.762671
 20
978.633476
 30
0.0
  0
LWPOLYLINE
  5
229
100
AcDbEntity
  8
W0102_Printing_40X30
 62
1
100
AcDbPolyline
 90
1
 70
1
 10
1176.762671
 20
1021.153174
 30
0.0
  0
SPLINE
  5
22a
100
AcDbEntity
  8
W0102_Printing_40X30
 62
1
100
AcDbSpline
 70
8
 71
3
 72
8
 73
4
 74
0
 40
0
 40
0
 40
0
 40
0
 40
1
 40
1
 40
1
 40
1
 10
1176.762671
 20
936.113777
 30
0.0
 10
1176.762671
 20
928.285777
 30
0.0
 10
1170.416671
 20
921.940777
 30
0.0
 10
1162.589671
 20
921.940777
 30
0.0
  0
SPLINE
  5
22b
100
AcDbEntity
  8
W0102_Printing_40X30
 62
1
100
AcDbSpline
 70
8
 71
3
 72
8
 73
4
 74
0
 40
0
 40
0
 40
0
 40
0
 40
1
 40
1
 40
1
 40
1
 10
1162.589671
 20
921.940777
 30
0.0
 10
1154.761671
 20
921.940777
 30
0.0
 10
1148.416671
 20
928.285777
 30
0.0
 10
1148.416671
 20
936.113777
 30
0.0
  0
SPLINE
  5
22c
100
AcDbEntity
  8
W0102_Printing_40X30
 62
1
100
AcDbSpline
 70
8
 71
3
 72
8
 73
4
 74
0
 40
0
 40
0
 40
0
 40
0
 40
1
 40
1
 40
1
 40
1
 10
1148.416671
 20
936.113777
 30
0.0
 10
1148.416671
 20
943.941776
 30
0.0
 10
1154.761671
 20
950.286776
 30
0.0
 10
1162.589671
 20
950.286776
 30
0.0
  0
SPLINE
  5
22d
100
AcDbEntity
  8
W0102_Printing_40X30
 62
1
100
AcDbSpline
 70
8
 71
3
 72
8
 73
4
 74
0
 40
0
 40
0
 40
0
 40
0
 40
1
 40
1
 40
1
 40
1
 10
1162.589671
 20
950.286776
 30
0.0
 10
1170.416671
 20
950.286776
 30
0.0
 10
1176.762671
 20
943.941776
 30
0.0
 10
1176.762671
 20
936.113777
 30
0.0
  0
LWPOLYLINE
  5
22e
100
AcDbEntity
  8
W0102_Printing_40X30
 62
1
100
AcDbPolyline
 90
1
 70
1
 10
1176.762671
 20
978.633476
 30
0.0
  0
SPLINE
  5
22f
100
AcDbEntity
  8
W0102_Printing_40X30
 62
1
100
AcDbSpline
 70
8
 71
3
 72
8
 73
4
 74
0
 40
0
 40
0
 40
0
 40
0
 40
1
 40
1
 40
1
 40
1
 10
1176.762671
 20
893.594078
 30
0.0
 10
1176.762671
 20
885.766078
 30
0.0
 10
1170.416671
 20
879.421078
 30
0.0
 10
1162.589671
 20
879.421078
 30
0.0
  0
SPLINE
  5
230
100
AcDbEntity
  8
W0102_Printing_40X30
 62
1
100
AcDbSpline
 70
8
 71
3
 72
8
 73
4
 74
0
 40
0
 40
0
 40
0
 40
0
 40
1
 40
1
 40
1
 40
1
 10
1162.589671
 20
879.421078
 30
0.0
 10
1154.761671
 20
879.421078
 30
0.0
 10
1148.416671
 20
885.766078
 30
0.0
 10
1148.416671
 20
893.594078
 30
0.0
  0
SPLINE
  5
231
100
AcDbEntity
  8
W0102_Printing_40X30
 62
1
100
AcDbSpline
 70
8
 71
3
 72
8
 73
4
 74
0
 40
0
 40
0
 40
0
 40
0
 40
1
 40
1
 40
1
 40
1
 10
1148.416671
 20
893.594078
 30
0.0
 10
1148.416671
 20
901.422077
 30
0.0
 10
1154.761671
 20
907.767077
 30
0.0
 10
1162.589671
 20
907.767077
 30
0.0
  0
SPLINE
  5
232
100
AcDbEntity
  8
W0102_Printing_40X30
 62
1
100
AcDbSpline
 70
8
 71
3
 72
8
 73
4
 74
0
 40
0
 40
0
 40
0
 40
0
 40
1
 40
1
 40
1
 40
1
 10
1162.589671
 20
907.767077
 30
0.0
 10
1170.416671
 20
907.767077
 30
0.0
 10
1176.762671
 20
901.422077
 30
0.0
 10
1176.762671
 20
893.594078
 30
0.0
  0
LWPOLYLINE
  5
233
100
AcDbEntity
  8
W0102_Printing_40X30
 62
1
100
AcDbPolyline
 90
1
 70
1
 10
1176.762671
 20
936.113777
 30
0.0
  0
SPLINE
  5
234
100
AcDbEntity
  8
W0102_Printing_40X30
 62
1
100
AcDbSpline
 70
8
 71
3
 72
8
 73
4
 74
0
 40
0
 40
0
 40
0
 40
0
 40
1
 40
1
 40
1
 40
1
 10
1176.762671
 20
851.074479
 30
0.0
 10
1176.762671
 20
843.246479
 30
0.0
 10
1170.416671
 20
836.901479
 30
0.0
 10
1162.589671
 20
836.901479
 30
0.0
  0
SPLINE
  5
235
100
AcDbEntity
  8
W0102_Printing_40X30
 62
1
100
AcDbSpline
 70
8
 71
3
 72
8
 73
4
 74
0
 40
0
 40
0
 40
0
 40
0
 40
1
 40
1
 40
1
 40
1
 10
1162.589671
 20
836.901479
 30
0.0
 10
1154.761671
 20
836.901479
 30
0.0
 10
1148.416671
 20
843.246479
 30
0.0
 10
1148.416671
 20
851.074479
 30
0.0
  0
SPLINE
  5
236
100
AcDbEntity
  8
W0102_Printing_40X30
 62
1
100
AcDbSpline
 70
8
 71
3
 72
8
 73
4
 74
0
 40
0
 40
0
 40
0
 40
0
 40
1
 40
1
 40
1
 40
1
 10
1148.416671
 20
851.074479
 30
0.0
 10
1148.416671
 20
858.902479
 30
0.0
 10
1154.761671
 20
865.247478
 30
0.0
 10
1162.589671
 20
865.247478
 30
0.0
  0
SPLINE
  5
237
100
AcDbEntity
  8
W0102_Printing_40X30
 62
1
100
AcDbSpline
 70
8
 71
3
 72
8
 73
4
 74
0
 40
0
 40
0
 40
0
 40
0
 40
1
 40
1
 40
1
 40
1
 10
1162.589671
 20
865.247478
 30
0.0
 10
1170.416671
 20
865.247478
 30
0.0
 10
1176.762671
 20
858.902479
 30
0.0
 10
1176.762671
 20
851.074479
 30
0.0
  0
LWPOLYLINE
  5
238
100
AcDbEntity
  8
W0102_Printing_40X30
 62
1
100
AcDbPolyline
 90
1
 70
1
 10
1176.762671
 20
893.594078
 30
0.0
  0
SPLINE
  5
239
100
AcDbEntity
  8
W0102_Printing_40X30
 62
1
100
AcDbSpline
 70
8
 71
3
 72
8
 73
4
 74
0
 40
0
 40
0
 40
0
 40
0
 40
1
 40
1
 40
1
 40
1
 10
1176.762671
 20
808.554680
 30
0.0
 10
1176.762671
 20
800.726680
 30
0.0
 10
1170.416671
 20
794.381680
 30
0.0
 10
1162.589671
 20
794.381680
 30
0.0
  0
SPLINE
  5
23a
100
AcDbEntity
  8
W0102_Printing_40X30
 62
1
100
AcDbSpline
 70
8
 71
3
 72
8
 73
4
 74
0
 40
0
 40
0
 40
0
 40
0
 40
1
 40
1
 40
1
 40
1
 10
1162.589671
 20
794.381680
 30
0.0
 10
1154.761671
 20
794.381680
 30
0.0
 10
1148.416671
 20
800.726680
 30
0.0
 10
1148.416671
 20
808.554680
 30
0.0
  0
SPLINE
  5
23b
100
AcDbEntity
  8
W0102_Printing_40X30
 62
1
100
AcDbSpline
 70
8
 71
3
 72
8
 73
4
 74
0
 40
0
 40
0
 40
0
 40
0
 40
1
 40
1
 40
1
 40
1
 10
1148.416671
 20
808.554680
 30
0.0
 10
1148.416671
 20
816.382680
 30
0.0
 10
1154.761671
 20
822.727679
 30
0.0
 10
1162.589671
 20
822.727679
 30
0.0
  0
SPLINE
  5
23c
100
AcDbEntity
  8
W0102_Printing_40X30
 62
1
100
AcDbSpline
 70
8
 71
3
 72
8
 73
4
 74
0
 40
0
 40
0
 40
0
 40
0
 40
1
 40
1
 40
1
 40
1
 10
1162.589671
 20
822.727679
 30
0.0
 10
1170.416671
 20
822.727679
 30
0.0
 10
1176.762671
 20
816.382680
 30
0.0
 10
1176.762671
 20
808.554680
 30
0.0
  0
LWPOLYLINE
  5
23d
100
AcDbEntity
  8
W0102_Printing_40X30
 62
1
100
AcDbPolyline
 90
1
 70
1
 10
1176.762671
 20
851.074479
 30
0.0
  0
SPLINE
  5
23e
100
AcDbEntity
  8
W0102_Printing_40X30
 62
1
100
AcDbSpline
 70
8
 71
3
 72
8
 73
4
 74
0
 40
0
 40
0
 40
0
 40
0
 40
1
 40
1
 40
1
 40
1
 10
1176.762671
 20
766.035081
 30
0.0
 10
1176.762671
 20
758.207081
 30
0.0
 10
1170.416671
 20
751.862081
 30
0.0
 10
1162.589671
 20
751.862081
 30
0.0
  0
SPLINE
  5
23f
100
AcDbEntity
  8
W0102_Printing_40X30
 62
1
100
AcDbSpline
 70
8
 71
3
 72
8
 73
4
 74
0
 40
0
 40
0
 40
0
 40
0
 40
1
 40
1
 40
1
 40
1
 10
1162.589671
 20
751.862081
 30
0.0
 10
1154.761671
 20
751.862081
 30
0.0
 10
1148.416671
 20
758.207081
 30
0.0
 10
1148.416671
 20
766.035081
 30
0.0
  0
SPLINE
  5
240
100
AcDbEntity
  8
W0102_Printing_40X30
 62
1
100
AcDbSpline
 70
8
 71
3
 72
8
 73
4
 74
0
 40
0
 40
0
 40
0
 40
0
 40
1
 40
1
 40
1
 40
1
 10
1148.416671
 20
766.035081
 30
0.0
 10
1148.416671
 20
773.863081
 30
0.0
 10
1154.761671
 20
780.208080
 30
0.0
 10
1162.589671
 20
780.208080
 30
0.0
  0
SPLINE
  5
241
100
AcDbEntity
  8
W0102_Printing_40X30
 62
1
100
AcDbSpline
 70
8
 71
3
 72
8
 73
4
 74
0
 40
0
 40
0
 40
0
 40
0
 40
1
 40
1
 40
1
 40
1
 10
1162.589671
 20
780.208080
 30
0.0
 10
1170.416671
 20
780.208080
 30
0.0
 10
1176.762671
 20
773.863081
 30
0.0
 10
1176.762671
 20
766.035081
 30
0.0
  0
LWPOLYLINE
  5
242
100
AcDbEntity
  8
W0102_Printing_40X30
 62
1
100
AcDbPolyline
 90
1
 70
1
 10
1176.762671
 20
808.554680
 30
0.0
  0
SPLINE
  5
243
100
AcDbEntity
  8
W0102_Printing_40X30
 62
1
100
AcDbSpline
 70
8
 71
3
 72
8
 73
4
 74
0
 40
0
 40
0
 40
0
 40
0
 40
1
 40
1
 40
1
 40
1
 10
1176.762671
 20
723.515382
 30
0.0
 10
1176.762671
 20
715.687382
 30
0.0
 10
1170.416671
 20
709.342382
 30
0.0
 10
1162.589671
 20
709.342382
 30
0.0
  0
SPLINE
  5
244
100
AcDbEntity
  8
W0102_Printing_40X30
 62
1
100
AcDbSpline
 70
8
 71
3
 72
8
 73
4
 74
0
 40
0
 40
0
 40
0
 40
0
 40
1
 40
1
 40
1
 40
1
 10
1162.589671
 20
709.342382
 30
0.0
 10
1154.761671
 20
709.342382
 30
0.0
 10
1148.416671
 20
715.687382
 30
0.0
 10
1148.416671
 20
723.515382
 30
0.0
  0
SPLINE
  5
245
100
AcDbEntity
  8
W0102_Printing_40X30
 62
1
100
AcDbSpline
 70
8
 71
3
 72
8
 73
4
 74
0
 40
0
 40
0
 40
0
 40
0
 40
1
 40
1
 40
1
 40
1
 10
1148.416671
 20
723.515382
 30
0.0
 10
1148.416671
 20
731.343382
 30
0.0
 10
1154.761671
 20
737.688382
 30
0.0
 10
1162.589671
 20
737.688382
 30
0.0
  0
SPLINE
  5
246
100
AcDbEntity
  8
W0102_Printing_40X30
 62
1
100
AcDbSpline
 70
8
 71
3
 72
8
 73
4
 74
0
 40
0
 40
0
 40
0
 40
0
 40
1
 40
1
 40
1
 40
1
 10
1162.589671
 20
737.688382
 30
0.0
 10
1170.416671
 20
737.688382
 30
0.0
 10
1176.762671
 20
731.343382
 30
0.0
 10
1176.762671
 20
723.515382
 30
0.0
  0
LWPOLYLINE
  5
247
100
AcDbEntity
  8
W0102_Printing_40X30
 62
1
100
AcDbPolyline
 90
1
 70
1
 10
1176.762671
 20
766.035081
 30
0.0
  0
SPLINE
  5
248
100
AcDbEntity
  8
W0102_Printing_40X30
 62
1
100
AcDbSpline
 70
8
 71
3
 72
8
 73
4
 74
0
 40
0
 40
0
 40
0
 40
0
 40
1
 40
1
 40
1
 40
1
 10
1176.762671
 20
680.995683
 30
0.0
 10
1176.762671
 20
673.167683
 30
0.0
 10
1170.416671
 20
666.822683
 30
0.0
 10
1162.589671
 20
666.822683
 30
0.0
  0
SPLINE
  5
249
100
AcDbEntity
  8
W0102_Printing_40X30
 62
1
100
AcDbSpline
 70
8
 71
3
 72
8
 73
4
 74
0
 40
0
 40
0
 40
0
 40
0
 40
1
 40
1
 40
1
 40
1
 10
1162.589671
 20
666.822683
 30
0.0
 10
1154.761671
 20
666.822683
 30
0.0
 10
1148.416671
 20
673.167683
 30
0.0
 10
1148.416671
 20
680.995683
 30
0.0
  0
SPLINE
  5
24a
100
AcDbEntity
  8
W0102_Printing_40X30
 62
1
100
AcDbSpline
 70
8
 71
3
 72
8
 73
4
 74
0
 40
0
 40
0
 40
0
 40
0
 40
1
 40
1
 40
1
 40
1
 10
1148.416671
 20
680.995683
 30
0.0
 10
1148.416671
 20
688.823683
 30
0.0
 10
1154.761671
 20
695.168683
 30
0.0
 10
1162.589671
 20
695.168683
 30
0.0
  0
SPLINE
  5
24b
100
AcDbEntity
  8
W0102_Printing_40X30
 62
1
100
AcDbSpline
 70
8
 71
3
 72
8
 73
4
 74
0
 40
0
 40
0
 40
0
 40
0
 40
1
 40
1
 40
1
 40
1
 10
1162.589671
 20
695.168683
 30
0.0
 10
1170.416671
 20
695.168683
 30
0.0
 10
1176.762671
 20
688.823683
 30
0.0
 10
1176.762671
 20
680.995683
 30
0.0
  0
LWPOLYLINE
  5
24c
100
AcDbEntity
  8
W0102_Printing_40X30
 62
1
100
AcDbPolyline
 90
1
 70
1
 10
1176.762671
 20
723.515382
 30
0.0
  0
SPLINE
  5
24d
100
AcDbEntity
  8
W0102_Printing_40X30
 62
1
100
AcDbSpline
 70
8
 71
3
 72
8
 73
4
 74
0
 40
0
 40
0
 40
0
 40
0
 40
1
 40
1
 40
1
 40
1
 10
1176.762671
 20
638.475984
 30
0.0
 10
1176.762671
 20
630.647984
 30
0.0
 10
1170.416671
 20
624.302984
 30
0.0
 10
1162.589671
 20
624.302984
 30
0.0
  0
SPLINE
  5
24e
100
AcDbEntity
  8
W0102_Printing_40X30
 62
1
100
AcDbSpline
 70
8
 71
3
 72
8
 73
4
 74
0
 40
0
 40
0
 40
0
 40
0
 40
1
 40
1
 40
1
 40
1
 10
1162.589671
 20
624.302984
 30
0.0
 10
1154.761671
 20
624.302984
 30
0.0
 10
1148.416671
 20
630.647984
 30
0.0
 10
1148.416671
 20
638.475984
 30
0.0
  0
SPLINE
  5
24f
100
AcDbEntity
  8
W0102_Printing_40X30
 62
1
100
AcDbSpline
 70
8
 71
3
 72
8
 73
4
 74
0
 40
0
 40
0
 40
0
 40
0
 40
1
 40
1
 40
1
 40
1
 10
1148.416671
 20
638.475984
 30
0.0
 10
1148.416671
 20
646.303984
 30
0.0
 10
1154.761671
 20
652.648984
 30
0.0
 10
1162.589671
 20
652.648984
 30
0.0
  0
SPLINE
  5
250
100
AcDbEntity
  8
W0102_Printing_40X30
 62
1
100
AcDbSpline
 70
8
 71
3
 72
8
 73
4
 74
0
 40
0
 40
0
 40
0
 40
0
 40
1
 40
1
 40
1
 40
1
 10
1162.589671
 20
652.648984
 30
0.0
 10
1170.416671
 20
652.648984
 30
0.0
 10
1176.762671
 20
646.303984
 30
0.0
 10
1176.762671
 20
638.475984
 30
0.0
  0
LWPOLYLINE
  5
251
100
AcDbEntity
  8
W0102_Printing_40X30
 62
1
100
AcDbPolyline
 90
1
 70
1
 10
1176.762671
 20
680.995683
 30
0.0
  0
SPLINE
  5
252
100
AcDbEntity
  8
W0102_Printing_40X30
 62
1
100
AcDbSpline
 70
8
 71
3
 72
8
 73
4
 74
0
 40
0
 40
0
 40
0
 40
0
 40
1
 40
1
 40
1
 40
1
 10
1176.762671
 20
595.956385
 30
0.0
 10
1176.762671
 20
588.128385
 30
0.0
 10
1170.416671
 20
581.783385
 30
0.0
 10
1162.589671
 20
581.783385
 30
0.0
  0
SPLINE
  5
253
100
AcDbEntity
  8
W0102_Printing_40X30
 62
1
100
AcDbSpline
 70
8
 71
3
 72
8
 73
4
 74
0
 40
0
 40
0
 40
0
 40
0
 40
1
 40
1
 40
1
 40
1
 10
1162.589671
 20
581.783385
 30
0.0
 10
1154.761671
 20
581.783385
 30
0.0
 10
1148.416671
 20
588.128385
 30
0.0
 10
1148.416671
 20
595.956385
 30
0.0
  0
SPLINE
  5
254
100
AcDbEntity
  8
W0102_Printing_40X30
 62
1
100
AcDbSpline
 70
8
 71
3
 72
8
 73
4
 74
0
 40
0
 40
0
 40
0
 40
0
 40
1
 40
1
 40
1
 40
1
 10
1148.416671
 20
595.956385
 30
0.0
 10
1148.416671
 20
603.784385
 30
0.0
 10
1154.761671
 20
610.129385
 30
0.0
 10
1162.589671
 20
610.129385
 30
0.0
  0
SPLINE
  5
255
100
AcDbEntity
  8
W0102_Printing_40X30
 62
1
100
AcDbSpline
 70
8
 71
3
 72
8
 73
4
 74
0
 40
0
 40
0
 40
0
 40
0
 40
1
 40
1
 40
1
 40
1
 10
1162.589671
 20
610.129385
 30
0.0
 10
1170.416671
 20
610.129385
 30
0.0
 10
1176.762671
 20
603.784385
 30
0.0
 10
1176.762671
 20
595.956385
 30
0.0
  0
LWPOLYLINE
  5
256
100
AcDbEntity
  8
W0102_Printing_40X30
 62
1
100
AcDbPolyline
 90
1
 70
1
 10
1176.762671
 20
638.475984
 30
0.0
  0
SPLINE
  5
257
100
AcDbEntity
  8
W0102_Printing_40X30
 62
1
100
AcDbSpline
 70
8
 71
3
 72
8
 73
4
 74
0
 40
0
 40
0
 40
0
 40
0
 40
1
 40
1
 40
1
 40
1
 10
1176.762671
 20
553.436586
 30
0.0
 10
1176.762671
 20
545.608586
 30
0.0
 10
1170.416671
 20
539.263587
 30
0.0
 10
1162.589671
 20
539.263587
 30
0.0
  0
SPLINE
  5
258
100
AcDbEntity
  8
W0102_Printing_40X30
 62
1
100
AcDbSpline
 70
8
 71
3
 72
8
 73
4
 74
0
 40
0
 40
0
 40
0
 40
0
 40
1
 40
1
 40
1
 40
1
 10
1162.589671
 20
539.263587
 30
0.0
 10
1154.761671
 20
539.263587
 30
0.0
 10
1148.416671
 20
545.608586
 30
0.0
 10
1148.416671
 20
553.436586
 30
0.0
  0
SPLINE
  5
259
100
AcDbEntity
  8
W0102_Printing_40X30
 62
1
100
AcDbSpline
 70
8
 71
3
 72
8
 73
4
 74
0
 40
0
 40
0
 40
0
 40
0
 40
1
 40
1
 40
1
 40
1
 10
1148.416671
 20
553.436586
 30
0.0
 10
1148.416671
 20
561.264586
 30
0.0
 10
1154.761671
 20
567.609586
 30
0.0
 10
1162.589671
 20
567.609586
 30
0.0
  0
SPLINE
  5
25a
100
AcDbEntity
  8
W0102_Printing_40X30
 62
1
100
AcDbSpline
 70
8
 71
3
 72
8
 73
4
 74
0
 40
0
 40
0
 40
0
 40
0
 40
1
 40
1
 40
1
 40
1
 10
1162.589671
 20
567.609586
 30
0.0
 10
1170.416671
 20
567.609586
 30
0.0
 10
1176.762671
 20
561.264586
 30
0.0
 10
1176.762671
 20
553.436586
 30
0.0
  0
LWPOLYLINE
  5
25b
100
AcDbEntity
  8
W0102_Printing_40X30
 62
1
100
AcDbPolyline
 90
1
 70
1
 10
1176.762671
 20
595.956385
 30
0.0
  0
SPLINE
  5
25c
100
AcDbEntity
  8
W0102_Printing_40X30
 62
1
100
AcDbSpline
 70
8
 71
3
 72
8
 73
4
 74
0
 40
0
 40
0
 40
0
 40
0
 40
1
 40
1
 40
1
 40
1
 10
1176.762671
 20
510.916987
 30
0.0
 10
1176.762671
 20
503.088987
 30
0.0
 10
1170.416671
 20
496.743988
 30
0.0
 10
1162.589671
 20
496.743988
 30
0.0
  0
SPLINE
  5
25d
100
AcDbEntity
  8
W0102_Printing_40X30
 62
1
100
AcDbSpline
 70
8
 71
3
 72
8
 73
4
 74
0
 40
0
 40
0
 40
0
 40
0
 40
1
 40
1
 40
1
 40
1
 10
1162.589671
 20
496.743988
 30
0.0
 10
1154.761671
 20
496.743988
 30
0.0
 10
1148.416671
 20
503.088987
 30
0.0
 10
1148.416671
 20
510.916987
 30
0.0
  0
SPLINE
  5
25e
100
AcDbEntity
  8
W0102_Printing_40X30
 62
1
100
AcDbSpline
 70
8
 71
3
 72
8
 73
4
 74
0
 40
0
 40
0
 40
0
 40
0
 40
1
 40
1
 40
1
 40
1
 10
1148.416671
 20
510.916987
 30
0.0
 10
1148.416671
 20
518.744987
 30
0.0
 10
1154.761671
 20
525.089987
 30
0.0
 10
1162.589671
 20
525.089987
 30
0.0
  0
SPLINE
  5
25f
100
AcDbEntity
  8
W0102_Printing_40X30
 62
1
100
AcDbSpline
 70
8
 71
3
 72
8
 73
4
 74
0
 40
0
 40
0
 40
0
 40
0
 40
1
 40
1
 40
1
 40
1
 10
1162.589671
 20
525.089987
 30
0.0
 10
1170.416671
 20
525.089987
 30
0.0
 10
1176.762671
 20
518.744987
 30
0.0
 10
1176.762671
 20
510.916987
 30
0.0
  0
LWPOLYLINE
  5
260
100
AcDbEntity
  8
W0102_Printing_40X30
 62
1
100
AcDbPolyline
 90
1
 70
1
 10
1176.762671
 20
553.436586
 30
0.0
  0
SPLINE
  5
261
100
AcDbEntity
  8
W0102_Printing_40X30
 62
1
100
AcDbSpline
 70
8
 71
3
 72
8
 73
4
 74
0
 40
0
 40
0
 40
0
 40
0
 40
1
 40
1
 40
1
 40
1
 10
2253.928144
 20
1191.231870
 30
0.0
 10
2253.928144
 20
1183.403870
 30
0.0
 10
2247.582144
 20
1177.058871
 30
0.0
 10
2239.755144
 20
1177.058871
 30
0.0
  0
SPLINE
  5
262
100
AcDbEntity
  8
W0102_Printing_40X30
 62
1
100
AcDbSpline
 70
8
 71
3
 72
8
 73
4
 74
0
 40
0
 40
0
 40
0
 40
0
 40
1
 40
1
 40
1
 40
1
 10
2239.755144
 20
1177.058871
 30
0.0
 10
2231.927144
 20
1177.058871
 30
0.0
 10
2225.582144
 20
1183.403870
 30
0.0
 10
2225.582144
 20
1191.231870
 30
0.0
  0
SPLINE
  5
263
100
AcDbEntity
  8
W0102_Printing_40X30
 62
1
100
AcDbSpline
 70
8
 71
3
 72
8
 73
4
 74
0
 40
0
 40
0
 40
0
 40
0
 40
1
 40
1
 40
1
 40
1
 10
2225.582144
 20
1191.231870
 30
0.0
 10
2225.582144
 20
1199.059870
 30
0.0
 10
2231.927144
 20
1205.404870
 30
0.0
 10
2239.755144
 20
1205.404870
 30
0.0
  0
SPLINE
  5
264
100
AcDbEntity
  8
W0102_Printing_40X30
 62
1
100
AcDbSpline
 70
8
 71
3
 72
8
 73
4
 74
0
 40
0
 40
0
 40
0
 40
0
 40
1
 40
1
 40
1
 40
1
 10
2239.755144
 20
1205.404870
 30
0.0
 10
2247.582144
 20
1205.404870
 30
0.0
 10
2253.928144
 20
1199.059870
 30
0.0
 10
2253.928144
 20
1191.231870
 30
0.0
  0
LWPOLYLINE
  5
265
100
AcDbEntity
  8
W0102_Printing_40X30
 62
1
100
AcDbPolyline
 90
1
 70
1
 10
1176.762671
 20
510.916987
 30
0.0
  0
SPLINE
  5
266
100
AcDbEntity
  8
W0102_Printing_40X30
 62
1
100
AcDbSpline
 70
8
 71
3
 72
8
 73
4
 74
0
 40
0
 40
0
 40
0
 40
0
 40
1
 40
1
 40
1
 40
1
 10
2253.928144
 20
1148.712271
 30
0.0
 10
2253.928144
 20
1140.884271
 30
0.0
 10
2247.582144
 20
1134.539272
 30
0.0
 10
2239.755144
 20
1134.539272
 30
0.0
  0
SPLINE
  5
267
100
AcDbEntity
  8
W0102_Printing_40X30
 62
1
100
AcDbSpline
 70
8
 71
3
 72
8
 73
4
 74
0
 40
0
 40
0
 40
0
 40
0
 40
1
 40
1
 40
1
 40
1
 10
2239.755144
 20
1134.539272
 30
0.0
 10
2231.927144
 20
1134.539272
 30
0.0
 10
2225.582144
 20
1140.884271
 30
0.0
 10
2225.582144
 20
1148.712271
 30
0.0
  0
SPLINE
  5
268
100
AcDbEntity
  8
W0102_Printing_40X30
 62
1
100
AcDbSpline
 70
8
 71
3
 72
8
 73
4
 74
0
 40
0
 40
0
 40
0
 40
0
 40
1
 40
1
 40
1
 40
1
 10
2225.582144
 20
1148.712271
 30
0.0
 10
2225.582144
 20
1156.540271
 30
0.0
 10
2231.927144
 20
1162.885271
 30
0.0
 10
2239.755144
 20
1162.885271
 30
0.0
  0
SPLINE
  5
269
100
AcDbEntity
  8
W0102_Printing_40X30
 62
1
100
AcDbSpline
 70
8
 71
3
 72
8
 73
4
 74
0
 40
0
 40
0
 40
0
 40
0
 40
1
 40
1
 40
1
 40
1
 10
2239.755144
 20
1162.885271
 30
0.0
 10
2247.582144
 20
1162.885271
 30
0.0
 10
2253.928144
 20
1156.540271
 30
0.0
 10
2253.928144
 20
1148.712271
 30
0.0
  0
LWPOLYLINE
  5
26a
100
AcDbEntity
  8
W0102_Printing_40X30
 62
1
100
AcDbPolyline
 90
1
 70
1
 10
2253.928144
 20
1191.231870
 30
0.0
  0
SPLINE
  5
26b
100
AcDbEntity
  8
W0102_Printing_40X30
 62
1
100
AcDbSpline
 70
8
 71
3
 72
8
 73
4
 74
0
 40
0
 40
0
 40
0
 40
0
 40
1
 40
1
 40
1
 40
1
 10
2253.928144
 20
1106.192472
 30
0.0
 10
2253.928144
 20
1098.364473
 30
0.0
 10
2247.582144
 20
1092.019473
 30
0.0
 10
2239.755144
 20
1092.019473
 30
0.0
  0
SPLINE
  5
26c
100
AcDbEntity
  8
W0102_Printing_40X30
 62
1
100
AcDbSpline
 70
8
 71
3
 72
8
 73
4
 74
0
 40
0
 40
0
 40
0
 40
0
 40
1
 40
1
 40
1
 40
1
 10
2239.755144
 20
1092.019473
 30
0.0
 10
2231.927144
 20
1092.019473
 30
0.0
 10
2225.582144
 20
1098.364473
 30
0.0
 10
2225.582144
 20
1106.192472
 30
0.0
  0
SPLINE
  5
26d
100
AcDbEntity
  8
W0102_Printing_40X30
 62
1
100
AcDbSpline
 70
8
 71
3
 72
8
 73
4
 74
0
 40
0
 40
0
 40
0
 40
0
 40
1
 40
1
 40
1
 40
1
 10
2225.582144
 20
1106.192472
 30
0.0
 10
2225.582144
 20
1114.020472
 30
0.0
 10
2231.927144
 20
1120.365472
 30
0.0
 10
2239.755144
 20
1120.365472
 30
0.0
  0
SPLINE
  5
26e
100
AcDbEntity
  8
W0102_Printing_40X30
 62
1
100
AcDbSpline
 70
8
 71
3
 72
8
 73
4
 74
0
 40
0
 40
0
 40
0
 40
0
 40
1
 40
1
 40
1
 40
1
 10
2239.755144
 20
1120.365472
 30
0.0
 10
2247.582144
 20
1120.365472
 30
0.0
 10
2253.928144
 20
1114.020472
 30
0.0
 10
2253.928144
 20
1106.192472
 30
0.0
  0
LWPOLYLINE
  5
26f
100
AcDbEntity
  8
W0102_Printing_40X30
 62
1
100
AcDbPolyline
 90
1
 70
1
 10
2253.928144
 20
1148.712271
 30
0.0
  0
SPLINE
  5
270
100
AcDbEntity
  8
W0102_Printing_40X30
 62
1
100
AcDbSpline
 70
8
 71
3
 72
8
 73
4
 74
0
 40
0
 40
0
 40
0
 40
0
 40
1
 40
1
 40
1
 40
1
 10
2253.928144
 20
1063.672873
 30
0.0
 10
2253.928144
 20
1055.844874
 30
0.0
 10
2247.582144
 20
1049.499874
 30
0.0
 10
2239.755144
 20
1049.499874
 30
0.0
  0
SPLINE
  5
271
100
AcDbEntity
  8
W0102_Printing_40X30
 62
1
100
AcDbSpline
 70
8
 71
3
 72
8
 73
4
 74
0
 40
0
 40
0
 40
0
 40
0
 40
1
 40
1
 40
1
 40
1
 10
2239.755144
 20
1049.499874
 30
0.0
 10
2231.927144
 20
1049.499874
 30
0.0
 10
2225.582144
 20
1055.844874
 30
0.0
 10
2225.582144
 20
1063.672873
 30
0.0
  0
SPLINE
  5
272
100
AcDbEntity
  8
W0102_Printing_40X30
 62
1
100
AcDbSpline
 70
8
 71
3
 72
8
 73
4
 74
0
 40
0
 40
0
 40
0
 40
0
 40
1
 40
1
 40
1
 40
1
 10
2225.582144
 20
1063.672873
 30
0.0
 10
2225.582144
 20
1071.500873
 30
0.0
 10
2231.927144
 20
1077.845873
 30
0.0
 10
2239.755144
 20
1077.845873
 30
0.0
  0
SPLINE
  5
273
100
AcDbEntity
  8
W0102_Printing_40X30
 62
1
100
AcDbSpline
 70
8
 71
3
 72
8
 73
4
 74
0
 40
0
 40
0
 40
0
 40
0
 40
1
 40
1
 40
1
 40
1
 10
2239.755144
 20
1077.845873
 30
0.0
 10
2247.582144
 20
1077.845873
 30
0.0
 10
2253.928144
 20
1071.500873
 30
0.0
 10
2253.928144
 20
1063.672873
 30
0.0
  0
LWPOLYLINE
  5
274
100
AcDbEntity
  8
W0102_Printing_40X30
 62
1
100
AcDbPolyline
 90
1
 70
1
 10
2253.928144
 20
1106.192472
 30
0.0
  0
SPLINE
  5
275
100
AcDbEntity
  8
W0102_Printing_40X30
 62
1
100
AcDbSpline
 70
8
 71
3
 72
8
 73
4
 74
0
 40
0
 40
0
 40
0
 40
0
 40
1
 40
1
 40
1
 40
1
 10
2253.928144
 20
1021.153174
 30
0.0
 10
2253.928144
 20
1013.325175
 30
0.0
 10
2247.582144
 20
1006.980175
 30
0.0
 10
2239.755144
 20
1006.980175
 30
0.0
  0
SPLINE
  5
276
100
AcDbEntity
  8
W0102_Printing_40X30
 62
1
100
AcDbSpline
 70
8
 71
3
 72
8
 73
4
 74
0
 40
0
 40
0
 40
0
 40
0
 40
1
 40
1
 40
1
 40
1
 10
2239.755144
 20
1006.980175
 30
0.0
 10
2231.927144
 20
1006.980175
 30
0.0
 10
2225.582144
 20
1013.325175
 30
0.0
 10
2225.582144
 20
1021.153174
 30
0.0
  0
SPLINE
  5
277
100
AcDbEntity
  8
W0102_Printing_40X30
 62
1
100
AcDbSpline
 70
8
 71
3
 72
8
 73
4
 74
0
 40
0
 40
0
 40
0
 40
0
 40
1
 40
1
 40
1
 40
1
 10
2225.582144
 20
1021.153174
 30
0.0
 10
2225.582144
 20
1028.981174
 30
0.0
 10
2231.927144
 20
1035.326174
 30
0.0
 10
2239.755144
 20
1035.326174
 30
0.0
  0
SPLINE
  5
278
100
AcDbEntity
  8
W0102_Printing_40X30
 62
1
100
AcDbSpline
 70
8
 71
3
 72
8
 73
4
 74
0
 40
0
 40
0
 40
0
 40
0
 40
1
 40
1
 40
1
 40
1
 10
2239.755144
 20
1035.326174
 30
0.0
 10
2247.582144
 20
1035.326174
 30
0.0
 10
2253.928144
 20
1028.981174
 30
0.0
 10
2253.928144
 20
1021.153174
 30
0.0
  0
LWPOLYLINE
  5
279
100
AcDbEntity
  8
W0102_Printing_40X30
 62
1
100
AcDbPolyline
 90
1
 70
1
 10
2253.928144
 20
1063.672873
 30
0.0
  0
SPLINE
  5
27a
100
AcDbEntity
  8
W0102_Printing_40X30
 62
1
100
AcDbSpline
 70
8
 71
3
 72
8
 73
4
 74
0
 40
0
 40
0
 40
0
 40
0
 40
1
 40
1
 40
1
 40
1
 10
2253.928144
 20
978.633476
 30
0.0
 10
2253.928144
 20
970.805476
 30
0.0
 10
2247.582144
 20
964.460476
 30
0.0
 10
2239.755144
 20
964.460476
 30
0.0
  0
SPLINE
  5
27b
100
AcDbEntity
  8
W0102_Printing_40X30
 62
1
100
AcDbSpline
 70
8
 71
3
 72
8
 73
4
 74
0
 40
0
 40
0
 40
0
 40
0
 40
1
 40
1
 40
1
 40
1
 10
2239.755144
 20
964.460476
 30
0.0
 10
2231.927144
 20
964.460476
 30
0.0
 10
2225.582144
 20
970.805476
 30
0.0
 10
2225.582144
 20
978.633476
 30
0.0
  0
SPLINE
  5
27c
100
AcDbEntity
  8
W0102_Printing_40X30
 62
1
100
AcDbSpline
 70
8
 71
3
 72
8
 73
4
 74
0
 40
0
 40
0
 40
0
 40
0
 40
1
 40
1
 40
1
 40
1
 10
2225.582144
 20
978.633476
 30
0.0
 10
2225.582144
 20
986.461475
 30
0.0
 10
2231.927144
 20
992.806475
 30
0.0
 10
2239.755144
 20
992.806475
 30
0.0
  0
SPLINE
  5
27d
100
AcDbEntity
  8
W0102_Printing_40X30
 62
1
100
AcDbSpline
 70
8
 71
3
 72
8
 73
4
 74
0
 40
0
 40
0
 40
0
 40
0
 40
1
 40
1
 40
1
 40
1
 10
2239.755144
 20
992.806475
 30
0.0
 10
2247.582144
 20
992.806475
 30
0.0
 10
2253.928144
 20
986.461475
 30
0.0
 10
2253.928144
 20
978.633476
 30
0.0
  0
LWPOLYLINE
  5
27e
100
AcDbEntity
  8
W0102_Printing_40X30
 62
1
100
AcDbPolyline
 90
1
 70
1
 10
2253.928144
 20
1021.153174
 30
0.0
  0
SPLINE
  5
27f
100
AcDbEntity
  8
W0102_Printing_40X30
 62
1
100
AcDbSpline
 70
8
 71
3
 72
8
 73
4
 74
0
 40
0
 40
0
 40
0
 40
0
 40
1
 40
1
 40
1
 40
1
 10
2253.928144
 20
936.113777
 30
0.0
 10
2253.928144
 20
928.285777
 30
0.0
 10
2247.582144
 20
921.940777
 30
0.0
 10
2239.755144
 20
921.940777
 30
0.0
  0
SPLINE
  5
280
100
AcDbEntity
  8
W0102_Printing_40X30
 62
1
100
AcDbSpline
 70
8
 71
3
 72
8
 73
4
 74
0
 40
0
 40
0
 40
0
 40
0
 40
1
 40
1
 40
1
 40
1
 10
2239.755144
 20
921.940777
 30
0.0
 10
2231.927144
 20
921.940777
 30
0.0
 10
2225.582144
 20
928.285777
 30
0.0
 10
2225.582144
 20
936.113777
 30
0.0
  0
SPLINE
  5
281
100
AcDbEntity
  8
W0102_Printing_40X30
 62
1
100
AcDbSpline
 70
8
 71
3
 72
8
 73
4
 74
0
 40
0
 40
0
 40
0
 40
0
 40
1
 40
1
 40
1
 40
1
 10
2225.582144
 20
936.113777
 30
0.0
 10
2225.582144
 20
943.941776
 30
0.0
 10
2231.927144
 20
950.286776
 30
0.0
 10
2239.755144
 20
950.286776
 30
0.0
  0
SPLINE
  5
282
100
AcDbEntity
  8
W0102_Printing_40X30
 62
1
100
AcDbSpline
 70
8
 71
3
 72
8
 73
4
 74
0
 40
0
 40
0
 40
0
 40
0
 40
1
 40
1
 40
1
 40
1
 10
2239.755144
 20
950.286776
 30
0.0
 10
2247.582144
 20
950.286776
 30
0.0
 10
2253.928144
 20
943.941776
 30
0.0
 10
2253.928144
 20
936.113777
 30
0.0
  0
LWPOLYLINE
  5
283
100
AcDbEntity
  8
W0102_Printing_40X30
 62
1
100
AcDbPolyline
 90
1
 70
1
 10
2253.928144
 20
978.633476
 30
0.0
  0
SPLINE
  5
284
100
AcDbEntity
  8
W0102_Printing_40X30
 62
1
100
AcDbSpline
 70
8
 71
3
 72
8
 73
4
 74
0
 40
0
 40
0
 40
0
 40
0
 40
1
 40
1
 40
1
 40
1
 10
2253.928144
 20
893.594078
 30
0.0
 10
2253.928144
 20
885.766078
 30
0.0
 10
2247.582144
 20
879.421078
 30
0.0
 10
2239.755144
 20
879.421078
 30
0.0
  0
SPLINE
  5
285
100
AcDbEntity
  8
W0102_Printing_40X30
 62
1
100
AcDbSpline
 70
8
 71
3
 72
8
 73
4
 74
0
 40
0
 40
0
 40
0
 40
0
 40
1
 40
1
 40
1
 40
1
 10
2239.755144
 20
879.421078
 30
0.0
 10
2231.927144
 20
879.421078
 30
0.0
 10
2225.582144
 20
885.766078
 30
0.0
 10
2225.582144
 20
893.594078
 30
0.0
  0
SPLINE
  5
286
100
AcDbEntity
  8
W0102_Printing_40X30
 62
1
100
AcDbSpline
 70
8
 71
3
 72
8
 73
4
 74
0
 40
0
 40
0
 40
0
 40
0
 40
1
 40
1
 40
1
 40
1
 10
2225.582144
 20
893.594078
 30
0.0
 10
2225.582144
 20
901.422077
 30
0.0
 10
2231.927144
 20
907.767077
 30
0.0
 10
2239.755144
 20
907.767077
 30
0.0
  0
SPLINE
  5
287
100
AcDbEntity
  8
W0102_Printing_40X30
 62
1
100
AcDbSpline
 70
8
 71
3
 72
8
 73
4
 74
0
 40
0
 40
0
 40
0
 40
0
 40
1
 40
1
 40
1
 40
1
 10
2239.755144
 20
907.767077
 30
0.0
 10
2247.582144
 20
907.767077
 30
0.0
 10
2253.928144
 20
901.422077
 30
0.0
 10
2253.928144
 20
893.594078
 30
0.0
  0
LWPOLYLINE
  5
288
100
AcDbEntity
  8
W0102_Printing_40X30
 62
1
100
AcDbPolyline
 90
1
 70
1
 10
2253.928144
 20
936.113777
 30
0.0
  0
SPLINE
  5
289
100
AcDbEntity
  8
W0102_Printing_40X30
 62
1
100
AcDbSpline
 70
8
 71
3
 72
8
 73
4
 74
0
 40
0
 40
0
 40
0
 40
0
 40
1
 40
1
 40
1
 40
1
 10
2253.928144
 20
851.074479
 30
0.0
 10
2253.928144
 20
843.246479
 30
0.0
 10
2247.582144
 20
836.901479
 30
0.0
 10
2239.755144
 20
836.901479
 30
0.0
  0
SPLINE
  5
28a
100
AcDbEntity
  8
W0102_Printing_40X30
 62
1
100
AcDbSpline
 70
8
 71
3
 72
8
 73
4
 74
0
 40
0
 40
0
 40
0
 40
0
 40
1
 40
1
 40
1
 40
1
 10
2239.755144
 20
836.901479
 30
0.0
 10
2231.927144
 20
836.901479
 30
0.0
 10
2225.582144
 20
843.246479
 30
0.0
 10
2225.582144
 20
851.074479
 30
0.0
  0
SPLINE
  5
28b
100
AcDbEntity
  8
W0102_Printing_40X30
 62
1
100
AcDbSpline
 70
8
 71
3
 72
8
 73
4
 74
0
 40
0
 40
0
 40
0
 40
0
 40
1
 40
1
 40
1
 40
1
 10
2225.582144
 20
851.074479
 30
0.0
 10
2225.582144
 20
858.902479
 30
0.0
 10
2231.927144
 20
865.247478
 30
0.0
 10
2239.755144
 20
865.247478
 30
0.0
  0
SPLINE
  5
28c
100
AcDbEntity
  8
W0102_Printing_40X30
 62
1
100
AcDbSpline
 70
8
 71
3
 72
8
 73
4
 74
0
 40
0
 40
0
 40
0
 40
0
 40
1
 40
1
 40
1
 40
1
 10
2239.755144
 20
865.247478
 30
0.0
 10
2247.582144
 20
865.247478
 30
0.0
 10
2253.928144
 20
858.902479
 30
0.0
 10
2253.928144
 20
851.074479
 30
0.0
  0
LWPOLYLINE
  5
28d
100
AcDbEntity
  8
W0102_Printing_40X30
 62
1
100
AcDbPolyline
 90
1
 70
1
 10
2253.928144
 20
893.594078
 30
0.0
  0
SPLINE
  5
28e
100
AcDbEntity
  8
W0102_Printing_40X30
 62
1
100
AcDbSpline
 70
8
 71
3
 72
8
 73
4
 74
0
 40
0
 40
0
 40
0
 40
0
 40
1
 40
1
 40
1
 40
1
 10
2253.928144
 20
808.554680
 30
0.0
 10
2253.928144
 20
800.726680
 30
0.0
 10
2247.582144
 20
794.381680
 30
0.0
 10
2239.755144
 20
794.381680
 30
0.0
  0
SPLINE
  5
28f
100
AcDbEntity
  8
W0102_Printing_40X30
 62
1
100
AcDbSpline
 70
8
 71
3
 72
8
 73
4
 74
0
 40
0
 40
0
 40
0
 40
0
 40
1
 40
1
 40
1
 40
1
 10
2239.755144
 20
794.381680
 30
0.0
 10
2231.927144
 20
794.381680
 30
0.0
 10
2225.582144
 20
800.726680
 30
0.0
 10
2225.582144
 20
808.554680
 30
0.0
  0
SPLINE
  5
290
100
AcDbEntity
  8
W0102_Printing_40X30
 62
1
100
AcDbSpline
 70
8
 71
3
 72
8
 73
4
 74
0
 40
0
 40
0
 40
0
 40
0
 40
1
 40
1
 40
1
 40
1
 10
2225.582144
 20
808.554680
 30
0.0
 10
2225.582144
 20
816.382680
 30
0.0
 10
2231.927144
 20
822.727679
 30
0.0
 10
2239.755144
 20
822.727679
 30
0.0
  0
SPLINE
  5
291
100
AcDbEntity
  8
W0102_Printing_40X30
 62
1
100
AcDbSpline
 70
8
 71
3
 72
8
 73
4
 74
0
 40
0
 40
0
 40
0
 40
0
 40
1
 40
1
 40
1
 40
1
 10
2239.755144
 20
822.727679
 30
0.0
 10
2247.582144
 20
822.727679
 30
0.0
 10
2253.928144
 20
816.382680
 30
0.0
 10
2253.928144
 20
808.554680
 30
0.0
  0
LWPOLYLINE
  5
292
100
AcDbEntity
  8
W0102_Printing_40X30
 62
1
100
AcDbPolyline
 90
1
 70
1
 10
2253.928144
 20
851.074479
 30
0.0
  0
SPLINE
  5
293
100
AcDbEntity
  8
W0102_Printing_40X30
 62
1
100
AcDbSpline
 70
8
 71
3
 72
8
 73
4
 74
0
 40
0
 40
0
 40
0
 40
0
 40
1
 40
1
 40
1
 40
1
 10
2253.928144
 20
766.035081
 30
0.0
 10
2253.928144
 20
758.207081
 30
0.0
 10
2247.582144
 20
751.862081
 30
0.0
 10
2239.755144
 20
751.862081
 30
0.0
  0
SPLINE
  5
294
100
AcDbEntity
  8
W0102_Printing_40X30
 62
1
100
AcDbSpline
 70
8
 71
3
 72
8
 73
4
 74
0
 40
0
 40
0
 40
0
 40
0
 40
1
 40
1
 40
1
 40
1
 10
2239.755144
 20
751.862081
 30
0.0
 10
2231.927144
 20
751.862081
 30
0.0
 10
2225.582144
 20
758.207081
 30
0.0
 10
2225.582144
 20
766.035081
 30
0.0
  0
SPLINE
  5
295
100
AcDbEntity
  8
W0102_Printing_40X30
 62
1
100
AcDbSpline
 70
8
 71
3
 72
8
 73
4
 74
0
 40
0
 40
0
 40
0
 40
0
 40
1
 40
1
 40
1
 40
1
 10
2225.582144
 20
766.035081
 30
0.0
 10
2225.582144
 20
773.863081
 30
0.0
 10
2231.927144
 20
780.208080
 30
0.0
 10
2239.755144
 20
780.208080
 30
0.0
  0
SPLINE
  5
296
100
AcDbEntity
  8
W0102_Printing_40X30
 62
1
100
AcDbSpline
 70
8
 71
3
 72
8
 73
4
 74
0
 40
0
 40
0
 40
0
 40
0
 40
1
 40
1
 40
1
 40
1
 10
2239.755144
 20
780.208080
 30
0.0
 10
2247.582144
 20
780.208080
 30
0.0
 10
2253.928144
 20
773.863081
 30
0.0
 10
2253.928144
 20
766.035081
 30
0.0
  0
LWPOLYLINE
  5
297
100
AcDbEntity
  8
W0102_Printing_40X30
 62
1
100
AcDbPolyline
 90
1
 70
1
 10
2253.928144
 20
808.554680
 30
0.0
  0
SPLINE
  5
298
100
AcDbEntity
  8
W0102_Printing_40X30
 62
1
100
AcDbSpline
 70
8
 71
3
 72
8
 73
4
 74
0
 40
0
 40
0
 40
0
 40
0
 40
1
 40
1
 40
1
 40
1
 10
2253.928144
 20
723.515382
 30
0.0
 10
2253.928144
 20
715.687382
 30
0.0
 10
2247.582144
 20
709.342382
 30
0.0
 10
2239.755144
 20
709.342382
 30
0.0
  0
SPLINE
  5
299
100
AcDbEntity
  8
W0102_Printing_40X30
 62
1
100
AcDbSpline
 70
8
 71
3
 72
8
 73
4
 74
0
 40
0
 40
0
 40
0
 40
0
 40
1
 40
1
 40
1
 40
1
 10
2239.755144
 20
709.342382
 30
0.0
 10
2231.927144
 20
709.342382
 30
0.0
 10
2225.582144
 20
715.687382
 30
0.0
 10
2225.582144
 20
723.515382
 30
0.0
  0
SPLINE
  5
29a
100
AcDbEntity
  8
W0102_Printing_40X30
 62
1
100
AcDbSpline
 70
8
 71
3
 72
8
 73
4
 74
0
 40
0
 40
0
 40
0
 40
0
 40
1
 40
1
 40
1
 40
1
 10
2225.582144
 20
723.515382
 30
0.0
 10
2225.582144
 20
731.343382
 30
0.0
 10
2231.927144
 20
737.688382
 30
0.0
 10
2239.755144
 20
737.688382
 30
0.0
  0
SPLINE
  5
29b
100
AcDbEntity
  8
W0102_Printing_40X30
 62
1
100
AcDbSpline
 70
8
 71
3
 72
8
 73
4
 74
0
 40
0
 40
0
 40
0
 40
0
 40
1
 40
1
 40
1
 40
1
 10
2239.755144
 20
737.688382
 30
0.0
 10
2247.582144
 20
737.688382
 30
0.0
 10
2253.928144
 20
731.343382
 30
0.0
 10
2253.928144
 20
723.515382
 30
0.0
  0
LWPOLYLINE
  5
29c
100
AcDbEntity
  8
W0102_Printing_40X30
 62
1
100
AcDbPolyline
 90
1
 70
1
 10
2253.928144
 20
766.035081
 30
0.0
  0
SPLINE
  5
29d
100
AcDbEntity
  8
W0102_Printing_40X30
 62
1
100
AcDbSpline
 70
8
 71
3
 72
8
 73
4
 74
0
 40
0
 40
0
 40
0
 40
0
 40
1
 40
1
 40
1
 40
1
 10
2253.928144
 20
680.995683
 30
0.0
 10
2253.928144
 20
673.167683
 30
0.0
 10
2247.582144
 20
666.822683
 30
0.0
 10
2239.755144
 20
666.822683
 30
0.0
  0
SPLINE
  5
29e
100
AcDbEntity
  8
W0102_Printing_40X30
 62
1
100
AcDbSpline
 70
8
 71
3
 72
8
 73
4
 74
0
 40
0
 40
0
 40
0
 40
0
 40
1
 40
1
 40
1
 40
1
 10
2239.755144
 20
666.822683
 30
0.0
 10
2231.927144
 20
666.822683
 30
0.0
 10
2225.582144
 20
673.167683
 30
0.0
 10
2225.582144
 20
680.995683
 30
0.0
  0
SPLINE
  5
29f
100
AcDbEntity
  8
W0102_Printing_40X30
 62
1
100
AcDbSpline
 70
8
 71
3
 72
8
 73
4
 74
0
 40
0
 40
0
 40
0
 40
0
 40
1
 40
1
 40
1
 40
1
 10
2225.582144
 20
680.995683
 30
0.0
 10
2225.582144
 20
688.823683
 30
0.0
 10
2231.927144
 20
695.168683
 30
0.0
 10
2239.755144
 20
695.168683
 30
0.0
  0
SPLINE
  5
2a0
100
AcDbEntity
  8
W0102_Printing_40X30
 62
1
100
AcDbSpline
 70
8
 71
3
 72
8
 73
4
 74
0
 40
0
 40
0
 40
0
 40
0
 40
1
 40
1
 40
1
 40
1
 10
2239.755144
 20
695.168683
 30
0.0
 10
2247.582144
 20
695.168683
 30
0.0
 10
2253.928144
 20
688.823683
 30
0.0
 10
2253.928144
 20
680.995683
 30
0.0
  0
LWPOLYLINE
  5
2a1
100
AcDbEntity
  8
W0102_Printing_40X30
 62
1
100
AcDbPolyline
 90
1
 70
1
 10
2253.928144
 20
723.515382
 30
0.0
  0
SPLINE
  5
2a2
100
AcDbEntity
  8
W0102_Printing_40X30
 62
1
100
AcDbSpline
 70
8
 71
3
 72
8
 73
4
 74
0
 40
0
 40
0
 40
0
 40
0
 40
1
 40
1
 40
1
 40
1
 10
2253.928144
 20
638.475984
 30
0.0
 10
2253.928144
 20
630.647984
 30
0.0
 10
2247.582144
 20
624.302984
 30
0.0
 10
2239.755144
 20
624.302984
 30
0.0
  0
SPLINE
  5
2a3
100
AcDbEntity
  8
W0102_Printing_40X30
 62
1
100
AcDbSpline
 70
8
 71
3
 72
8
 73
4
 74
0
 40
0
 40
0
 40
0
 40
0
 40
1
 40
1
 40
1
 40
1
 10
2239.755144
 20
624.302984
 30
0.0
 10
2231.927144
 20
624.302984
 30
0.0
 10
2225.582144
 20
630.647984
 30
0.0
 10
2225.582144
 20
638.475984
 30
0.0
  0
SPLINE
  5
2a4
100
AcDbEntity
  8
W0102_Printing_40X30
 62
1
100
AcDbSpline
 70
8
 71
3
 72
8
 73
4
 74
0
 40
0
 40
0
 40
0
 40
0
 40
1
 40
1
 40
1
 40
1
 10
2225.582144
 20
638.475984
 30
0.0
 10
2225.582144
 20
646.303984
 30
0.0
 10
2231.927144
 20
652.648984
 30
0.0
 10
2239.755144
 20
652.648984
 30
0.0
  0
SPLINE
  5
2a5
100
AcDbEntity
  8
W0102_Printing_40X30
 62
1
100
AcDbSpline
 70
8
 71
3
 72
8
 73
4
 74
0
 40
0
 40
0
 40
0
 40
0
 40
1
 40
1
 40
1
 40
1
 10
2239.755144
 20
652.648984
 30
0.0
 10
2247.582144
 20
652.648984
 30
0.0
 10
2253.928144
 20
646.303984
 30
0.0
 10
2253.928144
 20
638.475984
 30
0.0
  0
LWPOLYLINE
  5
2a6
100
AcDbEntity
  8
W0102_Printing_40X30
 62
1
100
AcDbPolyline
 90
1
 70
1
 10
2253.928144
 20
680.995683
 30
0.0
  0
SPLINE
  5
2a7
100
AcDbEntity
  8
W0102_Printing_40X30
 62
1
100
AcDbSpline
 70
8
 71
3
 72
8
 73
4
 74
0
 40
0
 40
0
 40
0
 40
0
 40
1
 40
1
 40
1
 40
1
 10
2253.928144
 20
595.956385
 30
0.0
 10
2253.928144
 20
588.128385
 30
0.0
 10
2247.582144
 20
581.783385
 30
0.0
 10
2239.755144
 20
581.783385
 30
0.0
  0
SPLINE
  5
2a8
100
AcDbEntity
  8
W0102_Printing_40X30
 62
1
100
AcDbSpline
 70
8
 71
3
 72
8
 73
4
 74
0
 40
0
 40
0
 40
0
 40
0
 40
1
 40
1
 40
1
 40
1
 10
2239.755144
 20
581.783385
 30
0.0
 10
2231.927144
 20
581.783385
 30
0.0
 10
2225.582144
 20
588.128385
 30
0.0
 10
2225.582144
 20
595.956385
 30
0.0
  0
SPLINE
  5
2a9
100
AcDbEntity
  8
W0102_Printing_40X30
 62
1
100
AcDbSpline
 70
8
 71
3
 72
8
 73
4
 74
0
 40
0
 40
0
 40
0
 40
0
 40
1
 40
1
 40
1
 40
1
 10
2225.582144
 20
595.956385
 30
0.0
 10
2225.582144
 20
603.784385
 30
0.0
 10
2231.927144
 20
610.129385
 30
0.0
 10
2239.755144
 20
610.129385
 30
0.0
  0
SPLINE
  5
2aa
100
AcDbEntity
  8
W0102_Printing_40X30
 62
1
100
AcDbSpline
 70
8
 71
3
 72
8
 73
4
 74
0
 40
0
 40
0
 40
0
 40
0
 40
1
 40
1
 40
1
 40
1
 10
2239.755144
 20
610.129385
 30
0.0
 10
2247.582144
 20
610.129385
 30
0.0
 10
2253.928144
 20
603.784385
 30
0.0
 10
2253.928144
 20
595.956385
 30
0.0
  0
LWPOLYLINE
  5
2ab
100
AcDbEntity
  8
W0102_Printing_40X30
 62
1
100
AcDbPolyline
 90
1
 70
1
 10
2253.928144
 20
638.475984
 30
0.0
  0
SPLINE
  5
2ac
100
AcDbEntity
  8
W0102_Printing_40X30
 62
1
100
AcDbSpline
 70
8
 71
3
 72
8
 73
4
 74
0
 40
0
 40
0
 40
0
 40
0
 40
1
 40
1
 40
1
 40
1
 10
2253.928144
 20
553.436586
 30
0.0
 10
2253.928144
 20
545.608586
 30
0.0
 10
2247.582144
 20
539.263587
 30
0.0
 10
2239.755144
 20
539.263587
 30
0.0
  0
SPLINE
  5
2ad
100
AcDbEntity
  8
W0102_Printing_40X30
 62
1
100
AcDbSpline
 70
8
 71
3
 72
8
 73
4
 74
0
 40
0
 40
0
 40
0
 40
0
 40
1
 40
1
 40
1
 40
1
 10
2239.755144
 20
539.263587
 30
0.0
 10
2231.927144
 20
539.263587
 30
0.0
 10
2225.582144
 20
545.608586
 30
0.0
 10
2225.582144
 20
553.436586
 30
0.0
  0
SPLINE
  5
2ae
100
AcDbEntity
  8
W0102_Printing_40X30
 62
1
100
AcDbSpline
 70
8
 71
3
 72
8
 73
4
 74
0
 40
0
 40
0
 40
0
 40
0
 40
1
 40
1
 40
1
 40
1
 10
2225.582144
 20
553.436586
 30
0.0
 10
2225.582144
 20
561.264586
 30
0.0
 10
2231.927144
 20
567.609586
 30
0.0
 10
2239.755144
 20
567.609586
 30
0.0
  0
SPLINE
  5
2af
100
AcDbEntity
  8
W0102_Printing_40X30
 62
1
100
AcDbSpline
 70
8
 71
3
 72
8
 73
4
 74
0
 40
0
 40
0
 40
0
 40
0
 40
1
 40
1
 40
1
 40
1
 10
2239.755144
 20
567.609586
 30
0.0
 10
2247.582144
 20
567.609586
 30
0.0
 10
2253.928144
 20
561.264586
 30
0.0
 10
2253.928144
 20
553.436586
 30
0.0
  0
LWPOLYLINE
  5
2b0
100
AcDbEntity
  8
W0102_Printing_40X30
 62
1
100
AcDbPolyline
 90
1
 70
1
 10
2253.928144
 20
595.956385
 30
0.0
  0
SPLINE
  5
2b1
100
AcDbEntity
  8
W0102_Printing_40X30
 62
1
100
AcDbSpline
 70
8
 71
3
 72
8
 73
4
 74
0
 40
0
 40
0
 40
0
 40
0
 40
1
 40
1
 40
1
 40
1
 10
2253.928144
 20
510.916987
 30
0.0
 10
2253.928144
 20
503.088987
 30
0.0
 10
2247.582144
 20
496.743988
 30
0.0
 10
2239.755144
 20
496.743988
 30
0.0
  0
SPLINE
  5
2b2
100
AcDbEntity
  8
W0102_Printing_40X30
 62
1
100
AcDbSpline
 70
8
 71
3
 72
8
 73
4
 74
0
 40
0
 40
0
 40
0
 40
0
 40
1
 40
1
 40
1
 40
1
 10
2239.755144
 20
496.743988
 30
0.0
 10
2231.927144
 20
496.743988
 30
0.0
 10
2225.582144
 20
503.088987
 30
0.0
 10
2225.582144
 20
510.916987
 30
0.0
  0
SPLINE
  5
2b3
100
AcDbEntity
  8
W0102_Printing_40X30
 62
1
100
AcDbSpline
 70
8
 71
3
 72
8
 73
4
 74
0
 40
0
 40
0
 40
0
 40
0
 40
1
 40
1
 40
1
 40
1
 10
2225.582144
 20
510.916987
 30
0.0
 10
2225.582144
 20
518.744987
 30
0.0
 10
2231.927144
 20
525.089987
 30
0.0
 10
2239.755144
 20
525.089987
 30
0.0
  0
SPLINE
  5
2b4
100
AcDbEntity
  8
W0102_Printing_40X30
 62
1
100
AcDbSpline
 70
8
 71
3
 72
8
 73
4
 74
0
 40
0
 40
0
 40
0
 40
0
 40
1
 40
1
 40
1
 40
1
 10
2239.755144
 20
525.089987
 30
0.0
 10
2247.582144
 20
525.089987
 30
0.0
 10
2253.928144
 20
518.744987
 30
0.0
 10
2253.928144
 20
510.916987
 30
0.0
  0
LWPOLYLINE
  5
2b5
100
AcDbEntity
  8
W0102_Printing_40X30
 62
1
100
AcDbPolyline
 90
1
 70
1
 10
2253.928144
 20
553.436586
 30
0.0
  0
LWPOLYLINE
  5
2b6
100
AcDbEntity
  8
W0102_Printing_40X30
 62
1
100
AcDbPolyline
 90
1
 70
1
 10
2253.928144
 20
510.916987
 30
0.0
  0
ENDSEC
  0
SECTION
  2
OBJECTS
  0
DICTIONARY
  5
C
330
0
100
AcDbDictionary
  3
ACAD_GROUP
350
D
  3
ACAD_MLINESTYLE
350
17
  0
DICTIONARY
  5
D
330
C
100
AcDbDictionary
  0
DICTIONARY
  5
1A
330
C
100
AcDbDictionary
  0
DICTIONARY
  5
17
330
C
100
AcDbDictionary
  3
STANDARD
350
18
  0
DICTIONARY
  5
19
330
C
100
AcDbDictionary
  0
ENDSEC
  0
EOF
