  0
SECTION
  2
HEADER
  9
$ACADVER
  1
AC1014
  9
$HANDSEED
  5
FFFF
  9
$MEASUREMENT
 70
     1
  0
ENDSEC
  0
SECTION
  2
TABLES
  0
TABLE
  2
VPORT
  5
8
330
0
100
AcDbSymbolTable
 70
     4
  0
VPORT
  5
2E
330
8
100
AcDbSymbolTableRecord
100
AcDbViewportTableRecord
  2
*ACTIVE
 70
     0
 10
0.0
 20
0.0
 11
1.0
 21
1.0
 12
210.0
 22
148.5
 13
0.0
 23
0.0
 14
10.0
 24
10.0
 15
10.0
 25
10.0
 16
0.0
 26
0.0
 36
1.0
 17
0.0
 27
0.0
 37
0.0
 40
341.0
 41
1.24
 42
50.0
 43
0.0
 44
0.0
 50
0.0
 51
0.0
 71
     0
 72
   100
 73
     1
 74
     3
 75
     0
 76
     0
 77
     0
 78
     0
  0
ENDTAB
  0
TABLE
  2
LTYPE
  5
5
330
0
100
AcDbSymbolTable
 70
     1
  0
LTYPE
  5
14
330
5
100
AcDbSymbolTableRecord
100
AcDbLinetypeTableRecord
  2
BYBLOCK
 70
     0
  3

 72
    65
 73
     0
 40
0.0
  0
LTYPE
  5
15
330
5
100
AcDbSymbolTableRecord
100
AcDbLinetypeTableRecord
  2
BYLAYER
 70
     0
  3

 72
    65
 73
     0
 40
0.0
  0
LTYPE
  5
16
330
5
100
AcDbSymbolTableRecord
100
AcDbLinetypeTableRecord
  2
CONTINUOUS
 70
     0
  3
Solid line
 72
    65
 73
     0
 40
0.0
  0
ENDTAB
  0
TABLE
  2
LAYER
  5
2
100
AcDbSymbolTable
 70
36
  0
LAYER
  5
50
100
AcDbSymbolTableRecord
100
AcDbLayerTableRecord
  2
0
 70
0
  6
CONTINUOUS
  0
LAYER
  5
51
100
AcDbSymbolTableRecord
100
AcDbLayerTableRecord
  2
SECTION_CUTTING_LINE
 70
0
  6
CONTINUOUS
  0
LAYER
  5
52
100
AcDbSymbolTableRecord
100
AcDbLayerTableRecord
  2
DETAIL_VIEW_BORDER
 70
0
  6
CONTINUOUS
  0
LAYER
  5
53
100
AcDbSymbolTableRecord
100
AcDbLayerTableRecord
  2
DETAIL_VIEW_PARENT_BORDER
 70
0
  6
CONTINUOUS
  0
LAYER
  5
54
100
AcDbSymbolTableRecord
100
AcDbLayerTableRecord
  2
TEXT
 70
0
  6
CONTINUOUS
  0
LAYER
  5
55
100
AcDbSymbolTableRecord
100
AcDbLayerTableRecord
  2
SKETCHED_GEOMETRY
 70
0
  6
CONTINUOUS
  0
LAYER
  5
56
100
AcDbSymbolTableRecord
100
AcDbLayerTableRecord
  2
VIRTUAL_SHARPS
 70
0
  6
CONTINUOUS
  0
LAYER
  5
57
100
AcDbSymbolTableRecord
100
AcDbLayerTableRecord
  2
CENTERLINES
 70
0
  6
CONTINUOUS
  0
LAYER
  5
58
100
AcDbSymbolTableRecord
100
AcDbLayerTableRecord
  2
CENTERMARKS
 70
0
  6
CONTINUOUS
  0
LAYER
  5
59
100
AcDbSymbolTableRecord
100
AcDbLayerTableRecord
  2
TABLES
 70
0
  6
CONTINUOUS
  0
LAYER
  5
5a
100
AcDbSymbolTableRecord
100
AcDbLayerTableRecord
  2
IMAGES
 70
0
  6
CONTINUOUS
  0
LAYER
  5
5b
100
AcDbSymbolTableRecord
100
AcDbLayerTableRecord
  2
ANNOTATION_LINES
 70
0
  6
CONTINUOUS
  0
LAYER
  5
5c
100
AcDbSymbolTableRecord
100
AcDbLayerTableRecord
  2
ANNOTATION_TEXT
 70
0
  6
CONTINUOUS
  0
LAYER
  5
5d
100
AcDbSymbolTableRecord
100
AcDbLayerTableRecord
  2
SIDE_THREAD_SYMBOLS
 70
0
  6
CONTINUOUS
  0
LAYER
  5
5e
100
AcDbSymbolTableRecord
100
AcDbLayerTableRecord
  2
SIDE_THREAD_SYMBOLS_HIDDEN
 70
0
  6
CONTINUOUS
  0
LAYER
  5
5f
100
AcDbSymbolTableRecord
100
AcDbLayerTableRecord
  2
SURFACE_THREAD_SYMBOLS
 70
0
  6
CONTINUOUS
  0
LAYER
  5
60
100
AcDbSymbolTableRecord
100
AcDbLayerTableRecord
  2
SURFACE_THREAD_SYMBOLS_ON_
 70
0
  6
CONTINUOUS
  0
LAYER
  5
61
100
AcDbSymbolTableRecord
100
AcDbLayerTableRecord
  2
SURFACE_THREAD_SYMBOLS_HID
 70
0
  6
CONTINUOUS
  0
LAYER
  5
62
100
AcDbSymbolTableRecord
100
AcDbLayerTableRecord
  2
BLIND_THREAD_SYMBOLS
 70
0
  6
CONTINUOUS
  0
LAYER
  5
63
100
AcDbSymbolTableRecord
100
AcDbLayerTableRecord
  2
BLIND_THREAD_SYMBOLS_HIDDE
 70
0
  6
CONTINUOUS
  0
LAYER
  5
64
100
AcDbSymbolTableRecord
100
AcDbLayerTableRecord
  2
EXPLODE_LINES
 70
0
  6
CONTINUOUS
  0
LAYER
  5
65
100
AcDbSymbolTableRecord
100
AcDbLayerTableRecord
  2
BREAK_LINES
 70
0
  6
CONTINUOUS
  0
LAYER
  5
66
100
AcDbSymbolTableRecord
100
AcDbLayerTableRecord
  2
SHEETMETAL_BEND_LINES_UP
 70
0
  6
CONTINUOUS
  0
LAYER
  5
67
100
AcDbSymbolTableRecord
100
AcDbLayerTableRecord
  2
SHEETMETAL_BEND_LINES_DOWN
 70
0
  6
CONTINUOUS
  0
LAYER
  5
68
100
AcDbSymbolTableRecord
100
AcDbLayerTableRecord
  2
SHEETMETAL_BEND_TANGENT_LI
 70
0
  6
CONTINUOUS
  0
LAYER
  5
69
100
AcDbSymbolTableRecord
100
AcDbLayerTableRecord
  2
SHEETMETAL_CUT_LINES
 70
0
  6
CONTINUOUS
  0
LAYER
  5
6a
100
AcDbSymbolTableRecord
100
AcDbLayerTableRecord
  2
HIDDEN
 70
0
  6
CONTINUOUS
  0
LAYER
  5
6b
100
AcDbSymbolTableRecord
100
AcDbLayerTableRecord
  2
VISIBLE
 70
0
  6
CONTINUOUS
  0
LAYER
  5
6c
100
AcDbSymbolTableRecord
100
AcDbLayerTableRecord
  2
MODELSKETCH_VISIBLE
 70
0
  6
CONTINUOUS
  0
LAYER
  5
6d
100
AcDbSymbolTableRecord
100
AcDbLayerTableRecord
  2
MODELSKETCH_CONSTRUCTION
 70
0
  6
CONTINUOUS
  0
LAYER
  5
6e
100
AcDbSymbolTableRecord
100
AcDbLayerTableRecord
  2
HIDDEN_BASE_VIEW
 70
0
  6
CONTINUOUS
  0
LAYER
  5
6f
100
AcDbSymbolTableRecord
100
AcDbLayerTableRecord
  2
TANGENT_LINES
 70
0
  6
CONTINUOUS
  0
LAYER
  5
70
100
AcDbSymbolTableRecord
100
AcDbLayerTableRecord
  2
TANGENT_HIDDEN
 70
0
  6
CONTINUOUS
  0
LAYER
  5
71
100
AcDbSymbolTableRecord
100
AcDbLayerTableRecord
  2
INVISIBLE_LINES
 70
0
  6
CONTINUOUS
  0
LAYER
  5
72
100
AcDbSymbolTableRecord
100
AcDbLayerTableRecord
  2
VIEW_HATCHES
 70
0
  6
CONTINUOUS
  0
LAYER
  5
73
100
AcDbSymbolTableRecord
100
AcDbLayerTableRecord
  2
SECTION_JOG_LINES
 70
0
  6
CONTINUOUS
  0
ENDTAB
  0
TABLE
  2
STYLE
  5
3
330
0
100
AcDbSymbolTable
 70
     1
  0
STYLE
  5
11
330
3
100
AcDbSymbolTableRecord
100
AcDbTextStyleTableRecord
  2
STANDARD
 70
     0
 40
0.0
 41
1.0
 50
0.0
 71
     0
 42
2.5
  3
txt
  4

  0
ENDTAB
  0
TABLE
  2
VIEW
  5
6
330
0
100
AcDbSymbolTable
 70
     0
  0
ENDTAB
  0
TABLE
  2
UCS
  5
7
330
0
100
AcDbSymbolTable
 70
     0
  0
ENDTAB
  0
TABLE
  2
APPID
  5
9
330
0
100
AcDbSymbolTable
 70
     2
  0
APPID
  5
12
330
9
100
AcDbSymbolTableRecord
100
AcDbRegAppTableRecord
  2
ACAD
 70
     0
  0
ENDTAB
  0
TABLE
  2
DIMSTYLE
  5
A
330
0
100
AcDbSymbolTable
 70
     1
  0
DIMSTYLE
105
27
330
A
100
AcDbSymbolTableRecord
100
AcDbDimStyleTableRecord
  2
ISO-25
 70
     0
  3

  4

  5

  6

  7

 40
1.0
 41
2.5
 42
0.625
 43
3.75
 44
1.25
 45
0.0
 46
0.0
 47
0.0
 48
0.0
140
2.5
141
2.5
142
0.0
143
0.03937007874016
144
1.0
145
0.0
146
1.0
147
0.625
 71
     0
 72
     0
 73
     0
 74
     0
 75
     0
 76
     0
 77
     1
 78
     8
170
     0
171
     3
172
     1
173
     0
174
     0
175
     0
176
     0
177
     0
178
     0
270
     2
271
     2
272
     2
273
     2
274
     3
340
11
275
     0
280
     0
281
     0
282
     0
283
     0
284
     8
285
     0
286
     0
287
     3
288
     0
  0
ENDTAB
  0
TABLE
  2
BLOCK_RECORD
  5
1
330
0
100
AcDbSymbolTable
 70
     1
  0
BLOCK_RECORD
  5
1F
330
1
100
AcDbSymbolTableRecord
100
AcDbBlockTableRecord
  2
*MODEL_SPACE
  0
BLOCK_RECORD
  5
1B
330
1
100
AcDbSymbolTableRecord
100
AcDbBlockTableRecord
  2
*PAPER_SPACE
  0
ENDTAB
  0
ENDSEC
  0
SECTION
  2
BLOCKS
  0
BLOCK
  5
20
330
1F
100
AcDbEntity
  8
0
100
AcDbBlockBegin
  2
*MODEL_SPACE
 70
     0
 10
0.0
 20
0.0
 30
0.0
  3
*MODEL_SPACE
  1

  0
ENDBLK
  5
21
330
1F
100
AcDbEntity
  8
0
100
AcDbBlockEnd
  0
BLOCK
  5
1C
330
1B
100
AcDbEntity
 67
     1
  8
0
100
AcDbBlockBegin
  2
*PAPER_SPACE
  1

  0
ENDBLK
  5
1D
330
1B
100
AcDbEntity
 67
     1
  8
0
100
AcDbBlockEnd
  0
ENDSEC
  0
SECTION
  2
ENTITIES
  0
LWPOLYLINE
  5
100
100
AcDbEntity
  8
VISIBLE
 62
7
100
AcDbPolyline
 90
2
 70
0
 10
478.064175
 20
415.212829
 30
0.0
 10
469.689427
 20
416.689519
 30
0.0
  0
LWPOLYLINE
  5
101
100
AcDbEntity
  8
VISIBLE
 62
7
100
AcDbPolyline
 90
3
 70
0
 10
478.064175
 20
415.212829
 30
0.0
 10
471.501090
 20
377.991746
 30
0.0
 10
463.126350
 20
379.468444
 30
0.0
  0
LWPOLYLINE
  5
102
100
AcDbEntity
  8
VISIBLE
 62
7
100
AcDbPolyline
 90
2
 70
0
 10
469.689427
 20
416.689519
 30
0.0
 10
463.126350
 20
379.468444
 30
0.0
  0
LWPOLYLINE
  5
103
100
AcDbEntity
  8
VISIBLE
 62
7
100
AcDbPolyline
 90
2
 70
0
 10
464.938013
 20
340.770671
 30
0.0
 10
456.563265
 20
342.247361
 30
0.0
  0
LWPOLYLINE
  5
104
100
AcDbEntity
  8
VISIBLE
 62
7
100
AcDbPolyline
 90
3
 70
0
 10
464.938013
 20
340.770671
 30
0.0
 10
458.374928
 20
303.549589
 30
0.0
 10
450.000187
 20
305.026279
 30
0.0
  0
LWPOLYLINE
  5
105
100
AcDbEntity
  8
VISIBLE
 62
7
100
AcDbPolyline
 90
2
 70
0
 10
456.563265
 20
342.247361
 30
0.0
 10
450.000188
 20
305.026279
 30
0.0
  0
LWPOLYLINE
  5
106
100
AcDbEntity
  8
VISIBLE
 62
7
100
AcDbPolyline
 90
2
 70
0
 10
451.811850
 20
266.328506
 30
0.0
 10
443.437110
 20
267.805204
 30
0.0
  0
LWPOLYLINE
  5
107
100
AcDbEntity
  8
VISIBLE
 62
7
100
AcDbPolyline
 90
3
 70
0
 10
451.811850
 20
266.328506
 30
0.0
 10
445.248772
 20
229.107424
 30
0.0
 10
436.874025
 20
230.584121
 30
0.0
  0
LWPOLYLINE
  5
108
100
AcDbEntity
  8
VISIBLE
 62
7
100
AcDbPolyline
 90
2
 70
0
 10
443.437110
 20
267.805204
 30
0.0
 10
436.874025
 20
230.584121
 30
0.0
  0
LWPOLYLINE
  5
109
100
AcDbEntity
  8
VISIBLE
 62
7
100
AcDbPolyline
 90
2
 70
0
 10
491.190337
 20
489.654986
 30
0.0
 10
482.815590
 20
491.131684
 30
0.0
  0
LWPOLYLINE
  5
10a
100
AcDbEntity
  8
VISIBLE
 62
7
100
AcDbPolyline
 90
3
 70
0
 10
491.190337
 20
489.654986
 30
0.0
 10
484.627252
 20
452.433911
 30
0.0
 10
476.252512
 20
453.910601
 30
0.0
  0
LWPOLYLINE
  5
10b
100
AcDbEntity
  8
VISIBLE
 62
7
100
AcDbPolyline
 90
2
 70
0
 10
482.815590
 20
491.131684
 30
0.0
 10
476.252512
 20
453.910601
 30
0.0
  0
LWPOLYLINE
  5
10c
100
AcDbEntity
  8
VISIBLE
 62
7
100
AcDbPolyline
 90
2
 70
0
 10
234.757215
 20
193.363039
 30
0.0
 10
234.757215
 20
201.866974
 30
0.0
  0
LWPOLYLINE
  5
10d
100
AcDbEntity
  8
VISIBLE
 62
7
100
AcDbPolyline
 90
3
 70
0
 10
234.757215
 20
193.363039
 30
0.0
 10
195.646470
 20
193.363039
 30
0.0
 10
195.646470
 20
201.866974
 30
0.0
  0
LWPOLYLINE
  5
10e
100
AcDbEntity
  8
VISIBLE
 62
7
100
AcDbPolyline
 90
2
 70
0
 10
234.757215
 20
201.866974
 30
0.0
 10
195.646470
 20
201.866974
 30
0.0
  0
LWPOLYLINE
  5
10f
100
AcDbEntity
  8
VISIBLE
 62
7
100
AcDbPolyline
 90
2
 70
0
 10
312.978705
 20
193.363039
 30
0.0
 10
312.978705
 20
201.866974
 30
0.0
  0
LWPOLYLINE
  5
110
100
AcDbEntity
  8
VISIBLE
 62
7
100
AcDbPolyline
 90
3
 70
0
 10
312.978705
 20
193.363039
 30
0.0
 10
273.867960
 20
193.363039
 30
0.0
 10
273.867960
 20
201.866974
 30
0.0
  0
LWPOLYLINE
  5
111
100
AcDbEntity
  8
VISIBLE
 62
7
100
AcDbPolyline
 90
2
 70
0
 10
312.978705
 20
201.866974
 30
0.0
 10
273.867960
 20
201.866974
 30
0.0
  0
LWPOLYLINE
  5
112
100
AcDbEntity
  8
VISIBLE
 62
7
100
AcDbPolyline
 90
2
 70
0
 10
391.200203
 20
193.363039
 30
0.0
 10
391.200203
 20
201.866974
 30
0.0
  0
LWPOLYLINE
  5
113
100
AcDbEntity
  8
VISIBLE
 62
7
100
AcDbPolyline
 90
3
 70
0
 10
391.200203
 20
193.363039
 30
0.0
 10
352.089457
 20
193.363039
 30
0.0
 10
352.089457
 20
201.866974
 30
0.0
  0
LWPOLYLINE
  5
114
100
AcDbEntity
  8
VISIBLE
 62
7
100
AcDbPolyline
 90
2
 70
0
 10
391.200203
 20
201.866974
 30
0.0
 10
352.089457
 20
201.866974
 30
0.0
  0
LWPOLYLINE
  5
115
100
AcDbEntity
  8
VISIBLE
 62
7
100
AcDbPolyline
 90
2
 70
0
 10
128.471737
 20
303.549589
 30
0.0
 10
136.846485
 20
305.026279
 30
0.0
  0
LWPOLYLINE
  5
116
100
AcDbEntity
  8
VISIBLE
 62
7
100
AcDbPolyline
 90
3
 70
0
 10
128.471737
 20
303.549589
 30
0.0
 10
121.908660
 20
340.770671
 30
0.0
 10
130.283400
 20
342.247361
 30
0.0
  0
LWPOLYLINE
  5
117
100
AcDbEntity
  8
VISIBLE
 62
7
100
AcDbPolyline
 90
2
 70
0
 10
136.846485
 20
305.026279
 30
0.0
 10
130.283400
 20
342.247361
 30
0.0
  0
LWPOLYLINE
  5
118
100
AcDbEntity
  8
VISIBLE
 62
7
100
AcDbPolyline
 90
2
 70
0
 10
115.345582
 20
377.991746
 30
0.0
 10
123.720323
 20
379.468444
 30
0.0
  0
LWPOLYLINE
  5
119
100
AcDbEntity
  8
VISIBLE
 62
7
100
AcDbPolyline
 90
3
 70
0
 10
115.345582
 20
377.991746
 30
0.0
 10
108.782498
 20
415.212829
 30
0.0
 10
117.157245
 20
416.689519
 30
0.0
  0
LWPOLYLINE
  5
11a
100
AcDbEntity
  8
VISIBLE
 62
7
100
AcDbPolyline
 90
2
 70
0
 10
123.720323
 20
379.468444
 30
0.0
 10
117.157245
 20
416.689519
 30
0.0
  0
LWPOLYLINE
  5
11b
100
AcDbEntity
  8
VISIBLE
 62
7
100
AcDbPolyline
 90
2
 70
0
 10
102.219420
 20
452.433911
 30
0.0
 10
110.594160
 20
453.910601
 30
0.0
  0
LWPOLYLINE
  5
11c
100
AcDbEntity
  8
VISIBLE
 62
7
100
AcDbPolyline
 90
3
 70
0
 10
102.219420
 20
452.433911
 30
0.0
 10
95.656335
 20
489.654986
 30
0.0
 10
104.031082
 20
491.131684
 30
0.0
  0
LWPOLYLINE
  5
11d
100
AcDbEntity
  8
VISIBLE
 62
7
100
AcDbPolyline
 90
2
 70
0
 10
110.594160
 20
453.910601
 30
0.0
 10
104.031082
 20
491.131684
 30
0.0
  0
LWPOLYLINE
  5
11e
100
AcDbEntity
  8
VISIBLE
 62
7
100
AcDbPolyline
 90
2
 70
0
 10
141.597900
 20
229.107424
 30
0.0
 10
149.972647
 20
230.584121
 30
0.0
  0
LWPOLYLINE
  5
11f
100
AcDbEntity
  8
VISIBLE
 62
7
100
AcDbPolyline
 90
3
 70
0
 10
141.597900
 20
229.107424
 30
0.0
 10
135.034823
 20
266.328506
 30
0.0
 10
143.409562
 20
267.805204
 30
0.0
  0
SPLINE
  5
120
100
AcDbEntity
  8
VISIBLE
 62
7
100
AcDbSpline
 70
8
 71
3
 72
8
 73
4
 74
0
 40
0
 40
0
 40
0
 40
0
 40
1
 40
1
 40
1
 40
1
 10
386.946178
 20
617.409394
 30
0.0
 10
388.297897
 20
625.713956
 30
0.0
 10
385.116506
 20
634.108822
 30
0.0
 10
378.600404
 20
639.431726
 30
0.0
  0
SPLINE
  5
121
100
AcDbEntity
  8
VISIBLE
 62
7
100
AcDbSpline
 70
8
 71
3
 72
8
 73
4
 74
0
 40
0
 40
0
 40
0
 40
0
 40
1
 40
1
 40
1
 40
1
 10
378.600404
 20
639.431726
 30
0.0
 10
372.084302
 20
644.754630
 30
0.0
 10
363.223440
 20
646.196897
 30
0.0
 10
355.355618
 20
643.215239
 30
0.0
  0
SPLINE
  5
122
100
AcDbEntity
  8
VISIBLE
 62
7
100
AcDbSpline
 70
8
 71
3
 72
8
 73
4
 74
0
 40
0
 40
0
 40
0
 40
0
 40
1
 40
1
 40
1
 40
1
 10
355.355618
 20
643.215239
 30
0.0
 10
347.487797
 20
640.233581
 30
0.0
 10
341.808326
 20
633.280983
 30
0.0
 10
340.456607
 20
624.976421
 30
0.0
  0
SPLINE
  5
123
100
AcDbEntity
  8
VISIBLE
 62
7
100
AcDbSpline
 70
8
 71
3
 72
8
 73
4
 74
0
 40
0
 40
0
 40
0
 40
0
 40
1
 40
1
 40
1
 40
1
 10
340.456604
 20
624.976421
 30
0.0
 10
340.908920
 20
633.378106
 30
0.0
 10
336.844632
 20
641.382890
 30
0.0
 10
329.794717
 20
645.975450
 30
0.0
  0
SPLINE
  5
124
100
AcDbEntity
  8
VISIBLE
 62
7
100
AcDbSpline
 70
8
 71
3
 72
8
 73
4
 74
0
 40
0
 40
0
 40
0
 40
0
 40
1
 40
1
 40
1
 40
1
 10
329.794717
 20
645.975450
 30
0.0
 10
322.744802
 20
650.568009
 30
0.0
 10
313.780311
 20
651.050624
 30
0.0
 10
306.278081
 20
647.241498
 30
0.0
  0
SPLINE
  5
125
100
AcDbEntity
  8
VISIBLE
 62
7
100
AcDbSpline
 70
8
 71
3
 72
8
 73
4
 74
0
 40
0
 40
0
 40
0
 40
0
 40
1
 40
1
 40
1
 40
1
 10
306.278081
 20
647.241498
 30
0.0
 10
298.775851
 20
643.432373
 30
0.0
 10
293.875649
 20
635.910203
 30
0.0
 10
293.423333
 20
627.508519
 30
0.0
  0
SPLINE
  5
126
100
AcDbEntity
  8
VISIBLE
 62
7
100
AcDbSpline
 70
8
 71
3
 72
8
 73
4
 74
0
 40
0
 40
0
 40
0
 40
0
 40
1
 40
1
 40
1
 40
1
 10
293.423332
 20
627.508519
 30
0.0
 10
292.975248
 20
635.913363
 30
0.0
 10
288.075760
 20
643.440164
 30
0.0
 10
280.571581
 20
647.251922
 30
0.0
  0
SPLINE
  5
127
100
AcDbEntity
  8
VISIBLE
 62
7
100
AcDbSpline
 70
8
 71
3
 72
8
 73
4
 74
0
 40
0
 40
0
 40
0
 40
0
 40
1
 40
1
 40
1
 40
1
 10
280.571581
 20
647.251922
 30
0.0
 10
273.067402
 20
651.063680
 30
0.0
 10
264.099425
 20
650.580877
 30
0.0
 10
257.047856
 20
645.985491
 30
0.0
  0
SPLINE
  5
128
100
AcDbEntity
  8
VISIBLE
 62
7
100
AcDbSpline
 70
8
 71
3
 72
8
 73
4
 74
0
 40
0
 40
0
 40
0
 40
0
 40
1
 40
1
 40
1
 40
1
 10
257.047856
 20
645.985491
 30
0.0
 10
249.996287
 20
641.390106
 30
0.0
 10
245.933206
 20
633.380793
 30
0.0
 10
246.390067
 20
624.976421
 30
0.0
  0
SPLINE
  5
129
100
AcDbEntity
  8
VISIBLE
 62
7
100
AcDbSpline
 70
8
 71
3
 72
8
 73
4
 74
0
 40
0
 40
0
 40
0
 40
0
 40
1
 40
1
 40
1
 40
1
 10
246.390066
 20
624.976421
 30
0.0
 10
245.038347
 20
633.280983
 30
0.0
 10
239.358875
 20
640.233581
 30
0.0
 10
231.491054
 20
643.215239
 30
0.0
  0
SPLINE
  5
12a
100
AcDbEntity
  8
VISIBLE
 62
7
100
AcDbSpline
 70
8
 71
3
 72
8
 73
4
 74
0
 40
0
 40
0
 40
0
 40
0
 40
1
 40
1
 40
1
 40
1
 10
231.491054
 20
643.215239
 30
0.0
 10
223.623233
 20
646.196897
 30
0.0
 10
214.762371
 20
644.754630
 30
0.0
 10
208.246268
 20
639.431726
 30
0.0
  0
SPLINE
  5
12b
100
AcDbEntity
  8
VISIBLE
 62
7
100
AcDbSpline
 70
8
 71
3
 72
8
 73
4
 74
0
 40
0
 40
0
 40
0
 40
0
 40
1
 40
1
 40
1
 40
1
 10
208.246268
 20
639.431726
 30
0.0
 10
201.730166
 20
634.108822
 30
0.0
 10
198.548775
 20
625.713956
 30
0.0
 10
199.900494
 20
617.409394
 30
0.0
  0
SPLINE
  5
12c
100
AcDbEntity
  8
VISIBLE
 62
7
100
AcDbSpline
 70
8
 71
3
 72
8
 73
4
 74
0
 40
0
 40
0
 40
0
 40
0
 40
1
 40
1
 40
1
 40
1
 10
199.900493
 20
617.409394
 30
0.0
 10
196.441945
 20
629.945210
 30
0.0
 10
183.477512
 20
637.305258
 30
0.0
 10
170.940747
 20
633.850154
 30
0.0
  0
SPLINE
  5
12d
100
AcDbEntity
  8
VISIBLE
 62
7
100
AcDbSpline
 70
8
 71
3
 72
8
 73
4
 74
0
 40
0
 40
0
 40
0
 40
0
 40
1
 40
1
 40
1
 40
1
 10
170.940747
 20
633.850154
 30
0.0
 10
158.403982
 20
630.395049
 30
0.0
 10
151.040373
 20
617.432637
 30
0.0
 10
154.492035
 20
604.894924
 30
0.0
  0
SPLINE
  5
12e
100
AcDbEntity
  8
VISIBLE
 62
7
100
AcDbSpline
 70
8
 71
3
 72
8
 73
4
 74
0
 40
0
 40
0
 40
0
 40
0
 40
1
 40
1
 40
1
 40
1
 10
154.492033
 20
604.894923
 30
0.0
 10
149.710002
 20
616.990629
 30
0.0
 10
136.027893
 20
622.919533
 30
0.0
 10
123.932187
 20
618.137503
 30
0.0
  0
SPLINE
  5
12f
100
AcDbEntity
  8
VISIBLE
 62
7
100
AcDbSpline
 70
8
 71
3
 72
8
 73
4
 74
0
 40
0
 40
0
 40
0
 40
0
 40
1
 40
1
 40
1
 40
1
 10
123.932187
 20
618.137503
 30
0.0
 10
111.836481
 20
613.355472
 30
0.0
 10
105.907577
 20
599.673363
 30
0.0
 10
110.689607
 20
587.577657
 30
0.0
  0
SPLINE
  5
130
100
AcDbEntity
  8
VISIBLE
 62
7
100
AcDbSpline
 70
8
 71
3
 72
8
 73
4
 74
0
 40
0
 40
0
 40
0
 40
0
 40
1
 40
1
 40
1
 40
1
 10
110.689605
 20
587.577656
 30
0.0
 10
105.288878
 20
597.849453
 30
0.0
 10
93.210364
 20
602.655849
 30
0.0
 10
82.228831
 20
598.903035
 30
0.0
  0
SPLINE
  5
131
100
AcDbEntity
  8
VISIBLE
 62
7
100
AcDbSpline
 70
8
 71
3
 72
8
 73
4
 74
0
 40
0
 40
0
 40
0
 40
0
 40
1
 40
1
 40
1
 40
1
 10
82.228831
 20
598.903035
 30
0.0
 10
71.247299
 20
595.150220
 30
0.0
 10
64.636487
 20
583.956958
 30
0.0
 10
66.651682
 20
572.528194
 30
0.0
  0
LWPOLYLINE
  5
132
100
AcDbEntity
  8
VISIBLE
 62
7
100
AcDbPolyline
 90
2
 70
0
 10
149.972647
 20
230.584121
 30
0.0
 10
143.409562
 20
267.805204
 30
0.0
  0
SPLINE
  5
133
100
AcDbEntity
  8
VISIBLE
 62
7
100
AcDbSpline
 70
8
 71
3
 72
8
 73
4
 74
0
 40
0
 40
0
 40
0
 40
0
 40
1
 40
1
 40
1
 40
1
 10
85.492238
 20
151.078519
 30
0.0
 10
97.370378
 20
145.894474
 30
0.0
 10
111.136916
 20
147.662005
 30
0.0
 10
121.320185
 20
155.678587
 30
0.0
  0
SPLINE
  5
134
100
AcDbEntity
  8
VISIBLE
 62
7
100
AcDbSpline
 70
8
 71
3
 72
8
 73
4
 74
0
 40
0
 40
0
 40
0
 40
0
 40
1
 40
1
 40
1
 40
1
 10
121.320185
 20
155.678587
 30
0.0
 10
131.503453
 20
163.695170
 30
0.0
 10
136.453580
 20
176.661973
 30
0.0
 10
134.203080
 20
189.425194
 30
0.0
  0
SPLINE
  5
135
100
AcDbEntity
  8
VISIBLE
 62
7
100
AcDbSpline
 70
8
 71
3
 72
8
 73
4
 74
0
 40
0
 40
0
 40
0
 40
0
 40
1
 40
1
 40
1
 40
1
 10
85.492237
 20
151.078518
 30
0.0
 10
73.571412
 20
156.281193
 30
0.0
 10
59.690071
 20
150.835057
 30
0.0
 10
54.487396
 20
138.914231
 30
0.0
  0
SPLINE
  5
136
100
AcDbEntity
  8
VISIBLE
 62
7
100
AcDbSpline
 70
8
 71
3
 72
8
 73
4
 74
0
 40
0
 40
0
 40
0
 40
0
 40
1
 40
1
 40
1
 40
1
 10
54.487396
 20
138.914231
 30
0.0
 10
49.284720
 20
126.993406
 30
0.0
 10
54.730857
 20
113.112065
 30
0.0
 10
66.651682
 20
107.909390
 30
0.0
  0
SPLINE
  5
137
100
AcDbEntity
  8
VISIBLE
 62
7
100
AcDbSpline
 70
8
 71
3
 72
8
 73
4
 74
0
 40
0
 40
0
 40
0
 40
0
 40
1
 40
1
 40
1
 40
1
 10
66.651682
 20
107.909389
 30
0.0
 10
211.247220
 20
44.802722
 30
0.0
 10
375.599451
 20
44.802722
 30
0.0
 10
520.194990
 20
107.909389
 30
0.0
  0
SPLINE
  5
138
100
AcDbEntity
  8
VISIBLE
 62
7
100
AcDbSpline
 70
8
 71
3
 72
8
 73
4
 74
0
 40
0
 40
0
 40
0
 40
0
 40
1
 40
1
 40
1
 40
1
 10
520.194990
 20
107.909390
 30
0.0
 10
527.906412
 20
111.274930
 30
0.0
 10
533.236565
 20
118.498813
 30
0.0
 10
534.177632
 20
126.859871
 30
0.0
  0
SPLINE
  5
139
100
AcDbEntity
  8
VISIBLE
 62
7
100
AcDbSpline
 70
8
 71
3
 72
8
 73
4
 74
0
 40
0
 40
0
 40
0
 40
0
 40
1
 40
1
 40
1
 40
1
 10
534.177632
 20
126.859871
 30
0.0
 10
535.118699
 20
135.220929
 30
0.0
 10
531.527710
 20
143.448918
 30
0.0
 10
524.757355
 20
148.444435
 30
0.0
  0
SPLINE
  5
13a
100
AcDbEntity
  8
VISIBLE
 62
7
100
AcDbSpline
 70
8
 71
3
 72
8
 73
4
 74
0
 40
0
 40
0
 40
0
 40
0
 40
1
 40
1
 40
1
 40
1
 10
524.757355
 20
148.444435
 30
0.0
 10
517.987000
 20
153.439952
 30
0.0
 10
509.065857
 20
154.444059
 30
0.0
 10
501.354435
 20
151.078518
 30
0.0
  0
SPLINE
  5
13b
100
AcDbEntity
  8
VISIBLE
 62
7
100
AcDbSpline
 70
8
 71
3
 72
8
 73
4
 74
0
 40
0
 40
0
 40
0
 40
0
 40
1
 40
1
 40
1
 40
1
 10
452.643593
 20
189.425194
 30
0.0
 10
450.393093
 20
176.661973
 30
0.0
 10
455.343220
 20
163.695170
 30
0.0
 10
465.526488
 20
155.678587
 30
0.0
  0
SPLINE
  5
13c
100
AcDbEntity
  8
VISIBLE
 62
7
100
AcDbSpline
 70
8
 71
3
 72
8
 73
4
 74
0
 40
0
 40
0
 40
0
 40
0
 40
1
 40
1
 40
1
 40
1
 10
465.526488
 20
155.678587
 30
0.0
 10
475.709756
 20
147.662005
 30
0.0
 10
489.476295
 20
145.894474
 30
0.0
 10
501.354435
 20
151.078519
 30
0.0
  0
LWPOLYLINE
  5
13d
100
AcDbEntity
  8
VISIBLE
 62
7
100
AcDbPolyline
 90
2
 70
0
 10
66.651682
 20
572.528194
 30
0.0
 10
134.203080
 20
189.425194
 30
0.0
  0
SPLINE
  5
13e
100
AcDbEntity
  8
VISIBLE
 62
7
100
AcDbSpline
 70
8
 71
3
 72
8
 73
4
 74
0
 40
0
 40
0
 40
0
 40
0
 40
1
 40
1
 40
1
 40
1
 10
520.194990
 20
572.528194
 30
0.0
 10
522.210184
 20
583.956958
 30
0.0
 10
515.599372
 20
595.150218
 30
0.0
 10
504.617840
 20
598.903033
 30
0.0
  0
SPLINE
  5
13f
100
AcDbEntity
  8
VISIBLE
 62
7
100
AcDbSpline
 70
8
 71
3
 72
8
 73
4
 74
0
 40
0
 40
0
 40
0
 40
0
 40
1
 40
1
 40
1
 40
1
 10
504.617840
 20
598.903033
 30
0.0
 10
493.636309
 20
602.655847
 30
0.0
 10
481.557795
 20
597.849452
 30
0.0
 10
476.157067
 20
587.577656
 30
0.0
  0
SPLINE
  5
140
100
AcDbEntity
  8
VISIBLE
 62
7
100
AcDbSpline
 70
8
 71
3
 72
8
 73
4
 74
0
 40
0
 40
0
 40
0
 40
0
 40
1
 40
1
 40
1
 40
1
 10
476.157065
 20
587.577657
 30
0.0
 10
479.250497
 20
595.402207
 30
0.0
 10
477.934598
 20
604.282715
 30
0.0
 10
472.705055
 20
610.873980
 30
0.0
  0
SPLINE
  5
141
100
AcDbEntity
  8
VISIBLE
 62
7
100
AcDbSpline
 70
8
 71
3
 72
8
 73
4
 74
0
 40
0
 40
0
 40
0
 40
0
 40
1
 40
1
 40
1
 40
1
 10
472.705055
 20
610.873980
 30
0.0
 10
467.475512
 20
617.465245
 30
0.0
 10
459.126817
 20
620.765897
 30
0.0
 10
450.803842
 20
619.532613
 30
0.0
  0
SPLINE
  5
142
100
AcDbEntity
  8
VISIBLE
 62
7
100
AcDbSpline
 70
8
 71
3
 72
8
 73
4
 74
0
 40
0
 40
0
 40
0
 40
0
 40
1
 40
1
 40
1
 40
1
 10
450.803842
 20
619.532613
 30
0.0
 10
442.480868
 20
618.299328
 30
0.0
 10
435.448071
 20
612.719472
 30
0.0
 10
432.354640
 20
604.894923
 30
0.0
  0
SPLINE
  5
143
100
AcDbEntity
  8
VISIBLE
 62
7
100
AcDbSpline
 70
8
 71
3
 72
8
 73
4
 74
0
 40
0
 40
0
 40
0
 40
0
 40
1
 40
1
 40
1
 40
1
 10
432.354637
 20
604.894924
 30
0.0
 10
435.806299
 20
617.432637
 30
0.0
 10
428.442691
 20
630.395049
 30
0.0
 10
415.905926
 20
633.850154
 30
0.0
  0
SPLINE
  5
144
100
AcDbEntity
  8
VISIBLE
 62
7
100
AcDbSpline
 70
8
 71
3
 72
8
 73
4
 74
0
 40
0
 40
0
 40
0
 40
0
 40
1
 40
1
 40
1
 40
1
 10
415.905926
 20
633.850154
 30
0.0
 10
403.369161
 20
637.305258
 30
0.0
 10
390.404727
 20
629.945210
 30
0.0
 10
386.946180
 20
617.409394
 30
0.0
  0
LWPOLYLINE
  5
145
100
AcDbEntity
  8
VISIBLE
 62
7
100
AcDbPolyline
 90
2
 70
0
 10
520.194990
 20
572.528194
 30
0.0
 10
452.643592
 20
189.425194
 30
0.0
  0
LWPOLYLINE
  5
146
100
AcDbEntity
  8
VISIBLE
 62
7
100
AcDbPolyline
 90
10
 70
1
 10
301.978628
 20
569.748409
 30
0.0
 10
307.266082
 20
553.475284
 30
0.0
 10
293.423333
 20
563.532626
 30
0.0
 10
279.580590
 20
553.475284
 30
0.0
 10
284.868045
 20
569.748409
 30
0.0
 10
271.025295
 20
579.805759
 30
0.0
 10
288.135877
 20
579.805759
 30
0.0
 10
293.423333
 20
596.078884
 30
0.0
 10
298.710795
 20
579.805759
 30
0.0
 10
315.821378
 20
579.805759
 30
0.0
  0
ENDSEC
  0
SECTION
  2
OBJECTS
  0
DICTIONARY
  5
C
330
0
100
AcDbDictionary
  3
ACAD_GROUP
350
D
  3
ACAD_MLINESTYLE
350
17
  0
DICTIONARY
  5
D
330
C
100
AcDbDictionary
  0
DICTIONARY
  5
1A
330
C
100
AcDbDictionary
  0
DICTIONARY
  5
17
330
C
100
AcDbDictionary
  3
STANDARD
350
18
  0
DICTIONARY
  5
19
330
C
100
AcDbDictionary
  0
ENDSEC
  0
EOF
