<?xml version="1.0" encoding="UTF-8" standalone="no"?>
<svg
   xmlns:dc="http://purl.org/dc/elements/1.1/"
   xmlns:cc="http://creativecommons.org/ns#"
   xmlns:rdf="http://www.w3.org/1999/02/22-rdf-syntax-ns#"
   xmlns:svg="http://www.w3.org/2000/svg"
   xmlns="http://www.w3.org/2000/svg"
   xmlns:sodipodi="http://sodipodi.sourceforge.net/DTD/sodipodi-0.dtd"
   xmlns:inkscape="http://www.inkscape.org/namespaces/inkscape"
   version="1.1"
   width="595.27557"
   height="841.88977"
   id="svg162"
   viewBox="0 0 595.27557 841.88977"
   sodipodi:docname="box template file cdr and dxf free vector download for Laser cut CNC.svg"
   inkscape:version="0.92.4 (5da689c313, 2019-01-14)">
  <metadata
     id="metadata168">
    <rdf:RDF>
      <cc:Work
         rdf:about="">
        <dc:format>image/svg+xml</dc:format>
        <dc:type
           rdf:resource="http://purl.org/dc/dcmitype/StillImage" />
        <dc:title></dc:title>
      </cc:Work>
    </rdf:RDF>
  </metadata>
  <defs
     id="defs166" />
  <sodipodi:namedview
     pagecolor="#ffffff"
     bordercolor="#666666"
     borderopacity="1"
     objecttolerance="10"
     gridtolerance="10"
     guidetolerance="10"
     inkscape:pageopacity="0"
     inkscape:pageshadow="2"
     inkscape:window-width="640"
     inkscape:window-height="480"
     id="namedview164"
     showgrid="false"
     inkscape:zoom="0.80770669"
     inkscape:cx="297.63779"
     inkscape:cy="420.94489"
     inkscape:window-x="0"
     inkscape:window-y="0"
     inkscape:window-maximized="1"
     inkscape:current-layer="svg162" />
  <path
     d="m -3690.5681,-836.1743 c 1.5587,0 2.8343,1.2793 2.8343,2.8347 0,0 0,202.11 0,202.11 0,1.5553 -1.2792,2.8346 -2.8343,2.8346 0,0 -54.5672,0 -54.5672,0 0,0 0,7.6535 0,7.6535 0,0 -15.5905,0 -15.5905,0 0,0 0,-7.6535 0,-7.6535 0,0 -54.5669,0 -54.5669,0 -1.5565,0 -2.8346,-1.2756 -2.8346,-2.8346 0,0 0.015,-93.4432 0,-93.4007 0,0 -7.6535,0 -7.6535,0 0,0 0,-15.5905 0,-15.5905 0,0 7.6535,0 7.6535,0 0.03,0.0221 0,-93.1188 0,-93.1188 -3e-4,-1.5591 1.2756,-2.8347 2.8346,-2.8347 0,0 54.5675,0 54.5675,0 0,0 0,-7.6535 0,-7.6535 0,0 15.5902,0 15.5902,0 0,0 0,7.6535 0,7.6535 0,0 54.5669,0 54.5669,0 z"
     style="fill:none;stroke:#1e2e26;stroke-width:0.21600001;stroke-linecap:butt;stroke-linejoin:miter;stroke-dasharray:none"
     id="path10"
     inkscape:connector-curvature="0" />
  <path
     d="m -3951.9885,-843.4211 c 0,0 0.01,105.0618 0.01,105.0618 0,0 7.7604,0 7.7604,0 0,0 0,-2.1251 0,-2.1251 0,0 6.5196,0 6.5196,0 0.7793,0 1.4173,0.6375 1.4173,1.4173 0,0 0,17.0076 0,17.0076 0,0.7798 -0.638,1.4176 -1.4173,1.4176 0,0 -6.5196,0 -6.5196,0 0,0 0,-2.1269 0,-2.1269 0,0 -7.7604,0 -7.7604,0 0,0 -0.01,106.1191 -0.01,106.1191 0,3.1179 -2.5514,5.6693 -5.6693,5.6693 0,0 -99.2125,0 -99.2125,0 0,0 0,-7.0866 0,-7.0866 0,0 52.3324,0 52.3324,0 0,0 0,-7.937 0,-7.937 0,0 -52.3324,0 -52.3324,0 0,0 0,-208.0627 0,-208.0627 0,0 52.3341,0 52.3341,0 0,0 0,-7.937 0,-7.937 0,0 -52.3341,0 -52.3341,0 0,0 0,-7.0866 0,-7.0866 0,0 99.2125,0 99.2125,0 3.1181,0 5.669,2.5514 5.6693,5.6692 z"
     style="fill:none;stroke:#1e2e26;stroke-width:0.21600001;stroke-linecap:butt;stroke-linejoin:miter;stroke-dasharray:none"
     id="path12"
     inkscape:connector-curvature="0" />
  <path
     d="m -3918.9833,-739.706 c 0,0 0,15.5905 0,15.5905 0,0 -7.7953,0 -7.7953,0 0,0 0,-15.5905 0,-15.5905 0,0 7.7953,0 7.7953,0 z m -13.5354,-96.2356 c 0,0 52.3124,0 52.3124,0 0,0 0,-7.937 0,-7.937 0,0 -52.3124,0 -52.3124,0 0,0 0,-7.0866 0,-7.0866 0,0 99.2124,0 99.2124,0 3.1181,0 5.6693,2.5512 5.6693,5.6693 0,0 0,226.7714 0,226.7714 0,3.1181 -2.5512,5.6693 -5.6693,5.6693 0,0 -99.2124,0 -99.2124,0 0,0 0,-7.0866 0,-7.0866 0,0 52.2892,0 52.2892,0 0,0 0,-7.937 0,-7.937 0,0 -52.2892,0 -52.2892,0 0,0 0,-208.0628 0,-208.0628 z"
     style="fill:none;stroke:#1e2e26;stroke-width:0.21600001;stroke-linecap:butt;stroke-linejoin:miter;stroke-dasharray:none"
     id="path14"
     inkscape:connector-curvature="0" />
  <path
     d="m -4232.1966,-640.7926 c -6.1098,-2.5796 -10.398,-8.6267 -10.398,-15.6756 0,-6.7448 3.926,-12.5728 9.6177,-15.3227"
     style="fill:none;stroke:#1e2e26;stroke-width:0.21600001;stroke-linecap:butt;stroke-linejoin:miter;stroke-dasharray:none"
     id="path16"
     inkscape:connector-curvature="0" />
  <path
     d="m -4207.9581,-620.498 c -2.2348,6.7845 -8.6244,11.6824 -16.1575,11.6824 -9.3931,0 -17.0078,-7.6147 -17.0078,-17.0078 0,-6.4684 3.6107,-12.0935 8.9268,-14.9692"
     style="fill:none;stroke:#1e2e26;stroke-width:0.21600001;stroke-linecap:butt;stroke-linejoin:miter;stroke-dasharray:none"
     id="path18"
     inkscape:connector-curvature="0" />
  <path
     d="m -4231.9647,-825.3609 c -5.4232,-2.8423 -9.1236,-8.5264 -9.1236,-15.0741 0,-9.3932 7.6147,-17.0079 17.0079,-17.0079 7.5331,0 13.9226,4.898 16.1575,11.6824"
     style="fill:none;stroke:#1e2e26;stroke-width:0.21600001;stroke-linecap:butt;stroke-linejoin:miter;stroke-dasharray:none"
     id="path20"
     inkscape:connector-curvature="0" />
  <path
     d="m -4176.0683,-619.3494 c -2.5464,6.1821 -8.6312,10.5338 -15.7323,10.5338 -7.5331,0 -13.9226,-4.8979 -16.1575,-11.6824"
     style="fill:none;stroke:#1e2e26;stroke-width:0.21600001;stroke-linecap:butt;stroke-linejoin:miter;stroke-dasharray:none"
     id="path22"
     inkscape:connector-curvature="0" />
  <path
     d="m -4207.9229,-845.7605 c 2.2348,-6.7844 8.6244,-11.6824 16.1575,-11.6824 7.101,0 13.1859,4.3518 15.7322,10.5338"
     style="fill:none;stroke:#1e2e26;stroke-width:0.21600001;stroke-linecap:butt;stroke-linejoin:miter;stroke-dasharray:none"
     id="path24"
     inkscape:connector-curvature="0" />
  <path
     d="m -4144.3203,-620.0858 c -2.3539,6.5698 -8.636,11.2702 -16.0157,11.2702 -7.1011,0 -13.186,-4.3517 -15.7323,-10.5338"
     style="fill:none;stroke:#1e2e26;stroke-width:0.21600001;stroke-linecap:butt;stroke-linejoin:miter;stroke-dasharray:none"
     id="path26"
     inkscape:connector-curvature="0" />
  <path
     d="m -4176.0332,-846.9091 c 2.5464,-6.182 8.6312,-10.5338 15.7323,-10.5338 7.3797,0 13.6619,4.7004 16.0158,11.2703"
     style="fill:none;stroke:#1e2e26;stroke-width:0.21600001;stroke-linecap:butt;stroke-linejoin:miter;stroke-dasharray:none"
     id="path28"
     inkscape:connector-curvature="0" />
  <path
     d="m -4112.7143,-619.0155 c -2.6257,6.0041 -8.6179,10.1999 -15.5902,10.1999 -7.3798,0 -13.6619,-4.7004 -16.0158,-11.2702"
     style="fill:none;stroke:#1e2e26;stroke-width:0.21600001;stroke-linecap:butt;stroke-linejoin:miter;stroke-dasharray:none"
     id="path30"
     inkscape:connector-curvature="0" />
  <path
     d="m -4144.2851,-846.1726 c 2.3539,-6.5699 8.636,-11.2703 16.0157,-11.2703 6.9724,0 12.9645,4.1958 15.5903,10.1999"
     style="fill:none;stroke:#1e2e26;stroke-width:0.21600001;stroke-linecap:butt;stroke-linejoin:miter;stroke-dasharray:none"
     id="path32"
     inkscape:connector-curvature="0" />
  <path
     d="m -4232.124,-794.3907 c -5.8354,-2.6949 -9.8847,-8.5992 -9.8847,-15.4489 0,-6.912 4.1236,-12.8607 10.044,-15.5213"
     style="fill:none;stroke:#1e2e26;stroke-width:0.21600001;stroke-linecap:butt;stroke-linejoin:miter;stroke-dasharray:none"
     id="path34"
     inkscape:connector-curvature="0" />
  <path
     d="m -4232.124,-763.4931 c -5.8354,-2.6949 -9.8847,-8.5992 -9.8847,-15.4488 0,-6.8497 4.0493,-12.7539 9.8847,-15.4488"
     style="fill:none;stroke:#1e2e26;stroke-width:0.21600001;stroke-linecap:butt;stroke-linejoin:miter;stroke-dasharray:none"
     id="path36"
     inkscape:connector-curvature="0" />
  <path
     d="m -4232.124,-732.5955 c -5.8354,-2.6949 -9.8847,-8.5991 -9.8847,-15.4488 0,-6.8496 4.0493,-12.7539 9.8847,-15.4488"
     style="fill:none;stroke:#1e2e26;stroke-width:0.21600001;stroke-linecap:butt;stroke-linejoin:miter;stroke-dasharray:none"
     id="path38"
     inkscape:connector-curvature="0" />
  <path
     d="m -4232.7082,-701.9816 c -5.5196,-2.8105 -9.3005,-8.5464 -9.3005,-15.1653 0,-6.8497 4.0493,-12.754 9.8847,-15.4486"
     style="fill:none;stroke:#1e2e26;stroke-width:0.21600001;stroke-linecap:butt;stroke-linejoin:miter;stroke-dasharray:none"
     id="path40"
     inkscape:connector-curvature="0" />
  <path
     d="m -4232.9769,-671.7909 c -5.3731,-2.8582 -9.0318,-8.5147 -9.0318,-15.0253 0,-6.6189 3.7809,-12.3548 9.3005,-15.1654"
     style="fill:none;stroke:#1e2e26;stroke-width:0.21600001;stroke-linecap:butt;stroke-linejoin:miter;stroke-dasharray:none"
     id="path42"
     inkscape:connector-curvature="0" />
  <path
     d="m -4080.1306,-626.538 c 0.01,0.2369 0.015,0.4753 0.015,0.7146 0,9.3931 -7.6148,17.0078 -17.0079,17.0078 -6.9724,0 -12.9648,-4.1958 -15.5906,-10.1999"
     style="fill:none;stroke:#1e2e26;stroke-width:0.21600001;stroke-linecap:butt;stroke-linejoin:miter;stroke-dasharray:none"
     id="path44"
     inkscape:connector-curvature="0" />
  <path
     d="m -4112.6791,-847.243 c 2.6257,-6.0041 8.6182,-10.1999 15.5905,-10.1999 9.3932,0 17.0079,7.6147 17.0079,17.0079 0,0.4416 -0.017,0.8793 -0.05,1.3124"
     style="fill:none;stroke:#1e2e26;stroke-width:0.21600001;stroke-linecap:butt;stroke-linejoin:miter;stroke-dasharray:none"
     id="path46"
     inkscape:connector-curvature="0" />
  <path
     d="m -4225.2863,-724.6633 c 0,0 0,-19.8422 0,-19.8422 0,0 7.937,0 7.937,0 0,0 0,19.8422 0,19.8422 0,0 -7.937,0 -7.937,0 z"
     style="fill:none;stroke:#1e2e26;stroke-width:0.21600001;stroke-linecap:butt;stroke-linejoin:miter;stroke-dasharray:none"
     id="path48"
     inkscape:connector-curvature="0" />
  <path
     d="m -4080.1306,-841.7475 c 0,2.0345 0,3.659 0,3.659 0,0 9.9213,0 9.9213,0 0,0 0,-11.6221 0,-11.6221 0,0 9.9212,0 9.9212,0 0,0 0,232.4407 0,232.4407 0,0 -9.9212,0 -9.9212,0 0,0 0,-12.7559 0,-12.7559 0,0 -9.9213,0 -9.9213,0 0,0 0,2.2827 0,4.917"
     style="fill:none;stroke:#1e2e26;stroke-width:0.21600001;stroke-linecap:butt;stroke-linejoin:miter;stroke-dasharray:none"
     id="path50"
     inkscape:connector-curvature="0" />
  <path
     d="m -4233.4846,-671.5349 c 0,-0.1789 0,-0.358 0,-0.5372"
     style="fill:none;stroke:#1e2e26;stroke-width:0.21600001;stroke-linecap:butt;stroke-linejoin:miter;stroke-dasharray:none"
     id="path52"
     inkscape:connector-curvature="0" />
  <path
     d="m -4150.7762,-824.6511 c 0.014,-0.0525 0.028,-0.108 0.041,-0.1653 0.8184,-3.4036 3.9954,-4.6392 8.1663,-3.1725 1.5622,0.5485 2.8769,0.786 3.78,0.678 4.1908,-0.4918 6.346,0.2738 7.5498,2.6821 0.6497,1.2989 0.9355,1.4956 2.9404,2.0092 1.8165,0.4655 2.3633,0.7858 3.0093,1.7655 0.9759,1.4799 1.326,2.88 1.2138,4.8543 -0.058,1.0621 0.3733,2.344 1.4386,4.2568 0.8359,1.5074 1.5267,3.2099 1.5315,3.7854 0.026,2.4372 -1.7813,4.8523 -3.9237,5.2823"
     style="fill:none;stroke:#e30016;stroke-width:0.21600001;stroke-linecap:butt;stroke-linejoin:miter;stroke-dasharray:none"
     id="path54"
     inkscape:connector-curvature="0" />
  <path
     d="m -4129.9608,-666.7345 c 0.9689,1.4741 1.3158,2.8718 1.2041,4.8394 -0.058,1.0621 0.3731,2.3439 1.4386,4.2567 0.836,1.5075 1.5265,3.21 1.5313,3.7854 0.027,2.4798 -1.8442,4.9363 -4.036,5.3028 -0.7648,0.1293 -1.0825,0.3693 -0.9303,0.7027 0.4431,0.9723 0.2256,2.7615 -0.5017,4.0938 -0.7954,1.4618 -2.5342,2.6218 -4.6888,3.1311 -0.7591,0.1778 -2.2978,1.0945 -3.4189,2.0365 -1.1222,0.943 -2.6056,1.8532 -3.2964,2.0239 -1.4281,0.3512 -3.8673,-0.1327 -5.1755,-1.0253 -0.7217,-0.4921 -1.1883,-0.4924 -2.5013,0.003 -0.8875,0.3356 -1.9769,0.5207 -2.4188,0.4125 -1.5092,-0.3671 -3.4469,-1.6611 -4.3815,-2.9305 -0.271,-0.3668 -0.7824,-0.8691 -1.3771,-1.3722"
     style="fill:none;stroke:#e30016;stroke-width:0.21600001;stroke-linecap:butt;stroke-linejoin:miter;stroke-dasharray:none"
     id="path56"
     inkscape:connector-curvature="0" />
  <path
     d="m -4158.5131,-641.4746 c -2.7391,0.1632 -5.2877,-0.1358 -8.6524,-0.9655 -8.0921,-1.9959 -12.6114,-5.8312 -15.5209,-13.6667 -2.9956,-8.0674 -2.6282,-18.6296 -2.1206,-27.0899 0.2203,-3.672 0.4374,-7.3448 0.6455,-11.0177 0.3974,-7.0228 0.6131,-16.5342 -1.6716,-23.2781 -1.2215,-3.6048 -4.1919,-8.6536 -6.2623,-12.5798 11.6314,2.6401 12.0087,2.9763 25.9892,0.6309 l 0.4864,-0.1162 -0.273,-0.2165 0.18,-0.0513 c -1.8805,-1.3814 -3.759,-3.0756 -4.8033,-3.9827 -1.1387,-0.989 -2.2348,-1.9894 -3.4067,-2.9472 -2.0066,-1.6404 -4.1099,-3.1587 -6.2954,-4.5522 -9.4816,-6.046 -15.588,-8.9682 -26.1763,-11.5225 3.9532,-3.7466 7.9614,-7.8713 10.8924,-12.0767 3.4815,-4.9955 6.0236,-11.655 7.9949,-17.3693 2.3164,-6.7159 4.6777,-13.6344 7.5163,-20.1481 1.741,-3.9946 3.6714,-7.7037 6.3,-11.1921 0.5488,-0.7282 1.1191,-1.4394 1.7059,-2.1373 3.1263,-3.7193 7.9157,-7.5725 12.7823,-8.5535 2.7762,-0.5599 5.6211,-0.6551 8.4265,-0.3441"
     style="fill:none;stroke:#e30016;stroke-width:0.21600001;stroke-linecap:butt;stroke-linejoin:miter;stroke-dasharray:none"
     id="path58"
     inkscape:connector-curvature="0" />
  <path
     d="m -4125.0291,-802.6753 c 1.8771,7.1218 1.2254,14.8805 -1.9616,21.6304 -1.2784,2.707 -3.7153,6 -6.2461,8.5759 0.2713,0.0434 0.5445,0.0887 0.8198,0.1383 3.2504,0.5828 5.786,1.6886 8.3834,3.7168 9.6154,6.1693 16.1416,17.9873 14.0097,29.5248 l -0.1913,1.0352 c 0.2721,0.1015 0.5451,0.22 0.8206,0.3496 7.9109,3.7182 12.0155,13.3268 12.816,21.5767 0.4858,5.0037 -1.0449,11.9673 -3.4588,16.3772 -5.4618,9.9768 -15.6714,16.0157 -27.0295,16.1702 -1.12,0.0153 -2.922,-0.2098 -4.9011,-0.5865 0.9385,2.1453 1.6205,4.4056 2.0596,6.895 0.754,4.2727 0.6917,6.8596 -0.052,10.5372"
     style="fill:none;stroke:#e30016;stroke-width:0.21600001;stroke-linecap:butt;stroke-linejoin:miter;stroke-dasharray:none"
     id="path60"
     inkscape:connector-curvature="0" />
  <path
     d="m -3505.2463,-761.0455 c 7.0447,0 12.7559,5.711 12.7559,12.7559 0.6095,8.2638 -5.7112,14.3966 -12.7559,14.3966 -9.1074,0 -12.7559,-7.3517 -12.7559,-14.3966 0,-1.6177 -0,-2.3301 -0.017,-4.299 0,0 0.024,-52.2949 0.024,-52.2949 0,0 -7.9438,0 -7.9438,0 0,0 0,52.3419 0,52.3419 0,0 -130.6767,0 -130.6767,0 0,0 0,-52.3354 0,-52.3354 0,0 -7.937,0 -7.937,0 0,0 0,52.3354 0,52.3354 0,0 -7.937,0 -7.937,0 -1.5593,0 -2.8346,-1.2758 -2.8346,-2.8346 0,0 0,-102.0471 0,-102.0471 0,0 170.0782,0 170.0782,0 0,0 0,96.3778 0,96.3778 z m 0,8.2205 c 3.2876,0 5.9528,2.6651 5.9528,5.9527 0,3.2876 -2.6652,5.9528 -5.9528,5.9528 -3.2876,0 -5.9527,-2.6652 -5.9527,-5.9528 0,-3.2876 2.6651,-5.9527 5.9527,-5.9527 z m -93.6841,-91.1338 c 0,0 0,-7.7953 0,-7.7953 0,0 15.5906,0 15.5906,0 0,0 0,7.7953 0,7.7953 0,0 -15.5906,0 -15.5906,0 z"
     style="fill:none;stroke:#1e2e26;stroke-width:0.21600001;stroke-linecap:butt;stroke-linejoin:miter;stroke-dasharray:none"
     id="path62"
     inkscape:connector-curvature="0" />
  <path
     d="m -3675.4138,-636.1171 c -7.0447,0 -12.7559,5.7109 -12.7559,12.7559 -0.6095,8.2638 5.7112,14.3965 12.7559,14.3965 9.1074,0 12.7559,-7.3516 12.7559,-14.3965 0,-1.6178 0,-2.3301 0.017,-4.2991 0,0 -0.024,-52.2949 -0.024,-52.2949 0,0 7.9439,0 7.9439,0 0,0 0,52.342 0,52.342 0,0 130.6767,0 130.6767,0 0,0 0,-52.3354 0,-52.3354 0,0 7.937,0 7.937,0 0,0 0,52.3354 0,52.3354 0,0 7.937,0 7.937,0 1.5593,0 2.8346,-1.2759 2.8346,-2.8346 0,0 0,-102.0472 0,-102.0472 0,0 -170.0782,0 -170.0782,0 0,0 0,96.3779 0,96.3779 z m 0,8.2204 c -3.2877,0 -5.9528,2.6652 -5.9528,5.9528 0,3.2876 2.6651,5.9527 5.9528,5.9527 3.2876,0 5.9527,-2.6651 5.9527,-5.9527 0,-3.2876 -2.6651,-5.9528 -5.9527,-5.9528 z m 93.684,-91.1337 c 0,0 0,-7.7953 0,-7.7953 0,0 -15.5905,0 -15.5905,0 0,0 0,7.7953 0,7.7953 0,0 15.5905,0 15.5905,0 z"
     style="fill:none;stroke:#1e2e26;stroke-width:0.21600001;stroke-linecap:butt;stroke-linejoin:miter;stroke-dasharray:none"
     id="path64"
     inkscape:connector-curvature="0" />
  <path
     d="m -4392.8172,-816.4681 c 0.794,-0.1692 1.6027,-0.6046 1.7986,-0.9686 0.4252,-0.7951 1.3478,-0.6483 1.8076,0.2889 0.5406,1.0978 -0.2781,1.8768 -1.4261,1.3572 -1.3703,-0.6188 -3.3075,-0.0805 -3.5649,0.9907 -0.1885,0.7849 -0.03,0.8957 1.9897,1.3813 1.7056,0.4099 2.5367,0.8552 3.7227,1.9959 1.6271,1.5636 3.9739,2.4092 5.5466,1.9978 0.4779,-0.123 1.2546,-0.7528 1.7243,-1.3974 0.741,-1.0106 0.8266,-1.3677 0.6307,-2.5832 -0.1259,-0.7779 -0.7118,-2.0067 -1.3031,-2.7332 -1.0616,-1.3039 -1.4275,-2.6963 -1.6574,-6.2929 -0.093,-1.4664 -0.3711,-2.0503 -1.3657,-2.8721 -1.1736,-0.9706 -1.3366,-1.0117 -2.7309,-0.7191 -1.7073,0.3594 -3.3735,2.1739 -4.4272,4.8228 -0.373,0.9394 -1.0987,2.1246 -1.6126,2.6346 -0.6378,0.6321 -0.8776,1.1641 -0.7563,1.6659 0.1689,0.6877 0.2781,0.718 1.624,0.4314 z"
     style="fill:none;stroke:#009ee0;stroke-width:0.21600001;stroke-linecap:butt;stroke-linejoin:miter;stroke-dasharray:none"
     id="path66"
     inkscape:connector-curvature="0" />
  <path
     d="m -4397.4986,-662.3634 c 0.7942,-0.1693 1.6027,-0.6047 1.7985,-0.9686 0.4255,-0.7951 1.3479,-0.6483 1.808,0.2888 0.5403,1.0979 -0.2784,1.8768 -1.4264,1.3572 -1.3703,-0.6188 -3.3072,-0.0805 -3.5649,0.991 -0.1885,0.7847 -0.03,0.8958 1.9897,1.3811 1.7059,0.4099 2.537,0.8555 3.723,1.9959 1.6268,1.5635 3.9736,2.4091 5.5463,1.9978 0.4779,-0.123 1.2546,-0.7529 1.7243,-1.3975 0.741,-1.0105 0.8268,-1.3677 0.631,-2.5832 -0.1262,-0.7775 -0.7121,-2.0066 -1.3031,-2.7331 -1.0616,-1.304 -1.4278,-2.6964 -1.6574,-6.293 -0.094,-1.4663 -0.3711,-2.0503 -1.3658,-2.872 -1.1735,-0.9706 -1.3365,-1.0117 -2.7309,-0.7192 -1.7076,0.3595 -3.3738,2.1742 -4.4271,4.8229 -0.3733,0.9394 -1.0987,2.1246 -1.6126,2.6348 -0.6381,0.6318 -0.8779,1.1639 -0.7566,1.6656 0.1692,0.6877 0.2783,0.718 1.624,0.4315 z"
     style="fill:none;stroke:#009ee0;stroke-width:0.21600001;stroke-linecap:butt;stroke-linejoin:miter;stroke-dasharray:none"
     id="path68"
     inkscape:connector-curvature="0" />
  <path
     d="m -4409.5575,-706.2894 c 0.8334,-0.1777 1.6821,-0.6347 1.8876,-1.0165 0.4464,-0.8348 1.4148,-0.6803 1.8975,0.303 0.5672,1.1523 -0.292,1.9698 -1.497,1.4244 -1.438,-0.6494 -3.4713,-0.0844 -3.7414,1.0401 -0.1979,0.8237 -0.032,0.9402 2.0882,1.4496 1.7901,0.4303 2.6626,0.8977 3.9073,2.0948 1.7076,1.6413 4.1709,2.5285 5.8213,2.0968 0.5017,-0.129 1.3166,-0.79 1.8099,-1.4666 0.7775,-1.0605 0.8677,-1.4355 0.6619,-2.7114 -0.1321,-0.8161 -0.7472,-2.1058 -1.3675,-2.8686 -1.1143,-1.3683 -1.4986,-2.8299 -1.7396,-6.6045 -0.098,-1.5392 -0.3895,-2.152 -1.4335,-3.0146 -1.2316,-1.0185 -1.4026,-1.0616 -2.8661,-0.7549 -1.792,0.3773 -3.541,2.2819 -4.6468,5.0621 -0.3915,0.9859 -1.1532,2.2297 -1.6923,2.7652 -0.6695,0.6633 -0.9213,1.2217 -0.794,1.7481 0.1775,0.722 0.292,0.7538 1.7045,0.453 z"
     style="fill:none;stroke:#009ee0;stroke-width:0.21600001;stroke-linecap:butt;stroke-linejoin:miter;stroke-dasharray:none"
     id="path70"
     inkscape:connector-curvature="0" />
  <path
     d="m -4399.7559,-803.6983 c -1.2787,3.0274 -1.2855,4.2755 -0.029,5.362 2.0217,1.749 3.8815,1.4837 6.5739,-0.9348 1.2968,-1.1642 2.5693,-1.8831 3.8843,-2.1969 2.4658,-0.5839 3.0719,-1.0443 3.7749,-2.8624 0.4762,-1.2291 0.445,-1.6577 -0.188,-2.6915 -0.7234,-1.1809 -0.871,-1.2461 -3.84,-1.7036 -2.8727,-0.4405 -3.1916,-0.5721 -4.5514,-1.8805 -1.2846,-1.2354 -1.5346,-1.351 -2.0766,-0.946 -0.5063,0.3802 -0.4958,0.6718 0.061,1.6614 0.3728,0.6602 1.0287,1.4434 1.4559,1.7368 0.8886,0.6151 0.7381,2.0608 -0.2288,2.1881 -0.839,0.1097 -1.6565,-1.0333 -1.2078,-1.6869 0.4921,-0.7158 -0.9357,-3.0756 -1.8482,-3.0589 -0.6627,0.0136 -0.72,0.1947 -0.7353,2.2966 -0.014,1.7711 -0.248,2.8262 -1.0446,4.7166 z"
     style="fill:none;stroke:#009ee0;stroke-width:0.21600001;stroke-linecap:butt;stroke-linejoin:miter;stroke-dasharray:none"
     id="path72"
     inkscape:connector-curvature="0" />
  <path
     d="m -4404.4373,-649.5936 c -1.2784,3.0276 -1.2852,4.2755 -0.029,5.362 2.0214,1.749 3.8812,1.4836 6.5738,-0.9349 1.2966,-1.1639 2.5694,-1.883 3.8844,-2.1968 2.4658,-0.584 3.0719,-1.0443 3.7746,-2.8625 0.4762,-1.2291 0.4453,-1.6577 -0.188,-2.6915 -0.7234,-1.1809 -0.8708,-1.2461 -3.8398,-1.7036 -2.8729,-0.4405 -3.1918,-0.572 -4.5516,-1.8805 -1.2846,-1.2353 -1.5344,-1.351 -2.0766,-0.9456 -0.5063,0.3798 -0.4958,0.6715 0.061,1.6611 0.3728,0.6602 1.0287,1.4434 1.4559,1.7368 0.8886,0.6151 0.7381,2.0608 -0.2285,2.188 -0.8393,0.1097 -1.6569,-1.0332 -1.2078,-1.6869 0.492,-0.7157 -0.9358,-3.0756 -1.8485,-3.0586 -0.6625,0.0134 -0.7197,0.1945 -0.7353,2.2964 -0.014,1.7711 -0.2481,2.8264 -1.0446,4.7166 z"
     style="fill:none;stroke:#009ee0;stroke-width:0.21600001;stroke-linecap:butt;stroke-linejoin:miter;stroke-dasharray:none"
     id="path74"
     inkscape:connector-curvature="0" />
  <path
     d="m -4416.84,-692.8866 c -1.3419,3.1773 -1.349,4.4872 -0.031,5.6276 2.1217,1.8354 4.0737,1.5571 6.8995,-0.9811 1.3612,-1.222 2.6969,-1.9766 4.0768,-2.3059 2.5883,-0.6126 3.2244,-1.0959 3.962,-3.0042 0.4997,-1.2901 0.4672,-1.7399 -0.1973,-2.8247 -0.7591,-1.2396 -0.9142,-1.3079 -4.0303,-1.7884 -3.0152,-0.4623 -3.3497,-0.6004 -4.7769,-1.9735 -1.3482,-1.2966 -1.6107,-1.4179 -2.1796,-0.9927 -0.5312,0.3989 -0.5204,0.705 0.064,1.7436 0.3911,0.6931 1.0797,1.5148 1.5278,1.823 0.9329,0.6454 0.775,2.1628 -0.2398,2.2963 -0.8807,0.1151 -1.7388,-1.0845 -1.2676,-1.7705 0.5164,-0.7512 -0.9822,-3.2278 -1.9401,-3.2102 -0.6953,0.0141 -0.7554,0.2043 -0.7716,2.4103 -0.015,1.8586 -0.2605,2.9664 -1.0964,4.9504 z"
     style="fill:none;stroke:#009ee0;stroke-width:0.21600001;stroke-linecap:butt;stroke-linejoin:miter;stroke-dasharray:none"
     id="path76"
     inkscape:connector-curvature="0" />
  <path
     d="m -4399.647,-817.2434 c 1.7986,-0.9827 3.7179,1.1492 2.7314,3.0345 -0.2769,0.5301 -0.9652,1.0531 -1.5307,1.1628 -2.4001,0.4666 -3.3925,-3.0025 -1.2007,-4.1973 z"
     style="fill:none;stroke:#009ee0;stroke-width:0.21600001;stroke-linecap:butt;stroke-linejoin:miter;stroke-dasharray:none"
     id="path78"
     inkscape:connector-curvature="0" />
  <path
     d="m -4404.3284,-663.1387 c 1.7985,-0.9828 3.7179,1.1492 2.7314,3.0345 -0.2769,0.5301 -0.9652,1.0531 -1.5304,1.1628 -2.4001,0.4665 -3.3925,-3.0025 -1.201,-4.1973 z"
     style="fill:none;stroke:#009ee0;stroke-width:0.21600001;stroke-linecap:butt;stroke-linejoin:miter;stroke-dasharray:none"
     id="path80"
     inkscape:connector-curvature="0" />
  <path
     d="m -4416.7258,-707.1032 c 1.8876,-1.0313 3.9022,1.2061 2.8667,3.185 -0.2905,0.5562 -1.0128,1.1052 -1.6064,1.2206 -2.5188,0.4895 -3.5606,-3.1516 -1.2603,-4.4056 z"
     style="fill:none;stroke:#009ee0;stroke-width:0.21600001;stroke-linecap:butt;stroke-linejoin:miter;stroke-dasharray:none"
     id="path82"
     inkscape:connector-curvature="0" />
  <path
     d="m -4402.3071,-813.7633 c 0.5077,1.2932 2.4271,2.4503 3.773,2.2782 1.4354,-0.1845 3.111,-1.5899 3.4183,-2.8695 0.3291,-1.3688 -0.8244,-3.6689 -2.1663,-4.3217 -1.1775,-0.57 -3.3074,-0.2126 -4.185,0.7044 -0.8147,0.8527 -1.2694,3.1218 -0.84,4.2086 z"
     style="fill:none;stroke:#009ee0;stroke-width:0.21600001;stroke-linecap:butt;stroke-linejoin:miter;stroke-dasharray:none"
     id="path84"
     inkscape:connector-curvature="0" />
  <path
     d="m -4406.9885,-659.6586 c 0.508,1.2932 2.4271,2.4503 3.7729,2.2782 1.4358,-0.1845 3.1111,-1.59 3.4186,-2.8695 0.3288,-1.3689 -0.8243,-3.6689 -2.1665,-4.3217 -1.1775,-0.5701 -3.3072,-0.2126 -4.1851,0.7044 -0.8146,0.8529 -1.2693,3.1218 -0.8399,4.2086 z"
     style="fill:none;stroke:#009ee0;stroke-width:0.21600001;stroke-linecap:butt;stroke-linejoin:miter;stroke-dasharray:none"
     id="path86"
     inkscape:connector-curvature="0" />
  <path
     d="m -4419.5176,-703.4505 c 0.5329,1.3572 2.5472,2.5719 3.96,2.391 1.5066,-0.1936 3.2649,-1.6687 3.5878,-3.0115 0.3453,-1.4369 -0.8654,-3.8509 -2.2739,-4.536 -1.236,-0.5981 -3.4714,-0.2231 -4.3923,0.7393 -0.8552,0.8952 -1.3323,3.2766 -0.8816,4.4172 z"
     style="fill:none;stroke:#009ee0;stroke-width:0.21600001;stroke-linecap:butt;stroke-linejoin:miter;stroke-dasharray:none"
     id="path88"
     inkscape:connector-curvature="0" />
  <path
     d="m -4406.4706,-828.0913 c 0.2106,1.0075 0.9258,2.043 2.3156,3.3585 1.1064,1.0451 2.3979,2.6459 2.8698,3.5558 0.4913,0.9448 1.0715,1.5837 1.3539,1.4904 0.7174,-0.2349 1.0904,-2.2053 0.5544,-2.9225 -0.5865,-0.784 -0.415,-1.4746 0.4799,-1.9151 0.5845,-0.288 0.7923,-0.2109 1.1951,0.4471 0.402,0.6531 0.3728,0.9039 -0.163,1.4303 -1.0482,1.0304 -1.2413,2.5209 -0.3523,2.7343 0.5139,0.1239 1.0567,-0.2279 1.6948,-1.0995 0.5156,-0.7042 1.7685,-1.7686 2.7833,-2.3627 3.3812,-1.9794 4.3436,-3.8872 3.0351,-6.0233 -0.7503,-1.2249 -2.4851,-1.6121 -5.2464,-1.1761 -1.9468,0.3092 -2.4732,0.2398 -4.4059,-0.5769 -2.5095,-1.0593 -4.0663,-1.0006 -5.4274,0.2013 -1.0299,0.913 -1.0653,1.0601 -0.6869,2.8584 z"
     style="fill:none;stroke:#009ee0;stroke-width:0.21600001;stroke-linecap:butt;stroke-linejoin:miter;stroke-dasharray:none"
     id="path90"
     inkscape:connector-curvature="0" />
  <path
     d="m -4411.1517,-673.9863 c 0.2106,1.0071 0.9258,2.0426 2.3156,3.3582 1.1061,1.0451 2.3975,2.6458 2.8695,3.556 0.4913,0.9445 1.0715,1.5835 1.3538,1.4902 0.7175,-0.235 1.0905,-2.2053 0.5548,-2.9225 -0.5868,-0.7841 -0.4153,-1.4746 0.4799,-1.9148 0.5845,-0.2883 0.792,-0.2112 1.1951,0.4467 0.4016,0.6531 0.3724,0.904 -0.163,1.4304 -1.0483,1.0307 -1.2413,2.5208 -0.3524,2.7343 0.514,0.1239 1.0565,-0.2279 1.6946,-1.0996 0.5159,-0.7041 1.7688,-1.7685 2.7833,-2.3626 3.3815,-1.9795 4.3436,-3.8872 3.0351,-6.0234 -0.7501,-1.2248 -2.4852,-1.612 -5.2461,-1.1761 -1.9471,0.3093 -2.4732,0.2398 -4.4062,-0.5768 -2.5095,-1.0593 -4.0663,-1.0007 -5.4275,0.2015 -1.0295,0.9131 -1.0649,1.0599 -0.6865,2.8585 z"
     style="fill:none;stroke:#009ee0;stroke-width:0.21600001;stroke-linecap:butt;stroke-linejoin:miter;stroke-dasharray:none"
     id="path92"
     inkscape:connector-curvature="0" />
  <path
     d="m -4423.8875,-718.4886 c 0.2211,1.0574 0.9717,2.1442 2.4307,3.5249 1.1608,1.0967 2.5163,2.7768 3.0115,3.7321 0.5159,0.9916 1.1248,1.662 1.421,1.5642 0.7529,-0.2466 1.1447,-2.3148 0.5823,-3.0671 -0.6157,-0.8232 -0.4357,-1.548 0.5037,-2.0101 0.6134,-0.3024 0.8314,-0.2216 1.2543,0.4689 0.4215,0.6857 0.3909,0.949 -0.1712,1.5015 -1.1001,1.0817 -1.3028,2.6456 -0.3699,2.8698 0.5394,0.1298 1.1092,-0.2393 1.7787,-1.1543 0.5415,-0.7387 1.8564,-1.8558 2.9214,-2.4797 3.549,-2.0773 4.5587,-4.0796 3.1853,-6.3219 -0.7872,-1.2855 -2.6081,-1.692 -5.506,-1.2342 -2.0435,0.3246 -2.5957,0.2518 -4.6244,-0.6054 -2.634,-1.1118 -4.2679,-1.0503 -5.6965,0.2114 -1.0806,0.9581 -1.118,1.1126 -0.7209,2.9999 z"
     style="fill:none;stroke:#009ee0;stroke-width:0.21600001;stroke-linecap:butt;stroke-linejoin:miter;stroke-dasharray:none"
     id="path94"
     inkscape:connector-curvature="0" />
  <path
     d="m -4415.7781,-812.7799 c 0.5198,0.9552 2.2121,1.4935 3.6144,1.152 0.5137,-0.1242 1.8057,-0.8017 2.8726,-1.5058 1.3743,-0.9071 2.492,-1.2915 3.86,-1.3266 1.5576,-0.0388 1.9383,-0.1976 1.9961,-0.8331 0.091,-1.0086 -2.3388,-2.2456 -3.8423,-1.9559 -1.205,0.2319 -2.1229,-0.8368 -1.4976,-1.7428 0.4641,-0.6777 1.8227,-0.3965 2.06,0.4261 0.097,0.3339 0.962,0.9255 1.921,1.3133 2.2153,0.8943 2.56,0.1786 0.8011,-1.6628 -0.8051,-0.8425 -1.4046,-2.1144 -1.8026,-3.8132 -0.7307,-3.1249 -1.7424,-4.2299 -3.6054,-3.9336 -1.8751,0.2951 -2.9735,1.8527 -3.4489,4.8863 -0.3081,1.9704 -0.6191,2.7655 -1.5006,3.8305 -1.3972,1.6886 -2.0455,4.0334 -1.4278,5.1656 z"
     style="fill:none;stroke:#009ee0;stroke-width:0.21600001;stroke-linecap:butt;stroke-linejoin:miter;stroke-dasharray:none"
     id="path96"
     inkscape:connector-curvature="0" />
  <path
     d="m -4420.4596,-658.6753 c 0.5199,0.9553 2.2125,1.4936 3.6145,1.152 0.5139,-0.1241 1.806,-0.8016 2.8726,-1.5057 1.3745,-0.9071 2.4922,-1.2915 3.8602,-1.3267 1.5577,-0.0385 1.9381,-0.1975 1.9962,-0.8331 0.091,-1.0085 -2.3389,-2.2456 -3.8424,-1.9559 -1.205,0.2319 -2.1228,-0.8367 -1.4978,-1.7427 0.4643,-0.6778 1.823,-0.3966 2.06,0.426 0.097,0.3343 0.962,0.9256 1.921,1.3133 2.2153,0.8944 2.5602,0.1786 0.8011,-1.6625 -0.8048,-0.8427 -1.4043,-2.1146 -1.8026,-3.8134 -0.7308,-3.1249 -1.7422,-4.2296 -3.6054,-3.9337 -1.8748,0.2951 -2.9735,1.8528 -3.4486,4.8867 -0.3081,1.9701 -0.6191,2.7655 -1.5007,3.8304 -1.3974,1.6883 -2.0454,4.0332 -1.4281,5.1653 z"
     style="fill:none;stroke:#009ee0;stroke-width:0.21600001;stroke-linecap:butt;stroke-linejoin:miter;stroke-dasharray:none"
     id="path98"
     inkscape:connector-curvature="0" />
  <path
     d="m -4433.6563,-702.4184 c 0.5457,1.0026 2.3219,1.5676 3.7937,1.209 0.5391,-0.1304 1.8952,-0.8413 3.0149,-1.5803 1.4425,-0.9519 2.6155,-1.3553 4.0513,-1.3924 1.6347,-0.0405 2.0344,-0.2075 2.095,-0.8742 0.096,-1.0588 -2.4548,-2.3573 -4.0328,-2.0529 -1.2645,0.2432 -2.228,-0.8784 -1.5718,-1.8292 0.4873,-0.7115 1.9131,-0.4164 2.162,0.4471 0.102,0.3506 1.01,0.9714 2.0163,1.3782 2.3252,0.9391 2.6869,0.1876 0.8407,-1.7448 -0.8447,-0.8844 -1.474,-2.2192 -1.8918,-4.0022 -0.7671,-3.28 -1.8287,-4.4393 -3.784,-4.1287 -1.9681,0.3096 -3.1209,1.9446 -3.6198,5.1288 -0.3232,2.0678 -0.6497,2.9024 -1.575,4.0201 -1.4666,1.7722 -2.1469,4.2332 -1.4987,5.4215 z"
     style="fill:none;stroke:#009ee0;stroke-width:0.21600001;stroke-linecap:butt;stroke-linejoin:miter;stroke-dasharray:none"
     id="path100"
     inkscape:connector-curvature="0" />
  <path
     d="m -4387.9674,-800.0164 c -0.2821,0.095 -0.5738,0.1786 -0.8734,0.2495 -0.7588,0.1777 -2.2975,1.0944 -3.4186,2.0364 -1.1222,0.9431 -2.6056,1.8533 -3.2964,2.0239 -1.4281,0.3512 -3.8676,-0.1326 -5.1755,-1.0253 -0.7217,-0.4921 -1.1885,-0.4924 -2.5013,0.003 -0.8875,0.3359 -1.9768,0.521 -2.4188,0.4127 -1.5091,-0.3671 -3.4472,-1.6611 -4.3818,-2.9305 -0.5136,-0.6959 -1.8946,-1.8813 -3.0682,-2.6334 -2.8599,-1.8362 -3.9784,-4.0685 -3.3494,-6.6858 0.3784,-1.5752 0.3192,-1.9337 -0.4425,-2.6523 -1.5891,-1.501 -1.2722,-4.8994 0.6863,-7.3761 0.8728,-1.1007 1.4252,-2.3703 2.0015,-4.5873 0.01,-0.0377 0.02,-0.0754 0.029,-0.1119"
     style="fill:none;stroke:#1e2e26;stroke-width:0.21600001;stroke-linecap:butt;stroke-linejoin:miter;stroke-dasharray:none"
     id="path102"
     inkscape:connector-curvature="0" />
  <path
     d="m -4408.3545,-829.6909 c 0.014,-0.0524 0.028,-0.108 0.041,-0.1652 0.8184,-3.4036 3.9954,-4.6392 8.1663,-3.1726 1.5622,0.5485 2.8769,0.7861 3.78,0.6781 4.1908,-0.4918 6.346,0.2738 7.5498,2.6821 0.6497,1.2989 0.9355,1.4956 2.9404,2.0092 1.8165,0.4655 2.3633,0.7858 3.0093,1.7654 0.9759,1.48 1.326,2.88 1.2138,4.8544 -0.058,1.0621 0.3733,2.3439 1.4386,4.2568 0.8359,1.5074 1.5267,3.2099 1.5315,3.7853 0.026,2.4373 -1.7813,4.8524 -3.9237,5.2824"
     style="fill:none;stroke:#1b1918;stroke-width:0.21600001;stroke-linecap:butt;stroke-linejoin:miter;stroke-dasharray:none"
     id="path104"
     inkscape:connector-curvature="0" />
  <path
     d="m -4421.2986,-653.2707 c 0.013,-0.3873 0.069,-0.7844 0.1664,-1.1906 0.3787,-1.5752 0.3192,-1.9338 -0.4425,-2.6524 -1.5891,-1.5009 -1.2722,-4.8994 0.6865,-7.376 0.8725,-1.1007 1.4253,-2.3703 2.0013,-4.5873 0.7053,-2.7241 0.9476,-3.1896 2.1943,-4.2049 0.7685,-0.6253 1.8451,-1.1438 2.3916,-1.1481 0.8124,-0.008 1.048,-0.2463 1.3065,-1.3215 0.8183,-3.4032 3.9954,-4.6389 8.1663,-3.1722 1.5619,0.5485 2.8766,0.7857 3.7797,0.6777 4.1911,-0.4918 6.3459,0.2739 7.5501,2.6822 0.023,0.0459 0.045,0.0907 0.068,0.1341"
     style="fill:none;stroke:#1e2e26;stroke-width:0.21600001;stroke-linecap:butt;stroke-linejoin:miter;stroke-dasharray:none"
     id="path106"
     inkscape:connector-curvature="0" />
  <path
     d="m -4387.5391,-671.7742 c 0.9689,1.474 1.3158,2.8718 1.2041,4.8393 -0.058,1.0622 0.3731,2.344 1.4386,4.2568 0.836,1.5075 1.5265,3.21 1.5313,3.7854 0.027,2.4798 -1.8442,4.9363 -4.036,5.3028 -0.7648,0.1292 -1.0825,0.3693 -0.9303,0.7027 0.4431,0.9723 0.2256,2.7615 -0.5017,4.0938 -0.7954,1.4618 -2.5342,2.6217 -4.6888,3.1311 -0.7591,0.1778 -2.2978,1.0945 -3.4189,2.0364 -1.1222,0.9431 -2.6056,1.8533 -3.2964,2.024 -1.4281,0.3512 -3.8673,-0.1327 -5.1755,-1.0253 -0.7217,-0.4921 -1.1883,-0.4924 -2.5013,0.003 -0.8875,0.3356 -1.9769,0.5207 -2.4188,0.4124 -1.5092,-0.367 -3.4469,-1.6611 -4.3815,-2.9304 -0.271,-0.3668 -0.7824,-0.8691 -1.3771,-1.3723"
     style="fill:none;stroke:#1e2e26;stroke-width:0.21600001;stroke-linecap:butt;stroke-linejoin:miter;stroke-dasharray:none"
     id="path108"
     inkscape:connector-curvature="0" />
  <path
     d="m -4399.7992,-693.9425 c -0.1214,0.6508 -0.3459,1.3144 -0.6634,1.8958 -0.835,1.5341 -2.66,2.7516 -4.9212,3.2862 -0.7965,0.1865 -2.4117,1.1486 -3.5881,2.137 -1.1781,0.9902 -2.7348,1.9455 -3.4599,2.1246 -1.499,0.3688 -4.0593,-0.1392 -5.4321,-1.0763 -0.7574,-0.5165 -1.2472,-0.5168 -2.6251,0.003 -0.9318,0.3526 -2.075,0.5465 -2.5387,0.4331 -1.5838,-0.3852 -3.6179,-1.7436 -4.5987,-3.0756 -0.5394,-0.7304 -1.9888,-1.9746 -3.2207,-2.764 -3.0011,-1.9273 -4.1752,-4.2701 -3.515,-7.0169 0.3972,-1.6534 0.3348,-2.0299 -0.4646,-2.7839 -0.1502,-0.142 -0.2843,-0.2999 -0.4019,-0.4714"
     style="fill:none;stroke:#1e2e26;stroke-width:0.21600001;stroke-linecap:butt;stroke-linejoin:miter;stroke-dasharray:none"
     id="path110"
     inkscape:connector-curvature="0" />
  <path
     d="m -4435.0892,-706.9558 c 0.2642,-0.5434 0.5925,-1.0718 0.9828,-1.5653 0.9162,-1.1548 1.4958,-2.4877 2.1008,-4.8144 0.7401,-2.8596 0.9944,-3.3477 2.3028,-4.4135 0.8065,-0.6565 1.9367,-1.2005 2.5101,-1.2047 0.8524,-0.008 1.1001,-0.2588 1.3714,-1.3873 0.8589,-3.5719 4.1933,-4.8691 8.5711,-3.3296 1.6393,0.5757 3.0192,0.8249 3.9671,0.7115 1.3425,-0.1576 2.4863,-0.1919 3.4628,-0.0921"
     style="fill:none;stroke:#1e2e26;stroke-width:0.21600001;stroke-linecap:butt;stroke-linejoin:miter;stroke-dasharray:none"
     id="path112"
     inkscape:connector-curvature="0" />
  <path
     d="m -4405.8957,-721.0301 c 0.1967,0.2676 0.375,0.563 0.5366,0.8861 0.6817,1.3632 0.9816,1.5698 3.0858,2.109 1.9068,0.4884 2.4806,0.8246 3.1583,1.853 1.0248,1.5531 1.3919,3.0226 1.2745,5.0947 -0.061,1.1146 0.3915,2.4602 1.5094,4.4677 0.8777,1.5823 1.6025,3.369 1.6076,3.973 0.019,1.7453 -0.8581,3.4793 -2.1308,4.5485"
     style="fill:none;stroke:#1e2e26;stroke-width:0.21600001;stroke-linecap:butt;stroke-linejoin:miter;stroke-dasharray:none"
     id="path114"
     inkscape:connector-curvature="0" />
  <path
     d="m -4416.0914,-646.5144 c -2.7391,0.1633 -5.2877,-0.1357 -8.6524,-0.9654 -8.0921,-1.9959 -12.6114,-5.8312 -15.5209,-13.6667 -2.9956,-8.0674 -2.6282,-18.6296 -2.1206,-27.0899 0.2203,-3.672 0.4374,-7.3448 0.6455,-11.0177 0.3974,-7.0228 0.6131,-16.5342 -1.6716,-23.2781 -1.2215,-3.6048 -4.1919,-8.6536 -6.2623,-12.5799 11.6314,2.6402 12.0087,2.9764 25.9892,0.631 l 0.4864,-0.1162 -0.273,-0.2166 0.18,-0.0513 c -1.8805,-1.3813 -3.759,-3.0756 -4.8033,-3.9826 -1.1387,-0.9891 -2.2348,-1.9894 -3.4067,-2.9472 -2.0066,-1.6404 -4.1099,-3.1587 -6.2954,-4.5522 -9.4816,-6.046 -15.588,-8.9682 -26.1763,-11.5225 3.9532,-3.7466 7.9614,-7.8713 10.8924,-12.0768 3.4815,-4.9955 6.0236,-11.6549 7.9949,-17.3692 2.3164,-6.7159 4.6777,-13.6344 7.5163,-20.1481 1.741,-3.9946 3.6714,-7.7038 6.3,-11.1921 0.5488,-0.7282 1.1191,-1.4394 1.7059,-2.1373 3.1263,-3.7193 7.9157,-7.5725 12.7823,-8.5535 2.7762,-0.5599 5.6211,-0.6551 8.4265,-0.3442"
     style="fill:none;stroke:#1e2e26;stroke-width:0.21600001;stroke-linecap:butt;stroke-linejoin:miter;stroke-dasharray:none"
     id="path116"
     inkscape:connector-curvature="0" />
  <path
     d="m -4382.6074,-807.715 c 1.8771,7.1218 1.2254,14.8805 -1.9616,21.6303 -1.2784,2.7071 -3.7153,6.0001 -6.2461,8.576 0.2713,0.0433 0.5445,0.0887 0.8198,0.1383 3.2504,0.5828 5.786,1.6886 8.3834,3.7168 9.6154,6.1693 16.1416,17.9872 14.0097,29.5248 l -0.1913,1.0352 c 0.2721,0.1015 0.5451,0.22 0.8206,0.3495 7.9109,3.7182 12.0155,13.3268 12.816,21.5768 0.4858,5.0037 -1.0449,11.9673 -3.4588,16.3772 -5.4618,9.9768 -15.6714,16.0157 -27.0295,16.1702 -1.12,0.0153 -2.922,-0.2098 -4.9011,-0.5865 0.9385,2.1453 1.6205,4.4056 2.0596,6.895 0.754,4.2727 0.6917,6.8596 -0.052,10.5372"
     style="fill:none;stroke:#1e2e26;stroke-width:0.21600001;stroke-linecap:butt;stroke-linejoin:miter;stroke-dasharray:none"
     id="path118"
     inkscape:connector-curvature="0" />
  <path
     d="m -4435.2286,-701.2508 c -0.035,0.8022 -0.076,1.5899 -0.1197,2.3584 -0.2086,3.6802 -0.4257,7.3602 -0.6468,11.0395 -0.4419,7.3639 -0.8802,17.4436 1.732,24.4781 2.1659,5.8328 5.0275,8.1932 11.0522,9.6791 0.682,0.1684 1.3147,0.3093 1.9123,0.425"
     style="fill:none;stroke:#1e2e26;stroke-width:0.21600001;stroke-linecap:butt;stroke-linejoin:miter;stroke-dasharray:none"
     id="path120"
     inkscape:connector-curvature="0" />
  <path
     d="m -4409.8203,-723.0512 c -3.0934,-1.7858 -6.0171,-3.9039 -8.8495,-6.0469 l -3.5257,0.843 c -5.4147,1.2952 -10.7699,2.1983 -16.0364,1.4599 0.3262,0.7075 0.6233,1.44 0.8835,2.2087 1.7737,5.2351 2.2686,11.5855 2.2595,17.6307"
     style="fill:none;stroke:#1e2e26;stroke-width:0.21600001;stroke-linecap:butt;stroke-linejoin:miter;stroke-dasharray:none"
     id="path122"
     inkscape:connector-curvature="0" />
  <path
     d="m -4396.8543,-698.0981 c 0.4889,0.0663 0.9649,0.2562 1.3824,0.5547 1.5752,0.9859 8.8013,2.5489 10.7399,2.5223 9.0499,-0.123 17.1471,-4.8906 21.5005,-12.8429 1.7952,-3.2789 3.064,-8.9643 2.7029,-12.6848 -0.5151,-5.3064 -2.922,-12.2408 -7.615,-15.5027 -1.3099,2.439 -2.8369,4.9371 -4.4771,6.9197 -3.0489,3.6862 -9.1167,8.7882 -13.8676,9.8229 -5.2691,1.4465 -10.4916,1.3442 -15.7025,-0.3013 -1.2657,-0.3997 -2.4991,-0.8785 -3.7049,-1.4199"
     style="fill:none;stroke:#1e2e26;stroke-width:0.21600001;stroke-linecap:butt;stroke-linejoin:miter;stroke-dasharray:none"
     id="path124"
     inkscape:connector-curvature="0" />
  <path
     d="m -4393.4306,-675.4297 c 0.1715,-1.7297 0.065,-3.3602 -0.36,-5.7688 -0.7405,-4.1939 -2.3086,-7.4636 -4.8504,-10.8845 -0.3113,-0.419 -0.6202,-0.8558 -0.8841,-1.3062 -0.1046,-0.1783 -0.1968,-0.3637 -0.2741,-0.5533"
     style="fill:none;stroke:#1e2e26;stroke-width:0.21600001;stroke-linecap:butt;stroke-linejoin:miter;stroke-dasharray:none"
     id="path126"
     inkscape:connector-curvature="0" />
  <path
     d="m -4374.79,-737.1646 c -1.9874,2.8788 -4.6922,6.0794 -7.4883,8.1592 -3.134,2.3312 -6.6376,3.7891 -10.5579,4.0351 -6.0517,0.3793 -11.9588,-2.2033 -16.9651,-5.3912 l -4.6003,-2.9293 9.2755,-2.823 c 5.4822,-1.7742 11.1158,-2.9177 16.7729,-3.968 2.497,-0.4634 4.9992,-0.9113 7.5404,-1.0417 1.3638,-0.07 2.7309,-0.0465 4.0941,0.0275 l 4.475,0.2435 z"
     style="fill:none;stroke:#1e2e26;stroke-width:0.21600001;stroke-linecap:butt;stroke-linejoin:miter;stroke-dasharray:none"
     id="path128"
     inkscape:connector-curvature="0" />
  <path
     d="m -4433.144,-750.9566 c 1.9652,1.3076 3.8659,2.7105 5.6942,4.2049 1.2223,0.9987 2.3661,2.0398 3.5538,3.0711 1.3484,1.1712 2.7201,2.3439 4.1335,3.4361 0.4212,0.3257 1.1792,0.9306 1.7118,1.2172 0.5185,0.019 1.3156,-0.1304 1.7382,-0.248 0.1871,-0.0522 0.3793,-0.1046 0.5627,-0.1712 3.6845,-1.3383 7.4444,-2.4645 11.1903,-3.617 1.9871,-0.6112 3.9958,-1.1554 6.0174,-1.6399 6.8125,-1.6336 17.2573,-3.3556 24.967,-2.5069 1.1143,-8.5465 -4.5346,-16.6513 -11.6195,-21.1351 l -0.1278,-0.0814 -0.1188,-0.0935 c -1.8218,-1.4466 -3.4126,-2.1416 -5.684,-2.549 -1.1444,-0.2052 -2.3037,-0.3373 -3.4518,-0.5283 -1.5049,-0.2506 -2.9579,-0.5913 -4.4016,-1.09 -0.9403,-0.3251 -1.6827,-1.0332 -1.9919,-1.9893 -0.4198,-1.2971 0.067,-2.5104 0.9621,-3.4424 0.3727,-0.3878 0.8022,-0.7325 1.2327,-1.0539 0.3552,-0.2651 0.7198,-0.5145 1.0786,-0.7742 2.5557,-1.849 5.9916,-6.0165 7.3392,-8.871 1.6518,-3.4985 2.45,-7.3587 2.3905,-11.1977"
     style="fill:none;stroke:#1e2e26;stroke-width:0.21600001;stroke-linecap:butt;stroke-linejoin:miter;stroke-dasharray:none"
     id="path130"
     inkscape:connector-curvature="0" />
  <path
     d="m -4443.8933,-773.1119 c -1.1733,2.4148 -2.4758,4.7322 -3.935,6.8258 -1.6844,2.4168 -3.3356,4.1324 -5.2909,5.8822 3.8894,1.2095 7.6833,2.7071 11.3383,4.4955"
     style="fill:none;stroke:#1b1918;stroke-width:0.21600001;stroke-linecap:butt;stroke-linejoin:miter;stroke-dasharray:none"
     id="path132"
     inkscape:connector-curvature="0" />
  <path
     d="m -4414.1766,-823.2934 c -0.4484,0.0584 -0.8951,0.1321 -1.3391,0.2217 -3.3335,0.6727 -7.0228,3.871 -9.1474,6.3978 -0.5136,0.6112 -1.0128,1.2334 -1.4935,1.8706 -2.3199,3.0781 -4.0074,6.3726 -5.5435,9.8969 -2.7697,6.3561 -5.0731,13.1252 -7.3335,19.6784 -0.877,2.5424 -1.8473,5.2069 -2.9435,7.8431"
     style="fill:none;stroke:#1e2e26;stroke-width:0.21600001;stroke-linecap:butt;stroke-linejoin:miter;stroke-dasharray:none"
     id="path134"
     inkscape:connector-curvature="0" />
  <path
     d="m -4441.7809,-755.9084 c -0.6778,-0.845 -1.0171,-1.8567 -1.0171,-3.0331 0,-1.4669 -0.1281,-1.7705 -0.951,-2.2419 -1.717,-0.9856 -2.1572,-4.0451 -0.9561,-6.641 0.5349,-1.1535 0.7534,-2.3888 0.7917,-4.4629 0.01,-0.3027 0.012,-0.576 0.02,-0.8246"
     style="fill:none;stroke:#1b1918;stroke-width:0.21600001;stroke-linecap:butt;stroke-linejoin:miter;stroke-dasharray:none"
     id="path136"
     inkscape:connector-curvature="0" />
  <path
     d="m -4441.9771,-777.3849 c 0.3586,-0.301 0.7144,-0.5232 0.9689,-0.5864 0.7135,-0.1786 0.8711,-0.4386 0.8711,-1.44 0,-3.1703 2.537,-4.9306 6.5202,-4.5224 1.4916,0.1533 2.6989,0.0833 3.4714,-0.2021 3.5864,-1.3201 5.6466,-1.1016 7.2161,0.7642 0.847,1.0063 1.1401,1.1188 3.0147,1.1469 1.6979,0.0261 2.247,0.1919 3.0234,0.9184 1.1727,1.0964 1.777,2.2552 2.0962,4.0175 0.1738,0.9477 0.8243,1.9851 2.1674,3.4441 1.0553,1.1503 2.0236,2.5036 2.1498,3.0093 0.5479,2.1784 -0.5803,4.737 -2.4321,5.5239 -0.6466,0.2758 -0.8754,0.5541 -0.6702,0.8155 0.5956,0.7625 0.7824,2.3839 0.4238,3.7114 -0.3906,1.4553 -1.677,2.8446 -3.4665,3.7494 -0.631,0.3169 -1.7915,1.4499 -2.5795,2.5166 -0.7886,1.0678 -1.9023,2.1832 -2.4746,2.4797 -1.1835,0.6118 -3.4339,0.7016 -4.7744,0.1922 -0.7399,-0.2806 -1.1503,-0.1817 -2.2023,0.5321 -0.71,0.4836 -1.6299,0.8765 -2.042,0.8753 -0.73,-0.002 -1.6141,-0.1998 -2.4483,-0.5173"
     style="fill:none;stroke:#1e2e26;stroke-width:0.21600001;stroke-linecap:butt;stroke-linejoin:miter;stroke-dasharray:none"
     id="path138"
     inkscape:connector-curvature="0" />
  <path
     d="m -4443.0976,-762.7949 c 0.6599,0.7316 2.264,0.8472 3.4268,0.25 0.426,-0.218 1.4202,-1.0882 2.2107,-1.9335 1.0185,-1.0899 1.9211,-1.6648 3.1187,-1.9857 1.3635,-0.3634 1.6648,-0.5836 1.5815,-1.1557 -0.1335,-0.9073 -2.5345,-1.4825 -3.7976,-0.9091 -1.012,0.459 -2.0461,-0.2882 -1.6872,-1.2177 0.265,-0.6956 1.5208,-0.735 1.9038,-0.061 0.1561,0.2739 1.0428,0.6112 1.97,0.7504 2.1396,0.3186 2.2918,-0.385 0.3532,-1.6342 -0.8872,-0.5715 -1.6843,-1.5644 -2.3941,-2.9761 -1.3045,-2.5974 -2.4296,-3.3562 -4.0076,-2.7011 -1.5886,0.6568 -2.2261,2.2603 -2.0027,5.0326 0.1457,1.7997 0.04,2.5665 -0.5111,3.6907 -0.8731,1.7824 -0.9476,3.9844 -0.1644,4.8504 z"
     style="fill:none;stroke:#009ee0;stroke-width:0.21600001;stroke-linecap:butt;stroke-linejoin:miter;stroke-dasharray:none"
     id="path140"
     inkscape:connector-curvature="0" />
  <path
     d="m -4438.1409,-778.2471 c 0.3988,0.8427 1.2475,1.6029 2.7493,2.4672 1.1959,0.6863 2.6716,1.8227 3.2797,2.5246 0.6327,0.7276 1.2787,1.1676 1.5074,1.0253 0.582,-0.3586 0.4938,-2.1722 -0.1295,-2.6907 -0.6829,-0.5661 -0.6783,-1.2104 0.017,-1.7875 0.4535,-0.3776 0.6531,-0.3538 1.1466,0.1406 0.4927,0.4898 0.5196,0.7166 0.1596,1.2937 -0.7055,1.1296 -0.5596,2.4823 0.2684,2.4823 0.4785,3e-4 0.8822,-0.4243 1.2598,-1.3269 0.305,-0.7291 1.1829,-1.9312 1.951,-2.6694 2.5586,-2.4585 3.0022,-4.3424 1.3981,-5.9465 -0.9199,-0.9198 -2.5299,-0.8938 -4.8691,0.0743 -1.6486,0.6851 -2.1268,0.7347 -4.0017,0.4243 -2.4341,-0.4011 -3.7927,-0.0198 -4.7366,1.3264 -0.7141,1.0216 -0.7141,1.1585 0,2.6623 z"
     style="fill:none;stroke:#009ee0;stroke-width:0.21600001;stroke-linecap:butt;stroke-linejoin:miter;stroke-dasharray:none"
     id="path142"
     inkscape:connector-curvature="0" />
  <path
     d="m -4431.443,-766.5109 c 0.7206,1.0316 2.6558,1.6436 3.8044,1.2079 1.2254,-0.466 2.4032,-2.0588 2.4032,-3.2505 0,-1.275 -1.502,-3.0563 -2.8221,-3.3474 -1.1574,-0.2526 -2.9577,0.5127 -3.5365,1.5057 -0.5369,0.9235 -0.457,3.0178 0.151,3.8843 z"
     style="fill:none;stroke:#009ee0;stroke-width:0.21600001;stroke-linecap:butt;stroke-linejoin:miter;stroke-dasharray:none"
     id="path144"
     inkscape:connector-curvature="0" />
  <path
     d="m -4429.8369,-770.1389 c 1.376,-1.2456 3.5173,0.2259 3.0473,2.0951 -0.1318,0.5249 -0.6273,1.1313 -1.1018,1.3478 -2.0149,0.9182 -3.6227,-1.9267 -1.9455,-3.4429 z"
     style="fill:none;stroke:#009ee0;stroke-width:0.21600001;stroke-linecap:butt;stroke-linejoin:miter;stroke-dasharray:none"
     id="path146"
     inkscape:connector-curvature="0" />
  <path
     d="m -4427.0666,-758.1875 c -0.4852,2.9367 -0.2273,4.0368 1.109,4.7276 2.15,1.1129 3.7315,0.4856 5.5907,-2.2141 0.8952,-1.2994 1.8641,-2.202 2.956,-2.7564 2.0475,-1.0361 2.484,-1.5696 2.7181,-3.3191 0.1594,-1.1832 0.041,-1.5542 -0.7347,-2.3304 -0.8867,-0.8869 -1.0307,-0.913 -3.7423,-0.6879 -2.6232,0.2199 -2.9316,0.1715 -4.4056,-0.6928 -1.3929,-0.8158 -1.6373,-0.8649 -2.029,-0.3938 -0.3651,0.4422 -0.2943,0.6965 0.405,1.4502 0.468,0.5026 1.2116,1.0537 1.6498,1.2215 0.913,0.3535 1.0862,1.6585 0.2613,1.9749 -0.7151,0.2741 -1.6769,-0.5587 -1.4201,-1.2297 0.282,-0.7344 -1.4752,-2.5106 -2.2745,-2.3026 -0.5811,0.1523 -0.593,0.324 -0.1619,2.1782 0.3623,1.5622 0.3796,2.5412 0.078,4.3744 z"
     style="fill:none;stroke:#009ee0;stroke-width:0.21600001;stroke-linecap:butt;stroke-linejoin:miter;stroke-dasharray:none"
     id="path148"
     inkscape:connector-curvature="0" />
  <path
     d="m -4423.6585,-770.9012 c 0.6634,-0.3166 1.2836,-0.8711 1.3785,-1.2333 0.2067,-0.7903 1.0503,-0.8558 1.6535,-0.1287 0.7078,0.8529 0.1519,1.7118 -0.9689,1.4975 -1.3374,-0.2554 -2.9293,0.629 -2.9293,1.6266 0,0.7316 0.1627,0.7951 2.0443,0.7951 1.5886,5e-4 2.4149,0.2165 3.7007,0.9706 1.7637,1.0323 4.009,1.2806 5.3064,0.5853 0.3954,-0.2098 0.9456,-0.9286 1.2226,-1.5956 0.4394,-1.046 0.4394,-1.3788 0.01,-2.4078 -0.2761,-0.6585 -1.0519,-1.6163 -1.7257,-2.1319 -1.2112,-0.9227 -1.8281,-2.0718 -2.7916,-5.1902 -0.3926,-1.2719 -0.7605,-1.7272 -1.8102,-2.2405 -1.239,-0.6061 -1.3912,-0.6078 -2.5574,-0.0553 -1.4269,0.6777 -2.5103,2.6283 -2.8774,5.1843 -0.1301,0.9062 -0.5185,2.103 -0.8629,2.6608 -0.4277,0.6917 -0.527,1.211 -0.3132,1.6269 0.2942,0.57 0.3965,0.5737 1.521,0.0362 z"
     style="fill:none;stroke:#009ee0;stroke-width:0.21600001;stroke-linecap:butt;stroke-linejoin:miter;stroke-dasharray:none"
     id="path150"
     inkscape:connector-curvature="0" />
  <path
     d="m -4427.1303,-700.3105 c -3.0697,-0.1342 -4.1657,0.2665 -4.7088,1.7212 -0.874,2.3415 -0.036,3.885 2.961,5.4568 1.443,0.7573 2.4877,1.6384 3.1911,2.6884 1.315,1.9712 1.9161,2.3523 3.7385,2.3759 1.2324,0.0168 1.5979,-0.1501 2.2975,-1.0417 0.7995,-1.0187 0.8084,-1.1693 0.2423,-3.9206 -0.55,-2.6613 -0.5385,-2.9835 0.165,-4.6015 0.6642,-1.5283 0.684,-1.7851 0.1523,-2.1282 -0.4979,-0.3197 -0.7502,-0.2157 -1.4359,0.595 -0.4573,0.5418 -0.9298,1.3719 -1.048,1.8417 -0.2494,0.9794 -1.5655,1.3186 -1.992,0.5126 -0.3695,-0.6997 0.3659,-1.7886 1.085,-1.6081 0.7876,0.1981 2.3904,-1.8222 2.0784,-2.6166 -0.2277,-0.5762 -0.4052,-0.5673 -2.2522,0.104 -1.5566,0.5646 -2.558,0.7033 -4.4742,0.6211 z"
     style="fill:none;stroke:#009ee0;stroke-width:0.21600001;stroke-linecap:butt;stroke-linejoin:miter;stroke-dasharray:none"
     id="path152"
     inkscape:connector-curvature="0" />
  <path
     d="m -4437.2587,-762.1623 c -2.6928,0.3812 -3.5814,0.9076 -3.818,2.2614 -0.3806,2.1792 0.5993,3.3862 3.4617,4.2677 1.3783,0.4248 2.4303,1.022 3.2127,1.8215 1.4639,1.5018 2.0487,1.7359 3.6383,1.4607 1.075,-0.1853 1.3659,-0.3897 1.83,-1.279 0.5304,-1.0161 0.5137,-1.1486 -0.4252,-3.4506 -0.9102,-2.2264 -0.9525,-2.5086 -0.6029,-4.0306 0.33,-1.4375 0.3056,-1.6642 -0.2127,-1.8764 -0.4851,-0.1975 -0.6878,-0.066 -1.1529,0.7506 -0.31,0.5456 -0.5865,1.3445 -0.6131,1.7725 -0.058,0.8926 -1.1482,1.4012 -1.65,0.7692 -0.435,-0.5489 0.028,-1.6156 0.6831,-1.5753 0.7174,0.0446 1.7843,-1.9732 1.384,-2.6138 -0.2916,-0.4645 -0.4446,-0.4279 -1.9428,0.4558 -1.2628,0.7438 -2.1116,1.0269 -3.7922,1.2663 z"
     style="fill:none;stroke:#009ee0;stroke-width:0.21600001;stroke-linecap:butt;stroke-linejoin:miter;stroke-dasharray:none"
     id="path154"
     inkscape:connector-curvature="0" />
  <path
     d="m -4415.2146,-656.4045 c -2.9995,0.1043 -4.036,0.5783 -4.4535,2.0364 -0.6718,2.3468 0.2627,3.7857 3.3009,5.0868 1.4631,0.627 2.5478,1.405 3.3131,2.3736 1.4313,1.8187 2.0457,2.1438 3.8221,2.0273 1.2013,-0.078 1.5445,-0.2684 2.1574,-1.1901 0.7005,-1.0532 0.6977,-1.2006 -0.064,-3.8362 -0.7392,-2.5493 -0.7527,-2.8639 -0.1915,-4.4933 0.5297,-1.539 0.5294,-1.7906 -0.015,-2.084 -0.5093,-0.2732 -0.747,-0.1526 -1.3527,0.6893 -0.4038,0.5626 -0.8004,1.407 -0.8795,1.8736 -0.1678,0.9727 -1.4234,1.4037 -1.9004,0.6516 -0.4133,-0.6531 0.2194,-1.7697 0.9334,-1.649 0.782,0.1326 2.1881,-1.9573 1.8235,-2.7069 -0.2658,-0.5436 -0.4379,-0.5214 -2.1851,0.2736 -1.4725,0.669 -2.4369,0.8806 -4.309,0.9473 z"
     style="fill:none;stroke:#009ee0;stroke-width:0.21600001;stroke-linecap:butt;stroke-linejoin:miter;stroke-dasharray:none"
     id="path156"
     inkscape:connector-curvature="0" />
  <path
     d="m -4409.3091,-810.1974 c -2.8137,-0.0475 -3.8073,0.3462 -4.2688,1.6913 -0.7427,2.1651 0.063,3.5577 2.8448,4.9231 1.3396,0.6579 2.3177,1.439 2.9875,2.383 1.2522,1.7724 1.8118,2.1066 3.4809,2.0834 1.1286,-0.0148 1.4592,-0.1766 2.0778,-1.01 0.7069,-0.9522 0.7114,-1.0904 0.1256,-3.5953 -0.5688,-2.423 -0.5662,-2.7182 0.038,-4.2168 0.5705,-1.4154 0.5824,-1.6511 0.087,-1.9521 -0.4637,-0.2806 -0.6921,-0.1791 -1.3,0.5799 -0.4054,0.5073 -0.8176,1.2788 -0.9143,1.7119 -0.2042,0.9027 -1.4008,1.2455 -1.8111,0.5181 -0.3554,-0.6315 0.2911,-1.6464 0.9539,-1.4989 0.7259,0.1621 2.1437,-1.7268 1.8386,-2.4464 -0.2226,-0.522 -0.3849,-0.5095 -2.0594,0.1504 -1.4113,0.5551 -2.3246,0.7066 -4.0809,0.6784 z"
     style="fill:none;stroke:#009ee0;stroke-width:0.21600001;stroke-linecap:butt;stroke-linejoin:miter;stroke-dasharray:none"
     id="path158"
     inkscape:connector-curvature="0" />
  <path
     d="m -4572.4368,-973.9071 v 489.6 h 1152.0003 v -489.6 z"
     style="fill:none;stroke:#1b1918;stroke-width:0.21600001;stroke-linecap:butt;stroke-linejoin:miter;stroke-dasharray:none"
     id="path160"
     inkscape:connector-curvature="0" />
</svg>
