  0
SECTION
  2
HEADER
  9
$ACADVER
  1
AC1014
  9
$HANDSEED
  5
FFFF
  9
$MEASUREMENT
 70
     1
  0
ENDSEC
  0
SECTION
  2
TABLES
  0
TABLE
  2
VPORT
  5
8
330
0
100
AcDbSymbolTable
 70
     4
  0
VPORT
  5
2E
330
8
100
AcDbSymbolTableRecord
100
AcDbViewportTableRecord
  2
*ACTIVE
 70
     0
 10
0.0
 20
0.0
 11
1.0
 21
1.0
 12
210.0
 22
148.5
 13
0.0
 23
0.0
 14
10.0
 24
10.0
 15
10.0
 25
10.0
 16
0.0
 26
0.0
 36
1.0
 17
0.0
 27
0.0
 37
0.0
 40
341.0
 41
1.24
 42
50.0
 43
0.0
 44
0.0
 50
0.0
 51
0.0
 71
     0
 72
   100
 73
     1
 74
     3
 75
     0
 76
     0
 77
     0
 78
     0
  0
ENDTAB
  0
TABLE
  2
LTYPE
  5
5
330
0
100
AcDbSymbolTable
 70
     1
  0
LTYPE
  5
14
330
5
100
AcDbSymbolTableRecord
100
AcDbLinetypeTableRecord
  2
BYBLOCK
 70
     0
  3

 72
    65
 73
     0
 40
0.0
  0
LTYPE
  5
15
330
5
100
AcDbSymbolTableRecord
100
AcDbLinetypeTableRecord
  2
BYLAYER
 70
     0
  3

 72
    65
 73
     0
 40
0.0
  0
LTYPE
  5
16
330
5
100
AcDbSymbolTableRecord
100
AcDbLinetypeTableRecord
  2
CONTINUOUS
 70
     0
  3
Solid line
 72
    65
 73
     0
 40
0.0
  0
ENDTAB
  0
TABLE
  2
LAYER
  5
2
100
AcDbSymbolTable
 70
2
  0
LAYER
  5
50
100
AcDbSymbolTableRecord
100
AcDbLayerTableRecord
  2
0
 70
0
  6
CONTINUOUS
  0
LAYER
  5
51
100
AcDbSymbolTableRecord
100
AcDbLayerTableRecord
  2
H0111_Printing
 70
0
  6
CONTINUOUS
  0
ENDTAB
  0
TABLE
  2
STYLE
  5
3
330
0
100
AcDbSymbolTable
 70
     1
  0
STYLE
  5
11
330
3
100
AcDbSymbolTableRecord
100
AcDbTextStyleTableRecord
  2
STANDARD
 70
     0
 40
0.0
 41
1.0
 50
0.0
 71
     0
 42
2.5
  3
txt
  4

  0
ENDTAB
  0
TABLE
  2
VIEW
  5
6
330
0
100
AcDbSymbolTable
 70
     0
  0
ENDTAB
  0
TABLE
  2
UCS
  5
7
330
0
100
AcDbSymbolTable
 70
     0
  0
ENDTAB
  0
TABLE
  2
APPID
  5
9
330
0
100
AcDbSymbolTable
 70
     2
  0
APPID
  5
12
330
9
100
AcDbSymbolTableRecord
100
AcDbRegAppTableRecord
  2
ACAD
 70
     0
  0
ENDTAB
  0
TABLE
  2
DIMSTYLE
  5
A
330
0
100
AcDbSymbolTable
 70
     1
  0
DIMSTYLE
105
27
330
A
100
AcDbSymbolTableRecord
100
AcDbDimStyleTableRecord
  2
ISO-25
 70
     0
  3

  4

  5

  6

  7

 40
1.0
 41
2.5
 42
0.625
 43
3.75
 44
1.25
 45
0.0
 46
0.0
 47
0.0
 48
0.0
140
2.5
141
2.5
142
0.0
143
0.03937007874016
144
1.0
145
0.0
146
1.0
147
0.625
 71
     0
 72
     0
 73
     0
 74
     0
 75
     0
 76
     0
 77
     1
 78
     8
170
     0
171
     3
172
     1
173
     0
174
     0
175
     0
176
     0
177
     0
178
     0
270
     2
271
     2
272
     2
273
     2
274
     3
340
11
275
     0
280
     0
281
     0
282
     0
283
     0
284
     8
285
     0
286
     0
287
     3
288
     0
  0
ENDTAB
  0
TABLE
  2
BLOCK_RECORD
  5
1
330
0
100
AcDbSymbolTable
 70
     1
  0
BLOCK_RECORD
  5
1F
330
1
100
AcDbSymbolTableRecord
100
AcDbBlockTableRecord
  2
*MODEL_SPACE
  0
BLOCK_RECORD
  5
1B
330
1
100
AcDbSymbolTableRecord
100
AcDbBlockTableRecord
  2
*PAPER_SPACE
  0
ENDTAB
  0
ENDSEC
  0
SECTION
  2
BLOCKS
  0
BLOCK
  5
20
330
1F
100
AcDbEntity
  8
0
100
AcDbBlockBegin
  2
*MODEL_SPACE
 70
     0
 10
0.0
 20
0.0
 30
0.0
  3
*MODEL_SPACE
  1

  0
ENDBLK
  5
21
330
1F
100
AcDbEntity
  8
0
100
AcDbBlockEnd
  0
BLOCK
  5
1C
330
1B
100
AcDbEntity
 67
     1
  8
0
100
AcDbBlockBegin
  2
*PAPER_SPACE
  1

  0
ENDBLK
  5
1D
330
1B
100
AcDbEntity
 67
     1
  8
0
100
AcDbBlockEnd
  0
ENDSEC
  0
SECTION
  2
ENTITIES
  0
SPLINE
  5
100
100
AcDbEntity
  8
H0111_Printing
 62
1
100
AcDbSpline
 70
8
 71
3
 72
8
 73
4
 74
0
 40
0
 40
0
 40
0
 40
0
 40
1
 40
1
 40
1
 40
1
 10
200.648895
 20
1686.303658
 30
0.0
 10
208.407895
 20
1686.303658
 30
0.0
 10
214.697895
 20
1680.042658
 30
0.0
 10
214.697895
 20
1672.318658
 30
0.0
  0
SPLINE
  5
101
100
AcDbEntity
  8
H0111_Printing
 62
1
100
AcDbSpline
 70
8
 71
3
 72
8
 73
4
 74
0
 40
0
 40
0
 40
0
 40
0
 40
1
 40
1
 40
1
 40
1
 10
214.697895
 20
1672.318658
 30
0.0
 10
214.697895
 20
1664.594658
 30
0.0
 10
208.407895
 20
1658.333659
 30
0.0
 10
200.648895
 20
1658.333659
 30
0.0
  0
SPLINE
  5
102
100
AcDbEntity
  8
H0111_Printing
 62
1
100
AcDbSpline
 70
8
 71
3
 72
8
 73
4
 74
0
 40
0
 40
0
 40
0
 40
0
 40
1
 40
1
 40
1
 40
1
 10
200.648895
 20
1658.333659
 30
0.0
 10
192.889895
 20
1658.333659
 30
0.0
 10
186.599895
 20
1664.594658
 30
0.0
 10
186.599895
 20
1672.318658
 30
0.0
  0
SPLINE
  5
103
100
AcDbEntity
  8
H0111_Printing
 62
1
100
AcDbSpline
 70
8
 71
3
 72
8
 73
4
 74
0
 40
0
 40
0
 40
0
 40
0
 40
1
 40
1
 40
1
 40
1
 10
186.599895
 20
1672.318658
 30
0.0
 10
186.599895
 20
1680.042658
 30
0.0
 10
192.889895
 20
1686.303658
 30
0.0
 10
200.648895
 20
1686.303658
 30
0.0
  0
SPLINE
  5
104
100
AcDbEntity
  8
H0111_Printing
 62
1
100
AcDbSpline
 70
8
 71
3
 72
8
 73
4
 74
0
 40
0
 40
0
 40
0
 40
0
 40
1
 40
1
 40
1
 40
1
 10
361.443891
 20
1465.768663
 30
0.0
 10
357.252891
 20
1508.076662
 30
0.0
 10
358.091891
 20
1526.327662
 30
0.0
 10
358.091891
 20
1526.327662
 30
0.0
  0
SPLINE
  5
105
100
AcDbEntity
  8
H0111_Printing
 62
1
100
AcDbSpline
 70
8
 71
3
 72
8
 73
4
 74
0
 40
0
 40
0
 40
0
 40
0
 40
1
 40
1
 40
1
 40
1
 10
358.091891
 20
1526.327662
 30
0.0
 10
358.091891
 20
1526.327662
 30
0.0
 10
306.953892
 20
1469.087663
 30
0.0
 10
280.126893
 20
1465.768663
 30
0.0
  0
SPLINE
  5
106
100
AcDbEntity
  8
H0111_Printing
 62
1
100
AcDbSpline
 70
8
 71
3
 72
8
 73
4
 74
0
 40
0
 40
0
 40
0
 40
0
 40
1
 40
1
 40
1
 40
1
 10
280.126893
 20
1465.768663
 30
0.0
 10
253.300894
 20
1462.450663
 30
0.0
 10
236.533894
 20
1484.848663
 30
0.0
 10
236.533894
 20
1530.475662
 30
0.0
  0
SPLINE
  5
107
100
AcDbEntity
  8
H0111_Printing
 62
1
100
AcDbSpline
 70
8
 71
3
 72
8
 73
4
 74
0
 40
0
 40
0
 40
0
 40
0
 40
1
 40
1
 40
1
 40
1
 10
236.533894
 20
1530.475662
 30
0.0
 10
236.533894
 20
1576.101661
 30
0.0
 10
238.209894
 20
1667.353658
 30
0.0
 10
238.209894
 20
1667.353658
 30
0.0
  0
LWPOLYLINE
  5
108
100
AcDbEntity
  8
H0111_Printing
 62
1
100
AcDbPolyline
 90
1
 70
1
 10
200.648895
 20
1686.303658
 30
0.0
  0
SPLINE
  5
109
100
AcDbEntity
  8
H0111_Printing
 62
1
100
AcDbSpline
 70
8
 71
3
 72
8
 73
4
 74
0
 40
0
 40
0
 40
0
 40
0
 40
1
 40
1
 40
1
 40
1
 10
228.552894
 20
1667.353658
 30
0.0
 10
228.837894
 20
1668.966658
 30
0.0
 10
228.994894
 20
1670.623658
 30
0.0
 10
228.994894
 20
1672.318658
 30
0.0
  0
SPLINE
  5
10a
100
AcDbEntity
  8
H0111_Printing
 62
1
100
AcDbSpline
 70
8
 71
3
 72
8
 73
4
 74
0
 40
0
 40
0
 40
0
 40
0
 40
1
 40
1
 40
1
 40
1
 10
228.994894
 20
1672.318658
 30
0.0
 10
228.994894
 20
1687.973658
 30
0.0
 10
216.303895
 20
1700.664657
 30
0.0
 10
200.648895
 20
1700.664657
 30
0.0
  0
SPLINE
  5
10b
100
AcDbEntity
  8
H0111_Printing
 62
1
100
AcDbSpline
 70
8
 71
3
 72
8
 73
4
 74
0
 40
0
 40
0
 40
0
 40
0
 40
1
 40
1
 40
1
 40
1
 10
200.648895
 20
1700.664657
 30
0.0
 10
184.993895
 20
1700.664657
 30
0.0
 10
172.302896
 20
1687.973658
 30
0.0
 10
172.302896
 20
1672.318658
 30
0.0
  0
SPLINE
  5
10c
100
AcDbEntity
  8
H0111_Printing
 62
1
100
AcDbSpline
 70
8
 71
3
 72
8
 73
4
 74
0
 40
0
 40
0
 40
0
 40
0
 40
1
 40
1
 40
1
 40
1
 10
172.302896
 20
1672.318658
 30
0.0
 10
172.302896
 20
1670.623658
 30
0.0
 10
172.459896
 20
1668.966658
 30
0.0
 10
172.744896
 20
1667.353658
 30
0.0
  0
LWPOLYLINE
  5
10d
100
AcDbEntity
  8
H0111_Printing
 62
1
100
AcDbPolyline
 90
2
 70
0
 10
238.209894
 20
1667.353658
 30
0.0
 10
228.552894
 20
1667.353658
 30
0.0
  0
SPLINE
  5
10e
100
AcDbEntity
  8
H0111_Printing
 62
1
100
AcDbSpline
 70
8
 71
3
 72
8
 73
4
 74
0
 40
0
 40
0
 40
0
 40
0
 40
1
 40
1
 40
1
 40
1
 10
147.670896
 20
1667.353658
 30
0.0
 10
147.670896
 20
1667.353658
 30
0.0
 10
162.760896
 20
1576.930661
 30
0.0
 10
159.406896
 20
1510.565662
 30
0.0
  0
SPLINE
  5
10f
100
AcDbEntity
  8
H0111_Printing
 62
1
100
AcDbSpline
 70
8
 71
3
 72
8
 73
4
 74
0
 40
0
 40
0
 40
0
 40
0
 40
1
 40
1
 40
1
 40
1
 10
159.406896
 20
1510.565662
 30
0.0
 10
156.053896
 20
1444.199664
 30
0.0
 10
104.077897
 20
1443.370664
 30
0.0
 10
62.161898
 20
1455.813664
 30
0.0
  0
SPLINE
  5
110
100
AcDbEntity
  8
H0111_Printing
 62
1
100
AcDbSpline
 70
8
 71
3
 72
8
 73
4
 74
0
 40
0
 40
0
 40
0
 40
0
 40
1
 40
1
 40
1
 40
1
 10
62.161898
 20
1455.813664
 30
0.0
 10
20.244899
 20
1468.257663
 30
0.0
 10
0.124900
 20
1475.723663
 30
0.0
 10
0.124900
 20
1475.723663
 30
0.0
  0
LWPOLYLINE
  5
111
100
AcDbEntity
  8
H0111_Printing
 62
1
100
AcDbPolyline
 90
2
 70
0
 10
172.744896
 20
1667.353658
 30
0.0
 10
147.670896
 20
1667.353658
 30
0.0
  0
SPLINE
  5
112
100
AcDbEntity
  8
H0111_Printing
 62
1
100
AcDbSpline
 70
8
 71
3
 72
8
 73
4
 74
0
 40
0
 40
0
 40
0
 40
0
 40
1
 40
1
 40
1
 40
1
 10
0.124900
 20
1360.196666
 30
0.0
 10
0.124900
 20
1360.196666
 30
0.0
 10
71.382898
 20
1339.105667
 30
0.0
 10
109.945897
 20
1252.700669
 30
0.0
  0
SPLINE
  5
113
100
AcDbEntity
  8
H0111_Printing
 62
1
100
AcDbSpline
 70
8
 71
3
 72
8
 73
4
 74
0
 40
0
 40
0
 40
0
 40
0
 40
1
 40
1
 40
1
 40
1
 10
109.945897
 20
1252.700669
 30
0.0
 10
148.509896
 20
1166.294671
 30
0.0
 10
151.862896
 20
976.324676
 30
0.0
 10
151.862896
 20
976.324676
 30
0.0
  0
LWPOLYLINE
  5
114
100
AcDbEntity
  8
H0111_Printing
 62
1
100
AcDbPolyline
 90
2
 70
0
 10
0.124900
 20
1475.723663
 30
0.0
 10
0.124900
 20
1360.196666
 30
0.0
  0
SPLINE
  5
115
100
AcDbEntity
  8
H0111_Printing
 62
1
100
AcDbSpline
 70
8
 71
3
 72
8
 73
4
 74
0
 40
0
 40
0
 40
0
 40
0
 40
1
 40
1
 40
1
 40
1
 10
255.815894
 20
930.697677
 30
0.0
 10
255.815894
 20
930.697677
 30
0.0
 10
252.498894
 20
949.339676
 30
0.0
 10
245.883894
 20
976.073676
 30
0.0
  0
LWPOLYLINE
  5
116
100
AcDbEntity
  8
H0111_Printing
 62
1
100
AcDbPolyline
 90
4
 70
0
 10
151.862896
 20
976.324676
 30
0.0
 10
160.777896
 20
972.410676
 30
0.0
 10
243.769894
 20
935.984677
 30
0.0
 10
255.815894
 20
930.697677
 30
0.0
  0
SPLINE
  5
117
100
AcDbEntity
  8
H0111_Printing
 62
1
100
AcDbSpline
 70
8
 71
3
 72
8
 73
4
 74
0
 40
0
 40
0
 40
0
 40
0
 40
1
 40
1
 40
1
 40
1
 10
245.749894
 20
976.622676
 30
0.0
 10
228.980894
 20
1044.592674
 30
0.0
 10
204.821895
 20
1177.634671
 30
0.0
 10
242.000894
 20
1273.764668
 30
0.0
  0
SPLINE
  5
118
100
AcDbEntity
  8
H0111_Printing
 62
1
100
AcDbSpline
 70
8
 71
3
 72
8
 73
4
 74
0
 40
0
 40
0
 40
0
 40
0
 40
1
 40
1
 40
1
 40
1
 10
242.000894
 20
1273.764668
 30
0.0
 10
293.977893
 20
1408.154665
 30
0.0
 10
333.779892
 20
1396.914665
 30
0.0
 10
358.091891
 20
1398.573665
 30
0.0
  0
SPLINE
  5
119
100
AcDbEntity
  8
H0111_Printing
 62
1
100
AcDbSpline
 70
8
 71
3
 72
8
 73
4
 74
0
 40
0
 40
0
 40
0
 40
0
 40
1
 40
1
 40
1
 40
1
 10
358.091891
 20
1398.573665
 30
0.0
 10
382.402890
 20
1400.232665
 30
0.0
 10
400.845890
 20
1398.573665
 30
0.0
 10
400.845890
 20
1398.573665
 30
0.0
  0
SPLINE
  5
11a
100
AcDbEntity
  8
H0111_Printing
 62
1
100
AcDbSpline
 70
8
 71
3
 72
8
 73
4
 74
0
 40
0
 40
0
 40
0
 40
0
 40
1
 40
1
 40
1
 40
1
 10
400.845890
 20
1398.573665
 30
0.0
 10
400.845890
 20
1398.573665
 30
0.0
 10
365.636891
 20
1423.460664
 30
0.0
 10
361.443891
 20
1465.768663
 30
0.0
  0
LWPOLYLINE
  5
11b
100
AcDbEntity
  8
H0111_Printing
 62
1
100
AcDbPolyline
 90
3
 70
0
 10
245.883894
 20
976.073676
 30
0.0
 10
245.883894
 20
976.622676
 30
0.0
 10
245.749894
 20
976.622676
 30
0.0
  0
SPLINE
  5
11c
100
AcDbEntity
  8
H0111_Printing
 62
1
100
AcDbSpline
 70
8
 71
3
 72
8
 73
4
 74
0
 40
0
 40
0
 40
0
 40
0
 40
1
 40
1
 40
1
 40
1
 10
328.917192
 20
1283.328568
 30
0.0
 10
344.814191
 20
1293.441568
 30
0.0
 10
327.782192
 20
1288.384568
 30
0.0
 10
354.465191
 20
1302.991567
 30
0.0
  0
SPLINE
  5
11d
100
AcDbEntity
  8
H0111_Printing
 62
1
100
AcDbSpline
 70
8
 71
3
 72
8
 73
4
 74
0
 40
0
 40
0
 40
0
 40
0
 40
1
 40
1
 40
1
 40
1
 10
354.465191
 20
1302.991567
 30
0.0
 10
381.150190
 20
1317.598567
 30
0.0
 10
406.698190
 20
1319.846567
 30
0.0
 10
419.188190
 20
1358.610566
 30
0.0
  0
SPLINE
  5
11e
100
AcDbEntity
  8
H0111_Printing
 62
1
100
AcDbSpline
 70
8
 71
3
 72
8
 73
4
 74
0
 40
0
 40
0
 40
0
 40
0
 40
1
 40
1
 40
1
 40
1
 10
419.188190
 20
1358.610566
 30
0.0
 10
431.679189
 20
1397.375565
 30
0.0
 10
427.137189
 20
1419.286565
 30
0.0
 10
433.382189
 20
1431.646564
 30
0.0
  0
SPLINE
  5
11f
100
AcDbEntity
  8
H0111_Printing
 62
1
100
AcDbSpline
 70
8
 71
3
 72
8
 73
4
 74
0
 40
0
 40
0
 40
0
 40
0
 40
1
 40
1
 40
1
 40
1
 10
433.382189
 20
1431.646564
 30
0.0
 10
439.627189
 20
1444.006564
 30
0.0
 10
441.898189
 20
1443.444564
 30
0.0
 10
443.033189
 20
1467.602563
 30
0.0
  0
SPLINE
  5
120
100
AcDbEntity
  8
H0111_Printing
 62
1
100
AcDbSpline
 70
8
 71
3
 72
8
 73
4
 74
0
 40
0
 40
0
 40
0
 40
0
 40
1
 40
1
 40
1
 40
1
 10
443.033189
 20
1467.602563
 30
0.0
 10
444.169189
 20
1491.760563
 30
0.0
 10
445.256189
 20
1526.997562
 30
0.0
 10
443.048189
 20
1542.735561
 30
0.0
  0
SPLINE
  5
121
100
AcDbEntity
  8
H0111_Printing
 62
1
100
AcDbSpline
 70
8
 71
3
 72
8
 73
4
 74
0
 40
0
 40
0
 40
0
 40
0
 40
1
 40
1
 40
1
 40
1
 10
443.048189
 20
1542.735561
 30
0.0
 10
441.775189
 20
1551.808561
 30
0.0
 10
444.121189
 20
1558.720561
 30
0.0
 10
450.406189
 20
1550.869561
 30
0.0
  0
SPLINE
  5
122
100
AcDbEntity
  8
H0111_Printing
 62
1
100
AcDbSpline
 70
8
 71
3
 72
8
 73
4
 74
0
 40
0
 40
0
 40
0
 40
0
 40
1
 40
1
 40
1
 40
1
 10
450.406189
 20
1550.869561
 30
0.0
 10
457.026189
 20
1542.598561
 30
0.0
 10
460.917188
 20
1552.716561
 30
0.0
 10
468.582188
 20
1543.727561
 30
0.0
  0
SPLINE
  5
123
100
AcDbEntity
  8
H0111_Printing
 62
1
100
AcDbSpline
 70
8
 71
3
 72
8
 73
4
 74
0
 40
0
 40
0
 40
0
 40
0
 40
1
 40
1
 40
1
 40
1
 10
468.582188
 20
1543.727561
 30
0.0
 10
476.246188
 20
1534.738562
 30
0.0
 10
477.666188
 20
1480.523563
 30
0.0
 10
479.085188
 20
1471.534563
 30
0.0
  0
SPLINE
  5
124
100
AcDbEntity
  8
H0111_Printing
 62
1
100
AcDbSpline
 70
8
 71
3
 72
8
 73
4
 74
0
 40
0
 40
0
 40
0
 40
0
 40
1
 40
1
 40
1
 40
1
 10
479.085188
 20
1471.534563
 30
0.0
 10
480.504188
 20
1462.546563
 30
0.0
 10
485.614188
 20
1465.074563
 30
0.0
 10
510.027187
 20
1394.847565
 30
0.0
  0
SPLINE
  5
125
100
AcDbEntity
  8
H0111_Printing
 62
1
100
AcDbSpline
 70
8
 71
3
 72
8
 73
4
 74
0
 40
0
 40
0
 40
0
 40
0
 40
1
 40
1
 40
1
 40
1
 10
510.027187
 20
1394.847565
 30
0.0
 10
534.440187
 20
1324.621567
 30
0.0
 10
531.034187
 20
1323.497567
 30
0.0
 10
560.556186
 20
1306.362567
 30
0.0
  0
SPLINE
  5
126
100
AcDbEntity
  8
H0111_Printing
 62
1
100
AcDbSpline
 70
8
 71
3
 72
8
 73
4
 74
0
 40
0
 40
0
 40
0
 40
0
 40
1
 40
1
 40
1
 40
1
 10
560.556186
 20
1306.362567
 30
0.0
 10
590.079185
 20
1289.227568
 30
0.0
 10
602.569185
 20
1288.665568
 30
0.0
 10
600.866185
 20
1278.272568
 30
0.0
  0
SPLINE
  5
127
100
AcDbEntity
  8
H0111_Printing
 62
1
100
AcDbSpline
 70
8
 71
3
 72
8
 73
4
 74
0
 40
0
 40
0
 40
0
 40
0
 40
1
 40
1
 40
1
 40
1
 10
600.866185
 20
1278.272568
 30
0.0
 10
599.163185
 20
1267.878568
 30
0.0
 10
581.847185
 20
1271.249568
 30
0.0
 10
577.589186
 20
1277.429568
 30
0.0
  0
SPLINE
  5
128
100
AcDbEntity
  8
H0111_Printing
 62
1
100
AcDbSpline
 70
8
 71
3
 72
8
 73
4
 74
0
 40
0
 40
0
 40
0
 40
0
 40
1
 40
1
 40
1
 40
1
 10
577.589186
 20
1277.429568
 30
0.0
 10
573.331186
 20
1283.609568
 30
0.0
 10
480.504188
 20
1314.789567
 30
0.0
 10
480.504188
 20
1314.789567
 30
0.0
  0
SPLINE
  5
129
100
AcDbEntity
  8
H0111_Printing
 62
1
100
AcDbSpline
 70
8
 71
3
 72
8
 73
4
 74
0
 40
0
 40
0
 40
0
 40
0
 40
1
 40
1
 40
1
 40
1
 10
480.504188
 20
1314.789567
 30
0.0
 10
480.504188
 20
1314.789567
 30
0.0
 10
505.201187
 20
1290.912568
 30
0.0
 10
505.201187
 20
1267.878568
 30
0.0
  0
SPLINE
  5
12a
100
AcDbEntity
  8
H0111_Printing
 62
1
100
AcDbSpline
 70
8
 71
3
 72
8
 73
4
 74
0
 40
0
 40
0
 40
0
 40
0
 40
1
 40
1
 40
1
 40
1
 10
505.201187
 20
1267.878568
 30
0.0
 10
505.201187
 20
1244.844569
 30
0.0
 10
492.190188
 20
1223.495569
 30
0.0
 10
457.534189
 20
1223.495569
 30
0.0
  0
SPLINE
  5
12b
100
AcDbEntity
  8
H0111_Printing
 62
1
100
AcDbSpline
 70
8
 71
3
 72
8
 73
4
 74
0
 40
0
 40
0
 40
0
 40
0
 40
1
 40
1
 40
1
 40
1
 10
457.534189
 20
1223.495569
 30
0.0
 10
422.879189
 20
1223.495569
 30
0.0
 10
417.769190
 20
1253.552569
 30
0.0
 10
417.769190
 20
1274.901568
 30
0.0
  0
SPLINE
  5
12c
100
AcDbEntity
  8
H0111_Printing
 62
1
100
AcDbSpline
 70
8
 71
3
 72
8
 73
4
 74
0
 40
0
 40
0
 40
0
 40
0
 40
1
 40
1
 40
1
 40
1
 10
417.769190
 20
1274.901568
 30
0.0
 10
417.769190
 20
1296.250568
 30
0.0
 10
450.414189
 20
1313.104567
 30
0.0
 10
450.414189
 20
1313.104567
 30
0.0
  0
SPLINE
  5
12d
100
AcDbEntity
  8
H0111_Printing
 62
1
100
AcDbSpline
 70
8
 71
3
 72
8
 73
4
 74
0
 40
0
 40
0
 40
0
 40
0
 40
1
 40
1
 40
1
 40
1
 10
450.414189
 20
1313.104567
 30
0.0
 10
450.414189
 20
1313.104567
 30
0.0
 10
436.788189
 20
1316.475567
 30
0.0
 10
391.937190
 20
1296.811568
 30
0.0
  0
SPLINE
  5
12e
100
AcDbEntity
  8
H0111_Printing
 62
1
100
AcDbSpline
 70
8
 71
3
 72
8
 73
4
 74
0
 40
0
 40
0
 40
0
 40
0
 40
1
 40
1
 40
1
 40
1
 10
391.937190
 20
1296.811568
 30
0.0
 10
347.085191
 20
1277.148568
 30
0.0
 10
344.814191
 20
1268.721568
 30
0.0
 10
331.756192
 20
1264.226568
 30
0.0
  0
SPLINE
  5
12f
100
AcDbEntity
  8
H0111_Printing
 62
1
100
AcDbSpline
 70
8
 71
3
 72
8
 73
4
 74
0
 40
0
 40
0
 40
0
 40
0
 40
1
 40
1
 40
1
 40
1
 10
331.756192
 20
1264.226568
 30
0.0
 10
318.698192
 20
1259.732569
 30
0.0
 10
313.020192
 20
1273.215568
 30
0.0
 10
328.917192
 20
1283.328568
 30
0.0
  0
LWPOLYLINE
  5
130
100
AcDbEntity
  8
H0111_Printing
 62
1
100
AcDbPolyline
 90
1
 70
1
 10
361.443891
 20
1465.768663
 30
0.0
  0
SPLINE
  5
131
100
AcDbEntity
  8
H0111_Printing
 62
1
100
AcDbSpline
 70
8
 71
3
 72
8
 73
4
 74
0
 40
0
 40
0
 40
0
 40
0
 40
1
 40
1
 40
1
 40
1
 10
263.042193
 20
1220.204569
 30
0.0
 10
263.042193
 20
1220.204569
 30
0.0
 10
273.102193
 20
1226.011569
 30
0.0
 10
307.474192
 20
1239.284569
 30
0.0
  0
SPLINE
  5
132
100
AcDbEntity
  8
H0111_Printing
 62
1
100
AcDbSpline
 70
8
 71
3
 72
8
 73
4
 74
0
 40
0
 40
0
 40
0
 40
0
 40
1
 40
1
 40
1
 40
1
 10
307.474192
 20
1239.284569
 30
0.0
 10
341.845191
 20
1252.557569
 30
0.0
 10
408.073190
 20
1282.421568
 30
0.0
 10
409.749190
 20
1212.738570
 30
0.0
  0
SPLINE
  5
133
100
AcDbEntity
  8
H0111_Printing
 62
1
100
AcDbSpline
 70
8
 71
3
 72
8
 73
4
 74
0
 40
0
 40
0
 40
0
 40
0
 40
1
 40
1
 40
1
 40
1
 10
409.749190
 20
1212.738570
 30
0.0
 10
411.426190
 20
1143.054571
 30
0.0
 10
395.498190
 20
1078.348573
 30
0.0
 10
395.498190
 20
1078.348573
 30
0.0
  0
LWPOLYLINE
  5
134
100
AcDbEntity
  8
H0111_Printing
 62
1
100
AcDbPolyline
 90
1
 70
1
 10
328.917192
 20
1283.328568
 30
0.0
  0
SPLINE
  5
135
100
AcDbEntity
  8
H0111_Printing
 62
1
100
AcDbSpline
 70
8
 71
3
 72
8
 73
4
 74
0
 40
0
 40
0
 40
0
 40
0
 40
1
 40
1
 40
1
 40
1
 10
478.492188
 20
1106.553572
 30
0.0
 10
478.492188
 20
1106.553572
 30
0.0
 10
462.337188
 20
1196.809570
 30
0.0
 10
506.053187
 20
1237.259569
 30
0.0
  0
SPLINE
  5
136
100
AcDbEntity
  8
H0111_Printing
 62
1
100
AcDbSpline
 70
8
 71
3
 72
8
 73
4
 74
0
 40
0
 40
0
 40
0
 40
0
 40
1
 40
1
 40
1
 40
1
 10
506.053187
 20
1237.259569
 30
0.0
 10
549.769186
 20
1277.710568
 30
0.0
 10
657.894184
 20
1227.147569
 30
0.0
 10
657.894184
 20
1227.147569
 30
0.0
  0
LWPOLYLINE
  5
137
100
AcDbEntity
  8
H0111_Printing
 62
1
100
AcDbPolyline
 90
2
 70
0
 10
395.498190
 20
1078.348573
 30
0.0
 10
478.492188
 20
1106.553572
 30
0.0
  0
SPLINE
  5
138
100
AcDbEntity
  8
H0111_Printing
 62
1
100
AcDbSpline
 70
8
 71
3
 72
8
 73
4
 74
0
 40
0
 40
0
 40
0
 40
0
 40
1
 40
1
 40
1
 40
1
 10
651.395184
 20
1305.239567
 30
0.0
 10
651.395184
 20
1305.239567
 30
0.0
 10
640.608184
 20
1302.429567
 30
0.0
 10
619.602185
 20
1308.048567
 30
0.0
  0
SPLINE
  5
139
100
AcDbEntity
  8
H0111_Printing
 62
1
100
AcDbSpline
 70
8
 71
3
 72
8
 73
4
 74
0
 40
0
 40
0
 40
0
 40
0
 40
1
 40
1
 40
1
 40
1
 10
619.602185
 20
1308.048567
 30
0.0
 10
598.595185
 20
1313.666567
 30
0.0
 10
546.397186
 20
1324.729567
 30
0.0
 10
512.864187
 20
1443.726564
 30
0.0
  0
SPLINE
  5
13a
100
AcDbEntity
  8
H0111_Printing
 62
1
100
AcDbSpline
 70
8
 71
3
 72
8
 73
4
 74
0
 40
0
 40
0
 40
0
 40
0
 40
1
 40
1
 40
1
 40
1
 10
512.864187
 20
1443.726564
 30
0.0
 10
479.331188
 20
1562.724561
 30
0.0
 10
474.301188
 20
1700.523557
 30
0.0
 10
474.301188
 20
1700.523557
 30
0.0
  0
LWPOLYLINE
  5
13b
100
AcDbEntity
  8
H0111_Printing
 62
1
100
AcDbPolyline
 90
2
 70
0
 10
657.894184
 20
1227.147569
 30
0.0
 10
651.395184
 20
1305.239567
 30
0.0
  0
SPLINE
  5
13c
100
AcDbEntity
  8
H0111_Printing
 62
1
100
AcDbSpline
 70
8
 71
3
 72
8
 73
4
 74
0
 40
0
 40
0
 40
0
 40
0
 40
1
 40
1
 40
1
 40
1
 10
418.971190
 20
1601.805560
 30
0.0
 10
426.516189
 20
1557.838561
 30
0.0
 10
434.061189
 20
1400.220565
 30
0.0
 10
387.953190
 20
1344.639566
 30
0.0
  0
SPLINE
  5
13d
100
AcDbEntity
  8
H0111_Printing
 62
1
100
AcDbSpline
 70
8
 71
3
 72
8
 73
4
 74
0
 40
0
 40
0
 40
0
 40
0
 40
1
 40
1
 40
1
 40
1
 10
387.953190
 20
1344.639566
 30
0.0
 10
341.845191
 20
1289.058568
 30
0.0
 10
257.174194
 20
1309.797567
 30
0.0
 10
257.174194
 20
1309.797567
 30
0.0
  0
LWPOLYLINE
  5
13e
100
AcDbEntity
  8
H0111_Printing
 62
1
100
AcDbPolyline
 90
3
 70
0
 10
474.301188
 20
1700.523557
 30
0.0
 10
411.426190
 20
1645.772559
 30
0.0
 10
418.971190
 20
1601.805560
 30
0.0
  0
LWPOLYLINE
  5
13f
100
AcDbEntity
  8
H0111_Printing
 62
1
100
AcDbPolyline
 90
2
 70
0
 10
257.174194
 20
1309.797567
 30
0.0
 10
263.042193
 20
1220.204569
 30
0.0
  0
ENDSEC
  0
SECTION
  2
OBJECTS
  0
DICTIONARY
  5
C
330
0
100
AcDbDictionary
  3
ACAD_GROUP
350
D
  3
ACAD_MLINESTYLE
350
17
  0
DICTIONARY
  5
D
330
C
100
AcDbDictionary
  0
DICTIONARY
  5
1A
330
C
100
AcDbDictionary
  0
DICTIONARY
  5
17
330
C
100
AcDbDictionary
  3
STANDARD
350
18
  0
DICTIONARY
  5
19
330
C
100
AcDbDictionary
  0
ENDSEC
  0
EOF
