  0
SECTION
  2
HEADER
  9
$ACADVER
  1
AC1014
  9
$HANDSEED
  5
FFFF
  9
$MEASUREMENT
 70
     1
  0
ENDSEC
  0
SECTION
  2
TABLES
  0
TABLE
  2
VPORT
  5
8
330
0
100
AcDbSymbolTable
 70
     4
  0
VPORT
  5
2E
330
8
100
AcDbSymbolTableRecord
100
AcDbViewportTableRecord
  2
*ACTIVE
 70
     0
 10
0.0
 20
0.0
 11
1.0
 21
1.0
 12
210.0
 22
148.5
 13
0.0
 23
0.0
 14
10.0
 24
10.0
 15
10.0
 25
10.0
 16
0.0
 26
0.0
 36
1.0
 17
0.0
 27
0.0
 37
0.0
 40
341.0
 41
1.24
 42
50.0
 43
0.0
 44
0.0
 50
0.0
 51
0.0
 71
     0
 72
   100
 73
     1
 74
     3
 75
     0
 76
     0
 77
     0
 78
     0
  0
ENDTAB
  0
TABLE
  2
LTYPE
  5
5
330
0
100
AcDbSymbolTable
 70
     1
  0
LTYPE
  5
14
330
5
100
AcDbSymbolTableRecord
100
AcDbLinetypeTableRecord
  2
BYBLOCK
 70
     0
  3

 72
    65
 73
     0
 40
0.0
  0
LTYPE
  5
15
330
5
100
AcDbSymbolTableRecord
100
AcDbLinetypeTableRecord
  2
BYLAYER
 70
     0
  3

 72
    65
 73
     0
 40
0.0
  0
LTYPE
  5
16
330
5
100
AcDbSymbolTableRecord
100
AcDbLinetypeTableRecord
  2
CONTINUOUS
 70
     0
  3
Solid line
 72
    65
 73
     0
 40
0.0
  0
ENDTAB
  0
TABLE
  2
LAYER
  5
2
100
AcDbSymbolTable
 70
2
  0
LAYER
  5
50
100
AcDbSymbolTableRecord
100
AcDbLayerTableRecord
  2
0
 70
0
  6
CONTINUOUS
  0
LAYER
  5
51
100
AcDbSymbolTableRecord
100
AcDbLayerTableRecord
  2
H0110_Printing
 70
0
  6
CONTINUOUS
  0
ENDTAB
  0
TABLE
  2
STYLE
  5
3
330
0
100
AcDbSymbolTable
 70
     1
  0
STYLE
  5
11
330
3
100
AcDbSymbolTableRecord
100
AcDbTextStyleTableRecord
  2
STANDARD
 70
     0
 40
0.0
 41
1.0
 50
0.0
 71
     0
 42
2.5
  3
txt
  4

  0
ENDTAB
  0
TABLE
  2
VIEW
  5
6
330
0
100
AcDbSymbolTable
 70
     0
  0
ENDTAB
  0
TABLE
  2
UCS
  5
7
330
0
100
AcDbSymbolTable
 70
     0
  0
ENDTAB
  0
TABLE
  2
APPID
  5
9
330
0
100
AcDbSymbolTable
 70
     2
  0
APPID
  5
12
330
9
100
AcDbSymbolTableRecord
100
AcDbRegAppTableRecord
  2
ACAD
 70
     0
  0
ENDTAB
  0
TABLE
  2
DIMSTYLE
  5
A
330
0
100
AcDbSymbolTable
 70
     1
  0
DIMSTYLE
105
27
330
A
100
AcDbSymbolTableRecord
100
AcDbDimStyleTableRecord
  2
ISO-25
 70
     0
  3

  4

  5

  6

  7

 40
1.0
 41
2.5
 42
0.625
 43
3.75
 44
1.25
 45
0.0
 46
0.0
 47
0.0
 48
0.0
140
2.5
141
2.5
142
0.0
143
0.03937007874016
144
1.0
145
0.0
146
1.0
147
0.625
 71
     0
 72
     0
 73
     0
 74
     0
 75
     0
 76
     0
 77
     1
 78
     8
170
     0
171
     3
172
     1
173
     0
174
     0
175
     0
176
     0
177
     0
178
     0
270
     2
271
     2
272
     2
273
     2
274
     3
340
11
275
     0
280
     0
281
     0
282
     0
283
     0
284
     8
285
     0
286
     0
287
     3
288
     0
  0
ENDTAB
  0
TABLE
  2
BLOCK_RECORD
  5
1
330
0
100
AcDbSymbolTable
 70
     1
  0
BLOCK_RECORD
  5
1F
330
1
100
AcDbSymbolTableRecord
100
AcDbBlockTableRecord
  2
*MODEL_SPACE
  0
BLOCK_RECORD
  5
1B
330
1
100
AcDbSymbolTableRecord
100
AcDbBlockTableRecord
  2
*PAPER_SPACE
  0
ENDTAB
  0
ENDSEC
  0
SECTION
  2
BLOCKS
  0
BLOCK
  5
20
330
1F
100
AcDbEntity
  8
0
100
AcDbBlockBegin
  2
*MODEL_SPACE
 70
     0
 10
0.0
 20
0.0
 30
0.0
  3
*MODEL_SPACE
  1

  0
ENDBLK
  5
21
330
1F
100
AcDbEntity
  8
0
100
AcDbBlockEnd
  0
BLOCK
  5
1C
330
1B
100
AcDbEntity
 67
     1
  8
0
100
AcDbBlockBegin
  2
*PAPER_SPACE
  1

  0
ENDBLK
  5
1D
330
1B
100
AcDbEntity
 67
     1
  8
0
100
AcDbBlockEnd
  0
ENDSEC
  0
SECTION
  2
ENTITIES
  0
SPLINE
  5
100
100
AcDbEntity
  8
H0110_Printing
 62
1
100
AcDbSpline
 70
8
 71
3
 72
8
 73
4
 74
0
 40
0
 40
0
 40
0
 40
0
 40
1
 40
1
 40
1
 40
1
 10
470.098288
 20
1384.917165
 30
0.0
 10
485.955288
 20
1382.272165
 30
0.0
 10
486.175288
 20
1379.187166
 30
0.0
 10
486.175288
 20
1372.355166
 30
0.0
  0
SPLINE
  5
101
100
AcDbEntity
  8
H0110_Printing
 62
1
100
AcDbSpline
 70
8
 71
3
 72
8
 73
4
 74
0
 40
0
 40
0
 40
0
 40
0
 40
1
 40
1
 40
1
 40
1
 10
486.175288
 20
1339.740167
 30
0.0
 10
486.175288
 20
1325.195167
 30
0.0
 10
482.211288
 20
1324.754167
 30
0.0
 10
476.925288
 20
1325.415167
 30
0.0
  0
SPLINE
  5
102
100
AcDbEntity
  8
H0110_Printing
 62
1
100
AcDbSpline
 70
8
 71
3
 72
8
 73
4
 74
0
 40
0
 40
0
 40
0
 40
0
 40
1
 40
1
 40
1
 40
1
 10
476.925288
 20
1325.415167
 30
0.0
 10
471.640288
 20
1326.076167
 30
0.0
 10
466.354288
 20
1327.178167
 30
0.0
 10
458.646289
 20
1328.721167
 30
0.0
  0
SPLINE
  5
103
100
AcDbEntity
  8
H0110_Printing
 62
1
100
AcDbSpline
 70
8
 71
3
 72
8
 73
4
 74
0
 40
0
 40
0
 40
0
 40
0
 40
1
 40
1
 40
1
 40
1
 10
458.646289
 20
1328.721167
 30
0.0
 10
450.938289
 20
1330.263167
 30
0.0
 10
448.735289
 20
1331.365167
 30
0.0
 10
448.735289
 20
1337.977167
 30
0.0
  0
LWPOLYLINE
  5
104
100
AcDbEntity
  8
H0110_Printing
 62
1
100
AcDbPolyline
 90
2
 70
0
 10
486.175288
 20
1372.355166
 30
0.0
 10
486.175288
 20
1339.740167
 30
0.0
  0
SPLINE
  5
105
100
AcDbEntity
  8
H0110_Printing
 62
1
100
AcDbSpline
 70
8
 71
3
 72
8
 73
4
 74
0
 40
0
 40
0
 40
0
 40
0
 40
1
 40
1
 40
1
 40
1
 10
448.735289
 20
1370.813166
 30
0.0
 10
448.735289
 20
1370.813166
 30
0.0
 10
422.088289
 20
1380.124165
 30
0.0
 10
422.088289
 20
1373.182166
 30
0.0
  0
SPLINE
  5
106
100
AcDbEntity
  8
H0110_Printing
 62
1
100
AcDbSpline
 70
8
 71
3
 72
8
 73
4
 74
0
 40
0
 40
0
 40
0
 40
0
 40
1
 40
1
 40
1
 40
1
 10
422.088289
 20
1373.182166
 30
0.0
 10
422.088289
 20
1366.240166
 30
0.0
 10
412.507290
 20
1367.893166
 30
0.0
 10
412.507290
 20
1375.661166
 30
0.0
  0
LWPOLYLINE
  5
107
100
AcDbEntity
  8
H0110_Printing
 62
1
100
AcDbPolyline
 90
2
 70
0
 10
448.735289
 20
1337.977167
 30
0.0
 10
448.735289
 20
1370.813166
 30
0.0
  0
SPLINE
  5
108
100
AcDbEntity
  8
H0110_Printing
 62
1
100
AcDbSpline
 70
8
 71
3
 72
8
 73
4
 74
0
 40
0
 40
0
 40
0
 40
0
 40
1
 40
1
 40
1
 40
1
 10
412.507290
 20
1404.420165
 30
0.0
 10
412.507290
 20
1412.023165
 30
0.0
 10
422.748289
 20
1410.701165
 30
0.0
 10
422.748289
 20
1404.420165
 30
0.0
  0
SPLINE
  5
109
100
AcDbEntity
  8
H0110_Printing
 62
1
100
AcDbSpline
 70
8
 71
3
 72
8
 73
4
 74
0
 40
0
 40
0
 40
0
 40
0
 40
1
 40
1
 40
1
 40
1
 10
422.748289
 20
1404.420165
 30
0.0
 10
422.748289
 20
1398.140165
 30
0.0
 10
420.986289
 20
1392.410165
 30
0.0
 10
426.272289
 20
1391.749165
 30
0.0
  0
SPLINE
  5
10a
100
AcDbEntity
  8
H0110_Printing
 62
1
100
AcDbSpline
 70
8
 71
3
 72
8
 73
4
 74
0
 40
0
 40
0
 40
0
 40
0
 40
1
 40
1
 40
1
 40
1
 10
426.272289
 20
1391.749165
 30
0.0
 10
431.557289
 20
1391.088165
 30
0.0
 10
454.241289
 20
1387.562165
 30
0.0
 10
470.098288
 20
1384.917165
 30
0.0
  0
LWPOLYLINE
  5
10b
100
AcDbEntity
  8
H0110_Printing
 62
1
100
AcDbPolyline
 90
2
 70
0
 10
412.507290
 20
1375.661166
 30
0.0
 10
412.507290
 20
1404.420165
 30
0.0
  0
SPLINE
  5
10c
100
AcDbEntity
  8
H0110_Printing
 62
1
100
AcDbSpline
 70
8
 71
3
 72
8
 73
4
 74
0
 40
0
 40
0
 40
0
 40
0
 40
1
 40
1
 40
1
 40
1
 10
317.985292
 20
1383.017165
 30
0.0
 10
317.985292
 20
1375.097166
 30
0.0
 10
309.523292
 20
1375.097166
 30
0.0
 10
309.523292
 20
1383.017165
 30
0.0
  0
SPLINE
  5
10d
100
AcDbEntity
  8
H0110_Printing
 62
1
100
AcDbSpline
 70
8
 71
3
 72
8
 73
4
 74
0
 40
0
 40
0
 40
0
 40
0
 40
1
 40
1
 40
1
 40
1
 10
309.523292
 20
1383.017165
 30
0.0
 10
309.523292
 20
1390.938165
 30
0.0
 10
307.885292
 20
1407.121165
 30
0.0
 10
305.702292
 20
1422.518164
 30
0.0
  0
SPLINE
  5
10e
100
AcDbEntity
  8
H0110_Printing
 62
1
100
AcDbSpline
 70
8
 71
3
 72
8
 73
4
 74
0
 40
0
 40
0
 40
0
 40
0
 40
1
 40
1
 40
1
 40
1
 10
305.702292
 20
1422.518164
 30
0.0
 10
303.518292
 20
1437.916164
 30
0.0
 10
300.789292
 20
1444.471164
 30
0.0
 10
275.951293
 20
1450.480164
 30
0.0
  0
SPLINE
  5
10f
100
AcDbEntity
  8
H0110_Printing
 62
1
100
AcDbSpline
 70
8
 71
3
 72
8
 73
4
 74
0
 40
0
 40
0
 40
0
 40
0
 40
1
 40
1
 40
1
 40
1
 10
275.951293
 20
1450.480164
 30
0.0
 10
251.113294
 20
1456.489164
 30
0.0
 10
224.910294
 20
1460.039163
 30
0.0
 10
223.545294
 20
1473.969163
 30
0.0
  0
SPLINE
  5
110
100
AcDbEntity
  8
H0110_Printing
 62
1
100
AcDbSpline
 70
8
 71
3
 72
8
 73
4
 74
0
 40
0
 40
0
 40
0
 40
0
 40
1
 40
1
 40
1
 40
1
 10
223.545294
 20
1473.969163
 30
0.0
 10
222.180294
 20
1487.898163
 30
0.0
 10
213.173295
 20
1621.731159
 30
0.0
 10
212.081295
 20
1635.933159
 30
0.0
  0
SPLINE
  5
111
100
AcDbEntity
  8
H0110_Printing
 62
1
100
AcDbSpline
 70
8
 71
3
 72
8
 73
4
 74
0
 40
0
 40
0
 40
0
 40
0
 40
1
 40
1
 40
1
 40
1
 10
212.081295
 20
1635.933159
 30
0.0
 10
210.990295
 20
1650.136159
 30
0.0
 10
216.176295
 20
1653.687159
 30
0.0
 10
229.277294
 20
1653.687159
 30
0.0
  0
LWPOLYLINE
  5
112
100
AcDbEntity
  8
H0110_Printing
 62
1
100
AcDbPolyline
 90
1
 70
1
 10
470.098288
 20
1384.917165
 30
0.0
  0
SPLINE
  5
113
100
AcDbEntity
  8
H0110_Printing
 62
1
100
AcDbSpline
 70
8
 71
3
 72
8
 73
4
 74
0
 40
0
 40
0
 40
0
 40
0
 40
1
 40
1
 40
1
 40
1
 10
276.224293
 20
1653.687159
 30
0.0
 10
285.231293
 20
1653.687159
 30
0.0
 10
294.238293
 20
1650.956159
 30
0.0
 10
293.419293
 20
1636.480159
 30
0.0
  0
SPLINE
  5
114
100
AcDbEntity
  8
H0110_Printing
 62
1
100
AcDbSpline
 70
8
 71
3
 72
8
 73
4
 74
0
 40
0
 40
0
 40
0
 40
0
 40
1
 40
1
 40
1
 40
1
 10
293.419293
 20
1636.480159
 30
0.0
 10
292.600293
 20
1622.004159
 30
0.0
 10
281.683293
 20
1467.960163
 30
0.0
 10
281.683293
 20
1467.960163
 30
0.0
  0
SPLINE
  5
115
100
AcDbEntity
  8
H0110_Printing
 62
1
100
AcDbSpline
 70
8
 71
3
 72
8
 73
4
 74
0
 40
0
 40
0
 40
0
 40
0
 40
1
 40
1
 40
1
 40
1
 10
281.683293
 20
1467.960163
 30
0.0
 10
281.683293
 20
1467.960163
 30
0.0
 10
299.424293
 20
1464.136163
 30
0.0
 10
307.612292
 20
1462.497163
 30
0.0
  0
SPLINE
  5
116
100
AcDbEntity
  8
H0110_Printing
 62
1
100
AcDbSpline
 70
8
 71
3
 72
8
 73
4
 74
0
 40
0
 40
0
 40
0
 40
0
 40
1
 40
1
 40
1
 40
1
 10
307.612292
 20
1462.497163
 30
0.0
 10
315.801292
 20
1460.859163
 30
0.0
 10
317.985292
 20
1462.497163
 30
0.0
 10
317.985292
 20
1449.934164
 30
0.0
  0
LWPOLYLINE
  5
117
100
AcDbEntity
  8
H0110_Printing
 62
1
100
AcDbPolyline
 90
2
 70
0
 10
229.277294
 20
1653.687159
 30
0.0
 10
276.224293
 20
1653.687159
 30
0.0
  0
LWPOLYLINE
  5
118
100
AcDbEntity
  8
H0110_Printing
 62
1
100
AcDbPolyline
 90
2
 70
0
 10
317.985292
 20
1449.934164
 30
0.0
 10
317.985292
 20
1383.017165
 30
0.0
  0
SPLINE
  5
119
100
AcDbEntity
  8
H0110_Printing
 62
1
100
AcDbSpline
 70
8
 71
3
 72
8
 73
4
 74
0
 40
0
 40
0
 40
0
 40
0
 40
1
 40
1
 40
1
 40
1
 10
226.357294
 20
1016.335175
 30
0.0
 10
211.987295
 20
1016.335175
 30
0.0
 10
213.804295
 20
1020.798174
 30
0.0
 10
213.804295
 20
1031.542174
 30
0.0
  0
SPLINE
  5
11a
100
AcDbEntity
  8
H0110_Printing
 62
1
100
AcDbSpline
 70
8
 71
3
 72
8
 73
4
 74
0
 40
0
 40
0
 40
0
 40
0
 40
1
 40
1
 40
1
 40
1
 10
213.804295
 20
1031.542174
 30
0.0
 10
213.804295
 20
1042.285174
 30
0.0
 10
226.357294
 20
1359.463166
 30
0.0
 10
226.357294
 20
1366.901166
 30
0.0
  0
SPLINE
  5
11b
100
AcDbEntity
  8
H0110_Printing
 62
1
100
AcDbSpline
 70
8
 71
3
 72
8
 73
4
 74
0
 40
0
 40
0
 40
0
 40
0
 40
1
 40
1
 40
1
 40
1
 10
226.357294
 20
1366.901166
 30
0.0
 10
226.357294
 20
1374.339166
 30
0.0
 10
226.357294
 20
1375.826166
 30
0.0
 10
221.072294
 20
1373.843166
 30
0.0
  0
SPLINE
  5
11c
100
AcDbEntity
  8
H0110_Printing
 62
1
100
AcDbSpline
 70
8
 71
3
 72
8
 73
4
 74
0
 40
0
 40
0
 40
0
 40
0
 40
1
 40
1
 40
1
 40
1
 10
221.072294
 20
1373.843166
 30
0.0
 10
221.072294
 20
1373.843166
 30
0.0
 10
189.523295
 20
1364.642166
 30
0.0
 10
173.447296
 20
1361.998166
 30
0.0
  0
SPLINE
  5
11d
100
AcDbEntity
  8
H0110_Printing
 62
1
100
AcDbSpline
 70
8
 71
3
 72
8
 73
4
 74
0
 40
0
 40
0
 40
0
 40
0
 40
1
 40
1
 40
1
 40
1
 10
173.447296
 20
1361.998166
 30
0.0
 10
157.370296
 20
1359.353166
 30
0.0
 10
160.893296
 20
1372.355166
 30
0.0
 10
160.893296
 20
1380.289165
 30
0.0
  0
SPLINE
  5
11e
100
AcDbEntity
  8
H0110_Printing
 62
1
100
AcDbSpline
 70
8
 71
3
 72
8
 73
4
 74
0
 40
0
 40
0
 40
0
 40
0
 40
1
 40
1
 40
1
 40
1
 10
160.893296
 20
1380.289165
 30
0.0
 10
160.893296
 20
1388.223165
 30
0.0
 10
177.411296
 20
1387.782165
 30
0.0
 10
183.577295
 20
1388.884165
 30
0.0
  0
SPLINE
  5
11f
100
AcDbEntity
  8
H0110_Printing
 62
1
100
AcDbSpline
 70
8
 71
3
 72
8
 73
4
 74
0
 40
0
 40
0
 40
0
 40
0
 40
1
 40
1
 40
1
 40
1
 10
183.577295
 20
1388.884165
 30
0.0
 10
189.744295
 20
1389.986165
 30
0.0
 10
189.964295
 20
1392.189165
 30
0.0
 10
189.964295
 20
1395.054165
 30
0.0
  0
LWPOLYLINE
  5
120
100
AcDbEntity
  8
H0110_Printing
 62
1
100
AcDbPolyline
 90
2
 70
0
 10
281.855293
 20
1016.335175
 30
0.0
 10
226.357294
 20
1016.335175
 30
0.0
  0
SPLINE
  5
121
100
AcDbEntity
  8
H0110_Printing
 62
1
100
AcDbSpline
 70
8
 71
3
 72
8
 73
4
 74
0
 40
0
 40
0
 40
0
 40
0
 40
1
 40
1
 40
1
 40
1
 10
189.964295
 20
1405.192165
 30
0.0
 10
189.964295
 20
1411.362165
 30
0.0
 10
179.173296
 20
1410.481165
 30
0.0
 10
170.363296
 20
1412.023165
 30
0.0
  0
SPLINE
  5
122
100
AcDbEntity
  8
H0110_Printing
 62
1
100
AcDbSpline
 70
8
 71
3
 72
8
 73
4
 74
0
 40
0
 40
0
 40
0
 40
0
 40
1
 40
1
 40
1
 40
1
 10
170.363296
 20
1412.023165
 30
0.0
 10
161.554296
 20
1413.566165
 30
0.0
 10
160.893296
 20
1414.888165
 30
0.0
 10
160.893296
 20
1419.296165
 30
0.0
  0
LWPOLYLINE
  5
123
100
AcDbEntity
  8
H0110_Printing
 62
1
100
AcDbPolyline
 90
2
 70
0
 10
189.964295
 20
1395.054165
 30
0.0
 10
189.964295
 20
1405.192165
 30
0.0
  0
SPLINE
  5
124
100
AcDbEntity
  8
H0110_Printing
 62
1
100
AcDbSpline
 70
8
 71
3
 72
8
 73
4
 74
0
 40
0
 40
0
 40
0
 40
0
 40
1
 40
1
 40
1
 40
1
 10
160.893296
 20
1432.519164
 30
0.0
 10
160.893296
 20
1439.791164
 30
0.0
 10
161.114296
 20
1441.113164
 30
0.0
 10
172.125296
 20
1439.130164
 30
0.0
  0
SPLINE
  5
125
100
AcDbEntity
  8
H0110_Printing
 62
1
100
AcDbSpline
 70
8
 71
3
 72
8
 73
4
 74
0
 40
0
 40
0
 40
0
 40
0
 40
1
 40
1
 40
1
 40
1
 10
172.125296
 20
1439.130164
 30
0.0
 10
183.137295
 20
1437.146164
 30
0.0
 10
247.444294
 20
1424.144164
 30
0.0
 10
262.200293
 20
1420.398164
 30
0.0
  0
SPLINE
  5
126
100
AcDbEntity
  8
H0110_Printing
 62
1
100
AcDbSpline
 70
8
 71
3
 72
8
 73
4
 74
0
 40
0
 40
0
 40
0
 40
0
 40
1
 40
1
 40
1
 40
1
 10
262.200293
 20
1420.398164
 30
0.0
 10
276.955293
 20
1416.651165
 30
0.0
 10
278.497293
 20
1412.023165
 30
0.0
 10
278.497293
 20
1397.699165
 30
0.0
  0
SPLINE
  5
127
100
AcDbEntity
  8
H0110_Printing
 62
1
100
AcDbSpline
 70
8
 71
3
 72
8
 73
4
 74
0
 40
0
 40
0
 40
0
 40
0
 40
1
 40
1
 40
1
 40
1
 10
278.497293
 20
1397.699165
 30
0.0
 10
278.497293
 20
1383.374165
 30
0.0
 10
292.426293
 20
1045.260174
 30
0.0
 10
292.426293
 20
1033.855174
 30
0.0
  0
SPLINE
  5
128
100
AcDbEntity
  8
H0110_Printing
 62
1
100
AcDbSpline
 70
8
 71
3
 72
8
 73
4
 74
0
 40
0
 40
0
 40
0
 40
0
 40
1
 40
1
 40
1
 40
1
 10
292.426293
 20
1033.855174
 30
0.0
 10
292.426293
 20
1022.451174
 30
0.0
 10
291.270293
 20
1016.335175
 30
0.0
 10
281.855293
 20
1016.335175
 30
0.0
  0
LWPOLYLINE
  5
129
100
AcDbEntity
  8
H0110_Printing
 62
1
100
AcDbPolyline
 90
2
 70
0
 10
160.893296
 20
1419.296165
 30
0.0
 10
160.893296
 20
1432.519164
 30
0.0
  0
SPLINE
  5
12a
100
AcDbEntity
  8
H0110_Printing
 62
1
100
AcDbSpline
 70
8
 71
3
 72
8
 73
4
 74
0
 40
0
 40
0
 40
0
 40
0
 40
1
 40
1
 40
1
 40
1
 10
260.438293
 20
1691.219158
 30
0.0
 10
268.580293
 20
1691.219158
 30
0.0
 10
275.180293
 20
1684.619158
 30
0.0
 10
275.180293
 20
1676.478158
 30
0.0
  0
SPLINE
  5
12b
100
AcDbEntity
  8
H0110_Printing
 62
1
100
AcDbSpline
 70
8
 71
3
 72
8
 73
4
 74
0
 40
0
 40
0
 40
0
 40
0
 40
1
 40
1
 40
1
 40
1
 10
275.180293
 20
1676.478158
 30
0.0
 10
275.180293
 20
1668.337158
 30
0.0
 10
268.580293
 20
1661.737158
 30
0.0
 10
260.438293
 20
1661.737158
 30
0.0
  0
SPLINE
  5
12c
100
AcDbEntity
  8
H0110_Printing
 62
1
100
AcDbSpline
 70
8
 71
3
 72
8
 73
4
 74
0
 40
0
 40
0
 40
0
 40
0
 40
1
 40
1
 40
1
 40
1
 10
260.438293
 20
1661.737158
 30
0.0
 10
252.296294
 20
1661.737158
 30
0.0
 10
245.696294
 20
1668.337158
 30
0.0
 10
245.696294
 20
1676.478158
 30
0.0
  0
SPLINE
  5
12d
100
AcDbEntity
  8
H0110_Printing
 62
1
100
AcDbSpline
 70
8
 71
3
 72
8
 73
4
 74
0
 40
0
 40
0
 40
0
 40
0
 40
1
 40
1
 40
1
 40
1
 10
245.696294
 20
1676.478158
 30
0.0
 10
245.696294
 20
1684.619158
 30
0.0
 10
252.296294
 20
1691.219158
 30
0.0
 10
260.438293
 20
1691.219158
 30
0.0
  0
LWPOLYLINE
  5
12e
100
AcDbEntity
  8
H0110_Printing
 62
1
100
AcDbPolyline
 90
1
 70
1
 10
281.855293
 20
1016.335175
 30
0.0
  0
SPLINE
  5
12f
100
AcDbEntity
  8
H0110_Printing
 62
1
100
AcDbSpline
 70
8
 71
3
 72
8
 73
4
 74
0
 40
0
 40
0
 40
0
 40
0
 40
1
 40
1
 40
1
 40
1
 10
506.876287
 20
1515.382162
 30
0.0
 10
493.883288
 20
1513.179162
 30
0.0
 10
462.170288
 20
1507.888162
 30
0.0
 10
446.753289
 20
1504.802162
 30
0.0
  0
SPLINE
  5
130
100
AcDbEntity
  8
H0110_Printing
 62
1
100
AcDbSpline
 70
8
 71
3
 72
8
 73
4
 74
0
 40
0
 40
0
 40
0
 40
0
 40
1
 40
1
 40
1
 40
1
 10
446.753289
 20
1504.802162
 30
0.0
 10
431.337289
 20
1501.717162
 30
0.0
 10
423.409289
 20
1499.954163
 30
0.0
 10
423.409289
 20
1492.241163
 30
0.0
  0
LWPOLYLINE
  5
131
100
AcDbEntity
  8
H0110_Printing
 62
1
100
AcDbPolyline
 90
1
 70
1
 10
260.438293
 20
1691.219158
 30
0.0
  0
SPLINE
  5
132
100
AcDbEntity
  8
H0110_Printing
 62
1
100
AcDbSpline
 70
8
 71
3
 72
8
 73
4
 74
0
 40
0
 40
0
 40
0
 40
0
 40
1
 40
1
 40
1
 40
1
 10
423.409289
 20
1463.812163
 30
0.0
 10
423.409289
 20
1452.353164
 30
0.0
 10
415.260290
 20
1457.642164
 30
0.0
 10
415.260290
 20
1463.592163
 30
0.0
  0
LWPOLYLINE
  5
133
100
AcDbEntity
  8
H0110_Printing
 62
1
100
AcDbPolyline
 90
2
 70
0
 10
423.409289
 20
1492.241163
 30
0.0
 10
423.409289
 20
1463.812163
 30
0.0
  0
SPLINE
  5
134
100
AcDbEntity
  8
H0110_Printing
 62
1
100
AcDbSpline
 70
8
 71
3
 72
8
 73
4
 74
0
 40
0
 40
0
 40
0
 40
0
 40
1
 40
1
 40
1
 40
1
 10
415.260290
 20
1491.580163
 30
0.0
 10
415.260290
 20
1497.530163
 30
0.0
 10
398.963290
 20
1493.343163
 30
0.0
 10
385.309290
 20
1490.478163
 30
0.0
  0
SPLINE
  5
135
100
AcDbEntity
  8
H0110_Printing
 62
1
100
AcDbSpline
 70
8
 71
3
 72
8
 73
4
 74
0
 40
0
 40
0
 40
0
 40
0
 40
1
 40
1
 40
1
 40
1
 10
385.309290
 20
1490.478163
 30
0.0
 10
371.655291
 20
1487.613163
 30
0.0
 10
371.434291
 20
1483.426163
 30
0.0
 10
371.434291
 20
1466.897163
 30
0.0
  0
SPLINE
  5
136
100
AcDbEntity
  8
H0110_Printing
 62
1
100
AcDbSpline
 70
8
 71
3
 72
8
 73
4
 74
0
 40
0
 40
0
 40
0
 40
0
 40
1
 40
1
 40
1
 40
1
 10
371.434291
 20
1466.897163
 30
0.0
 10
371.434291
 20
1450.369164
 30
0.0
 10
371.875291
 20
1383.154165
 30
0.0
 10
371.434291
 20
1367.066166
 30
0.0
  0
SPLINE
  5
137
100
AcDbEntity
  8
H0110_Printing
 62
1
100
AcDbSpline
 70
8
 71
3
 72
8
 73
4
 74
0
 40
0
 40
0
 40
0
 40
0
 40
1
 40
1
 40
1
 40
1
 10
371.434291
 20
1367.066166
 30
0.0
 10
370.994291
 20
1350.979166
 30
0.0
 10
354.256291
 20
1353.183166
 30
0.0
 10
354.477291
 20
1367.066166
 30
0.0
  0
SPLINE
  5
138
100
AcDbEntity
  8
H0110_Printing
 62
1
100
AcDbSpline
 70
8
 71
3
 72
8
 73
4
 74
0
 40
0
 40
0
 40
0
 40
0
 40
1
 40
1
 40
1
 40
1
 10
354.477291
 20
1367.066166
 30
0.0
 10
354.697291
 20
1380.950165
 30
0.0
 10
357.119291
 20
1466.236163
 30
0.0
 10
357.119291
 20
1477.255163
 30
0.0
  0
SPLINE
  5
139
100
AcDbEntity
  8
H0110_Printing
 62
1
100
AcDbSpline
 70
8
 71
3
 72
8
 73
4
 74
0
 40
0
 40
0
 40
0
 40
0
 40
1
 40
1
 40
1
 40
1
 10
357.119291
 20
1477.255163
 30
0.0
 10
357.119291
 20
1488.274163
 30
0.0
 10
341.703291
 20
1480.561163
 30
0.0
 10
330.692292
 20
1476.427163
 30
0.0
  0
SPLINE
  5
13a
100
AcDbEntity
  8
H0110_Printing
 62
1
100
AcDbSpline
 70
8
 71
3
 72
8
 73
4
 74
0
 40
0
 40
0
 40
0
 40
0
 40
1
 40
1
 40
1
 40
1
 10
330.692292
 20
1476.427163
 30
0.0
 10
319.680292
 20
1472.293163
 30
0.0
 10
317.166292
 20
1478.339163
 30
0.0
 10
319.076292
 20
1489.810163
 30
0.0
  0
SPLINE
  5
13b
100
AcDbEntity
  8
H0110_Printing
 62
1
100
AcDbSpline
 70
8
 71
3
 72
8
 73
4
 74
0
 40
0
 40
0
 40
0
 40
0
 40
1
 40
1
 40
1
 40
1
 10
319.076292
 20
1489.810163
 30
0.0
 10
320.987292
 20
1501.282162
 30
0.0
 10
349.100291
 20
1647.405159
 30
0.0
 10
354.286291
 20
1671.440158
 30
0.0
  0
SPLINE
  5
13c
100
AcDbEntity
  8
H0110_Printing
 62
1
100
AcDbSpline
 70
8
 71
3
 72
8
 73
4
 74
0
 40
0
 40
0
 40
0
 40
0
 40
1
 40
1
 40
1
 40
1
 10
354.286291
 20
1671.440158
 30
0.0
 10
359.472291
 20
1695.475158
 30
0.0
 10
346.098291
 20
1700.665157
 30
0.0
 10
331.905292
 20
1700.665157
 30
0.0
  0
LWPOLYLINE
  5
13d
100
AcDbEntity
  8
H0110_Printing
 62
1
100
AcDbPolyline
 90
2
 70
0
 10
415.260290
 20
1463.592163
 30
0.0
 10
415.260290
 20
1491.580163
 30
0.0
  0
SPLINE
  5
13e
100
AcDbEntity
  8
H0110_Printing
 62
1
100
AcDbSpline
 70
8
 71
3
 72
8
 73
4
 74
0
 40
0
 40
0
 40
0
 40
0
 40
1
 40
1
 40
1
 40
1
 10
174.688296
 20
1700.665157
 30
0.0
 10
150.396296
 20
1700.665157
 30
0.0
 10
150.941296
 20
1691.105158
 30
0.0
 10
153.671296
 20
1672.260158
 30
0.0
  0
SPLINE
  5
13f
100
AcDbEntity
  8
H0110_Printing
 62
1
100
AcDbSpline
 70
8
 71
3
 72
8
 73
4
 74
0
 40
0
 40
0
 40
0
 40
0
 40
1
 40
1
 40
1
 40
1
 10
153.671296
 20
1672.260158
 30
0.0
 10
156.400296
 20
1653.414159
 30
0.0
 10
188.062295
 20
1476.427163
 30
0.0
 10
188.062295
 20
1476.427163
 30
0.0
  0
SPLINE
  5
140
100
AcDbEntity
  8
H0110_Printing
 62
1
100
AcDbSpline
 70
8
 71
3
 72
8
 73
4
 74
0
 40
0
 40
0
 40
0
 40
0
 40
1
 40
1
 40
1
 40
1
 10
188.062295
 20
1476.427163
 30
0.0
 10
188.062295
 20
1476.427163
 30
0.0
 10
140.852296
 20
1486.291163
 30
0.0
 10
132.263297
 20
1488.715163
 30
0.0
  0
SPLINE
  5
141
100
AcDbEntity
  8
H0110_Printing
 62
1
100
AcDbSpline
 70
8
 71
3
 72
8
 73
4
 74
0
 40
0
 40
0
 40
0
 40
0
 40
1
 40
1
 40
1
 40
1
 10
132.263297
 20
1488.715163
 30
0.0
 10
123.674297
 20
1491.139163
 30
0.0
 10
122.353297
 20
1489.156163
 30
0.0
 10
122.353297
 20
1482.544163
 30
0.0
  0
LWPOLYLINE
  5
142
100
AcDbEntity
  8
H0110_Printing
 62
1
100
AcDbPolyline
 90
2
 70
0
 10
331.905292
 20
1700.665157
 30
0.0
 10
174.688296
 20
1700.665157
 30
0.0
  0
SPLINE
  5
143
100
AcDbEntity
  8
H0110_Printing
 62
1
100
AcDbSpline
 70
8
 71
3
 72
8
 73
4
 74
0
 40
0
 40
0
 40
0
 40
0
 40
1
 40
1
 40
1
 40
1
 10
122.353297
 20
1454.777164
 30
0.0
 10
122.353297
 20
1446.843164
 30
0.0
 10
116.627297
 20
1447.284164
 30
0.0
 10
116.627297
 20
1453.234164
 30
0.0
  0
LWPOLYLINE
  5
144
100
AcDbEntity
  8
H0110_Printing
 62
1
100
AcDbPolyline
 90
2
 70
0
 10
122.353297
 20
1482.544163
 30
0.0
 10
122.353297
 20
1454.777164
 30
0.0
  0
SPLINE
  5
145
100
AcDbEntity
  8
H0110_Printing
 62
1
100
AcDbSpline
 70
8
 71
3
 72
8
 73
4
 74
0
 40
0
 40
0
 40
0
 40
0
 40
1
 40
1
 40
1
 40
1
 10
116.627297
 20
1474.831163
 30
0.0
 10
116.627297
 20
1488.715163
 30
0.0
 10
117.508297
 20
1490.478163
 30
0.0
 10
108.038297
 20
1493.343163
 30
0.0
  0
SPLINE
  5
146
100
AcDbEntity
  8
H0110_Printing
 62
1
100
AcDbSpline
 70
8
 71
3
 72
8
 73
4
 74
0
 40
0
 40
0
 40
0
 40
0
 40
1
 40
1
 40
1
 40
1
 10
108.038297
 20
1493.343163
 30
0.0
 10
98.568298
 20
1496.208163
 30
0.0
 10
32.499299
 20
1515.382162
 30
0.0
 10
17.082300
 20
1515.382162
 30
0.0
  0
SPLINE
  5
147
100
AcDbEntity
  8
H0110_Printing
 62
1
100
AcDbSpline
 70
8
 71
3
 72
8
 73
4
 74
0
 40
0
 40
0
 40
0
 40
0
 40
1
 40
1
 40
1
 40
1
 10
17.082300
 20
1515.382162
 30
0.0
 10
1.666300
 20
1515.382162
 30
0.0
 10
0.125300
 20
1510.312162
 30
0.0
 10
0.125300
 20
1501.938162
 30
0.0
  0
LWPOLYLINE
  5
148
100
AcDbEntity
  8
H0110_Printing
 62
1
100
AcDbPolyline
 90
2
 70
0
 10
116.627297
 20
1453.234164
 30
0.0
 10
116.627297
 20
1474.831163
 30
0.0
  0
SPLINE
  5
149
100
AcDbEntity
  8
H0110_Printing
 62
1
100
AcDbSpline
 70
8
 71
3
 72
8
 73
4
 74
0
 40
0
 40
0
 40
0
 40
0
 40
1
 40
1
 40
1
 40
1
 10
0.125300
 20
1463.151163
 30
0.0
 10
0.125300
 20
1451.912164
 30
0.0
 10
21.047299
 20
1453.454164
 30
0.0
 10
29.415299
 20
1453.454164
 30
0.0
  0
SPLINE
  5
14a
100
AcDbEntity
  8
H0110_Printing
 62
1
100
AcDbSpline
 70
8
 71
3
 72
8
 73
4
 74
0
 40
0
 40
0
 40
0
 40
0
 40
1
 40
1
 40
1
 40
1
 10
29.415299
 20
1453.454164
 30
0.0
 10
37.784299
 20
1453.454164
 30
0.0
 10
38.445299
 20
1455.879164
 30
0.0
 10
38.445299
 20
1461.168163
 30
0.0
  0
SPLINE
  5
14b
100
AcDbEntity
  8
H0110_Printing
 62
1
100
AcDbSpline
 70
8
 71
3
 72
8
 73
4
 74
0
 40
0
 40
0
 40
0
 40
0
 40
1
 40
1
 40
1
 40
1
 10
38.445299
 20
1461.168163
 30
0.0
 10
38.445299
 20
1466.457163
 30
0.0
 10
54.081299
 20
1461.168163
 30
0.0
 10
67.075298
 20
1458.523164
 30
0.0
  0
SPLINE
  5
14c
100
AcDbEntity
  8
H0110_Printing
 62
1
100
AcDbSpline
 70
8
 71
3
 72
8
 73
4
 74
0
 40
0
 40
0
 40
0
 40
0
 40
1
 40
1
 40
1
 40
1
 10
67.075298
 20
1458.523164
 30
0.0
 10
80.069298
 20
1455.879164
 30
0.0
 10
76.545298
 20
1453.454164
 30
0.0
 10
76.545298
 20
1443.097164
 30
0.0
  0
LWPOLYLINE
  5
14d
100
AcDbEntity
  8
H0110_Printing
 62
1
100
AcDbPolyline
 90
2
 70
0
 10
0.125300
 20
1501.938162
 30
0.0
 10
0.125300
 20
1463.151163
 30
0.0
  0
SPLINE
  5
14e
100
AcDbEntity
  8
H0110_Printing
 62
1
100
AcDbSpline
 70
8
 71
3
 72
8
 73
4
 74
0
 40
0
 40
0
 40
0
 40
0
 40
1
 40
1
 40
1
 40
1
 10
76.545298
 20
1355.166166
 30
0.0
 10
76.545298
 20
1338.858167
 30
0.0
 10
72.801298
 20
1341.062166
 30
0.0
 10
62.891298
 20
1337.536167
 30
0.0
  0
SPLINE
  5
14f
100
AcDbEntity
  8
H0110_Printing
 62
1
100
AcDbSpline
 70
8
 71
3
 72
8
 73
4
 74
0
 40
0
 40
0
 40
0
 40
0
 40
1
 40
1
 40
1
 40
1
 10
62.891298
 20
1337.536167
 30
0.0
 10
52.980299
 20
1334.010167
 30
0.0
 10
42.189299
 20
1330.043167
 30
0.0
 10
42.189299
 20
1339.519167
 30
0.0
  0
LWPOLYLINE
  5
150
100
AcDbEntity
  8
H0110_Printing
 62
1
100
AcDbPolyline
 90
2
 70
0
 10
76.545298
 20
1443.097164
 30
0.0
 10
76.545298
 20
1355.166166
 30
0.0
  0
SPLINE
  5
151
100
AcDbEntity
  8
H0110_Printing
 62
1
100
AcDbSpline
 70
8
 71
3
 72
8
 73
4
 74
0
 40
0
 40
0
 40
0
 40
0
 40
1
 40
1
 40
1
 40
1
 10
42.189299
 20
1377.077166
 30
0.0
 10
42.189299
 20
1385.104165
 30
0.0
 10
39.106299
 20
1384.917165
 30
0.0
 10
34.040299
 20
1383.815165
 30
0.0
  0
SPLINE
  5
152
100
AcDbEntity
  8
H0110_Printing
 62
1
100
AcDbSpline
 70
8
 71
3
 72
8
 73
4
 74
0
 40
0
 40
0
 40
0
 40
0
 40
1
 40
1
 40
1
 40
1
 10
34.040299
 20
1383.815165
 30
0.0
 10
28.975299
 20
1382.713165
 30
0.0
 10
13.999300
 20
1380.069165
 30
0.0
 10
9.154300
 20
1378.967166
 30
0.0
  0
SPLINE
  5
153
100
AcDbEntity
  8
H0110_Printing
 62
1
100
AcDbSpline
 70
8
 71
3
 72
8
 73
4
 74
0
 40
0
 40
0
 40
0
 40
0
 40
1
 40
1
 40
1
 40
1
 10
9.154300
 20
1378.967166
 30
0.0
 10
4.309300
 20
1377.865166
 30
0.0
 10
3.208300
 20
1377.865166
 30
0.0
 10
3.208300
 20
1369.270166
 30
0.0
  0
LWPOLYLINE
  5
154
100
AcDbEntity
  8
H0110_Printing
 62
1
100
AcDbPolyline
 90
2
 70
0
 10
42.189299
 20
1339.519167
 30
0.0
 10
42.189299
 20
1377.077166
 30
0.0
  0
SPLINE
  5
155
100
AcDbEntity
  8
H0110_Printing
 62
1
100
AcDbSpline
 70
8
 71
3
 72
8
 73
4
 74
0
 40
0
 40
0
 40
0
 40
0
 40
1
 40
1
 40
1
 40
1
 10
3.208300
 20
1300.953167
 30
0.0
 10
3.208300
 20
1280.238168
 30
0.0
 10
19.505300
 20
1285.086168
 30
0.0
 10
30.296299
 20
1287.069168
 30
0.0
  0
SPLINE
  5
156
100
AcDbEntity
  8
H0110_Printing
 62
1
100
AcDbSpline
 70
8
 71
3
 72
8
 73
4
 74
0
 40
0
 40
0
 40
0
 40
0
 40
1
 40
1
 40
1
 40
1
 10
30.296299
 20
1287.069168
 30
0.0
 10
41.088299
 20
1289.053168
 30
0.0
 10
93.282298
 20
1302.055167
 30
0.0
 10
104.735297
 20
1305.140167
 30
0.0
  0
SPLINE
  5
157
100
AcDbEntity
  8
H0110_Printing
 62
1
100
AcDbSpline
 70
8
 71
3
 72
8
 73
4
 74
0
 40
0
 40
0
 40
0
 40
0
 40
1
 40
1
 40
1
 40
1
 10
104.735297
 20
1305.140167
 30
0.0
 10
116.187297
 20
1308.226167
 30
0.0
 10
113.544297
 20
1311.531167
 30
0.0
 10
113.544297
 20
1318.583167
 30
0.0
  0
LWPOLYLINE
  5
158
100
AcDbEntity
  8
H0110_Printing
 62
1
100
AcDbPolyline
 90
2
 70
0
 10
3.208300
 20
1369.270166
 30
0.0
 10
3.208300
 20
1300.953167
 30
0.0
  0
SPLINE
  5
159
100
AcDbEntity
  8
H0110_Printing
 62
1
100
AcDbSpline
 70
8
 71
3
 72
8
 73
4
 74
0
 40
0
 40
0
 40
0
 40
0
 40
1
 40
1
 40
1
 40
1
 10
113.544297
 20
1345.690166
 30
0.0
 10
113.544297
 20
1355.827166
 30
0.0
 10
122.133297
 20
1354.505166
 30
0.0
 10
122.133297
 20
1345.690166
 30
0.0
  0
SPLINE
  5
15a
100
AcDbEntity
  8
H0110_Printing
 62
1
100
AcDbSpline
 70
8
 71
3
 72
8
 73
4
 74
0
 40
0
 40
0
 40
0
 40
0
 40
1
 40
1
 40
1
 40
1
 10
122.133297
 20
1345.690166
 30
0.0
 10
122.133297
 20
1336.875167
 30
0.0
 10
122.793297
 20
1331.586167
 30
0.0
 10
122.133297
 20
1323.432167
 30
0.0
  0
SPLINE
  5
15b
100
AcDbEntity
  8
H0110_Printing
 62
1
100
AcDbSpline
 70
8
 71
3
 72
8
 73
4
 74
0
 40
0
 40
0
 40
0
 40
0
 40
1
 40
1
 40
1
 40
1
 10
122.133297
 20
1323.432167
 30
0.0
 10
121.472297
 20
1315.278167
 30
0.0
 10
124.115297
 20
1311.752167
 30
0.0
 10
134.466297
 20
1313.499167
 30
0.0
  0
SPLINE
  5
15c
100
AcDbEntity
  8
H0110_Printing
 62
1
100
AcDbSpline
 70
8
 71
3
 72
8
 73
4
 74
0
 40
0
 40
0
 40
0
 40
0
 40
1
 40
1
 40
1
 40
1
 10
134.466297
 20
1313.499167
 30
0.0
 10
144.817296
 20
1315.246167
 30
0.0
 10
186.220295
 20
1326.297167
 30
0.0
 10
186.220295
 20
1326.297167
 30
0.0
  0
SPLINE
  5
15d
100
AcDbEntity
  8
H0110_Printing
 62
1
100
AcDbSpline
 70
8
 71
3
 72
8
 73
4
 74
0
 40
0
 40
0
 40
0
 40
0
 40
1
 40
1
 40
1
 40
1
 10
186.220295
 20
1326.297167
 30
0.0
 10
186.220295
 20
1326.297167
 30
0.0
 10
157.150296
 20
995.951175
 30
0.0
 10
157.150296
 20
983.169175
 30
0.0
  0
SPLINE
  5
15e
100
AcDbEntity
  8
H0110_Printing
 62
1
100
AcDbSpline
 70
8
 71
3
 72
8
 73
4
 74
0
 40
0
 40
0
 40
0
 40
0
 40
1
 40
1
 40
1
 40
1
 10
157.150296
 20
983.169175
 30
0.0
 10
157.150296
 20
970.387176
 30
0.0
 10
156.709296
 20
964.657176
 30
0.0
 10
169.262296
 20
964.657176
 30
0.0
  0
LWPOLYLINE
  5
15f
100
AcDbEntity
  8
H0110_Printing
 62
1
100
AcDbPolyline
 90
2
 70
0
 10
113.544297
 20
1318.583167
 30
0.0
 10
113.544297
 20
1345.690166
 30
0.0
  0
SPLINE
  5
160
100
AcDbEntity
  8
H0110_Printing
 62
1
100
AcDbSpline
 70
8
 71
3
 72
8
 73
4
 74
0
 40
0
 40
0
 40
0
 40
0
 40
1
 40
1
 40
1
 40
1
 10
332.453292
 20
964.657176
 30
0.0
 10
344.566291
 20
964.657176
 30
0.0
 10
349.631291
 20
966.861176
 30
0.0
 10
348.310291
 20
978.100176
 30
0.0
  0
SPLINE
  5
161
100
AcDbEntity
  8
H0110_Printing
 62
1
100
AcDbSpline
 70
8
 71
3
 72
8
 73
4
 74
0
 40
0
 40
0
 40
0
 40
0
 40
1
 40
1
 40
1
 40
1
 10
348.310291
 20
978.100176
 30
0.0
 10
346.989291
 20
989.339175
 30
0.0
 10
316.156292
 20
1338.197167
 30
0.0
 10
316.156292
 20
1338.197167
 30
0.0
  0
LWPOLYLINE
  5
162
100
AcDbEntity
  8
H0110_Printing
 62
1
100
AcDbPolyline
 90
2
 70
0
 10
169.262296
 20
964.657176
 30
0.0
 10
332.453292
 20
964.657176
 30
0.0
  0
SPLINE
  5
163
100
AcDbEntity
  8
H0110_Printing
 62
1
100
AcDbSpline
 70
8
 71
3
 72
8
 73
4
 74
0
 40
0
 40
0
 40
0
 40
0
 40
1
 40
1
 40
1
 40
1
 10
323.424292
 20
1330.704167
 30
0.0
 10
330.692292
 20
1323.211167
 30
0.0
 10
352.274291
 20
1313.499167
 30
0.0
 10
375.178291
 20
1313.499167
 30
0.0
  0
SPLINE
  5
164
100
AcDbEntity
  8
H0110_Printing
 62
1
100
AcDbSpline
 70
8
 71
3
 72
8
 73
4
 74
0
 40
0
 40
0
 40
0
 40
0
 40
1
 40
1
 40
1
 40
1
 10
375.178291
 20
1313.499167
 30
0.0
 10
398.082290
 20
1313.499167
 30
0.0
 10
408.874290
 20
1332.908167
 30
0.0
 10
409.314290
 20
1338.417167
 30
0.0
  0
SPLINE
  5
165
100
AcDbEntity
  8
H0110_Printing
 62
1
100
AcDbSpline
 70
8
 71
3
 72
8
 73
4
 74
0
 40
0
 40
0
 40
0
 40
0
 40
1
 40
1
 40
1
 40
1
 10
409.314290
 20
1338.417167
 30
0.0
 10
409.754290
 20
1343.927166
 30
0.0
 10
412.397290
 20
1344.368166
 30
0.0
 10
412.397290
 20
1338.638167
 30
0.0
  0
LWPOLYLINE
  5
166
100
AcDbEntity
  8
H0110_Printing
 62
1
100
AcDbPolyline
 90
2
 70
0
 10
316.156292
 20
1338.197167
 30
0.0
 10
323.424292
 20
1330.704167
 30
0.0
  0
SPLINE
  5
167
100
AcDbEntity
  8
H0110_Printing
 62
1
100
AcDbSpline
 70
8
 71
3
 72
8
 73
4
 74
0
 40
0
 40
0
 40
0
 40
0
 40
1
 40
1
 40
1
 40
1
 10
412.397290
 20
1317.702167
 30
0.0
 10
412.397290
 20
1304.920167
 30
0.0
 10
413.719290
 20
1303.818167
 30
0.0
 10
422.308289
 20
1300.733167
 30
0.0
  0
SPLINE
  5
168
100
AcDbEntity
  8
H0110_Printing
 62
1
100
AcDbSpline
 70
8
 71
3
 72
8
 73
4
 74
0
 40
0
 40
0
 40
0
 40
0
 40
1
 40
1
 40
1
 40
1
 10
422.308289
 20
1300.733167
 30
0.0
 10
430.897289
 20
1297.647168
 30
0.0
 10
473.842288
 20
1286.629168
 30
0.0
 10
490.800288
 20
1284.204168
 30
0.0
  0
SPLINE
  5
169
100
AcDbEntity
  8
H0110_Printing
 62
1
100
AcDbSpline
 70
8
 71
3
 72
8
 73
4
 74
0
 40
0
 40
0
 40
0
 40
0
 40
1
 40
1
 40
1
 40
1
 10
490.800288
 20
1284.204168
 30
0.0
 10
507.757287
 20
1281.780168
 30
0.0
 10
515.025287
 20
1283.323168
 30
0.0
 10
515.906287
 20
1294.342168
 30
0.0
  0
SPLINE
  5
16a
100
AcDbEntity
  8
H0110_Printing
 62
1
100
AcDbSpline
 70
8
 71
3
 72
8
 73
4
 74
0
 40
0
 40
0
 40
0
 40
0
 40
1
 40
1
 40
1
 40
1
 10
515.906287
 20
1294.342168
 30
0.0
 10
516.787287
 20
1305.361167
 30
0.0
 10
519.209287
 20
1370.372166
 30
0.0
 10
519.209287
 20
1385.578165
 30
0.0
  0
SPLINE
  5
16b
100
AcDbEntity
  8
H0110_Printing
 62
1
100
AcDbSpline
 70
8
 71
3
 72
8
 73
4
 74
0
 40
0
 40
0
 40
0
 40
0
 40
1
 40
1
 40
1
 40
1
 10
519.209287
 20
1385.578165
 30
0.0
 10
519.209287
 20
1400.784165
 30
0.0
 10
515.245287
 20
1406.073165
 30
0.0
 10
504.674287
 20
1408.718165
 30
0.0
  0
SPLINE
  5
16c
100
AcDbEntity
  8
H0110_Printing
 62
1
100
AcDbSpline
 70
8
 71
3
 72
8
 73
4
 74
0
 40
0
 40
0
 40
0
 40
0
 40
1
 40
1
 40
1
 40
1
 10
504.674287
 20
1408.718165
 30
0.0
 10
494.103288
 20
1411.362165
 30
0.0
 10
479.348288
 20
1414.888165
 30
0.0
 10
470.759288
 20
1416.651165
 30
0.0
  0
SPLINE
  5
16d
100
AcDbEntity
  8
H0110_Printing
 62
1
100
AcDbSpline
 70
8
 71
3
 72
8
 73
4
 74
0
 40
0
 40
0
 40
0
 40
0
 40
1
 40
1
 40
1
 40
1
 10
470.759288
 20
1416.651165
 30
0.0
 10
462.170288
 20
1418.414165
 30
0.0
 10
459.527289
 20
1419.516165
 30
0.0
 10
459.306289
 20
1427.009164
 30
0.0
  0
SPLINE
  5
16e
100
AcDbEntity
  8
H0110_Printing
 62
1
100
AcDbSpline
 70
8
 71
3
 72
8
 73
4
 74
0
 40
0
 40
0
 40
0
 40
0
 40
1
 40
1
 40
1
 40
1
 10
459.306289
 20
1427.009164
 30
0.0
 10
459.086289
 20
1434.502164
 30
0.0
 10
460.848288
 20
1455.879164
 30
0.0
 10
460.848288
 20
1460.286163
 30
0.0
  0
SPLINE
  5
16f
100
AcDbEntity
  8
H0110_Printing
 62
1
100
AcDbSpline
 70
8
 71
3
 72
8
 73
4
 74
0
 40
0
 40
0
 40
0
 40
0
 40
1
 40
1
 40
1
 40
1
 10
460.848288
 20
1460.286163
 30
0.0
 10
460.848288
 20
1464.694163
 30
0.0
 10
461.289288
 20
1465.796163
 30
0.0
 10
463.711288
 20
1466.236163
 30
0.0
  0
SPLINE
  5
170
100
AcDbEntity
  8
H0110_Printing
 62
1
100
AcDbSpline
 70
8
 71
3
 72
8
 73
4
 74
0
 40
0
 40
0
 40
0
 40
0
 40
1
 40
1
 40
1
 40
1
 10
463.711288
 20
1466.236163
 30
0.0
 10
466.134288
 20
1466.677163
 30
0.0
 10
471.860288
 20
1467.999163
 30
0.0
 10
474.503288
 20
1467.999163
 30
0.0
  0
SPLINE
  5
171
100
AcDbEntity
  8
H0110_Printing
 62
1
100
AcDbSpline
 70
8
 71
3
 72
8
 73
4
 74
0
 40
0
 40
0
 40
0
 40
0
 40
1
 40
1
 40
1
 40
1
 10
474.503288
 20
1467.999163
 30
0.0
 10
477.145288
 20
1467.999163
 30
0.0
 10
481.109288
 20
1469.983163
 30
0.0
 10
481.109288
 20
1464.253163
 30
0.0
  0
SPLINE
  5
172
100
AcDbEntity
  8
H0110_Printing
 62
1
100
AcDbSpline
 70
8
 71
3
 72
8
 73
4
 74
0
 40
0
 40
0
 40
0
 40
0
 40
1
 40
1
 40
1
 40
1
 10
481.109288
 20
1464.253163
 30
0.0
 10
481.109288
 20
1458.523164
 30
0.0
 10
479.568288
 20
1455.438164
 30
0.0
 10
487.496288
 20
1455.438164
 30
0.0
  0
SPLINE
  5
173
100
AcDbEntity
  8
H0110_Printing
 62
1
100
AcDbSpline
 70
8
 71
3
 72
8
 73
4
 74
0
 40
0
 40
0
 40
0
 40
0
 40
1
 40
1
 40
1
 40
1
 10
487.496288
 20
1455.438164
 30
0.0
 10
495.425288
 20
1455.438164
 30
0.0
 10
504.894287
 20
1456.319164
 30
0.0
 10
512.823287
 20
1457.201164
 30
0.0
  0
SPLINE
  5
174
100
AcDbEntity
  8
H0110_Printing
 62
1
100
AcDbSpline
 70
8
 71
3
 72
8
 73
4
 74
0
 40
0
 40
0
 40
0
 40
0
 40
1
 40
1
 40
1
 40
1
 10
512.823287
 20
1457.201164
 30
0.0
 10
520.751287
 20
1458.082164
 30
0.0
 10
520.751287
 20
1457.862164
 30
0.0
 10
520.751287
 20
1465.796163
 30
0.0
  0
LWPOLYLINE
  5
175
100
AcDbEntity
  8
H0110_Printing
 62
1
100
AcDbPolyline
 90
2
 70
0
 10
412.397290
 20
1338.638167
 30
0.0
 10
412.397290
 20
1317.702167
 30
0.0
  0
SPLINE
  5
176
100
AcDbEntity
  8
H0110_Printing
 62
1
100
AcDbSpline
 70
8
 71
3
 72
8
 73
4
 74
0
 40
0
 40
0
 40
0
 40
0
 40
1
 40
1
 40
1
 40
1
 10
520.751287
 20
1505.023162
 30
0.0
 10
520.751287
 20
1514.940162
 30
0.0
 10
519.870287
 20
1517.584162
 30
0.0
 10
506.876287
 20
1515.382162
 30
0.0
  0
LWPOLYLINE
  5
177
100
AcDbEntity
  8
H0110_Printing
 62
1
100
AcDbPolyline
 90
2
 70
0
 10
520.751287
 20
1465.796163
 30
0.0
 10
520.751287
 20
1505.023162
 30
0.0
  0
SPLINE
  5
178
100
AcDbEntity
  8
H0110_Printing
 62
1
100
AcDbSpline
 70
8
 71
3
 72
8
 73
4
 74
0
 40
0
 40
0
 40
0
 40
0
 40
1
 40
1
 40
1
 40
1
 10
774.926381
 20
974.102776
 30
0.0
 10
766.784381
 20
974.102776
 30
0.0
 10
760.184381
 20
980.702775
 30
0.0
 10
760.184381
 20
988.843775
 30
0.0
  0
SPLINE
  5
179
100
AcDbEntity
  8
H0110_Printing
 62
1
100
AcDbSpline
 70
8
 71
3
 72
8
 73
4
 74
0
 40
0
 40
0
 40
0
 40
0
 40
1
 40
1
 40
1
 40
1
 10
760.184381
 20
988.843775
 30
0.0
 10
760.184381
 20
996.984775
 30
0.0
 10
766.784381
 20
1003.584775
 30
0.0
 10
774.926381
 20
1003.584775
 30
0.0
  0
SPLINE
  5
17a
100
AcDbEntity
  8
H0110_Printing
 62
1
100
AcDbSpline
 70
8
 71
3
 72
8
 73
4
 74
0
 40
0
 40
0
 40
0
 40
0
 40
1
 40
1
 40
1
 40
1
 10
774.926381
 20
1003.584775
 30
0.0
 10
783.068380
 20
1003.584775
 30
0.0
 10
789.668380
 20
996.984775
 30
0.0
 10
789.668380
 20
988.843775
 30
0.0
  0
SPLINE
  5
17b
100
AcDbEntity
  8
H0110_Printing
 62
1
100
AcDbSpline
 70
8
 71
3
 72
8
 73
4
 74
0
 40
0
 40
0
 40
0
 40
0
 40
1
 40
1
 40
1
 40
1
 10
789.668380
 20
988.843775
 30
0.0
 10
789.668380
 20
980.702775
 30
0.0
 10
783.068380
 20
974.102776
 30
0.0
 10
774.926381
 20
974.102776
 30
0.0
  0
LWPOLYLINE
  5
17c
100
AcDbEntity
  8
H0110_Printing
 62
1
100
AcDbPolyline
 90
1
 70
1
 10
506.876287
 20
1515.382162
 30
0.0
  0
SPLINE
  5
17d
100
AcDbEntity
  8
H0110_Printing
 62
1
100
AcDbSpline
 70
8
 71
3
 72
8
 73
4
 74
0
 40
0
 40
0
 40
0
 40
0
 40
1
 40
1
 40
1
 40
1
 10
528.487387
 20
1149.939771
 30
0.0
 10
541.481386
 20
1152.142771
 30
0.0
 10
573.194386
 20
1157.433771
 30
0.0
 10
588.610385
 20
1160.519771
 30
0.0
  0
SPLINE
  5
17e
100
AcDbEntity
  8
H0110_Printing
 62
1
100
AcDbSpline
 70
8
 71
3
 72
8
 73
4
 74
0
 40
0
 40
0
 40
0
 40
0
 40
1
 40
1
 40
1
 40
1
 10
588.610385
 20
1160.519771
 30
0.0
 10
604.027385
 20
1163.604771
 30
0.0
 10
611.955385
 20
1165.367771
 30
0.0
 10
611.955385
 20
1173.080771
 30
0.0
  0
LWPOLYLINE
  5
17f
100
AcDbEntity
  8
H0110_Printing
 62
1
100
AcDbPolyline
 90
1
 70
1
 10
774.926381
 20
974.102776
 30
0.0
  0
SPLINE
  5
180
100
AcDbEntity
  8
H0110_Printing
 62
1
100
AcDbSpline
 70
8
 71
3
 72
8
 73
4
 74
0
 40
0
 40
0
 40
0
 40
0
 40
1
 40
1
 40
1
 40
1
 10
611.955385
 20
1201.509770
 30
0.0
 10
611.955385
 20
1212.969770
 30
0.0
 10
620.103384
 20
1207.679770
 30
0.0
 10
620.103384
 20
1201.729770
 30
0.0
  0
LWPOLYLINE
  5
181
100
AcDbEntity
  8
H0110_Printing
 62
1
100
AcDbPolyline
 90
2
 70
0
 10
611.955385
 20
1173.080771
 30
0.0
 10
611.955385
 20
1201.509770
 30
0.0
  0
SPLINE
  5
182
100
AcDbEntity
  8
H0110_Printing
 62
1
100
AcDbSpline
 70
8
 71
3
 72
8
 73
4
 74
0
 40
0
 40
0
 40
0
 40
0
 40
1
 40
1
 40
1
 40
1
 10
620.103384
 20
1173.741771
 30
0.0
 10
620.103384
 20
1167.791771
 30
0.0
 10
636.401384
 20
1171.978771
 30
0.0
 10
650.055384
 20
1174.843771
 30
0.0
  0
SPLINE
  5
183
100
AcDbEntity
  8
H0110_Printing
 62
1
100
AcDbSpline
 70
8
 71
3
 72
8
 73
4
 74
0
 40
0
 40
0
 40
0
 40
0
 40
1
 40
1
 40
1
 40
1
 10
650.055384
 20
1174.843771
 30
0.0
 10
663.709383
 20
1177.708771
 30
0.0
 10
663.930383
 20
1181.895770
 30
0.0
 10
663.930383
 20
1198.424770
 30
0.0
  0
SPLINE
  5
184
100
AcDbEntity
  8
H0110_Printing
 62
1
100
AcDbSpline
 70
8
 71
3
 72
8
 73
4
 74
0
 40
0
 40
0
 40
0
 40
0
 40
1
 40
1
 40
1
 40
1
 10
663.930383
 20
1198.424770
 30
0.0
 10
663.930383
 20
1214.952770
 30
0.0
 10
663.489383
 20
1282.167768
 30
0.0
 10
663.930383
 20
1298.255768
 30
0.0
  0
SPLINE
  5
185
100
AcDbEntity
  8
H0110_Printing
 62
1
100
AcDbSpline
 70
8
 71
3
 72
8
 73
4
 74
0
 40
0
 40
0
 40
0
 40
0
 40
1
 40
1
 40
1
 40
1
 10
663.930383
 20
1298.255768
 30
0.0
 10
664.370383
 20
1314.342767
 30
0.0
 10
681.108383
 20
1312.138767
 30
0.0
 10
680.887383
 20
1298.255768
 30
0.0
  0
SPLINE
  5
186
100
AcDbEntity
  8
H0110_Printing
 62
1
100
AcDbSpline
 70
8
 71
3
 72
8
 73
4
 74
0
 40
0
 40
0
 40
0
 40
0
 40
1
 40
1
 40
1
 40
1
 10
680.887383
 20
1298.255768
 30
0.0
 10
680.667383
 20
1284.371768
 30
0.0
 10
678.244383
 20
1199.085770
 30
0.0
 10
678.244383
 20
1188.066770
 30
0.0
  0
SPLINE
  5
187
100
AcDbEntity
  8
H0110_Printing
 62
1
100
AcDbSpline
 70
8
 71
3
 72
8
 73
4
 74
0
 40
0
 40
0
 40
0
 40
0
 40
1
 40
1
 40
1
 40
1
 10
678.244383
 20
1188.066770
 30
0.0
 10
678.244383
 20
1177.047771
 30
0.0
 10
693.661383
 20
1184.760770
 30
0.0
 10
704.672382
 20
1188.894770
 30
0.0
  0
SPLINE
  5
188
100
AcDbEntity
  8
H0110_Printing
 62
1
100
AcDbSpline
 70
8
 71
3
 72
8
 73
4
 74
0
 40
0
 40
0
 40
0
 40
0
 40
1
 40
1
 40
1
 40
1
 10
704.672382
 20
1188.894770
 30
0.0
 10
715.684382
 20
1193.028770
 30
0.0
 10
718.198382
 20
1186.982770
 30
0.0
 10
716.288382
 20
1175.511771
 30
0.0
  0
SPLINE
  5
189
100
AcDbEntity
  8
H0110_Printing
 62
1
100
AcDbSpline
 70
8
 71
3
 72
8
 73
4
 74
0
 40
0
 40
0
 40
0
 40
0
 40
1
 40
1
 40
1
 40
1
 10
716.288382
 20
1175.511771
 30
0.0
 10
714.377382
 20
1164.039771
 30
0.0
 10
686.264383
 20
1017.916775
 30
0.0
 10
681.078383
 20
993.881775
 30
0.0
  0
SPLINE
  5
18a
100
AcDbEntity
  8
H0110_Printing
 62
1
100
AcDbSpline
 70
8
 71
3
 72
8
 73
4
 74
0
 40
0
 40
0
 40
0
 40
0
 40
1
 40
1
 40
1
 40
1
 10
681.078383
 20
993.881775
 30
0.0
 10
675.892383
 20
969.846776
 30
0.0
 10
689.266383
 20
964.656776
 30
0.0
 10
703.459382
 20
964.656776
 30
0.0
  0
LWPOLYLINE
  5
18b
100
AcDbEntity
  8
H0110_Printing
 62
1
100
AcDbPolyline
 90
2
 70
0
 10
620.103384
 20
1201.729770
 30
0.0
 10
620.103384
 20
1173.741771
 30
0.0
  0
SPLINE
  5
18c
100
AcDbEntity
  8
H0110_Printing
 62
1
100
AcDbSpline
 70
8
 71
3
 72
8
 73
4
 74
0
 40
0
 40
0
 40
0
 40
0
 40
1
 40
1
 40
1
 40
1
 10
860.676378
 20
964.656776
 30
0.0
 10
884.968378
 20
964.656776
 30
0.0
 10
884.422378
 20
974.216776
 30
0.0
 10
881.693378
 20
993.062775
 30
0.0
  0
SPLINE
  5
18d
100
AcDbEntity
  8
H0110_Printing
 62
1
100
AcDbSpline
 70
8
 71
3
 72
8
 73
4
 74
0
 40
0
 40
0
 40
0
 40
0
 40
1
 40
1
 40
1
 40
1
 10
881.693378
 20
993.062775
 30
0.0
 10
878.964378
 20
1011.907775
 30
0.0
 10
847.302379
 20
1188.894770
 30
0.0
 10
847.302379
 20
1188.894770
 30
0.0
  0
SPLINE
  5
18e
100
AcDbEntity
  8
H0110_Printing
 62
1
100
AcDbSpline
 70
8
 71
3
 72
8
 73
4
 74
0
 40
0
 40
0
 40
0
 40
0
 40
1
 40
1
 40
1
 40
1
 10
847.302379
 20
1188.894770
 30
0.0
 10
847.302379
 20
1188.894770
 30
0.0
 10
894.511378
 20
1179.030771
 30
0.0
 10
903.100377
 20
1176.606771
 30
0.0
  0
SPLINE
  5
18f
100
AcDbEntity
  8
H0110_Printing
 62
1
100
AcDbSpline
 70
8
 71
3
 72
8
 73
4
 74
0
 40
0
 40
0
 40
0
 40
0
 40
1
 40
1
 40
1
 40
1
 10
903.100377
 20
1176.606771
 30
0.0
 10
911.690377
 20
1174.182771
 30
0.0
 10
913.011377
 20
1176.165771
 30
0.0
 10
913.011377
 20
1182.777770
 30
0.0
  0
LWPOLYLINE
  5
190
100
AcDbEntity
  8
H0110_Printing
 62
1
100
AcDbPolyline
 90
2
 70
0
 10
703.459382
 20
964.656776
 30
0.0
 10
860.676378
 20
964.656776
 30
0.0
  0
SPLINE
  5
191
100
AcDbEntity
  8
H0110_Printing
 62
1
100
AcDbSpline
 70
8
 71
3
 72
8
 73
4
 74
0
 40
0
 40
0
 40
0
 40
0
 40
1
 40
1
 40
1
 40
1
 10
913.011377
 20
1210.544770
 30
0.0
 10
913.011377
 20
1218.478770
 30
0.0
 10
918.737377
 20
1218.037770
 30
0.0
 10
918.737377
 20
1212.087770
 30
0.0
  0
LWPOLYLINE
  5
192
100
AcDbEntity
  8
H0110_Printing
 62
1
100
AcDbPolyline
 90
2
 70
0
 10
913.011377
 20
1182.777770
 30
0.0
 10
913.011377
 20
1210.544770
 30
0.0
  0
SPLINE
  5
193
100
AcDbEntity
  8
H0110_Printing
 62
1
100
AcDbSpline
 70
8
 71
3
 72
8
 73
4
 74
0
 40
0
 40
0
 40
0
 40
0
 40
1
 40
1
 40
1
 40
1
 10
918.737377
 20
1190.490770
 30
0.0
 10
918.737377
 20
1176.606771
 30
0.0
 10
917.856377
 20
1174.843771
 30
0.0
 10
927.326377
 20
1171.978771
 30
0.0
  0
SPLINE
  5
194
100
AcDbEntity
  8
H0110_Printing
 62
1
100
AcDbSpline
 70
8
 71
3
 72
8
 73
4
 74
0
 40
0
 40
0
 40
0
 40
0
 40
1
 40
1
 40
1
 40
1
 10
927.326377
 20
1171.978771
 30
0.0
 10
936.796377
 20
1169.113771
 30
0.0
 10
1002.865375
 20
1149.939771
 30
0.0
 10
1018.281375
 20
1149.939771
 30
0.0
  0
SPLINE
  5
195
100
AcDbEntity
  8
H0110_Printing
 62
1
100
AcDbSpline
 70
8
 71
3
 72
8
 73
4
 74
0
 40
0
 40
0
 40
0
 40
0
 40
1
 40
1
 40
1
 40
1
 10
1018.281375
 20
1149.939771
 30
0.0
 10
1033.697374
 20
1149.939771
 30
0.0
 10
1035.239374
 20
1155.009771
 30
0.0
 10
1035.239374
 20
1163.384771
 30
0.0
  0
LWPOLYLINE
  5
196
100
AcDbEntity
  8
H0110_Printing
 62
1
100
AcDbPolyline
 90
2
 70
0
 10
918.737377
 20
1212.087770
 30
0.0
 10
918.737377
 20
1190.490770
 30
0.0
  0
SPLINE
  5
197
100
AcDbEntity
  8
H0110_Printing
 62
1
100
AcDbSpline
 70
8
 71
3
 72
8
 73
4
 74
0
 40
0
 40
0
 40
0
 40
0
 40
1
 40
1
 40
1
 40
1
 10
1035.239374
 20
1202.170770
 30
0.0
 10
1035.239374
 20
1213.409770
 30
0.0
 10
1014.317375
 20
1211.867770
 30
0.0
 10
1005.948375
 20
1211.867770
 30
0.0
  0
SPLINE
  5
198
100
AcDbEntity
  8
H0110_Printing
 62
1
100
AcDbSpline
 70
8
 71
3
 72
8
 73
4
 74
0
 40
0
 40
0
 40
0
 40
0
 40
1
 40
1
 40
1
 40
1
 10
1005.948375
 20
1211.867770
 30
0.0
 10
997.580375
 20
1211.867770
 30
0.0
 10
996.919375
 20
1209.442770
 30
0.0
 10
996.919375
 20
1204.153770
 30
0.0
  0
SPLINE
  5
199
100
AcDbEntity
  8
H0110_Printing
 62
1
100
AcDbSpline
 70
8
 71
3
 72
8
 73
4
 74
0
 40
0
 40
0
 40
0
 40
0
 40
1
 40
1
 40
1
 40
1
 10
996.919375
 20
1204.153770
 30
0.0
 10
996.919375
 20
1198.864770
 30
0.0
 10
981.283375
 20
1204.153770
 30
0.0
 10
968.289376
 20
1206.798770
 30
0.0
  0
SPLINE
  5
19a
100
AcDbEntity
  8
H0110_Printing
 62
1
100
AcDbSpline
 70
8
 71
3
 72
8
 73
4
 74
0
 40
0
 40
0
 40
0
 40
0
 40
1
 40
1
 40
1
 40
1
 10
968.289376
 20
1206.798770
 30
0.0
 10
955.295376
 20
1209.442770
 30
0.0
 10
958.819376
 20
1211.867770
 30
0.0
 10
958.819376
 20
1222.224769
 30
0.0
  0
LWPOLYLINE
  5
19b
100
AcDbEntity
  8
H0110_Printing
 62
1
100
AcDbPolyline
 90
2
 70
0
 10
1035.239374
 20
1163.384771
 30
0.0
 10
1035.239374
 20
1202.170770
 30
0.0
  0
SPLINE
  5
19c
100
AcDbEntity
  8
H0110_Printing
 62
1
100
AcDbSpline
 70
8
 71
3
 72
8
 73
4
 74
0
 40
0
 40
0
 40
0
 40
0
 40
1
 40
1
 40
1
 40
1
 10
958.819376
 20
1310.155767
 30
0.0
 10
958.819376
 20
1326.463767
 30
0.0
 10
962.563376
 20
1324.259767
 30
0.0
 10
972.473376
 20
1327.785767
 30
0.0
  0
SPLINE
  5
19d
100
AcDbEntity
  8
H0110_Printing
 62
1
100
AcDbSpline
 70
8
 71
3
 72
8
 73
4
 74
0
 40
0
 40
0
 40
0
 40
0
 40
1
 40
1
 40
1
 40
1
 10
972.473376
 20
1327.785767
 30
0.0
 10
982.384375
 20
1331.311767
 30
0.0
 10
993.175375
 20
1335.278767
 30
0.0
 10
993.175375
 20
1325.802767
 30
0.0
  0
LWPOLYLINE
  5
19e
100
AcDbEntity
  8
H0110_Printing
 62
1
100
AcDbPolyline
 90
2
 70
0
 10
958.819376
 20
1222.224769
 30
0.0
 10
958.819376
 20
1310.155767
 30
0.0
  0
SPLINE
  5
19f
100
AcDbEntity
  8
H0110_Printing
 62
1
100
AcDbSpline
 70
8
 71
3
 72
8
 73
4
 74
0
 40
0
 40
0
 40
0
 40
0
 40
1
 40
1
 40
1
 40
1
 10
993.175375
 20
1288.244768
 30
0.0
 10
993.175375
 20
1280.217768
 30
0.0
 10
996.258375
 20
1280.404768
 30
0.0
 10
1001.324375
 20
1281.506768
 30
0.0
  0
SPLINE
  5
1a0
100
AcDbEntity
  8
H0110_Printing
 62
1
100
AcDbSpline
 70
8
 71
3
 72
8
 73
4
 74
0
 40
0
 40
0
 40
0
 40
0
 40
1
 40
1
 40
1
 40
1
 10
1001.324375
 20
1281.506768
 30
0.0
 10
1006.389375
 20
1282.608768
 30
0.0
 10
1021.365374
 20
1285.252768
 30
0.0
 10
1026.210374
 20
1286.354768
 30
0.0
  0
SPLINE
  5
1a1
100
AcDbEntity
  8
H0110_Printing
 62
1
100
AcDbSpline
 70
8
 71
3
 72
8
 73
4
 74
0
 40
0
 40
0
 40
0
 40
0
 40
1
 40
1
 40
1
 40
1
 10
1026.210374
 20
1286.354768
 30
0.0
 10
1031.055374
 20
1287.456768
 30
0.0
 10
1032.156374
 20
1287.456768
 30
0.0
 10
1032.156374
 20
1296.051768
 30
0.0
  0
LWPOLYLINE
  5
1a2
100
AcDbEntity
  8
H0110_Printing
 62
1
100
AcDbPolyline
 90
2
 70
0
 10
993.175375
 20
1325.802767
 30
0.0
 10
993.175375
 20
1288.244768
 30
0.0
  0
SPLINE
  5
1a3
100
AcDbEntity
  8
H0110_Printing
 62
1
100
AcDbSpline
 70
8
 71
3
 72
8
 73
4
 74
0
 40
0
 40
0
 40
0
 40
0
 40
1
 40
1
 40
1
 40
1
 10
1032.156374
 20
1364.368766
 30
0.0
 10
1032.156374
 20
1385.083765
 30
0.0
 10
1015.859375
 20
1380.235765
 30
0.0
 10
1005.067375
 20
1378.252766
 30
0.0
  0
SPLINE
  5
1a4
100
AcDbEntity
  8
H0110_Printing
 62
1
100
AcDbSpline
 70
8
 71
3
 72
8
 73
4
 74
0
 40
0
 40
0
 40
0
 40
0
 40
1
 40
1
 40
1
 40
1
 10
1005.067375
 20
1378.252766
 30
0.0
 10
994.276375
 20
1376.268766
 30
0.0
 10
942.081376
 20
1363.266766
 30
0.0
 10
930.629377
 20
1360.181766
 30
0.0
  0
SPLINE
  5
1a5
100
AcDbEntity
  8
H0110_Printing
 62
1
100
AcDbSpline
 70
8
 71
3
 72
8
 73
4
 74
0
 40
0
 40
0
 40
0
 40
0
 40
1
 40
1
 40
1
 40
1
 10
930.629377
 20
1360.181766
 30
0.0
 10
919.177377
 20
1357.095766
 30
0.0
 10
921.820377
 20
1353.790766
 30
0.0
 10
921.820377
 20
1346.738766
 30
0.0
  0
LWPOLYLINE
  5
1a6
100
AcDbEntity
  8
H0110_Printing
 62
1
100
AcDbPolyline
 90
2
 70
0
 10
1032.156374
 20
1296.051768
 30
0.0
 10
1032.156374
 20
1364.368766
 30
0.0
  0
SPLINE
  5
1a7
100
AcDbEntity
  8
H0110_Printing
 62
1
100
AcDbSpline
 70
8
 71
3
 72
8
 73
4
 74
0
 40
0
 40
0
 40
0
 40
0
 40
1
 40
1
 40
1
 40
1
 10
921.820377
 20
1319.631767
 30
0.0
 10
921.820377
 20
1309.494767
 30
0.0
 10
913.231377
 20
1310.816767
 30
0.0
 10
913.231377
 20
1319.631767
 30
0.0
  0
SPLINE
  5
1a8
100
AcDbEntity
  8
H0110_Printing
 62
1
100
AcDbSpline
 70
8
 71
3
 72
8
 73
4
 74
0
 40
0
 40
0
 40
0
 40
0
 40
1
 40
1
 40
1
 40
1
 10
913.231377
 20
1319.631767
 30
0.0
 10
913.231377
 20
1328.446767
 30
0.0
 10
912.570377
 20
1333.735767
 30
0.0
 10
913.231377
 20
1341.889766
 30
0.0
  0
SPLINE
  5
1a9
100
AcDbEntity
  8
H0110_Printing
 62
1
100
AcDbSpline
 70
8
 71
3
 72
8
 73
4
 74
0
 40
0
 40
0
 40
0
 40
0
 40
1
 40
1
 40
1
 40
1
 10
913.231377
 20
1341.889766
 30
0.0
 10
913.892377
 20
1350.043766
 30
0.0
 10
911.249377
 20
1353.569766
 30
0.0
 10
900.898377
 20
1351.822766
 30
0.0
  0
SPLINE
  5
1aa
100
AcDbEntity
  8
H0110_Printing
 62
1
100
AcDbSpline
 70
8
 71
3
 72
8
 73
4
 74
0
 40
0
 40
0
 40
0
 40
0
 40
1
 40
1
 40
1
 40
1
 10
900.898377
 20
1351.822766
 30
0.0
 10
890.547378
 20
1350.075766
 30
0.0
 10
849.144379
 20
1339.024767
 30
0.0
 10
849.144379
 20
1339.024767
 30
0.0
  0
SPLINE
  5
1ab
100
AcDbEntity
  8
H0110_Printing
 62
1
100
AcDbSpline
 70
8
 71
3
 72
8
 73
4
 74
0
 40
0
 40
0
 40
0
 40
0
 40
1
 40
1
 40
1
 40
1
 10
849.144379
 20
1339.024767
 30
0.0
 10
849.144379
 20
1339.024767
 30
0.0
 10
878.214378
 20
1669.370758
 30
0.0
 10
878.214378
 20
1682.152758
 30
0.0
  0
SPLINE
  5
1ac
100
AcDbEntity
  8
H0110_Printing
 62
1
100
AcDbSpline
 70
8
 71
3
 72
8
 73
4
 74
0
 40
0
 40
0
 40
0
 40
0
 40
1
 40
1
 40
1
 40
1
 10
878.214378
 20
1682.152758
 30
0.0
 10
878.214378
 20
1694.934758
 30
0.0
 10
878.655378
 20
1700.664757
 30
0.0
 10
866.102378
 20
1700.664757
 30
0.0
  0
LWPOLYLINE
  5
1ad
100
AcDbEntity
  8
H0110_Printing
 62
1
100
AcDbPolyline
 90
2
 70
0
 10
921.820377
 20
1346.738766
 30
0.0
 10
921.820377
 20
1319.631767
 30
0.0
  0
SPLINE
  5
1ae
100
AcDbEntity
  8
H0110_Printing
 62
1
100
AcDbSpline
 70
8
 71
3
 72
8
 73
4
 74
0
 40
0
 40
0
 40
0
 40
0
 40
1
 40
1
 40
1
 40
1
 10
702.910382
 20
1700.664757
 30
0.0
 10
690.798383
 20
1700.664757
 30
0.0
 10
685.732383
 20
1698.460758
 30
0.0
 10
687.054383
 20
1687.221758
 30
0.0
  0
SPLINE
  5
1af
100
AcDbEntity
  8
H0110_Printing
 62
1
100
AcDbSpline
 70
8
 71
3
 72
8
 73
4
 74
0
 40
0
 40
0
 40
0
 40
0
 40
1
 40
1
 40
1
 40
1
 10
687.054383
 20
1687.221758
 30
0.0
 10
688.375383
 20
1675.982758
 30
0.0
 10
719.207382
 20
1327.124767
 30
0.0
 10
719.207382
 20
1327.124767
 30
0.0
  0
LWPOLYLINE
  5
1b0
100
AcDbEntity
  8
H0110_Printing
 62
1
100
AcDbPolyline
 90
2
 70
0
 10
866.102378
 20
1700.664757
 30
0.0
 10
702.910382
 20
1700.664757
 30
0.0
  0
SPLINE
  5
1b1
100
AcDbEntity
  8
H0110_Printing
 62
1
100
AcDbSpline
 70
8
 71
3
 72
8
 73
4
 74
0
 40
0
 40
0
 40
0
 40
0
 40
1
 40
1
 40
1
 40
1
 10
711.940382
 20
1334.617767
 30
0.0
 10
704.672382
 20
1342.110766
 30
0.0
 10
683.090383
 20
1351.822766
 30
0.0
 10
660.186383
 20
1351.822766
 30
0.0
  0
SPLINE
  5
1b2
100
AcDbEntity
  8
H0110_Printing
 62
1
100
AcDbSpline
 70
8
 71
3
 72
8
 73
4
 74
0
 40
0
 40
0
 40
0
 40
0
 40
1
 40
1
 40
1
 40
1
 10
660.186383
 20
1351.822766
 30
0.0
 10
637.281384
 20
1351.822766
 30
0.0
 10
626.490384
 20
1332.413767
 30
0.0
 10
626.050384
 20
1326.904767
 30
0.0
  0
SPLINE
  5
1b3
100
AcDbEntity
  8
H0110_Printing
 62
1
100
AcDbSpline
 70
8
 71
3
 72
8
 73
4
 74
0
 40
0
 40
0
 40
0
 40
0
 40
1
 40
1
 40
1
 40
1
 10
626.050384
 20
1326.904767
 30
0.0
 10
625.609384
 20
1321.394767
 30
0.0
 10
622.967384
 20
1320.954767
 30
0.0
 10
622.967384
 20
1326.683767
 30
0.0
  0
LWPOLYLINE
  5
1b4
100
AcDbEntity
  8
H0110_Printing
 62
1
100
AcDbPolyline
 90
2
 70
0
 10
719.207382
 20
1327.124767
 30
0.0
 10
711.940382
 20
1334.617767
 30
0.0
  0
SPLINE
  5
1b5
100
AcDbEntity
  8
H0110_Printing
 62
1
100
AcDbSpline
 70
8
 71
3
 72
8
 73
4
 74
0
 40
0
 40
0
 40
0
 40
0
 40
1
 40
1
 40
1
 40
1
 10
622.967384
 20
1347.619766
 30
0.0
 10
622.967384
 20
1360.401766
 30
0.0
 10
621.645384
 20
1361.503766
 30
0.0
 10
613.056385
 20
1364.588766
 30
0.0
  0
SPLINE
  5
1b6
100
AcDbEntity
  8
H0110_Printing
 62
1
100
AcDbSpline
 70
8
 71
3
 72
8
 73
4
 74
0
 40
0
 40
0
 40
0
 40
0
 40
1
 40
1
 40
1
 40
1
 10
613.056385
 20
1364.588766
 30
0.0
 10
604.467385
 20
1367.674766
 30
0.0
 10
561.522386
 20
1378.692766
 30
0.0
 10
544.564386
 20
1381.117765
 30
0.0
  0
SPLINE
  5
1b7
100
AcDbEntity
  8
H0110_Printing
 62
1
100
AcDbSpline
 70
8
 71
3
 72
8
 73
4
 74
0
 40
0
 40
0
 40
0
 40
0
 40
1
 40
1
 40
1
 40
1
 10
544.564386
 20
1381.117765
 30
0.0
 10
527.606387
 20
1383.541765
 30
0.0
 10
520.339387
 20
1381.998765
 30
0.0
 10
519.458387
 20
1370.979766
 30
0.0
  0
SPLINE
  5
1b8
100
AcDbEntity
  8
H0110_Printing
 62
1
100
AcDbSpline
 70
8
 71
3
 72
8
 73
4
 74
0
 40
0
 40
0
 40
0
 40
0
 40
1
 40
1
 40
1
 40
1
 10
519.458387
 20
1370.979766
 30
0.0
 10
518.577387
 20
1359.960766
 30
0.0
 10
516.154387
 20
1294.949768
 30
0.0
 10
516.154387
 20
1279.743768
 30
0.0
  0
SPLINE
  5
1b9
100
AcDbEntity
  8
H0110_Printing
 62
1
100
AcDbSpline
 70
8
 71
3
 72
8
 73
4
 74
0
 40
0
 40
0
 40
0
 40
0
 40
1
 40
1
 40
1
 40
1
 10
516.154387
 20
1279.743768
 30
0.0
 10
516.154387
 20
1264.537768
 30
0.0
 10
520.119387
 20
1259.248769
 30
0.0
 10
530.690387
 20
1256.603769
 30
0.0
  0
SPLINE
  5
1ba
100
AcDbEntity
  8
H0110_Printing
 62
1
100
AcDbSpline
 70
8
 71
3
 72
8
 73
4
 74
0
 40
0
 40
0
 40
0
 40
0
 40
1
 40
1
 40
1
 40
1
 10
530.690387
 20
1256.603769
 30
0.0
 10
541.261386
 20
1253.959769
 30
0.0
 10
556.016386
 20
1250.433769
 30
0.0
 10
564.605386
 20
1248.670769
 30
0.0
  0
SPLINE
  5
1bb
100
AcDbEntity
  8
H0110_Printing
 62
1
100
AcDbSpline
 70
8
 71
3
 72
8
 73
4
 74
0
 40
0
 40
0
 40
0
 40
0
 40
1
 40
1
 40
1
 40
1
 10
564.605386
 20
1248.670769
 30
0.0
 10
573.194386
 20
1246.907769
 30
0.0
 10
575.837386
 20
1245.805769
 30
0.0
 10
576.057386
 20
1238.312769
 30
0.0
  0
SPLINE
  5
1bc
100
AcDbEntity
  8
H0110_Printing
 62
1
100
AcDbSpline
 70
8
 71
3
 72
8
 73
4
 74
0
 40
0
 40
0
 40
0
 40
0
 40
1
 40
1
 40
1
 40
1
 10
576.057386
 20
1238.312769
 30
0.0
 10
576.278386
 20
1230.819769
 30
0.0
 10
574.516386
 20
1209.442770
 30
0.0
 10
574.516386
 20
1205.035770
 30
0.0
  0
SPLINE
  5
1bd
100
AcDbEntity
  8
H0110_Printing
 62
1
100
AcDbSpline
 70
8
 71
3
 72
8
 73
4
 74
0
 40
0
 40
0
 40
0
 40
0
 40
1
 40
1
 40
1
 40
1
 10
574.516386
 20
1205.035770
 30
0.0
 10
574.516386
 20
1200.627770
 30
0.0
 10
574.075386
 20
1199.525770
 30
0.0
 10
571.653386
 20
1199.085770
 30
0.0
  0
SPLINE
  5
1be
100
AcDbEntity
  8
H0110_Printing
 62
1
100
AcDbSpline
 70
8
 71
3
 72
8
 73
4
 74
0
 40
0
 40
0
 40
0
 40
0
 40
1
 40
1
 40
1
 40
1
 10
571.653386
 20
1199.085770
 30
0.0
 10
569.230386
 20
1198.644770
 30
0.0
 10
563.504386
 20
1197.322770
 30
0.0
 10
560.861386
 20
1197.322770
 30
0.0
  0
SPLINE
  5
1bf
100
AcDbEntity
  8
H0110_Printing
 62
1
100
AcDbSpline
 70
8
 71
3
 72
8
 73
4
 74
0
 40
0
 40
0
 40
0
 40
0
 40
1
 40
1
 40
1
 40
1
 10
560.861386
 20
1197.322770
 30
0.0
 10
558.219386
 20
1197.322770
 30
0.0
 10
554.254386
 20
1195.338770
 30
0.0
 10
554.254386
 20
1201.068770
 30
0.0
  0
SPLINE
  5
1c0
100
AcDbEntity
  8
H0110_Printing
 62
1
100
AcDbSpline
 70
8
 71
3
 72
8
 73
4
 74
0
 40
0
 40
0
 40
0
 40
0
 40
1
 40
1
 40
1
 40
1
 10
554.254386
 20
1201.068770
 30
0.0
 10
554.254386
 20
1206.798770
 30
0.0
 10
555.796386
 20
1209.883770
 30
0.0
 10
547.868386
 20
1209.883770
 30
0.0
  0
SPLINE
  5
1c1
100
AcDbEntity
  8
H0110_Printing
 62
1
100
AcDbSpline
 70
8
 71
3
 72
8
 73
4
 74
0
 40
0
 40
0
 40
0
 40
0
 40
1
 40
1
 40
1
 40
1
 10
547.868386
 20
1209.883770
 30
0.0
 10
539.939387
 20
1209.883770
 30
0.0
 10
530.470387
 20
1209.002770
 30
0.0
 10
522.541387
 20
1208.120770
 30
0.0
  0
SPLINE
  5
1c2
100
AcDbEntity
  8
H0110_Printing
 62
1
100
AcDbSpline
 70
8
 71
3
 72
8
 73
4
 74
0
 40
0
 40
0
 40
0
 40
0
 40
1
 40
1
 40
1
 40
1
 10
522.541387
 20
1208.120770
 30
0.0
 10
514.613387
 20
1207.239770
 30
0.0
 10
514.613387
 20
1207.459770
 30
0.0
 10
514.613387
 20
1199.525770
 30
0.0
  0
LWPOLYLINE
  5
1c3
100
AcDbEntity
  8
H0110_Printing
 62
1
100
AcDbPolyline
 90
2
 70
0
 10
622.967384
 20
1326.683767
 30
0.0
 10
622.967384
 20
1347.619766
 30
0.0
  0
SPLINE
  5
1c4
100
AcDbEntity
  8
H0110_Printing
 62
1
100
AcDbSpline
 70
8
 71
3
 72
8
 73
4
 74
0
 40
0
 40
0
 40
0
 40
0
 40
1
 40
1
 40
1
 40
1
 10
514.613387
 20
1160.298771
 30
0.0
 10
514.613387
 20
1150.381771
 30
0.0
 10
515.494387
 20
1147.737771
 30
0.0
 10
528.487387
 20
1149.939771
 30
0.0
  0
LWPOLYLINE
  5
1c5
100
AcDbEntity
  8
H0110_Printing
 62
1
100
AcDbPolyline
 90
2
 70
0
 10
514.613387
 20
1199.525770
 30
0.0
 10
514.613387
 20
1160.298771
 30
0.0
  0
LWPOLYLINE
  5
1c6
100
AcDbEntity
  8
H0110_Printing
 62
1
100
AcDbPolyline
 90
1
 70
1
 10
528.487387
 20
1149.939771
 30
0.0
  0
ENDSEC
  0
SECTION
  2
OBJECTS
  0
DICTIONARY
  5
C
330
0
100
AcDbDictionary
  3
ACAD_GROUP
350
D
  3
ACAD_MLINESTYLE
350
17
  0
DICTIONARY
  5
D
330
C
100
AcDbDictionary
  0
DICTIONARY
  5
1A
330
C
100
AcDbDictionary
  0
DICTIONARY
  5
17
330
C
100
AcDbDictionary
  3
STANDARD
350
18
  0
DICTIONARY
  5
19
330
C
100
AcDbDictionary
  0
ENDSEC
  0
EOF
